<?xml version="1.0" standalone="no"?>
<!DOCTYPE svg PUBLIC "-//W3C//DTD SVG 1.1//EN" "http://www.w3.org/Graphics/SVG/1.1/DTD/svg11.dtd" >
<svg xmlns="http://www.w3.org/2000/svg" xmlns:xlink="http://www.w3.org/1999/xlink" version="1.1">
<metadata>
Created by FontForge 20141024 at Thu May 21 10:39:27 2015
 By System Administrator
Copyright (c) 2013 Quote-Unquote Apps.
</metadata>
<defs>
<font id="CourierPrime-Bold" horiz-adv-x="1228" >
  <font-face 
    font-family="Courier Prime"
    font-weight="700"
    font-stretch="normal"
    units-per-em="2048"
    panose-1="2 0 4 9 0 0 0 0 0 0"
    ascent="1638"
    descent="-410"
    x-height="924"
    cap-height="1187"
    bbox="-516 -838 3250 1797"
    underline-thickness="180"
    underline-position="-40"
    unicode-range="U+0020-FB02"
  />
<missing-glyph 
 />
    <glyph glyph-name=".notdef" 
 />
    <glyph glyph-name="exclam" unicode="!" 
d="M739 1209q47 0 41 -50l-73 -577q-5 -38 -29.5 -58t-63.5 -20t-63.5 20t-29.5 58l-73 577q-6 50 41 50h250zM425 167q0 39 15 74t40.5 60.5t60 40.5t73.5 15t73.5 -15t60 -40.5t40.5 -60.5t15 -74t-15 -73.5t-40.5 -60t-60 -40.5t-73.5 -15t-73.5 15t-60 40.5t-40.5 60
t-15 73.5z" />
    <glyph glyph-name="quotedbl" unicode="&#x22;" 
d="M509 1209q23 0 34 -12t7 -38l-73 -480q-5 -31 -24.5 -49.5t-68.5 -18.5t-68.5 18.5t-24.5 49.5l-73 480q-4 26 7 38t34 12h250zM969 1209q23 0 34 -12t7 -38l-73 -480q-5 -31 -24.5 -49.5t-68.5 -18.5t-68.5 18.5t-24.5 49.5l-73 480q-4 26 7 38t34 12h250z" />
    <glyph glyph-name="numbersign" unicode="#" 
d="M438 940l74 236q5 17 26.5 25t47.5 8q21 0 43 -4.5t38.5 -13.5t25 -21.5t3.5 -27.5l-63 -202h179l74 236q5 17 26.5 25t47.5 8q21 0 43 -4.5t38.5 -13.5t25 -21.5t3.5 -27.5l-63 -202h118q17 0 29 -4.5t19.5 -16.5t11 -34t3.5 -58t-3.5 -58t-11 -34t-19.5 -16t-29 -4
h-189l-73 -233h162q17 0 29 -4.5t19.5 -16.5t11 -34t3.5 -58t-3.5 -58t-11 -34t-19.5 -16t-29 -4h-232l-77 -246q-5 -17 -26.5 -25t-47.5 -8q-21 0 -43 4.5t-38.5 13.5t-25 21.5t-3.5 27.5l66 212h-179l-77 -246q-5 -17 -26.5 -25t-47.5 -8q-21 0 -43 4.5t-38.5 13.5
t-25 21.5t-3.5 27.5l66 212h-121q-17 0 -29 4t-19.5 16t-11 34t-3.5 58t3.5 58t11 34t19.5 16.5t29 4.5h192l73 233h-165q-17 0 -29 4t-19.5 16t-11 34t-3.5 58t3.5 58t11 34t19.5 16.5t29 4.5h235zM489 482h180l73 233h-180z" />
    <glyph glyph-name="dollar" unicode="$" 
d="M414 181q0 -34 -29 -48.5t-93 -14.5t-91 14.5t-27 48.5v223q0 34 23.5 48.5t72.5 14.5q33 0 52.5 -7t30.5 -21q32 -40 73 -65t89 -39v161q-57 9 -111.5 23.5t-101.5 40.5q-60 33 -99 90t-39 150q0 66 26.5 118t73.5 89t111.5 57t139.5 22v163q0 34 18.5 48.5t74.5 14.5
t74.5 -14.5t18.5 -48.5v-191q49 -18 93 -45v10q0 34 24 48.5t88 14.5t91 -14.5t27 -48.5v-211q0 -34 -21.5 -48.5t-70.5 -14.5q-53 0 -73 21q-35 37 -74 60t-84 37v-146q51 -6 102 -16.5t97 -29.5q36 -15 67.5 -36.5t54 -51.5t35.5 -69.5t13 -90.5q0 -68 -24.5 -123.5
t-71.5 -95.5t-115.5 -63.5t-157.5 -26.5v-180q0 -34 -18.5 -48.5t-74.5 -14.5t-74.5 14.5t-18.5 48.5v204q-28 9 -53 21t-48 26v-8zM701 470v-150q57 6 84 26.5t27 54.5q0 26 -27 45t-84 27v-3zM422 809q0 -16 8 -27.5t21 -19t29.5 -12.5t34.5 -8v142q-45 -6 -69 -26
t-24 -49z" />
    <glyph glyph-name="percent" unicode="%" 
d="M50 935q0 57 21.5 106.5t59 87t87 59t106.5 21.5t106.5 -21.5t87 -59t59 -87t21.5 -106.5t-21.5 -106.5t-59 -87t-87 -59t-106.5 -21.5t-106.5 21.5t-87 59t-59 87t-21.5 106.5zM237 935q0 -36 25.5 -61.5t61.5 -25.5t61.5 25.5t25.5 61.5t-25.5 61.5t-61.5 25.5
t-61.5 -25.5t-25.5 -61.5zM630 252q0 57 21.5 106.5t59 87t87 59t106.5 21.5t106.5 -21.5t87 -59t59 -87t21.5 -106.5t-21.5 -106.5t-59 -87t-87 -59t-106.5 -21.5t-106.5 21.5t-87 59t-59 87t-21.5 106.5zM817 252q0 -36 25.5 -61.5t61.5 -25.5t61.5 25.5t25.5 61.5
t-25.5 61.5t-61.5 25.5t-61.5 -25.5t-25.5 -61.5zM985 1083q12 12 23.5 17t24 2t28.5 -14.5t37 -33.5t31.5 -38t12.5 -29t-4 -24t-18 -23l-877 -834q-12 -12 -23.5 -17t-24.5 -2.5t-28.5 14t-36.5 33.5q-41 44 -44 68t22 47z" />
    <glyph glyph-name="ampersand" unicode="&#x26;" 
d="M1084 205q17 0 29 -4t19.5 -15.5t11 -31.5t3.5 -52t-3.5 -52t-11 -31t-19.5 -15t-29 -4h-171q-40 0 -72 33l-65 67q-66 -63 -145.5 -92.5t-174.5 -29.5q-80 0 -144.5 25t-110 70.5t-70 108.5t-24.5 138q0 97 45.5 170t134.5 132q-38 54 -61.5 114.5t-23.5 129.5
q0 74 26 137t75 108.5t120 71.5t160 26q77 0 158.5 -23.5t170.5 -72.5q22 -12 32.5 -26.5t10.5 -35.5v-197q0 -34 -29 -48.5t-93 -14.5q-32 0 -53 3.5t-33 11t-17 19.5t-5 29v102q-33 17 -69 26.5t-74 9.5q-56 0 -91 -35.5t-35 -95.5q0 -51 30 -98.5t78 -96.5l181 -189
q12 29 24 60.5t23 65.5q6 19 17.5 30.5t34.5 11.5h220q17 0 29 -4t19.5 -15t11 -31t3.5 -52t-3.5 -52t-11 -31.5t-19.5 -15.5t-29 -4h-91q-27 -77 -57 -141l91 -94h77zM422 469q-33 -30 -50 -63.5t-17 -75.5q0 -57 32.5 -91t88.5 -34q41 0 75.5 15.5t65.5 45.5z" />
    <glyph glyph-name="quotesingle" unicode="'" 
d="M739 1209q23 0 34 -12t7 -38l-73 -480q-5 -31 -24.5 -49.5t-68.5 -18.5t-68.5 18.5t-24.5 49.5l-73 480q-4 26 7 38t34 12h250z" />
    <glyph glyph-name="parenleft" unicode="(" 
d="M771 -397q-95 54 -187.5 133.5t-165 186t-117 240.5t-44.5 296t44.5 296t117 240.5t165 186t187.5 133.5q30 17 62 -2.5t58 -57.5q13 -20 22 -41t12 -39t-0.5 -32.5t-15.5 -21.5q-97 -61 -172 -130.5t-126.5 -151t-78.5 -176t-27 -204.5t27 -204.5t78.5 -176t126.5 -151
t172 -130.5q12 -8 15.5 -22t0.5 -32t-12 -39t-22 -41q-26 -38 -58 -57.5t-62 -2.5z" />
    <glyph glyph-name="parenright" unicode=")" 
d="M457 -397q-30 -17 -62 2.5t-58 57.5q-14 20 -23 41t-12 39t1 32t16 22q97 61 172 130.5t126.5 151t78.5 176t27 204.5t-27 204.5t-78.5 176t-126.5 151t-172 130.5q-12 7 -16 21.5t-1 32.5t12 39t23 41q26 38 58 57.5t62 2.5q95 -54 187.5 -133.5t165 -186t117 -240.5
t44.5 -296t-44.5 -296t-117 -240.5t-165 -186t-187.5 -133.5z" />
    <glyph glyph-name="asterisk" unicode="*" 
d="M614 1209q34 0 59 -11.5t40 -31t19 -44.5t-2 -53l-47 -204l179 108q24 15 49.5 18.5t48.5 -4.5t41.5 -28t29.5 -53q10 -33 7 -60t-16.5 -46.5t-36.5 -31.5t-51 -15l-208 -19l158 -137q21 -19 32.5 -42t11 -47t-13.5 -48t-41 -45q-28 -20 -54.5 -25.5t-50 1.5t-42 25
t-29.5 44l-83 193l-83 -193q-11 -26 -29.5 -44t-42 -25t-50 -1.5t-54.5 25.5q-28 21 -41 45t-13.5 48t11 47t32.5 42l158 137l-208 19q-29 3 -51.5 15t-36 31.5t-17 46.5t7.5 60t29.5 53t41.5 28t48.5 4.5t49.5 -18.5l179 -108l-47 204q-6 28 -2 53t19 44.5t39.5 31
t59.5 11.5z" />
    <glyph glyph-name="plus" unicode="+" 
d="M501 470h-268q-17 0 -29 4t-19.5 16t-11 34t-3.5 58t3.5 58t11 34t19.5 16.5t29 4.5h268v268q0 17 4.5 29t16.5 19.5t34 11t58 3.5t58 -3.5t34 -11t16 -19.5t4 -29v-268h269q17 0 29 -4.5t19.5 -16.5t11 -34t3.5 -58t-3.5 -58t-11 -34t-19.5 -16t-29 -4h-269v-269
q0 -17 -4 -29t-16 -19.5t-34 -11t-58 -3.5t-58 3.5t-34 11t-16.5 19.5t-4.5 29v269z" />
    <glyph glyph-name="comma" unicode="," 
d="M520 -253q-11 -21 -31 -31t-55 -10q-42 0 -63.5 17t-16.5 49l94 542q8 40 52 40h259q25 0 33 -18.5t-5 -44.5z" />
    <glyph glyph-name="hyphen" unicode="-" 
d="M995 695q17 0 29 -4.5t19.5 -16.5t11 -34t3.5 -58t-3.5 -58t-11 -34t-19.5 -16t-29 -4h-762q-17 0 -29 4t-19.5 16t-11 34t-3.5 58t3.5 58t11 34t19.5 16.5t29 4.5h762z" />
    <glyph glyph-name="period" unicode="." 
d="M406 186q0 43 16.5 81t44.5 66t66 44.5t81 16.5t81 -16.5t66 -44.5t44.5 -66t16.5 -81t-16.5 -81t-44.5 -66t-66 -44.5t-81 -16.5t-81 16.5t-66 44.5t-44.5 66t-16.5 81z" />
    <glyph glyph-name="slash" unicode="/" 
d="M395 -267q-8 -17 -29 -25t-47 -8q-29 0 -60 8.5t-54.5 24t-34.5 37t1 47.5l662 1488q8 17 29.5 25.5t48.5 8.5q29 0 59.5 -8.5t54 -24t34 -37t-1.5 -48.5z" />
    <glyph glyph-name="zero" unicode="0" 
d="M1095 593q0 -135 -33 -248t-95 -194.5t-151.5 -127t-201.5 -45.5q-113 0 -202 45.5t-151 127t-95 194.5t-33 248t33 248t95 195t151 127.5t202 45.5q112 0 201.5 -45.5t151.5 -127.5t95 -195t33 -248zM827 593q0 195 -55 292t-158 97t-158 -97t-55 -292t55 -291.5
t158 -96.5t158 96.5t55 291.5z" />
    <glyph glyph-name="one" unicode="1" 
d="M519 205v728l-186 -67q-16 -6 -28.5 -6t-24 7.5t-21.5 25t-21 47.5q-22 59 -14.5 83.5t39.5 35.5l400 146q46 17 76 -3.5t30 -73.5v-923h236q17 0 29 -4t19.5 -15.5t11 -31.5t3.5 -52t-3.5 -52t-11 -31t-19.5 -15t-29 -4h-732q-17 0 -29 4t-19.5 15t-11 31t-3.5 52
t3.5 52t11 31.5t19.5 15.5t29 4h246z" />
    <glyph glyph-name="two" unicode="2" 
d="M830 215v92q0 17 5 29t17 19.5t33 11t53 3.5q64 0 93 -14.5t29 -48.5v-242q0 -35 -15 -50t-50 -15h-774q-17 0 -29 4t-19.5 15.5t-11 31.5t-3.5 52q0 41 5 60.5t19 32.5l429 413q40 39 68 70t45.5 57.5t25 51t7.5 51.5q0 67 -39 110t-117 43q-47 0 -91 -11.5t-82 -30.5
v-140q0 -17 -5 -29t-17 -19.5t-33 -11t-53 -3.5q-64 0 -93 14.5t-29 48.5v237q0 41 43 64q91 50 182.5 74t176.5 24q100 0 177 -26.5t129 -74.5t78.5 -115t26.5 -149q0 -52 -11.5 -98.5t-35.5 -90.5t-59.5 -87.5t-83.5 -89.5l-273 -263h282z" />
    <glyph glyph-name="three" unicode="3" 
d="M221 55q-29 15 -36.5 46.5t15.5 89.5t48 74t48 5q64 -30 133 -47.5t135 -17.5q108 0 161 40t53 113q0 72 -43 108.5t-127 36.5h-103q-17 0 -29 5t-19.5 17t-11 32.5t-3.5 52.5t3.5 53t11 33t19.5 17t29 5h76q89 0 132.5 32.5t43.5 103.5q0 138 -166 138q-45 0 -82.5 -6.5
t-70.5 -16.5v-79q0 -17 -5 -29t-17 -19.5t-33 -11t-53 -3.5q-64 0 -93 14.5t-29 48.5v187q0 45 49 64q78 32 163 50t170 18q201 0 311 -87t110 -253q0 -91 -37.5 -150.5t-103.5 -94.5q81 -37 128.5 -103t47.5 -165q0 -95 -33.5 -166t-96 -118t-151.5 -70.5t-201 -23.5
q-93 0 -180.5 18.5t-162.5 58.5z" />
    <glyph glyph-name="four" unicode="4" 
d="M613 370h-430q-17 0 -29 4t-19.5 15t-11 31t-3.5 52q0 36 5 57t14 32l470 579q26 33 61 51t88 18q31 0 51 -6.5t32 -18.5t17 -28.5t5 -36.5v-544h172q17 0 29 -4t19.5 -15.5t11 -31.5t3.5 -52t-3.5 -52t-11 -31t-19.5 -15t-29 -4h-172v-165h142q17 0 29 -4t19.5 -15.5
t11 -31.5t3.5 -52t-3.5 -52t-11 -31t-19.5 -15t-29 -4h-562q-17 0 -29 4t-19.5 15t-11 31t-3.5 52t3.5 52t11 31.5t19.5 15.5t29 4h170v165zM622 575l16 292l-235 -292h219z" />
    <glyph glyph-name="five" unicode="5" 
d="M289 282q68 -34 141 -55.5t144 -21.5q45 0 82.5 12t64.5 35t42 56.5t15 77.5q0 81 -45 127t-129 46q-51 0 -100 -10t-92 -26q-20 -8 -42 -12t-40 -4q-65 0 -91 15t-24 50l33 550q2 35 16 50t49 15h608q17 0 29 -5t19.5 -17t11 -33t3.5 -53t-3.5 -52.5t-11 -32.5
t-19.5 -17t-29 -5h-442l-14 -223q47 18 94.5 27.5t97.5 9.5q95 0 168 -29.5t122 -83t74 -127t25 -160.5q0 -103 -33.5 -179.5t-95 -127.5t-148.5 -76t-195 -25q-96 0 -189 23.5t-171 65.5q-29 16 -36.5 47t15.5 89t48 74t48 5z" />
    <glyph glyph-name="six" unicode="6" 
d="M631 -22q-129 0 -225 52t-160 146q-42 61 -64 147.5t-22 188.5q0 158 52.5 284t156 215t256 139.5t352.5 58.5q26 1 40.5 -24.5t19.5 -82.5q7 -69 -4.5 -101t-34.5 -34q-137 -7 -238.5 -29.5t-172 -63.5t-111.5 -103t-56 -147q55 61 121.5 89t153.5 28q84 0 154.5 -27.5
t121 -77t79 -118.5t28.5 -152q0 -85 -33.5 -156.5t-92.5 -123t-141.5 -80t-179.5 -28.5zM440 371q0 -34 12.5 -65t37 -54t60 -37t80.5 -14q43 0 78 11.5t60 32.5t38.5 51.5t13.5 68.5q0 78 -48.5 121t-133.5 43q-44 0 -80.5 -11.5t-62.5 -32.5t-40.5 -50t-14.5 -64z" />
    <glyph glyph-name="seven" unicode="7" 
d="M654 24q-7 -17 -22 -27t-35 -14.5t-42.5 -4t-44.5 5.5q-24 6 -46 16.5t-36 25t-19.5 32.5t3.5 39l372 875h-366v-212q0 -17 -5 -29t-17 -19.5t-33 -11t-53 -3.5q-64 0 -93 14.5t-29 48.5v362q0 35 15 50t50 15h764q17 0 29 -4t19.5 -15.5t11 -31.5t3.5 -52q0 -50 -9 -72z
" />
    <glyph glyph-name="eight" unicode="8" 
d="M210 871q0 69 27.5 130.5t80 107.5t127 73t169.5 27q94 0 169 -27t127.5 -73t80 -107.5t27.5 -130.5q0 -96 -44.5 -157.5t-118.5 -94.5q45 -17 82.5 -42.5t64 -60.5t41 -80t14.5 -101q0 -84 -32 -150.5t-90.5 -112t-140 -70t-180.5 -24.5t-180.5 24.5t-140 70t-90.5 112
t-32 150.5q0 56 14.5 101t41 80t63.5 60.5t83 42.5q-75 33 -119 94.5t-44 157.5zM436 356q0 -72 45 -116t133 -44t133 44t45 116t-45 117t-133 45t-133 -45t-45 -117zM614 712q74 0 114.5 38t40.5 101t-41.5 101.5t-113.5 38.5t-113.5 -38.5t-41.5 -101.5t40.5 -101
t114.5 -38z" />
    <glyph glyph-name="nine" unicode="9" 
d="M808 563q-55 -61 -121.5 -89t-153.5 -28q-84 0 -154.5 27.5t-121 77t-79 118.5t-28.5 152q0 85 33.5 156.5t92.5 123t141 80t180 28.5q129 0 225 -52t160 -146q42 -61 64 -147.5t22 -188.5q0 -158 -43.5 -284t-135.5 -215t-235 -139.5t-343 -58.5q-26 -1 -40.5 24.5
t-19.5 82.5q-7 69 4.5 101t34.5 34q136 7 230 29.5t154.5 63.5t91.5 103t42 147zM788 816q0 34 -12.5 65t-37 54t-60 37t-80.5 14q-43 0 -78 -11.5t-60 -32.5t-38.5 -51.5t-13.5 -68.5q0 -78 48.5 -121t133.5 -43q44 0 80.5 11.5t62.5 32.5t40.5 50t14.5 64z" />
    <glyph glyph-name="colon" unicode=":" 
d="M419 751q0 40 15.5 76t41.5 62t61.5 41.5t76.5 15.5q40 0 76 -15.5t62 -41.5t41.5 -62t15.5 -76q0 -41 -15.5 -76.5t-41.5 -61.5t-62 -41.5t-76 -15.5q-41 0 -76.5 15.5t-61.5 41.5t-41.5 61.5t-15.5 76.5zM419 173q0 40 15.5 76t41.5 62t61.5 41.5t76.5 15.5
q40 0 76 -15.5t62 -41.5t41.5 -62t15.5 -76q0 -41 -15.5 -76.5t-41.5 -61.5t-62 -41.5t-76 -15.5q-41 0 -76.5 15.5t-61.5 41.5t-41.5 61.5t-15.5 76.5z" />
    <glyph glyph-name="semicolon" unicode=";" 
d="M419 751q0 40 15.5 76t41.5 62t61.5 41.5t76.5 15.5q40 0 76 -15.5t62 -41.5t41.5 -62t15.5 -76q0 -41 -15.5 -76.5t-41.5 -61.5t-62 -41.5t-76 -15.5q-41 0 -76.5 15.5t-61.5 41.5t-41.5 61.5t-15.5 76.5zM520 -253q-11 -21 -31 -31t-55 -10q-42 0 -63.5 17t-16.5 49
l94 542q8 40 52 40h259q25 0 33 -18.5t-5 -44.5z" />
    <glyph glyph-name="less" unicode="&#x3c;" 
d="M1046 291q32 -16 36 -46t-26 -90q-15 -30 -28.5 -47.5t-26.5 -24.5t-26.5 -5.5t-28.5 9.5l-780 402q-24 12 -35 31.5t-11 62.5t11 62.5t35 31.5l780 402q15 8 28.5 9.5t26.5 -5.5t26.5 -24.5t28.5 -47.5q30 -60 26 -90t-36 -46l-585 -292z" />
    <glyph glyph-name="equal" unicode="=" 
d="M995 924q17 0 29 -4.5t19.5 -16.5t11 -34t3.5 -58t-3.5 -58t-11 -34t-19.5 -16t-29 -4h-762q-17 0 -29 4t-19.5 16t-11 34t-3.5 58t3.5 58t11 34t19.5 16.5t29 4.5h762zM995 466q17 0 29 -4.5t19.5 -16.5t11 -34t3.5 -58t-3.5 -58t-11 -34t-19.5 -16t-29 -4h-762
q-17 0 -29 4t-19.5 16t-11 34t-3.5 58t3.5 58t11 34t19.5 16.5t29 4.5h762z" />
    <glyph glyph-name="greater" unicode="&#x3e;" 
d="M182 875q-32 16 -36 46t26 90q15 30 28.5 47.5t26.5 24.5t26.5 5.5t28.5 -9.5l780 -402q24 -12 35 -31.5t11 -62.5t-11 -62.5t-35 -31.5l-780 -402q-15 -8 -28.5 -9.5t-26.5 5.5t-26.5 24.5t-28.5 47.5q-30 60 -26 90t36 46l585 292z" />
    <glyph glyph-name="question" unicode="?" 
d="M685 467q-1 -12 -6 -21t-16.5 -15t-30.5 -9t-48 -3t-48 3t-30.5 9t-16.5 15t-6 21l-18 208q-2 20 4.5 34t25.5 17l110 18q74 12 108 41.5t34 83.5q0 60 -39 91.5t-117 31.5q-41 0 -79.5 -8t-73.5 -22v-102q0 -17 -5 -29t-17 -19.5t-33 -11t-53 -3.5q-64 0 -93 14.5
t-29 48.5v200q0 41 41 61q83 39 169.5 63.5t171.5 24.5q100 0 177 -23t129 -66.5t78.5 -105.5t26.5 -140q0 -69 -19.5 -120t-57.5 -89t-96 -65t-134 -47zM413 149q0 36 13.5 67t36.5 54.5t54.5 37t66.5 13.5q36 0 67 -13.5t54 -37t36.5 -54.5t13.5 -67q0 -35 -13.5 -66.5
t-36.5 -54.5t-54 -36.5t-67 -13.5t-67 13.5t-54 36.5t-36.5 54.5t-13.5 66.5z" />
    <glyph glyph-name="at" unicode="@" 
d="M704 261q-35 -65 -83 -104.5t-114 -39.5q-41 0 -75 15.5t-59 46t-38.5 75.5t-13.5 103q0 78 25.5 156.5t68.5 142.5t100.5 104t122.5 40q53 0 82.5 -32.5t45.5 -82.5l33 69q5 8 25.5 8.5t43.5 -5.5q24 -7 40 -17t12 -24l-72 -312q-8 -32 -7.5 -56t8 -39.5t20 -23
t28.5 -7.5q28 0 52.5 17.5t42.5 50.5t28 80t10 105q0 88 -25.5 161t-74 124.5t-118 80t-157.5 28.5q-102 0 -186.5 -42t-145 -115t-94 -170.5t-33.5 -208.5q0 -87 24 -158.5t70.5 -122.5t114 -79.5t155.5 -28.5q80 0 143.5 11.5t114.5 28.5q17 6 31.5 -4t25.5 -53
q11 -44 5 -60.5t-22 -23.5q-26 -12 -60 -21.5t-73 -16t-80.5 -10.5t-82.5 -4q-124 0 -222 38t-166.5 108.5t-104.5 171t-36 224.5q0 97 21.5 186t61 165.5t95.5 138.5t126 106.5t151.5 68.5t171.5 24q120 0 217.5 -41t166 -113.5t106 -173t37.5 -219.5q0 -98 -23.5 -174
t-64.5 -128.5t-97 -79.5t-121 -27q-72 0 -116 39t-61 100zM496 379q0 -49 18.5 -73.5t47.5 -24.5q27 0 53.5 28t47.5 68t34 85t13 79q0 47 -15.5 74.5t-50.5 27.5q-24 0 -50 -23t-47.5 -60.5t-36 -85t-14.5 -95.5z" />
    <glyph glyph-name="A" unicode="A" 
d="M390 982h-167q-17 0 -29 4t-19.5 15.5t-11 31.5t-3.5 52t3.5 52t11 31t19.5 15t29 4h474q40 0 65 -15t36 -50l290 -917h87q17 0 29 -4t19.5 -15t11 -31t3.5 -52t-3.5 -52t-11 -31.5t-19.5 -15.5t-29 -4h-424q-17 0 -29 4t-19.5 15.5t-11 31.5t-3.5 52t3.5 52t11 31
t19.5 15t29 4h86l-45 145h-364l-45 -145h74q17 0 29 -4t19.5 -15t11 -31t3.5 -52t-3.5 -52t-11 -31.5t-19.5 -15.5t-29 -4h-404q-17 0 -29 4t-19.5 15.5t-11 31.5t-3.5 52t3.5 52t11 31t19.5 15t29 4h84zM735 555l-120 427h-6l-123 -427h249z" />
    <glyph glyph-name="B" unicode="B" 
d="M240 982h-107q-17 0 -29 4t-19.5 15t-11 31t-3.5 52t3.5 52t11 31.5t19.5 15.5t29 4h521q108 0 185.5 -23t127.5 -65.5t73.5 -102t23.5 -132.5q0 -85 -42 -142.5t-112 -91.5q106 -29 167.5 -98t61.5 -188q0 -86 -28.5 -150t-83.5 -107.5t-134.5 -65t-182.5 -21.5h-577
q-17 0 -29 4t-19.5 15t-11 31t-3.5 52t3.5 52t11 31.5t19.5 15.5t29 4h107v777zM682 215q100 0 147 35t47 104q0 75 -47.5 110t-146.5 35h-192v-284h192zM632 714q91 0 134.5 31.5t43.5 98.5q0 68 -42.5 98t-135.5 30h-142v-258h142z" />
    <glyph glyph-name="C" unicode="C" 
d="M1081 84q-105 -52 -212.5 -79t-214.5 -27q-124 0 -225.5 43t-174 122.5t-112 193.5t-39.5 257q0 142 39 256t109 194t165 122.5t208 42.5q94 0 157.5 -34t102.5 -92v63q0 34 29 48.5t93 14.5q32 0 53 -3.5t33 -11t17 -19.5t5 -29v-384q0 -34 -30 -48.5t-102 -14.5
q-36 0 -58.5 3.5t-36 11t-18.5 19.5t-5 29q0 48 -13.5 88.5t-40 70t-65.5 45.5t-91 16q-141 0 -212 -100.5t-71 -287.5t76 -288t217 -101q92 0 173 25.5t168 69.5q30 15 58 0t50 -75q22 -61 11 -93t-43 -48z" />
    <glyph glyph-name="D" unicode="D" 
d="M220 982h-97q-17 0 -29 4t-19.5 15t-11 31t-3.5 52t3.5 52t11 31.5t19.5 15.5t29 4h471q131 0 235 -39t176.5 -115t111 -186.5t38.5 -252.5q0 -143 -38.5 -253.5t-111 -186t-176.5 -115t-235 -39.5h-471q-17 0 -29 4t-19.5 15t-11 31t-3.5 52t3.5 52t11 31.5t19.5 15.5
t29 4h97v777zM574 215q156 0 234.5 96t78.5 283t-78.5 282.5t-234.5 95.5h-104v-757h104z" />
    <glyph glyph-name="E" unicode="E" 
d="M220 982h-97q-17 0 -29 4t-19.5 15t-11 31t-3.5 52t3.5 52t11 31.5t19.5 15.5t29 4h912q35 0 50 -15t15 -50v-302q0 -34 -29 -48.5t-93 -14.5q-32 0 -53 3.5t-33 11t-17 19.5t-5 29v152h-400v-253h244q17 0 29 -5t19.5 -17t11 -33t3.5 -53t-3.5 -52.5t-11 -32.5
t-19.5 -17t-29 -5h-244v-289h410v202q0 34 29 48.5t97 14.5q34 0 56 -3.5t35 -11t18 -19.5t5 -29v-352q0 -35 -15 -50t-50 -15h-932q-17 0 -29 4t-19.5 15t-11 31t-3.5 52t3.5 52t11 31.5t19.5 15.5t29 4h97v777z" />
    <glyph glyph-name="F" unicode="F" 
d="M250 982h-127q-17 0 -29 4t-19.5 15t-11 31t-3.5 52t3.5 52t11 31.5t19.5 15.5t29 4h932q35 0 50 -15t15 -50v-302q0 -34 -29 -48.5t-93 -14.5q-32 0 -53 3.5t-33 11t-17 19.5t-5 29v152h-390v-305h304q17 0 29 -5t19.5 -17t11 -33t3.5 -53t-3.5 -52.5t-11 -32.5
t-19.5 -17t-29 -5h-304v-247h217q17 0 29 -4t19.5 -15.5t11 -31.5t3.5 -52t-3.5 -52t-11 -31t-19.5 -15t-29 -4h-594q-17 0 -29 4t-19.5 15t-11 31t-3.5 52t3.5 52t11 31.5t19.5 15.5t29 4h127v777z" />
    <glyph glyph-name="G" unicode="G" 
d="M651 402q-17 0 -29 4t-19.5 15t-11 31t-3.5 52t3.5 52t11 31.5t19.5 15.5t29 4h474q17 0 29 -4t19.5 -15.5t11 -31.5t3.5 -52t-3.5 -52t-11 -31t-19.5 -15t-29 -4h-31v-259q0 -50 -36 -69q-95 -49 -206 -72.5t-228 -23.5q-124 0 -225.5 43t-174 122.5t-112 193.5
t-39.5 257q0 142 39 256t109 194t165 122.5t208 42.5q94 0 157.5 -31.5t102.5 -86.5v55q0 34 29 48.5t93 14.5q32 0 53 -3.5t33 -11t17 -19.5t5 -29v-344q0 -34 -30 -48.5t-102 -14.5q-36 0 -58.5 3.5t-36 11t-18.5 19.5t-5 29q0 84 -51 132t-159 48q-141 0 -212 -100.5
t-71 -287.5t76 -288t217 -101q111 0 210 30v167h-193z" />
    <glyph glyph-name="H" unicode="H" 
d="M170 982h-57q-17 0 -29 4t-19.5 15t-11 31t-3.5 52t3.5 52t11 31.5t19.5 15.5t29 4h374q17 0 29 -4t19.5 -15.5t11 -31.5t3.5 -52t-3.5 -52t-11 -31t-19.5 -15t-29 -4h-67v-263h388v263h-67q-17 0 -29 4t-19.5 15t-11 31t-3.5 52t3.5 52t11 31.5t19.5 15.5t29 4h374
q17 0 29 -4t19.5 -15.5t11 -31.5t3.5 -52t-3.5 -52t-11 -31t-19.5 -15t-29 -4h-57v-777h57q17 0 29 -4t19.5 -15.5t11 -31.5t3.5 -52t-3.5 -52t-11 -31t-19.5 -15t-29 -4h-374q-17 0 -29 4t-19.5 15t-11 31t-3.5 52t3.5 52t11 31.5t19.5 15.5t29 4h67v299h-388v-299h67
q17 0 29 -4t19.5 -15.5t11 -31.5t3.5 -52t-3.5 -52t-11 -31t-19.5 -15t-29 -4h-374q-17 0 -29 4t-19.5 15t-11 31t-3.5 52t3.5 52t11 31.5t19.5 15.5t29 4h57v777z" />
    <glyph glyph-name="I" unicode="I" 
d="M489 982h-236q-17 0 -29 4t-19.5 15t-11 31t-3.5 52t3.5 52t11 31.5t19.5 15.5t29 4h722q17 0 29 -4t19.5 -15.5t11 -31.5t3.5 -52t-3.5 -52t-11 -31t-19.5 -15t-29 -4h-236v-777h256q17 0 29 -4t19.5 -15.5t11 -31.5t3.5 -52t-3.5 -52t-11 -31t-19.5 -15t-29 -4h-762
q-17 0 -29 4t-19.5 15t-11 31t-3.5 52t3.5 52t11 31.5t19.5 15.5t29 4h256v777z" />
    <glyph glyph-name="J" unicode="J" 
d="M373 982q-17 0 -29 4t-19.5 15t-11 31t-3.5 52t3.5 52t11 31.5t19.5 15.5t29 4h742q17 0 29 -4t19.5 -15.5t11 -31.5t3.5 -52t-3.5 -52t-11 -31t-19.5 -15t-29 -4h-186v-619q0 -194 -108.5 -289.5t-316.5 -95.5q-235 0 -389 147q-16 16 -16 50v324q0 34 30 48.5t102 14.5
q36 0 58.5 -3.5t36 -11t18.5 -19.5t5 -29v-260q69 -34 166 -34q81 0 122.5 42.5t41.5 135.5v599h-306z" />
    <glyph glyph-name="K" unicode="K" 
d="M220 982h-107q-17 0 -29 4t-19.5 15t-11 31t-3.5 52t3.5 52t11 31.5t19.5 15.5t29 4h404q17 0 29 -4t19.5 -15.5t11 -31.5t3.5 -52t-3.5 -52t-11 -31t-19.5 -15t-29 -4h-47v-320l324 320h-53q-17 0 -29 4t-19.5 15t-11 31t-3.5 52t3.5 52t11 31.5t19.5 15.5t29 4h389
q17 0 29 -4t19.5 -15.5t11 -31.5t3.5 -52t-3.5 -52t-11 -31t-19.5 -15t-29 -4h-43l-350 -341q57 -3 103 -30.5t79 -75.5q22 -31 39.5 -64t33.5 -66t31 -64.5t31 -58.5q20 -35 44.5 -56t56.5 -21h10q17 0 29 -4t19.5 -15.5t11 -31.5t3.5 -52t-3.5 -52t-11 -31t-19.5 -15
t-29 -4h-139q-33 0 -60 11.5t-49 31t-40 45t-33 54.5q-16 30 -30.5 62t-29.5 63.5t-29.5 60.5t-30.5 53q-26 38 -57.5 61t-66.5 23q-44 0 -79 -34l-51 -50v-176h115q17 0 29 -4t19.5 -15.5t11 -31.5t3.5 -52t-3.5 -52t-11 -31t-19.5 -15t-29 -4h-472q-17 0 -29 4t-19.5 15
t-11 31t-3.5 52t3.5 52t11 31.5t19.5 15.5t29 4h107v777z" />
    <glyph glyph-name="L" unicode="L" 
d="M269 982h-146q-17 0 -29 4t-19.5 15t-11 31t-3.5 52t3.5 52t11 31.5t19.5 15.5t29 4h614q17 0 29 -4t19.5 -15.5t11 -31.5t3.5 -52t-3.5 -52t-11 -31t-19.5 -15t-29 -4h-218v-767h351v312q0 34 30 48.5t102 14.5q36 0 58.5 -3.5t36 -11t18.5 -19.5t5 -29v-462
q0 -35 -15 -50t-50 -15h-932q-17 0 -29 4t-19.5 15t-11 31t-3.5 52t3.5 52t11 31.5t19.5 15.5t29 4h146v777z" />
    <glyph glyph-name="M" unicode="M" 
d="M147 982h-54q-17 0 -29 4t-19.5 15t-11 31t-3.5 52t3.5 52t11 31.5t19.5 15.5t29 4h284q20 0 33.5 -6.5t20.5 -24.5l183 -491l182 491q7 18 20.5 24.5t33.5 6.5h285q17 0 29 -4t19.5 -15.5t11 -31.5t3.5 -52t-3.5 -52t-11 -31t-19.5 -15t-29 -4h-54l14 -777h60
q17 0 29 -4t19.5 -15.5t11 -31.5t3.5 -52t-3.5 -52t-11 -31t-19.5 -15t-29 -4h-374q-17 0 -29 4t-19.5 15t-11 31t-3.5 52t3.5 52t11 31.5t19.5 15.5t29 4h92l-6 592l-151 -408q-13 -35 -35.5 -49.5t-65.5 -14.5t-66 14.5t-37 49.5l-152 405l-6 -589h93q17 0 29 -4
t19.5 -15.5t11 -31.5t3.5 -52t-3.5 -52t-11 -31t-19.5 -15t-29 -4h-374q-17 0 -29 4t-19.5 15t-11 31t-3.5 52t3.5 52t11 31.5t19.5 15.5t29 4h59z" />
    <glyph glyph-name="N" unicode="N" 
d="M180 982h-67q-17 0 -29 4t-19.5 15t-11 31t-3.5 52t3.5 52t11 31.5t19.5 15.5t29 4h264q19 0 33 -6t23 -21l415 -687v509h-88q-17 0 -29 4t-19.5 15t-11 31t-3.5 52t3.5 52t11 31.5t19.5 15.5t29 4h375q17 0 29 -4t19.5 -15.5t11 -31.5t3.5 -52t-3.5 -52t-11 -31
t-19.5 -15t-29 -4h-57v-938q0 -32 -23.5 -49t-86.5 -17q-24 0 -41 3.5t-29.5 10t-21 16.5t-16.5 23l-450 745v-571h107q17 0 29 -4t19.5 -15.5t11 -31.5t3.5 -52t-3.5 -52t-11 -31t-19.5 -15t-29 -4h-404q-17 0 -29 4t-19.5 15t-11 31t-3.5 52t3.5 52t11 31.5t19.5 15.5
t29 4h67v777z" />
    <glyph glyph-name="O" unicode="O" 
d="M614 982q-141 0 -212 -100.5t-71 -287.5t71 -288t212 -101t212 101t71 288t-71 287.5t-212 100.5zM614 1209q124 0 225.5 -42.5t174 -122.5t112 -194t39.5 -256q0 -143 -39.5 -257t-112 -193.5t-174 -122.5t-225.5 -43t-225.5 43t-174 122.5t-112 193.5t-39.5 257
q0 142 39.5 256t112 194t174 122.5t225.5 42.5z" />
    <glyph glyph-name="P" unicode="P" 
d="M270 982h-147q-17 0 -29 4t-19.5 15t-11 31t-3.5 52t3.5 52t11 31.5t19.5 15.5t29 4h547q232 0 349.5 -104.5t117.5 -297.5t-117.5 -298t-349.5 -105h-150v-177h217q17 0 29 -4t19.5 -15.5t11 -31.5t3.5 -52t-3.5 -52t-11 -31t-19.5 -15t-29 -4h-614q-17 0 -29 4
t-19.5 15t-11 31t-3.5 52t3.5 52t11 31.5t19.5 15.5t29 4h147v777zM639 597q118 0 179 45.5t61 142.5t-61 142t-179 45h-119v-375h119z" />
    <glyph glyph-name="Q" unicode="Q" 
d="M614 982q-70 0 -123 -23.5t-88.5 -68.5t-53.5 -109.5t-18 -146.5t18 -146.5t53.5 -109.5t88.5 -69t123 -24t123 24t88.5 69t53.5 109.5t18 146.5t-18 146.5t-53.5 109.5t-88.5 68.5t-123 23.5zM390 98q-76 30 -136.5 80.5t-103 119t-65 153t-22.5 183.5q0 131 39.5 237.5
t112 181.5t174 115.5t225.5 40.5t225.5 -40.5t174 -115.5t112 -181.5t39.5 -237.5t-39.5 -237.5t-112 -181.5t-174 -116t-225.5 -41q-13 0 -25 0.5t-20 1.5l-106 -106q45 17 83 23t73 6q34 0 65.5 -4.5t61 -10t58.5 -10t59 -4.5q35 0 72 8.5t81 31.5q29 15 57.5 -3.5
t47.5 -57.5q20 -42 18 -77.5t-34 -59.5q-60 -45 -114.5 -61t-108.5 -16q-42 0 -84 7t-85.5 15t-90 15t-96.5 7q-49 0 -107 -10t-122 -37q-15 -6 -31 1t-31 22.5t-27.5 37t-18 43.5t-3.5 43t16 35z" />
    <glyph glyph-name="R" unicode="R" 
d="M230 982h-107q-17 0 -29 4t-19.5 15t-11 31t-3.5 52t3.5 52t11 31.5t19.5 15.5t29 4h527q211 0 324 -92t113 -271q0 -120 -61 -191t-177 -100q23 -11 42.5 -25.5t36.5 -31.5q22 -23 40 -50t33 -54t28.5 -53t27.5 -48q19 -29 40 -47.5t49 -18.5h19q17 0 29 -4t19.5 -15.5
t11 -31.5t3.5 -52t-3.5 -52t-11 -31t-19.5 -15t-29 -4h-107q-66 0 -114.5 33.5t-92.5 105.5q-32 53 -58.5 112t-64.5 113q-18 26 -38.5 44.5t-45 30t-55.5 17t-71 5.5h-38v-256h117q17 0 29 -4t19.5 -15.5t11 -31.5t3.5 -52t-3.5 -52t-11 -31t-19.5 -15t-29 -4h-474
q-17 0 -29 4t-19.5 15t-11 31t-3.5 52t3.5 52t11 31.5t19.5 15.5t29 4h107v777zM629 676q103 0 151.5 36.5t48.5 111.5t-48.5 111.5t-151.5 36.5h-149v-296h149z" />
    <glyph glyph-name="S" unicode="S" 
d="M389 41q0 -34 -24 -48.5t-88 -14.5t-91 14.5t-27 48.5v334q0 34 21.5 48.5t70.5 14.5q35 0 55.5 -9t31.5 -31q54 -102 128 -154.5t176 -52.5q90 0 135 36.5t45 99.5q0 42 -21.5 69t-58.5 45q-40 19 -93 31.5t-111 24.5t-117 27.5t-110 42.5q-35 18 -64.5 43t-51.5 58.5
t-34 77.5t-12 100q0 80 28 146.5t79.5 114.5t123 75t158.5 27q81 0 148.5 -26t117.5 -74v37q0 34 24 48.5t88 14.5t91 -14.5t27 -48.5v-274q0 -34 -21.5 -48.5t-70.5 -14.5q-34 0 -52.5 8t-29.5 24q-46 72 -119 113.5t-173 41.5q-75 0 -115.5 -38t-40.5 -95q0 -30 19 -48.5
t51 -31.5q39 -15 93.5 -24.5t115 -21.5t122 -30t114.5 -50q34 -21 63.5 -49.5t51 -66.5t33.5 -87t12 -110q0 -81 -25.5 -148.5t-77.5 -115.5t-129.5 -75t-182.5 -27q-167 0 -283 101v-38z" />
    <glyph glyph-name="T" unicode="T" 
d="M489 972h-181v-272q0 -34 -27.5 -48.5t-84.5 -14.5q-56 0 -77 14.5t-21 48.5v422q0 35 15 50t50 15h902q35 0 50 -15t15 -50v-422q0 -34 -27.5 -48.5t-84.5 -14.5q-56 0 -77 14.5t-21 48.5v272h-181v-767h216q17 0 29 -4t19.5 -15.5t11 -31.5t3.5 -52t-3.5 -52t-11 -31
t-19.5 -15t-29 -4h-682q-17 0 -29 4t-19.5 15t-11 31t-3.5 52t3.5 52t11 31.5t19.5 15.5t29 4h216v767z" />
    <glyph glyph-name="U" unicode="U" 
d="M113 982q-17 0 -29 4t-19.5 15t-11 31t-3.5 52t3.5 52t11 31.5t19.5 15.5t29 4h374q17 0 29 -4t19.5 -15.5t11 -31.5t3.5 -52t-3.5 -52t-11 -31t-19.5 -15t-29 -4h-77v-549q0 -60 15 -103t42 -71t64.5 -41t82.5 -13t82.5 13t64.5 41t42 71t15 103v549h-77q-17 0 -29 4
t-19.5 15t-11 31t-3.5 52t3.5 52t11 31.5t19.5 15.5t29 4h374q17 0 29 -4t19.5 -15.5t11 -31.5t3.5 -52t-3.5 -52t-11 -31t-19.5 -15t-29 -4h-47v-569q0 -105 -31.5 -186t-90.5 -136.5t-143 -84t-189 -28.5t-189 28.5t-143 84t-90.5 136.5t-31.5 186v569h-47z" />
    <glyph glyph-name="V" unicode="V" 
d="M53 982q-17 0 -29 4t-19.5 15t-11 31t-3.5 52t3.5 52t11 31.5t19.5 15.5t29 4h434q17 0 29 -4t19.5 -15.5t11 -31.5t3.5 -52t-3.5 -52t-11 -31t-19.5 -15t-29 -4h-89l215 -613l229 613h-71q-17 0 -29 4t-19.5 15t-11 31t-3.5 52t3.5 52t11 31.5t19.5 15.5t29 4h404
q17 0 29 -4t19.5 -15.5t11 -31.5t3.5 -52t-3.5 -52t-11 -31t-19.5 -15t-29 -4h-68l-363 -939q-7 -18 -17 -30t-25.5 -20t-37.5 -11.5t-53 -3.5t-53 3.5t-37 11.5t-25 20.5t-16 29.5l-350 939h-77z" />
    <glyph glyph-name="W" unicode="W" 
d="M437 1187q17 0 29 -4t19.5 -15.5t11 -31.5t3.5 -52t-3.5 -52t-11 -31t-19.5 -15t-29 -4h-117l53 -584l146 428q6 20 24.5 33.5t69.5 13.5q52 0 73 -10t27 -30l147 -435l54 584h-103q-17 0 -29 4t-19.5 15t-11 31t-3.5 52t3.5 52t11 31.5t19.5 15.5t29 4h374q17 0 29 -4
t19.5 -15.5t11 -31.5t3.5 -52t-3.5 -52t-11 -31t-19.5 -15t-29 -4h-56l-101 -939q-2 -18 -8.5 -30.5t-20 -20t-36 -11t-56.5 -3.5q-68 0 -97 15.5t-40 49.5l-160 471l-162 -471q-6 -17 -15.5 -29.5t-25.5 -20.5t-40 -11.5t-58 -3.5t-56 3.5t-35.5 11t-19.5 20t-8 30.5
l-97 939h-50q-17 0 -29 4t-19.5 15t-11 31t-3.5 52t3.5 52t11 31.5t19.5 15.5t29 4h394z" />
    <glyph glyph-name="X" unicode="X" 
d="M446 615l-263 367h-60q-17 0 -29 4t-19.5 15t-11 31t-3.5 52t3.5 52t11 31.5t19.5 15.5t29 4h394q17 0 29 -4t19.5 -15.5t11 -31.5t3.5 -52t-3.5 -52t-11 -31t-19.5 -15t-29 -4h-43l146 -209l145 209h-24q-17 0 -29 4t-19.5 15t-11 31t-3.5 52t3.5 52t11 31.5t19.5 15.5
t29 4h364q17 0 29 -4t19.5 -15.5t11 -31.5t3.5 -52t-3.5 -52t-11 -31t-19.5 -15t-29 -4h-56l-266 -378l291 -399h61q17 0 29 -4t19.5 -15.5t11 -31.5t3.5 -52t-3.5 -52t-11 -31t-19.5 -15t-29 -4h-404q-17 0 -29 4t-19.5 15t-11 31t-3.5 52t3.5 52t11 31.5t19.5 15.5t29 4
h52l-173 244l-171 -244h38q17 0 29 -4t19.5 -15.5t11 -31.5t3.5 -52t-3.5 -52t-11 -31t-19.5 -15t-29 -4h-384q-17 0 -29 4t-19.5 15t-11 31t-3.5 52t3.5 52t11 31.5t19.5 15.5t29 4h62z" />
    <glyph glyph-name="Y" unicode="Y" 
d="M489 460l-340 522h-46q-17 0 -29 4t-19.5 15t-11 31t-3.5 52t3.5 52t11 31.5t19.5 15.5t29 4h394q17 0 29 -4t19.5 -15.5t11 -31.5t3.5 -52t-3.5 -52t-11 -31t-19.5 -15t-29 -4h-67l186 -292l188 292h-53q-17 0 -29 4t-19.5 15t-11 31t-3.5 52t3.5 52t11 31.5t19.5 15.5
t29 4h374q17 0 29 -4t19.5 -15.5t11 -31.5t3.5 -52t-3.5 -52t-11 -31t-19.5 -15t-29 -4h-44l-342 -523v-254h196q17 0 29 -4t19.5 -15.5t11 -31.5t3.5 -52t-3.5 -52t-11 -31t-19.5 -15t-29 -4h-642q-17 0 -29 4t-19.5 15t-11 31t-3.5 52t3.5 52t11 31.5t19.5 15.5t29 4h196
v255z" />
    <glyph glyph-name="Z" unicode="Z" 
d="M850 215v222q0 34 29 48.5t93 14.5q32 0 53 -3.5t33 -11t17 -19.5t5 -29v-372q0 -35 -15 -50t-50 -15h-814q-17 0 -29 4t-19.5 15t-11 31t-3.5 52q0 66 20 93l574 777h-334v-202q0 -34 -29 -48.5t-93 -14.5q-32 0 -53 3.5t-33 11t-17 19.5t-5 29v352q0 35 15 50t50 15
h784q17 0 29 -4t19.5 -15.5t11 -31.5t3.5 -52t-6 -54.5t-17 -37.5l-574 -777h367z" />
    <glyph glyph-name="bracketleft" unicode="[" 
d="M863 -188q17 0 29 -4t19.5 -15t11 -31t3.5 -52t-3.5 -52t-11 -31.5t-19.5 -15.5t-29 -4h-510q-34 0 -48.5 14.5t-14.5 48.5v1579q0 34 14.5 48.5t48.5 14.5h510q17 0 29 -4t19.5 -15.5t11 -31.5t3.5 -52t-3.5 -52t-11 -31t-19.5 -15t-29 -4h-323v-1295h323z" />
    <glyph glyph-name="backslash" unicode="\" 
d="M171 1221q-12 27 -1.5 48.5t34 37t54 24t59.5 8.5q27 0 48.5 -8.5t29.5 -25.5l662 -1488q12 -26 1 -47.5t-34.5 -37t-54.5 -24t-60 -8.5q-26 0 -47 8t-29 25z" />
    <glyph glyph-name="bracketright" unicode="]" 
d="M688 1107h-323q-17 0 -29 4t-19.5 15t-11 31t-3.5 52t3.5 52t11 31.5t19.5 15.5t29 4h510q34 0 48.5 -14.5t14.5 -48.5v-1579q0 -34 -14.5 -48.5t-48.5 -14.5h-510q-17 0 -29 4t-19.5 15.5t-11 31.5t-3.5 52t3.5 52t11 31t19.5 15t29 4h323v1295z" />
    <glyph glyph-name="asciicircum" unicode="^" 
d="M427 497q-6 -12 -20 -18.5t-33.5 -9t-41.5 -0.5t-44 7q-23 5 -42.5 13.5t-33 19.5t-18 24.5t3.5 28.5l318 610q9 18 31 27.5t67 9.5q44 0 66.5 -9.5t31.5 -27.5l318 -610q8 -15 3.5 -28.5t-18 -24.5t-33.5 -19.5t-42 -13.5t-44 -7t-41.5 0.5t-33.5 9t-20 18.5l-187 390z
" />
    <glyph glyph-name="underscore" unicode="_" 
d="M-5 -513q-9 0 -15.5 4t-10.5 16t-5.5 34t-1.5 58t1.5 58t5.5 34t10.5 16.5t15.5 4.5h1238q9 0 15.5 -4.5t10.5 -16.5t5.5 -34t1.5 -58t-1.5 -58t-5.5 -34t-10.5 -16t-15.5 -4h-1238z" />
    <glyph glyph-name="grave" unicode="`" 
d="M812 1145q20 -12 25.5 -31.5t-2.5 -41.5q-8 -23 -26 -34.5t-42 -4.5l-480 125q-26 7 -29.5 40.5t26.5 102.5q30 68 61 87.5t59 3.5z" />
    <glyph glyph-name="a" unicode="a" 
d="M822 106q-77 -60 -164.5 -94t-183.5 -34q-86 0 -153.5 22t-114.5 63.5t-71.5 100t-24.5 131.5q0 70 25.5 125t74 92.5t118 57t158.5 19.5q133 0 283 -30v29q0 31 -10 55.5t-32.5 41.5t-60 25.5t-91.5 8.5q-60 0 -131 -15t-140 -38q-16 -5 -30 -5.5t-27 7t-25 25t-23 47.5
q-22 60 -15 92t42 45q47 17 96.5 30t98 21.5t95 13t87.5 4.5q114 0 193.5 -25.5t129 -73.5t71.5 -116t22 -152v-289q0 -40 17 -62.5t49 -22.5h31q17 0 29 -4t19.5 -15.5t11 -31.5t3.5 -52t-3.5 -52t-11 -31t-19.5 -15t-29 -4h-112q-60 0 -108 24.5t-74 81.5zM769 356
q-70 14 -133.5 20.5t-124.5 6.5q-71 0 -107 -25t-36 -73t35.5 -72t102.5 -24q72 0 139 28.5t124 74.5v64z" />
    <glyph glyph-name="b" unicode="b" 
d="M187 1107h-97q-17 0 -29 4t-19.5 15t-11 31t-3.5 52t3.5 52t11 31.5t19.5 15.5t29 4h284q34 0 48.5 -14.5t14.5 -48.5v-421q51 56 117 87t146 31q101 0 181 -37.5t135.5 -103t85 -154t29.5 -189.5t-29.5 -189.5t-85 -154t-135.5 -103t-181 -37.5q-97 0 -174.5 45
t-128.5 124v-84q0 -34 -14.5 -48.5t-48.5 -14.5h-224q-17 0 -29 4t-19.5 15.5t-11 31.5t-3.5 52t3.5 52t11 31t19.5 15t29 4h77v902zM430 462q0 -62 18.5 -110t50 -80.5t73 -49.5t88.5 -17t84.5 18t64 52t40.5 81t14 106q0 58 -14 105.5t-40.5 81.5t-64 52t-84.5 18
t-88.5 -17t-73 -49.5t-50 -80.5t-18.5 -110z" />
    <glyph glyph-name="c" unicode="c" 
d="M948 299q29 17 58 3.5t54 -72.5t15.5 -92t-40.5 -50q-90 -50 -192 -80t-209 -30q-116 0 -209.5 36t-159.5 100.5t-102 153.5t-36 194q0 107 36.5 196t101 153t151.5 99.5t188 35.5q81 0 137.5 -28.5t91.5 -88.5v54q0 34 29 48.5t93 14.5q32 0 53 -3.5t33 -11t17 -19.5
t5 -29v-321q0 -34 -30 -48.5t-102 -14.5q-36 0 -58.5 3.5t-36 11t-18.5 19.5t-5 29q0 31 -11 59t-33.5 50t-56 35t-78.5 13q-54 0 -98.5 -18t-75.5 -52t-48 -81.5t-17 -105.5q0 -59 17 -106t48 -81t75.5 -52t98.5 -18q80 0 160 25.5t154 68.5z" />
    <glyph glyph-name="d" unicode="d" 
d="M1128 205q17 0 29 -4t19.5 -15t11 -31t3.5 -52t-3.5 -52t-11 -31.5t-19.5 -15.5t-29 -4h-234q-34 0 -48.5 14.5t-14.5 48.5v69q-52 -74 -129 -114t-174 -40q-99 0 -178.5 35.5t-136 98t-86.5 148.5t-30 187t30 187t86.5 148.5t136 98t178.5 35.5q79 0 145.5 -30
t117.5 -85v306h-197q-17 0 -29 4t-19.5 15t-11 31t-3.5 52t3.5 52t11 31.5t19.5 15.5t29 4h384q34 0 48.5 -14.5t14.5 -48.5v-1044h87zM798 447q0 61 -18.5 106.5t-50 75.5t-73 45t-88.5 15q-92 0 -147.5 -62t-55.5 -180t55.5 -180t147.5 -62q47 0 88.5 15t73 45t50 75.5
t18.5 106.5z" />
    <glyph glyph-name="e" unicode="e" 
d="M960 260q32 10 53 -6.5t38 -77.5q8 -31 10 -52.5t-3 -36t-16.5 -23.5t-29.5 -15q-100 -33 -210 -52t-218 -19q-112 0 -199 36t-146.5 100.5t-90.5 153.5t-31 194t34 193.5t98.5 153t156.5 101t208 36.5q117 0 206 -38.5t148.5 -107t90 -163t30.5 -205.5q0 -34 -14.5 -48
t-48.5 -14h-642q20 -81 76 -123t144 -42q81 0 168.5 12.5t187.5 42.5zM828 565q-17 72 -72 113t-142 41q-91 0 -147.5 -38t-78.5 -116h440z" />
    <glyph glyph-name="f" unicode="f" 
d="M413 205v444h-183q-17 0 -29 5t-19.5 17t-11 32.5t-3.5 52.5t3.5 53t11 33t19.5 17t29 5h183v73q0 188 91 284t266 96q71 0 146.5 -13t157.5 -44q17 -6 28.5 -16t17 -25.5t4 -37.5t-9.5 -53q-8 -30 -18.5 -48t-23.5 -26t-27.5 -8t-30.5 5q-64 20 -117.5 29.5t-104.5 9.5
q-62 0 -95.5 -39.5t-33.5 -126.5v-60h311q17 0 29 -5t19.5 -17t11 -33t3.5 -53t-3.5 -52.5t-11 -32.5t-19.5 -17t-29 -5h-311v-444h281q17 0 29 -4t19.5 -15.5t11 -31.5t3.5 -52t-3.5 -52t-11 -31t-19.5 -15t-29 -4h-714q-17 0 -29 4t-19.5 15t-11 31t-3.5 52t3.5 52
t11 31.5t19.5 15.5t29 4h183z" />
    <glyph glyph-name="g" unicode="g" 
d="M1041 -4q0 -96 -28.5 -172t-86 -129.5t-144.5 -81.5t-205 -28q-73 0 -163 15t-190 44q-35 11 -44 42t10 93q9 30 20 48t23.5 26.5t26.5 9t30 -3.5q70 -20 143.5 -33.5t133.5 -13.5q121 0 172.5 51.5t51.5 152.5v107q-51 -55 -117.5 -85t-145.5 -30q-99 0 -178.5 35.5
t-136 98t-86.5 148.5t-30 187t30 187t86.5 148.5t136 98t178.5 35.5q97 0 174 -40t129 -115v70q0 34 14.5 48.5t48.5 14.5h234q17 0 29 -4t19.5 -15.5t11 -31.5t3.5 -52t-3.5 -52t-11 -31t-19.5 -15t-29 -4h-87v-723zM798 477q0 61 -18.5 106.5t-50 75.5t-73 45t-88.5 15
q-92 0 -147.5 -62t-55.5 -180t55.5 -180t147.5 -62q47 0 88.5 15t73 45t50 75.5t18.5 106.5z" />
    <glyph glyph-name="h" unicode="h" 
d="M207 1107h-97q-17 0 -29 4t-19.5 15t-11 31t-3.5 52t3.5 52t11 31.5t19.5 15.5t29 4h284q34 0 48.5 -14.5t14.5 -48.5v-486q63 96 135 139.5t155 43.5q69 0 125 -23t95 -65t60.5 -102.5t21.5 -135.5v-415h77q17 0 29 -4t19.5 -15.5t11 -31.5t3.5 -52t-3.5 -52t-11 -31
t-19.5 -15t-29 -4h-374q-17 0 -29 4t-19.5 15t-11 31t-3.5 52t3.5 52t11 31.5t19.5 15.5t29 4h47v356q0 74 -25.5 116t-91.5 42q-45 0 -85.5 -28.5t-71.5 -76.5t-49.5 -112t-18.5 -134v-163h47q17 0 29 -4t19.5 -15.5t11 -31.5t3.5 -52t-3.5 -52t-11 -31t-19.5 -15t-29 -4
h-374q-17 0 -29 4t-19.5 15t-11 31t-3.5 52t3.5 52t11 31.5t19.5 15.5t29 4h77v902z" />
    <glyph glyph-name="i" unicode="i" 
d="M503 719h-193q-17 0 -29 4t-19.5 15t-11 31t-3.5 52t3.5 52t11 31.5t19.5 15.5t29 4h380q34 0 48.5 -14.5t14.5 -48.5v-656h281q17 0 29 -4t19.5 -15.5t11 -31.5t3.5 -52t-3.5 -52t-11 -31t-19.5 -15t-29 -4h-804q-17 0 -29 4t-19.5 15t-11 31t-3.5 52t3.5 52t11 31.5
t19.5 15.5t29 4h273v514zM753 1156q0 -34 -26 -48.5t-97 -14.5t-99 14.5t-28 48.5v164q0 17 5.5 29t19.5 19.5t37.5 11t59.5 3.5q71 0 99.5 -14.5t28.5 -48.5v-164z" />
    <glyph glyph-name="j" unicode="j" 
d="M923 1156q0 -34 -26 -48.5t-97 -14.5t-99 14.5t-28 48.5v164q0 17 5.5 29t19.5 19.5t37.5 11t59.5 3.5q71 0 99.5 -14.5t28.5 -48.5v-164zM290 719q-17 0 -29 4t-19.5 15t-11 31t-3.5 52t3.5 52t11 31.5t19.5 15.5t29 4h570q34 0 48.5 -14.5t14.5 -48.5v-896
q0 -188 -91 -284t-266 -96q-87 0 -176.5 29t-180.5 75q-33 16 -40.5 46t16.5 89q12 30 24.5 46.5t26 23t28 5t29.5 -8.5q33 -15 67 -29t66 -25t62 -17.5t56 -6.5q62 0 95.5 39.5t33.5 126.5v741h-383z" />
    <glyph glyph-name="l" unicode="l" 
d="M493 1107h-233q-17 0 -29 4t-19.5 15t-11 31t-3.5 52t3.5 52t11 31.5t19.5 15.5t29 4h420q34 0 48.5 -14.5t14.5 -48.5v-1044h281q17 0 29 -4t19.5 -15.5t11 -31.5t3.5 -52t-3.5 -52t-11 -31t-19.5 -15t-29 -4h-804q-17 0 -29 4t-19.5 15t-11 31t-3.5 52t3.5 52t11 31.5
t19.5 15.5t29 4h273v902z" />
    <glyph glyph-name="m" unicode="m" 
d="M49 719q-17 0 -29 4t-19.5 15t-11 31t-3.5 52t3.5 52t11 31.5t19.5 15.5t29 4h174q34 0 48.5 -14.5t14.5 -48.5v-144q48 115 111.5 172t138.5 57q78 0 124.5 -53t66.5 -150q47 102 107.5 152.5t131.5 50.5q44 0 80.5 -17.5t62.5 -54.5t40.5 -94.5t14.5 -136.5v-580
q0 -34 -14.5 -48.5t-48.5 -14.5h-124q-34 0 -48.5 14.5t-14.5 48.5v523q0 52 -12 77.5t-40 25.5q-46 0 -74 -70.5t-28 -215.5v-340q0 -34 -14.5 -48.5t-48.5 -14.5h-124q-34 0 -48.5 14.5t-14.5 48.5v523q0 52 -12 77.5t-40 25.5q-46 0 -74 -70.5t-28 -215.5v-340
q0 -34 -14.5 -48.5t-48.5 -14.5h-124q-34 0 -48.5 14.5t-14.5 48.5v656h-57z" />
    <glyph glyph-name="n" unicode="n" 
d="M217 719h-97q-17 0 -29 4t-19.5 15t-11 31t-3.5 52t3.5 52t11 31.5t19.5 15.5t29 4h244q34 0 48.5 -14.5t14.5 -48.5v-145q70 122 153 176t177 54q69 0 125 -23t95 -65t60.5 -102.5t21.5 -135.5v-415h77q17 0 29 -4t19.5 -15.5t11 -31.5t3.5 -52t-3.5 -52t-11 -31
t-19.5 -15t-29 -4h-374q-17 0 -29 4t-19.5 15t-11 31t-3.5 52t3.5 52t11 31.5t19.5 15.5t29 4h47v356q0 74 -25.5 116t-91.5 42q-45 0 -85.5 -28.5t-71.5 -76.5t-49.5 -112t-18.5 -134v-163h47q17 0 29 -4t19.5 -15.5t11 -31.5t3.5 -52t-3.5 -52t-11 -31t-19.5 -15t-29 -4
h-374q-17 0 -29 4t-19.5 15t-11 31t-3.5 52t3.5 52t11 31.5t19.5 15.5t29 4h77v514z" />
    <glyph glyph-name="o" unicode="o" 
d="M614 -22q-116 0 -209.5 36t-159.5 100.5t-102 153.5t-36 194t36 193.5t102 153t159.5 101t209.5 36.5t209.5 -36.5t159.5 -101t102 -153t36 -193.5t-36 -194t-102 -153.5t-159.5 -100.5t-209.5 -36zM614 719q-54 0 -98.5 -18t-75.5 -52t-48 -81.5t-17 -105.5
q0 -59 17 -106t48 -81t75.5 -52t98.5 -18t98.5 18t75.5 52t48 81t17 106q0 58 -17 105.5t-48 81.5t-75.5 52t-98.5 18z" />
    <glyph glyph-name="p" unicode="p" 
d="M187 719h-87q-17 0 -29 4t-19.5 15t-11 31t-3.5 52t3.5 52t11 31.5t19.5 15.5t29 4h234q34 0 48.5 -14.5t14.5 -48.5v-70q51 75 128.5 115t174.5 40q99 0 178.5 -35.5t136 -98t86.5 -148.5t30 -187t-30 -187t-86.5 -148.5t-136 -98t-178.5 -35.5q-80 0 -146 30t-117 85
v-311h247q17 0 29 -4t19.5 -15.5t11 -31.5t3.5 -52t-3.5 -52t-11 -31t-19.5 -15t-29 -4h-584q-17 0 -29 4t-19.5 15t-11 31t-3.5 52t3.5 52t11 31.5t19.5 15.5t29 4h87v907zM430 477q0 -61 18.5 -106.5t50 -75.5t73 -45t88.5 -15q92 0 147.5 62t55.5 180t-55.5 180
t-147.5 62q-47 0 -88.5 -15t-73 -45t-50 -75.5t-18.5 -106.5z" />
    <glyph glyph-name="q" unicode="q" 
d="M791 123q-51 -55 -117.5 -85t-145.5 -30q-99 0 -178.5 35.5t-136 98t-86.5 148.5t-30 187t30 187t86.5 148.5t136 98t178.5 35.5q97 0 174 -40t129 -115v70q0 34 14.5 48.5t48.5 14.5h234q17 0 29 -4t19.5 -15.5t11 -31.5t3.5 -52t-3.5 -52t-11 -31t-19.5 -15t-29 -4h-87
v-907h107q17 0 29 -4t19.5 -15.5t11 -31.5t3.5 -52t-3.5 -52t-11 -31t-19.5 -15t-29 -4h-574q-17 0 -29 4t-19.5 15t-11 31t-3.5 52t3.5 52t11 31.5t19.5 15.5t29 4h217v311zM798 477q0 61 -18.5 106.5t-50 75.5t-73 45t-88.5 15q-92 0 -147.5 -62t-55.5 -180t55.5 -180
t147.5 -62q47 0 88.5 15t73 45t50 75.5t18.5 106.5z" />
    <glyph glyph-name="r" unicode="r" 
d="M337 719h-117q-17 0 -29 4t-19.5 15t-11 31t-3.5 52t3.5 52t11 31.5t19.5 15.5t29 4h274q34 0 48.5 -14.5t14.5 -48.5v-217q76 146 173 224t197 78q85 0 160 -56q37 -28 43 -66.5t-17 -95.5q-24 -61 -55 -80.5t-63 -2.5q-29 16 -58 23.5t-58 7.5q-58 0 -110.5 -28
t-93 -78t-64.5 -119t-24 -151v-95h287q17 0 29 -4t19.5 -15.5t11 -31.5t3.5 -52t-3.5 -52t-11 -31t-19.5 -15t-29 -4h-684q-17 0 -29 4t-19.5 15t-11 31t-3.5 52t3.5 52t11 31.5t19.5 15.5t29 4h147v514z" />
    <glyph glyph-name="s" unicode="s" 
d="M414 41q0 -34 -29 -48.5t-93 -14.5t-91 14.5t-27 48.5v223q0 34 23.5 48.5t72.5 14.5q33 0 52.5 -7t30.5 -21q54 -67 133 -94t166 -27q84 0 122 21.5t38 61.5q0 26 -24 41t-65 24t-94 15t-110 15t-113 23.5t-104 40.5q-60 33 -99 90t-39 150q0 67 27.5 120t76 90
t115 56.5t143.5 19.5q81 0 146.5 -19t121.5 -54v10q0 34 24 48.5t88 14.5t91 -14.5t27 -48.5v-211q0 -34 -21.5 -48.5t-70.5 -14.5q-53 0 -73 21q-62 65 -139 90.5t-172 25.5q-61 0 -93.5 -21.5t-32.5 -55.5q0 -23 20 -37.5t54 -22.5q37 -9 86 -14t103.5 -11.5t110 -17.5
t104.5 -31q36 -15 67.5 -36.5t54 -51.5t35.5 -69.5t13 -90.5q0 -71 -26 -128t-77 -97.5t-125 -62t-170 -21.5q-78 0 -141 19.5t-117 51.5v-8z" />
    <glyph glyph-name="u" unicode="u" 
d="M113 719q-17 0 -29 4t-19.5 15.5t-11 31.5t-3.5 52t3.5 52t11 31t19.5 15t29 4h264q34 0 48.5 -14.5t14.5 -48.5v-498q0 -74 25.5 -116t91.5 -42q45 0 85.5 28.5t71.5 76.5t49.5 111.5t18.5 134.5v163h-107q-17 0 -29 4t-19.5 15.5t-11 31.5t-3.5 52t3.5 52t11 31
t19.5 15t29 4h294q34 0 48.5 -14.5t14.5 -48.5v-656h77q17 0 29 -4t19.5 -15t11 -31t3.5 -52t-3.5 -52t-11 -31.5t-19.5 -15.5t-29 -4h-224q-34 0 -48.5 14.5t-14.5 48.5v145q-70 -122 -153 -176t-177 -54q-69 0 -125 23t-95 65t-60.5 102.5t-21.5 135.5v415h-77z" />
    <glyph glyph-name="v" unicode="v" 
d="M103 719q-17 0 -29 4t-19.5 15t-11 31t-3.5 52t3.5 52t11 31.5t19.5 15.5t29 4h404q17 0 29 -4t19.5 -15.5t11 -31.5t3.5 -52t-3.5 -52t-11 -31t-19.5 -15t-29 -4h-67l177 -441l179 441h-55q-17 0 -29 4t-19.5 15t-11 31t-3.5 52t3.5 52t11 31.5t19.5 15.5t29 4h384
q17 0 29 -4t19.5 -15.5t11 -31.5t3.5 -52t-3.5 -52t-11 -31t-19.5 -15t-29 -4h-68l-293 -676q-14 -34 -47.5 -49.5t-105.5 -15.5q-36 0 -61.5 4t-43 12t-28.5 20t-18 29l-291 676h-66z" />
    <glyph glyph-name="w" unicode="w" 
d="M43 719q-17 0 -29 4t-19.5 15t-11 31t-3.5 52t3.5 52t11 31.5t19.5 15.5t29 4h344q17 0 29 -4t19.5 -15.5t11 -31.5t3.5 -52t-3.5 -52t-11 -31t-19.5 -15t-29 -4h-85l75 -388l138 339q11 26 31.5 41.5t64.5 15.5q45 0 65.5 -12t31.5 -38l137 -346l78 388h-72q-17 0 -29 4
t-19.5 15t-11 31t-3.5 52t3.5 52t11 31.5t19.5 15.5t29 4h334q17 0 29 -4t19.5 -15.5t11 -31.5t3.5 -52t-3.5 -52t-11 -31t-19.5 -15t-29 -4h-41l-146 -676q-8 -36 -34 -50.5t-87 -14.5t-87.5 16t-39.5 49l-140 355l-142 -355q-7 -17 -16.5 -29t-24.5 -20t-36.5 -12
t-51.5 -4t-51 3.5t-35 11.5t-21.5 20t-11.5 30l-143 676h-34z" />
    <glyph glyph-name="x" unicode="x" 
d="M441 469l-246 250h-52q-17 0 -29 4t-19.5 15t-11 31t-3.5 52t3.5 52t11 31.5t19.5 15.5t29 4h374q17 0 29 -4t19.5 -15.5t11 -31.5t3.5 -52t-3.5 -52t-11 -31t-19.5 -15t-29 -4h-13l128 -131l121 131h-22q-17 0 -29 4t-19.5 15t-11 31t-3.5 52t3.5 52t11 31.5t19.5 15.5
t29 4h354q17 0 29 -4t19.5 -15.5t11 -31.5t3.5 -52t-3.5 -52t-11 -31t-19.5 -15t-29 -4h-59l-241 -251l259 -263h51q17 0 29 -4t19.5 -15.5t11 -31.5t3.5 -52t-3.5 -52t-11 -31t-19.5 -15t-29 -4h-384q-17 0 -29 4t-19.5 15t-11 31t-3.5 52t3.5 52t11 31.5t19.5 15.5t29 4
h14l-131 134l-124 -134h17q17 0 29 -4t19.5 -15.5t11 -31.5t3.5 -52t-3.5 -52t-11 -31t-19.5 -15t-29 -4h-354q-17 0 -29 4t-19.5 15t-11 31t-3.5 52t3.5 52t11 31.5t19.5 15.5t29 4h54z" />
    <glyph glyph-name="z" unicode="z" 
d="M1017 924q17 0 29 -4t19.5 -15t11 -31t3.5 -52q0 -27 -7 -45t-25 -37l-523 -535h325v124q0 17 5.5 29t19.5 19.5t37.5 11t59.5 3.5t57 -3.5t32.5 -11t15 -19.5t3.5 -29v-264q0 -35 -15 -50t-50 -15h-814q-17 0 -29 4t-19.5 15t-11 31t-3.5 52q0 27 7 45t25 37l523 535
h-305v-114q0 -17 -5.5 -29t-19.5 -19.5t-37.5 -11t-59.5 -3.5t-57 3.5t-32.5 11t-15 19.5t-3.5 29v254q0 35 15 50t50 15h794z" />
    <glyph glyph-name="braceleft" unicode="{" 
d="M540 482q35 -21 64 -48t50 -61.5t32.5 -76.5t11.5 -93v-201q0 -100 39.5 -145t117.5 -45q17 0 29 -4t19.5 -15t11 -31t3.5 -52t-3.5 -52t-11 -31.5t-19.5 -15.5t-29 -4q-200 0 -303.5 94.5t-103.5 288.5v203q0 91 -42 138.5t-138 47.5q-17 0 -29 4t-19.5 15.5t-11 31.5
t-3.5 52t3.5 52t11 31t19.5 15t29 4q96 0 138 47.5t42 138.5v159q0 193 103.5 288t303.5 95q17 0 29 -4t19.5 -15.5t11 -31.5t3.5 -52t-3.5 -52t-11 -31t-19.5 -15t-29 -4q-78 0 -117.5 -45t-39.5 -145v-157q0 -51 -11.5 -93t-32.5 -76t-50 -61t-64 -48z" />
    <glyph glyph-name="bar" unicode="|" 
d="M489 1271q0 34 34 48.5t98 14.5t91 -14.5t27 -48.5v-1623q0 -34 -34 -48.5t-98 -14.5t-91 14.5t-27 48.5v1623z" />
    <glyph glyph-name="braceright" unicode="}" 
d="M688 482q-35 21 -64 48t-50 61t-32.5 76t-11.5 93v157q0 100 -39.5 145t-117.5 45q-17 0 -29 4t-19.5 15t-11 31t-3.5 52t3.5 52t11 31.5t19.5 15.5t29 4q200 0 303.5 -95t103.5 -288v-159q0 -91 42 -138.5t138 -47.5q17 0 29 -4t19.5 -15t11 -31t3.5 -52t-3.5 -52
t-11 -31.5t-19.5 -15.5t-29 -4q-96 0 -138 -47.5t-42 -138.5v-203q0 -194 -103.5 -288.5t-303.5 -94.5q-17 0 -29 4t-19.5 15.5t-11 31.5t-3.5 52t3.5 52t11 31t19.5 15t29 4q78 0 117.5 45t39.5 145v201q0 51 11.5 93t32.5 76.5t50 61.5t64 48z" />
    <glyph glyph-name="asciitilde" unicode="~" 
d="M239 460q-14 -8 -27 -6.5t-24 10t-19.5 22t-14.5 30.5q-6 16 -8.5 33t-2 33t5 28.5t12.5 20.5q68 62 131 85.5t123 23.5q53 0 104.5 -13t102 -28t101 -28t103.5 -13q40 0 80.5 9.5t83.5 34.5q14 8 27 6.5t24 -10t19.5 -22.5t14.5 -30t8.5 -33t2 -33t-5 -29t-12.5 -20
q-69 -62 -132 -85.5t-123 -23.5q-53 0 -104.5 13t-102 28t-101.5 28t-103 13q-40 0 -80 -10t-83 -34z" />
    <glyph glyph-name="Ccedilla" unicode="&#xc7;" 
d="M1081 84q-181 -90 -367 -104v-73q58 2 101 -11t70.5 -38t41 -60.5t13.5 -78.5q0 -91 -70.5 -141t-208.5 -50q-75 0 -140.5 11t-118.5 31q-19 8 -20.5 29t9.5 53q13 35 28.5 50.5t35.5 9.5q39 -15 76 -24.5t87 -9.5q86 0 86 53q0 21 -11 32.5t-28 17t-39.5 4.5t-44.5 -6
q-17 -4 -29.5 5.5t-12.5 35.5v169q-100 18 -180.5 68t-137.5 127.5t-87.5 181t-30.5 228.5q0 142 39 256t109 194t165 122.5t208 42.5q94 0 157.5 -34t102.5 -92v63q0 34 29 48.5t93 14.5q32 0 53 -3.5t33 -11t17 -19.5t5 -29v-384q0 -34 -30 -48.5t-102 -14.5
q-36 0 -58.5 3.5t-36 11t-18.5 19.5t-5 29q0 48 -13.5 88.5t-40 70t-65.5 45.5t-91 16q-141 0 -212 -100.5t-71 -287.5t76 -288t217 -101q92 0 173 25.5t168 69.5q30 15 58 0t50 -75q22 -61 11 -93t-43 -48z" />
    <glyph glyph-name="ccedilla" unicode="&#xe7;" 
d="M948 299q29 17 58 3.5t54 -72.5t15.5 -92t-40.5 -50q-79 -44 -168 -72.5t-183 -35.5v-73q58 2 101 -11t70.5 -38t41 -60.5t13.5 -78.5q0 -91 -70.5 -141t-208.5 -50q-75 0 -140.5 11t-118.5 31q-19 8 -20.5 29t9.5 53q13 35 28.5 50.5t35.5 9.5q39 -15 76 -24.5t87 -9.5
q86 0 86 53q0 21 -11 32.5t-28 17t-39.5 4.5t-44.5 -6q-17 -4 -29.5 5.5t-12.5 35.5v171q-89 18 -159.5 60t-120 103.5t-76 139.5t-26.5 168q0 107 36.5 196t101 153t151.5 99.5t188 35.5q81 0 137.5 -28.5t91.5 -88.5v54q0 34 29 48.5t93 14.5q32 0 53 -3.5t33 -11
t17 -19.5t5 -29v-321q0 -34 -30 -48.5t-102 -14.5q-36 0 -58.5 3.5t-36 11t-18.5 19.5t-5 29q0 31 -11 59t-33.5 50t-56 35t-78.5 13q-54 0 -98.5 -18t-75.5 -52t-48 -81.5t-17 -105.5q0 -59 17 -106t48 -81t75.5 -52t98.5 -18q80 0 160 25.5t154 68.5z" />
    <glyph glyph-name="dagger" unicode="&#x2020;" 
d="M313 699q-17 0 -29 4t-19.5 16t-11 34t-3.5 58t3.5 58t11 34t19.5 16.5t29 4.5h188v222q0 17 4.5 29t16.5 19.5t34 11t58 3.5t58 -3.5t34 -11t16 -19.5t4 -29v-222h189q17 0 29 -4.5t19.5 -16.5t11 -34t3.5 -58t-3.5 -58t-11 -34t-19.5 -16t-29 -4h-189v-388
q0 -17 -4 -29t-16 -19.5t-34 -11t-58 -3.5t-58 3.5t-34 11t-16.5 19.5t-4.5 29v388h-188z" />
    <glyph glyph-name="degree" unicode="&#xb0;" 
d="M220 887q0 66 25.5 125t69 102.5t102.5 69t125 25.5t125 -25.5t102.5 -69t69 -102.5t25.5 -125t-25.5 -125t-69 -102.5t-102.5 -69t-125 -25.5t-125 25.5t-102.5 69t-69 102.5t-25.5 125zM431 887q0 -23 9 -43t24 -35t35 -24t43 -9t43 9t35 24t24 35t9 43t-9 43t-24 35
t-35 24t-43 9t-43 -9t-35 -24t-24 -35t-9 -43z" />
    <glyph glyph-name="cent" unicode="&#xa2;" 
d="M948 439q29 17 58 3.5t54 -72.5t15.5 -92t-40.5 -50q-74 -41 -155.5 -69t-168.5 -37v-184q0 -34 -18.5 -48.5t-74.5 -14.5t-74.5 14.5t-18.5 48.5v189q-92 16 -166 57.5t-125.5 103.5t-79 142t-27.5 172q0 96 30 178t83 144t126 102.5t159 53.5v169q0 34 18.5 48.5
t74.5 14.5t74.5 -14.5t18.5 -48.5v-179q79 -27 122 -101v54q0 34 29 48.5t93 14.5q32 0 53 -3.5t33 -11t17 -19.5t5 -29v-321q0 -34 -30 -48.5t-102 -14.5q-36 0 -58.5 3.5t-36 11t-18.5 19.5t-5 29q0 47 -25.5 86.5t-76.5 57.5v-495q61 10 120.5 32.5t116.5 55.5zM395 602
q0 -85 34.5 -145t95.5 -89v468q-61 -29 -95.5 -89t-34.5 -145z" />
    <glyph glyph-name="sterling" unicode="&#xa3;" 
d="M1040 56q-63 -47 -117 -63.5t-105 -16.5q-36 0 -71.5 6t-72 12.5t-76 12.5t-83.5 6q-48 0 -105 -10t-123 -37q-21 -9 -46 12.5t-42 55.5q-9 17 -14.5 35.5t-6 36t4 32t16.5 23.5q41 32 73 62t54 61t34.5 65.5t14.5 75.5h-162q-17 0 -29 4t-19.5 16t-11 34t-3.5 58t3.5 58
t11 34t19.5 16.5t29 4.5h95q-13 24 -25 49t-21.5 51.5t-15 55.5t-5.5 61q0 73 25 135.5t73.5 108.5t119 72t161.5 26q162 0 335 -89q22 -11 34 -26t12 -37v-207q0 -34 -29 -48.5t-93 -14.5q-32 0 -53 3.5t-33 11t-17 19.5t-5 29v111q-31 15 -65 23t-78 8q-63 0 -98 -36.5
t-35 -97.5q0 -30 7.5 -57t19.5 -51.5t26.5 -49t28.5 -50.5h288q17 0 29 -4.5t19.5 -16.5t11 -34t3.5 -58t-3.5 -58t-11 -34t-19.5 -16t-29 -4h-241q-8 -61 -37.5 -114t-77.5 -104q42 16 76.5 22t64.5 6q24 0 45 -2.5t41 -6t40.5 -6t41.5 -2.5q29 0 61 6.5t72 26.5
q12 6 24.5 3t24.5 -13t23 -24.5t19 -32.5t13 -37t5.5 -36.5t-4 -32t-16.5 -22.5z" />
    <glyph glyph-name="section" unicode="&#xa7;" 
d="M633 -35q43 0 66 18.5t23 53.5q0 34 -20.5 61.5t-65.5 49.5l-291 145q-90 45 -138 118t-48 172q0 72 29 130t84 103q-14 48 -14 100q0 60 19.5 110t58 86t94.5 55.5t129 19.5h394q35 0 50 -15t15 -50v-262q0 -34 -29 -48.5t-93 -14.5q-32 0 -53 3.5t-33 11t-17 19.5
t-5 29v132h-193q-43 0 -66 -18.5t-23 -53.5q0 -34 20.5 -61.5t65.5 -49.5l291 -145q90 -45 138 -118t48 -172q0 -72 -29.5 -130t-84.5 -104q15 -45 15 -99q0 -60 -19.5 -110t-58 -86t-94.5 -55.5t-129 -19.5h-394q-35 0 -50 15t-15 50v262q0 34 29 48.5t93 14.5
q32 0 53 -3.5t33 -11t17 -19.5t5 -29v-132h193zM772 335q21 -11 36 -20q13 22 13 50q0 40 -24.5 69.5t-75.5 55.5l-265 132q-10 5 -19 10l-18 10q-12 -23 -12 -50q0 -40 24.5 -69.5t75.5 -55.5z" />
    <glyph glyph-name="bullet" unicode="&#x2022;" 
d="M320 579q0 61 23 114.5t63 93.5t93.5 63t114.5 23t114.5 -23t93.5 -63t63 -93.5t23 -114.5t-23 -114.5t-63 -93.5t-93.5 -63t-114.5 -23t-114.5 23t-93.5 63t-63 93.5t-23 114.5z" />
    <glyph glyph-name="paragraph" unicode="&#xb6;" 
d="M639 982v-1334q0 -34 -27.5 -48.5t-84.5 -14.5q-56 0 -77 14.5t-21 48.5v792q-74 11 -134.5 41t-103.5 77.5t-66.5 110.5t-23.5 140q0 89 30.5 159.5t86 119t132.5 74t169 25.5h556q17 0 29 -4t19.5 -15.5t11 -31.5t3.5 -52t-3.5 -52t-11 -31t-19.5 -15t-29 -4h-66v-1334
q0 -34 -27.5 -48.5t-84.5 -14.5q-56 0 -77 14.5t-21 48.5v1334h-160z" />
    <glyph glyph-name="germandbls" unicode="&#xdf;" 
d="M208 877q0 100 27.5 181.5t80.5 139t130.5 88.5t176.5 31t175 -27.5t128 -76.5t78.5 -117.5t26.5 -149.5q0 -95 -38.5 -160t-117.5 -108q103 -38 159 -117t56 -194q0 -98 -32 -170.5t-89.5 -121.5t-139 -73t-180.5 -24q-38 0 -57.5 24.5t-19.5 88.5t11.5 89t45.5 25
q193 0 193 182q0 78 -47.5 120t-132.5 42q-34 0 -48.5 24t-14.5 88q0 32 3.5 53t11 34t19.5 18.5t29 7.5q141 14 141 162q0 33 -9 61t-28.5 48.5t-49 32.5t-71.5 12q-81 0 -124 -55t-43 -161v-811q0 -34 -14.5 -48.5t-48.5 -14.5h-310q-17 0 -29 4t-19.5 15t-11 31t-3.5 52
t3.5 52t11 31.5t19.5 15.5t29 4h123v672z" />
    <glyph glyph-name="registered" unicode="&#xae;" 
d="M28 594q0 131 43.5 243.5t121.5 195t185 129.5t235 47q127 0 234.5 -47t185.5 -129.5t121.5 -195t43.5 -243.5t-43.5 -244t-121.5 -195.5t-185.5 -129.5t-234.5 -47q-128 0 -235 47t-185 129.5t-121.5 195.5t-43.5 244zM181 594q0 -99 30.5 -183.5t87 -146.5t136 -97.5
t178.5 -35.5t178.5 35.5t136 97.5t87 146.5t30.5 183.5t-30.5 183.5t-87 146.5t-136 97t-178.5 35t-178.5 -35t-136 -97t-87 -146.5t-30.5 -183.5zM366 854q0 34 14.5 48.5t48.5 14.5h236q55 0 100 -19.5t76.5 -52.5t48.5 -77t17 -93q0 -68 -31 -118.5t-90 -78.5l77 -88
q23 -26 19.5 -49t-44.5 -51t-64.5 -27.5t-44.5 27.5l-119 153h-74v-108q0 -17 -3.5 -29.5t-12.5 -20.5t-25.5 -11.5t-43.5 -3.5t-43.5 3.5t-25.5 11.5t-12.5 20.5t-3.5 29.5v519zM536 752v-154h99q45 0 69.5 20.5t24.5 56.5q0 34 -22.5 55.5t-62.5 21.5h-108z" />
    <glyph glyph-name="copyright" unicode="&#xa9;" 
d="M485 593q0 -83 41.5 -127t112.5 -44q35 0 69 8t69 20q26 9 41.5 -4t29.5 -51q15 -42 10.5 -65.5t-33.5 -37.5q-43 -21 -91 -32t-95 -11q-72 0 -133 23.5t-105 67.5t-69 108t-25 145t25 145t69 108t105 67.5t133 23.5q47 0 95 -11t91 -32q29 -14 33.5 -37.5t-10.5 -65.5
q-14 -38 -29.5 -51t-41.5 -4q-35 12 -69 20t-69 8q-71 0 -112.5 -44t-41.5 -127zM181 594q0 -99 30.5 -183.5t87 -146.5t136 -97.5t178.5 -35.5t178.5 35.5t136 97.5t87 146.5t30.5 183.5t-30.5 183.5t-87 146.5t-136 97t-178.5 35t-178.5 -35t-136 -97t-87 -146.5
t-30.5 -183.5zM28 594q0 131 43.5 243.5t121.5 195t185 129.5t235 47q127 0 234.5 -47t185.5 -129.5t121.5 -195t43.5 -243.5t-43.5 -244t-121.5 -195.5t-185.5 -129.5t-234.5 -47q-128 0 -235 47t-185 129.5t-121.5 195.5t-43.5 244z" />
    <glyph glyph-name="trademark" unicode="&#x2122;" 
d="M785 813q-2 -35 -19.5 -50t-63.5 -15t-60.5 15t-12.5 50l30 444q2 35 20.5 50t64.5 15q34 0 50 -7t24 -22l140 -256l140 256q8 15 24 22t50 7q46 0 64.5 -15t20.5 -50l30 -444q2 -35 -12.5 -50t-60.5 -15t-63.5 15t-19.5 50l-10 217l-91 -165q-13 -23 -32.5 -35
t-39.5 -12t-39.5 12t-32.5 35l-92 165zM113 1157q-17 0 -29 3t-19.5 11t-11 23.5t-3.5 39.5t3.5 39.5t11 24t19.5 11.5t29 3h402q17 0 29 -3t19.5 -11.5t11 -24t3.5 -39.5t-3.5 -39.5t-11 -23.5t-19.5 -11t-29 -3h-121v-344q0 -17 -3 -29.5t-12 -20.5t-24.5 -11.5
t-40.5 -3.5t-40.5 3.5t-24.5 11.5t-12 20.5t-3 29.5v344h-121z" />
    <glyph glyph-name="acute" unicode="&#xb4;" 
d="M824 1392q28 16 59 -3.5t61 -87.5q30 -69 26.5 -102.5t-29.5 -40.5l-480 -125q-24 -7 -42 4.5t-26 34.5q-8 22 -2.5 41.5t25.5 31.5z" />
    <glyph glyph-name="dieresis" unicode="&#xa8;" 
d="M234 1195q0 31 12 58.5t32 47.5t47.5 32t58.5 12t58.5 -12t47.5 -32t32 -47.5t12 -58.5t-12 -58.5t-32 -47.5t-47.5 -32t-58.5 -12t-58.5 12t-47.5 32t-32 47.5t-12 58.5zM694 1195q0 31 12 58.5t32 47.5t47.5 32t58.5 12t58.5 -12t47.5 -32t32 -47.5t12 -58.5t-12 -58.5
t-32 -47.5t-47.5 -32t-58.5 -12t-58.5 12t-47.5 32t-32 47.5t-12 58.5z" />
    <glyph glyph-name="notequal" unicode="&#x2260;" 
d="M691 924l86 159q8 15 17.5 23.5t22 10.5t30 -3.5t42.5 -18.5q49 -27 58.5 -48.5t-6.5 -51.5l-38 -71h92q17 0 29 -4.5t19.5 -16.5t11 -34t3.5 -58t-3.5 -58t-11 -34t-19.5 -16t-29 -4h-213l-125 -233h338q17 0 29 -4.5t19.5 -16.5t11 -34t3.5 -58t-3.5 -58t-11 -34
t-19.5 -16t-29 -4h-459l-85 -159q-8 -15 -17 -23.5t-22 -10.5t-30.5 3.5t-42.5 18.5t-39 24.5t-19.5 23.5t-3.5 24t10 27l38 72h-92q-17 0 -29 4t-19.5 16t-11 34t-3.5 58t3.5 58t11 34t19.5 16.5t29 4.5h213l125 233h-338q-17 0 -29 4t-19.5 16t-11 34t-3.5 58t3.5 58
t11 34t19.5 16.5t29 4.5h458z" />
    <glyph glyph-name="AE" unicode="&#xc6;" 
d="M285 982h-102q-17 0 -29 4t-19.5 15t-11 31t-3.5 52t3.5 52t11 31.5t19.5 15.5t29 4h912q35 0 50 -15t15 -50v-272q0 -34 -26 -48.5t-86 -14.5q-30 0 -49 3.5t-30 11t-15 19.5t-4 29v132h-170v-253h114q17 0 29 -5t19.5 -17t11 -33t3.5 -53t-3.5 -52.5t-11 -32.5
t-19.5 -17t-29 -5h-114v-309h180v182q0 34 26 48.5t90 14.5q32 0 52 -3.5t31.5 -11t16 -19.5t4.5 -29v-322q0 -35 -15 -50t-50 -15h-500q-35 0 -50 15t-15 50v265h-202l-32 -125h41q17 0 29 -4t19.5 -15.5t11 -31.5t3.5 -52t-3.5 -52t-11 -31t-19.5 -15t-29 -4h-324
q-17 0 -29 4t-19.5 15t-11 31t-3.5 52t3.5 52t11 31.5t19.5 15.5t29 4h53zM550 545v437h-47l-103 -437h150z" />
    <glyph glyph-name="Oslash" unicode="&#xd8;" 
d="M614 1209q77 0 145 -16.5t127 -48.5l25 36q10 14 20 21.5t22.5 7.5t29.5 -7.5t40 -23.5q46 -32 53 -54.5t-13 -50.5l-34 -48q66 -80 101 -188t35 -243q0 -143 -39.5 -257t-112 -193.5t-174 -122.5t-225.5 -43q-152 0 -271 64l-25 -35q-10 -14 -20 -21.5t-23 -7.5
t-29.5 7.5t-39.5 23.5t-36 29.5t-17.5 25.5t-1 24t13.5 26l33 48q-65 79 -100 187.5t-35 244.5q0 142 39.5 256t112 194t174 122.5t225.5 42.5zM614 982q-141 0 -212 -100.5t-71 -287.5q0 -119 28 -202l391 557q-57 33 -136 33zM897 594q0 116 -29 201l-389 -558
q58 -32 135 -32q141 0 212 101t71 288z" />
    <glyph glyph-name="plusminus" unicode="&#xb1;" 
d="M233 620q-17 0 -29 4t-19.5 16t-11 34t-3.5 58t3.5 58t11 34t19.5 16.5t29 4.5h268v218q0 17 4.5 29t16.5 19.5t34 11t58 3.5t58 -3.5t34 -11t16 -19.5t4 -29v-218h269q17 0 29 -4.5t19.5 -16.5t11 -34t3.5 -58t-3.5 -58t-11 -34t-19.5 -16t-29 -4h-269v-219
q0 -17 -4 -29t-16 -19.5t-34 -11t-58 -3.5t-58 3.5t-34 11t-16.5 19.5t-4.5 29v219h-268zM995 225q17 0 29 -4.5t19.5 -16.5t11 -34t3.5 -58t-3.5 -58t-11 -34t-19.5 -16t-29 -4h-762q-17 0 -29 4t-19.5 16t-11 34t-3.5 58t3.5 58t11 34t19.5 16.5t29 4.5h762z" />
    <glyph glyph-name="lessequal" unicode="&#x2264;" 
d="M995 225q17 0 29 -4.5t19.5 -16.5t11 -34t3.5 -58t-3.5 -58t-11 -34t-19.5 -16t-29 -4h-762q-17 0 -29 4t-19.5 16t-11 34t-3.5 58t3.5 58t11 34t19.5 16.5t29 4.5h762zM170 745q0 43 10.5 63t35.5 31l729 300q32 14 55.5 -5t46.5 -83q12 -32 15.5 -53t0 -35.5t-13.5 -23
t-26 -14.5l-492 -180l492 -180q16 -6 26 -14.5t13.5 -23t0 -36t-15.5 -52.5q-23 -64 -46.5 -83t-55.5 -5l-729 300q-25 11 -35.5 31t-10.5 63z" />
    <glyph glyph-name="greaterequal" unicode="&#x2265;" 
d="M995 225q17 0 29 -4.5t19.5 -16.5t11 -34t3.5 -58t-3.5 -58t-11 -34t-19.5 -16t-29 -4h-762q-17 0 -29 4t-19.5 16t-11 34t-3.5 58t3.5 58t11 34t19.5 16.5t29 4.5h762zM1058 745q0 -43 -10.5 -63t-35.5 -31l-729 -300q-32 -14 -55.5 5t-46.5 83q-12 31 -15.5 52.5t0 36
t13.5 23t26 14.5l492 180l-492 180q-16 6 -26 14.5t-13.5 23t0 35.5t15.5 53q23 64 46.5 83t55.5 5l729 -300q25 -11 35.5 -31t10.5 -63z" />
    <glyph glyph-name="yen" unicode="&#xa5;" 
d="M489 327h-286q-17 0 -29 4t-19.5 14t-11 28t-3.5 46q0 56 14.5 74.5t48.5 18.5h252l-93 143h-179q-17 0 -29 4t-19.5 14t-11 28t-3.5 46q0 56 14.5 74.5t48.5 18.5h58l-92 142h-46q-17 0 -29 4t-19.5 15t-11 31t-3.5 52t3.5 52t11 31.5t19.5 15.5t29 4h394q17 0 29 -4
t19.5 -15.5t11 -31.5t3.5 -52t-3.5 -52t-11 -31t-19.5 -15t-29 -4h-67l186 -292l188 292h-53q-17 0 -29 4t-19.5 15t-11 31t-3.5 52t3.5 52t11 31.5t19.5 15.5t29 4h374q17 0 29 -4t19.5 -15.5t11 -31.5t3.5 -52t-3.5 -52t-11 -31t-19.5 -15t-29 -4h-44l-93 -142h57
q34 0 48.5 -18.5t14.5 -74.5q0 -28 -3.5 -46t-11 -28t-19.5 -14t-29 -4h-178l-94 -143h252q34 0 48.5 -18.5t14.5 -74.5q0 -28 -3.5 -46t-11 -28t-19.5 -14t-29 -4h-286v-122h196q17 0 29 -4t19.5 -15.5t11 -31.5t3.5 -52t-3.5 -52t-11 -31t-19.5 -15t-29 -4h-642
q-17 0 -29 4t-19.5 15t-11 31t-3.5 52t3.5 52t11 31.5t19.5 15.5t29 4h196v122z" />
    <glyph glyph-name="summation" unicode="&#x2211;" 
d="M300 1797h628v-85h-628v85zM300 -753h628v-85h-628v85z" />
    <glyph glyph-name="integral" unicode="&#x222b;" 
d="M47 -327q-20 11 -29.5 25t-11.5 30.5t2 35t11 37.5q8 21 18.5 38.5t24.5 28.5t31 13.5t38 -7.5q61 -29 119.5 -45.5t109.5 -16.5q62 0 95.5 39.5t33.5 126.5v1159q0 188 91 284t266 96q87 0 174.5 -24t160.5 -64q20 -11 29.5 -25t11.5 -30.5t-2 -35t-11 -37.5
q-8 -21 -18.5 -38.5t-24.5 -28.5t-31 -13.5t-38 7.5q-62 29 -120 45.5t-109 16.5q-62 0 -95.5 -39.5t-33.5 -126.5v-1159q0 -188 -91 -284t-266 -96q-87 0 -175 24t-160 64z" />
    <glyph glyph-name="ae" unicode="&#xe6;" 
d="M509 390q-54 3 -99.5 1.5t-78.5 -12t-52 -33t-19 -61.5q0 -45 24 -70.5t74 -25.5q36 0 64 13t47.5 35.5t29.5 53.5t10 67v32zM968 565q-5 72 -32 113t-78 41q-61 0 -92 -38t-42 -116h244zM724 370q11 -81 44 -123t90 -42q28 0 54 3t52.5 9t53.5 15.5t58 22.5q19 8 34 6
t27 -12.5t21.5 -28.5t17.5 -41q19 -54 12 -84t-43 -46q-68 -29 -144.5 -50t-157.5 -21q-83 0 -142 32.5t-98 91.5q-48 -63 -115.5 -93.5t-152.5 -30.5q-68 0 -124 20t-95.5 58.5t-61.5 93.5t-22 125q0 87 31.5 146.5t85 96t123 53t145.5 16.5q23 0 46 -1.5t46 -3.5v6
q0 63 -35 97t-109 34q-47 0 -90 -15t-86 -37q-31 -16 -58.5 0.5t-52.5 70.5q-21 46 -17.5 78.5t35.5 51.5q66 38 142 58t155 20q85 0 144 -24.5t97 -69.5q40 45 95.5 69.5t128.5 24.5q102 0 167 -38.5t102.5 -107t51.5 -163t14 -205.5q0 -34 -14.5 -48t-48.5 -14h-406z" />
    <glyph glyph-name="oslash" unicode="&#xf8;" 
d="M614 -22q-80 0 -148.5 17t-125.5 49l-42 -43q-23 -25 -47 -22.5t-64 41.5q-20 19 -30.5 34.5t-13 28t3 24t17.5 23.5l35 36q-45 60 -68.5 135t-23.5 161q0 105 36 193.5t102 153t159.5 101t209.5 36.5q79 0 148 -17.5t126 -49.5l42 44q12 12 23 18t24 4.5t28.5 -12
t35.5 -29.5q20 -20 30.5 -35t13 -27.5t-3 -24t-17.5 -23.5l-36 -37q45 -60 69 -134.5t24 -160.5q0 -105 -36 -194t-102 -153.5t-159.5 -100.5t-209.5 -36zM853 462q0 54 -15 98l-325 -336q44 -19 101 -19q54 0 98.5 18t75.5 52t48 81t17 106zM614 719q-54 0 -98.5 -18
t-75.5 -52t-48 -81.5t-17 -105.5q0 -52 14 -99l325 337q-46 19 -100 19z" />
    <glyph glyph-name="questiondown" unicode="&#xbf;" 
d="M543 720q1 12 6 21t16.5 15t30.5 9t48 3t48 -3t30.5 -9t16.5 -15t6 -21l18 -208q2 -20 -4.5 -34t-25.5 -17l-110 -18q-74 -12 -108 -41.5t-34 -83.5q0 -60 39 -91.5t117 -31.5q41 0 79.5 8t73.5 22v102q0 17 5 29t17 19.5t33 11t53 3.5q64 0 93 -14.5t29 -48.5v-200
q0 -41 -41 -61q-83 -39 -169.5 -63.5t-171.5 -24.5q-101 0 -177.5 23t-128.5 66.5t-78.5 105.5t-26.5 140q0 69 19.5 120t57.5 89t95.5 65t134.5 47zM815 1038q0 -36 -13.5 -67t-37 -54.5t-54.5 -37t-66 -13.5q-36 0 -67 13.5t-54 37t-36.5 54.5t-13.5 67q0 35 13.5 66
t36.5 54.5t54 37t67 13.5t67 -13.5t54 -37t36.5 -54.5t13.5 -66z" />
    <glyph glyph-name="exclamdown" unicode="&#xa1;" 
d="M489 -22q-47 0 -41 50l73 577q5 38 29.5 58t63.5 20t63.5 -20t29.5 -58l73 -577q6 -50 -41 -50h-250zM803 1020q0 -39 -15 -74t-40.5 -60.5t-60 -40.5t-73.5 -15t-73.5 15t-60 40.5t-40.5 60.5t-15 74t15 73.5t40.5 60t60 40.5t73.5 15t73.5 -15t60 -40.5t40.5 -60
t15 -73.5z" />
    <glyph glyph-name="logicalnot" unicode="&#xac;" 
d="M183 630q-17 0 -29 4t-19.5 16t-11 33t-3.5 55t3.5 55t11 32.5t19.5 15.5t29 4h850q35 0 50 -15t15 -50v-432q0 -34 -30 -48.5t-102 -14.5q-36 0 -58.5 3.5t-36 11t-18.5 19.5t-5 29v282h-665z" />
    <glyph glyph-name="approxequal" unicode="&#x2248;" 
d="M239 690q-14 -8 -27 -6.5t-24 10t-19.5 22t-14.5 30.5q-6 16 -8.5 33t-2 33t5 28.5t12.5 20.5q68 62 131 85.5t123 23.5q53 0 104.5 -13t102 -28t101 -28t103.5 -13q40 0 80.5 9.5t83.5 34.5q14 8 27 6.5t24 -10t19.5 -22.5t14.5 -30t8.5 -33t2 -33t-5 -29t-12.5 -20
q-69 -62 -132 -85.5t-123 -23.5q-53 0 -104.5 13t-102 28t-101.5 28t-103 13q-40 0 -80 -10t-83 -34zM239 230q-14 -8 -27 -6.5t-24 10t-19.5 22t-14.5 30.5q-6 16 -8.5 33t-2 33t5 28.5t12.5 20.5q68 62 131 85.5t123 23.5q53 0 104.5 -13t102 -28t101 -28t103.5 -13
q40 0 80.5 9.5t83.5 34.5q14 8 27 6.5t24 -10t19.5 -22.5t14.5 -30t8.5 -33t2 -33t-5 -29t-12.5 -20q-69 -62 -132 -85.5t-123 -23.5q-53 0 -104.5 13t-102 28t-101.5 28t-103 13q-40 0 -80 -10t-83 -34z" />
    <glyph glyph-name="Delta" unicode="&#x2206;" 
d="M163 205l302 939q11 36 46.5 50.5t105.5 14.5t104.5 -15t45.5 -50l297 -939h81q17 0 29 -4t19.5 -15.5t11 -31.5t3.5 -52t-3.5 -52t-11 -31t-19.5 -15t-29 -4h-1062q-17 0 -29 4t-19.5 15t-11 31t-3.5 52t3.5 52t11 31.5t19.5 15.5t29 4h80zM422 205h384l-188 647h-4z
" />
    <glyph glyph-name="guillemotleft" unicode="&#xab;" 
d="M382 920q8 13 22.5 19t32.5 6.5t38.5 -4t39.5 -13.5q20 -9 37.5 -21.5t29 -27t14.5 -29.5t-6 -30l-164 -269l164 -270q9 -15 6 -30t-14.5 -29.5t-29 -27t-37.5 -21.5q-19 -9 -39.5 -13.5t-38.5 -4t-32.5 6.5t-22.5 19l-209 344q-16 25 0 51zM822 920q8 13 22.5 19
t32.5 6.5t38.5 -4t39.5 -13.5q20 -9 37.5 -21.5t29 -27t14.5 -29.5t-6 -30l-164 -269l164 -270q9 -15 6 -30t-14.5 -29.5t-29 -27t-37.5 -21.5q-19 -9 -39.5 -13.5t-38.5 -4t-32.5 6.5t-22.5 19l-209 344q-16 25 0 51z" />
    <glyph glyph-name="guillemotright" unicode="&#xbb;" 
d="M615 576q16 -26 0 -51l-209 -344q-8 -13 -22.5 -19t-32.5 -6.5t-38.5 4t-39.5 13.5q-20 9 -38 21.5t-29 27t-14 29.5t6 30l164 270l-164 269q-9 15 -6 30t14 29.5t29 27t38 21.5q19 9 39.5 13.5t38.5 4t32.5 -6.5t22.5 -19zM1055 576q16 -26 0 -51l-209 -344
q-8 -13 -22.5 -19t-32.5 -6.5t-38.5 4t-39.5 13.5q-20 9 -38 21.5t-29 27t-14 29.5t6 30l164 270l-164 269q-9 15 -6 30t14 29.5t29 27t38 21.5q19 9 39.5 13.5t38.5 4t32.5 -6.5t22.5 -19z" />
    <glyph glyph-name="OE" unicode="&#x152;" 
d="M1085 1187q35 0 50 -15t15 -50v-272q0 -34 -26 -48.5t-86 -14.5q-30 0 -49 3.5t-30 11t-15 19.5t-4 29v132h-170v-253h114q17 0 29 -5t19.5 -17t11 -33t3.5 -53t-3.5 -52.5t-11 -32.5t-19.5 -17t-29 -5h-114v-309h180v182q0 34 26 48.5t90 14.5q32 0 52 -3.5t31.5 -11
t16 -19.5t4.5 -29v-322q0 -35 -15 -50t-50 -15h-511q-124 0 -222.5 39.5t-167 115t-105 186t-36.5 253.5q0 142 36.5 252.5t105 186.5t167 115t222.5 39h491zM540 972q-51 -4 -94.5 -29t-75 -72t-49.5 -116t-18 -161t18 -161.5t49.5 -116.5t75 -72t94.5 -29v757z" />
    <glyph glyph-name="oe" unicode="&#x153;" 
d="M1076 255q19 8 34 6t27 -12.5t21.5 -28.5t17.5 -41q19 -54 12 -84t-43 -46q-68 -29 -144.5 -50t-157.5 -21q-76 0 -132.5 27.5t-94.5 78.5q-39 -51 -96.5 -78.5t-135.5 -27.5q-97 0 -165 36t-110.5 100.5t-62 153.5t-19.5 194t19.5 193.5t62 153t110.5 101t165 36.5
q81 0 139 -29t97 -81q42 52 100.5 81t137.5 29q102 0 167 -38.5t102.5 -107t51.5 -163t14 -205.5q0 -34 -14.5 -48t-48.5 -14h-406q11 -81 44 -123t90 -42q56 0 106 12t112 38zM384 719q-65 0 -92 -62t-27 -195t27 -195t92 -62t92 62t27 195t-27 195t-92 62zM968 565
q-5 72 -32 113t-78 41q-61 0 -92 -38t-42 -116h244z" />
    <glyph glyph-name="endash" unicode="&#x2013;" 
d="M995 695q17 0 29 -4.5t19.5 -16.5t11 -34t3.5 -58t-3.5 -58t-11 -34t-19.5 -16t-29 -4h-762q-17 0 -29 4t-19.5 16t-11 34t-3.5 58t3.5 58t11 34t19.5 16.5t29 4.5h762z" />
    <glyph glyph-name="divide" unicode="&#xf7;" 
d="M995 695q17 0 29 -4.5t19.5 -16.5t11 -34t3.5 -58t-3.5 -58t-11 -34t-19.5 -16t-29 -4h-762q-17 0 -29 4t-19.5 16t-11 34t-3.5 58t3.5 58t11 34t19.5 16.5t29 4.5h762zM469 941q0 30 11.5 56.5t31 46t46 31t56.5 11.5t56.5 -11.5t46 -31t31 -46t11.5 -56.5t-11.5 -56.5
t-31 -46t-46 -31t-56.5 -11.5t-56.5 11.5t-46 31t-31 46t-11.5 56.5zM469 224q0 30 11.5 56.5t31 46t46 31t56.5 11.5t56.5 -11.5t46 -31t31 -46t11.5 -56.5t-11.5 -56.5t-31 -46t-46 -31t-56.5 -11.5t-56.5 11.5t-46 31t-31 46t-11.5 56.5z" />
    <glyph glyph-name="fraction" unicode="&#x2044;" 
d="M185 190q-17 -9 -37 3.5t-36 33.5q-9 12 -15 26t-8 26.5t1.5 23t14.5 16.5l937 521q17 9 38.5 -4t37.5 -36q17 -24 21 -50.5t-17 -38.5z" />
    <glyph glyph-name="guilsinglleft" unicode="&#x2039;" 
d="M602 920q8 13 22.5 19t32.5 6.5t38.5 -4t39.5 -13.5q20 -9 37.5 -21.5t29 -27t14.5 -29.5t-6 -30l-164 -269l164 -270q9 -15 6 -30t-14.5 -29.5t-29 -27t-37.5 -21.5q-19 -9 -39.5 -13.5t-38.5 -4t-32.5 6.5t-22.5 19l-209 344q-16 25 0 51z" />
    <glyph glyph-name="guilsinglright" unicode="&#x203a;" 
d="M835 576q16 -26 0 -51l-209 -344q-8 -13 -22.5 -19t-32.5 -6.5t-38.5 4t-39.5 13.5q-20 9 -38 21.5t-29 27t-14 29.5t6 30l164 270l-164 269q-9 15 -6 30t14 29.5t29 27t38 21.5q19 9 39.5 13.5t38.5 4t32.5 -6.5t22.5 -19z" />
    <glyph glyph-name="fi" unicode="&#xfb01;" 
d="M213 719h-113q-34 0 -48.5 21t-14.5 81t14.5 81.5t48.5 21.5h113v33q0 90 24.5 157.5t70.5 112.5t112.5 67.5t149.5 22.5q71 0 146.5 -13t157.5 -44q24 -9 37 -25t13 -45q0 -23 -5.5 -48.5t-16 -46.5t-25 -35t-32.5 -14q-14 0 -31 5q-64 20 -117.5 29.5t-104.5 9.5
q-62 0 -95.5 -33.5t-33.5 -112.5v-20h527q34 0 48.5 -14.5t14.5 -48.5v-656h101q17 0 29 -4t19.5 -15.5t11 -31.5t3.5 -52t-3.5 -52t-11 -31t-19.5 -15t-29 -4h-408q-17 0 -29 4t-19.5 15t-11 31t-3.5 52t3.5 52t11 31.5t19.5 15.5t29 4h57v514h-340v-514h57q17 0 29 -4
t19.5 -15.5t11 -31.5t3.5 -52t-3.5 -52t-11 -31t-19.5 -15t-29 -4h-420q-17 0 -29 4t-19.5 15t-11 31t-3.5 52t3.5 52t11 31.5t19.5 15.5t29 4h113v514z" />
    <glyph glyph-name="fl" unicode="&#xfb02;" 
d="M213 649h-113q-17 0 -29 5t-19.5 17t-11 32.5t-3.5 52.5t3.5 53t11 33t19.5 17t29 5h113v103q0 82 24.5 146t70.5 108.5t112.5 67.5t149.5 23h420q34 0 48.5 -14.5t14.5 -48.5v-1044h101q17 0 29 -4t19.5 -15.5t11 -31.5t3.5 -52t-3.5 -52t-11 -31t-19.5 -15t-29 -4h-408
q-17 0 -29 4t-19.5 15t-11 31t-3.5 52t3.5 52t11 31.5t19.5 15.5t29 4h57v892h-211q-62 0 -95.5 -32t-33.5 -104v-97h161q17 0 29 -5t19.5 -17t11 -33t3.5 -53t-3.5 -52.5t-11 -32.5t-19.5 -17t-29 -5h-161v-444h57q17 0 29 -4t19.5 -15.5t11 -31.5t3.5 -52t-3.5 -52
t-11 -31t-19.5 -15t-29 -4h-420q-17 0 -29 4t-19.5 15t-11 31t-3.5 52t3.5 52t11 31.5t19.5 15.5t29 4h113v444z" />
    <glyph glyph-name="daggerdbl" unicode="&#x2021;" 
d="M313 373q-17 0 -29 4t-19.5 16t-11 34t-3.5 58t3.5 58t11 34t19.5 16.5t29 4.5h188v181h-188q-17 0 -29 4t-19.5 16t-11 34t-3.5 58t3.5 58t11 34t19.5 16.5t29 4.5h188v142q0 17 4.5 29t16.5 19.5t34 11t58 3.5t58 -3.5t34 -11t16 -19.5t4 -29v-142h189q17 0 29 -4.5
t19.5 -16.5t11 -34t3.5 -58t-3.5 -58t-11 -34t-19.5 -16t-29 -4h-189v-181h189q17 0 29 -4.5t19.5 -16.5t11 -34t3.5 -58t-3.5 -58t-11 -34t-19.5 -16t-29 -4h-189v-142q0 -17 -4 -29t-16 -19.5t-34 -11t-58 -3.5t-58 3.5t-34 11t-16.5 19.5t-4.5 29v142h-188z" />
    <glyph glyph-name="quotesinglbase" unicode="&#x201a;" 
d="M600 -233q-17 -33 -40.5 -47t-65.5 -14q-50 0 -69 19.5t-11 66.5l84 472q8 40 52 40h259q25 0 33 -18.5t-5 -44.5z" />
    <glyph glyph-name="quotedblbase" unicode="&#x201e;" 
d="M360 -233q-17 -33 -40.5 -47t-65.5 -14q-50 0 -69 19.5t-11 66.5l84 472q8 40 52 40h259q25 0 33 -18.5t-5 -44.5zM840 -233q-17 -33 -40.5 -47t-65.5 -14q-50 0 -69 19.5t-11 66.5l84 472q8 40 52 40h259q25 0 33 -18.5t-5 -44.5z" />
    <glyph glyph-name="perthousand" unicode="&#x2030;" 
d="M630 252q0 57 21.5 106.5t59 87t87 59t106.5 21.5q55 0 101 -21t79 -56q34 35 79.5 56t101.5 21q57 0 106.5 -21.5t87 -59t59 -87t21.5 -106.5t-21.5 -106.5t-59 -87t-87 -59t-106.5 -21.5q-56 0 -101.5 20.5t-79.5 56.5q-33 -36 -79 -56.5t-101 -20.5q-57 0 -106.5 21.5
t-87 59t-59 87t-21.5 106.5zM50 935q0 57 21.5 106.5t59 87t87 59t106.5 21.5t106.5 -21.5t87 -59t59 -87t21.5 -106.5t-21.5 -106.5t-59 -87t-87 -59t-106.5 -21.5t-106.5 21.5t-87 59t-59 87t-21.5 106.5zM237 935q0 -36 25.5 -61.5t61.5 -25.5t61.5 25.5t25.5 61.5
t-25.5 61.5t-61.5 25.5t-61.5 -25.5t-25.5 -61.5zM1178 252q0 -36 25.5 -61.5t61.5 -25.5t61.5 25.5t25.5 61.5t-25.5 61.5t-61.5 25.5t-61.5 -25.5t-25.5 -61.5zM817 252q0 -36 25.5 -61.5t61.5 -25.5t61.5 25.5t25.5 61.5t-25.5 61.5t-61.5 25.5t-61.5 -25.5t-25.5 -61.5z
M985 1083q12 12 23.5 17t24 2t28.5 -14.5t37 -33.5t31.5 -38t12.5 -29t-4 -24t-18 -23l-877 -834q-12 -12 -23.5 -17t-24.5 -2.5t-28.5 14t-36.5 33.5q-41 44 -44 68t22 47z" />
    <glyph glyph-name="dotlessi" unicode="&#x131;" 
d="M503 719h-193q-17 0 -29 4t-19.5 15t-11 31t-3.5 52t3.5 52t11 31.5t19.5 15.5t29 4h380q34 0 48.5 -14.5t14.5 -48.5v-656h281q17 0 29 -4t19.5 -15.5t11 -31.5t3.5 -52t-3.5 -52t-11 -31t-19.5 -15t-29 -4h-804q-17 0 -29 4t-19.5 15t-11 31t-3.5 52t3.5 52t11 31.5
t19.5 15.5t29 4h273v514z" />
    <glyph glyph-name="circumflex" unicode="&#x2c6;" 
d="M335 1029q-19 -9 -36 -1.5t-31 25.5q-14 19 -13.5 38.5t17.5 35.5l287 261q11 10 25 14t30 4t30 -4t25 -14l287 -261q17 -16 17.5 -35.5t-13.5 -38.5q-14 -18 -31 -25.5t-36 1.5l-279 134z" />
    <glyph glyph-name="tilde" unicode="&#x2dc;" 
d="M767 1250q27 0 58.5 7t63.5 24q23 13 42.5 1.5t35.5 -38.5q14 -27 15 -52t-19 -41q-59 -51 -108.5 -72t-94.5 -21q-42 0 -80 11.5t-74 25.5t-71.5 25.5t-72.5 11.5q-29 0 -60.5 -7t-63.5 -24q-22 -12 -41.5 -1t-34.5 39q-14 26 -15.5 51t17.5 41q60 52 110 72.5t95 20.5
q41 0 79 -11.5t74 -25.5t72 -25.5t73 -11.5z" />
    <glyph glyph-name="macron" unicode="&#xaf;" 
d="M895 1275q17 0 29 -4t19.5 -15.5t11 -31.5t3.5 -52t-3.5 -52t-11 -31t-19.5 -15t-29 -4h-562q-17 0 -29 4t-19.5 15t-11 31t-3.5 52t3.5 52t11 31.5t19.5 15.5t29 4h562z" />
    <glyph glyph-name="breve" unicode="&#x2d8;" 
d="M614 1041q-81 0 -146 18t-113 51.5t-80 81t-48 106.5q-5 18 3.5 33.5t24 27.5t36 19t38.5 7q31 0 44 -20q17 -28 39 -50.5t51 -38t66 -23.5t85 -8t85 8t66 23.5t51 38t39 50.5q13 20 44 20q18 0 38 -7t36 -19t24.5 -27.5t3.5 -33.5q-16 -59 -48 -106.5t-80 -81
t-113 -51.5t-146 -18z" />
    <glyph glyph-name="dotaccent" unicode="&#x2d9;" 
d="M434 1226q0 37 14 70t38.5 57.5t57.5 38.5t70 14t70 -14t57.5 -38.5t38.5 -57.5t14 -70t-14 -70t-38.5 -57.5t-57.5 -38.5t-70 -14t-70 14t-57.5 38.5t-38.5 57.5t-14 70z" />
    <glyph glyph-name="ring" unicode="&#x2da;" 
d="M355 1295q0 54 20.5 102t56 83.5t83.5 56t102 20.5t102 -20.5t83.5 -56t56 -83.5t20.5 -102t-20.5 -102t-56 -83.5t-83.5 -56t-102 -20.5t-102 20.5t-83.5 56t-56 83.5t-20.5 102zM514 1295q0 -21 8 -40t22 -33t33 -22t40 -8t40 8t33 22t22 33t8 40t-8 40t-22 33t-33 22
t-40 8t-40 -8t-33 -22t-22 -33t-8 -40z" />
    <glyph glyph-name="cedilla" unicode="&#xb8;" 
d="M684 28v-121q58 2 101 -11t70.5 -38t41 -60.5t13.5 -78.5q0 -91 -70.5 -141t-208.5 -50q-75 0 -140.5 11t-118.5 31q-19 8 -20.5 29t9.5 53q13 35 28.5 50.5t35.5 9.5q39 -15 76 -24.5t87 -9.5q86 0 86 53q0 21 -11 32.5t-28 17t-39.5 4.5t-44.5 -6q-17 -4 -29.5 5.5
t-12.5 35.5v208h175z" />
    <glyph glyph-name="hungarumlaut" unicode="&#x2dd;" 
d="M435 1066q-18 -13 -50 -13q-35 0 -58.5 17.5t-23.5 40.5q0 17 12 29l198 210q16 17 41 25t54 8q32 0 57 -8.5t42 -21t26 -26.5t9 -26q0 -21 -19 -34zM835 1066q-18 -13 -50 -13q-35 0 -58.5 17.5t-23.5 40.5q0 17 12 29l198 210q16 17 41 25t54 8q32 0 57 -8.5t42 -21
t26 -26.5t9 -26q0 -21 -19 -34z" />
    <glyph glyph-name="ogonek" unicode="&#x2db;" 
d="M785 28q-89 -72 -141 -137t-52 -122q0 -35 22.5 -51t65.5 -16q29 0 58.5 4t61.5 9q20 3 32.5 -15t15.5 -53q6 -71 -37 -85q-51 -16 -106 -25t-110 -9q-118 0 -182 51.5t-64 151.5q0 49 18 90.5t49 77.5t72.5 67.5t89.5 61.5h207z" />
    <glyph glyph-name="caron" unicode="&#x2c7;" 
d="M893 1384q19 9 36 1.5t31 -25.5q14 -19 13.5 -38.5t-17.5 -35.5l-287 -261q-11 -10 -25 -14t-30 -4t-30 4t-25 14l-287 261q-17 16 -17.5 35.5t13.5 38.5q14 18 31 25.5t36 -1.5l279 -134z" />
    <glyph glyph-name="Lslash" unicode="&#x141;" 
d="M269 388l-130 -77q-14 -9 -26.5 -11.5t-24.5 3t-25.5 21t-29.5 42.5t-23.5 46.5t-6.5 33t9 23t23 18.5l234 139v356h-146q-17 0 -29 4t-19.5 15t-11 31t-3.5 52t3.5 52t11 31.5t19.5 15.5t29 4h614q17 0 29 -4t19.5 -15.5t11 -31.5t3.5 -52t-3.5 -52t-11 -31t-19.5 -15
t-29 -4h-218v-208l171 102q15 9 27 11.5t24.5 -3.5t25.5 -21.5t30 -42.5q16 -27 23 -46t6.5 -32.5t-9 -23t-22.5 -18.5l-276 -164v-321h351v312q0 34 30 48.5t102 14.5q36 0 58.5 -3.5t36 -11t18.5 -19.5t5 -29v-462q0 -35 -15 -50t-50 -15h-932q-17 0 -29 4t-19.5 15
t-11 31t-3.5 52t3.5 52t11 31.5t19.5 15.5t29 4h146v183z" />
    <glyph glyph-name="lslash" unicode="&#x142;" 
d="M493 493l-154 -91q-14 -9 -26.5 -11.5t-24.5 3t-25.5 21t-29.5 42.5t-23.5 46.5t-6.5 33t9 23t23 18.5l258 153v376h-233q-17 0 -29 4t-19.5 15t-11 31t-3.5 52t3.5 52t11 31.5t19.5 15.5t29 4h420q34 0 48.5 -14.5t14.5 -48.5v-370l147 88q15 9 27 11.5t24.5 -3.5
t25.5 -21.5t30 -42.5q16 -27 23 -46t6.5 -32.5t-9 -23t-22.5 -18.5l-252 -150v-436h281q17 0 29 -4t19.5 -15.5t11 -31.5t3.5 -52t-3.5 -52t-11 -31t-19.5 -15t-29 -4h-804q-17 0 -29 4t-19.5 15t-11 31t-3.5 52t3.5 52t11 31.5t19.5 15.5t29 4h273v288z" />
    <glyph glyph-name="Scaron" unicode="&#x160;" 
d="M389 41q0 -34 -24 -48.5t-88 -14.5t-91 14.5t-27 48.5v334q0 34 21.5 48.5t70.5 14.5q35 0 55.5 -9t31.5 -31q54 -102 128 -154.5t176 -52.5q90 0 135 36.5t45 99.5q0 42 -21.5 69t-58.5 45q-40 19 -93 31.5t-111 24.5t-117 27.5t-110 42.5q-35 18 -64.5 43t-51.5 58.5
t-34 77.5t-12 100q0 80 28 146.5t79.5 114.5t123 75t158.5 27q81 0 148.5 -26t117.5 -74v37q0 34 24 48.5t88 14.5t91 -14.5t27 -48.5v-274q0 -34 -21.5 -48.5t-70.5 -14.5q-34 0 -52.5 8t-29.5 24q-46 72 -119 113.5t-173 41.5q-75 0 -115.5 -38t-40.5 -95q0 -30 19 -48.5
t51 -31.5q39 -15 93.5 -24.5t115 -21.5t122 -30t114.5 -50q34 -21 63.5 -49.5t51 -66.5t33.5 -87t12 -110q0 -81 -25.5 -148.5t-77.5 -115.5t-129.5 -75t-182.5 -27q-167 0 -283 101v-38zM888 1654q19 9 36 1.5t31 -25.5q14 -19 13.5 -38.5t-17.5 -35.5l-287 -261
q-11 -10 -25 -14t-30 -4t-30 4t-25 14l-287 261q-17 16 -17.5 35.5t13.5 38.5q14 18 31 25.5t36 -1.5l279 -134z" />
    <glyph glyph-name="scaron" unicode="&#x161;" 
d="M414 41q0 -34 -29 -48.5t-93 -14.5t-91 14.5t-27 48.5v223q0 34 23.5 48.5t72.5 14.5q33 0 52.5 -7t30.5 -21q54 -67 133 -94t166 -27q84 0 122 21.5t38 61.5q0 26 -24 41t-65 24t-94 15t-110 15t-113 23.5t-104 40.5q-60 33 -99 90t-39 150q0 67 27.5 120t76 90
t115 56.5t143.5 19.5q81 0 146.5 -19t121.5 -54v10q0 34 24 48.5t88 14.5t91 -14.5t27 -48.5v-211q0 -34 -21.5 -48.5t-70.5 -14.5q-53 0 -73 21q-62 65 -139 90.5t-172 25.5q-61 0 -93.5 -21.5t-32.5 -55.5q0 -23 20 -37.5t54 -22.5q37 -9 86 -14t103.5 -11.5t110 -17.5
t104.5 -31q36 -15 67.5 -36.5t54 -51.5t35.5 -69.5t13 -90.5q0 -71 -26 -128t-77 -97.5t-125 -62t-170 -21.5q-78 0 -141 19.5t-117 51.5v-8zM886 1394q19 9 36 1.5t31 -25.5q14 -19 13.5 -38.5t-17.5 -35.5l-287 -261q-11 -10 -25 -14t-30 -4t-30 4t-25 14l-287 261
q-17 16 -17.5 35.5t13.5 38.5q14 18 31 25.5t36 -1.5l279 -134z" />
    <glyph glyph-name="Zcaron" unicode="&#x17d;" 
d="M850 215v222q0 34 29 48.5t93 14.5q32 0 53 -3.5t33 -11t17 -19.5t5 -29v-372q0 -35 -15 -50t-50 -15h-814q-17 0 -29 4t-19.5 15t-11 31t-3.5 52q0 66 20 93l574 777h-334v-202q0 -34 -29 -48.5t-93 -14.5q-32 0 -53 3.5t-33 11t-17 19.5t-5 29v352q0 35 15 50t50 15
h784q17 0 29 -4t19.5 -15.5t11 -31.5t3.5 -52t-6 -54.5t-17 -37.5l-574 -777h367zM901 1644q19 9 36 1.5t31 -25.5q14 -19 13.5 -38.5t-17.5 -35.5l-287 -261q-11 -10 -25 -14t-30 -4t-30 4t-25 14l-287 261q-17 16 -17.5 35.5t13.5 38.5q14 18 31 25.5t36 -1.5l279 -134z
" />
    <glyph glyph-name="zcaron" unicode="&#x17e;" 
d="M1017 924q17 0 29 -4t19.5 -15t11 -31t3.5 -52q0 -27 -7 -45t-25 -37l-523 -535h325v124q0 17 5.5 29t19.5 19.5t37.5 11t59.5 3.5t57 -3.5t32.5 -11t15 -19.5t3.5 -29v-264q0 -35 -15 -50t-50 -15h-814q-17 0 -29 4t-19.5 15t-11 31t-3.5 52q0 27 7 45t25 37l523 535
h-305v-114q0 -17 -5.5 -29t-19.5 -19.5t-37.5 -11t-59.5 -3.5t-57 3.5t-32.5 11t-15 19.5t-3.5 29v254q0 35 15 50t50 15h794zM900 1394q19 9 36 1.5t31 -25.5q14 -19 13.5 -38.5t-17.5 -35.5l-287 -261q-11 -10 -25 -14t-30 -4t-30 4t-25 14l-287 261q-17 16 -17.5 35.5
t13.5 38.5q14 18 31 25.5t36 -1.5l279 -134z" />
    <glyph glyph-name="brokenbar" unicode="&#xa6;" 
d="M489 271q0 34 34 48.5t98 14.5t91 -14.5t27 -48.5v-623q0 -34 -34 -48.5t-98 -14.5t-91 14.5t-27 48.5v623zM489 1271q0 34 34 48.5t98 14.5t91 -14.5t27 -48.5v-623q0 -34 -34 -48.5t-98 -14.5t-91 14.5t-27 48.5v623z" />
    <glyph glyph-name="Eth" unicode="&#xd0;" 
d="M220 494h-117q-17 0 -29 4t-19.5 16t-11 34t-3.5 58t3.5 58t11 34t19.5 16.5t29 4.5h117v263h-97q-17 0 -29 4t-19.5 15t-11 31t-3.5 52t3.5 52t11 31.5t19.5 15.5t29 4h471q131 0 235 -39t176.5 -115t111 -186.5t38.5 -252.5q0 -143 -38.5 -253.5t-111 -186t-176.5 -115
t-235 -39.5h-471q-17 0 -29 4t-19.5 15t-11 31t-3.5 52t3.5 52t11 31.5t19.5 15.5t29 4h97v289zM574 215q156 0 234.5 96t78.5 283t-78.5 282.5t-234.5 95.5h-104v-253h135q17 0 29 -4.5t19.5 -16.5t11 -34t3.5 -58t-3.5 -58t-11 -34t-19.5 -16t-29 -4h-135v-279h104z" />
    <glyph glyph-name="eth" unicode="&#xf0;" 
d="M445 1101q-17 10 -33.5 19t-33.5 17q-32 16 -31.5 48t38.5 92q18 28 34 44.5t31 23t29.5 5t30.5 -9.5q97 -50 180 -108l151 80q30 16 51.5 6t47.5 -59q13 -25 18.5 -42.5t3.5 -30t-10.5 -21.5t-23.5 -17l-85 -45q131 -134 197 -294.5t66 -346.5q0 -113 -35 -202.5
t-99 -152t-155 -96t-203 -33.5t-203 33t-155 91.5t-99 140t-35 179.5q0 97 33 179t93.5 140.5t145.5 91.5t190 33q54 0 101 -12.5t89 -37.5q-33 49 -71.5 90.5t-82.5 77.5l-153 -81q-15 -8 -27.5 -10t-24 3.5t-23 19.5t-24.5 39t-18.5 42.5t-3.5 30.5t10.5 22t23.5 17z
M614 639q-51 0 -92 -15t-70.5 -42.5t-45.5 -68t-16 -91.5t16 -91.5t45.5 -68t70.5 -42.5t92 -15t92 15t70.5 42.5t45.5 68t16 91.5t-16 91.5t-45.5 68t-70.5 42.5t-92 15z" />
    <glyph glyph-name="Yacute" unicode="&#xdd;" 
d="M822 1662q28 16 59 -3.5t61 -87.5q30 -69 26.5 -102.5t-29.5 -40.5l-480 -125q-24 -7 -42 4.5t-26 34.5q-8 22 -2.5 41.5t25.5 31.5zM489 460l-340 522h-46q-17 0 -29 4t-19.5 15t-11 31t-3.5 52t3.5 52t11 31.5t19.5 15.5t29 4h394q17 0 29 -4t19.5 -15.5t11 -31.5
t3.5 -52t-3.5 -52t-11 -31t-19.5 -15t-29 -4h-67l186 -292l188 292h-53q-17 0 -29 4t-19.5 15t-11 31t-3.5 52t3.5 52t11 31.5t19.5 15.5t29 4h374q17 0 29 -4t19.5 -15.5t11 -31.5t3.5 -52t-3.5 -52t-11 -31t-19.5 -15t-29 -4h-44l-342 -523v-254h196q17 0 29 -4
t19.5 -15.5t11 -31.5t3.5 -52t-3.5 -52t-11 -31t-19.5 -15t-29 -4h-642q-17 0 -29 4t-19.5 15t-11 31t-3.5 52t3.5 52t11 31.5t19.5 15.5t29 4h196v255z" />
    <glyph glyph-name="Thorn" unicode="&#xde;" 
d="M330 982h-147q-17 0 -29 4t-19.5 15t-11 31t-3.5 52t3.5 52t11 31.5t19.5 15.5t29 4h584q17 0 29 -4t19.5 -15.5t11 -31.5t3.5 -52t-3.5 -52t-11 -31t-19.5 -15t-29 -4h-187v-86h140q94 0 163 -21t114.5 -60t67.5 -95t22 -126t-22 -126t-67.5 -95.5t-114.5 -60.5
t-163 -21h-140v-86h187q17 0 29 -4t19.5 -15.5t11 -31.5t3.5 -52t-3.5 -52t-11 -31t-19.5 -15t-29 -4h-584q-17 0 -29 4t-19.5 15t-11 31t-3.5 52t3.5 52t11 31.5t19.5 15.5t29 4h147v777zM689 496q73 0 106.5 23t33.5 75t-33.5 74.5t-106.5 22.5h-109v-195h109z" />
    <glyph glyph-name="thorn" unicode="&#xfe;" 
d="M187 1107h-87q-17 0 -29 4t-19.5 15t-11 31t-3.5 52t3.5 52t11 31.5t19.5 15.5t29 4h274q34 0 48.5 -14.5t14.5 -48.5v-419q51 55 117 85.5t146 30.5q99 0 178.5 -35.5t136 -98t86.5 -148.5t30 -187t-30 -187t-86.5 -148.5t-136 -98t-178.5 -35.5q-80 0 -146 30t-117 85
v-311h247q17 0 29 -4t19.5 -15.5t11 -31.5t3.5 -52t-3.5 -52t-11 -31t-19.5 -15t-29 -4h-584q-17 0 -29 4t-19.5 15t-11 31t-3.5 52t3.5 52t11 31.5t19.5 15.5t29 4h87v1295zM430 477q0 -61 18.5 -106.5t50 -75.5t73 -45t88.5 -15q92 0 147.5 62t55.5 180t-55.5 180
t-147.5 62q-47 0 -88.5 -15t-73 -45t-50 -75.5t-18.5 -106.5z" />
    <glyph glyph-name="onesuperior" unicode="&#xb9;" 
d="M542 1108l-157 -52q-27 -9 -48.5 2t-37.5 59q-14 42 -7.5 67t38.5 36l323 109q16 6 31 6t27 -6.5t19 -19.5t7 -34v-622h181q28 0 40 -20t12 -65t-12 -65t-40 -20h-564q-29 0 -40 20t-11 65t11.5 65t39.5 20h188v455z" />
    <glyph glyph-name="twosuperior" unicode="&#xb2;" 
d="M493 1047q0 -24 -17 -36t-69 -12q-53 0 -76 12t-23 36v173q0 28 31 45q66 35 146.5 52t155.5 17q74 0 130.5 -19.5t95 -55t58 -84.5t19.5 -108q0 -41 -13.5 -77t-37.5 -69t-58.5 -64t-76.5 -61l-198 -143h238v46q0 12 3.5 21t13 15t26.5 9t43 3q53 0 76 -12t23 -36v-170
q0 -25 -10.5 -35.5t-35.5 -10.5h-605q-24 0 -38.5 23.5t-14.5 76.5q0 30 7.5 48t20.5 28l327 253q54 40 81 73.5t27 72.5q0 48 -30.5 75.5t-86.5 27.5q-33 0 -68 -6.5t-64 -19.5v-88z" />
    <glyph glyph-name="threesuperior" unicode="&#xb3;" 
d="M471 1077q0 -24 -17 -36t-69 -12q-53 0 -76 12t-23 36v153q0 32 31 45q64 28 143.5 43.5t161.5 15.5q156 0 238 -66t82 -184q0 -65 -32.5 -107.5t-89.5 -69.5q63 -23 98.5 -71t35.5 -118q0 -127 -93 -190t-258 -63q-37 0 -76.5 4t-77 11t-72.5 17t-63 22
q-26 11 -32.5 36.5t8.5 67.5q15 41 34 58t38 9q51 -21 113 -36.5t119 -15.5q80 0 114 23t34 63q0 87 -107 87h-93q-23 0 -35.5 19t-12.5 67t12.5 67t35.5 19h74q124 0 124 91q0 41 -33.5 64t-99.5 23q-32 0 -66.5 -6.5t-69.5 -19.5v-58z" />
    <glyph glyph-name="onehalf" unicode="&#xbd;" 
d="M232 1158.32l-131.021 -43.3643q-22.5322 -7.50488 -40.4746 1.66797q-17.9424 9.17383 -31.2949 49.2021q-11.6836 35.0244 -6.25977 55.8721q5.4248 20.8486 32.1299 30.0215l269.555 90.8975q13.3525 5.00391 25.8701 5.00391q12.5186 0 22.5322 -5.4209
q10.0146 -5.41992 15.8564 -16.2607q5.8418 -10.8418 5.8418 -28.3535v-518.7h151.051q23.3672 0 33.3809 -16.6787q10.0146 -16.6787 10.0146 -54.2051t-10.0146 -54.2051q-10.0137 -16.6787 -33.3809 -16.6787h-470.677q-24.2021 0 -33.3818 16.6787t-9.17969 54.2051
t9.59668 54.2051q9.59766 16.6787 32.9648 16.6787h156.892v379.435zM185 240q-17 -9 -37 3.5t-36 33.5q-9 12 -15 26t-8 26.5t1.5 23t14.5 16.5l937 521q17 9 38.5 -4t37.5 -36q17 -24 21 -50.5t-17 -38.5zM767.385 356.945q0 -20.0156 -14.1953 -30.0234
t-57.6162 -10.0078q-44.2559 0 -63.4619 10.0078q-19.2051 10.0078 -19.2051 30.0234v144.279q0 23.3516 25.8857 37.5293q55.1113 29.1895 122.33 43.3672q67.2197 14.1777 129.847 14.1777q61.791 0 108.97 -16.2627t79.3271 -45.8691t48.4316 -70.4717t16.2832 -90.0703
q0 -34.1934 -11.2734 -64.2168q-11.2725 -30.0234 -31.3135 -57.5449q-20.04 -27.5215 -48.8486 -53.375q-28.8076 -25.8535 -63.8789 -50.873l-165.334 -119.26h198.734v38.3633q0 10.0078 2.92285 17.5137t10.8555 12.5098t22.1279 7.50586t35.9062 2.50195
q44.2559 0 63.4619 -10.0078q19.2051 -10.0078 19.2051 -30.0234v-141.777q0 -20.8496 -8.76758 -29.6064t-29.6436 -8.75684h-505.188q-20.04 0 -32.1484 19.5986q-12.1074 19.5986 -12.1074 63.7998q0 25.0195 6.2627 40.0312t17.1182 23.3516l273.052 210.998
q45.0918 33.3594 67.6367 61.2979q22.5459 27.9385 22.5459 60.4639q0 40.0312 -25.4678 62.9658q-25.4688 22.9346 -72.2295 22.9346q-27.5557 0 -56.7822 -5.4209q-29.2256 -5.4209 -53.4414 -16.2627v-73.3906z" />
    <glyph glyph-name="onequarter" unicode="&#xbc;" 
d="M232 1158.32l-131.021 -43.3643q-22.5322 -7.50488 -40.4746 1.66797q-17.9424 9.17383 -31.2949 49.2021q-11.6836 35.0244 -6.25977 55.8721q5.4248 20.8486 32.1299 30.0215l269.555 90.8975q13.3525 5.00391 25.8701 5.00391q12.5186 0 22.5322 -5.4209
q10.0146 -5.41992 15.8564 -16.2607q5.8418 -10.8418 5.8418 -28.3535v-518.7h151.051q23.3672 0 33.3809 -16.6787q10.0146 -16.6787 10.0146 -54.2051t-10.0146 -54.2051q-10.0137 -16.6787 -33.3809 -16.6787h-470.677q-24.2021 0 -33.3818 16.6787t-9.17969 54.2051
t9.59668 54.2051q9.59766 16.6787 32.9648 16.6787h156.892v379.435zM185 190q-17 -9 -37 3.5t-36 33.5q-9 12 -15 26t-8 26.5t1.5 23t14.5 16.5l937 521q17 9 38.5 -4t37.5 -36q17 -24 21 -50.5t-17 -38.5zM910.121 377.456l-157.619 -202.27h152.534zM1070.28 33.0059
v-120.176q0 -19.4658 -14.8291 -30.0449q-14.8301 -10.5781 -58.8955 -10.5781q-49.9971 0 -70.7588 10.5781q-20.7617 10.5791 -20.7617 30.0449v120.176h-294.052q-10.1689 0 -19.9141 9.30957q-9.74609 9.30957 -17.3721 23.6973q-7.62695 14.3867 -12.2881 32.583
q-4.66016 18.1953 -4.66016 35.9678q0 14.3877 3.38965 24.5439q3.38965 10.1553 11.0166 20.3105l314.39 383.381q14.4053 17.7725 35.5908 27.082q21.1855 9.30859 57.624 9.30859q46.6084 0 69.0645 -12.6943t22.4561 -34.6982v-376.61h76.2676
q22.8799 0 33.0488 -16.9258q10.1689 -16.9268 10.1689 -54.1641q0 -38.084 -10.1689 -54.5869q-10.1689 -16.5039 -33.0488 -16.5039h-76.2676z" />
    <glyph glyph-name="threequarters" unicode="&#xbe;" 
d="M189.55 1132.55q0 -20.0156 -14.1953 -30.0234t-57.6162 -10.0078q-44.2559 0 -63.4619 10.0078q-19.2051 10.0078 -19.2051 30.0234v127.6q0 26.6875 25.8857 37.5293q53.4414 23.3516 119.825 36.2783t134.856 12.9268q130.263 0 198.734 -55.043
q68.4727 -55.043 68.4727 -153.453q0 -54.209 -27.1387 -89.6533q-27.1377 -35.4443 -74.7344 -57.9619q52.6064 -19.1816 82.25 -59.2129q29.6426 -40.0312 29.6426 -98.4102q0 -105.916 -77.6562 -158.457q-77.6572 -52.541 -215.437 -52.541q-30.8955 0 -63.8789 3.33594
t-64.2969 9.17383t-60.5391 14.1777t-52.6064 18.3477q-21.71 9.17383 -27.1377 30.4404t7.09766 56.2939q12.5254 34.1934 28.3906 48.3711t31.7305 7.50586q42.5869 -17.5137 94.3574 -30.4404q51.7715 -12.9268 99.3682 -12.9268q66.8018 0 95.1924 19.1816
t28.3906 52.541q0 72.5566 -89.3477 72.5566h-77.6562q-19.2061 0 -29.6436 15.8457t-10.4375 55.877t10.4375 55.877t29.6436 15.8457h61.791q103.543 0 103.543 75.8926q0 34.1934 -27.9736 53.375q-27.9727 19.1816 -83.084 19.1816q-26.7207 0 -55.5293 -5.4209
t-58.0342 -16.2627v-48.3711zM185 200q-17 -9 -37 3.5t-36 33.5q-9 12 -15 26t-8 26.5t1.5 23t14.5 16.5l937 521q17 9 38.5 -4t37.5 -36q17 -24 21 -50.5t-17 -38.5zM910.121 377.456l-157.619 -202.27h152.534zM1070.28 33.0059v-120.176q0 -19.4658 -14.8291 -30.0449
q-14.8301 -10.5781 -58.8955 -10.5781q-49.9971 0 -70.7588 10.5781q-20.7617 10.5791 -20.7617 30.0449v120.176h-294.052q-10.1689 0 -19.9141 9.30957q-9.74609 9.30957 -17.3721 23.6973q-7.62695 14.3867 -12.2881 32.583q-4.66016 18.1953 -4.66016 35.9678
q0 14.3877 3.38965 24.5439q3.38965 10.1553 11.0166 20.3105l314.39 383.381q14.4053 17.7725 35.5908 27.082q21.1855 9.30859 57.624 9.30859q46.6084 0 69.0645 -12.6943t22.4561 -34.6982v-376.61h76.2676q22.8799 0 33.0488 -16.9258
q10.1689 -16.9268 10.1689 -54.1641q0 -38.084 -10.1689 -54.5869q-10.1689 -16.5039 -33.0488 -16.5039h-76.2676z" />
    <glyph glyph-name="Euro" unicode="&#x20ac;" 
d="M1081 84q-105 -52 -211 -79t-206 -27q-176 0 -292.5 94t-165.5 265h-93q-17 0 -29 4t-19.5 14t-11 28t-3.5 46q0 56 14.5 74.5t48.5 18.5h67q-6 70 0 143h-67q-17 0 -29 4t-19.5 14t-11 28t-3.5 46q0 56 14.5 74.5t48.5 18.5h92q24 85 64.5 151.5t95 112.5t122.5 70.5
t147 24.5q88 0 150 -33.5t100 -91.5v62q0 34 29 48.5t93 14.5q32 0 53 -3.5t33 -11t17 -19.5t5 -29v-384q0 -34 -30 -48.5t-102 -14.5q-36 0 -58.5 3.5t-36 11t-18.5 19.5t-5 29q0 48 -13.5 88.5t-39 70t-62.5 45.5t-85 16q-72 0 -117.5 -33.5t-70.5 -98.5h189
q34 0 48.5 -18.5t14.5 -74.5q0 -28 -3.5 -46t-11 -28t-19.5 -14t-29 -4h-218q-3 -35 -3 -70.5t4 -72.5h217q34 0 48.5 -18.5t14.5 -74.5q0 -28 -3.5 -46t-11 -28t-19.5 -14t-29 -4h-185q27 -65 74.5 -98.5t119.5 -33.5q85 0 164.5 25.5t166.5 69.5q30 15 58 0t50 -75
q22 -61 11 -93t-43 -48z" />
    <glyph glyph-name="quotedblleft" unicode="&#x201c;" 
d="M373 1186q17 33 40.5 47t65.5 14q50 0 69 -19.5t11 -66.5l-84 -472q-8 -40 -52 -40h-259q-25 0 -33 18.5t5 44.5zM853 1186q17 33 40.5 47t65.5 14q50 0 69 -19.5t11 -66.5l-84 -472q-8 -40 -52 -40h-259q-25 0 -33 18.5t5 44.5z" />
    <glyph glyph-name="quotedblright" unicode="&#x201d;" 
d="M360 672q-17 -33 -40.5 -47t-65.5 -14q-50 0 -69 19.5t-11 66.5l84 472q8 40 52 40h259q25 0 33 -18.5t-5 -44.5zM840 672q-17 -33 -40.5 -47t-65.5 -14q-50 0 -69 19.5t-11 66.5l84 472q8 40 52 40h259q25 0 33 -18.5t-5 -44.5z" />
    <glyph glyph-name="quoteleft" unicode="&#x2018;" 
d="M613 1186q17 33 40.5 47t65.5 14q50 0 69 -19.5t11 -66.5l-84 -472q-8 -40 -52 -40h-259q-25 0 -33 18.5t5 44.5z" />
    <glyph glyph-name="quoteright" unicode="&#x2019;" 
d="M600 672q-17 -33 -40.5 -47t-65.5 -14q-50 0 -69 19.5t-11 66.5l84 472q8 40 52 40h259q25 0 33 -18.5t-5 -44.5z" />
    <glyph glyph-name="y" unicode="y" 
d="M103 719q-17 0 -29 4t-19.5 15t-11 31t-3.5 52t3.5 52t11 31.5t19.5 15.5t29 4h404q17 0 29 -4t19.5 -15.5t11 -31.5t3.5 -52t-3.5 -52t-11 -31t-19.5 -15t-29 -4h-60l174 -380l174 380h-54q-17 0 -29 4t-19.5 15t-11 31t-3.5 52t3.5 52t11 31.5t19.5 15.5t29 4h384
q17 0 29 -4t19.5 -15.5t11 -31.5t3.5 -52t-3.5 -52t-11 -31t-19.5 -15t-29 -4h-64l-383 -776q-52 -105 -99.5 -172.5t-103 -107.5t-124 -57t-162.5 -20q-29 -1 -48.5 20t-23.5 83q-2 34 0.5 57.5t9.5 37.5t17 20.5t24 7.5q59 3 100.5 17.5t76 46.5t66.5 84t73 130l-306 629
h-75z" />
    <glyph glyph-name="emdash" unicode="&#x2014;" 
d="M1195 695q17 0 29 -4.5t19.5 -16.5t11 -34t3.5 -58t-3.5 -58t-11 -34t-19.5 -16t-29 -4h-1162q-17 0 -29 4t-19.5 16t-11 34t-3.5 58t3.5 58t11 34t19.5 16.5t29 4.5h1162z" />
    <glyph glyph-name="t" unicode="t" 
d="M160 649q-17 0 -29 5t-19.5 17t-11 32.5t-3.5 52.5t3.5 53t11 33t19.5 17t29 5h193v282q0 34 30 48.5t102 14.5q36 0 58.5 -3.5t36 -11t18.5 -19.5t5 -29v-282h371q17 0 29 -5t19.5 -17t11 -33t3.5 -53t-3.5 -52.5t-11 -32.5t-19.5 -17t-29 -5h-371v-278
q0 -87 33.5 -126.5t95.5 -39.5q25 0 55.5 6.5t62.5 17.5t66 25t67 29q15 7 29.5 8.5t28 -5t26 -23t24.5 -46.5q24 -59 16.5 -89t-40.5 -46q-91 -46 -180.5 -75t-176.5 -29q-175 0 -266 96t-91 284v291h-193z" />
    <glyph glyph-name="k" unicode="k" 
d="M217 1107h-97q-17 0 -29 4t-19.5 15t-11 31t-3.5 52t3.5 52t11 31.5t19.5 15.5t29 4h284q34 0 48.5 -14.5t14.5 -48.5v-722l260 212h-50q-17 0 -29 4t-19.5 14t-11 28t-3.5 46q0 56 14.5 74.5t48.5 18.5h414q34 0 48.5 -18.5t14.5 -74.5q0 -28 -3.5 -46t-11 -28
t-19.5 -14t-29 -4h-40l-249 -201l243 -333h61q17 0 29 -4t19.5 -15.5t11 -31.5t3.5 -52t-3.5 -52t-11 -31t-19.5 -15t-29 -4h-171q-23 0 -43 9t-35 31l-252 350l-138 -105v-80h87q17 0 29 -4t19.5 -15.5t11 -31.5t3.5 -52t-3.5 -52t-11 -31t-19.5 -15t-29 -4h-414
q-17 0 -29 4t-19.5 15t-11 31t-3.5 52t3.5 52t11 31.5t19.5 15.5t29 4h77v902z" />
    <glyph glyph-name="ellipsis" unicode="&#x2026;" 
d="M71 120q0 29 11 55t30.5 45.5t45.5 30.5t55 11t55 -11t45.5 -30.5t30.5 -45.5t11 -55t-11 -55t-30.5 -45.5t-45.5 -30.5t-55 -11t-55 11t-45.5 30.5t-30.5 45.5t-11 55zM472 120q0 29 11 55t30.5 45.5t45.5 30.5t55 11t55 -11t45.5 -30.5t30.5 -45.5t11 -55t-11 -55
t-30.5 -45.5t-45.5 -30.5t-55 -11t-55 11t-45.5 30.5t-30.5 45.5t-11 55zM873 120q0 29 11 55t30.5 45.5t45.5 30.5t55 11t55 -11t45.5 -30.5t30.5 -45.5t11 -55t-11 -55t-30.5 -45.5t-45.5 -30.5t-55 -11t-55 11t-45.5 30.5t-30.5 45.5t-11 55z" />
    <glyph glyph-name="edieresis" unicode="&#xeb;" 
d="M960 260q32 10 53 -6.5t38 -77.5q8 -31 10 -52.5t-3 -36t-16.5 -23.5t-29.5 -15q-100 -33 -210 -52t-218 -19q-112 0 -199 36t-146.5 100.5t-90.5 153.5t-31 194t34 193.5t98.5 153t156.5 101t208 36.5q117 0 206 -38.5t148.5 -107t90 -163t30.5 -205.5q0 -34 -14.5 -48
t-48.5 -14h-642q20 -81 76 -123t144 -42q81 0 168.5 12.5t187.5 42.5zM828 565q-17 72 -72 113t-142 41q-91 0 -147.5 -38t-78.5 -116h440zM234 1195q0 31 12 58.5t32 47.5t47.5 32t58.5 12t58.5 -12t47.5 -32t32 -47.5t12 -58.5t-12 -58.5t-32 -47.5t-47.5 -32t-58.5 -12
t-58.5 12t-47.5 32t-32 47.5t-12 58.5zM694 1195q0 31 12 58.5t32 47.5t47.5 32t58.5 12t58.5 -12t47.5 -32t32 -47.5t12 -58.5t-12 -58.5t-32 -47.5t-47.5 -32t-58.5 -12t-58.5 12t-47.5 32t-32 47.5t-12 58.5z" />
    <glyph glyph-name="adieresis" unicode="&#xe4;" 
d="M832 106q-77 -60 -164.5 -94t-183.5 -34q-86 0 -153.5 22t-114.5 63.5t-71.5 100t-24.5 131.5q0 70 25.5 125t74 92.5t118 57t158.5 19.5q133 0 283 -30v29q0 31 -10 55.5t-32.5 41.5t-60 25.5t-91.5 8.5q-60 0 -131 -15t-140 -38q-16 -5 -30 -5.5t-27 7t-25 25t-23 47.5
q-22 60 -15 92t42 45q47 17 96.5 30t98 21.5t95 13t87.5 4.5q114 0 193.5 -25.5t129 -73.5t71.5 -116t22 -152v-289q0 -40 17 -62.5t49 -22.5h31q17 0 29 -4t19.5 -15.5t11 -31.5t3.5 -52t-3.5 -52t-11 -31t-19.5 -15t-29 -4h-112q-60 0 -108 24.5t-74 81.5zM779 356
q-70 14 -133.5 20.5t-124.5 6.5q-71 0 -107 -25t-36 -73t35.5 -72t102.5 -24q72 0 139 28.5t124 74.5v64zM234 1195q0 31 12 58.5t32 47.5t47.5 32t58.5 12t58.5 -12t47.5 -32t32 -47.5t12 -58.5t-12 -58.5t-32 -47.5t-47.5 -32t-58.5 -12t-58.5 12t-47.5 32t-32 47.5
t-12 58.5zM694 1195q0 31 12 58.5t32 47.5t47.5 32t58.5 12t58.5 -12t47.5 -32t32 -47.5t12 -58.5t-12 -58.5t-32 -47.5t-47.5 -32t-58.5 -12t-58.5 12t-47.5 32t-32 47.5t-12 58.5z" />
    <glyph glyph-name="odieresis" unicode="&#xf6;" 
d="M614 -22q-116 0 -209.5 36t-159.5 100.5t-102 153.5t-36 194t36 193.5t102 153t159.5 101t209.5 36.5t209.5 -36.5t159.5 -101t102 -153t36 -193.5t-36 -194t-102 -153.5t-159.5 -100.5t-209.5 -36zM614 719q-54 0 -98.5 -18t-75.5 -52t-48 -81.5t-17 -105.5
q0 -59 17 -106t48 -81t75.5 -52t98.5 -18t98.5 18t75.5 52t48 81t17 106q0 58 -17 105.5t-48 81.5t-75.5 52t-98.5 18zM234 1195q0 31 12 58.5t32 47.5t47.5 32t58.5 12t58.5 -12t47.5 -32t32 -47.5t12 -58.5t-12 -58.5t-32 -47.5t-47.5 -32t-58.5 -12t-58.5 12t-47.5 32
t-32 47.5t-12 58.5zM694 1195q0 31 12 58.5t32 47.5t47.5 32t58.5 12t58.5 -12t47.5 -32t32 -47.5t12 -58.5t-12 -58.5t-32 -47.5t-47.5 -32t-58.5 -12t-58.5 12t-47.5 32t-32 47.5t-12 58.5z" />
    <glyph glyph-name="udieresis" unicode="&#xfc;" 
d="M113 719q-17 0 -29 4t-19.5 15.5t-11 31.5t-3.5 52t3.5 52t11 31t19.5 15t29 4h264q34 0 48.5 -14.5t14.5 -48.5v-498q0 -74 25.5 -116t91.5 -42q45 0 85.5 28.5t71.5 76.5t49.5 111.5t18.5 134.5v163h-107q-17 0 -29 4t-19.5 15.5t-11 31.5t-3.5 52t3.5 52t11 31
t19.5 15t29 4h294q34 0 48.5 -14.5t14.5 -48.5v-656h77q17 0 29 -4t19.5 -15t11 -31t3.5 -52t-3.5 -52t-11 -31.5t-19.5 -15.5t-29 -4h-224q-34 0 -48.5 14.5t-14.5 48.5v145q-70 -122 -153 -176t-177 -54q-69 0 -125 23t-95 65t-60.5 102.5t-21.5 135.5v415h-77zM214 1195
q0 31 12 58.5t32 47.5t47.5 32t58.5 12t58.5 -12t47.5 -32t32 -47.5t12 -58.5t-12 -58.5t-32 -47.5t-47.5 -32t-58.5 -12t-58.5 12t-47.5 32t-32 47.5t-12 58.5zM674 1195q0 31 12 58.5t32 47.5t47.5 32t58.5 12t58.5 -12t47.5 -32t32 -47.5t12 -58.5t-12 -58.5t-32 -47.5
t-47.5 -32t-58.5 -12t-58.5 12t-47.5 32t-32 47.5t-12 58.5z" />
    <glyph glyph-name="Odieresis" unicode="&#xd6;" 
d="M614 982q-141 0 -212 -100.5t-71 -287.5t71 -288t212 -101t212 101t71 288t-71 287.5t-212 100.5zM614 1209q124 0 225.5 -42.5t174 -122.5t112 -194t39.5 -256q0 -143 -39.5 -257t-112 -193.5t-174 -122.5t-225.5 -43t-225.5 43t-174 122.5t-112 193.5t-39.5 257
q0 142 39.5 256t112 194t174 122.5t225.5 42.5zM234 1465q0 31 12 58.5t32 47.5t47.5 32t58.5 12t58.5 -12t47.5 -32t32 -47.5t12 -58.5t-12 -58.5t-32 -47.5t-47.5 -32t-58.5 -12t-58.5 12t-47.5 32t-32 47.5t-12 58.5zM694 1465q0 31 12 58.5t32 47.5t47.5 32t58.5 12
t58.5 -12t47.5 -32t32 -47.5t12 -58.5t-12 -58.5t-32 -47.5t-47.5 -32t-58.5 -12t-58.5 12t-47.5 32t-32 47.5t-12 58.5z" />
    <glyph glyph-name="Udieresis" unicode="&#xdc;" 
d="M113 982q-17 0 -29 4t-19.5 15t-11 31t-3.5 52t3.5 52t11 31.5t19.5 15.5t29 4h374q17 0 29 -4t19.5 -15.5t11 -31.5t3.5 -52t-3.5 -52t-11 -31t-19.5 -15t-29 -4h-77v-549q0 -60 15 -103t42 -71t64.5 -41t82.5 -13t82.5 13t64.5 41t42 71t15 103v549h-77q-17 0 -29 4
t-19.5 15t-11 31t-3.5 52t3.5 52t11 31.5t19.5 15.5t29 4h374q17 0 29 -4t19.5 -15.5t11 -31.5t3.5 -52t-3.5 -52t-11 -31t-19.5 -15t-29 -4h-47v-569q0 -105 -31.5 -186t-90.5 -136.5t-143 -84t-189 -28.5t-189 28.5t-143 84t-90.5 136.5t-31.5 186v569h-47zM234 1465
q0 31 12 58.5t32 47.5t47.5 32t58.5 12t58.5 -12t47.5 -32t32 -47.5t12 -58.5t-12 -58.5t-32 -47.5t-47.5 -32t-58.5 -12t-58.5 12t-47.5 32t-32 47.5t-12 58.5zM694 1465q0 31 12 58.5t32 47.5t47.5 32t58.5 12t58.5 -12t47.5 -32t32 -47.5t12 -58.5t-12 -58.5t-32 -47.5
t-47.5 -32t-58.5 -12t-58.5 12t-47.5 32t-32 47.5t-12 58.5z" />
    <glyph glyph-name="Adieresis" unicode="&#xc4;" 
d="M390 982h-167q-17 0 -29 4t-19.5 15.5t-11 31.5t-3.5 52t3.5 52t11 31t19.5 15t29 4h474q40 0 65 -15t36 -50l290 -917h87q17 0 29 -4t19.5 -15t11 -31t3.5 -52t-3.5 -52t-11 -31.5t-19.5 -15.5t-29 -4h-424q-17 0 -29 4t-19.5 15.5t-11 31.5t-3.5 52t3.5 52t11 31
t19.5 15t29 4h86l-45 145h-364l-45 -145h74q17 0 29 -4t19.5 -15t11 -31t3.5 -52t-3.5 -52t-11 -31.5t-19.5 -15.5t-29 -4h-404q-17 0 -29 4t-19.5 15.5t-11 31.5t-3.5 52t3.5 52t11 31t19.5 15t29 4h84zM735 555l-120 427h-6l-123 -427h249zM214 1465q0 31 12 58.5t32 47.5
t47.5 32t58.5 12t58.5 -12t47.5 -32t32 -47.5t12 -58.5t-12 -58.5t-32 -47.5t-47.5 -32t-58.5 -12t-58.5 12t-47.5 32t-32 47.5t-12 58.5zM674 1465q0 31 12 58.5t32 47.5t47.5 32t58.5 12t58.5 -12t47.5 -32t32 -47.5t12 -58.5t-12 -58.5t-32 -47.5t-47.5 -32t-58.5 -12
t-58.5 12t-47.5 32t-32 47.5t-12 58.5z" />
    <glyph glyph-name="ydieresis" unicode="&#xff;" 
d="M103 719q-17 0 -29 4t-19.5 15t-11 31t-3.5 52t3.5 52t11 31.5t19.5 15.5t29 4h404q17 0 29 -4t19.5 -15.5t11 -31.5t3.5 -52t-3.5 -52t-11 -31t-19.5 -15t-29 -4h-60l174 -380l174 380h-54q-17 0 -29 4t-19.5 15t-11 31t-3.5 52t3.5 52t11 31.5t19.5 15.5t29 4h384
q17 0 29 -4t19.5 -15.5t11 -31.5t3.5 -52t-3.5 -52t-11 -31t-19.5 -15t-29 -4h-64l-383 -776q-52 -105 -99.5 -172.5t-103 -107.5t-124 -57t-162.5 -20q-29 -1 -48.5 20t-23.5 83q-2 34 0.5 57.5t9.5 37.5t17 20.5t24 7.5q59 3 100.5 17.5t76 46.5t66.5 84t73 130l-306 629
h-75zM234 1195q0 31 12 58.5t32 47.5t47.5 32t58.5 12t58.5 -12t47.5 -32t32 -47.5t12 -58.5t-12 -58.5t-32 -47.5t-47.5 -32t-58.5 -12t-58.5 12t-47.5 32t-32 47.5t-12 58.5zM694 1195q0 31 12 58.5t32 47.5t47.5 32t58.5 12t58.5 -12t47.5 -32t32 -47.5t12 -58.5
t-12 -58.5t-32 -47.5t-47.5 -32t-58.5 -12t-58.5 12t-47.5 32t-32 47.5t-12 58.5z" />
    <glyph glyph-name="Ydieresis" unicode="&#x178;" 
d="M489 460l-340 522h-46q-17 0 -29 4t-19.5 15t-11 31t-3.5 52t3.5 52t11 31.5t19.5 15.5t29 4h394q17 0 29 -4t19.5 -15.5t11 -31.5t3.5 -52t-3.5 -52t-11 -31t-19.5 -15t-29 -4h-67l186 -292l188 292h-53q-17 0 -29 4t-19.5 15t-11 31t-3.5 52t3.5 52t11 31.5t19.5 15.5
t29 4h374q17 0 29 -4t19.5 -15.5t11 -31.5t3.5 -52t-3.5 -52t-11 -31t-19.5 -15t-29 -4h-44l-342 -523v-254h196q17 0 29 -4t19.5 -15.5t11 -31.5t3.5 -52t-3.5 -52t-11 -31t-19.5 -15t-29 -4h-642q-17 0 -29 4t-19.5 15t-11 31t-3.5 52t3.5 52t11 31.5t19.5 15.5t29 4h196
v255zM234 1465q0 31 12 58.5t32 47.5t47.5 32t58.5 12t58.5 -12t47.5 -32t32 -47.5t12 -58.5t-12 -58.5t-32 -47.5t-47.5 -32t-58.5 -12t-58.5 12t-47.5 32t-32 47.5t-12 58.5zM694 1465q0 31 12 58.5t32 47.5t47.5 32t58.5 12t58.5 -12t47.5 -32t32 -47.5t12 -58.5
t-12 -58.5t-32 -47.5t-47.5 -32t-58.5 -12t-58.5 12t-47.5 32t-32 47.5t-12 58.5z" />
    <glyph glyph-name="acircumflex" unicode="&#xe2;" 
d="M832 106q-77 -60 -164.5 -94t-183.5 -34q-86 0 -153.5 22t-114.5 63.5t-71.5 100t-24.5 131.5q0 70 25.5 125t74 92.5t118 57t158.5 19.5q133 0 283 -30v29q0 31 -10 55.5t-32.5 41.5t-60 25.5t-91.5 8.5q-60 0 -131 -15t-140 -38q-16 -5 -30 -5.5t-27 7t-25 25t-23 47.5
q-22 60 -15 92t42 45q47 17 96.5 30t98 21.5t95 13t87.5 4.5q114 0 193.5 -25.5t129 -73.5t71.5 -116t22 -152v-289q0 -40 17 -62.5t49 -22.5h31q17 0 29 -4t19.5 -15.5t11 -31.5t3.5 -52t-3.5 -52t-11 -31t-19.5 -15t-29 -4h-112q-60 0 -108 24.5t-74 81.5zM779 356
q-70 14 -133.5 20.5t-124.5 6.5q-71 0 -107 -25t-36 -73t35.5 -72t102.5 -24q72 0 139 28.5t124 74.5v64zM335 1029q-19 -9 -36 -1.5t-31 25.5q-14 19 -13.5 38.5t17.5 35.5l287 261q11 10 25 14t30 4t30 -4t25 -14l287 -261q17 -16 17.5 -35.5t-13.5 -38.5
q-14 -18 -31 -25.5t-36 1.5l-279 134z" />
    <glyph glyph-name="ecircumflex" unicode="&#xea;" 
d="M960 260q32 10 53 -6.5t38 -77.5q8 -31 10 -52.5t-3 -36t-16.5 -23.5t-29.5 -15q-100 -33 -210 -52t-218 -19q-112 0 -199 36t-146.5 100.5t-90.5 153.5t-31 194t34 193.5t98.5 153t156.5 101t208 36.5q117 0 206 -38.5t148.5 -107t90 -163t30.5 -205.5q0 -34 -14.5 -48
t-48.5 -14h-642q20 -81 76 -123t144 -42q81 0 168.5 12.5t187.5 42.5zM828 565q-17 72 -72 113t-142 41q-91 0 -147.5 -38t-78.5 -116h440zM345 1029q-19 -9 -36 -1.5t-31 25.5q-14 19 -13.5 38.5t17.5 35.5l287 261q11 10 25 14t30 4t30 -4t25 -14l287 -261
q17 -16 17.5 -35.5t-13.5 -38.5q-14 -18 -31 -25.5t-36 1.5l-279 134z" />
    <glyph glyph-name="ucircumflex" unicode="&#xfb;" 
d="M113 719q-17 0 -29 4t-19.5 15.5t-11 31.5t-3.5 52t3.5 52t11 31t19.5 15t29 4h264q34 0 48.5 -14.5t14.5 -48.5v-498q0 -74 25.5 -116t91.5 -42q45 0 85.5 28.5t71.5 76.5t49.5 111.5t18.5 134.5v163h-107q-17 0 -29 4t-19.5 15.5t-11 31.5t-3.5 52t3.5 52t11 31
t19.5 15t29 4h294q34 0 48.5 -14.5t14.5 -48.5v-656h77q17 0 29 -4t19.5 -15t11 -31t3.5 -52t-3.5 -52t-11 -31.5t-19.5 -15.5t-29 -4h-224q-34 0 -48.5 14.5t-14.5 48.5v145q-70 -122 -153 -176t-177 -54q-69 0 -125 23t-95 65t-60.5 102.5t-21.5 135.5v415h-77zM325 1029
q-19 -9 -36 -1.5t-31 25.5q-14 19 -13.5 38.5t17.5 35.5l287 261q11 10 25 14t30 4t30 -4t25 -14l287 -261q17 -16 17.5 -35.5t-13.5 -38.5q-14 -18 -31 -25.5t-36 1.5l-279 134z" />
    <glyph glyph-name="ocircumflex" unicode="&#xf4;" 
d="M614 -22q-116 0 -209.5 36t-159.5 100.5t-102 153.5t-36 194t36 193.5t102 153t159.5 101t209.5 36.5t209.5 -36.5t159.5 -101t102 -153t36 -193.5t-36 -194t-102 -153.5t-159.5 -100.5t-209.5 -36zM614 719q-54 0 -98.5 -18t-75.5 -52t-48 -81.5t-17 -105.5
q0 -59 17 -106t48 -81t75.5 -52t98.5 -18t98.5 18t75.5 52t48 81t17 106q0 58 -17 105.5t-48 81.5t-75.5 52t-98.5 18zM335 1029q-19 -9 -36 -1.5t-31 25.5q-14 19 -13.5 38.5t17.5 35.5l287 261q11 10 25 14t30 4t30 -4t25 -14l287 -261q17 -16 17.5 -35.5t-13.5 -38.5
q-14 -18 -31 -25.5t-36 1.5l-279 134z" />
    <glyph glyph-name="Ocircumflex" unicode="&#xd4;" 
d="M614 982q-141 0 -212 -100.5t-71 -287.5t71 -288t212 -101t212 101t71 288t-71 287.5t-212 100.5zM614 1209q124 0 225.5 -42.5t174 -122.5t112 -194t39.5 -256q0 -143 -39.5 -257t-112 -193.5t-174 -122.5t-225.5 -43t-225.5 43t-174 122.5t-112 193.5t-39.5 257
q0 142 39.5 256t112 194t174 122.5t225.5 42.5zM335 1299q-19 -9 -36 -1.5t-31 25.5q-14 19 -13.5 38.5t17.5 35.5l287 261q11 10 25 14t30 4t30 -4t25 -14l287 -261q17 -16 17.5 -35.5t-13.5 -38.5q-14 -18 -31 -25.5t-36 1.5l-279 134z" />
    <glyph glyph-name="Ucircumflex" unicode="&#xdb;" 
d="M113 982q-17 0 -29 4t-19.5 15t-11 31t-3.5 52t3.5 52t11 31.5t19.5 15.5t29 4h374q17 0 29 -4t19.5 -15.5t11 -31.5t3.5 -52t-3.5 -52t-11 -31t-19.5 -15t-29 -4h-77v-549q0 -60 15 -103t42 -71t64.5 -41t82.5 -13t82.5 13t64.5 41t42 71t15 103v549h-77q-17 0 -29 4
t-19.5 15t-11 31t-3.5 52t3.5 52t11 31.5t19.5 15.5t29 4h374q17 0 29 -4t19.5 -15.5t11 -31.5t3.5 -52t-3.5 -52t-11 -31t-19.5 -15t-29 -4h-47v-569q0 -105 -31.5 -186t-90.5 -136.5t-143 -84t-189 -28.5t-189 28.5t-143 84t-90.5 136.5t-31.5 186v569h-47zM335 1299
q-19 -9 -36 -1.5t-31 25.5q-14 19 -13.5 38.5t17.5 35.5l287 261q11 10 25 14t30 4t30 -4t25 -14l287 -261q17 -16 17.5 -35.5t-13.5 -38.5q-14 -18 -31 -25.5t-36 1.5l-279 134z" />
    <glyph glyph-name="Icircumflex" unicode="&#xce;" 
d="M489 982h-236q-17 0 -29 4t-19.5 15t-11 31t-3.5 52t3.5 52t11 31.5t19.5 15.5t29 4h722q17 0 29 -4t19.5 -15.5t11 -31.5t3.5 -52t-3.5 -52t-11 -31t-19.5 -15t-29 -4h-236v-777h256q17 0 29 -4t19.5 -15.5t11 -31.5t3.5 -52t-3.5 -52t-11 -31t-19.5 -15t-29 -4h-762
q-17 0 -29 4t-19.5 15t-11 31t-3.5 52t3.5 52t11 31.5t19.5 15.5t29 4h256v777zM335 1299q-19 -9 -36 -1.5t-31 25.5q-14 19 -13.5 38.5t17.5 35.5l287 261q11 10 25 14t30 4t30 -4t25 -14l287 -261q17 -16 17.5 -35.5t-13.5 -38.5q-14 -18 -31 -25.5t-36 1.5l-279 134z" />
    <glyph glyph-name="Acircumflex" unicode="&#xc2;" 
d="M390 982h-167q-17 0 -29 4t-19.5 15.5t-11 31.5t-3.5 52t3.5 52t11 31t19.5 15t29 4h474q40 0 65 -15t36 -50l290 -917h87q17 0 29 -4t19.5 -15t11 -31t3.5 -52t-3.5 -52t-11 -31.5t-19.5 -15.5t-29 -4h-424q-17 0 -29 4t-19.5 15.5t-11 31.5t-3.5 52t3.5 52t11 31
t19.5 15t29 4h86l-45 145h-364l-45 -145h74q17 0 29 -4t19.5 -15t11 -31t3.5 -52t-3.5 -52t-11 -31.5t-19.5 -15.5t-29 -4h-404q-17 0 -29 4t-19.5 15.5t-11 31.5t-3.5 52t3.5 52t11 31t19.5 15t29 4h84zM735 555l-120 427h-6l-123 -427h249zM315 1299q-19 -9 -36 -1.5
t-31 25.5q-14 19 -13.5 38.5t17.5 35.5l287 261q11 10 25 14t30 4t30 -4t25 -14l287 -261q17 -16 17.5 -35.5t-13.5 -38.5q-14 -18 -31 -25.5t-36 1.5l-279 134z" />
    <glyph glyph-name="Edieresis" unicode="&#xcb;" 
d="M220 982h-97q-17 0 -29 4t-19.5 15t-11 31t-3.5 52t3.5 52t11 31.5t19.5 15.5t29 4h912q35 0 50 -15t15 -50v-302q0 -34 -29 -48.5t-93 -14.5q-32 0 -53 3.5t-33 11t-17 19.5t-5 29v152h-400v-253h244q17 0 29 -5t19.5 -17t11 -33t3.5 -53t-3.5 -52.5t-11 -32.5
t-19.5 -17t-29 -5h-244v-289h410v202q0 34 29 48.5t97 14.5q34 0 56 -3.5t35 -11t18 -19.5t5 -29v-352q0 -35 -15 -50t-50 -15h-932q-17 0 -29 4t-19.5 15t-11 31t-3.5 52t3.5 52t11 31.5t19.5 15.5t29 4h97v777zM264 1465q0 31 12 58.5t32 47.5t47.5 32t58.5 12t58.5 -12
t47.5 -32t32 -47.5t12 -58.5t-12 -58.5t-32 -47.5t-47.5 -32t-58.5 -12t-58.5 12t-47.5 32t-32 47.5t-12 58.5zM724 1465q0 31 12 58.5t32 47.5t47.5 32t58.5 12t58.5 -12t47.5 -32t32 -47.5t12 -58.5t-12 -58.5t-32 -47.5t-47.5 -32t-58.5 -12t-58.5 12t-47.5 32t-32 47.5
t-12 58.5z" />
    <glyph glyph-name="Ecircumflex" unicode="&#xca;" 
d="M220 982h-97q-17 0 -29 4t-19.5 15t-11 31t-3.5 52t3.5 52t11 31.5t19.5 15.5t29 4h912q35 0 50 -15t15 -50v-302q0 -34 -29 -48.5t-93 -14.5q-32 0 -53 3.5t-33 11t-17 19.5t-5 29v152h-400v-253h244q17 0 29 -5t19.5 -17t11 -33t3.5 -53t-3.5 -52.5t-11 -32.5
t-19.5 -17t-29 -5h-244v-289h410v202q0 34 29 48.5t97 14.5q34 0 56 -3.5t35 -11t18 -19.5t5 -29v-352q0 -35 -15 -50t-50 -15h-932q-17 0 -29 4t-19.5 15t-11 31t-3.5 52t3.5 52t11 31.5t19.5 15.5t29 4h97v777zM365 1299q-19 -9 -36 -1.5t-31 25.5q-14 19 -13.5 38.5
t17.5 35.5l287 261q11 10 25 14t30 4t30 -4t25 -14l287 -261q17 -16 17.5 -35.5t-13.5 -38.5q-14 -18 -31 -25.5t-36 1.5l-279 134z" />
    <glyph glyph-name="Idieresis" unicode="&#xcf;" 
d="M489 982h-236q-17 0 -29 4t-19.5 15t-11 31t-3.5 52t3.5 52t11 31.5t19.5 15.5t29 4h722q17 0 29 -4t19.5 -15.5t11 -31.5t3.5 -52t-3.5 -52t-11 -31t-19.5 -15t-29 -4h-236v-777h256q17 0 29 -4t19.5 -15.5t11 -31.5t3.5 -52t-3.5 -52t-11 -31t-19.5 -15t-29 -4h-762
q-17 0 -29 4t-19.5 15t-11 31t-3.5 52t3.5 52t11 31.5t19.5 15.5t29 4h256v777zM234 1465q0 31 12 58.5t32 47.5t47.5 32t58.5 12t58.5 -12t47.5 -32t32 -47.5t12 -58.5t-12 -58.5t-32 -47.5t-47.5 -32t-58.5 -12t-58.5 12t-47.5 32t-32 47.5t-12 58.5zM694 1465
q0 31 12 58.5t32 47.5t47.5 32t58.5 12t58.5 -12t47.5 -32t32 -47.5t12 -58.5t-12 -58.5t-32 -47.5t-47.5 -32t-58.5 -12t-58.5 12t-47.5 32t-32 47.5t-12 58.5z" />
    <glyph glyph-name="idieresis" unicode="&#xef;" 
d="M503 719h-193q-17 0 -29 4t-19.5 15t-11 31t-3.5 52t3.5 52t11 31.5t19.5 15.5t29 4h380q34 0 48.5 -14.5t14.5 -48.5v-656h281q17 0 29 -4t19.5 -15.5t11 -31.5t3.5 -52t-3.5 -52t-11 -31t-19.5 -15t-29 -4h-804q-17 0 -29 4t-19.5 15t-11 31t-3.5 52t3.5 52t11 31.5
t19.5 15.5t29 4h273v514zM234 1195q0 31 12 58.5t32 47.5t47.5 32t58.5 12t58.5 -12t47.5 -32t32 -47.5t12 -58.5t-12 -58.5t-32 -47.5t-47.5 -32t-58.5 -12t-58.5 12t-47.5 32t-32 47.5t-12 58.5zM694 1195q0 31 12 58.5t32 47.5t47.5 32t58.5 12t58.5 -12t47.5 -32
t32 -47.5t12 -58.5t-12 -58.5t-32 -47.5t-47.5 -32t-58.5 -12t-58.5 12t-47.5 32t-32 47.5t-12 58.5z" />
    <glyph glyph-name="icircumflex" unicode="&#xee;" 
d="M503 719h-193q-17 0 -29 4t-19.5 15t-11 31t-3.5 52t3.5 52t11 31.5t19.5 15.5t29 4h380q34 0 48.5 -14.5t14.5 -48.5v-656h281q17 0 29 -4t19.5 -15.5t11 -31.5t3.5 -52t-3.5 -52t-11 -31t-19.5 -15t-29 -4h-804q-17 0 -29 4t-19.5 15t-11 31t-3.5 52t3.5 52t11 31.5
t19.5 15.5t29 4h273v514zM335 1029q-19 -9 -36 -1.5t-31 25.5q-14 19 -13.5 38.5t17.5 35.5l287 261q11 10 25 14t30 4t30 -4t25 -14l287 -261q17 -16 17.5 -35.5t-13.5 -38.5q-14 -18 -31 -25.5t-36 1.5l-279 134z" />
    <glyph glyph-name="aacute" unicode="&#xe1;" 
d="M832 106q-77 -60 -164.5 -94t-183.5 -34q-86 0 -153.5 22t-114.5 63.5t-71.5 100t-24.5 131.5q0 70 25.5 125t74 92.5t118 57t158.5 19.5q133 0 283 -30v29q0 31 -10 55.5t-32.5 41.5t-60 25.5t-91.5 8.5q-60 0 -131 -15t-140 -38q-16 -5 -30 -5.5t-27 7t-25 25t-23 47.5
q-22 60 -15 92t42 45q47 17 96.5 30t98 21.5t95 13t87.5 4.5q114 0 193.5 -25.5t129 -73.5t71.5 -116t22 -152v-289q0 -40 17 -62.5t49 -22.5h31q17 0 29 -4t19.5 -15.5t11 -31.5t3.5 -52t-3.5 -52t-11 -31t-19.5 -15t-29 -4h-112q-60 0 -108 24.5t-74 81.5zM779 356
q-70 14 -133.5 20.5t-124.5 6.5q-71 0 -107 -25t-36 -73t35.5 -72t102.5 -24q72 0 139 28.5t124 74.5v64zM762 1392q28 16 59 -3.5t61 -87.5q30 -69 26.5 -102.5t-29.5 -40.5l-480 -125q-24 -7 -42 4.5t-26 34.5q-8 22 -2.5 41.5t25.5 31.5z" />
    <glyph glyph-name="iacute" unicode="&#xed;" 
d="M503 719h-193q-17 0 -29 4t-19.5 15t-11 31t-3.5 52t3.5 52t11 31.5t19.5 15.5t29 4h380q34 0 48.5 -14.5t14.5 -48.5v-656h281q17 0 29 -4t19.5 -15.5t11 -31.5t3.5 -52t-3.5 -52t-11 -31t-19.5 -15t-29 -4h-804q-17 0 -29 4t-19.5 15t-11 31t-3.5 52t3.5 52t11 31.5
t19.5 15.5t29 4h273v514zM762 1392q28 16 59 -3.5t61 -87.5q30 -69 26.5 -102.5t-29.5 -40.5l-480 -125q-24 -7 -42 4.5t-26 34.5q-8 22 -2.5 41.5t25.5 31.5z" />
    <glyph glyph-name="oacute" unicode="&#xf3;" 
d="M614 -22q-116 0 -209.5 36t-159.5 100.5t-102 153.5t-36 194t36 193.5t102 153t159.5 101t209.5 36.5t209.5 -36.5t159.5 -101t102 -153t36 -193.5t-36 -194t-102 -153.5t-159.5 -100.5t-209.5 -36zM614 719q-54 0 -98.5 -18t-75.5 -52t-48 -81.5t-17 -105.5
q0 -59 17 -106t48 -81t75.5 -52t98.5 -18t98.5 18t75.5 52t48 81t17 106q0 58 -17 105.5t-48 81.5t-75.5 52t-98.5 18zM802 1392q28 16 59 -3.5t61 -87.5q30 -69 26.5 -102.5t-29.5 -40.5l-480 -125q-24 -7 -42 4.5t-26 34.5q-8 22 -2.5 41.5t25.5 31.5z" />
    <glyph glyph-name="uacute" unicode="&#xfa;" 
d="M113 719q-17 0 -29 4t-19.5 15.5t-11 31.5t-3.5 52t3.5 52t11 31t19.5 15t29 4h264q34 0 48.5 -14.5t14.5 -48.5v-498q0 -74 25.5 -116t91.5 -42q45 0 85.5 28.5t71.5 76.5t49.5 111.5t18.5 134.5v163h-107q-17 0 -29 4t-19.5 15.5t-11 31.5t-3.5 52t3.5 52t11 31
t19.5 15t29 4h294q34 0 48.5 -14.5t14.5 -48.5v-656h77q17 0 29 -4t19.5 -15t11 -31t3.5 -52t-3.5 -52t-11 -31.5t-19.5 -15.5t-29 -4h-224q-34 0 -48.5 14.5t-14.5 48.5v145q-70 -122 -153 -176t-177 -54q-69 0 -125 23t-95 65t-60.5 102.5t-21.5 135.5v415h-77zM822 1392
q28 16 59 -3.5t61 -87.5q30 -69 26.5 -102.5t-29.5 -40.5l-480 -125q-24 -7 -42 4.5t-26 34.5q-8 22 -2.5 41.5t25.5 31.5z" />
    <glyph glyph-name="Iacute" unicode="&#xcd;" 
d="M489 982h-236q-17 0 -29 4t-19.5 15t-11 31t-3.5 52t3.5 52t11 31.5t19.5 15.5t29 4h722q17 0 29 -4t19.5 -15.5t11 -31.5t3.5 -52t-3.5 -52t-11 -31t-19.5 -15t-29 -4h-236v-777h256q17 0 29 -4t19.5 -15.5t11 -31.5t3.5 -52t-3.5 -52t-11 -31t-19.5 -15t-29 -4h-762
q-17 0 -29 4t-19.5 15t-11 31t-3.5 52t3.5 52t11 31.5t19.5 15.5t29 4h256v777zM822 1662q28 16 59 -3.5t61 -87.5q30 -69 26.5 -102.5t-29.5 -40.5l-480 -125q-24 -7 -42 4.5t-26 34.5q-8 22 -2.5 41.5t25.5 31.5z" />
    <glyph glyph-name="Uacute" unicode="&#xda;" 
d="M113 982q-17 0 -29 4t-19.5 15t-11 31t-3.5 52t3.5 52t11 31.5t19.5 15.5t29 4h374q17 0 29 -4t19.5 -15.5t11 -31.5t3.5 -52t-3.5 -52t-11 -31t-19.5 -15t-29 -4h-77v-549q0 -60 15 -103t42 -71t64.5 -41t82.5 -13t82.5 13t64.5 41t42 71t15 103v549h-77q-17 0 -29 4
t-19.5 15t-11 31t-3.5 52t3.5 52t11 31.5t19.5 15.5t29 4h374q17 0 29 -4t19.5 -15.5t11 -31.5t3.5 -52t-3.5 -52t-11 -31t-19.5 -15t-29 -4h-47v-569q0 -105 -31.5 -186t-90.5 -136.5t-143 -84t-189 -28.5t-189 28.5t-143 84t-90.5 136.5t-31.5 186v569h-47zM822 1662
q28 16 59 -3.5t61 -87.5q30 -69 26.5 -102.5t-29.5 -40.5l-480 -125q-24 -7 -42 4.5t-26 34.5q-8 22 -2.5 41.5t25.5 31.5z" />
    <glyph glyph-name="Oacute" unicode="&#xd3;" 
d="M614 982q-141 0 -212 -100.5t-71 -287.5t71 -288t212 -101t212 101t71 288t-71 287.5t-212 100.5zM614 1209q124 0 225.5 -42.5t174 -122.5t112 -194t39.5 -256q0 -143 -39.5 -257t-112 -193.5t-174 -122.5t-225.5 -43t-225.5 43t-174 122.5t-112 193.5t-39.5 257
q0 142 39.5 256t112 194t174 122.5t225.5 42.5zM802 1662q28 16 59 -3.5t61 -87.5q30 -69 26.5 -102.5t-29.5 -40.5l-480 -125q-24 -7 -42 4.5t-26 34.5q-8 22 -2.5 41.5t25.5 31.5z" />
    <glyph glyph-name="Ograve" unicode="&#xd2;" 
d="M614 982q-141 0 -212 -100.5t-71 -287.5t71 -288t212 -101t212 101t71 288t-71 287.5t-212 100.5zM614 1209q124 0 225.5 -42.5t174 -122.5t112 -194t39.5 -256q0 -143 -39.5 -257t-112 -193.5t-174 -122.5t-225.5 -43t-225.5 43t-174 122.5t-112 193.5t-39.5 257
q0 142 39.5 256t112 194t174 122.5t225.5 42.5zM834 1415q20 -12 25.5 -31.5t-2.5 -41.5q-8 -23 -26 -34.5t-42 -4.5l-480 125q-26 7 -29.5 40.5t26.5 102.5q30 68 61 87.5t59 3.5z" />
    <glyph glyph-name="Ugrave" unicode="&#xd9;" 
d="M113 982q-17 0 -29 4t-19.5 15t-11 31t-3.5 52t3.5 52t11 31.5t19.5 15.5t29 4h374q17 0 29 -4t19.5 -15.5t11 -31.5t3.5 -52t-3.5 -52t-11 -31t-19.5 -15t-29 -4h-77v-549q0 -60 15 -103t42 -71t64.5 -41t82.5 -13t82.5 13t64.5 41t42 71t15 103v549h-77q-17 0 -29 4
t-19.5 15t-11 31t-3.5 52t3.5 52t11 31.5t19.5 15.5t29 4h374q17 0 29 -4t19.5 -15.5t11 -31.5t3.5 -52t-3.5 -52t-11 -31t-19.5 -15t-29 -4h-47v-569q0 -105 -31.5 -186t-90.5 -136.5t-143 -84t-189 -28.5t-189 28.5t-143 84t-90.5 136.5t-31.5 186v569h-47zM834 1415
q20 -12 25.5 -31.5t-2.5 -41.5q-8 -23 -26 -34.5t-42 -4.5l-480 125q-26 7 -29.5 40.5t26.5 102.5q30 68 61 87.5t59 3.5z" />
    <glyph glyph-name="Igrave" unicode="&#xcc;" 
d="M489 982h-236q-17 0 -29 4t-19.5 15t-11 31t-3.5 52t3.5 52t11 31.5t19.5 15.5t29 4h722q17 0 29 -4t19.5 -15.5t11 -31.5t3.5 -52t-3.5 -52t-11 -31t-19.5 -15t-29 -4h-236v-777h256q17 0 29 -4t19.5 -15.5t11 -31.5t3.5 -52t-3.5 -52t-11 -31t-19.5 -15t-29 -4h-762
q-17 0 -29 4t-19.5 15t-11 31t-3.5 52t3.5 52t11 31.5t19.5 15.5t29 4h256v777zM834 1415q20 -12 25.5 -31.5t-2.5 -41.5q-8 -23 -26 -34.5t-42 -4.5l-480 125q-26 7 -29.5 40.5t26.5 102.5q30 68 61 87.5t59 3.5z" />
    <glyph glyph-name="Egrave" unicode="&#xc8;" 
d="M220 982h-97q-17 0 -29 4t-19.5 15t-11 31t-3.5 52t3.5 52t11 31.5t19.5 15.5t29 4h912q35 0 50 -15t15 -50v-302q0 -34 -29 -48.5t-93 -14.5q-32 0 -53 3.5t-33 11t-17 19.5t-5 29v152h-400v-253h244q17 0 29 -5t19.5 -17t11 -33t3.5 -53t-3.5 -52.5t-11 -32.5
t-19.5 -17t-29 -5h-244v-289h410v202q0 34 29 48.5t97 14.5q34 0 56 -3.5t35 -11t18 -19.5t5 -29v-352q0 -35 -15 -50t-50 -15h-932q-17 0 -29 4t-19.5 15t-11 31t-3.5 52t3.5 52t11 31.5t19.5 15.5t29 4h97v777zM844 1415q20 -12 25.5 -31.5t-2.5 -41.5q-8 -23 -26 -34.5
t-42 -4.5l-480 125q-26 7 -29.5 40.5t26.5 102.5q30 68 61 87.5t59 3.5z" />
    <glyph glyph-name="Aacute" unicode="&#xc1;" 
d="M390 982h-167q-17 0 -29 4t-19.5 15.5t-11 31.5t-3.5 52t3.5 52t11 31t19.5 15t29 4h474q40 0 65 -15t36 -50l290 -917h87q17 0 29 -4t19.5 -15t11 -31t3.5 -52t-3.5 -52t-11 -31.5t-19.5 -15.5t-29 -4h-424q-17 0 -29 4t-19.5 15.5t-11 31.5t-3.5 52t3.5 52t11 31
t19.5 15t29 4h86l-45 145h-364l-45 -145h74q17 0 29 -4t19.5 -15t11 -31t3.5 -52t-3.5 -52t-11 -31.5t-19.5 -15.5t-29 -4h-404q-17 0 -29 4t-19.5 15.5t-11 31.5t-3.5 52t3.5 52t11 31t19.5 15t29 4h84zM735 555l-120 427h-6l-123 -427h249zM762 1662q28 16 59 -3.5
t61 -87.5q30 -69 26.5 -102.5t-29.5 -40.5l-480 -125q-24 -7 -42 4.5t-26 34.5q-8 22 -2.5 41.5t25.5 31.5z" />
    <glyph glyph-name="Eacute" unicode="&#xc9;" 
d="M220 982h-97q-17 0 -29 4t-19.5 15t-11 31t-3.5 52t3.5 52t11 31.5t19.5 15.5t29 4h912q35 0 50 -15t15 -50v-302q0 -34 -29 -48.5t-93 -14.5q-32 0 -53 3.5t-33 11t-17 19.5t-5 29v152h-400v-253h244q17 0 29 -5t19.5 -17t11 -33t3.5 -53t-3.5 -52.5t-11 -32.5
t-19.5 -17t-29 -5h-244v-289h410v202q0 34 29 48.5t97 14.5q34 0 56 -3.5t35 -11t18 -19.5t5 -29v-352q0 -35 -15 -50t-50 -15h-932q-17 0 -29 4t-19.5 15t-11 31t-3.5 52t3.5 52t11 31.5t19.5 15.5t29 4h97v777zM792 1662q28 16 59 -3.5t61 -87.5q30 -69 26.5 -102.5
t-29.5 -40.5l-480 -125q-24 -7 -42 4.5t-26 34.5q-8 22 -2.5 41.5t25.5 31.5z" />
    <glyph glyph-name="Agrave" unicode="&#xc0;" 
d="M390 982h-167q-17 0 -29 4t-19.5 15.5t-11 31.5t-3.5 52t3.5 52t11 31t19.5 15t29 4h474q40 0 65 -15t36 -50l290 -917h87q17 0 29 -4t19.5 -15t11 -31t3.5 -52t-3.5 -52t-11 -31.5t-19.5 -15.5t-29 -4h-424q-17 0 -29 4t-19.5 15.5t-11 31.5t-3.5 52t3.5 52t11 31
t19.5 15t29 4h86l-45 145h-364l-45 -145h74q17 0 29 -4t19.5 -15t11 -31t3.5 -52t-3.5 -52t-11 -31.5t-19.5 -15.5t-29 -4h-404q-17 0 -29 4t-19.5 15.5t-11 31.5t-3.5 52t3.5 52t11 31t19.5 15t29 4h84zM735 555l-120 427h-6l-123 -427h249zM774 1415q20 -12 25.5 -31.5
t-2.5 -41.5q-8 -23 -26 -34.5t-42 -4.5l-480 125q-26 7 -29.5 40.5t26.5 102.5q30 68 61 87.5t59 3.5z" />
    <glyph glyph-name="eacute" unicode="&#xe9;" 
d="M960 260q32 10 53 -6.5t38 -77.5q8 -31 10 -52.5t-3 -36t-16.5 -23.5t-29.5 -15q-100 -33 -210 -52t-218 -19q-112 0 -199 36t-146.5 100.5t-90.5 153.5t-31 194t34 193.5t98.5 153t156.5 101t208 36.5q117 0 206 -38.5t148.5 -107t90 -163t30.5 -205.5q0 -34 -14.5 -48
t-48.5 -14h-642q20 -81 76 -123t144 -42q81 0 168.5 12.5t187.5 42.5zM828 565q-17 72 -72 113t-142 41q-91 0 -147.5 -38t-78.5 -116h440zM792 1392q28 16 59 -3.5t61 -87.5q30 -69 26.5 -102.5t-29.5 -40.5l-480 -125q-24 -7 -42 4.5t-26 34.5q-8 22 -2.5 41.5t25.5 31.5z
" />
    <glyph glyph-name="egrave" unicode="&#xe8;" 
d="M960 260q32 10 53 -6.5t38 -77.5q8 -31 10 -52.5t-3 -36t-16.5 -23.5t-29.5 -15q-100 -33 -210 -52t-218 -19q-112 0 -199 36t-146.5 100.5t-90.5 153.5t-31 194t34 193.5t98.5 153t156.5 101t208 36.5q117 0 206 -38.5t148.5 -107t90 -163t30.5 -205.5q0 -34 -14.5 -48
t-48.5 -14h-642q20 -81 76 -123t144 -42q81 0 168.5 12.5t187.5 42.5zM828 565q-17 72 -72 113t-142 41q-91 0 -147.5 -38t-78.5 -116h440zM864 1145q20 -12 25.5 -31.5t-2.5 -41.5q-8 -23 -26 -34.5t-42 -4.5l-480 125q-26 7 -29.5 40.5t26.5 102.5q30 68 61 87.5t59 3.5z
" />
    <glyph glyph-name="igrave" unicode="&#xec;" 
d="M503 719h-193q-17 0 -29 4t-19.5 15t-11 31t-3.5 52t3.5 52t11 31.5t19.5 15.5t29 4h380q34 0 48.5 -14.5t14.5 -48.5v-656h281q17 0 29 -4t19.5 -15.5t11 -31.5t3.5 -52t-3.5 -52t-11 -31t-19.5 -15t-29 -4h-804q-17 0 -29 4t-19.5 15t-11 31t-3.5 52t3.5 52t11 31.5
t19.5 15.5t29 4h273v514zM774 1145q20 -12 25.5 -31.5t-2.5 -41.5q-8 -23 -26 -34.5t-42 -4.5l-480 125q-26 7 -29.5 40.5t26.5 102.5q30 68 61 87.5t59 3.5z" />
    <glyph glyph-name="agrave" unicode="&#xe0;" 
d="M832 106q-77 -60 -164.5 -94t-183.5 -34q-86 0 -153.5 22t-114.5 63.5t-71.5 100t-24.5 131.5q0 70 25.5 125t74 92.5t118 57t158.5 19.5q133 0 283 -30v29q0 31 -10 55.5t-32.5 41.5t-60 25.5t-91.5 8.5q-60 0 -131 -15t-140 -38q-16 -5 -30 -5.5t-27 7t-25 25t-23 47.5
q-22 60 -15 92t42 45q47 17 96.5 30t98 21.5t95 13t87.5 4.5q114 0 193.5 -25.5t129 -73.5t71.5 -116t22 -152v-289q0 -40 17 -62.5t49 -22.5h31q17 0 29 -4t19.5 -15.5t11 -31.5t3.5 -52t-3.5 -52t-11 -31t-19.5 -15t-29 -4h-112q-60 0 -108 24.5t-74 81.5zM779 356
q-70 14 -133.5 20.5t-124.5 6.5q-71 0 -107 -25t-36 -73t35.5 -72t102.5 -24q72 0 139 28.5t124 74.5v64zM874 1145q20 -12 25.5 -31.5t-2.5 -41.5q-8 -23 -26 -34.5t-42 -4.5l-480 125q-26 7 -29.5 40.5t26.5 102.5q30 68 61 87.5t59 3.5z" />
    <glyph glyph-name="ugrave" unicode="&#xf9;" 
d="M113 719q-17 0 -29 4t-19.5 15.5t-11 31.5t-3.5 52t3.5 52t11 31t19.5 15t29 4h264q34 0 48.5 -14.5t14.5 -48.5v-498q0 -74 25.5 -116t91.5 -42q45 0 85.5 28.5t71.5 76.5t49.5 111.5t18.5 134.5v163h-107q-17 0 -29 4t-19.5 15.5t-11 31.5t-3.5 52t3.5 52t11 31
t19.5 15t29 4h294q34 0 48.5 -14.5t14.5 -48.5v-656h77q17 0 29 -4t19.5 -15t11 -31t3.5 -52t-3.5 -52t-11 -31.5t-19.5 -15.5t-29 -4h-224q-34 0 -48.5 14.5t-14.5 48.5v145q-70 -122 -153 -176t-177 -54q-69 0 -125 23t-95 65t-60.5 102.5t-21.5 135.5v415h-77zM824 1145
q20 -12 25.5 -31.5t-2.5 -41.5q-8 -23 -26 -34.5t-42 -4.5l-480 125q-26 7 -29.5 40.5t26.5 102.5q30 68 61 87.5t59 3.5z" />
    <glyph glyph-name="ograve" unicode="&#xf2;" 
d="M614 -22q-116 0 -209.5 36t-159.5 100.5t-102 153.5t-36 194t36 193.5t102 153t159.5 101t209.5 36.5t209.5 -36.5t159.5 -101t102 -153t36 -193.5t-36 -194t-102 -153.5t-159.5 -100.5t-209.5 -36zM614 719q-54 0 -98.5 -18t-75.5 -52t-48 -81.5t-17 -105.5
q0 -59 17 -106t48 -81t75.5 -52t98.5 -18t98.5 18t75.5 52t48 81t17 106q0 58 -17 105.5t-48 81.5t-75.5 52t-98.5 18zM834 1145q20 -12 25.5 -31.5t-2.5 -41.5q-8 -23 -26 -34.5t-42 -4.5l-480 125q-26 7 -29.5 40.5t26.5 102.5q30 68 61 87.5t59 3.5z" />
    <glyph glyph-name="aring" unicode="&#xe5;" 
d="M832 106q-77 -60 -164.5 -94t-183.5 -34q-86 0 -153.5 22t-114.5 63.5t-71.5 100t-24.5 131.5q0 70 25.5 125t74 92.5t118 57t158.5 19.5q133 0 283 -30v29q0 31 -10 55.5t-32.5 41.5t-60 25.5t-91.5 8.5q-60 0 -131 -15t-140 -38q-16 -5 -30 -5.5t-27 7t-25 25t-23 47.5
q-22 60 -15 92t42 45q47 17 96.5 30t98 21.5t95 13t87.5 4.5q114 0 193.5 -25.5t129 -73.5t71.5 -116t22 -152v-289q0 -40 17 -62.5t49 -22.5h31q17 0 29 -4t19.5 -15.5t11 -31.5t3.5 -52t-3.5 -52t-11 -31t-19.5 -15t-29 -4h-112q-60 0 -108 24.5t-74 81.5zM779 356
q-70 14 -133.5 20.5t-124.5 6.5q-71 0 -107 -25t-36 -73t35.5 -72t102.5 -24q72 0 139 28.5t124 74.5v64zM362 1306q0 54 20.5 102t56 83.5t83.5 56t102 20.5t102 -20.5t83.5 -56t56 -83.5t20.5 -102t-20.5 -102t-56 -83.5t-83.5 -56t-102 -20.5t-102 20.5t-83.5 56
t-56 83.5t-20.5 102zM521 1306q0 -21 8 -40t22 -33t33 -22t40 -8t40 8t33 22t22 33t8 40t-8 40t-22 33t-33 22t-40 8t-40 -8t-33 -22t-22 -33t-8 -40z" />
    <glyph glyph-name="Aring" unicode="&#xc5;" 
d="M390 982h-167q-17 0 -29 4t-19.5 15.5t-11 31.5t-3.5 52t3.5 52t11 31t19.5 15t29 4h474q40 0 65 -15t36 -50l290 -917h87q17 0 29 -4t19.5 -15t11 -31t3.5 -52t-3.5 -52t-11 -31.5t-19.5 -15.5t-29 -4h-424q-17 0 -29 4t-19.5 15.5t-11 31.5t-3.5 52t3.5 52t11 31
t19.5 15t29 4h86l-45 145h-364l-45 -145h74q17 0 29 -4t19.5 -15t11 -31t3.5 -52t-3.5 -52t-11 -31.5t-19.5 -15.5t-29 -4h-404q-17 0 -29 4t-19.5 15.5t-11 31.5t-3.5 52t3.5 52t11 31t19.5 15t29 4h84zM735 555l-120 427h-6l-123 -427h249zM335 1535q0 54 20.5 102
t56 83.5t83.5 56t102 20.5t102 -20.5t83.5 -56t56 -83.5t20.5 -102t-20.5 -102t-56 -83.5t-83.5 -56t-102 -20.5t-102 20.5t-83.5 56t-56 83.5t-20.5 102zM494 1535q0 -21 8 -40t22 -33t33 -22t40 -8t40 8t33 22t22 33t8 40t-8 40t-22 33t-33 22t-40 8t-40 -8t-33 -22
t-22 -33t-8 -40z" />
    <glyph glyph-name="atilde" unicode="&#xe3;" 
d="M832 106q-77 -60 -164.5 -94t-183.5 -34q-86 0 -153.5 22t-114.5 63.5t-71.5 100t-24.5 131.5q0 70 25.5 125t74 92.5t118 57t158.5 19.5q133 0 283 -30v29q0 31 -10 55.5t-32.5 41.5t-60 25.5t-91.5 8.5q-60 0 -131 -15t-140 -38q-16 -5 -30 -5.5t-27 7t-25 25t-23 47.5
q-22 60 -15 92t42 45q47 17 96.5 30t98 21.5t95 13t87.5 4.5q114 0 193.5 -25.5t129 -73.5t71.5 -116t22 -152v-289q0 -40 17 -62.5t49 -22.5h31q17 0 29 -4t19.5 -15.5t11 -31.5t3.5 -52t-3.5 -52t-11 -31t-19.5 -15t-29 -4h-112q-60 0 -108 24.5t-74 81.5zM779 356
q-70 14 -133.5 20.5t-124.5 6.5q-71 0 -107 -25t-36 -73t35.5 -72t102.5 -24q72 0 139 28.5t124 74.5v64zM767 1250q27 0 58.5 7t63.5 24q23 13 42.5 1.5t35.5 -38.5q14 -27 15 -52t-19 -41q-59 -51 -108.5 -72t-94.5 -21q-42 0 -80 11.5t-74 25.5t-71.5 25.5t-72.5 11.5
q-29 0 -60.5 -7t-63.5 -24q-22 -12 -41.5 -1t-34.5 39q-14 26 -15.5 51t17.5 41q60 52 110 72.5t95 20.5q41 0 79 -11.5t74 -25.5t72 -25.5t73 -11.5z" />
    <glyph glyph-name="otilde" unicode="&#xf5;" 
d="M614 -22q-116 0 -209.5 36t-159.5 100.5t-102 153.5t-36 194t36 193.5t102 153t159.5 101t209.5 36.5t209.5 -36.5t159.5 -101t102 -153t36 -193.5t-36 -194t-102 -153.5t-159.5 -100.5t-209.5 -36zM614 719q-54 0 -98.5 -18t-75.5 -52t-48 -81.5t-17 -105.5
q0 -59 17 -106t48 -81t75.5 -52t98.5 -18t98.5 18t75.5 52t48 81t17 106q0 58 -17 105.5t-48 81.5t-75.5 52t-98.5 18zM767 1250q27 0 58.5 7t63.5 24q23 13 42.5 1.5t35.5 -38.5q14 -27 15 -52t-19 -41q-59 -51 -108.5 -72t-94.5 -21q-42 0 -80 11.5t-74 25.5t-71.5 25.5
t-72.5 11.5q-29 0 -60.5 -7t-63.5 -24q-22 -12 -41.5 -1t-34.5 39q-14 26 -15.5 51t17.5 41q60 52 110 72.5t95 20.5q41 0 79 -11.5t74 -25.5t72 -25.5t73 -11.5z" />
    <glyph glyph-name="ntilde" unicode="&#xf1;" 
d="M217 719h-97q-17 0 -29 4t-19.5 15t-11 31t-3.5 52t3.5 52t11 31.5t19.5 15.5t29 4h244q34 0 48.5 -14.5t14.5 -48.5v-145q70 122 153 176t177 54q69 0 125 -23t95 -65t60.5 -102.5t21.5 -135.5v-415h77q17 0 29 -4t19.5 -15.5t11 -31.5t3.5 -52t-3.5 -52t-11 -31
t-19.5 -15t-29 -4h-374q-17 0 -29 4t-19.5 15t-11 31t-3.5 52t3.5 52t11 31.5t19.5 15.5t29 4h47v356q0 74 -25.5 116t-91.5 42q-45 0 -85.5 -28.5t-71.5 -76.5t-49.5 -112t-18.5 -134v-163h47q17 0 29 -4t19.5 -15.5t11 -31.5t3.5 -52t-3.5 -52t-11 -31t-19.5 -15t-29 -4
h-374q-17 0 -29 4t-19.5 15t-11 31t-3.5 52t3.5 52t11 31.5t19.5 15.5t29 4h77v514zM767 1250q27 0 58.5 7t63.5 24q23 13 42.5 1.5t35.5 -38.5q14 -27 15 -52t-19 -41q-59 -51 -108.5 -72t-94.5 -21q-42 0 -80 11.5t-74 25.5t-71.5 25.5t-72.5 11.5q-29 0 -60.5 -7
t-63.5 -24q-22 -12 -41.5 -1t-34.5 39q-14 26 -15.5 51t17.5 41q60 52 110 72.5t95 20.5q41 0 79 -11.5t74 -25.5t72 -25.5t73 -11.5z" />
    <glyph glyph-name="Ntilde" unicode="&#xd1;" 
d="M180 982h-67q-17 0 -29 4t-19.5 15t-11 31t-3.5 52t3.5 52t11 31.5t19.5 15.5t29 4h264q19 0 33 -6t23 -21l415 -687v509h-88q-17 0 -29 4t-19.5 15t-11 31t-3.5 52t3.5 52t11 31.5t19.5 15.5t29 4h375q17 0 29 -4t19.5 -15.5t11 -31.5t3.5 -52t-3.5 -52t-11 -31
t-19.5 -15t-29 -4h-57v-938q0 -32 -23.5 -49t-86.5 -17q-24 0 -41 3.5t-29.5 10t-21 16.5t-16.5 23l-450 745v-571h107q17 0 29 -4t19.5 -15.5t11 -31.5t3.5 -52t-3.5 -52t-11 -31t-19.5 -15t-29 -4h-404q-17 0 -29 4t-19.5 15t-11 31t-3.5 52t3.5 52t11 31.5t19.5 15.5
t29 4h67v777zM767 1510q27 0 58.5 7t63.5 24q23 13 42.5 1.5t35.5 -38.5q14 -27 15 -52t-19 -41q-59 -51 -108.5 -72t-94.5 -21q-42 0 -80 11.5t-74 25.5t-71.5 25.5t-72.5 11.5q-29 0 -60.5 -7t-63.5 -24q-22 -12 -41.5 -1t-34.5 39q-14 26 -15.5 51t17.5 41
q60 52 110 72.5t95 20.5q41 0 79 -11.5t74 -25.5t72 -25.5t73 -11.5z" />
    <glyph glyph-name="Atilde" unicode="&#xc3;" 
d="M390 982h-167q-17 0 -29 4t-19.5 15.5t-11 31.5t-3.5 52t3.5 52t11 31t19.5 15t29 4h474q40 0 65 -15t36 -50l290 -917h87q17 0 29 -4t19.5 -15t11 -31t3.5 -52t-3.5 -52t-11 -31.5t-19.5 -15.5t-29 -4h-424q-17 0 -29 4t-19.5 15.5t-11 31.5t-3.5 52t3.5 52t11 31
t19.5 15t29 4h86l-45 145h-364l-45 -145h74q17 0 29 -4t19.5 -15t11 -31t3.5 -52t-3.5 -52t-11 -31.5t-19.5 -15.5t-29 -4h-404q-17 0 -29 4t-19.5 15.5t-11 31.5t-3.5 52t3.5 52t11 31t19.5 15t29 4h84zM735 555l-120 427h-6l-123 -427h249zM727 1510q27 0 58.5 7t63.5 24
q23 13 42.5 1.5t35.5 -38.5q14 -27 15 -52t-19 -41q-59 -51 -108.5 -72t-94.5 -21q-42 0 -80 11.5t-74 25.5t-71.5 25.5t-72.5 11.5q-29 0 -60.5 -7t-63.5 -24q-22 -12 -41.5 -1t-34.5 39q-14 26 -15.5 51t17.5 41q60 52 110 72.5t95 20.5q41 0 79 -11.5t74 -25.5t72 -25.5
t73 -11.5z" />
    <glyph glyph-name="Otilde" unicode="&#xd5;" 
d="M614 982q-141 0 -212 -100.5t-71 -287.5t71 -288t212 -101t212 101t71 288t-71 287.5t-212 100.5zM614 1209q124 0 225.5 -42.5t174 -122.5t112 -194t39.5 -256q0 -143 -39.5 -257t-112 -193.5t-174 -122.5t-225.5 -43t-225.5 43t-174 122.5t-112 193.5t-39.5 257
q0 142 39.5 256t112 194t174 122.5t225.5 42.5zM767 1510q27 0 58.5 7t63.5 24q23 13 42.5 1.5t35.5 -38.5q14 -27 15 -52t-19 -41q-59 -51 -108.5 -72t-94.5 -21q-42 0 -80 11.5t-74 25.5t-71.5 25.5t-72.5 11.5q-29 0 -60.5 -7t-63.5 -24q-22 -12 -41.5 -1t-34.5 39
q-14 26 -15.5 51t17.5 41q60 52 110 72.5t95 20.5q41 0 79 -11.5t74 -25.5t72 -25.5t73 -11.5z" />
    <glyph glyph-name="ordfeminine" unicode="&#xaa;" 
d="M776 563q-59 -45 -126.5 -71.5t-141.5 -26.5q-66 0 -118 17t-87.5 48.5t-54.5 77t-19 101.5q0 108 76 167t213 59q51 0 105 -6t112 -17v22q0 48 -32.5 74.5t-116.5 26.5q-46 0 -100.5 -12t-107.5 -29q-31 -10 -50.5 5.5t-34.5 60.5q-11 33 -8.5 59t33.5 37
q72 26 149.5 39.5t140.5 13.5q88 0 149 -19.5t99 -56.5t55 -89t17 -117v-222q0 -31 12.5 -48t37.5 -17h24q26 0 37.5 -15.5t11.5 -64.5q0 -24 -2.5 -39.5t-8.5 -24t-15.5 -11.5t-22.5 -3h-86q-46 0 -83 18.5t-57 62.5zM735 756q-54 11 -102.5 15.5t-95.5 4.5
q-54 0 -82 -19.5t-28 -55.5t27.5 -55t78.5 -19q55 0 107 22t95 57v50z" />
    <glyph glyph-name="ordmasculine" unicode="&#xba;" 
d="M614 465q-89 0 -161 28t-123 77.5t-78.5 117.5t-27.5 149t27.5 149t78.5 117.5t123 77.5t161 28t161 -28t123 -77.5t78.5 -117.5t27.5 -149t-27.5 -149t-78.5 -117.5t-123 -77.5t-161 -28zM614 1035q-42 0 -76 -14t-58 -40t-37 -62.5t-13 -81.5t13 -81.5t37 -62t58 -39.5
t76 -14q85 0 134.5 53t49.5 144t-49.5 144.5t-134.5 53.5z" />
    <glyph glyph-name="florin" unicode="&#x192;" 
d="M487 864l7 73q17 188 116.5 284t274.5 96q56 0 112.5 -8t111.5 -25q17 -5 28.5 -14t17.5 -24.5t5.5 -38.5t-7.5 -56q-7 -32 -17.5 -50.5t-23.5 -27.5t-28 -9.5t-31 3.5q-45 12 -86.5 17.5t-79.5 5.5q-62 0 -99 -39.5t-45 -126.5l-6 -60h237q17 0 29 -5t19.5 -17t11 -33
t3.5 -53t-3.5 -52.5t-11 -32.5t-19.5 -17t-29 -5h-256l-48 -548q-17 -188 -116.5 -284t-274.5 -96q-56 0 -112.5 8t-111.5 25q-17 5 -28.5 14t-17.5 24.5t-6 38.5t8 56q7 31 17.5 50t23.5 28t28 9.5t31 -3.5q45 -12 86.5 -17.5t79.5 -5.5q62 0 99 39.5t45 126.5l47 535h-198
q-17 0 -29 5t-19.5 17t-11 32.5t-3.5 52.5t3.5 53t11 33t19.5 17t29 5h217z" />
    <glyph glyph-name="uni00A0" unicode="&#xa0;" 
 />
    <glyph glyph-name="periodcentered" unicode="&#xb7;" 
d="M406 586q0 43 16.5 81t44.5 66t66 44.5t81 16.5t81 -16.5t66 -44.5t44.5 -66t16.5 -81t-16.5 -81t-44.5 -66t-66 -44.5t-81 -16.5t-81 16.5t-66 44.5t-44.5 66t-16.5 81z" />
    <glyph glyph-name="minus" unicode="&#x2212;" 
d="M995 695q17 0 29 -4.5t19.5 -16.5t11 -34t3.5 -58t-3.5 -58t-11 -34t-19.5 -16t-29 -4h-762q-17 0 -29 4t-19.5 16t-11 34t-3.5 58t3.5 58t11 34t19.5 16.5t29 4.5h762z" />
    <glyph glyph-name="multiply" unicode="&#xd7;" 
d="M455 582l-220 220q-12 12 -17 23.5t-2 25.5t16 32t38 43t43 38t32.5 16.5t25.5 -2t23 -17.5l220 -220l220 220q12 12 23 17.5t25.5 2t32.5 -16.5t43 -38t38 -43t16 -32t-2 -25.5t-17 -23.5l-220 -220l220 -220q12 -12 17.5 -23t2 -25.5t-16.5 -32.5t-38 -43t-43 -38
t-32 -16t-25.5 2t-23.5 17l-220 220l-220 -220q-12 -12 -23.5 -17t-25.5 -2t-32 16t-43 38t-38 43t-16.5 32.5t2 25.5t17.5 23z" />
    <glyph glyph-name="yacute" unicode="&#xfd;" 
d="M103 719q-17 0 -29 4t-19.5 15t-11 31t-3.5 52t3.5 52t11 31.5t19.5 15.5t29 4h404q17 0 29 -4t19.5 -15.5t11 -31.5t3.5 -52t-3.5 -52t-11 -31t-19.5 -15t-29 -4h-60l174 -380l174 380h-54q-17 0 -29 4t-19.5 15t-11 31t-3.5 52t3.5 52t11 31.5t19.5 15.5t29 4h384
q17 0 29 -4t19.5 -15.5t11 -31.5t3.5 -52t-3.5 -52t-11 -31t-19.5 -15t-29 -4h-64l-383 -776q-52 -105 -99.5 -172.5t-103 -107.5t-124 -57t-162.5 -20q-29 -1 -48.5 20t-23.5 83q-2 34 0.5 57.5t9.5 37.5t17 20.5t24 7.5q59 3 100.5 17.5t76 46.5t66.5 84t73 130l-306 629
h-75zM827 1392q28 16 59 -3.5t61 -87.5q30 -69 26.5 -102.5t-29.5 -40.5l-480 -125q-24 -7 -42 4.5t-26 34.5q-8 22 -2.5 41.5t25.5 31.5z" />
    <glyph glyph-name="commaaccent" unicode="&#xf6c3;" 
d="M593 -502q-24 -43 -91 -43q-34 0 -52.5 13.5t-13.5 45.5l53 313q5 27 36 27h222q17 0 23.5 -13t-3.5 -30z" />
    <glyph glyph-name="Abreve" unicode="&#x102;" 
d="M390 982h-167q-17 0 -29 4t-19.5 15.5t-11 31.5t-3.5 52t3.5 52t11 31t19.5 15t29 4h474q40 0 65 -15t36 -50l290 -917h87q17 0 29 -4t19.5 -15t11 -31t3.5 -52t-3.5 -52t-11 -31.5t-19.5 -15.5t-29 -4h-424q-17 0 -29 4t-19.5 15.5t-11 31.5t-3.5 52t3.5 52t11 31
t19.5 15t29 4h86l-45 145h-364l-45 -145h74q17 0 29 -4t19.5 -15t11 -31t3.5 -52t-3.5 -52t-11 -31.5t-19.5 -15.5t-29 -4h-404q-17 0 -29 4t-19.5 15.5t-11 31.5t-3.5 52t3.5 52t11 31t19.5 15t29 4h84zM735 555l-120 427h-6l-123 -427h249zM594 1311q-81 0 -146 18
t-113 51.5t-80 81t-48 106.5q-5 18 3.5 33.5t24 27.5t36 19t38.5 7q31 0 44 -20q17 -28 39 -50.5t51 -38t66 -23.5t85 -8t85 8t66 23.5t51 38t39 50.5q13 20 44 20q18 0 38 -7t36 -19t24.5 -27.5t3.5 -33.5q-16 -59 -48 -106.5t-80 -81t-113 -51.5t-146 -18z" />
    <glyph glyph-name="Amacron" unicode="&#x100;" 
d="M845 1545q17 0 29 -4t19.5 -15.5t11 -31.5t3.5 -52t-3.5 -52t-11 -31t-19.5 -15t-29 -4h-562q-17 0 -29 4t-19.5 15t-11 31t-3.5 52t3.5 52t11 31.5t19.5 15.5t29 4h562zM390 982h-167q-17 0 -29 4t-19.5 15.5t-11 31.5t-3.5 52t3.5 52t11 31t19.5 15t29 4h474
q40 0 65 -15t36 -50l290 -917h87q17 0 29 -4t19.5 -15t11 -31t3.5 -52t-3.5 -52t-11 -31.5t-19.5 -15.5t-29 -4h-424q-17 0 -29 4t-19.5 15.5t-11 31.5t-3.5 52t3.5 52t11 31t19.5 15t29 4h86l-45 145h-364l-45 -145h74q17 0 29 -4t19.5 -15t11 -31t3.5 -52t-3.5 -52
t-11 -31.5t-19.5 -15.5t-29 -4h-404q-17 0 -29 4t-19.5 15.5t-11 31.5t-3.5 52t3.5 52t11 31t19.5 15t29 4h84zM735 555l-120 427h-6l-123 -427h249z" />
    <glyph glyph-name="Aogonek" unicode="&#x104;" 
d="M390 982h-167q-17 0 -29 4t-19.5 15.5t-11 31.5t-3.5 52t3.5 52t11 31t19.5 15t29 4h474q40 0 65 -15t36 -50l290 -917h87q17 0 29 -4t19.5 -15t11 -31t3.5 -52t-3.5 -52t-11 -31.5t-19.5 -15.5t-29 -4h-84q-74 -63 -116.5 -121.5t-42.5 -109.5q0 -35 22.5 -51t65.5 -16
q29 0 58.5 4t61.5 9q20 3 32.5 -15t15.5 -53q6 -71 -37 -85q-51 -16 -106 -25t-110 -9q-118 0 -182 51.5t-64 151.5q0 43 14 80.5t38.5 70.5t58.5 62t74 56h-123q-17 0 -29 4t-19.5 15.5t-11 31.5t-3.5 52t3.5 52t11 31t19.5 15t29 4h86l-45 145h-364l-45 -145h74
q17 0 29 -4t19.5 -15t11 -31t3.5 -52t-3.5 -52t-11 -31.5t-19.5 -15.5t-29 -4h-404q-17 0 -29 4t-19.5 15.5t-11 31.5t-3.5 52t3.5 52t11 31t19.5 15t29 4h84zM735 555l-120 427h-6l-123 -427h249z" />
    <glyph glyph-name="Cacute" unicode="&#x106;" 
d="M842 1662q28 16 59 -3.5t61 -87.5q30 -69 26.5 -102.5t-29.5 -40.5l-480 -125q-24 -7 -42 4.5t-26 34.5q-8 22 -2.5 41.5t25.5 31.5zM1081 84q-105 -52 -212.5 -79t-214.5 -27q-124 0 -225.5 43t-174 122.5t-112 193.5t-39.5 257q0 142 39 256t109 194t165 122.5
t208 42.5q94 0 157.5 -34t102.5 -92v63q0 34 29 48.5t93 14.5q32 0 53 -3.5t33 -11t17 -19.5t5 -29v-384q0 -34 -30 -48.5t-102 -14.5q-36 0 -58.5 3.5t-36 11t-18.5 19.5t-5 29q0 48 -13.5 88.5t-40 70t-65.5 45.5t-91 16q-141 0 -212 -100.5t-71 -287.5t76 -288t217 -101
q92 0 173 25.5t168 69.5q30 15 58 0t50 -75q22 -61 11 -93t-43 -48z" />
    <glyph glyph-name="Ccaron" unicode="&#x10c;" 
d="M1081 84q-105 -52 -212.5 -79t-214.5 -27q-124 0 -225.5 43t-174 122.5t-112 193.5t-39.5 257q0 142 39 256t109 194t165 122.5t208 42.5q94 0 157.5 -34t102.5 -92v63q0 34 29 48.5t93 14.5q32 0 53 -3.5t33 -11t17 -19.5t5 -29v-384q0 -34 -30 -48.5t-102 -14.5
q-36 0 -58.5 3.5t-36 11t-18.5 19.5t-5 29q0 48 -13.5 88.5t-40 70t-65.5 45.5t-91 16q-141 0 -212 -100.5t-71 -287.5t76 -288t217 -101q92 0 173 25.5t168 69.5q30 15 58 0t50 -75q22 -61 11 -93t-43 -48zM903 1654q19 9 36 1.5t31 -25.5q14 -19 13.5 -38.5t-17.5 -35.5
l-287 -261q-11 -10 -25 -14t-30 -4t-30 4t-25 14l-287 261q-17 16 -17.5 35.5t13.5 38.5q14 18 31 25.5t36 -1.5l279 -134z" />
    <glyph glyph-name="Ccircumflex" unicode="&#x108;" 
d="M375 1299q-19 -9 -36 -1.5t-31 25.5q-14 19 -13.5 38.5t17.5 35.5l287 261q11 10 25 14t30 4t30 -4t25 -14l287 -261q17 -16 17.5 -35.5t-13.5 -38.5q-14 -18 -31 -25.5t-36 1.5l-279 134zM1081 84q-105 -52 -212.5 -79t-214.5 -27q-124 0 -225.5 43t-174 122.5
t-112 193.5t-39.5 257q0 142 39 256t109 194t165 122.5t208 42.5q94 0 157.5 -34t102.5 -92v63q0 34 29 48.5t93 14.5q32 0 53 -3.5t33 -11t17 -19.5t5 -29v-384q0 -34 -30 -48.5t-102 -14.5q-36 0 -58.5 3.5t-36 11t-18.5 19.5t-5 29q0 48 -13.5 88.5t-40 70t-65.5 45.5
t-91 16q-141 0 -212 -100.5t-71 -287.5t76 -288t217 -101q92 0 173 25.5t168 69.5q30 15 58 0t50 -75q22 -61 11 -93t-43 -48z" />
    <glyph glyph-name="Cdotaccent" unicode="&#x10a;" 
d="M454 1496q0 37 14 70t38.5 57.5t57.5 38.5t70 14t70 -14t57.5 -38.5t38.5 -57.5t14 -70t-14 -70t-38.5 -57.5t-57.5 -38.5t-70 -14t-70 14t-57.5 38.5t-38.5 57.5t-14 70zM1081 84q-105 -52 -212.5 -79t-214.5 -27q-124 0 -225.5 43t-174 122.5t-112 193.5t-39.5 257
q0 142 39 256t109 194t165 122.5t208 42.5q94 0 157.5 -34t102.5 -92v63q0 34 29 48.5t93 14.5q32 0 53 -3.5t33 -11t17 -19.5t5 -29v-384q0 -34 -30 -48.5t-102 -14.5q-36 0 -58.5 3.5t-36 11t-18.5 19.5t-5 29q0 48 -13.5 88.5t-40 70t-65.5 45.5t-91 16
q-141 0 -212 -100.5t-71 -287.5t76 -288t217 -101q92 0 173 25.5t168 69.5q30 15 58 0t50 -75q22 -61 11 -93t-43 -48z" />
    <glyph glyph-name="Dcaron" unicode="&#x10e;" 
d="M220 982h-97q-17 0 -29 4t-19.5 15t-11 31t-3.5 52t3.5 52t11 31.5t19.5 15.5t29 4h471q131 0 235 -39t176.5 -115t111 -186.5t38.5 -252.5q0 -143 -38.5 -253.5t-111 -186t-176.5 -115t-235 -39.5h-471q-17 0 -29 4t-19.5 15t-11 31t-3.5 52t3.5 52t11 31.5t19.5 15.5
t29 4h97v777zM574 215q156 0 234.5 96t78.5 283t-78.5 282.5t-234.5 95.5h-104v-757h104zM863 1644q19 9 36 1.5t31 -25.5q14 -19 13.5 -38.5t-17.5 -35.5l-287 -261q-11 -10 -25 -14t-30 -4t-30 4t-25 14l-287 261q-17 16 -17.5 35.5t13.5 38.5q14 18 31 25.5t36 -1.5
l279 -134z" />
    <glyph glyph-name="Dcroat" unicode="&#x110;" 
d="M220 982h-97q-17 0 -29 4t-19.5 15t-11 31t-3.5 52t3.5 52t11 31.5t19.5 15.5t29 4h471q131 0 235 -39t176.5 -115t111 -186.5t38.5 -252.5q0 -143 -38.5 -253.5t-111 -186t-176.5 -115t-235 -39.5h-471q-17 0 -29 4t-19.5 15t-11 31t-3.5 52t3.5 52t11 31.5t19.5 15.5
t29 4h97v777zM574 215q156 0 234.5 96t78.5 283t-78.5 282.5t-234.5 95.5h-104v-757h104zM865 1545q17 0 29 -4t19.5 -15.5t11 -31.5t3.5 -52t-3.5 -52t-11 -31t-19.5 -15t-29 -4h-562q-17 0 -29 4t-19.5 15t-11 31t-3.5 52t3.5 52t11 31.5t19.5 15.5t29 4h562z" />
    <glyph glyph-name="Ebreve" unicode="&#x114;" 
d="M220 982h-97q-17 0 -29 4t-19.5 15t-11 31t-3.5 52t3.5 52t11 31.5t19.5 15.5t29 4h912q35 0 50 -15t15 -50v-302q0 -34 -29 -48.5t-93 -14.5q-32 0 -53 3.5t-33 11t-17 19.5t-5 29v152h-400v-253h244q17 0 29 -5t19.5 -17t11 -33t3.5 -53t-3.5 -52.5t-11 -32.5
t-19.5 -17t-29 -5h-244v-289h410v202q0 34 29 48.5t97 14.5q34 0 56 -3.5t35 -11t18 -19.5t5 -29v-352q0 -35 -15 -50t-50 -15h-932q-17 0 -29 4t-19.5 15t-11 31t-3.5 52t3.5 52t11 31.5t19.5 15.5t29 4h97v777zM614 1311q-81 0 -146 18t-113 51.5t-80 81t-48 106.5
q-5 18 3.5 33.5t24 27.5t36 19t38.5 7q31 0 44 -20q17 -28 39 -50.5t51 -38t66 -23.5t85 -8t85 8t66 23.5t51 38t39 50.5q13 20 44 20q18 0 38 -7t36 -19t24.5 -27.5t3.5 -33.5q-16 -59 -48 -106.5t-80 -81t-113 -51.5t-146 -18z" />
    <glyph glyph-name="Ecaron" unicode="&#x11a;" 
d="M220 982h-97q-17 0 -29 4t-19.5 15t-11 31t-3.5 52t3.5 52t11 31.5t19.5 15.5t29 4h912q35 0 50 -15t15 -50v-302q0 -34 -29 -48.5t-93 -14.5q-32 0 -53 3.5t-33 11t-17 19.5t-5 29v152h-400v-253h244q17 0 29 -5t19.5 -17t11 -33t3.5 -53t-3.5 -52.5t-11 -32.5
t-19.5 -17t-29 -5h-244v-289h410v202q0 34 29 48.5t97 14.5q34 0 56 -3.5t35 -11t18 -19.5t5 -29v-352q0 -35 -15 -50t-50 -15h-932q-17 0 -29 4t-19.5 15t-11 31t-3.5 52t3.5 52t11 31.5t19.5 15.5t29 4h97v777zM893 1644q19 9 36 1.5t31 -25.5q14 -19 13.5 -38.5
t-17.5 -35.5l-287 -261q-11 -10 -25 -14t-30 -4t-30 4t-25 14l-287 261q-17 16 -17.5 35.5t13.5 38.5q14 18 31 25.5t36 -1.5l279 -134z" />
    <glyph glyph-name="Edotaccent" unicode="&#x116;" 
d="M434 1496q0 37 14 70t38.5 57.5t57.5 38.5t70 14t70 -14t57.5 -38.5t38.5 -57.5t14 -70t-14 -70t-38.5 -57.5t-57.5 -38.5t-70 -14t-70 14t-57.5 38.5t-38.5 57.5t-14 70zM220 982h-97q-17 0 -29 4t-19.5 15t-11 31t-3.5 52t3.5 52t11 31.5t19.5 15.5t29 4h912
q35 0 50 -15t15 -50v-302q0 -34 -29 -48.5t-93 -14.5q-32 0 -53 3.5t-33 11t-17 19.5t-5 29v152h-400v-253h244q17 0 29 -5t19.5 -17t11 -33t3.5 -53t-3.5 -52.5t-11 -32.5t-19.5 -17t-29 -5h-244v-289h410v202q0 34 29 48.5t97 14.5q34 0 56 -3.5t35 -11t18 -19.5t5 -29
v-352q0 -35 -15 -50t-50 -15h-932q-17 0 -29 4t-19.5 15t-11 31t-3.5 52t3.5 52t11 31.5t19.5 15.5t29 4h97v777z" />
    <glyph glyph-name="Emacron" unicode="&#x112;" 
d="M916 1545q17 0 29 -4t19.5 -15.5t11 -31.5t3.5 -52t-3.5 -52t-11 -31t-19.5 -15t-29 -4h-562q-17 0 -29 4t-19.5 15t-11 31t-3.5 52t3.5 52t11 31.5t19.5 15.5t29 4h562zM220 982h-97q-17 0 -29 4t-19.5 15t-11 31t-3.5 52t3.5 52t11 31.5t19.5 15.5t29 4h912
q35 0 50 -15t15 -50v-302q0 -34 -29 -48.5t-93 -14.5q-32 0 -53 3.5t-33 11t-17 19.5t-5 29v152h-400v-253h244q17 0 29 -5t19.5 -17t11 -33t3.5 -53t-3.5 -52.5t-11 -32.5t-19.5 -17t-29 -5h-244v-289h410v202q0 34 29 48.5t97 14.5q34 0 56 -3.5t35 -11t18 -19.5t5 -29
v-352q0 -35 -15 -50t-50 -15h-932q-17 0 -29 4t-19.5 15t-11 31t-3.5 52t3.5 52t11 31.5t19.5 15.5t29 4h97v777z" />
    <glyph glyph-name="Eogonek" unicode="&#x118;" 
d="M220 982h-97q-17 0 -29 4t-19.5 15t-11 31t-3.5 52t3.5 52t11 31.5t19.5 15.5t29 4h912q35 0 50 -15t15 -50v-302q0 -34 -29 -48.5t-93 -14.5q-32 0 -53 3.5t-33 11t-17 19.5t-5 29v152h-400v-253h244q17 0 29 -5t19.5 -17t11 -33t3.5 -53t-3.5 -52.5t-11 -32.5
t-19.5 -17t-29 -5h-244v-289h410v202q0 34 29 48.5t97 14.5q34 0 56 -3.5t35 -11t18 -19.5t5 -29v-352q0 -35 -15 -50t-50 -15h-24q-74 -63 -116.5 -121.5t-42.5 -109.5q0 -35 22.5 -51t65.5 -16q29 0 58.5 4t61.5 9q20 3 32.5 -15t15.5 -53q6 -71 -37 -85q-51 -16 -106 -25
t-110 -9q-118 0 -182 51.5t-64 151.5q0 43 14 80.5t38.5 70.5t58.5 62t74 56h-691q-17 0 -29 4t-19.5 15t-11 31t-3.5 52t3.5 52t11 31.5t19.5 15.5t29 4h97v777z" />
    <glyph glyph-name="Gbreve" unicode="&#x11e;" 
d="M651 402q-17 0 -29 4t-19.5 15t-11 31t-3.5 52t3.5 52t11 31.5t19.5 15.5t29 4h474q17 0 29 -4t19.5 -15.5t11 -31.5t3.5 -52t-3.5 -52t-11 -31t-19.5 -15t-29 -4h-31v-259q0 -50 -36 -69q-95 -49 -206 -72.5t-228 -23.5q-124 0 -225.5 43t-174 122.5t-112 193.5
t-39.5 257q0 142 39 256t109 194t165 122.5t208 42.5q94 0 157.5 -31.5t102.5 -86.5v55q0 34 29 48.5t93 14.5q32 0 53 -3.5t33 -11t17 -19.5t5 -29v-344q0 -34 -30 -48.5t-102 -14.5q-36 0 -58.5 3.5t-36 11t-18.5 19.5t-5 29q0 84 -51 132t-159 48q-141 0 -212 -100.5
t-71 -287.5t76 -288t217 -101q111 0 210 30v167h-193zM624 1311q-81 0 -146 18t-113 51.5t-80 81t-48 106.5q-5 18 3.5 33.5t24 27.5t36 19t38.5 7q31 0 44 -20q17 -28 39 -50.5t51 -38t66 -23.5t85 -8t85 8t66 23.5t51 38t39 50.5q13 20 44 20q18 0 38 -7t36 -19
t24.5 -27.5t3.5 -33.5q-16 -59 -48 -106.5t-80 -81t-113 -51.5t-146 -18z" />
    <glyph glyph-name="Gcircumflex" unicode="&#x11c;" 
d="M365 1299q-19 -9 -36 -1.5t-31 25.5q-14 19 -13.5 38.5t17.5 35.5l287 261q11 10 25 14t30 4t30 -4t25 -14l287 -261q17 -16 17.5 -35.5t-13.5 -38.5q-14 -18 -31 -25.5t-36 1.5l-279 134zM651 402q-17 0 -29 4t-19.5 15t-11 31t-3.5 52t3.5 52t11 31.5t19.5 15.5t29 4
h474q17 0 29 -4t19.5 -15.5t11 -31.5t3.5 -52t-3.5 -52t-11 -31t-19.5 -15t-29 -4h-31v-259q0 -50 -36 -69q-95 -49 -206 -72.5t-228 -23.5q-124 0 -225.5 43t-174 122.5t-112 193.5t-39.5 257q0 142 39 256t109 194t165 122.5t208 42.5q94 0 157.5 -31.5t102.5 -86.5v55
q0 34 29 48.5t93 14.5q32 0 53 -3.5t33 -11t17 -19.5t5 -29v-344q0 -34 -30 -48.5t-102 -14.5q-36 0 -58.5 3.5t-36 11t-18.5 19.5t-5 29q0 84 -51 132t-159 48q-141 0 -212 -100.5t-71 -287.5t76 -288t217 -101q111 0 210 30v167h-193z" />
    <glyph glyph-name="Gcommaaccent" unicode="&#x122;" 
d="M651 402q-17 0 -29 4t-19.5 15t-11 31t-3.5 52t3.5 52t11 31.5t19.5 15.5t29 4h474q17 0 29 -4t19.5 -15.5t11 -31.5t3.5 -52t-3.5 -52t-11 -31t-19.5 -15t-29 -4h-31v-259q0 -50 -36 -69q-95 -49 -206 -72.5t-228 -23.5q-124 0 -225.5 43t-174 122.5t-112 193.5
t-39.5 257q0 142 39 256t109 194t165 122.5t208 42.5q94 0 157.5 -31.5t102.5 -86.5v55q0 34 29 48.5t93 14.5q32 0 53 -3.5t33 -11t17 -19.5t5 -29v-344q0 -34 -30 -48.5t-102 -14.5q-36 0 -58.5 3.5t-36 11t-18.5 19.5t-5 29q0 84 -51 132t-159 48q-141 0 -212 -100.5
t-71 -287.5t76 -288t217 -101q111 0 210 30v167h-193zM593 -502q-24 -43 -91 -43q-34 0 -52.5 13.5t-13.5 45.5l53 313q5 27 36 27h222q17 0 23.5 -13t-3.5 -30z" />
    <glyph glyph-name="Gdotaccent" unicode="&#x120;" 
d="M444 1496q0 37 14 70t38.5 57.5t57.5 38.5t70 14t70 -14t57.5 -38.5t38.5 -57.5t14 -70t-14 -70t-38.5 -57.5t-57.5 -38.5t-70 -14t-70 14t-57.5 38.5t-38.5 57.5t-14 70zM651 402q-17 0 -29 4t-19.5 15t-11 31t-3.5 52t3.5 52t11 31.5t19.5 15.5t29 4h474q17 0 29 -4
t19.5 -15.5t11 -31.5t3.5 -52t-3.5 -52t-11 -31t-19.5 -15t-29 -4h-31v-259q0 -50 -36 -69q-95 -49 -206 -72.5t-228 -23.5q-124 0 -225.5 43t-174 122.5t-112 193.5t-39.5 257q0 142 39 256t109 194t165 122.5t208 42.5q94 0 157.5 -31.5t102.5 -86.5v55q0 34 29 48.5
t93 14.5q32 0 53 -3.5t33 -11t17 -19.5t5 -29v-344q0 -34 -30 -48.5t-102 -14.5q-36 0 -58.5 3.5t-36 11t-18.5 19.5t-5 29q0 84 -51 132t-159 48q-141 0 -212 -100.5t-71 -287.5t76 -288t217 -101q111 0 210 30v167h-193z" />
    <glyph glyph-name="Hbar" unicode="&#x126;" 
d="M170 768h-77q-34 0 -48.5 15t-14.5 53t14.5 53t48.5 15h77v78h-57q-17 0 -29 4t-19.5 15t-11 31t-3.5 52t3.5 52t11 31.5t19.5 15.5t29 4h374q17 0 29 -4t19.5 -15.5t11 -31.5t3.5 -52t-3.5 -52t-11 -31t-19.5 -15t-29 -4h-67v-78h388v78h-67q-17 0 -29 4t-19.5 15
t-11 31t-3.5 52t3.5 52t11 31.5t19.5 15.5t29 4h374q17 0 29 -4t19.5 -15.5t11 -31.5t3.5 -52t-3.5 -52t-11 -31t-19.5 -15t-29 -4h-57v-78h77q34 0 48.5 -15t14.5 -53t-14.5 -53t-48.5 -15h-77v-563h57q17 0 29 -4t19.5 -15.5t11 -31.5t3.5 -52t-3.5 -52t-11 -31t-19.5 -15
t-29 -4h-374q-17 0 -29 4t-19.5 15t-11 31t-3.5 52t3.5 52t11 31.5t19.5 15.5t29 4h67v259h-388v-259h67q17 0 29 -4t19.5 -15.5t11 -31.5t3.5 -52t-3.5 -52t-11 -31t-19.5 -15t-29 -4h-374q-17 0 -29 4t-19.5 15t-11 31t-3.5 52t3.5 52t11 31.5t19.5 15.5t29 4h57v563z
M808 679v89h-388v-89h388z" />
    <glyph glyph-name="Hcircumflex" unicode="&#x124;" 
d="M170 982h-57q-17 0 -29 4t-19.5 15t-11 31t-3.5 52t3.5 52t11 31.5t19.5 15.5t29 4h374q17 0 29 -4t19.5 -15.5t11 -31.5t3.5 -52t-3.5 -52t-11 -31t-19.5 -15t-29 -4h-67v-263h388v263h-67q-17 0 -29 4t-19.5 15t-11 31t-3.5 52t3.5 52t11 31.5t19.5 15.5t29 4h374
q17 0 29 -4t19.5 -15.5t11 -31.5t3.5 -52t-3.5 -52t-11 -31t-19.5 -15t-29 -4h-57v-777h57q17 0 29 -4t19.5 -15.5t11 -31.5t3.5 -52t-3.5 -52t-11 -31t-19.5 -15t-29 -4h-374q-17 0 -29 4t-19.5 15t-11 31t-3.5 52t3.5 52t11 31.5t19.5 15.5t29 4h67v299h-388v-299h67
q17 0 29 -4t19.5 -15.5t11 -31.5t3.5 -52t-3.5 -52t-11 -31t-19.5 -15t-29 -4h-374q-17 0 -29 4t-19.5 15t-11 31t-3.5 52t3.5 52t11 31.5t19.5 15.5t29 4h57v777zM335 1299q-19 -9 -36 -1.5t-31 25.5q-14 19 -13.5 38.5t17.5 35.5l287 261q11 10 25 14t30 4t30 -4t25 -14
l287 -261q17 -16 17.5 -35.5t-13.5 -38.5q-14 -18 -31 -25.5t-36 1.5l-279 134z" />
    <glyph glyph-name="Ibreve" unicode="&#x12c;" 
d="M489 982h-236q-17 0 -29 4t-19.5 15t-11 31t-3.5 52t3.5 52t11 31.5t19.5 15.5t29 4h722q17 0 29 -4t19.5 -15.5t11 -31.5t3.5 -52t-3.5 -52t-11 -31t-19.5 -15t-29 -4h-236v-777h256q17 0 29 -4t19.5 -15.5t11 -31.5t3.5 -52t-3.5 -52t-11 -31t-19.5 -15t-29 -4h-762
q-17 0 -29 4t-19.5 15t-11 31t-3.5 52t3.5 52t11 31.5t19.5 15.5t29 4h256v777zM614 1311q-81 0 -146 18t-113 51.5t-80 81t-48 106.5q-5 18 3.5 33.5t24 27.5t36 19t38.5 7q31 0 44 -20q17 -28 39 -50.5t51 -38t66 -23.5t85 -8t85 8t66 23.5t51 38t39 50.5q13 20 44 20
q18 0 38 -7t36 -19t24.5 -27.5t3.5 -33.5q-16 -59 -48 -106.5t-80 -81t-113 -51.5t-146 -18z" />
    <glyph glyph-name="Idotaccent" unicode="&#x130;" 
d="M489 982h-236q-17 0 -29 4t-19.5 15t-11 31t-3.5 52t3.5 52t11 31.5t19.5 15.5t29 4h722q17 0 29 -4t19.5 -15.5t11 -31.5t3.5 -52t-3.5 -52t-11 -31t-19.5 -15t-29 -4h-236v-777h256q17 0 29 -4t19.5 -15.5t11 -31.5t3.5 -52t-3.5 -52t-11 -31t-19.5 -15t-29 -4h-762
q-17 0 -29 4t-19.5 15t-11 31t-3.5 52t3.5 52t11 31.5t19.5 15.5t29 4h256v777zM434 1496q0 37 14 70t38.5 57.5t57.5 38.5t70 14t70 -14t57.5 -38.5t38.5 -57.5t14 -70t-14 -70t-38.5 -57.5t-57.5 -38.5t-70 -14t-70 14t-57.5 38.5t-38.5 57.5t-14 70z" />
    <glyph glyph-name="Imacron" unicode="&#x12a;" 
d="M489 982h-236q-17 0 -29 4t-19.5 15t-11 31t-3.5 52t3.5 52t11 31.5t19.5 15.5t29 4h722q17 0 29 -4t19.5 -15.5t11 -31.5t3.5 -52t-3.5 -52t-11 -31t-19.5 -15t-29 -4h-236v-777h256q17 0 29 -4t19.5 -15.5t11 -31.5t3.5 -52t-3.5 -52t-11 -31t-19.5 -15t-29 -4h-762
q-17 0 -29 4t-19.5 15t-11 31t-3.5 52t3.5 52t11 31.5t19.5 15.5t29 4h256v777zM895 1545q17 0 29 -4t19.5 -15.5t11 -31.5t3.5 -52t-3.5 -52t-11 -31t-19.5 -15t-29 -4h-562q-17 0 -29 4t-19.5 15t-11 31t-3.5 52t3.5 52t11 31.5t19.5 15.5t29 4h562z" />
    <glyph glyph-name="Iogonek" unicode="&#x12e;" 
d="M489 982h-236q-17 0 -29 4t-19.5 15t-11 31t-3.5 52t3.5 52t11 31.5t19.5 15.5t29 4h722q17 0 29 -4t19.5 -15.5t11 -31.5t3.5 -52t-3.5 -52t-11 -31t-19.5 -15t-29 -4h-236v-777h256q17 0 29 -4t19.5 -15.5t11 -31.5t3.5 -52t-3.5 -52t-11 -31t-19.5 -15t-29 -4h-274
q-74 -63 -116.5 -121.5t-42.5 -109.5q0 -35 22.5 -51t65.5 -16q29 0 58.5 4t61.5 9q20 3 32.5 -15t15.5 -53q6 -71 -37 -85q-51 -16 -106 -25t-110 -9q-118 0 -182 51.5t-64 151.5q0 43 14 80.5t38.5 70.5t58.5 62t74 56h-271q-17 0 -29 4t-19.5 15t-11 31t-3.5 52t3.5 52
t11 31.5t19.5 15.5t29 4h256v777z" />
    <glyph glyph-name="Itilde" unicode="&#x128;" 
d="M767 1510q27 0 58.5 7t63.5 24q23 13 42.5 1.5t35.5 -38.5q14 -27 15 -52t-19 -41q-59 -51 -108.5 -72t-94.5 -21q-42 0 -80 11.5t-74 25.5t-71.5 25.5t-72.5 11.5q-29 0 -60.5 -7t-63.5 -24q-22 -12 -41.5 -1t-34.5 39q-14 26 -15.5 51t17.5 41q60 52 110 72.5t95 20.5
q41 0 79 -11.5t74 -25.5t72 -25.5t73 -11.5zM489 982h-236q-17 0 -29 4t-19.5 15t-11 31t-3.5 52t3.5 52t11 31.5t19.5 15.5t29 4h722q17 0 29 -4t19.5 -15.5t11 -31.5t3.5 -52t-3.5 -52t-11 -31t-19.5 -15t-29 -4h-236v-777h256q17 0 29 -4t19.5 -15.5t11 -31.5t3.5 -52
t-3.5 -52t-11 -31t-19.5 -15t-29 -4h-762q-17 0 -29 4t-19.5 15t-11 31t-3.5 52t3.5 52t11 31.5t19.5 15.5t29 4h256v777z" />
    <glyph glyph-name="Jcircumflex" unicode="&#x134;" 
d="M495 1299q-19 -9 -36 -1.5t-31 25.5q-14 19 -13.5 38.5t17.5 35.5l287 261q11 10 25 14t30 4t30 -4t25 -14l287 -261q17 -16 17.5 -35.5t-13.5 -38.5q-14 -18 -31 -25.5t-36 1.5l-279 134zM373 982q-17 0 -29 4t-19.5 15t-11 31t-3.5 52t3.5 52t11 31.5t19.5 15.5t29 4
h742q17 0 29 -4t19.5 -15.5t11 -31.5t3.5 -52t-3.5 -52t-11 -31t-19.5 -15t-29 -4h-186v-619q0 -194 -108.5 -289.5t-316.5 -95.5q-235 0 -389 147q-16 16 -16 50v324q0 34 30 48.5t102 14.5q36 0 58.5 -3.5t36 -11t18.5 -19.5t5 -29v-260q69 -34 166 -34q81 0 122.5 42.5
t41.5 135.5v599h-306z" />
    <glyph glyph-name="Kcommaaccent" unicode="&#x136;" 
d="M220 982h-107q-17 0 -29 4t-19.5 15t-11 31t-3.5 52t3.5 52t11 31.5t19.5 15.5t29 4h404q17 0 29 -4t19.5 -15.5t11 -31.5t3.5 -52t-3.5 -52t-11 -31t-19.5 -15t-29 -4h-47v-320l324 320h-53q-17 0 -29 4t-19.5 15t-11 31t-3.5 52t3.5 52t11 31.5t19.5 15.5t29 4h389
q17 0 29 -4t19.5 -15.5t11 -31.5t3.5 -52t-3.5 -52t-11 -31t-19.5 -15t-29 -4h-43l-350 -341q57 -3 103 -30.5t79 -75.5q22 -31 39.5 -64t33.5 -66t31 -64.5t31 -58.5q20 -35 44.5 -56t56.5 -21h10q17 0 29 -4t19.5 -15.5t11 -31.5t3.5 -52t-3.5 -52t-11 -31t-19.5 -15
t-29 -4h-139q-33 0 -60 11.5t-49 31t-40 45t-33 54.5q-16 30 -30.5 62t-29.5 63.5t-29.5 60.5t-30.5 53q-26 38 -57.5 61t-66.5 23q-44 0 -79 -34l-51 -50v-176h115q17 0 29 -4t19.5 -15.5t11 -31.5t3.5 -52t-3.5 -52t-11 -31t-19.5 -15t-29 -4h-472q-17 0 -29 4t-19.5 15
t-11 31t-3.5 52t3.5 52t11 31.5t19.5 15.5t29 4h107v777zM613 -502q-24 -43 -91 -43q-34 0 -52.5 13.5t-13.5 45.5l53 313q5 27 36 27h222q17 0 23.5 -13t-3.5 -30z" />
    <glyph glyph-name="Lacute" unicode="&#x139;" 
d="M622 1662q28 16 59 -3.5t61 -87.5q30 -69 26.5 -102.5t-29.5 -40.5l-480 -125q-24 -7 -42 4.5t-26 34.5q-8 22 -2.5 41.5t25.5 31.5zM269 982h-146q-17 0 -29 4t-19.5 15t-11 31t-3.5 52t3.5 52t11 31.5t19.5 15.5t29 4h614q17 0 29 -4t19.5 -15.5t11 -31.5t3.5 -52
t-3.5 -52t-11 -31t-19.5 -15t-29 -4h-218v-767h351v312q0 34 30 48.5t102 14.5q36 0 58.5 -3.5t36 -11t18.5 -19.5t5 -29v-462q0 -35 -15 -50t-50 -15h-932q-17 0 -29 4t-19.5 15t-11 31t-3.5 52t3.5 52t11 31.5t19.5 15.5t29 4h146v777z" />
    <glyph glyph-name="Lcaron" unicode="&#x13d;" 
d="M934.54 728.428q-14.0596 -27.3164 -33.4951 -38.9043q-19.4346 -11.5889 -54.1699 -11.5889q-41.3516 0 -57.0645 16.1416q-15.7139 16.1406 -9.09766 55.0459l69.4707 390.702q6.61523 33.1104 43.0049 33.1104h214.2q20.6758 0 27.291 -15.3135
q6.61719 -15.3145 -4.13477 -36.8359zM269 982h-146q-17 0 -29 4t-19.5 15t-11 31t-3.5 52t3.5 52t11 31.5t19.5 15.5t29 4h614q17 0 29 -4t19.5 -15.5t11 -31.5t3.5 -52t-3.5 -52t-11 -31t-19.5 -15t-29 -4h-218v-767h351v312q0 34 30 48.5t102 14.5q36 0 58.5 -3.5t36 -11
t18.5 -19.5t5 -29v-462q0 -35 -15 -50t-50 -15h-932q-17 0 -29 4t-19.5 15t-11 31t-3.5 52t3.5 52t11 31.5t19.5 15.5t29 4h146v777z" />
    <glyph glyph-name="Lcommaaccent" unicode="&#x13b;" 
d="M269 982h-146q-17 0 -29 4t-19.5 15t-11 31t-3.5 52t3.5 52t11 31.5t19.5 15.5t29 4h614q17 0 29 -4t19.5 -15.5t11 -31.5t3.5 -52t-3.5 -52t-11 -31t-19.5 -15t-29 -4h-218v-767h351v312q0 34 30 48.5t102 14.5q36 0 58.5 -3.5t36 -11t18.5 -19.5t5 -29v-462
q0 -35 -15 -50t-50 -15h-932q-17 0 -29 4t-19.5 15t-11 31t-3.5 52t3.5 52t11 31.5t19.5 15.5t29 4h146v777zM593 -502q-24 -43 -91 -43q-34 0 -52.5 13.5t-13.5 45.5l53 313q5 27 36 27h222q17 0 23.5 -13t-3.5 -30z" />
    <glyph glyph-name="Ldot" unicode="&#x13f;" 
d="M269 982h-146q-17 0 -29 4t-19.5 15t-11 31t-3.5 52t3.5 52t11 31.5t19.5 15.5t29 4h614q17 0 29 -4t19.5 -15.5t11 -31.5t3.5 -52t-3.5 -52t-11 -31t-19.5 -15t-29 -4h-218v-767h351v182q0 34 30 48.5t102 14.5q36 0 58.5 -3.5t36 -11t18.5 -19.5t5 -29v-332
q0 -35 -15 -50t-50 -15h-932q-17 0 -29 4t-19.5 15t-11 31t-3.5 52t3.5 52t11 31.5t19.5 15.5t29 4h146v777zM634 716q0 37 14 70t38.5 57.5t57.5 38.5t70 14t70 -14t57.5 -38.5t38.5 -57.5t14 -70t-14 -70t-38.5 -57.5t-57.5 -38.5t-70 -14t-70 14t-57.5 38.5t-38.5 57.5
t-14 70z" />
    <glyph glyph-name="Nacute" unicode="&#x143;" 
d="M822 1662q28 16 59 -3.5t61 -87.5q30 -69 26.5 -102.5t-29.5 -40.5l-480 -125q-24 -7 -42 4.5t-26 34.5q-8 22 -2.5 41.5t25.5 31.5zM180 982h-67q-17 0 -29 4t-19.5 15t-11 31t-3.5 52t3.5 52t11 31.5t19.5 15.5t29 4h264q19 0 33 -6t23 -21l415 -687v509h-88
q-17 0 -29 4t-19.5 15t-11 31t-3.5 52t3.5 52t11 31.5t19.5 15.5t29 4h375q17 0 29 -4t19.5 -15.5t11 -31.5t3.5 -52t-3.5 -52t-11 -31t-19.5 -15t-29 -4h-57v-938q0 -32 -23.5 -49t-86.5 -17q-24 0 -41 3.5t-29.5 10t-21 16.5t-16.5 23l-450 745v-571h107q17 0 29 -4
t19.5 -15.5t11 -31.5t3.5 -52t-3.5 -52t-11 -31t-19.5 -15t-29 -4h-404q-17 0 -29 4t-19.5 15t-11 31t-3.5 52t3.5 52t11 31.5t19.5 15.5t29 4h67v777z" />
    <glyph glyph-name="Ncaron" unicode="&#x147;" 
d="M180 982h-67q-17 0 -29 4t-19.5 15t-11 31t-3.5 52t3.5 52t11 31.5t19.5 15.5t29 4h264q19 0 33 -6t23 -21l415 -687v509h-88q-17 0 -29 4t-19.5 15t-11 31t-3.5 52t3.5 52t11 31.5t19.5 15.5t29 4h375q17 0 29 -4t19.5 -15.5t11 -31.5t3.5 -52t-3.5 -52t-11 -31
t-19.5 -15t-29 -4h-57v-938q0 -32 -23.5 -49t-86.5 -17q-24 0 -41 3.5t-29.5 10t-21 16.5t-16.5 23l-450 745v-571h107q17 0 29 -4t19.5 -15.5t11 -31.5t3.5 -52t-3.5 -52t-11 -31t-19.5 -15t-29 -4h-404q-17 0 -29 4t-19.5 15t-11 31t-3.5 52t3.5 52t11 31.5t19.5 15.5
t29 4h67v777zM893 1644q19 9 36 1.5t31 -25.5q14 -19 13.5 -38.5t-17.5 -35.5l-287 -261q-11 -10 -25 -14t-30 -4t-30 4t-25 14l-287 261q-17 16 -17.5 35.5t13.5 38.5q14 18 31 25.5t36 -1.5l279 -134z" />
    <glyph glyph-name="Ncommaaccent" unicode="&#x145;" 
d="M180 982h-67q-17 0 -29 4t-19.5 15t-11 31t-3.5 52t3.5 52t11 31.5t19.5 15.5t29 4h264q19 0 33 -6t23 -21l415 -687v509h-88q-17 0 -29 4t-19.5 15t-11 31t-3.5 52t3.5 52t11 31.5t19.5 15.5t29 4h375q17 0 29 -4t19.5 -15.5t11 -31.5t3.5 -52t-3.5 -52t-11 -31
t-19.5 -15t-29 -4h-57v-938q0 -32 -23.5 -49t-86.5 -17q-24 0 -41 3.5t-29.5 10t-21 16.5t-16.5 23l-450 745v-571h107q17 0 29 -4t19.5 -15.5t11 -31.5t3.5 -52t-3.5 -52t-11 -31t-19.5 -15t-29 -4h-404q-17 0 -29 4t-19.5 15t-11 31t-3.5 52t3.5 52t11 31.5t19.5 15.5
t29 4h67v777zM593 -502q-24 -43 -91 -43q-34 0 -52.5 13.5t-13.5 45.5l53 313q5 27 36 27h222q17 0 23.5 -13t-3.5 -30z" />
    <glyph glyph-name="Obreve" unicode="&#x14e;" 
d="M614 982q-141 0 -212 -100.5t-71 -287.5t71 -288t212 -101t212 101t71 288t-71 287.5t-212 100.5zM614 1209q124 0 225.5 -42.5t174 -122.5t112 -194t39.5 -256q0 -143 -39.5 -257t-112 -193.5t-174 -122.5t-225.5 -43t-225.5 43t-174 122.5t-112 193.5t-39.5 257
q0 142 39.5 256t112 194t174 122.5t225.5 42.5zM614 1311q-81 0 -146 18t-113 51.5t-80 81t-48 106.5q-5 18 3.5 33.5t24 27.5t36 19t38.5 7q31 0 44 -20q17 -28 39 -50.5t51 -38t66 -23.5t85 -8t85 8t66 23.5t51 38t39 50.5q13 20 44 20q18 0 38 -7t36 -19t24.5 -27.5
t3.5 -33.5q-16 -59 -48 -106.5t-80 -81t-113 -51.5t-146 -18z" />
    <glyph glyph-name="Ohungarumlaut" unicode="&#x150;" 
d="M614 982q-141 0 -212 -100.5t-71 -287.5t71 -288t212 -101t212 101t71 288t-71 287.5t-212 100.5zM614 1209q124 0 225.5 -42.5t174 -122.5t112 -194t39.5 -256q0 -143 -39.5 -257t-112 -193.5t-174 -122.5t-225.5 -43t-225.5 43t-174 122.5t-112 193.5t-39.5 257
q0 142 39.5 256t112 194t174 122.5t225.5 42.5zM435 1336q-18 -13 -50 -13q-35 0 -58.5 17.5t-23.5 40.5q0 17 12 29l198 210q16 17 41 25t54 8q32 0 57 -8.5t42 -21t26 -26.5t9 -26q0 -21 -19 -34zM835 1336q-18 -13 -50 -13q-35 0 -58.5 17.5t-23.5 40.5q0 17 12 29
l198 210q16 17 41 25t54 8q32 0 57 -8.5t42 -21t26 -26.5t9 -26q0 -21 -19 -34z" />
    <glyph glyph-name="Omacron" unicode="&#x14c;" 
d="M614 982q-141 0 -212 -100.5t-71 -287.5t71 -288t212 -101t212 101t71 288t-71 287.5t-212 100.5zM614 1209q124 0 225.5 -42.5t174 -122.5t112 -194t39.5 -256q0 -143 -39.5 -257t-112 -193.5t-174 -122.5t-225.5 -43t-225.5 43t-174 122.5t-112 193.5t-39.5 257
q0 142 39.5 256t112 194t174 122.5t225.5 42.5zM895 1545q17 0 29 -4t19.5 -15.5t11 -31.5t3.5 -52t-3.5 -52t-11 -31t-19.5 -15t-29 -4h-562q-17 0 -29 4t-19.5 15t-11 31t-3.5 52t3.5 52t11 31.5t19.5 15.5t29 4h562z" />
    <glyph glyph-name="Racute" unicode="&#x154;" 
d="M802 1662q28 16 59 -3.5t61 -87.5q30 -69 26.5 -102.5t-29.5 -40.5l-480 -125q-24 -7 -42 4.5t-26 34.5q-8 22 -2.5 41.5t25.5 31.5zM230 982h-107q-17 0 -29 4t-19.5 15t-11 31t-3.5 52t3.5 52t11 31.5t19.5 15.5t29 4h527q211 0 324 -92t113 -271q0 -120 -61 -191
t-177 -100q23 -11 42.5 -25.5t36.5 -31.5q22 -23 40 -50t33 -54t28.5 -53t27.5 -48q19 -29 40 -47.5t49 -18.5h19q17 0 29 -4t19.5 -15.5t11 -31.5t3.5 -52t-3.5 -52t-11 -31t-19.5 -15t-29 -4h-107q-66 0 -114.5 33.5t-92.5 105.5q-32 53 -58.5 112t-64.5 113
q-18 26 -38.5 44.5t-45 30t-55.5 17t-71 5.5h-38v-256h117q17 0 29 -4t19.5 -15.5t11 -31.5t3.5 -52t-3.5 -52t-11 -31t-19.5 -15t-29 -4h-474q-17 0 -29 4t-19.5 15t-11 31t-3.5 52t3.5 52t11 31.5t19.5 15.5t29 4h107v777zM629 676q103 0 151.5 36.5t48.5 111.5
t-48.5 111.5t-151.5 36.5h-149v-296h149z" />
    <glyph glyph-name="Rcaron" unicode="&#x158;" 
d="M230 982h-107q-17 0 -29 4t-19.5 15t-11 31t-3.5 52t3.5 52t11 31.5t19.5 15.5t29 4h527q211 0 324 -92t113 -271q0 -120 -61 -191t-177 -100q23 -11 42.5 -25.5t36.5 -31.5q22 -23 40 -50t33 -54t28.5 -53t27.5 -48q19 -29 40 -47.5t49 -18.5h19q17 0 29 -4t19.5 -15.5
t11 -31.5t3.5 -52t-3.5 -52t-11 -31t-19.5 -15t-29 -4h-107q-66 0 -114.5 33.5t-92.5 105.5q-32 53 -58.5 112t-64.5 113q-18 26 -38.5 44.5t-45 30t-55.5 17t-71 5.5h-38v-256h117q17 0 29 -4t19.5 -15.5t11 -31.5t3.5 -52t-3.5 -52t-11 -31t-19.5 -15t-29 -4h-474
q-17 0 -29 4t-19.5 15t-11 31t-3.5 52t3.5 52t11 31.5t19.5 15.5t29 4h107v777zM629 676q103 0 151.5 36.5t48.5 111.5t-48.5 111.5t-151.5 36.5h-149v-296h149zM873 1644q19 9 36 1.5t31 -25.5q14 -19 13.5 -38.5t-17.5 -35.5l-287 -261q-11 -10 -25 -14t-30 -4t-30 4
t-25 14l-287 261q-17 16 -17.5 35.5t13.5 38.5q14 18 31 25.5t36 -1.5l279 -134z" />
    <glyph glyph-name="Rcommaaccent" unicode="&#x156;" 
d="M230 982h-107q-17 0 -29 4t-19.5 15t-11 31t-3.5 52t3.5 52t11 31.5t19.5 15.5t29 4h527q211 0 324 -92t113 -271q0 -120 -61 -191t-177 -100q23 -11 42.5 -25.5t36.5 -31.5q22 -23 40 -50t33 -54t28.5 -53t27.5 -48q19 -29 40 -47.5t49 -18.5h19q17 0 29 -4t19.5 -15.5
t11 -31.5t3.5 -52t-3.5 -52t-11 -31t-19.5 -15t-29 -4h-107q-66 0 -114.5 33.5t-92.5 105.5q-32 53 -58.5 112t-64.5 113q-18 26 -38.5 44.5t-45 30t-55.5 17t-71 5.5h-38v-256h117q17 0 29 -4t19.5 -15.5t11 -31.5t3.5 -52t-3.5 -52t-11 -31t-19.5 -15t-29 -4h-474
q-17 0 -29 4t-19.5 15t-11 31t-3.5 52t3.5 52t11 31.5t19.5 15.5t29 4h107v777zM629 676q103 0 151.5 36.5t48.5 111.5t-48.5 111.5t-151.5 36.5h-149v-296h149zM593 -502q-24 -43 -91 -43q-34 0 -52.5 13.5t-13.5 45.5l53 313q5 27 36 27h222q17 0 23.5 -13t-3.5 -30z" />
    <glyph glyph-name="Sacute" unicode="&#x15a;" 
d="M389 41q0 -34 -24 -48.5t-88 -14.5t-91 14.5t-27 48.5v334q0 34 21.5 48.5t70.5 14.5q35 0 55.5 -9t31.5 -31q54 -102 128 -154.5t176 -52.5q90 0 135 36.5t45 99.5q0 42 -21.5 69t-58.5 45q-40 19 -93 31.5t-111 24.5t-117 27.5t-110 42.5q-35 18 -64.5 43t-51.5 58.5
t-34 77.5t-12 100q0 80 28 146.5t79.5 114.5t123 75t158.5 27q81 0 148.5 -26t117.5 -74v37q0 34 24 48.5t88 14.5t91 -14.5t27 -48.5v-274q0 -34 -21.5 -48.5t-70.5 -14.5q-34 0 -52.5 8t-29.5 24q-46 72 -119 113.5t-173 41.5q-75 0 -115.5 -38t-40.5 -95q0 -30 19 -48.5
t51 -31.5q39 -15 93.5 -24.5t115 -21.5t122 -30t114.5 -50q34 -21 63.5 -49.5t51 -66.5t33.5 -87t12 -110q0 -81 -25.5 -148.5t-77.5 -115.5t-129.5 -75t-182.5 -27q-167 0 -283 101v-38zM802 1662q28 16 59 -3.5t61 -87.5q30 -69 26.5 -102.5t-29.5 -40.5l-480 -125
q-24 -7 -42 4.5t-26 34.5q-8 22 -2.5 41.5t25.5 31.5z" />
    <glyph glyph-name="Scedilla" unicode="&#x15e;" 
d="M389 41q0 -34 -24 -48.5t-88 -14.5t-91 14.5t-27 48.5v334q0 34 21.5 48.5t70.5 14.5q35 0 55.5 -9t31.5 -31q54 -102 128 -154.5t176 -52.5q90 0 135 36.5t45 99.5q0 42 -21.5 69t-58.5 45q-40 19 -93 31.5t-111 24.5t-117 27.5t-110 42.5q-35 18 -64.5 43t-51.5 58.5
t-34 77.5t-12 100q0 80 28 146.5t79.5 114.5t123 75t158.5 27q81 0 148.5 -26t117.5 -74v37q0 34 24 48.5t88 14.5t91 -14.5t27 -48.5v-274q0 -34 -21.5 -48.5t-70.5 -14.5q-34 0 -52.5 8t-29.5 24q-46 72 -119 113.5t-173 41.5q-75 0 -115.5 -38t-40.5 -95q0 -30 19 -48.5
t51 -31.5q39 -15 93.5 -24.5t115 -21.5t122 -30t114.5 -50q34 -21 63.5 -49.5t51 -66.5t33.5 -87t12 -110q0 -78 -23.5 -143t-71.5 -113t-120 -76.5t-168 -32.5v-72q58 2 101 -11t70.5 -38t41 -60.5t13.5 -78.5q0 -91 -70.5 -141t-208.5 -50q-75 0 -140.5 11t-118.5 31
q-19 8 -20.5 29t9.5 53q13 35 28.5 50.5t35.5 9.5q39 -15 76 -24.5t87 -9.5q86 0 86 53q0 21 -11 32.5t-28 17t-39.5 4.5t-44.5 -6q-17 -4 -29.5 5.5t-12.5 35.5v180q-80 26 -140 79v-38z" />
    <glyph glyph-name="Scircumflex" unicode="&#x15c;" 
d="M331 1299q-19 -9 -36 -1.5t-31 25.5q-14 19 -13.5 38.5t17.5 35.5l287 261q11 10 25 14t30 4t30 -4t25 -14l287 -261q17 -16 17.5 -35.5t-13.5 -38.5q-14 -18 -31 -25.5t-36 1.5l-279 134zM389 41q0 -34 -24 -48.5t-88 -14.5t-91 14.5t-27 48.5v334q0 34 21.5 48.5
t70.5 14.5q35 0 55.5 -9t31.5 -31q54 -102 128 -154.5t176 -52.5q90 0 135 36.5t45 99.5q0 42 -21.5 69t-58.5 45q-40 19 -93 31.5t-111 24.5t-117 27.5t-110 42.5q-35 18 -64.5 43t-51.5 58.5t-34 77.5t-12 100q0 80 28 146.5t79.5 114.5t123 75t158.5 27q81 0 148.5 -26
t117.5 -74v37q0 34 24 48.5t88 14.5t91 -14.5t27 -48.5v-274q0 -34 -21.5 -48.5t-70.5 -14.5q-34 0 -52.5 8t-29.5 24q-46 72 -119 113.5t-173 41.5q-75 0 -115.5 -38t-40.5 -95q0 -30 19 -48.5t51 -31.5q39 -15 93.5 -24.5t115 -21.5t122 -30t114.5 -50q34 -21 63.5 -49.5
t51 -66.5t33.5 -87t12 -110q0 -81 -25.5 -148.5t-77.5 -115.5t-129.5 -75t-182.5 -27q-167 0 -283 101v-38z" />
    <glyph glyph-name="Scommaaccent" unicode="&#x218;" 
d="M389 41q0 -34 -24 -48.5t-88 -14.5t-91 14.5t-27 48.5v334q0 34 21.5 48.5t70.5 14.5q35 0 55.5 -9t31.5 -31q54 -102 128 -154.5t176 -52.5q90 0 135 36.5t45 99.5q0 42 -21.5 69t-58.5 45q-40 19 -93 31.5t-111 24.5t-117 27.5t-110 42.5q-35 18 -64.5 43t-51.5 58.5
t-34 77.5t-12 100q0 80 28 146.5t79.5 114.5t123 75t158.5 27q81 0 148.5 -26t117.5 -74v37q0 34 24 48.5t88 14.5t91 -14.5t27 -48.5v-274q0 -34 -21.5 -48.5t-70.5 -14.5q-34 0 -52.5 8t-29.5 24q-46 72 -119 113.5t-173 41.5q-75 0 -115.5 -38t-40.5 -95q0 -30 19 -48.5
t51 -31.5q39 -15 93.5 -24.5t115 -21.5t122 -30t114.5 -50q34 -21 63.5 -49.5t51 -66.5t33.5 -87t12 -110q0 -81 -25.5 -148.5t-77.5 -115.5t-129.5 -75t-182.5 -27q-167 0 -283 101v-38zM593 -502q-24 -43 -91 -43q-34 0 -52.5 13.5t-13.5 45.5l53 313q5 27 36 27h222
q17 0 23.5 -13t-3.5 -30z" />
    <glyph glyph-name="Tbar" unicode="&#x166;" 
d="M489 565v407h-181v-272q0 -34 -27.5 -48.5t-84.5 -14.5q-56 0 -77 14.5t-21 48.5v422q0 35 15 50t50 15h902q35 0 50 -15t15 -50v-422q0 -34 -27.5 -48.5t-84.5 -14.5q-56 0 -77 14.5t-21 48.5v272h-181v-407h156q17 0 29 -4t19.5 -15.5t11 -31.5t3.5 -52t-3.5 -52
t-11 -31t-19.5 -15t-29 -4h-156v-155h216q17 0 29 -4t19.5 -15.5t11 -31.5t3.5 -52t-3.5 -52t-11 -31t-19.5 -15t-29 -4h-682q-17 0 -29 4t-19.5 15t-11 31t-3.5 52t3.5 52t11 31.5t19.5 15.5t29 4h216v155h-156q-17 0 -29 4t-19.5 15t-11 31t-3.5 52t3.5 52t11 31.5
t19.5 15.5t29 4h156z" />
    <glyph glyph-name="Tcaron" unicode="&#x164;" 
d="M489 972h-181v-272q0 -34 -27.5 -48.5t-84.5 -14.5q-56 0 -77 14.5t-21 48.5v422q0 35 15 50t50 15h902q35 0 50 -15t15 -50v-422q0 -34 -27.5 -48.5t-84.5 -14.5q-56 0 -77 14.5t-21 48.5v272h-181v-767h216q17 0 29 -4t19.5 -15.5t11 -31.5t3.5 -52t-3.5 -52t-11 -31
t-19.5 -15t-29 -4h-682q-17 0 -29 4t-19.5 15t-11 31t-3.5 52t3.5 52t11 31.5t19.5 15.5t29 4h216v767zM893 1644q19 9 36 1.5t31 -25.5q14 -19 13.5 -38.5t-17.5 -35.5l-287 -261q-11 -10 -25 -14t-30 -4t-30 4t-25 14l-287 261q-17 16 -17.5 35.5t13.5 38.5q14 18 31 25.5
t36 -1.5l279 -134z" />
    <glyph glyph-name="Tcommaaccent" unicode="&#x162;" 
d="M489 972h-181v-272q0 -34 -27.5 -48.5t-84.5 -14.5q-56 0 -77 14.5t-21 48.5v422q0 35 15 50t50 15h902q35 0 50 -15t15 -50v-422q0 -34 -27.5 -48.5t-84.5 -14.5q-56 0 -77 14.5t-21 48.5v272h-181v-767h216q17 0 29 -4t19.5 -15.5t11 -31.5t3.5 -52t-3.5 -52t-11 -31
t-19.5 -15t-29 -4h-682q-17 0 -29 4t-19.5 15t-11 31t-3.5 52t3.5 52t11 31.5t19.5 15.5t29 4h216v767zM573 -502q-24 -43 -91 -43q-34 0 -52.5 13.5t-13.5 45.5l53 313q5 27 36 27h222q17 0 23.5 -13t-3.5 -30z" />
    <glyph glyph-name="Ubreve" unicode="&#x16c;" 
d="M113 982q-17 0 -29 4t-19.5 15t-11 31t-3.5 52t3.5 52t11 31.5t19.5 15.5t29 4h374q17 0 29 -4t19.5 -15.5t11 -31.5t3.5 -52t-3.5 -52t-11 -31t-19.5 -15t-29 -4h-77v-549q0 -60 15 -103t42 -71t64.5 -41t82.5 -13t82.5 13t64.5 41t42 71t15 103v549h-77q-17 0 -29 4
t-19.5 15t-11 31t-3.5 52t3.5 52t11 31.5t19.5 15.5t29 4h374q17 0 29 -4t19.5 -15.5t11 -31.5t3.5 -52t-3.5 -52t-11 -31t-19.5 -15t-29 -4h-47v-569q0 -105 -31.5 -186t-90.5 -136.5t-143 -84t-189 -28.5t-189 28.5t-143 84t-90.5 136.5t-31.5 186v569h-47zM614 1311
q-81 0 -146 18t-113 51.5t-80 81t-48 106.5q-5 18 3.5 33.5t24 27.5t36 19t38.5 7q31 0 44 -20q17 -28 39 -50.5t51 -38t66 -23.5t85 -8t85 8t66 23.5t51 38t39 50.5q13 20 44 20q18 0 38 -7t36 -19t24.5 -27.5t3.5 -33.5q-16 -59 -48 -106.5t-80 -81t-113 -51.5t-146 -18z
" />
    <glyph glyph-name="Uhungarumlaut" unicode="&#x170;" 
d="M113 982q-17 0 -29 4t-19.5 15t-11 31t-3.5 52t3.5 52t11 31.5t19.5 15.5t29 4h374q17 0 29 -4t19.5 -15.5t11 -31.5t3.5 -52t-3.5 -52t-11 -31t-19.5 -15t-29 -4h-77v-549q0 -60 15 -103t42 -71t64.5 -41t82.5 -13t82.5 13t64.5 41t42 71t15 103v549h-77q-17 0 -29 4
t-19.5 15t-11 31t-3.5 52t3.5 52t11 31.5t19.5 15.5t29 4h374q17 0 29 -4t19.5 -15.5t11 -31.5t3.5 -52t-3.5 -52t-11 -31t-19.5 -15t-29 -4h-47v-569q0 -105 -31.5 -186t-90.5 -136.5t-143 -84t-189 -28.5t-189 28.5t-143 84t-90.5 136.5t-31.5 186v569h-47zM435 1336
q-18 -13 -50 -13q-35 0 -58.5 17.5t-23.5 40.5q0 17 12 29l198 210q16 17 41 25t54 8q32 0 57 -8.5t42 -21t26 -26.5t9 -26q0 -21 -19 -34zM835 1336q-18 -13 -50 -13q-35 0 -58.5 17.5t-23.5 40.5q0 17 12 29l198 210q16 17 41 25t54 8q32 0 57 -8.5t42 -21t26 -26.5t9 -26
q0 -21 -19 -34z" />
    <glyph glyph-name="Umacron" unicode="&#x16a;" 
d="M895 1545q17 0 29 -4t19.5 -15.5t11 -31.5t3.5 -52t-3.5 -52t-11 -31t-19.5 -15t-29 -4h-562q-17 0 -29 4t-19.5 15t-11 31t-3.5 52t3.5 52t11 31.5t19.5 15.5t29 4h562zM113 982q-17 0 -29 4t-19.5 15t-11 31t-3.5 52t3.5 52t11 31.5t19.5 15.5t29 4h374q17 0 29 -4
t19.5 -15.5t11 -31.5t3.5 -52t-3.5 -52t-11 -31t-19.5 -15t-29 -4h-77v-549q0 -60 15 -103t42 -71t64.5 -41t82.5 -13t82.5 13t64.5 41t42 71t15 103v549h-77q-17 0 -29 4t-19.5 15t-11 31t-3.5 52t3.5 52t11 31.5t19.5 15.5t29 4h374q17 0 29 -4t19.5 -15.5t11 -31.5
t3.5 -52t-3.5 -52t-11 -31t-19.5 -15t-29 -4h-47v-569q0 -105 -31.5 -186t-90.5 -136.5t-143 -84t-189 -28.5t-189 28.5t-143 84t-90.5 136.5t-31.5 186v569h-47z" />
    <glyph glyph-name="Uogonek" unicode="&#x172;" 
d="M113 982q-17 0 -29 4t-19.5 15t-11 31t-3.5 52t3.5 52t11 31.5t19.5 15.5t29 4h374q17 0 29 -4t19.5 -15.5t11 -31.5t3.5 -52t-3.5 -52t-11 -31t-19.5 -15t-29 -4h-77v-549q0 -60 15 -103t42 -71t64.5 -41t82.5 -13t82.5 13t64.5 41t42 71t15 103v549h-77q-17 0 -29 4
t-19.5 15t-11 31t-3.5 52t3.5 52t11 31.5t19.5 15.5t29 4h374q17 0 29 -4t19.5 -15.5t11 -31.5t3.5 -52t-3.5 -52t-11 -31t-19.5 -15t-29 -4h-47v-569q0 -141 -55.5 -238t-157.5 -147q-89 -72 -141 -137t-52 -122q0 -35 22.5 -51t65.5 -16q29 0 58.5 4t61.5 9q20 3 32.5 -15
t15.5 -53q6 -71 -37 -85q-51 -16 -106 -25t-110 -9q-118 0 -182 51.5t-64 151.5q0 39 11.5 73t32.5 64.5t49.5 58t62.5 52.5q-96 5 -173 36t-131 86t-82.5 133.5t-28.5 178.5v569h-47z" />
    <glyph glyph-name="Uring" unicode="&#x16e;" 
d="M113 982q-17 0 -29 4t-19.5 15t-11 31t-3.5 52t3.5 52t11 31.5t19.5 15.5t29 4h374q17 0 29 -4t19.5 -15.5t11 -31.5t3.5 -52t-3.5 -52t-11 -31t-19.5 -15t-29 -4h-77v-549q0 -60 15 -103t42 -71t64.5 -41t82.5 -13t82.5 13t64.5 41t42 71t15 103v549h-77q-17 0 -29 4
t-19.5 15t-11 31t-3.5 52t3.5 52t11 31.5t19.5 15.5t29 4h374q17 0 29 -4t19.5 -15.5t11 -31.5t3.5 -52t-3.5 -52t-11 -31t-19.5 -15t-29 -4h-47v-569q0 -105 -31.5 -186t-90.5 -136.5t-143 -84t-189 -28.5t-189 28.5t-143 84t-90.5 136.5t-31.5 186v569h-47zM355 1535
q0 54 20.5 102t56 83.5t83.5 56t102 20.5t102 -20.5t83.5 -56t56 -83.5t20.5 -102t-20.5 -102t-56 -83.5t-83.5 -56t-102 -20.5t-102 20.5t-83.5 56t-56 83.5t-20.5 102zM514 1535q0 -21 8 -40t22 -33t33 -22t40 -8t40 8t33 22t22 33t8 40t-8 40t-22 33t-33 22t-40 8t-40 -8
t-33 -22t-22 -33t-8 -40z" />
    <glyph glyph-name="Utilde" unicode="&#x168;" 
d="M767 1510q27 0 58.5 7t63.5 24q23 13 42.5 1.5t35.5 -38.5q14 -27 15 -52t-19 -41q-59 -51 -108.5 -72t-94.5 -21q-42 0 -80 11.5t-74 25.5t-71.5 25.5t-72.5 11.5q-29 0 -60.5 -7t-63.5 -24q-22 -12 -41.5 -1t-34.5 39q-14 26 -15.5 51t17.5 41q60 52 110 72.5t95 20.5
q41 0 79 -11.5t74 -25.5t72 -25.5t73 -11.5zM113 982q-17 0 -29 4t-19.5 15t-11 31t-3.5 52t3.5 52t11 31.5t19.5 15.5t29 4h374q17 0 29 -4t19.5 -15.5t11 -31.5t3.5 -52t-3.5 -52t-11 -31t-19.5 -15t-29 -4h-77v-549q0 -60 15 -103t42 -71t64.5 -41t82.5 -13t82.5 13
t64.5 41t42 71t15 103v549h-77q-17 0 -29 4t-19.5 15t-11 31t-3.5 52t3.5 52t11 31.5t19.5 15.5t29 4h374q17 0 29 -4t19.5 -15.5t11 -31.5t3.5 -52t-3.5 -52t-11 -31t-19.5 -15t-29 -4h-47v-569q0 -105 -31.5 -186t-90.5 -136.5t-143 -84t-189 -28.5t-189 28.5t-143 84
t-90.5 136.5t-31.5 186v569h-47z" />
    <glyph glyph-name="Wacute" unicode="&#x1e82;" 
d="M437 1187q17 0 29 -4t19.5 -15.5t11 -31.5t3.5 -52t-3.5 -52t-11 -31t-19.5 -15t-29 -4h-117l53 -584l146 428q6 20 24.5 33.5t69.5 13.5q52 0 73 -10t27 -30l147 -435l54 584h-103q-17 0 -29 4t-19.5 15t-11 31t-3.5 52t3.5 52t11 31.5t19.5 15.5t29 4h374q17 0 29 -4
t19.5 -15.5t11 -31.5t3.5 -52t-3.5 -52t-11 -31t-19.5 -15t-29 -4h-56l-101 -939q-2 -18 -8.5 -30.5t-20 -20t-36 -11t-56.5 -3.5q-68 0 -97 15.5t-40 49.5l-160 471l-162 -471q-6 -17 -15.5 -29.5t-25.5 -20.5t-40 -11.5t-58 -3.5t-56 3.5t-35.5 11t-19.5 20t-8 30.5
l-97 939h-50q-17 0 -29 4t-19.5 15t-11 31t-3.5 52t3.5 52t11 31.5t19.5 15.5t29 4h394zM834 1662q28 16 59 -3.5t61 -87.5q30 -69 26.5 -102.5t-29.5 -40.5l-480 -125q-24 -7 -42 4.5t-26 34.5q-8 22 -2.5 41.5t25.5 31.5z" />
    <glyph glyph-name="Wcircumflex" unicode="&#x174;" 
d="M437 1187q17 0 29 -4t19.5 -15.5t11 -31.5t3.5 -52t-3.5 -52t-11 -31t-19.5 -15t-29 -4h-117l53 -584l146 428q6 20 24.5 33.5t69.5 13.5q52 0 73 -10t27 -30l147 -435l54 584h-103q-17 0 -29 4t-19.5 15t-11 31t-3.5 52t3.5 52t11 31.5t19.5 15.5t29 4h374q17 0 29 -4
t19.5 -15.5t11 -31.5t3.5 -52t-3.5 -52t-11 -31t-19.5 -15t-29 -4h-56l-101 -939q-2 -18 -8.5 -30.5t-20 -20t-36 -11t-56.5 -3.5q-68 0 -97 15.5t-40 49.5l-160 471l-162 -471q-6 -17 -15.5 -29.5t-25.5 -20.5t-40 -11.5t-58 -3.5t-56 3.5t-35.5 11t-19.5 20t-8 30.5
l-97 939h-50q-17 0 -29 4t-19.5 15t-11 31t-3.5 52t3.5 52t11 31.5t19.5 15.5t29 4h394zM345 1299q-19 -9 -36 -1.5t-31 25.5q-14 19 -13.5 38.5t17.5 35.5l287 261q11 10 25 14t30 4t30 -4t25 -14l287 -261q17 -16 17.5 -35.5t-13.5 -38.5q-14 -18 -31 -25.5t-36 1.5
l-279 134z" />
    <glyph glyph-name="Wdieresis" unicode="&#x1e84;" 
d="M437 1187q17 0 29 -4t19.5 -15.5t11 -31.5t3.5 -52t-3.5 -52t-11 -31t-19.5 -15t-29 -4h-117l53 -584l146 428q6 20 24.5 33.5t69.5 13.5q52 0 73 -10t27 -30l147 -435l54 584h-103q-17 0 -29 4t-19.5 15t-11 31t-3.5 52t3.5 52t11 31.5t19.5 15.5t29 4h374q17 0 29 -4
t19.5 -15.5t11 -31.5t3.5 -52t-3.5 -52t-11 -31t-19.5 -15t-29 -4h-56l-101 -939q-2 -18 -8.5 -30.5t-20 -20t-36 -11t-56.5 -3.5q-68 0 -97 15.5t-40 49.5l-160 471l-162 -471q-6 -17 -15.5 -29.5t-25.5 -20.5t-40 -11.5t-58 -3.5t-56 3.5t-35.5 11t-19.5 20t-8 30.5
l-97 939h-50q-17 0 -29 4t-19.5 15t-11 31t-3.5 52t3.5 52t11 31.5t19.5 15.5t29 4h394zM244 1465q0 31 12 58.5t32 47.5t47.5 32t58.5 12t58.5 -12t47.5 -32t32 -47.5t12 -58.5t-12 -58.5t-32 -47.5t-47.5 -32t-58.5 -12t-58.5 12t-47.5 32t-32 47.5t-12 58.5zM704 1465
q0 31 12 58.5t32 47.5t47.5 32t58.5 12t58.5 -12t47.5 -32t32 -47.5t12 -58.5t-12 -58.5t-32 -47.5t-47.5 -32t-58.5 -12t-58.5 12t-47.5 32t-32 47.5t-12 58.5z" />
    <glyph glyph-name="Wgrave" unicode="&#x1e80;" 
d="M437 1187q17 0 29 -4t19.5 -15.5t11 -31.5t3.5 -52t-3.5 -52t-11 -31t-19.5 -15t-29 -4h-117l53 -584l146 428q6 20 24.5 33.5t69.5 13.5q52 0 73 -10t27 -30l147 -435l54 584h-103q-17 0 -29 4t-19.5 15t-11 31t-3.5 52t3.5 52t11 31.5t19.5 15.5t29 4h374q17 0 29 -4
t19.5 -15.5t11 -31.5t3.5 -52t-3.5 -52t-11 -31t-19.5 -15t-29 -4h-56l-101 -939q-2 -18 -8.5 -30.5t-20 -20t-36 -11t-56.5 -3.5q-68 0 -97 15.5t-40 49.5l-160 471l-162 -471q-6 -17 -15.5 -29.5t-25.5 -20.5t-40 -11.5t-58 -3.5t-56 3.5t-35.5 11t-19.5 20t-8 30.5
l-97 939h-50q-17 0 -29 4t-19.5 15t-11 31t-3.5 52t3.5 52t11 31.5t19.5 15.5t29 4h394zM823 1408q20 -12 25.5 -31.5t-2.5 -41.5q-8 -23 -26 -34.5t-42 -4.5l-480 125q-26 7 -29.5 40.5t26.5 102.5q30 68 61 87.5t59 3.5z" />
    <glyph glyph-name="Ycircumflex" unicode="&#x176;" 
d="M489 460l-340 522h-46q-17 0 -29 4t-19.5 15t-11 31t-3.5 52t3.5 52t11 31.5t19.5 15.5t29 4h394q17 0 29 -4t19.5 -15.5t11 -31.5t3.5 -52t-3.5 -52t-11 -31t-19.5 -15t-29 -4h-67l186 -292l188 292h-53q-17 0 -29 4t-19.5 15t-11 31t-3.5 52t3.5 52t11 31.5t19.5 15.5
t29 4h374q17 0 29 -4t19.5 -15.5t11 -31.5t3.5 -52t-3.5 -52t-11 -31t-19.5 -15t-29 -4h-44l-342 -523v-254h196q17 0 29 -4t19.5 -15.5t11 -31.5t3.5 -52t-3.5 -52t-11 -31t-19.5 -15t-29 -4h-642q-17 0 -29 4t-19.5 15t-11 31t-3.5 52t3.5 52t11 31.5t19.5 15.5t29 4h196
v255zM345 1299q-19 -9 -36 -1.5t-31 25.5q-14 19 -13.5 38.5t17.5 35.5l287 261q11 10 25 14t30 4t30 -4t25 -14l287 -261q17 -16 17.5 -35.5t-13.5 -38.5q-14 -18 -31 -25.5t-36 1.5l-279 134z" />
    <glyph glyph-name="Ygrave" unicode="&#x1ef2;" 
d="M489 460l-340 522h-46q-17 0 -29 4t-19.5 15t-11 31t-3.5 52t3.5 52t11 31.5t19.5 15.5t29 4h394q17 0 29 -4t19.5 -15.5t11 -31.5t3.5 -52t-3.5 -52t-11 -31t-19.5 -15t-29 -4h-67l186 -292l188 292h-53q-17 0 -29 4t-19.5 15t-11 31t-3.5 52t3.5 52t11 31.5t19.5 15.5
t29 4h374q17 0 29 -4t19.5 -15.5t11 -31.5t3.5 -52t-3.5 -52t-11 -31t-19.5 -15t-29 -4h-44l-342 -523v-254h196q17 0 29 -4t19.5 -15.5t11 -31.5t3.5 -52t-3.5 -52t-11 -31t-19.5 -15t-29 -4h-642q-17 0 -29 4t-19.5 15t-11 31t-3.5 52t3.5 52t11 31.5t19.5 15.5t29 4h196
v255zM832 1415q20 -12 25.5 -31.5t-2.5 -41.5q-8 -23 -26 -34.5t-42 -4.5l-480 125q-26 7 -29.5 40.5t26.5 102.5q30 68 61 87.5t59 3.5z" />
    <glyph glyph-name="Zacute" unicode="&#x179;" 
d="M850 215v222q0 34 29 48.5t93 14.5q32 0 53 -3.5t33 -11t17 -19.5t5 -29v-372q0 -35 -15 -50t-50 -15h-814q-17 0 -29 4t-19.5 15t-11 31t-3.5 52q0 66 20 93l574 777h-334v-202q0 -34 -29 -48.5t-93 -14.5q-32 0 -53 3.5t-33 11t-17 19.5t-5 29v352q0 35 15 50t50 15
h784q17 0 29 -4t19.5 -15.5t11 -31.5t3.5 -52t-6 -54.5t-17 -37.5l-574 -777h367zM822 1662q28 16 59 -3.5t61 -87.5q30 -69 26.5 -102.5t-29.5 -40.5l-480 -125q-24 -7 -42 4.5t-26 34.5q-8 22 -2.5 41.5t25.5 31.5z" />
    <glyph glyph-name="Zdotaccent" unicode="&#x17b;" 
d="M434 1496q0 37 14 70t38.5 57.5t57.5 38.5t70 14t70 -14t57.5 -38.5t38.5 -57.5t14 -70t-14 -70t-38.5 -57.5t-57.5 -38.5t-70 -14t-70 14t-57.5 38.5t-38.5 57.5t-14 70zM850 215v222q0 34 29 48.5t93 14.5q32 0 53 -3.5t33 -11t17 -19.5t5 -29v-372q0 -35 -15 -50
t-50 -15h-814q-17 0 -29 4t-19.5 15t-11 31t-3.5 52q0 66 20 93l574 777h-334v-202q0 -34 -29 -48.5t-93 -14.5q-32 0 -53 3.5t-33 11t-17 19.5t-5 29v352q0 35 15 50t50 15h784q17 0 29 -4t19.5 -15.5t11 -31.5t3.5 -52t-6 -54.5t-17 -37.5l-574 -777h367z" />
    <glyph glyph-name="abreve" unicode="&#x103;" 
d="M832 106q-77 -60 -164.5 -94t-183.5 -34q-86 0 -153.5 22t-114.5 63.5t-71.5 100t-24.5 131.5q0 70 25.5 125t74 92.5t118 57t158.5 19.5q133 0 283 -30v29q0 31 -10 55.5t-32.5 41.5t-60 25.5t-91.5 8.5q-60 0 -131 -15t-140 -38q-16 -5 -30 -5.5t-27 7t-25 25t-23 47.5
q-22 60 -15 92t42 45q47 17 96.5 30t98 21.5t95 13t87.5 4.5q114 0 193.5 -25.5t129 -73.5t71.5 -116t22 -152v-289q0 -40 17 -62.5t49 -22.5h31q17 0 29 -4t19.5 -15.5t11 -31.5t3.5 -52t-3.5 -52t-11 -31t-19.5 -15t-29 -4h-112q-60 0 -108 24.5t-74 81.5zM779 356
q-70 14 -133.5 20.5t-124.5 6.5q-71 0 -107 -25t-36 -73t35.5 -72t102.5 -24q72 0 139 28.5t124 74.5v64zM617 1041q-81 0 -146 18t-113 51.5t-80 81t-48 106.5q-5 18 3.5 33.5t24 27.5t36 19t38.5 7q31 0 44 -20q17 -28 39 -50.5t51 -38t66 -23.5t85 -8t85 8t66 23.5t51 38
t39 50.5q13 20 44 20q18 0 38 -7t36 -19t24.5 -27.5t3.5 -33.5q-16 -59 -48 -106.5t-80 -81t-113 -51.5t-146 -18z" />
    <glyph glyph-name="amacron" unicode="&#x101;" 
d="M832 106q-77 -60 -164.5 -94t-183.5 -34q-86 0 -153.5 22t-114.5 63.5t-71.5 100t-24.5 131.5q0 70 25.5 125t74 92.5t118 57t158.5 19.5q133 0 283 -30v29q0 31 -10 55.5t-32.5 41.5t-60 25.5t-91.5 8.5q-60 0 -131 -15t-140 -38q-16 -5 -30 -5.5t-27 7t-25 25t-23 47.5
q-22 60 -15 92t42 45q47 17 96.5 30t98 21.5t95 13t87.5 4.5q114 0 193.5 -25.5t129 -73.5t71.5 -116t22 -152v-289q0 -40 17 -62.5t49 -22.5h31q17 0 29 -4t19.5 -15.5t11 -31.5t3.5 -52t-3.5 -52t-11 -31t-19.5 -15t-29 -4h-112q-60 0 -108 24.5t-74 81.5zM779 356
q-70 14 -133.5 20.5t-124.5 6.5q-71 0 -107 -25t-36 -73t35.5 -72t102.5 -24q72 0 139 28.5t124 74.5v64zM895 1275q17 0 29 -4t19.5 -15.5t11 -31.5t3.5 -52t-3.5 -52t-11 -31t-19.5 -15t-29 -4h-562q-17 0 -29 4t-19.5 15t-11 31t-3.5 52t3.5 52t11 31.5t19.5 15.5t29 4
h562z" />
    <glyph glyph-name="aogonek" unicode="&#x105;" 
d="M832 106q-77 -60 -164.5 -94t-183.5 -34q-86 0 -153.5 22t-114.5 63.5t-71.5 100t-24.5 131.5q0 70 25.5 125t74 92.5t118 57t158.5 19.5q133 0 283 -30v29q0 31 -10 55.5t-32.5 41.5t-60 25.5t-91.5 8.5q-60 0 -131 -15t-140 -38q-16 -5 -30 -5.5t-27 7t-25 25t-23 47.5
q-22 60 -15 92t42 45q47 17 96.5 30t98 21.5t95 13t87.5 4.5q114 0 193.5 -25.5t129 -73.5t71.5 -116t22 -152v-289q0 -40 17 -62.5t49 -22.5h31q17 0 29 -4t19.5 -15.5t11 -31.5t3.5 -52t-3.5 -52t-11 -31t-19.5 -15t-29 -4h-35q-74 -63 -116.5 -121.5t-42.5 -109.5
q0 -35 22.5 -51t65.5 -16q29 0 58.5 4t61.5 9q20 3 32.5 -15t15.5 -53q6 -71 -37 -85q-51 -16 -106 -25t-110 -9q-118 0 -182 51.5t-64 151.5q0 48 17 88.5t47 76t70 66.5t86 60q-24 13 -43.5 33.5t-33.5 50.5zM779 356q-70 14 -133.5 20.5t-124.5 6.5q-71 0 -107 -25
t-36 -73t35.5 -72t102.5 -24q72 0 139 28.5t124 74.5v64z" />
    <glyph glyph-name="cacute" unicode="&#x107;" 
d="M948 299q29 17 58 3.5t54 -72.5t15.5 -92t-40.5 -50q-90 -50 -192 -80t-209 -30q-116 0 -209.5 36t-159.5 100.5t-102 153.5t-36 194q0 107 36.5 196t101 153t151.5 99.5t188 35.5q81 0 137.5 -28.5t91.5 -88.5v54q0 34 29 48.5t93 14.5q32 0 53 -3.5t33 -11t17 -19.5
t5 -29v-321q0 -34 -30 -48.5t-102 -14.5q-36 0 -58.5 3.5t-36 11t-18.5 19.5t-5 29q0 31 -11 59t-33.5 50t-56 35t-78.5 13q-54 0 -98.5 -18t-75.5 -52t-48 -81.5t-17 -105.5q0 -59 17 -106t48 -81t75.5 -52t98.5 -18q80 0 160 25.5t154 68.5zM821 1392q28 16 59 -3.5
t61 -87.5q30 -69 26.5 -102.5t-29.5 -40.5l-480 -125q-24 -7 -42 4.5t-26 34.5q-8 22 -2.5 41.5t25.5 31.5z" />
    <glyph glyph-name="ccaron" unicode="&#x10d;" 
d="M948 299q29 17 58 3.5t54 -72.5t15.5 -92t-40.5 -50q-90 -50 -192 -80t-209 -30q-116 0 -209.5 36t-159.5 100.5t-102 153.5t-36 194q0 107 36.5 196t101 153t151.5 99.5t188 35.5q81 0 137.5 -28.5t91.5 -88.5v54q0 34 29 48.5t93 14.5q32 0 53 -3.5t33 -11t17 -19.5
t5 -29v-321q0 -34 -30 -48.5t-102 -14.5q-36 0 -58.5 3.5t-36 11t-18.5 19.5t-5 29q0 31 -11 59t-33.5 50t-56 35t-78.5 13q-54 0 -98.5 -18t-75.5 -52t-48 -81.5t-17 -105.5q0 -59 17 -106t48 -81t75.5 -52t98.5 -18q80 0 160 25.5t154 68.5zM903 1394q19 9 36 1.5
t31 -25.5q14 -19 13.5 -38.5t-17.5 -35.5l-287 -261q-11 -10 -25 -14t-30 -4t-30 4t-25 14l-287 261q-17 16 -17.5 35.5t13.5 38.5q14 18 31 25.5t36 -1.5l279 -134z" />
    <glyph glyph-name="ccircumflex" unicode="&#x109;" 
d="M345 1029q-19 -9 -36 -1.5t-31 25.5q-14 19 -13.5 38.5t17.5 35.5l287 261q11 10 25 14t30 4t30 -4t25 -14l287 -261q17 -16 17.5 -35.5t-13.5 -38.5q-14 -18 -31 -25.5t-36 1.5l-279 134zM948 299q29 17 58 3.5t54 -72.5t15.5 -92t-40.5 -50q-90 -50 -192 -80t-209 -30
q-116 0 -209.5 36t-159.5 100.5t-102 153.5t-36 194q0 107 36.5 196t101 153t151.5 99.5t188 35.5q81 0 137.5 -28.5t91.5 -88.5v54q0 34 29 48.5t93 14.5q32 0 53 -3.5t33 -11t17 -19.5t5 -29v-321q0 -34 -30 -48.5t-102 -14.5q-36 0 -58.5 3.5t-36 11t-18.5 19.5t-5 29
q0 31 -11 59t-33.5 50t-56 35t-78.5 13q-54 0 -98.5 -18t-75.5 -52t-48 -81.5t-17 -105.5q0 -59 17 -106t48 -81t75.5 -52t98.5 -18q80 0 160 25.5t154 68.5z" />
    <glyph glyph-name="cdotaccent" unicode="&#x10b;" 
d="M948 299q29 17 58 3.5t54 -72.5t15.5 -92t-40.5 -50q-90 -50 -192 -80t-209 -30q-116 0 -209.5 36t-159.5 100.5t-102 153.5t-36 194q0 107 36.5 196t101 153t151.5 99.5t188 35.5q81 0 137.5 -28.5t91.5 -88.5v54q0 34 29 48.5t93 14.5q32 0 53 -3.5t33 -11t17 -19.5
t5 -29v-321q0 -34 -30 -48.5t-102 -14.5q-36 0 -58.5 3.5t-36 11t-18.5 19.5t-5 29q0 31 -11 59t-33.5 50t-56 35t-78.5 13q-54 0 -98.5 -18t-75.5 -52t-48 -81.5t-17 -105.5q0 -59 17 -106t48 -81t75.5 -52t98.5 -18q80 0 160 25.5t154 68.5zM444 1246q0 37 14 70
t38.5 57.5t57.5 38.5t70 14t70 -14t57.5 -38.5t38.5 -57.5t14 -70t-14 -70t-38.5 -57.5t-57.5 -38.5t-70 -14t-70 14t-57.5 38.5t-38.5 57.5t-14 70z" />
    <glyph glyph-name="dcaron" unicode="&#x10f;" 
d="M1008 205q17 0 29 -4t19.5 -15t11 -31t3.5 -52t-3.5 -52t-11 -31.5t-19.5 -15.5t-29 -4h-234q-34 0 -48.5 14.5t-14.5 48.5v69q-45 -74 -104.5 -114t-148.5 -40q-88 0 -158.5 35.5t-120 98t-76 148.5t-26.5 187t26.5 187t76 148.5t120 98t158.5 35.5q71 0 120.5 -30
t92.5 -85v306h-167q-17 0 -29 4t-19.5 15t-11 31t-3.5 52t3.5 52t11 31.5t19.5 15.5t29 4h354q34 0 48.5 -14.5t14.5 -48.5v-1044h87zM678 447q0 61 -13.5 106.5t-37.5 75.5t-57 45t-72 15q-69 0 -111 -62t-42 -180t42 -180t111 -62q39 0 72 15t57 45t37.5 75.5t13.5 106.5z
M1196 867q-14 -27 -33 -38.5t-54 -11.5q-42 0 -58 16.5t-9 54.5l70 391q6 33 43 33h214q20 0 27 -15t-4 -37z" />
    <glyph glyph-name="dcroat" unicode="&#x111;" 
d="M1128 205q17 0 29 -4t19.5 -15t11 -31t3.5 -52t-3.5 -52t-11 -31.5t-19.5 -15.5t-29 -4h-234q-34 0 -48.5 14.5t-14.5 48.5v69q-52 -74 -129 -114t-174 -40q-99 0 -178.5 35.5t-136 98t-86.5 148.5t-30 187t30 187t86.5 148.5t136 98t178.5 35.5q79 0 145.5 -30
t117.5 -85v181h-208q-17 0 -29 4t-19.5 15t-11 31t-3.5 52t3.5 52t11 31.5t19.5 15.5t29 4h208v62q0 34 14.5 48.5t48.5 14.5h124q34 0 48.5 -14.5t14.5 -48.5v-62h104q17 0 29 -4t19.5 -15.5t11 -31.5t3.5 -52t-3.5 -52t-11 -31t-19.5 -15t-29 -4h-104v-777h87zM798 447
q0 61 -18.5 106.5t-50 75.5t-73 45t-88.5 15q-92 0 -147.5 -62t-55.5 -180t55.5 -180t147.5 -62q47 0 88.5 15t73 45t50 75.5t18.5 106.5z" />
    <glyph glyph-name="ebreve" unicode="&#x115;" 
d="M960 260q32 10 53 -6.5t38 -77.5q8 -31 10 -52.5t-3 -36t-16.5 -23.5t-29.5 -15q-100 -33 -210 -52t-218 -19q-112 0 -199 36t-146.5 100.5t-90.5 153.5t-31 194t34 193.5t98.5 153t156.5 101t208 36.5q117 0 206 -38.5t148.5 -107t90 -163t30.5 -205.5q0 -34 -14.5 -48
t-48.5 -14h-642q20 -81 76 -123t144 -42q81 0 168.5 12.5t187.5 42.5zM828 565q-17 72 -72 113t-142 41q-91 0 -147.5 -38t-78.5 -116h440zM624 1041q-81 0 -146 18t-113 51.5t-80 81t-48 106.5q-5 18 3.5 33.5t24 27.5t36 19t38.5 7q31 0 44 -20q17 -28 39 -50.5t51 -38
t66 -23.5t85 -8t85 8t66 23.5t51 38t39 50.5q13 20 44 20q18 0 38 -7t36 -19t24.5 -27.5t3.5 -33.5q-16 -59 -48 -106.5t-80 -81t-113 -51.5t-146 -18z" />
    <glyph glyph-name="ecaron" unicode="&#x11b;" 
d="M960 260q32 10 53 -6.5t38 -77.5q8 -31 10 -52.5t-3 -36t-16.5 -23.5t-29.5 -15q-100 -33 -210 -52t-218 -19q-112 0 -199 36t-146.5 100.5t-90.5 153.5t-31 194t34 193.5t98.5 153t156.5 101t208 36.5q117 0 206 -38.5t148.5 -107t90 -163t30.5 -205.5q0 -34 -14.5 -48
t-48.5 -14h-642q20 -81 76 -123t144 -42q81 0 168.5 12.5t187.5 42.5zM828 565q-17 72 -72 113t-142 41q-91 0 -147.5 -38t-78.5 -116h440zM909 1394q19 9 36 1.5t31 -25.5q14 -19 13.5 -38.5t-17.5 -35.5l-287 -261q-11 -10 -25 -14t-30 -4t-30 4t-25 14l-287 261
q-17 16 -17.5 35.5t13.5 38.5q14 18 31 25.5t36 -1.5l279 -134z" />
    <glyph glyph-name="edotaccent" unicode="&#x117;" 
d="M444 1246q0 37 14 70t38.5 57.5t57.5 38.5t70 14t70 -14t57.5 -38.5t38.5 -57.5t14 -70t-14 -70t-38.5 -57.5t-57.5 -38.5t-70 -14t-70 14t-57.5 38.5t-38.5 57.5t-14 70zM960 260q32 10 53 -6.5t38 -77.5q8 -31 10 -52.5t-3 -36t-16.5 -23.5t-29.5 -15
q-100 -33 -210 -52t-218 -19q-112 0 -199 36t-146.5 100.5t-90.5 153.5t-31 194t34 193.5t98.5 153t156.5 101t208 36.5q117 0 206 -38.5t148.5 -107t90 -163t30.5 -205.5q0 -34 -14.5 -48t-48.5 -14h-642q20 -81 76 -123t144 -42q81 0 168.5 12.5t187.5 42.5zM828 565
q-17 72 -72 113t-142 41q-91 0 -147.5 -38t-78.5 -116h440z" />
    <glyph glyph-name="emacron" unicode="&#x113;" 
d="M905 1275q17 0 29 -4t19.5 -15.5t11 -31.5t3.5 -52t-3.5 -52t-11 -31t-19.5 -15t-29 -4h-562q-17 0 -29 4t-19.5 15t-11 31t-3.5 52t3.5 52t11 31.5t19.5 15.5t29 4h562zM960 260q32 10 53 -6.5t38 -77.5q8 -31 10 -52.5t-3 -36t-16.5 -23.5t-29.5 -15q-100 -33 -210 -52
t-218 -19q-112 0 -199 36t-146.5 100.5t-90.5 153.5t-31 194t34 193.5t98.5 153t156.5 101t208 36.5q117 0 206 -38.5t148.5 -107t90 -163t30.5 -205.5q0 -34 -14.5 -48t-48.5 -14h-642q20 -81 76 -123t144 -42q81 0 168.5 12.5t187.5 42.5zM828 565q-17 72 -72 113t-142 41
q-91 0 -147.5 -38t-78.5 -116h440z" />
    <glyph glyph-name="eogonek" unicode="&#x119;" 
d="M960 260q32 10 53 -6.5t38 -77.5q16 -58 8.5 -84.5t-38.5 -39.5q-15 -6 -34 -21t-53 -46q-66 -60 -104 -114t-38 -102q0 -35 22.5 -51t65.5 -16q29 0 58.5 4t61.5 9q20 3 32.5 -15t15.5 -53q6 -71 -37 -85q-51 -16 -106 -25t-110 -9q-118 0 -182 51.5t-64 151.5
q0 40 12.5 75t34 66.5t51.5 59t66 53.5q-33 -3 -65 -5t-64 -2q-112 0 -199 36t-146.5 100.5t-90.5 153.5t-31 194t34 193.5t98.5 153t156.5 101t208 36.5q117 0 206 -38.5t148.5 -107t90 -163t30.5 -205.5q0 -34 -14.5 -48t-48.5 -14h-642q20 -81 76 -123t144 -42
q81 0 168.5 12.5t187.5 42.5zM828 565q-17 72 -72 113t-142 41q-91 0 -147.5 -38t-78.5 -116h440z" />
    <glyph glyph-name="gbreve" unicode="&#x11f;" 
d="M1041 -4q0 -96 -28.5 -172t-86 -129.5t-144.5 -81.5t-205 -28q-73 0 -163 15t-190 44q-35 11 -44 42t10 93q9 30 20 48t23.5 26.5t26.5 9t30 -3.5q70 -20 143.5 -33.5t133.5 -13.5q121 0 172.5 51.5t51.5 152.5v107q-51 -55 -117.5 -85t-145.5 -30q-99 0 -178.5 35.5
t-136 98t-86.5 148.5t-30 187t30 187t86.5 148.5t136 98t178.5 35.5q97 0 174 -40t129 -115v70q0 34 14.5 48.5t48.5 14.5h234q17 0 29 -4t19.5 -15.5t11 -31.5t3.5 -52t-3.5 -52t-11 -31t-19.5 -15t-29 -4h-87v-723zM798 477q0 61 -18.5 106.5t-50 75.5t-73 45t-88.5 15
q-92 0 -147.5 -62t-55.5 -180t55.5 -180t147.5 -62q47 0 88.5 15t73 45t50 75.5t18.5 106.5zM614 1041q-81 0 -146 18t-113 51.5t-80 81t-48 106.5q-5 18 3.5 33.5t24 27.5t36 19t38.5 7q31 0 44 -20q17 -28 39 -50.5t51 -38t66 -23.5t85 -8t85 8t66 23.5t51 38t39 50.5
q13 20 44 20q18 0 38 -7t36 -19t24.5 -27.5t3.5 -33.5q-16 -59 -48 -106.5t-80 -81t-113 -51.5t-146 -18z" />
    <glyph glyph-name="gcircumflex" unicode="&#x11d;" 
d="M1041 -4q0 -96 -28.5 -172t-86 -129.5t-144.5 -81.5t-205 -28q-73 0 -163 15t-190 44q-35 11 -44 42t10 93q9 30 20 48t23.5 26.5t26.5 9t30 -3.5q70 -20 143.5 -33.5t133.5 -13.5q121 0 172.5 51.5t51.5 152.5v107q-51 -55 -117.5 -85t-145.5 -30q-99 0 -178.5 35.5
t-136 98t-86.5 148.5t-30 187t30 187t86.5 148.5t136 98t178.5 35.5q97 0 174 -40t129 -115v70q0 34 14.5 48.5t48.5 14.5h234q17 0 29 -4t19.5 -15.5t11 -31.5t3.5 -52t-3.5 -52t-11 -31t-19.5 -15t-29 -4h-87v-723zM798 477q0 61 -18.5 106.5t-50 75.5t-73 45t-88.5 15
q-92 0 -147.5 -62t-55.5 -180t55.5 -180t147.5 -62q47 0 88.5 15t73 45t50 75.5t18.5 106.5zM335 1029q-19 -9 -36 -1.5t-31 25.5q-14 19 -13.5 38.5t17.5 35.5l287 261q11 10 25 14t30 4t30 -4t25 -14l287 -261q17 -16 17.5 -35.5t-13.5 -38.5q-14 -18 -31 -25.5t-36 1.5
l-279 134z" />
    <glyph glyph-name="gcommaaccent" unicode="&#x123;" 
d="M1041 -4q0 -96 -28.5 -172t-86 -129.5t-144.5 -81.5t-205 -28q-73 0 -163 15t-190 44q-35 11 -44 42t10 93q9 30 20 48t23.5 26.5t26.5 9t30 -3.5q70 -20 143.5 -33.5t133.5 -13.5q121 0 172.5 51.5t51.5 152.5v107q-51 -55 -117.5 -85t-145.5 -30q-99 0 -178.5 35.5
t-136 98t-86.5 148.5t-30 187t30 187t86.5 148.5t136 98t178.5 35.5q97 0 174 -40t129 -115v70q0 34 14.5 48.5t48.5 14.5h234q17 0 29 -4t19.5 -15.5t11 -31.5t3.5 -52t-3.5 -52t-11 -31t-19.5 -15t-29 -4h-87v-723zM798 477q0 61 -18.5 106.5t-50 75.5t-73 45t-88.5 15
q-92 0 -147.5 -62t-55.5 -180t55.5 -180t147.5 -62q47 0 88.5 15t73 45t50 75.5t18.5 106.5zM635.961 1419.91q23.999 42.998 90.9951 42.998q33.9971 0 52.4961 -13.5q18.499 -13.499 13.499 -45.4971l-52.9961 -312.98q-5 -26.998 -35.998 -26.998h-221.986
q-16.999 0 -23.499 12.999q-6.49902 12.999 3.5 29.998z" />
    <glyph glyph-name="gdotaccent" unicode="&#x121;" 
d="M1041 -4q0 -96 -28.5 -172t-86 -129.5t-144.5 -81.5t-205 -28q-73 0 -163 15t-190 44q-35 11 -44 42t10 93q9 30 20 48t23.5 26.5t26.5 9t30 -3.5q70 -20 143.5 -33.5t133.5 -13.5q121 0 172.5 51.5t51.5 152.5v107q-51 -55 -117.5 -85t-145.5 -30q-99 0 -178.5 35.5
t-136 98t-86.5 148.5t-30 187t30 187t86.5 148.5t136 98t178.5 35.5q97 0 174 -40t129 -115v70q0 34 14.5 48.5t48.5 14.5h234q17 0 29 -4t19.5 -15.5t11 -31.5t3.5 -52t-3.5 -52t-11 -31t-19.5 -15t-29 -4h-87v-723zM798 477q0 61 -18.5 106.5t-50 75.5t-73 45t-88.5 15
q-92 0 -147.5 -62t-55.5 -180t55.5 -180t147.5 -62q47 0 88.5 15t73 45t50 75.5t18.5 106.5zM434 1246q0 37 14 70t38.5 57.5t57.5 38.5t70 14t70 -14t57.5 -38.5t38.5 -57.5t14 -70t-14 -70t-38.5 -57.5t-57.5 -38.5t-70 -14t-70 14t-57.5 38.5t-38.5 57.5t-14 70z" />
    <glyph glyph-name="hbar" unicode="&#x127;" 
d="M207 1155v94q0 34 14.5 48.5t48.5 14.5h124q34 0 48.5 -14.5t14.5 -48.5v-94h198q17 0 29 -4t19.5 -15.5t11 -31.5t3.5 -52t-3.5 -52t-11 -31t-19.5 -15t-29 -4h-198v-267q63 96 135 139.5t155 43.5q69 0 125 -23t95 -65t60.5 -102.5t21.5 -135.5v-335h77q17 0 29 -4
t19.5 -15.5t11 -31.5t3.5 -52t-3.5 -52t-11 -31t-19.5 -15t-29 -4h-374q-17 0 -29 4t-19.5 15t-11 31t-3.5 52t3.5 52t11 31.5t19.5 15.5t29 4h47v276q0 74 -25.5 116t-91.5 42q-45 0 -85.5 -28.5t-71.5 -76.5t-49.5 -112t-18.5 -134v-83h47q17 0 29 -4t19.5 -15.5t11 -31.5
t3.5 -52t-3.5 -52t-11 -31t-19.5 -15t-29 -4h-374q-17 0 -29 4t-19.5 15t-11 31t-3.5 52t3.5 52t11 31.5t19.5 15.5t29 4h77v745h-114q-17 0 -29 4t-19.5 15t-11 31t-3.5 52t3.5 52t11 31.5t19.5 15.5t29 4h114z" />
    <glyph glyph-name="hcircumflex" unicode="&#x125;" 
d="M325 1399q-19 -9 -36 -1.5t-31 25.5q-14 19 -13.5 38.5t17.5 35.5l287 261q11 10 25 14t30 4t30 -4t25 -14l287 -261q17 -16 17.5 -35.5t-13.5 -38.5q-14 -18 -31 -25.5t-36 1.5l-279 134zM197 1107h-97q-17 0 -29 4t-19.5 15t-11 31t-3.5 52t3.5 52t11 31.5t19.5 15.5
t29 4h284q34 0 48.5 -14.5t14.5 -48.5v-486q63 96 135 139.5t155 43.5q69 0 125 -23t95 -65t60.5 -102.5t21.5 -135.5v-415h77q17 0 29 -4t19.5 -15.5t11 -31.5t3.5 -52t-3.5 -52t-11 -31t-19.5 -15t-29 -4h-374q-17 0 -29 4t-19.5 15t-11 31t-3.5 52t3.5 52t11 31.5
t19.5 15.5t29 4h47v356q0 74 -25.5 116t-91.5 42q-45 0 -85.5 -28.5t-71.5 -76.5t-49.5 -112t-18.5 -134v-163h47q17 0 29 -4t19.5 -15.5t11 -31.5t3.5 -52t-3.5 -52t-11 -31t-19.5 -15t-29 -4h-374q-17 0 -29 4t-19.5 15t-11 31t-3.5 52t3.5 52t11 31.5t19.5 15.5t29 4h77
v902z" />
    <glyph glyph-name="ibreve" unicode="&#x12d;" 
d="M503 719h-193q-17 0 -29 4t-19.5 15t-11 31t-3.5 52t3.5 52t11 31.5t19.5 15.5t29 4h380q34 0 48.5 -14.5t14.5 -48.5v-656h281q17 0 29 -4t19.5 -15.5t11 -31.5t3.5 -52t-3.5 -52t-11 -31t-19.5 -15t-29 -4h-804q-17 0 -29 4t-19.5 15t-11 31t-3.5 52t3.5 52t11 31.5
t19.5 15.5t29 4h273v514zM604 1041q-81 0 -146 18t-113 51.5t-80 81t-48 106.5q-5 18 3.5 33.5t24 27.5t36 19t38.5 7q31 0 44 -20q17 -28 39 -50.5t51 -38t66 -23.5t85 -8t85 8t66 23.5t51 38t39 50.5q13 20 44 20q18 0 38 -7t36 -19t24.5 -27.5t3.5 -33.5
q-16 -59 -48 -106.5t-80 -81t-113 -51.5t-146 -18z" />
    <glyph glyph-name="imacron" unicode="&#x12b;" 
d="M503 719h-193q-17 0 -29 4t-19.5 15t-11 31t-3.5 52t3.5 52t11 31.5t19.5 15.5t29 4h380q34 0 48.5 -14.5t14.5 -48.5v-656h281q17 0 29 -4t19.5 -15.5t11 -31.5t3.5 -52t-3.5 -52t-11 -31t-19.5 -15t-29 -4h-804q-17 0 -29 4t-19.5 15t-11 31t-3.5 52t3.5 52t11 31.5
t19.5 15.5t29 4h273v514zM875 1275q17 0 29 -4t19.5 -15.5t11 -31.5t3.5 -52t-3.5 -52t-11 -31t-19.5 -15t-29 -4h-562q-17 0 -29 4t-19.5 15t-11 31t-3.5 52t3.5 52t11 31.5t19.5 15.5t29 4h562z" />
    <glyph glyph-name="iogonek" unicode="&#x12f;" 
d="M503 719h-193q-17 0 -29 4t-19.5 15t-11 31t-3.5 52t3.5 52t11 31.5t19.5 15.5t29 4h380q34 0 48.5 -14.5t14.5 -48.5v-656h281q17 0 29 -4t19.5 -15.5t11 -31.5t3.5 -52t-3.5 -52t-11 -31t-19.5 -15t-29 -4h-293q-74 -63 -116.5 -121.5t-42.5 -109.5q0 -35 22.5 -51
t65.5 -16q29 0 58.5 4t61.5 9q20 3 32.5 -15t15.5 -53q6 -71 -37 -85q-51 -16 -106 -25t-110 -9q-118 0 -182 51.5t-64 151.5q0 43 14 80.5t38.5 70.5t58.5 62t74 56h-294q-17 0 -29 4t-19.5 15t-11 31t-3.5 52t3.5 52t11 31.5t19.5 15.5t29 4h273v514zM753 1156
q0 -34 -26 -48.5t-97 -14.5t-99 14.5t-28 48.5v164q0 17 5.5 29t19.5 19.5t37.5 11t59.5 3.5q71 0 99.5 -14.5t28.5 -48.5v-164z" />
    <glyph glyph-name="itilde" unicode="&#x129;" 
d="M503 719h-193q-17 0 -29 4t-19.5 15t-11 31t-3.5 52t3.5 52t11 31.5t19.5 15.5t29 4h380q34 0 48.5 -14.5t14.5 -48.5v-656h281q17 0 29 -4t19.5 -15.5t11 -31.5t3.5 -52t-3.5 -52t-11 -31t-19.5 -15t-29 -4h-804q-17 0 -29 4t-19.5 15t-11 31t-3.5 52t3.5 52t11 31.5
t19.5 15.5t29 4h273v514zM737 1250q27 0 58.5 7t63.5 24q23 13 42.5 1.5t35.5 -38.5q14 -27 15 -52t-19 -41q-59 -51 -108.5 -72t-94.5 -21q-42 0 -80 11.5t-74 25.5t-71.5 25.5t-72.5 11.5q-29 0 -60.5 -7t-63.5 -24q-22 -12 -41.5 -1t-34.5 39q-14 26 -15.5 51t17.5 41
q60 52 110 72.5t95 20.5q41 0 79 -11.5t74 -25.5t72 -25.5t73 -11.5z" />
    <glyph glyph-name="jcircumflex" unicode="&#x135;" 
d="M445 1029q-19 -9 -36 -1.5t-31 25.5q-14 19 -13.5 38.5t17.5 35.5l287 261q11 10 25 14t30 4t30 -4t25 -14l287 -261q17 -16 17.5 -35.5t-13.5 -38.5q-14 -18 -31 -25.5t-36 1.5l-279 134zM290 719q-17 0 -29 4t-19.5 15t-11 31t-3.5 52t3.5 52t11 31.5t19.5 15.5t29 4
h570q34 0 48.5 -14.5t14.5 -48.5v-896q0 -188 -91 -284t-266 -96q-87 0 -176.5 29t-180.5 75q-20 11 -31 25.5t-11 37.5q0 21 7.5 46.5t20 48t28.5 37.5t34 15q8 0 17.5 -2.5t18.5 -6.5q33 -15 67 -29t66 -25t62 -17.5t56 -6.5q62 0 95.5 39.5t33.5 126.5v741h-383z" />
    <glyph glyph-name="kcommaaccent" unicode="&#x137;" 
d="M217 1107h-97q-17 0 -29 4t-19.5 15t-11 31t-3.5 52t3.5 52t11 31.5t19.5 15.5t29 4h284q34 0 48.5 -14.5t14.5 -48.5v-722l260 212h-50q-17 0 -29 4t-19.5 14t-11 28t-3.5 46q0 56 14.5 74.5t48.5 18.5h414q34 0 48.5 -18.5t14.5 -74.5q0 -28 -3.5 -46t-11 -28
t-19.5 -14t-29 -4h-40l-249 -201l243 -333h61q17 0 29 -4t19.5 -15.5t11 -31.5t3.5 -52t-3.5 -52t-11 -31t-19.5 -15t-29 -4h-171q-23 0 -43 9t-35 31l-252 350l-138 -105v-80h87q17 0 29 -4t19.5 -15.5t11 -31.5t3.5 -52t-3.5 -52t-11 -31t-19.5 -15t-29 -4h-414
q-17 0 -29 4t-19.5 15t-11 31t-3.5 52t3.5 52t11 31.5t19.5 15.5t29 4h77v902zM593 -502q-24 -43 -91 -43q-34 0 -52.5 13.5t-13.5 45.5l53 313q5 27 36 27h222q17 0 23.5 -13t-3.5 -30z" />
    <glyph glyph-name="lacute" unicode="&#x13a;" 
d="M792 1762q28 16 59 -3.5t61 -87.5q30 -69 26.5 -102.5t-29.5 -40.5l-480 -125q-24 -7 -42 4.5t-26 34.5q-8 22 -2.5 41.5t25.5 31.5zM493 1107h-233q-17 0 -29 4t-19.5 15t-11 31t-3.5 52t3.5 52t11 31.5t19.5 15.5t29 4h420q34 0 48.5 -14.5t14.5 -48.5v-1044h281
q17 0 29 -4t19.5 -15.5t11 -31.5t3.5 -52t-3.5 -52t-11 -31t-19.5 -15t-29 -4h-804q-17 0 -29 4t-19.5 15t-11 31t-3.5 52t3.5 52t11 31.5t19.5 15.5t29 4h273v902z" />
    <glyph glyph-name="lcaron" unicode="&#x13e;" 
d="M493 1107h-233q-17 0 -29 4t-19.5 15t-11 31t-3.5 52t3.5 52t11 31.5t19.5 15.5t29 4h420q34 0 48.5 -14.5t14.5 -48.5v-1044h281q17 0 29 -4t19.5 -15.5t11 -31.5t3.5 -52t-3.5 -52t-11 -31t-19.5 -15t-29 -4h-804q-17 0 -29 4t-19.5 15t-11 31t-3.5 52t3.5 52t11 31.5
t19.5 15.5t29 4h273v902zM934.54 813.687q-14.0596 -27.3154 -33.4951 -38.9043q-19.4346 -11.5889 -54.1699 -11.5889q-41.3516 0 -57.0645 16.1416q-15.7139 16.1416 -9.09766 55.0459l69.4707 390.702q6.61523 33.1104 43.0049 33.1104h214.2q20.6758 0 27.291 -15.3135
q6.61719 -15.3135 -4.13477 -36.835z" />
    <glyph glyph-name="lcommaaccent" unicode="&#x13c;" 
d="M493 1107h-233q-17 0 -29 4t-19.5 15t-11 31t-3.5 52t3.5 52t11 31.5t19.5 15.5t29 4h420q34 0 48.5 -14.5t14.5 -48.5v-1044h281q17 0 29 -4t19.5 -15.5t11 -31.5t3.5 -52t-3.5 -52t-11 -31t-19.5 -15t-29 -4h-804q-17 0 -29 4t-19.5 15t-11 31t-3.5 52t3.5 52t11 31.5
t19.5 15.5t29 4h273v902zM583 -502q-24 -43 -91 -43q-34 0 -52.5 13.5t-13.5 45.5l53 313q5 27 36 27h222q17 0 23.5 -13t-3.5 -30z" />
    <glyph glyph-name="ldot" unicode="&#x140;" 
d="M433 1107h-233q-17 0 -29 4t-19.5 15t-11 31t-3.5 52t3.5 52t11 31.5t19.5 15.5t29 4h420q34 0 48.5 -14.5t14.5 -48.5v-1044h281q17 0 29 -4t19.5 -15.5t11 -31.5t3.5 -52t-3.5 -52t-11 -31t-19.5 -15t-29 -4h-804q-17 0 -29 4t-19.5 15t-11 31t-3.5 52t3.5 52t11 31.5
t19.5 15.5t29 4h273v902zM844 726q0 37 14 70t38.5 57.5t57.5 38.5t70 14t70 -14t57.5 -38.5t38.5 -57.5t14 -70t-14 -70t-38.5 -57.5t-57.5 -38.5t-70 -14t-70 14t-57.5 38.5t-38.5 57.5t-14 70z" />
    <glyph glyph-name="nacute" unicode="&#x144;" 
d="M217 719h-97q-17 0 -29 4t-19.5 15t-11 31t-3.5 52t3.5 52t11 31.5t19.5 15.5t29 4h244q34 0 48.5 -14.5t14.5 -48.5v-145q70 122 153 176t177 54q69 0 125 -23t95 -65t60.5 -102.5t21.5 -135.5v-415h77q17 0 29 -4t19.5 -15.5t11 -31.5t3.5 -52t-3.5 -52t-11 -31
t-19.5 -15t-29 -4h-374q-17 0 -29 4t-19.5 15t-11 31t-3.5 52t3.5 52t11 31.5t19.5 15.5t29 4h47v356q0 74 -25.5 116t-91.5 42q-45 0 -85.5 -28.5t-71.5 -76.5t-49.5 -112t-18.5 -134v-163h47q17 0 29 -4t19.5 -15.5t11 -31.5t3.5 -52t-3.5 -52t-11 -31t-19.5 -15t-29 -4
h-374q-17 0 -29 4t-19.5 15t-11 31t-3.5 52t3.5 52t11 31.5t19.5 15.5t29 4h77v514zM822 1392q28 16 59 -3.5t61 -87.5q30 -69 26.5 -102.5t-29.5 -40.5l-480 -125q-24 -7 -42 4.5t-26 34.5q-8 22 -2.5 41.5t25.5 31.5z" />
    <glyph glyph-name="ncaron" unicode="&#x148;" 
d="M217 719h-97q-17 0 -29 4t-19.5 15t-11 31t-3.5 52t3.5 52t11 31.5t19.5 15.5t29 4h244q34 0 48.5 -14.5t14.5 -48.5v-145q70 122 153 176t177 54q69 0 125 -23t95 -65t60.5 -102.5t21.5 -135.5v-415h77q17 0 29 -4t19.5 -15.5t11 -31.5t3.5 -52t-3.5 -52t-11 -31
t-19.5 -15t-29 -4h-374q-17 0 -29 4t-19.5 15t-11 31t-3.5 52t3.5 52t11 31.5t19.5 15.5t29 4h47v356q0 74 -25.5 116t-91.5 42q-45 0 -85.5 -28.5t-71.5 -76.5t-49.5 -112t-18.5 -134v-163h47q17 0 29 -4t19.5 -15.5t11 -31.5t3.5 -52t-3.5 -52t-11 -31t-19.5 -15t-29 -4
h-374q-17 0 -29 4t-19.5 15t-11 31t-3.5 52t3.5 52t11 31.5t19.5 15.5t29 4h77v514zM893 1394q19 9 36 1.5t31 -25.5q14 -19 13.5 -38.5t-17.5 -35.5l-287 -261q-11 -10 -25 -14t-30 -4t-30 4t-25 14l-287 261q-17 16 -17.5 35.5t13.5 38.5q14 18 31 25.5t36 -1.5l279 -134z
" />
    <glyph glyph-name="ncommaaccent" unicode="&#x146;" 
d="M217 719h-97q-17 0 -29 4t-19.5 15t-11 31t-3.5 52t3.5 52t11 31.5t19.5 15.5t29 4h244q34 0 48.5 -14.5t14.5 -48.5v-145q70 122 153 176t177 54q69 0 125 -23t95 -65t60.5 -102.5t21.5 -135.5v-415h77q17 0 29 -4t19.5 -15.5t11 -31.5t3.5 -52t-3.5 -52t-11 -31
t-19.5 -15t-29 -4h-374q-17 0 -29 4t-19.5 15t-11 31t-3.5 52t3.5 52t11 31.5t19.5 15.5t29 4h47v356q0 74 -25.5 116t-91.5 42q-45 0 -85.5 -28.5t-71.5 -76.5t-49.5 -112t-18.5 -134v-163h47q17 0 29 -4t19.5 -15.5t11 -31.5t3.5 -52t-3.5 -52t-11 -31t-19.5 -15t-29 -4
h-374q-17 0 -29 4t-19.5 15t-11 31t-3.5 52t3.5 52t11 31.5t19.5 15.5t29 4h77v514zM593 -502q-24 -43 -91 -43q-34 0 -52.5 13.5t-13.5 45.5l53 313q5 27 36 27h222q17 0 23.5 -13t-3.5 -30z" />
    <glyph glyph-name="obreve" unicode="&#x14f;" 
d="M614 -22q-116 0 -209.5 36t-159.5 100.5t-102 153.5t-36 194t36 193.5t102 153t159.5 101t209.5 36.5t209.5 -36.5t159.5 -101t102 -153t36 -193.5t-36 -194t-102 -153.5t-159.5 -100.5t-209.5 -36zM614 719q-54 0 -98.5 -18t-75.5 -52t-48 -81.5t-17 -105.5
q0 -59 17 -106t48 -81t75.5 -52t98.5 -18t98.5 18t75.5 52t48 81t17 106q0 58 -17 105.5t-48 81.5t-75.5 52t-98.5 18zM614 1041q-81 0 -146 18t-113 51.5t-80 81t-48 106.5q-5 18 3.5 33.5t24 27.5t36 19t38.5 7q31 0 44 -20q17 -28 39 -50.5t51 -38t66 -23.5t85 -8t85 8
t66 23.5t51 38t39 50.5q13 20 44 20q18 0 38 -7t36 -19t24.5 -27.5t3.5 -33.5q-16 -59 -48 -106.5t-80 -81t-113 -51.5t-146 -18z" />
    <glyph glyph-name="ohungarumlaut" unicode="&#x151;" 
d="M435 1066q-18 -13 -50 -13q-35 0 -58.5 17.5t-23.5 40.5q0 17 12 29l198 210q16 17 41 25t54 8q32 0 57 -8.5t42 -21t26 -26.5t9 -26q0 -21 -19 -34zM835 1066q-18 -13 -50 -13q-35 0 -58.5 17.5t-23.5 40.5q0 17 12 29l198 210q16 17 41 25t54 8q32 0 57 -8.5t42 -21
t26 -26.5t9 -26q0 -21 -19 -34zM614 -22q-116 0 -209.5 36t-159.5 100.5t-102 153.5t-36 194t36 193.5t102 153t159.5 101t209.5 36.5t209.5 -36.5t159.5 -101t102 -153t36 -193.5t-36 -194t-102 -153.5t-159.5 -100.5t-209.5 -36zM614 719q-54 0 -98.5 -18t-75.5 -52
t-48 -81.5t-17 -105.5q0 -59 17 -106t48 -81t75.5 -52t98.5 -18t98.5 18t75.5 52t48 81t17 106q0 58 -17 105.5t-48 81.5t-75.5 52t-98.5 18z" />
    <glyph glyph-name="omacron" unicode="&#x14d;" 
d="M895 1275q17 0 29 -4t19.5 -15.5t11 -31.5t3.5 -52t-3.5 -52t-11 -31t-19.5 -15t-29 -4h-562q-17 0 -29 4t-19.5 15t-11 31t-3.5 52t3.5 52t11 31.5t19.5 15.5t29 4h562zM614 -22q-116 0 -209.5 36t-159.5 100.5t-102 153.5t-36 194t36 193.5t102 153t159.5 101
t209.5 36.5t209.5 -36.5t159.5 -101t102 -153t36 -193.5t-36 -194t-102 -153.5t-159.5 -100.5t-209.5 -36zM614 719q-54 0 -98.5 -18t-75.5 -52t-48 -81.5t-17 -105.5q0 -59 17 -106t48 -81t75.5 -52t98.5 -18t98.5 18t75.5 52t48 81t17 106q0 58 -17 105.5t-48 81.5
t-75.5 52t-98.5 18z" />
    <glyph glyph-name="racute" unicode="&#x155;" 
d="M874 1392q28 16 59 -3.5t61 -87.5q30 -69 26.5 -102.5t-29.5 -40.5l-480 -125q-24 -7 -42 4.5t-26 34.5q-8 22 -2.5 41.5t25.5 31.5zM337 719h-117q-17 0 -29 4t-19.5 15t-11 31t-3.5 52t3.5 52t11 31.5t19.5 15.5t29 4h274q34 0 48.5 -14.5t14.5 -48.5v-217
q76 146 173 224t197 78q85 0 160 -56q37 -28 43 -66.5t-17 -95.5q-24 -61 -55 -80.5t-63 -2.5q-29 16 -58 23.5t-58 7.5q-58 0 -110.5 -28t-93 -78t-64.5 -119t-24 -151v-95h287q17 0 29 -4t19.5 -15.5t11 -31.5t3.5 -52t-3.5 -52t-11 -31t-19.5 -15t-29 -4h-684
q-17 0 -29 4t-19.5 15t-11 31t-3.5 52t3.5 52t11 31.5t19.5 15.5t29 4h147v514z" />
    <glyph glyph-name="rcaron" unicode="&#x159;" 
d="M337 719h-117q-17 0 -29 4t-19.5 15t-11 31t-3.5 52t3.5 52t11 31.5t19.5 15.5t29 4h274q34 0 48.5 -14.5t14.5 -48.5v-217q76 146 173 224t197 78q85 0 160 -56q37 -28 43 -66.5t-17 -95.5q-24 -61 -55 -80.5t-63 -2.5q-29 16 -58 23.5t-58 7.5q-58 0 -110.5 -28
t-93 -78t-64.5 -119t-24 -151v-95h287q17 0 29 -4t19.5 -15.5t11 -31.5t3.5 -52t-3.5 -52t-11 -31t-19.5 -15t-29 -4h-684q-17 0 -29 4t-19.5 15t-11 31t-3.5 52t3.5 52t11 31.5t19.5 15.5t29 4h147v514zM923 1394q19 9 36 1.5t31 -25.5q14 -19 13.5 -38.5t-17.5 -35.5
l-287 -261q-11 -10 -25 -14t-30 -4t-30 4t-25 14l-287 261q-17 16 -17.5 35.5t13.5 38.5q14 18 31 25.5t36 -1.5l279 -134z" />
    <glyph glyph-name="rcommaaccent" unicode="&#x157;" 
d="M337 719h-117q-17 0 -29 4t-19.5 15t-11 31t-3.5 52t3.5 52t11 31.5t19.5 15.5t29 4h274q34 0 48.5 -14.5t14.5 -48.5v-217q76 146 173 224t197 78q85 0 160 -56q37 -28 43 -66.5t-17 -95.5q-24 -61 -55 -80.5t-63 -2.5q-29 16 -58 23.5t-58 7.5q-58 0 -110.5 -28
t-93 -78t-64.5 -119t-24 -151v-95h287q17 0 29 -4t19.5 -15.5t11 -31.5t3.5 -52t-3.5 -52t-11 -31t-19.5 -15t-29 -4h-684q-17 0 -29 4t-19.5 15t-11 31t-3.5 52t3.5 52t11 31.5t19.5 15.5t29 4h147v514zM493 -502q-24 -43 -91 -43q-34 0 -52.5 13.5t-13.5 45.5l53 313
q5 27 36 27h222q17 0 23.5 -13t-3.5 -30z" />
    <glyph glyph-name="sacute" unicode="&#x15b;" 
d="M414 41q0 -34 -29 -48.5t-93 -14.5t-91 14.5t-27 48.5v223q0 34 23.5 48.5t72.5 14.5q33 0 52.5 -7t30.5 -21q54 -67 133 -94t166 -27q84 0 122 21.5t38 61.5q0 26 -24 41t-65 24t-94 15t-110 15t-113 23.5t-104 40.5q-60 33 -99 90t-39 150q0 67 27.5 120t76 90
t115 56.5t143.5 19.5q81 0 146.5 -19t121.5 -54v10q0 34 24 48.5t88 14.5t91 -14.5t27 -48.5v-211q0 -34 -21.5 -48.5t-70.5 -14.5q-53 0 -73 21q-62 65 -139 90.5t-172 25.5q-61 0 -93.5 -21.5t-32.5 -55.5q0 -23 20 -37.5t54 -22.5q37 -9 86 -14t103.5 -11.5t110 -17.5
t104.5 -31q36 -15 67.5 -36.5t54 -51.5t35.5 -69.5t13 -90.5q0 -71 -26 -128t-77 -97.5t-125 -62t-170 -21.5q-78 0 -141 19.5t-117 51.5v-8zM802 1392q28 16 59 -3.5t61 -87.5q30 -69 26.5 -102.5t-29.5 -40.5l-480 -125q-24 -7 -42 4.5t-26 34.5q-8 22 -2.5 41.5
t25.5 31.5z" />
    <glyph glyph-name="scedilla" unicode="&#x15f;" 
d="M414 41q0 -34 -29 -48.5t-93 -14.5t-91 14.5t-27 48.5v223q0 34 23.5 48.5t72.5 14.5q33 0 52.5 -7t30.5 -21q54 -67 133 -94t166 -27q84 0 122 21.5t38 61.5q0 26 -24 41t-65 24t-94 15t-110 15t-113 23.5t-104 40.5q-60 33 -99 90t-39 150q0 67 27.5 120t76 90
t115 56.5t143.5 19.5q81 0 146.5 -19t121.5 -54v10q0 34 24 48.5t88 14.5t91 -14.5t27 -48.5v-211q0 -34 -21.5 -48.5t-70.5 -14.5q-53 0 -73 21q-62 65 -139 90.5t-172 25.5q-61 0 -93.5 -21.5t-32.5 -55.5q0 -23 20 -37.5t54 -22.5q37 -9 86 -14t103.5 -11.5t110 -17.5
t104.5 -31q36 -15 67.5 -36.5t54 -51.5t35.5 -69.5t13 -90.5q0 -135 -91.5 -216.5t-264.5 -91.5v-72q58 2 101 -11t70.5 -38t41 -60.5t13.5 -78.5q0 -91 -70.5 -141t-208.5 -50q-75 0 -140.5 11t-118.5 31q-19 8 -20.5 29t9.5 53q13 35 28.5 50.5t35.5 9.5q39 -15 76 -24.5
t87 -9.5q86 0 86 53q0 21 -11 32.5t-28 17t-39.5 4.5t-44.5 -6q-17 -4 -29.5 5.5t-12.5 35.5v175q-35 9 -65.5 23t-59.5 31v-8z" />
    </font>
</defs>
</svg>
