<?xml version="1.0" standalone="no"?>
<!DOCTYPE svg PUBLIC "-//W3C//DTD SVG 1.1//EN" "http://www.w3.org/Graphics/SVG/1.1/DTD/svg11.dtd" >
<svg xmlns="http://www.w3.org/2000/svg" xmlns:xlink="http://www.w3.org/1999/xlink" version="1.1">
<metadata>
Created by FontForge 20141024 at Thu May 21 10:39:27 2015
 By System Administrator
Copyright (c) 2013 Quote-Unquote Apps.
</metadata>
<defs>
<font id="CourierPrime-BoldItalic" horiz-adv-x="1228" >
  <font-face 
    font-family="Courier Prime"
    font-weight="700"
    font-style="italic"
    font-stretch="normal"
    units-per-em="2048"
    panose-1="2 0 4 9 0 0 0 0 0 0"
    ascent="1638"
    descent="-410"
    x-height="924"
    cap-height="1187"
    bbox="-561 -838 3213 1797"
    underline-thickness="180"
    underline-position="-40"
    unicode-range="U+0020-FB02"
  />
<missing-glyph 
 />
    <glyph glyph-name=".notdef" 
 />
    <glyph glyph-name="exclam" unicode="!" 
d="M882 1209q46 0 32 -50l-175 -577q-11 -38 -39.5 -58t-67.5 -20t-60 20t-19 58l29 577q3 50 50 50h250zM564 -22q-36 0 -66.5 13.5t-52.5 36t-34.5 53t-12.5 64.5q0 45 18 84t47.5 67.5t68.5 44.5t81 16q36 0 66.5 -13t52.5 -35.5t34.5 -53t12.5 -64.5q0 -45 -17.5 -84
t-47.5 -67.5t-69 -45t-81 -16.5z" />
    <glyph glyph-name="quotedbl" unicode="&#x22;" 
d="M652 1209q23 0 31.5 -12t0.5 -38l-158 -480q-10 -31 -33 -49.5t-72 -18.5t-65.5 18.5t-15.5 49.5l12 480q1 26 14 38t36 12h250zM1112 1209q23 0 31.5 -12t0.5 -38l-158 -480q-10 -31 -33 -49.5t-72 -18.5t-65.5 18.5t-15.5 49.5l12 480q1 26 14 38t36 12h250z" />
    <glyph glyph-name="numbersign" unicode="#" 
d="M523 940l116 236q8 17 30.5 25t48.5 8q21 0 42 -4.5t36 -13.5t21.5 -21.5t-0.5 -27.5l-99 -202h199l116 236q8 17 30.5 25t48.5 8q21 0 42 -4.5t36 -13.5t21.5 -21.5t-0.5 -27.5l-99 -202h108q17 0 28 -4.5t16.5 -16.5t5 -34t-6.5 -58t-13 -58t-17 -34t-22.5 -16
t-29.5 -4h-180l-114 -233h152q17 0 28 -4.5t16.5 -16.5t5.5 -34t-6 -58t-13.5 -58t-17.5 -34t-22.5 -16t-29.5 -4h-223l-120 -246q-8 -17 -30.5 -25t-48.5 -8q-21 0 -42 4.5t-36 13.5t-22 21.5t1 27.5l104 212h-200l-120 -246q-8 -17 -30.5 -25t-48.5 -8q-21 0 -42 4.5
t-36 13.5t-22 21.5t1 27.5l104 212h-111q-17 0 -28 4t-16.5 16t-5 34t6.5 58t13 58t17 34t22.5 16.5t29.5 4.5h182l114 233h-154q-17 0 -28 4t-16.5 16t-5.5 34t6 58t13.5 58t17.5 34t22.5 16.5t29.5 4.5h225zM493 482h200l114 233h-200z" />
    <glyph glyph-name="dollar" unicode="$" 
d="M376 181q-5 -34 -37 -48.5t-96 -14.5t-88.5 14.5t-18.5 48.5l39 223q6 34 32 48.5t75 14.5q33 0 51.5 -7t26.5 -21q25 -40 62 -65t82 -39l30 171q-51 11 -100.5 25.5t-91.5 39.5q-48 29 -78.5 74.5t-30.5 114.5q0 66 26.5 127.5t80.5 106.5q55 45 131 67.5t165 24.5
l29 163q3 17 9 29t18 19.5t30.5 11t46.5 3.5q56 0 72 -14.5t10 -48.5l-35 -195q23 -9 44 -20.5t41 -25.5l3 15q7 34 33 48.5t90 14.5t88.5 -14.5t18.5 -48.5l-37 -211q-6 -34 -30 -48.5t-73 -14.5q-54 0 -69 21q-29 37 -64 60t-78 36l-27 -154q57 -9 111.5 -23t99.5 -40
q48 -28 78.5 -71.5t30.5 -112.5q0 -63 -23.5 -124.5t-71.5 -109.5q-110 -105 -329 -113l-32 -180q-6 -34 -27.5 -48.5t-77.5 -14.5t-71.5 14.5t-9.5 48.5l36 207q-26 10 -48.5 22.5t-43.5 26.5zM714 474l-27 -154q62 6 95 31q18 14 25 30.5t7 27.5q0 25 -22.5 42.5
t-77.5 25.5v-3zM600 884q-25 -3 -44 -10.5t-33 -18.5q-30 -24 -30 -55q0 -25 20 -39t62 -22z" />
    <glyph glyph-name="percent" unicode="%" 
d="M835 -22q-51 0 -93.5 18.5t-73.5 51t-48.5 75.5t-17.5 92q0 65 27 121.5t71 98.5t101.5 66.5t119.5 24.5q51 0 93.5 -18.5t73.5 -51t48.5 -75.5t17.5 -92q0 -65 -27 -122t-71 -99t-102 -66t-119 -24zM863 165q19 0 38 8t33 22t23 32.5t9 38.5q0 31 -20.5 52t-52.5 21
q-20 0 -39 -8.5t-33.5 -22.5t-23 -32.5t-8.5 -39.5q0 -30 21 -50.5t53 -20.5zM375 661q-51 0 -93.5 18.5t-73.5 51t-48.5 75.5t-17.5 92q0 65 27 121.5t71 98.5t101.5 66.5t119.5 24.5q51 0 93.5 -18.5t73.5 -51t48.5 -75.5t17.5 -92q0 -65 -27 -122t-71 -99t-102 -66
t-119 -24zM403 848q19 0 38 8t33 22t23 32.5t9 38.5q0 31 -20.5 52t-52.5 21q-20 0 -39 -8.5t-33.5 -22.5t-23 -32.5t-8.5 -39.5q0 -30 21 -50.5t53 -20.5zM1105 1083q28 23 51 18.5t57 -47.5q17 -22 25 -38t7.5 -29t-8.5 -24t-22 -23l-1024 -834q-14 -12 -26.5 -17
t-25 -2.5t-26 14t-30.5 33.5q-33 44 -32 68t30 47z" />
    <glyph glyph-name="ampersand" unicode="&#x26;" 
d="M990 440q-46 -87 -91 -154l64 -81h87q17 0 28 -4t16.5 -15.5t5.5 -31.5t-6 -52t-12.5 -52t-16 -31t-22 -15t-29.5 -4h-161q-41 0 -67 33l-51 65q-147 -120 -333 -120q-71 0 -128.5 22t-98.5 60.5t-63 92t-22 116.5q0 118 62 208.5t177 157.5q-22 43 -35 89t-13 95
q0 68 26.5 137.5t80 125.5t135.5 91.5t193 35.5q77 0 159 -24.5t160 -75.5q20 -13 29 -27.5t5 -35.5l-34 -192q-6 -34 -37.5 -48.5t-95.5 -14.5t-83.5 14.5t-13.5 48.5l19 107q-64 31 -138 31q-33 0 -61 -12.5t-48.5 -35t-31.5 -52.5t-11 -65q0 -42 17.5 -81t49.5 -80
l154 -196q18 31 36 64t37 69q9 19 22.5 30.5t36.5 11.5h220q17 0 28 -4t17 -15t6 -31t-6 -52t-13 -52t-16.5 -31.5t-22 -15.5t-29.5 -4h-81zM442 205q42 0 81 17t77 49l-159 203q-49 -37 -75 -79.5t-26 -93.5q0 -45 27 -70.5t75 -25.5z" />
    <glyph glyph-name="quotesingle" unicode="'" 
d="M882 1209q23 0 31.5 -12t0.5 -38l-158 -480q-10 -31 -33 -49.5t-72 -18.5t-65.5 18.5t-15.5 49.5l12 480q1 26 14 38t36 12h250z" />
    <glyph glyph-name="parenleft" unicode="(" 
d="M932 1315q17 9 33.5 6t31.5 -14t28 -28t23 -37q10 -21 16 -43t6.5 -41.5t-5.5 -34.5t-19 -22q-128 -70 -229.5 -151.5t-171.5 -179t-107 -213t-37 -251.5q0 -164 70.5 -291.5t211.5 -227.5q10 -8 12 -22t-2.5 -31.5t-15 -36.5t-24.5 -37q-14 -17 -29.5 -31.5t-31.5 -23
t-32 -10t-30 7.5q-73 46 -141 113.5t-120 155t-83 195.5t-31 234q0 154 43.5 300t129 276.5t212 241.5t292.5 196z" />
    <glyph glyph-name="parenright" unicode=")" 
d="M316 -397q-17 -9 -33.5 -6t-31.5 14t-28 28t-23 37q-10 21 -16 42.5t-6.5 41t5.5 35t19 22.5q128 70 229.5 151.5t171.5 179t107 212.5t37 252q0 163 -70.5 291t-211.5 228q-11 7 -12.5 21.5t3 32t15 36.5t24.5 37q13 17 29 31.5t32 23t32 10t30 -7.5q73 -46 141 -113.5
t120 -155.5t83 -195.5t31 -233.5q0 -155 -43.5 -300.5t-129 -276t-212 -241.5t-292.5 -196z" />
    <glyph glyph-name="asterisk" unicode="*" 
d="M747 1209q34 0 58 -12.5t36.5 -33t13.5 -47t-10 -54.5l-82 -203l192 105q54 29 99 14.5t61 -79.5q8 -33 2 -59.5t-22.5 -46t-42 -31t-56.5 -14.5l-212 -19l140 -142q18 -19 27 -42.5t5.5 -48t-20 -47.5t-49.5 -40q-63 -33 -106 -17t-58 68l-58 198l-111 -192
q-16 -27 -37.5 -44.5t-46 -23.5t-50.5 0t-51 27q-25 20 -35 44t-7 48.5t17.5 47.5t39.5 42l175 132l-193 18q-57 5 -81.5 45t1.5 109q13 33 34.5 53t47 28t51.5 4.5t48 -18.5l160 -108l-11 205q-2 28 5.5 52.5t24 42.5t41.5 28.5t60 10.5z" />
    <glyph glyph-name="plus" unicode="+" 
d="M501 470h-268q-17 0 -29 4t-19.5 16t-11 34t-3.5 58t3.5 58t11 34t19.5 16.5t29 4.5h268v268q0 17 4.5 29t16.5 19.5t34 11t58 3.5t58 -3.5t34 -11t16 -19.5t4 -29v-268h269q17 0 29 -4.5t19.5 -16.5t11 -34t3.5 -58t-3.5 -58t-11 -34t-19.5 -16t-29 -4h-269v-269
q0 -17 -4 -29t-16 -19.5t-34 -11t-58 -3.5t-58 3.5t-34 11t-16.5 19.5t-4.5 29v269z" />
    <glyph glyph-name="comma" unicode="," 
d="M420 -253q-28 -41 -98 -41q-42 0 -63 16.5t-11 49.5l165 542q6 20 22 30t37 10h299q25 0 29.5 -18.5t-12.5 -44.5z" />
    <glyph glyph-name="hyphen" unicode="-" 
d="M1047 695q17 0 28 -4.5t16.5 -16.5t5 -34t-6.5 -58t-13.5 -58t-17.5 -34t-22.5 -16t-29.5 -4h-762q-17 0 -28 4t-16.5 16t-5 34t6.5 58t13.5 58t17.5 34t22.5 16.5t29.5 4.5h762z" />
    <glyph glyph-name="period" unicode="." 
d="M550 -22q-40 0 -73.5 14.5t-58 39.5t-38 58t-13.5 71q0 50 19.5 92.5t52.5 74t75.5 49t88.5 17.5q40 0 73.5 -14.5t57.5 -39t37.5 -58t13.5 -70.5q0 -50 -19.5 -92.5t-51.5 -74t-75 -49.5t-89 -18z" />
    <glyph glyph-name="slash" unicode="/" 
d="M297 -267q-11 -17 -34 -25t-52 -8q-31 0 -63 8.5t-55 24t-32 37t7 47.5l905 1488q11 17 35 25.5t53 8.5q31 0 63 -8.5t54.5 -24t31 -37t-7.5 -48.5z" />
    <glyph glyph-name="zero" unicode="0" 
d="M580 205q121 0 198 133q24 42 42.5 95.5t31.5 109.5t19.5 111t6.5 99q0 115 -41 172t-120 57q-121 0 -198 -133q-24 -42 -42.5 -95.5t-31.5 -109.5t-19.5 -111t-6.5 -99q0 -115 41 -172t120 -57zM555 -22q-96 0 -170.5 34t-125.5 96t-77.5 148.5t-26.5 190.5
q0 65 10.5 135t30.5 138.5t49 133t67 118.5q78 112 186 174.5t244 62.5q96 0 170.5 -34t125.5 -96t77.5 -148.5t26.5 -190.5q0 -65 -10.5 -135t-30.5 -138.5t-49 -133t-67 -118.5q-78 -112 -186 -174.5t-244 -62.5z" />
    <glyph glyph-name="one" unicode="1" 
d="M611 923l-198 -67q-17 -6 -30 -5t-23.5 10t-19 27t-16.5 47q-16 59 -4.5 83.5t44.5 35.5l441 151q49 17 75.5 -3.5t16.5 -73.5l-162 -923h256q17 0 28 -4t16.5 -15.5t5.5 -31.5t-6 -52t-12.5 -52t-16 -31t-22 -15t-29.5 -4h-732q-17 0 -28.5 4t-17 15t-6 31t5.5 52t13 52
t16.5 31.5t22.5 15.5t30 4h226z" />
    <glyph glyph-name="two" unicode="2" 
d="M797 215l17 92q3 17 10 29t20.5 19.5t35 11t53.5 3.5q64 0 90.5 -14.5t20.5 -48.5l-43 -242q-6 -35 -23.5 -50t-52.5 -15h-774q-17 0 -28 4t-17 15.5t-6 31.5t6 52q7 41 16.5 65.5t25.5 37.5l502 413q67 55 105 93t57 72q11 20 17.5 44t6.5 50q0 53 -33 83.5t-98 30.5
q-47 0 -92.5 -11.5t-87.5 -30.5l-25 -140q-3 -17 -10 -29t-20.5 -19.5t-35 -11t-53.5 -3.5q-64 0 -90.5 14.5t-20.5 48.5l44 247q7 41 54 64q100 50 190 69t175 19q88 0 155 -23t112.5 -64t68.5 -97.5t23 -123.5q0 -48 -11.5 -100t-36.5 -99q-30 -57 -82 -109t-127 -115
l-320 -263h282z" />
    <glyph glyph-name="three" unicode="3" 
d="M530 205q70 0 117 16.5t75.5 43t40 60t11.5 66.5q0 112 -148 112h-103q-17 0 -28 5t-16.5 17t-5.5 32.5t6 52.5t13 53t16.5 33t22.5 17t30 5h76q63 0 104.5 16t64.5 45q17 23 25.5 50t8.5 57q0 106 -145 106q-45 0 -83.5 -6.5t-73.5 -16.5l-14 -79q-3 -17 -10 -29
t-20.5 -19.5t-35 -11t-53.5 -3.5q-64 0 -90.5 14.5t-20.5 48.5l35 197q9 45 61 64q83 32 165.5 45t167.5 13q89 0 158.5 -20t117.5 -57t73 -91t25 -121q0 -103 -46 -181.5t-143 -124.5q62 -31 96.5 -86.5t34.5 -131.5q0 -34 -6.5 -70.5t-19.5 -72t-32.5 -69t-45.5 -62.5
q-61 -67 -164.5 -105.5t-260.5 -38.5q-93 0 -177 19.5t-153 57.5q-26 14 -29.5 46t22.5 90q26 59 52.5 74.5t47.5 4.5q59 -30 125 -47.5t132 -17.5z" />
    <glyph glyph-name="four" unicode="4" 
d="M608 370h-430q-17 0 -28 4t-17 15t-6 31t6 52q6 36 15.5 62t20.5 37l573 579q31 31 68.5 45t90.5 14q31 0 50 -6.5t28.5 -18.5t11.5 -28.5t-1 -36.5l-96 -544h172q17 0 28 -4t17 -15.5t6 -31.5t-6 -52t-13 -52t-16.5 -31t-22 -15t-29.5 -4h-172l-29 -165h142q17 0 28 -4
t16.5 -15.5t5.5 -31.5t-6 -52t-12.5 -52t-16 -31t-22 -15t-29.5 -4h-562q-17 0 -28.5 4t-17 15t-6 31t5.5 52t13 52t16.5 31.5t22.5 15.5t30 4h170zM653 575l67 292l-286 -292h219z" />
    <glyph glyph-name="five" unicode="5" 
d="M175 67q-26 15 -29.5 46.5t22.5 89.5q14 31 27.5 49t26 26.5t24 9t22.5 -5.5q62 -34 131.5 -55.5t140.5 -21.5q61 0 106 19t75 50.5t44.5 71.5t14.5 82q0 63 -38 97t-110 34q-51 0 -102 -10t-96 -26q-21 -8 -44 -12t-41 -4q-65 0 -88.5 15t-15.5 50l130 550q8 35 25 50
t52 15h608q17 0 28 -5t16.5 -17t5.5 -33t-6 -53t-13 -52.5t-17 -32.5t-22.5 -17t-29.5 -5h-442l-53 -223q50 18 94 27.5t94 9.5q82 0 144.5 -25t104.5 -68.5t63 -104t21 -130.5q0 -85 -26 -170t-81 -152q-60 -73 -162 -115.5t-259 -42.5q-96 0 -185.5 24t-159.5 65z" />
    <glyph glyph-name="six" unicode="6" 
d="M566 -22q-134 0 -222 57t-133 151q-20 40 -30 94.5t-10 117.5q0 65 12.5 142.5t41.5 157t75.5 156t115.5 139.5q111 102 272 156.5t381 59.5q27 1 38.5 -24.5t13.5 -82.5q2 -69 -14 -101.5t-39 -33.5q-138 -3 -239.5 -25t-173.5 -63t-119 -102t-75 -143q61 52 129 79.5
t155 27.5q75 0 135.5 -24t104 -67t67 -102t23.5 -128q0 -86 -33.5 -166t-98.5 -141.5t-160 -98t-217 -36.5zM595 201q53 0 94.5 16.5t70 44t43 63.5t14.5 75q0 62 -41 95.5t-116 33.5q-53 0 -95.5 -15.5t-72 -41.5t-45 -60.5t-15.5 -71.5q0 -29 10.5 -54.5t31 -44t51 -29.5
t70.5 -11z" />
    <glyph glyph-name="seven" unicode="7" 
d="M870 972h-351l-37 -212q-3 -17 -10 -29t-21 -19.5t-35.5 -11t-53.5 -3.5q-64 0 -90 14.5t-20 48.5l63 362q6 35 24 50t53 15h764q17 0 28 -4t17 -15.5t6 -31.5t-6 -52q-9 -50 -22 -72l-576 -988q-14 -24 -43 -35t-62 -11q-32 0 -63.5 8.5t-53.5 24.5t-29.5 38t7.5 48z
" />
    <glyph glyph-name="eight" unicode="8" 
d="M540 -22q-89 0 -159.5 22t-120 62.5t-76 97t-26.5 126.5q0 127 65.5 214.5t191.5 124.5q-58 32 -91 83t-33 124q0 69 29.5 137t88 121t145.5 86t203 33q84 0 148.5 -24t108 -65t66 -95.5t22.5 -114.5q0 -57 -15.5 -104.5t-43.5 -85t-66 -64.5t-84 -43q72 -33 113.5 -91
t41.5 -143q0 -71 -27 -142.5t-87.5 -129t-157.5 -93.5t-236 -36zM578 196q55 0 94.5 17t65 45t37.5 63t12 70q0 58 -37.5 92.5t-114.5 34.5q-55 0 -94.5 -17.5t-65 -45.5t-38 -63t-12.5 -71q0 -57 38 -91t115 -34zM669 712q47 0 81 15t56.5 39t33.5 53.5t11 58.5
q0 52 -35 82.5t-98 30.5q-44 0 -77.5 -14t-57 -37.5t-35.5 -54t-12 -63.5q0 -51 34 -80.5t99 -29.5z" />
    <glyph glyph-name="nine" unicode="9" 
d="M835 553q-61 -52 -129 -79.5t-155 -27.5q-75 0 -135.5 24t-104 67t-67 102t-23.5 128q0 86 33.5 166t98.5 141.5t160 98t217 36.5q134 0 222 -57t133 -151q20 -40 30 -94.5t10 -117.5q0 -53 -11 -129t-38.5 -159t-74 -165t-116.5 -147q-104 -96 -259 -149.5t-369 -61.5
q-27 -1 -38.5 24.5t-13.5 82.5q-2 69 14 101t39 34q138 7 235.5 29t165 62.5t109 100t67.5 141.5zM701 986q-53 0 -94.5 -16.5t-70 -44t-43 -63.5t-14.5 -75q0 -62 41 -95.5t116 -33.5q53 0 95.5 15.5t72 41.5t45 60t15.5 72q0 29 -10.5 54.5t-31 44t-51 29.5t-70.5 11z" />
    <glyph glyph-name="colon" unicode=":" 
d="M554 -22q-38 0 -69.5 13.5t-54 37t-35.5 55t-13 66.5q0 47 18.5 87t49 69t70.5 45.5t84 16.5q37 0 68.5 -13.5t54 -36.5t35 -54t12.5 -66q0 -47 -18 -87t-48.5 -69.5t-70.5 -46.5t-83 -17zM646 556q-38 0 -69.5 13.5t-54 37t-35.5 55t-13 66.5q0 47 18.5 87t49 69
t70.5 45.5t84 16.5q37 0 68.5 -13.5t54 -36.5t35 -54t12.5 -66q0 -47 -18 -87t-48.5 -69.5t-70.5 -46.5t-83 -17z" />
    <glyph glyph-name="semicolon" unicode=";" 
d="M646 556q-38 0 -69.5 13.5t-54 37t-35.5 55t-13 66.5q0 47 18.5 87t49 69t70.5 45.5t84 16.5q37 0 68.5 -13.5t54 -36.5t35 -54t12.5 -66q0 -47 -18 -87t-48.5 -69.5t-70.5 -46.5t-83 -17zM420 -253q-28 -41 -98 -41q-42 0 -63 16.5t-11 49.5l165 542q6 20 22 30t37 10
h299q25 0 29.5 -18.5t-12.5 -44.5z" />
    <glyph glyph-name="less" unicode="&#x3c;" 
d="M1012 288q29 -16 31.5 -45t-32.5 -89t-61 -73t-54 3l-714 405q-22 12 -30 31.5t0 62.5t22.5 62t40.5 32l845 399q16 8 30 9.5t26.5 -6t24 -25t23.5 -47.5q24 -60 16.5 -90.5t-41.5 -46.5l-648 -297z" />
    <glyph glyph-name="equal" unicode="=" 
d="M1087 924q17 0 28 -4.5t16.5 -16.5t5.5 -34t-6 -58t-13.5 -58t-17.5 -34t-22.5 -16t-29.5 -4h-762q-17 0 -28 4t-16.5 16t-5 34t6.5 58t13 58t17 34t22.5 16.5t29.5 4.5h762zM1007 466q17 0 28 -4.5t16.5 -16.5t5 -34t-6.5 -58t-13.5 -58t-17.5 -34t-22.5 -16t-29.5 -4
h-762q-17 0 -28 4t-16.5 16t-5 34t6.5 58t13.5 58t17 34t22.5 16.5t30 4.5h762z" />
    <glyph glyph-name="greater" unicode="&#x3e;" 
d="M280 878q-29 16 -31.5 45t32.5 89t61 73t54 -3l714 -405q22 -12 30 -31.5t0 -62.5t-22.5 -62t-40.5 -32l-845 -399q-17 -8 -30.5 -9.5t-26 6t-24 25t-23.5 47.5q-24 60 -16.5 90.5t41.5 46.5l648 297z" />
    <glyph glyph-name="question" unicode="?" 
d="M697 467q-7 -23 -29.5 -35.5t-80.5 -12.5t-76 12.5t-16 35.5l19 208q2 20 10.5 34t28.5 17l113 18q60 10 97 30t54 55q7 14 11 31t4 36q0 47 -34 71.5t-103 24.5q-41 0 -80.5 -8t-77.5 -22l-18 -102q-3 -17 -10 -29t-20.5 -19.5t-35 -11t-53.5 -3.5q-64 0 -90.5 14.5
t-20.5 48.5l37 210q8 43 52 61q87 37 173.5 57.5t171.5 20.5q89 0 157.5 -20t114.5 -57t69.5 -89t23.5 -116q0 -45 -10.5 -92t-31.5 -86q-22 -41 -53 -71.5t-71.5 -54t-90.5 -42t-111 -33.5zM532 -22q-33 0 -60.5 12t-48 32.5t-31.5 48t-11 58.5q0 41 16 76t43 61t62.5 40.5
t73.5 14.5q33 0 60.5 -12t47.5 -32.5t31 -47.5t11 -58q0 -41 -16 -76.5t-43 -61.5t-62 -40.5t-73 -14.5z" />
    <glyph glyph-name="at" unicode="@" 
d="M541 281q16 0 33.5 10t35.5 27t35 39t32 47q32 54 47 96t15 80q0 30 -12.5 46.5t-39.5 16.5q-28 0 -63.5 -31t-67.5 -79q-30 -47 -48.5 -97t-18.5 -88q0 -33 14.5 -50t37.5 -17zM690 261q-47 -65 -102 -104.5t-121 -39.5q-70 0 -114 49t-44 137q0 53 16 110t44 112
t66 105t82 88t92 60t96 22q53 0 78.5 -32.5t32.5 -82.5l45 69q6 9 27.5 9.5t43.5 -6.5q21 -6 35 -16.5t9 -24.5l-127 -312q-19 -44 -19 -74q0 -26 13 -39t33 -13q39 0 73 31t59 80.5t39.5 111t14.5 123.5q0 69 -20.5 124.5t-60.5 95t-98.5 60.5t-134.5 21q-83 0 -157 -27
t-136.5 -73.5t-112.5 -108t-85 -131.5t-53.5 -144.5t-18.5 -145.5q0 -67 19.5 -121.5t57.5 -93t95.5 -59.5t132.5 -21q80 0 145.5 11.5t119.5 28.5q18 6 30.5 -5t19.5 -54q6 -38 -1 -56.5t-24 -25.5q-29 -12 -64.5 -21.5t-75.5 -16t-82 -10.5t-83 -4q-108 0 -191.5 31.5
t-141.5 89t-88 138t-30 179.5q0 93 24 188t69 183t110.5 165t148.5 134t182 90t212 33q105 0 188 -34t140 -94t87.5 -143t30.5 -180q0 -100 -26.5 -191.5t-75.5 -161t-118 -111t-154 -41.5q-72 0 -109.5 39t-42.5 100z" />
    <glyph glyph-name="A" unicode="A" 
d="M489 982h-163q-17 0 -28 4t-17 15.5t-6 31.5t6 52t13 52t16.5 31t22 15t29.5 4h470q40 0 62 -15t27 -50l129 -917h91q17 0 28 -4t17 -15t6 -31t-6 -52t-13 -52t-16.5 -31.5t-22 -15.5t-29.5 -4h-424q-17 0 -28 4t-17 15.5t-6 31.5t6 52t13 52t16.5 31t22 15t29.5 4h90
l-20 145h-364l-70 -145h70q17 0 28 -4t17 -15t6 -31t-6 -52t-13 -52t-16.5 -31.5t-22 -15.5t-29.5 -4h-404q-17 0 -28 4t-16.5 15.5t-5.5 31.5t5 52q6 32 13 52t16.5 31t22 15t29.5 4h80zM766 555l-44 427h-6l-199 -427h249z" />
    <glyph glyph-name="B" unicode="B" 
d="M343 982h-107q-17 0 -28 4t-17 15t-6 31t6 52t13 52t16.5 31.5t22 15.5t29.5 4h501q96 0 166.5 -20t117 -56.5t69.5 -87t23 -110.5q0 -103 -50.5 -174.5t-148.5 -113.5q87 -25 134.5 -82.5t47.5 -148.5q0 -36 -7 -73t-20.5 -73t-34.5 -69t-49 -60q-63 -61 -159 -90
t-222 -29h-577q-17 0 -28.5 4t-17 15t-6 31t5.5 52t13 52t16.5 31.5t22.5 15.5t30 4h107zM650 215q121 0 174 52q23 22 35 53t12 66q0 113 -172 113h-192l-49 -284h192zM688 714q116 0 165 53q18 20 28 49t10 59q0 51 -38.5 74t-119.5 23h-142l-45 -258h142z" />
    <glyph glyph-name="C" unicode="C" 
d="M1016 1146q7 34 38 48.5t95 14.5t83.5 -14.5t13.5 -48.5l-68 -384q-6 -34 -38.5 -48.5t-104.5 -14.5q-36 0 -58 3.5t-34 11t-15 19.5t0 29q9 48 2.5 88.5t-27.5 70t-57.5 45.5t-88.5 16q-82 0 -146 -34.5t-111 -100.5q-26 -37 -45.5 -82.5t-33 -95t-20.5 -99.5t-7 -95
q0 -131 60 -200.5t176 -69.5q46 0 89 7t86 19.5t86.5 30.5t90.5 40q33 15 58 -2t42 -75q17 -60 7.5 -92.5t-44.5 -48.5q-114 -52 -226 -79t-219 -27q-108 0 -195 35t-148.5 99t-95 155t-33.5 204q0 71 12.5 145.5t38 146.5t62.5 137.5t87 119.5q85 93 194.5 141t234.5 48
q94 0 155.5 -36.5t90.5 -94.5z" />
    <glyph glyph-name="D" unicode="D" 
d="M323 982h-97q-17 0 -28 4t-17 15t-6 31t6 52t13 52t16.5 31.5t22 15.5t29.5 4h451q114 0 204 -32t152.5 -92.5t95.5 -147.5t33 -197q0 -60 -10.5 -128.5t-31.5 -137t-53 -133t-76 -116.5q-85 -102 -205.5 -152.5t-277.5 -50.5h-491q-17 0 -28.5 4t-17 15t-6 31t5.5 52
t13 52t16.5 31.5t22.5 15.5t30 4h97zM542 215q172 0 272 120q31 37 53 83.5t36.5 96.5t21.5 101t7 96q0 129 -64 194.5t-193 65.5h-104l-133 -757h104z" />
    <glyph glyph-name="E" unicode="E" 
d="M323 982h-97q-17 0 -28 4t-17 15t-6 31t6 52t13 52t16.5 31.5t22 15.5t29.5 4h912q35 0 47 -15t6 -50l-53 -302q-6 -34 -37.5 -48.5t-95.5 -14.5t-83.5 14.5t-13.5 48.5l27 152h-400l-45 -253h244q17 0 28 -5t16.5 -17t5.5 -33t-6 -53t-13 -52.5t-17 -32.5t-22.5 -17
t-29.5 -5h-244l-51 -289h410l36 202q6 34 37.5 48.5t99.5 14.5q34 0 55.5 -3.5t33 -11t14.5 -19.5t0 -29l-62 -352q-6 -35 -23.5 -50t-52.5 -15h-932q-17 0 -28.5 4t-17 15t-6 31t5.5 52t13 52t16.5 31.5t22.5 15.5t30 4h97z" />
    <glyph glyph-name="F" unicode="F" 
d="M353 982h-127q-17 0 -28 4t-17 15t-6 31t6 52t13 52t16.5 31.5t22 15.5t29.5 4h932q35 0 47 -15t6 -50l-53 -302q-6 -34 -37.5 -48.5t-95.5 -14.5t-83.5 14.5t-13.5 48.5l27 152h-390l-54 -305h304q17 0 28 -5t16.5 -17t5.5 -33t-6 -53t-13 -52.5t-17 -32.5t-22.5 -17
t-29.5 -5h-304l-43 -247h217q17 0 28 -4t16.5 -15.5t5.5 -31.5t-6 -52t-12.5 -52t-16 -31t-22 -15t-29.5 -4h-594q-17 0 -28.5 4t-17 15t-6 31t5.5 52t13 52t16.5 31.5t22.5 15.5t30 4h127z" />
    <glyph glyph-name="G" unicode="G" 
d="M600 205q110 0 215 30l29 167h-193q-17 0 -28 4t-17 15t-6 31t6 52t13 52t16.5 31.5t22.5 15.5t30 4h474q17 0 28 -4t16.5 -15.5t5.5 -31.5t-6 -52t-13 -52t-16.5 -31t-22 -15t-29.5 -4h-31l-47 -269q-5 -24 -17 -42.5t-31 -26.5q-98 -45 -205 -65.5t-224 -20.5
q-108 0 -195 35t-148.5 99t-95 155t-33.5 204q0 71 12.5 145.5t38 146.5t62.5 137.5t87 119.5q85 93 194.5 141t234.5 48q94 0 156.5 -34t91.5 -89l11 60q6 34 37.5 48.5t95.5 14.5t83.5 -14.5t13.5 -48.5l-61 -344q-6 -34 -38.5 -48.5t-104.5 -14.5q-36 0 -58 3.5t-34 11
t-15 19.5t0 29q15 84 -27.5 132t-150.5 48q-82 0 -146 -34.5t-111 -100.5q-26 -37 -45.5 -82.5t-33 -95t-20.5 -99.5t-7 -95q0 -131 60 -200.5t176 -69.5z" />
    <glyph glyph-name="H" unicode="H" 
d="M273 982h-57q-17 0 -28 4t-17 15t-6 31t6 52t13 52t16.5 31.5t22 15.5t29.5 4h374q17 0 28 -4t17 -15.5t6 -31.5t-6 -52t-13 -52t-16.5 -31t-22 -15t-29.5 -4h-67l-47 -263h388l47 263h-67q-17 0 -28 4t-17 15t-6 31t6 52t13 52t16.5 31.5t22 15.5t29.5 4h374q17 0 28 -4
t17 -15.5t6 -31.5t-6 -52t-13 -52t-16.5 -31t-22 -15t-29.5 -4h-57l-137 -777h57q17 0 28 -4t16.5 -15.5t5.5 -31.5t-6 -52t-12.5 -52t-16 -31t-22 -15t-29.5 -4h-374q-17 0 -28.5 4t-17 15t-6 31t5.5 52t13 52t16.5 31.5t22.5 15.5t30 4h67l52 299h-388l-52 -299h67
q17 0 28 -4t16.5 -15.5t5.5 -31.5t-6 -52t-12.5 -52t-16 -31t-22 -15t-29.5 -4h-374q-17 0 -28.5 4t-17 15t-6 31t5.5 52t13 52t16.5 31.5t22.5 15.5t30 4h57z" />
    <glyph glyph-name="I" unicode="I" 
d="M592 982h-256q-17 0 -28 4t-17 15t-6 31t6 52t13 52t16.5 31.5t22 15.5t29.5 4h742q17 0 28 -4t17 -15.5t6 -31.5t-6 -52t-13 -52t-16.5 -31t-22 -15t-29.5 -4h-236l-137 -777h256q17 0 28 -4t16.5 -15.5t5.5 -31.5t-6 -52t-12.5 -52t-16 -31t-22 -15t-29.5 -4h-742
q-17 0 -28.5 4t-17 15t-6 31t5.5 52t13 52t16.5 31.5t22.5 15.5t30 4h236z" />
    <glyph glyph-name="J" unicode="J" 
d="M466 982q-17 0 -28 4t-17 15t-6 31t6 52t13 52t16.5 31.5t22 15.5t29.5 4h742q17 0 28 -4t17 -15.5t6 -31.5t-6 -52t-13 -52t-16.5 -31t-22 -15t-29.5 -4h-176l-111 -629q-17 -97 -54 -167.5t-95 -116.5t-138 -68.5t-184 -22.5q-118 0 -217.5 41.5t-163.5 115.5
q-14 15 -8 50l55 314q6 34 39 48.5t105 14.5q36 0 58 -3.5t33.5 -11t14.5 -19.5t0 -29l-44 -255q63 -39 159 -39q81 0 129.5 42.5t65.5 135.5l106 599h-316z" />
    <glyph glyph-name="K" unicode="K" 
d="M323 982h-107q-17 0 -28 4t-17 15t-6 31t6 52t13 52t16.5 31.5t22 15.5t29.5 4h404q17 0 28 -4t17 -15.5t6 -31.5t-6 -52t-13 -52t-16.5 -31t-22 -15t-29.5 -4h-47l-55 -310l369 310h-43q-17 0 -28 4t-17 15t-6 31t6 52t13 52t16.5 31.5t22 15.5t29.5 4h389q17 0 28 -4
t17 -15.5t6 -31.5t-6 -52t-13 -52t-16.5 -31t-22 -15t-29.5 -4h-33l-410 -341q56 -3 89.5 -31t58.5 -75q16 -31 28 -64t22 -66t19.5 -64.5t20.5 -58.5q14 -35 35 -56t53 -21h15q17 0 28 -4t16.5 -15.5t5.5 -31.5t-6 -52t-12.5 -52t-16 -31t-22 -15t-29.5 -4h-129
q-33 0 -58.5 11.5t-45 31t-33.5 45t-24 54.5q-11 30 -20 62t-18 63.5t-18.5 61t-20.5 53.5q-19 38 -45.5 60.5t-61.5 22.5q-21 0 -42.5 -8t-42.5 -26l-71 -60l-29 -166h115q17 0 28 -4t16.5 -15.5t5.5 -31.5t-6 -52t-12.5 -52t-16 -31t-22 -15t-29.5 -4h-472q-17 0 -28.5 4
t-17 15t-6 31t5.5 52t13 52t16.5 31.5t22.5 15.5t30 4h107z" />
    <glyph glyph-name="L" unicode="L" 
d="M372 982h-146q-17 0 -28 4t-17 15t-6 31t6 52t13 52t16.5 31.5t22 15.5t29.5 4h614q17 0 28 -4t17 -15.5t6 -31.5t-6 -52t-13 -52t-16.5 -31t-22 -15t-29.5 -4h-218l-136 -767h351l55 312q6 34 39 48.5t105 14.5q36 0 58 -3.5t33.5 -11t14.5 -19.5t0 -29l-81 -462
q-6 -35 -23.5 -50t-52.5 -15h-932q-17 0 -28.5 4t-17 15t-6 31t5.5 52t13 52t16.5 31.5t22.5 15.5t30 4h146z" />
    <glyph glyph-name="M" unicode="M" 
d="M250 982h-54q-17 0 -28 4t-17 15t-6 31t6 52t13 52t16.5 31.5t22 15.5t29.5 4h274q20 0 32 -6.5t16 -24.5l97 -491l268 491q10 18 25 24.5t35 6.5h295q17 0 28 -4t17 -15.5t6 -31.5t-6 -52t-13 -52t-16.5 -31t-22 -15t-29.5 -4h-54l-123 -777h60q17 0 28 -4t16.5 -15.5
t5.5 -31.5t-6 -52t-12.5 -52t-16 -31t-22 -15t-29.5 -4h-374q-17 0 -28.5 4t-17 15t-6 31t5.5 52t13 52t16.5 31.5t22.5 15.5t30 4h92l98 592l-223 -408q-20 -35 -44.5 -49.5t-67.5 -14.5t-64 14.5t-28 49.5l-80 405l-110 -589h93q17 0 28 -4t16.5 -15.5t5.5 -31.5t-6 -52
t-12.5 -52t-16 -31t-22 -15t-29.5 -4h-374q-17 0 -28.5 4t-17 15t-6 31t5.5 52t13 52t16.5 31.5t22.5 15.5t30 4h59z" />
    <glyph glyph-name="N" unicode="N" 
d="M283 982h-67q-17 0 -28 4t-17 15t-6 31t6 52t13 52t16.5 31.5t22 15.5t29.5 4h264q19 0 32 -6t19 -21l290 -707l94 529h-88q-17 0 -28 4t-17 15t-6 31t6 52t13 52t16.5 31.5t22 15.5t29.5 4h375q17 0 28 -4t17 -15.5t6 -31.5t-6 -52t-13 -52t-16.5 -31t-22 -15t-29.5 -4
h-57l-166 -938q-5 -32 -31.5 -49t-89.5 -17q-24 0 -40.5 3.5t-28 10t-18.5 16.5t-12 23l-315 765l-104 -591h107q17 0 28 -4t16.5 -15.5t5.5 -31.5t-6 -52t-12.5 -52t-16 -31t-22 -15t-29.5 -4h-404q-17 0 -28.5 4t-17 15t-6 31t5.5 52t13 52t16.5 31.5t22.5 15.5t30 4h67z
" />
    <glyph glyph-name="O" unicode="O" 
d="M580 205q81 0 144.5 34t110.5 99q27 38 47.5 85t34 97.5t20.5 101.5t7 98q0 127 -56 194.5t-171 67.5q-81 0 -144.5 -34t-110.5 -99q-27 -38 -47.5 -85t-34 -97.5t-20.5 -102t-7 -97.5q0 -127 56 -194.5t171 -67.5zM560 -22q-108 0 -195 35t-148.5 99t-95 155t-33.5 204
q0 59 9.5 123t28 127t46 123t63.5 112q87 124 214.5 188.5t287.5 64.5q108 0 195 -35t148.5 -99t95 -155.5t33.5 -203.5q0 -59 -9.5 -123t-28 -127t-46 -123t-63.5 -112q-87 -124 -214.5 -188.5t-287.5 -64.5z" />
    <glyph glyph-name="P" unicode="P" 
d="M373 982h-147q-17 0 -28 4t-17 15t-6 31t6 52t13 52t16.5 31.5t22 15.5t29.5 4h537q102 0 178.5 -23t128 -65.5t77.5 -104t26 -137.5q0 -41 -6.5 -84.5t-20 -86.5t-35 -83t-51.5 -74q-131 -147 -419 -147h-160l-31 -177h217q17 0 28 -4t16.5 -15.5t5.5 -31.5t-6 -52
t-12.5 -52t-16 -31t-22 -15t-29.5 -4h-614q-17 0 -28.5 4t-17 15t-6 31t5.5 52t13 52t16.5 31.5t22.5 15.5t30 4h147zM674 597q152 0 221 75q28 30 42 72.5t14 84.5q0 74 -53.5 108.5t-157.5 34.5h-119l-66 -375h119z" />
    <glyph glyph-name="Q" unicode="Q" 
d="M594 285q77 0 138 28t106 82q27 33 48 74t35 86.5t21 92t7 90.5q0 116 -57.5 180t-174.5 64q-77 0 -138 -28t-106 -82q-27 -33 -48 -74t-35 -86.5t-21 -92.5t-7 -90q0 -117 57.5 -180.5t174.5 -63.5zM564 58q-13 0 -25 0.5t-20 1.5l-123 -106q48 17 86.5 23t72.5 6
t63 -4.5t57 -10t55 -10t56 -4.5q34 0 72 8.5t86 31.5q15 7 30.5 5.5t29.5 -10.5t25.5 -23t19.5 -32q8 -17 11 -36.5t0 -38t-13 -35t-28 -28.5q-68 -44 -126 -60.5t-112 -16.5q-42 0 -83 7t-83 15t-87 15t-95 7q-52 0 -110 -10.5t-127 -36.5q-24 -9 -49 11t-41 52
q-15 31 -15.5 64.5t23.5 54.5l233 200q-59 25 -105.5 67t-78.5 97.5t-49 122.5t-17 144q0 61 11 125.5t32.5 127t54.5 120.5t78 108q88 97 208 148t266 51q108 0 194 -33.5t147 -95t93.5 -148.5t32.5 -194q0 -62 -11 -126t-32.5 -126.5t-54.5 -121t-78 -107.5
q-88 -97 -208 -148t-266 -51z" />
    <glyph glyph-name="R" unicode="R" 
d="M333 982h-107q-17 0 -28 4t-17 15t-6 31t6 52t13 52t16.5 31.5t22 15.5t29.5 4h517q186 0 286.5 -78t100.5 -221q0 -64 -16 -121t-51.5 -104t-93 -82t-139.5 -55q44 -21 72 -57q18 -23 31 -49t23.5 -51.5t19 -50.5t18.5 -47q14 -29 32 -47.5t46 -18.5h23q17 0 28 -4
t16.5 -15.5t5.5 -31.5t-6 -52t-12.5 -52t-16 -31t-22 -15t-29.5 -4h-100q-66 0 -109 33.5t-74 105.5q-12 26 -21 54.5t-18.5 57.5t-20.5 57.5t-25 55.5q-14 26 -31 44.5t-39.5 30t-52.5 17t-70 5.5h-43l-45 -256h127q17 0 28 -4t16.5 -15.5t5.5 -31.5t-6 -52t-12.5 -52
t-16 -31t-22 -15t-29.5 -4h-484q-17 0 -28.5 4t-17 15t-6 31t5.5 52t13 52t16.5 31.5t22.5 15.5t30 4h107zM678 676q128 0 183 58q22 23 34 56.5t12 66.5q0 58 -43 86.5t-134 28.5h-149l-52 -296h149z" />
    <glyph glyph-name="S" unicode="S" 
d="M326 41q-5 -34 -32 -48.5t-91 -14.5t-88.5 14.5t-18.5 48.5l59 334q6 34 30 48.5t73 14.5q35 0 53.5 -9t26.5 -31q35 -102 100 -154.5t167 -52.5q59 0 98.5 15.5t63.5 39t34 51.5t10 54q0 38 -22 62t-60 41q-41 19 -95.5 32t-112 28t-112.5 35.5t-97 54.5
q-40 32 -63.5 77.5t-23.5 111.5q0 68 23 137.5t71 126.5q61 73 152 112.5t200 39.5q81 0 148 -28.5t109 -76.5l8 42q7 34 33 48.5t90 14.5t88.5 -14.5t18.5 -48.5l-49 -274q-6 -34 -30 -48.5t-73 -14.5q-34 0 -51 8t-25 24q-33 72 -99 113.5t-166 41.5q-46 0 -80 -14.5
t-56 -36t-33 -47.5t-11 -49q0 -27 18 -44t50 -30q38 -15 90 -26t108.5 -24.5t112 -33t100.5 -52.5q48 -35 78.5 -89.5t30.5 -136.5q0 -72 -22.5 -148.5t-72.5 -137.5q-60 -72 -154 -110.5t-224 -38.5q-84 0 -155 28t-120 78z" />
    <glyph glyph-name="T" unicode="T" 
d="M590 972h-181l-48 -272q-6 -34 -36 -48.5t-87 -14.5q-56 0 -74.5 14.5t-12.5 48.5l74 422q6 35 24 50t53 15h902q35 0 47 -15t6 -50l-74 -422q-6 -34 -36 -48.5t-87 -14.5q-56 0 -74.5 14.5t-12.5 48.5l48 272h-181l-135 -767h226q17 0 28 -4t16.5 -15.5t5.5 -31.5
t-6 -52t-12.5 -52t-16 -31t-22 -15t-29.5 -4h-682q-17 0 -28.5 4t-17 15t-6 31t5.5 52t13 52t16.5 31.5t22.5 15.5t30 4h206z" />
    <glyph glyph-name="U" unicode="U" 
d="M216 982q-17 0 -28 4t-17 15t-6 31t6 52t13 52t16.5 31.5t22 15.5t29.5 4h374q17 0 28 -4t17 -15.5t6 -31.5t-6 -52t-13 -52t-16.5 -31t-22 -15t-29.5 -4h-77l-97 -549q-6 -35 -6 -63q0 -86 46.5 -125.5t123.5 -39.5q45 0 84.5 13t71.5 41t54.5 71t33.5 103l97 549h-77
q-17 0 -28 4t-17 15t-6 31t6 52t13 52t16.5 31.5t22 15.5t29.5 4h374q17 0 28 -4t17 -15.5t6 -31.5t-6 -52t-13 -52t-16.5 -31t-22 -15t-29.5 -4h-47l-103 -579q-38 -211 -167.5 -318t-340.5 -107q-93 0 -167.5 24.5t-127 71t-80.5 113.5t-28 151q0 45 9 95l97 549h-47z" />
    <glyph glyph-name="V" unicode="V" 
d="M156 982q-17 0 -28 4t-17 15t-6 31t6 52t13 52t16.5 31.5t22 15.5t29.5 4h426q17 0 28 -4t17 -15.5t6 -31.5t-6 -52t-13 -52t-16.5 -31t-22 -15t-29.5 -4h-89l107 -613l337 613h-71q-17 0 -28 4t-17 15t-6 31t6 52t13 52t16.5 31.5t22 15.5t29.5 4h412q17 0 28 -4
t17 -15.5t6 -31.5t-6 -52t-13 -52t-16.5 -31t-22 -15t-29.5 -4h-68l-529 -939q-10 -18 -22 -30t-28.5 -20t-39.5 -11.5t-54 -3.5t-52.5 3.5t-35.5 11.5t-21.5 20.5t-10.5 29.5l-184 939h-77z" />
    <glyph glyph-name="W" unicode="W" 
d="M146 982q-17 0 -28 4t-17 15t-6 31t6 52t13 52t16.5 31.5t22 15.5t29.5 4h384q17 0 28 -4t17 -15.5t6 -31.5t-6 -52t-13 -52t-16.5 -31t-22 -15t-29.5 -4h-118l-46 -574l218 418q5 10 12 18.5t18.5 15t28.5 10t43 3.5q52 0 71 -10t22 -30l70 -425l159 574h-104
q-17 0 -28 4t-17 15t-6 31t6 52t13 52t16.5 31.5t22 15.5t29.5 4h384q17 0 28 -4t17 -15.5t6 -31.5t-6 -52t-13 -52t-16.5 -31t-22 -15t-29.5 -4h-55l-268 -939q-5 -18 -13.5 -30.5t-23.5 -20t-38 -11t-57 -3.5t-57 4t-37 12t-21.5 20t-10.5 29l-77 471l-245 -471
q-9 -17 -21 -29.5t-29 -20.5t-41.5 -11.5t-58.5 -3.5t-55.5 3.5t-33.5 11t-16 20t-3 30.5l68 939h-49z" />
    <glyph glyph-name="X" unicode="X" 
d="M749 205l-127 237l-207 -237h28q17 0 28 -4t16.5 -15.5t5.5 -31.5t-6 -52t-12.5 -52t-16 -31t-22 -15t-29.5 -4h-384q-17 0 -28.5 4t-17 15t-6 31t5.5 52t13 52t16.5 31.5t22.5 15.5t30 4h62l369 417l-194 360h-70q-17 0 -28 4t-17 15t-6 31t6 52t13 52t16.5 31.5
t22 15.5t29.5 4h394q17 0 28 -4t17 -15.5t6 -31.5t-6 -52t-13 -52t-16.5 -31t-22 -15t-29.5 -4h-43l105 -202l176 202h-14q-17 0 -28 4t-17 15t-6 31t6 52t13 52t16.5 31.5t22 15.5t29.5 4h364q17 0 28 -4t17 -15.5t6 -31.5t-6 -52t-13 -52t-16.5 -31t-22 -15t-29.5 -4h-56
l-339 -385l217 -392h71q17 0 28 -4t16.5 -15.5t5.5 -31.5t-6 -52t-12.5 -52t-16 -31t-22 -15t-29.5 -4h-404q-17 0 -28.5 4t-17 15t-6 31t5.5 52t13 52t16.5 31.5t22.5 15.5t30 4h52z" />
    <glyph glyph-name="Y" unicode="Y" 
d="M626 1187q17 0 28 -4t17 -15.5t6 -31.5t-6 -52t-13 -52t-16.5 -31t-22 -15t-29.5 -4h-67l134 -292l239 292h-52q-17 0 -28 4t-17 15t-6 31t6 52t13 52t16.5 31.5t22 15.5t29.5 4h384q17 0 28 -4t17 -15.5t6 -31.5t-6 -52t-13 -52t-16.5 -31t-22 -15t-29.5 -4h-45
l-433 -522l-45 -255h206q17 0 28 -4t16.5 -15.5t5.5 -31.5t-6 -52t-12.5 -52t-16 -31t-22 -15t-29.5 -4h-642q-17 0 -28.5 4t-17 15t-6 31t5.5 52t13 52t16.5 31.5t22.5 15.5t30 4h186l46 262l-245 515h-50q-17 0 -28 4t-17 15t-6 31t6 52t13 52t16.5 31.5t22 15.5t29.5 4
h384z" />
    <glyph glyph-name="Z" unicode="Z" 
d="M827 215l40 222q5 34 37 48.5t96 14.5q32 0 52 -3.5t31 -11t14 -19.5t0 -29l-66 -372q-6 -35 -23.5 -50t-52.5 -15h-814q-17 0 -28.5 4t-17 15t-6 31t5.5 52q6 34 15 56.5t22 36.5l681 777h-324l-36 -202q-6 -34 -37.5 -48.5t-95.5 -14.5t-83.5 14.5t-13.5 48.5l62 352
q6 35 24 50t53 15h784q17 0 28 -4t17 -15.5t6 -31.5t-6 -52t-16 -54t-24 -38l-681 -777h357z" />
    <glyph glyph-name="bracketleft" unicode="[" 
d="M759 -188q17 0 28 -4t17 -15t6 -31t-6 -52t-13 -52t-16.5 -31.5t-22 -15.5t-29.5 -4h-510q-34 0 -46 14.5t-6 48.5l279 1579q6 34 23 48.5t51 14.5h510q17 0 28 -4t17 -15.5t6 -31.5t-6 -52t-13 -52t-16.5 -31t-22 -15t-29.5 -4h-323l-229 -1295h323z" />
    <glyph glyph-name="backslash" unicode="\" 
d="M316 1221q-8 27 5 48.5t36 37t53 24t57 8.5q26 0 44.5 -8.5t23.5 -25.5l419 -1488q7 -26 -6 -47.5t-36.5 -37t-53.5 -24t-57 -8.5q-25 0 -43 8t-23 25z" />
    <glyph glyph-name="bracketright" unicode="]" 
d="M813 1107h-323q-17 0 -28 4t-17 15t-6 31t6 52t13 52t16.5 31.5t22 15.5t29.5 4h510q34 0 46 -14.5t6 -48.5l-279 -1579q-6 -34 -23 -48.5t-51 -14.5h-510q-17 0 -28 4t-17 15.5t-6 31.5t6 52t13 52t16.5 31t22 15t29.5 4h323z" />
    <glyph glyph-name="asciicircum" unicode="^" 
d="M710 887l-253 -390q-7 -11 -21.5 -18t-33.5 -9.5t-40.5 -1.5t-42.5 5q-24 5 -45.5 13.5t-35.5 20t-18 25.5t7 30l425 610q13 18 36.5 27.5t68.5 9.5q44 0 64.5 -9.5t26.5 -27.5l211 -610q5 -14 -1 -27t-19 -24t-32 -19.5t-40 -14.5q-22 -6 -44.5 -8.5t-41.5 0t-32.5 9.5
t-17.5 19z" />
    <glyph glyph-name="underscore" unicode="_" 
d="M-65 -513q-9 0 -15 4t-7.5 16t1 34t8.5 58t11.5 58t11.5 34t13.5 16.5t16.5 4.5h1237q9 0 15 -4.5t7.5 -16.5t-1 -34t-8.5 -58t-12 -58t-12 -34t-13 -16t-16 -4h-1237z" />
    <glyph glyph-name="grave" unicode="`" 
d="M941 1145q20 -12 25.5 -31.5t-2.5 -41.5q-8 -23 -26 -34.5t-42 -4.5l-480 125q-26 7 -29.5 40.5t26.5 102.5q30 68 61 87.5t59 3.5z" />
    <glyph glyph-name="a" unicode="a" 
d="M785 127q-74 -77 -158.5 -113t-172.5 -36t-157 31.5t-116.5 85.5t-72.5 127.5t-25 157.5q0 63 14 129.5t42 129.5t70 118.5t99 97.5t128 66.5t158 24.5q97 0 171.5 -45t112.5 -124l16 94q6 34 36 48.5t87 14.5q56 0 74.5 -14.5t12.5 -48.5l-102 -581q-8 -40 5.5 -62.5
t45.5 -22.5h29q17 0 28 -4t16.5 -15.5t5.5 -31.5t-6 -52t-12.5 -52t-16 -31t-22 -15t-29.5 -4h-95q-30 0 -57.5 6.5t-49.5 21.5t-37.5 39.5t-21.5 59.5zM514 205q67 0 119.5 29t88.5 74.5t54.5 102t18.5 111.5q0 48 -14.5 85t-40 61.5t-60.5 37.5t-76 13q-68 0 -116.5 -33
t-79.5 -82.5t-45 -107t-14 -105.5q0 -87 43 -136.5t122 -49.5z" />
    <glyph glyph-name="b" unicode="b" 
d="M776 946q83 0 150 -29.5t114 -83t72 -127.5t25 -162q0 -63 -14 -129.5t-42 -129.5t-70 -118.5t-99 -97.5t-128.5 -66.5t-157.5 -24.5q-97 0 -171 47.5t-112 126.5l-17 -99q-6 -34 -36 -48.5t-87 -14.5q-56 0 -74.5 14.5t-12.5 48.5l186 1054h-97q-17 0 -28 4t-17 15
t-6 31t6 52t13 52t16.5 31.5t22 15.5t29.5 4h284q34 0 46 -14.5t6 -48.5l-74 -416q60 53 127.5 83t145.5 30zM706 719q-68 0 -120 -29t-88 -74.5t-54.5 -102t-18.5 -111.5q0 -48 14.5 -85t40 -61.5t60.5 -37.5t76 -13q68 0 116.5 33t79 82.5t45 107t14.5 105.5
q0 87 -43 136.5t-122 49.5z" />
    <glyph glyph-name="c" unicode="c" 
d="M918 883q6 34 37.5 48.5t95.5 14.5t83.5 -14.5t13.5 -48.5l-56 -321q-6 -34 -39 -48.5t-105 -14.5q-36 0 -58 3.5t-33.5 11t-14.5 19.5t0 29q5 31 -1 59t-25 50t-50 35t-76 13q-74 0 -128.5 -29.5t-90.5 -75t-53.5 -102t-17.5 -110.5q0 -92 52.5 -144.5t147.5 -52.5
q80 0 164.5 25.5t165.5 68.5q32 17 58 0t47 -74q22 -59 13 -92t-43 -50q-99 -48 -212 -76.5t-218 -28.5q-103 0 -184.5 31t-138.5 86t-87.5 130.5t-30.5 163.5q0 66 16 133t47 129t77 116t107 93.5t135.5 62.5t163.5 23q81 0 142.5 -31t85.5 -91z" />
    <glyph glyph-name="d" unicode="d" 
d="M1084 205q17 0 28 -4t17 -15t6 -31t-6 -52t-13 -52t-16.5 -31.5t-22 -15.5t-29.5 -4h-234q-34 0 -46 14.5t-6 48.5l11 64q-62 -70 -142 -109.5t-177 -39.5q-86 0 -154 29.5t-114.5 81t-71 122.5t-24.5 154q0 64 14 130t42 127t70 114.5t99 93.5t127.5 63t156.5 23
q79 0 145 -32.5t107 -87.5l55 311h-197q-17 0 -28 4t-17 15t-6 31t6 52t13 52t16.5 31.5t22 15.5t29.5 4h384q34 0 46 -14.5t6 -48.5l-184 -1044h87zM524 205q69 0 121 26.5t86.5 69t52 96t17.5 107.5q0 46 -14.5 81t-40.5 58t-61 34.5t-76 11.5q-65 0 -112.5 -28.5
t-78.5 -73t-46 -99t-15 -106.5q0 -87 44.5 -132t122.5 -45z" />
    <glyph glyph-name="e" unicode="e" 
d="M385 329q15 -62 62 -93t123 -31q81 0 170.5 12.5t194.5 42.5q17 5 30 4t23 -10.5t17.5 -28.5t13.5 -49q6 -31 6.5 -52.5t-5.5 -36t-18.5 -23.5t-31.5 -15q-106 -33 -219 -52t-221 -19q-98 0 -174 30.5t-127.5 84t-78.5 127t-27 159.5q0 52 9 104.5t27 103t45.5 97.5
t64.5 88q76 83 184.5 128.5t246.5 45.5q88 0 160 -22.5t123 -63.5t78.5 -97.5t27.5 -125.5q0 -38 -10 -81.5t-35 -80.5q-29 -43 -80 -68t-126 -33zM670 719q-103 0 -172 -50t-100 -153l349 35q45 5 61.5 26t16.5 47q0 17 -9 34t-28 30.5t-48.5 22t-69.5 8.5z" />
    <glyph glyph-name="f" unicode="f" 
d="M954 1090q-62 0 -102.5 -39.5t-56.5 -126.5l-10 -60h311q17 0 28 -5t16.5 -17t5.5 -33t-6 -53t-13 -52.5t-17 -32.5t-22.5 -17t-29.5 -5h-311l-122 -694q-32 -183 -127.5 -276.5t-265.5 -93.5q-43 0 -81 5t-73.5 16t-71 29.5t-73.5 45.5q-32 23 -31 54t28 78
q59 101 119 61q25 -17 47 -28.5t43.5 -19t43.5 -11t47 -3.5q58 0 95 36.5t52 119.5l120 681h-183q-17 0 -28 5t-16.5 17t-5.5 32.5t6 52.5t13 53t16.5 33t22.5 17t30 5h183l13 73q33 187 131.5 283.5t272.5 96.5q71 0 144 -13t150 -44q16 -6 27.5 -16t16.5 -25.5t2.5 -38
t-14.5 -53.5q-11 -30 -24 -47.5t-26.5 -25.5t-28.5 -8t-30 5q-61 20 -112.5 29.5t-102.5 9.5z" />
    <glyph glyph-name="g" unicode="g" 
d="M494 8q-86 0 -154 29.5t-114.5 81t-71 122.5t-24.5 154q0 64 14 130t42 127t70 114.5t99 93.5t127.5 63t156.5 23q97 0 169 -39.5t117 -115.5l14 80q6 34 36 48.5t87 14.5q56 0 74.5 -14.5t12.5 -48.5l-154 -875q-17 -96 -55.5 -172t-102 -129.5t-152.5 -81.5t-207 -28
q-73 0 -160 15t-182 44q-34 11 -41 41t17 94q12 31 24.5 49t26 26.5t28 8.5t29.5 -4q66 -20 137 -33.5t131 -13.5q121 0 182 51.5t78 152.5l19 107q-59 -54 -128.5 -84.5t-144.5 -30.5zM564 235q69 0 121 26.5t86.5 69t52 96t17.5 107.5q0 46 -14.5 81t-40.5 58t-61 34.5
t-76 11.5q-65 0 -112.5 -28.5t-78.5 -73t-46 -99t-15 -106.5q0 -87 44.5 -132t122.5 -45z" />
    <glyph glyph-name="h" unicode="h" 
d="M523 774q76 88 152.5 130t157.5 42q60 0 108 -19.5t81 -55.5t51 -85.5t18 -109.5q0 -18 -2 -37.5t-5 -38.5l-69 -395h77q17 0 28 -4t16.5 -15.5t5.5 -31.5t-6 -52t-12.5 -52t-16 -31t-22 -15t-29.5 -4h-264q-34 0 -46 14.5t-6 48.5l87 498q6 31 6 58q0 48 -21.5 74
t-73.5 26q-45 0 -91.5 -33t-87.5 -87t-71.5 -122.5t-42.5 -138.5l-47 -275q-6 -34 -23 -48.5t-51 -14.5h-124q-34 0 -46 14.5t-6 48.5l184 1044h-97q-17 0 -28 4t-17 15t-6 31t6 52t13 52t16.5 31.5t22 15.5t29.5 4h284q34 0 46 -14.5t6 -48.5z" />
    <glyph glyph-name="i" unicode="i" 
d="M826 1156q-3 -17 -11 -29t-23.5 -19.5t-39.5 -11t-60 -3.5q-71 0 -96.5 14.5t-19.5 48.5l29 164q3 17 11 29t23 19.5t39 11t60 3.5q71 0 97 -14.5t20 -48.5zM306 719q-17 0 -28 4t-17 15t-6 31t6 52t13 52t16.5 31.5t22 15.5t29.5 4h380q34 0 46 -14.5t6 -48.5l-88 -500
q-2 -14 -3.5 -27.5t-1.5 -25.5q0 -54 24.5 -78.5t72.5 -24.5q25 0 48 3.5t47.5 11t50.5 19t57 28.5q38 20 62 3t47 -66q10 -22 16 -40.5t4.5 -34.5t-11 -29.5t-29.5 -25.5q-48 -27 -90 -45.5t-82 -29.5t-79.5 -16t-82.5 -5q-147 0 -227 77t-80 217q0 45 9 96l61 351h-193z
" />
    <glyph glyph-name="j" unicode="j" 
d="M96 -315q-30 16 -35.5 47t26.5 90q16 30 30.5 46.5t29 23.5t28.5 6t28 -8q30 -15 61.5 -29t62 -25t59 -17.5t54.5 -6.5q62 0 102.5 39.5t56.5 126.5l130 741h-383q-17 0 -28 4t-17 15t-6 31t6 52t13 52t16.5 31.5t22 15.5t29.5 4h570q34 0 46 -14.5t6 -48.5l-160 -906
q-33 -187 -130.5 -278.5t-271.5 -91.5q-87 0 -175 27t-171 73zM1056 1156q-3 -17 -11 -29t-23.5 -19.5t-39.5 -11t-60 -3.5q-71 0 -96.5 14.5t-19.5 48.5l29 164q3 17 11 29t23 19.5t39 11t60 3.5q71 0 97 -14.5t20 -48.5z" />
    <glyph glyph-name="l" unicode="l" 
d="M305 1107q-17 0 -28 4t-17 15t-6 31t6 52t13 52t16.5 31.5t22 15.5t29.5 4h420q34 0 46 -14.5t6 -48.5l-157 -888q-2 -14 -3.5 -27.5t-1.5 -25.5q0 -54 24.5 -78.5t72.5 -24.5q25 0 48 3.5t47.5 11t50.5 19t57 28.5q38 20 62 3t47 -66q10 -22 16 -40.5t4.5 -34.5
t-11 -29.5t-29.5 -25.5q-48 -27 -90 -45.5t-82 -29.5t-79.5 -16t-82.5 -5q-147 0 -227 77t-80 217q0 45 9 96l130 739h-233z" />
    <glyph glyph-name="m" unicode="m" 
d="M105 719q-17 0 -28 4t-17 15t-6 31t6 52t13 52t16.5 31.5t22 15.5t29.5 4h174q34 0 46 -14.5t6 -48.5l-25 -144q63 115 134 172t146 57q78 0 115.5 -53t44.5 -150q57 102 128 152.5t142 50.5q72 0 117.5 -51.5t45.5 -158.5q0 -23 -2.5 -48.5t-7.5 -54.5l-100 -570
q-6 -34 -23 -48.5t-51 -14.5h-124q-34 0 -46 14.5t-6 48.5l92 523q2 14 3.5 26t1.5 23q0 54 -39 54q-46 0 -86.5 -70.5t-65.5 -215.5l-60 -340q-6 -34 -23 -48.5t-51 -14.5h-124q-34 0 -46 14.5t-6 48.5l92 523q2 14 3.5 26t1.5 23q0 54 -39 54q-46 0 -86.5 -70.5
t-65.5 -215.5l-60 -340q-6 -34 -23 -48.5t-51 -14.5h-124q-34 0 -46 14.5t-6 48.5l115 656h-57z" />
    <glyph glyph-name="n" unicode="n" 
d="M273 719h-97q-17 0 -28 4t-17 15t-6 31t6 52t13 52t16.5 31.5t22 15.5t29.5 4h244q34 0 46 -14.5t6 -48.5l-25 -145q88 122 177 176t183 54q60 0 108 -20t81 -55.5t51 -85.5t18 -110q0 -18 -2 -37t-5 -38l-69 -395h77q17 0 28 -4t16.5 -15.5t5.5 -31.5t-6 -52t-12.5 -52
t-16 -31t-22 -15t-29.5 -4h-264q-34 0 -46 14.5t-6 48.5l87 498q6 33 6 60q0 47 -22 72.5t-73 25.5q-45 0 -91.5 -33t-87.5 -87t-71.5 -122.5t-42.5 -138.5l-47 -275q-6 -34 -23 -48.5t-51 -14.5h-124q-34 0 -46 14.5t-6 48.5z" />
    <glyph glyph-name="o" unicode="o" 
d="M550 -22q-103 0 -184 31t-137.5 86t-86 130t-29.5 163q0 65 15.5 132t47.5 129t80.5 116t113.5 94.5t147.5 63.5t182.5 23q102 0 183 -31t137.5 -86t86 -130t29.5 -163q0 -63 -15 -128.5t-46 -127.5t-78.5 -117t-112.5 -96t-148.5 -65t-185.5 -24zM670 719
q-69 0 -122.5 -27t-91 -71.5t-57 -101.5t-19.5 -118q0 -91 53 -143.5t147 -52.5q68 0 122 26.5t91 71t56.5 101.5t19.5 118q0 91 -52.5 144t-146.5 53z" />
    <glyph glyph-name="p" unicode="p" 
d="M651 8q-83 0 -146.5 35t-104.5 90l-57 -321h247q17 0 28 -4t17 -15.5t6 -31.5t-6 -52t-13 -52t-16.5 -31t-22 -15t-29.5 -4h-584q-17 0 -28 4t-16.5 15t-5.5 31t6 52q5 32 12 52t16.5 31.5t22 15.5t29.5 4h87l160 907h-87q-17 0 -28 4t-17 15t-6 31t6 52t13 52t16.5 31.5
t22 15.5t29.5 4h234q34 0 46 -14.5t6 -48.5l-12 -70q65 73 148 114t172 41q86 0 154 -29.5t114.5 -81t71 -122.5t24.5 -154q0 -64 -14 -130t-42 -127t-70 -114.5t-99 -93.5t-128 -63t-156 -23zM726 719q-69 0 -121 -26.5t-86.5 -69t-52 -96t-17.5 -107.5q0 -47 14.5 -81.5
t40.5 -57.5t61 -34.5t76 -11.5q65 0 112.5 28.5t78.5 73t46 99t15 106.5q0 87 -44.5 132t-122.5 45z" />
    <glyph glyph-name="q" unicode="q" 
d="M639 946q97 0 169 -39.5t117 -115.5l14 80q6 34 36 48.5t87 14.5q56 0 74.5 -14.5t12.5 -48.5l-187 -1059h107q17 0 28 -4t17 -15.5t6 -31.5t-6 -52t-13 -52t-16.5 -31t-22 -15t-29.5 -4h-574q-17 0 -28 4t-17 15t-6 31t6 52t13 52t16.5 31.5t22 15.5t29.5 4h217l55 311
q-59 -54 -128.5 -84.5t-144.5 -30.5q-86 0 -154 29.5t-114.5 81t-71 122.5t-24.5 154q0 64 14 130t42 127t70 114.5t99 93.5t127.5 63t156.5 23zM564 235q69 0 121 26.5t86.5 69t52 96t17.5 107.5q0 46 -14.5 81t-40.5 58t-61 34.5t-76 11.5q-65 0 -112.5 -28.5t-78.5 -73
t-46 -99t-15 -106.5q0 -87 44.5 -132t122.5 -45z" />
    <glyph glyph-name="r" unicode="r" 
d="M586 924q34 0 46 -14.5t6 -48.5l-36 -207q99 145 205 218.5t203 73.5q83 0 153 -56q35 -28 37.5 -66.5t-28.5 -94.5q-34 -61 -66 -80t-61 -2q-49 28 -106 28q-60 0 -120 -29t-111.5 -80.5t-89 -122t-51.5 -153.5l-14 -85h287q17 0 28 -4t16.5 -15.5t5.5 -31.5t-6 -52
t-12.5 -52t-16 -31t-22 -15t-29.5 -4h-684q-17 0 -28.5 4t-17 15t-6 31t5.5 52t13 52t16.5 31.5t22.5 15.5t30 4h147l90 514h-117q-17 0 -28 4t-17 15t-6 31t6 52t13 52t16.5 31.5t22 15.5t29.5 4h274z" />
    <glyph glyph-name="s" unicode="s" 
d="M351 41q-5 -34 -37 -48.5t-96 -14.5t-88.5 14.5t-18.5 48.5l39 223q6 34 32 48.5t75 14.5q33 0 51.5 -7t26.5 -21q21 -33 51 -56.5t66 -37.5t77 -20.5t84 -6.5q52 0 87.5 8.5t56.5 24.5q18 14 25 30.5t7 27.5q0 22 -19.5 35.5t-53.5 23.5q-38 10 -88.5 18t-105 18
t-108 25.5t-97.5 41.5q-48 29 -78.5 74.5t-30.5 114.5q0 66 26.5 127.5t80.5 106.5q57 47 136 69.5t171 22.5q81 0 143 -21.5t111 -56.5l3 15q7 34 33 48.5t90 14.5t88.5 -14.5t18.5 -48.5l-37 -211q-6 -34 -30 -48.5t-73 -14.5q-54 0 -69 21q-50 65 -123 90.5t-168 25.5
q-38 0 -65.5 -8.5t-45.5 -22.5q-30 -24 -30 -55q0 -21 19.5 -33.5t51.5 -21.5q37 -10 88.5 -17t106.5 -16t109.5 -23.5t98.5 -39.5q48 -28 78.5 -71.5t30.5 -112.5q0 -63 -23 -125t-72 -109q-58 -57 -148 -85t-210 -28q-78 0 -137 22t-108 54z" />
    <glyph glyph-name="u" unicode="u" 
d="M788 208q-88 -122 -177 -176t-183 -54q-60 0 -108 20t-81 55.5t-51 85.5t-18 110q0 18 1.5 36.5t5.5 38.5l69 395h-77q-17 0 -28 4t-17 15.5t-6 31.5t6 52t13 52t16.5 31t22 15t29.5 4h264q34 0 46 -14.5t6 -48.5l-87 -498q-6 -32 -6 -58q0 -48 21.5 -74t73.5 -26
q45 0 92 33t87.5 87t71 122t42.5 139l22 133h-107q-17 0 -28 4t-17 15.5t-6 31.5t6 52t13 52t16.5 31t22 15t29.5 4h294q34 0 46 -14.5t6 -48.5l-115 -656h77q17 0 28 -4t17 -15t6 -31t-6 -52t-13 -52t-16.5 -31.5t-22 -15.5t-29.5 -4h-224q-34 0 -46 14.5t-6 48.5z" />
    <glyph glyph-name="v" unicode="v" 
d="M159 719q-17 0 -28 4t-17 15t-6 31t6 52t13 52t16.5 31.5t22 15.5t29.5 4h391q17 0 28 -4t17 -15.5t6 -31.5t-6 -52t-13 -52t-16.5 -31t-22 -15t-29.5 -4h-67l100 -441l256 441h-55q-17 0 -28 4t-17 15t-6 31t6 52t13 52t16.5 31.5t22 15.5t29.5 4h397q17 0 28 -4
t17 -15.5t6 -31.5t-6 -52t-13 -52t-16.5 -31t-22 -15t-29.5 -4h-68l-412 -676q-20 -34 -56 -49.5t-108 -15.5q-36 0 -61 4t-41 12t-25 20t-13 29l-172 676h-66z" />
    <glyph glyph-name="w" unicode="w" 
d="M99 719q-17 0 -28 4t-17 15t-6 31t6 52t13 52t16.5 31.5t22 15.5t29.5 4h336q17 0 28 -4t17 -15.5t6 -31.5t-6 -52t-13 -52t-16.5 -31t-22 -15t-29.5 -4h-85l7 -388l198 339q15 26 38.5 41.5t67.5 15.5q45 0 63.5 -12t24.5 -38l76 -346l146 388h-72q-17 0 -28 4t-17 15
t-6 31t6 52t13 52t16.5 31.5t22 15.5t29.5 4h342q17 0 28 -4t17 -15.5t6 -31.5t-6 -52t-13 -52t-16.5 -31t-22 -15t-29.5 -4h-41l-265 -676q-14 -36 -42.5 -50.5t-89.5 -14.5t-85 16t-31 49l-77 355l-205 -355q-10 -17 -21.5 -29t-28 -20t-38.5 -12t-52 -4q-61 0 -83.5 15
t-24.5 50l-24 676h-34z" />
    <glyph glyph-name="x" unicode="x" 
d="M143 205l311 274l-202 240h-53q-17 0 -28 4t-17 15t-6 31t6 52t13 52t16.5 31.5t22 15.5t29.5 4h374q17 0 28 -4t17 -15.5t6 -31.5t-6 -52t-13 -52t-16.5 -31t-22 -15t-29.5 -4h-31l111 -132l146 132h-12q-17 0 -28 4t-17 15t-6 31t6 52t13 52t16.5 31.5t22 15.5t29.5 4
h354q17 0 28 -4t17 -15.5t6 -31.5t-6 -52t-13 -52t-16.5 -31t-22 -15t-29.5 -4h-48l-296 -261l212 -253h52q17 0 28 -4t16.5 -15.5t5.5 -31.5t-6 -52t-12.5 -52t-16 -31t-22 -15t-29.5 -4h-384q-17 0 -28.5 4t-17 15t-6 31t5.5 52t13 52t16.5 31.5t22.5 15.5t30 4h32
l-114 135l-149 -135h7q17 0 28 -4t16.5 -15.5t5.5 -31.5t-6 -52t-12.5 -52t-16 -31t-22 -15t-29.5 -4h-354q-17 0 -28.5 4t-17 15t-6 31t5.5 52t13 52t16.5 31.5t22.5 15.5t30 4h44z" />
    <glyph glyph-name="z" unicode="z" 
d="M1099 924q17 0 28 -4t17 -15t6 -31t-6 -52q-5 -27 -15 -45t-31 -37l-587 -535h315l22 124q5 34 33.5 48.5t99.5 14.5q36 0 56.5 -3.5t30.5 -11t11.5 -19.5t-1.5 -29l-47 -264q-6 -35 -23.5 -50t-52.5 -15h-814q-17 0 -28.5 4t-17 15t-6 31t5.5 52q5 27 15.5 45t31.5 37
l587 535h-295l-20 -114q-3 -17 -11 -29t-23 -19.5t-39 -11t-60 -3.5t-56.5 3.5t-30.5 11t-11.5 19.5t1.5 29l45 254q6 35 23.5 50t52.5 15h794z" />
    <glyph glyph-name="braceleft" unicode="{" 
d="M552 472q65 -39 95 -112.5t12 -176.5l-31 -181q-17 -100 14 -145t109 -45q17 0 28 -4t17 -15t6 -31t-6 -52t-13 -52t-16.5 -31.5t-22 -15.5t-29.5 -4q-200 0 -284.5 105t-50.5 298l32 183q16 90 -18.5 138t-129.5 48q-17 0 -28 4t-16.5 15.5t-5.5 31.5t5 52q6 32 13 52
t16.5 31t22 15t29.5 4q96 0 146.5 47.5t66.5 138.5l32 179q17 97 55.5 166t97.5 112.5t138.5 64t179.5 20.5q17 0 28 -4t17 -15.5t6 -31.5t-6 -52t-13 -52t-16.5 -31t-22 -15t-29.5 -4q-78 0 -126 -45t-65 -145l-31 -177q-9 -51 -28 -92.5t-46 -74t-60.5 -57.5t-71.5 -44z
" />
    <glyph glyph-name="bar" unicode="|" 
d="M643 1271q6 34 42.5 48.5t100.5 14.5t88.5 -14.5t18.5 -48.5l-287 -1623q-6 -34 -42.5 -48.5t-100.5 -14.5t-88.5 14.5t-18.5 48.5z" />
    <glyph glyph-name="braceright" unicode="}" 
d="M705 491q-65 39 -95 112.5t-12 176.5l23 137q17 100 -14 145t-109 45q-17 0 -28 4t-17 15t-6 31t6 52t13 52t16.5 31.5t22 15.5t29.5 4q200 0 284.5 -105t50.5 -298l-24 -139q-16 -90 18.5 -138t129.5 -48q17 0 28 -4t16.5 -15.5t5.5 -31.5t-5 -52q-6 -32 -13 -52
t-16.5 -31t-22 -15t-29.5 -4q-96 0 -146.5 -47.5t-66.5 -138.5l-40 -223q-17 -97 -55.5 -166t-97.5 -112.5t-138.5 -64t-179.5 -20.5q-17 0 -28 4t-17 15.5t-6 31.5t6 52t13 52t16.5 31t22 15t29.5 4q78 0 126 45t65 145l39 221q9 51 28 92.5t46 74t60.5 57.5t71.5 44z" />
    <glyph glyph-name="asciitilde" unicode="~" 
d="M1101 531q-40 -31 -76.5 -52t-70.5 -33.5t-65.5 -18t-61.5 -5.5q-53 0 -101.5 13t-96.5 28.5t-96.5 28.5t-100.5 13q-40 0 -82.5 -10t-90.5 -35q-17 -9 -31.5 -6.5t-25.5 12.5t-19 26.5t-12 34.5q-7 30 -2 60t22 44q79 62 147 85.5t128 23.5q53 0 102 -13t97 -28
t96.5 -28t100.5 -13q40 0 82 10t89 34q16 8 30 6.5t25 -10.5t18.5 -23.5t12.5 -31.5q8 -32 4.5 -64.5t-22.5 -47.5z" />
    <glyph glyph-name="Ccedilla" unicode="&#xc7;" 
d="M1016 1146q7 34 38 48.5t95 14.5t83.5 -14.5t13.5 -48.5l-68 -384q-6 -34 -38.5 -48.5t-104.5 -14.5q-36 0 -58 3.5t-34 11t-15 19.5t0 29q9 48 2.5 88.5t-27.5 70t-57.5 45.5t-88.5 16q-82 0 -146 -34.5t-111 -100.5q-26 -37 -45.5 -82.5t-33 -95t-20.5 -99.5t-7 -95
q0 -131 60 -200.5t176 -69.5q46 0 89 7t86 19.5t86.5 30.5t90.5 40q33 15 58 -2t42 -75q17 -60 7.5 -92.5t-44.5 -48.5q-101 -46 -200 -72.5t-196 -31.5l-12 -73q49 1 86 -10t61 -32t36 -50.5t12 -64.5q0 -32 -11 -71t-37 -68q-71 -83 -257 -83q-72 0 -135.5 10.5
t-112.5 30.5q-20 8 -19 31.5t15 53.5q13 29 31 47.5t38 10.5q36 -15 71.5 -24.5t85.5 -9.5q56 0 76 19.5t20 44.5q0 32 -34 39t-84 -2q-14 -2 -25.5 6.5t-6.5 34.5l29 171q-81 18 -145.5 59.5t-109.5 103t-69 141.5t-24 176q0 71 12.5 145.5t38 146.5t62.5 137.5t87 119.5
q85 93 194.5 141t234.5 48q94 0 155.5 -36.5t90.5 -94.5z" />
    <glyph glyph-name="ccedilla" unicode="&#xe7;" 
d="M918 883q6 34 37.5 48.5t95.5 14.5t83.5 -14.5t13.5 -48.5l-56 -321q-6 -34 -39 -48.5t-105 -14.5q-36 0 -58 3.5t-33.5 11t-14.5 19.5t0 29q5 31 -1 59t-25 50t-50 35t-76 13q-74 0 -128.5 -29.5t-90.5 -75t-53.5 -102t-17.5 -110.5q0 -92 52.5 -144.5t147.5 -52.5
q80 0 164.5 25.5t165.5 68.5q32 17 58 0t47 -74q22 -59 13 -92t-43 -50q-86 -42 -184 -69t-192 -34l-12 -73q49 1 86 -10t61 -32t36 -50.5t12 -64.5q0 -32 -11 -71t-37 -68q-71 -83 -257 -83q-72 0 -135.5 10.5t-112.5 30.5q-20 8 -19 31.5t15 53.5q13 29 31 47.5t38 10.5
q36 -15 71.5 -24.5t85.5 -9.5q56 0 76 19.5t20 44.5q0 32 -34 39t-84 -2q-14 -2 -25.5 6.5t-6.5 34.5l29 170q-76 16 -136 52.5t-101 88.5t-63 117.5t-22 140.5q0 66 16 133t47 129t77 116t107 93.5t135.5 62.5t163.5 23q81 0 142.5 -31t85.5 -91z" />
    <glyph glyph-name="dagger" unicode="&#x2020;" 
d="M366 699q-17 0 -28 4t-16.5 16t-5 34t6.5 58t13 58t17 34t22.5 16.5t29.5 4.5h188l40 222q3 17 9.5 29t20 19.5t36 11t58.5 3.5t57 -3.5t32 -11t13 -19.5t-1 -29l-40 -222h189q17 0 28 -4.5t16.5 -16.5t5.5 -34t-6 -58t-13.5 -58t-17.5 -34t-22.5 -16t-29.5 -4h-189
l-69 -388q-3 -17 -9 -29t-19.5 -19.5t-36 -11t-58.5 -3.5t-57.5 3.5t-32.5 11t-13 19.5t1 29l69 388h-188z" />
    <glyph glyph-name="degree" unicode="&#xb0;" 
d="M581 565q-60 0 -110.5 22t-88 60t-58.5 88.5t-21 108.5q0 66 27.5 131.5t77 117t118 84t149.5 32.5q60 0 110.5 -22t88 -60t58.5 -88.5t21 -108.5q0 -70 -29 -136t-79.5 -117t-118.5 -81.5t-145 -30.5zM608 776q25 0 49 10.5t42.5 28.5t30 41.5t11.5 49.5
q0 39 -26.5 65.5t-67.5 26.5q-25 0 -49 -10.5t-42.5 -28.5t-29.5 -42t-11 -50q0 -38 26 -64.5t67 -26.5z" />
    <glyph glyph-name="cent" unicode="&#xa2;" 
d="M943 1023q6 34 37.5 48.5t95.5 14.5t83.5 -14.5t13.5 -48.5l-56 -321q-6 -34 -39 -48.5t-105 -14.5q-36 0 -58 3.5t-33.5 11t-14.5 19.5t0 29q8 47 -10.5 86.5t-66.5 57.5l-88 -495q63 9 127 32t126 56q32 17 58 0t47 -74q22 -59 13 -92t-43 -50q-85 -42 -180 -68.5
t-188 -34.5l-32 -182q-6 -34 -27.5 -48.5t-77.5 -14.5t-71.5 14.5t-9.5 48.5l34 193q-75 16 -134.5 52.5t-100.5 88.5t-62.5 117.5t-21.5 139.5q0 94 31.5 188t93 171.5t152.5 130t210 64.5l29 166q3 17 9 29t18 19.5t30.5 11t46.5 3.5q56 0 72 -14.5t10 -48.5l-33 -186
q37 -15 64 -39.5t41 -59.5zM425 542q0 -63 24.5 -107t69.5 -67l83 469q-45 -19 -78.5 -51.5t-55 -72.5t-32.5 -84.5t-11 -86.5z" />
    <glyph glyph-name="sterling" unicode="&#xa3;" 
d="M355 650q-13 40 -24 81t-11 89q0 63 24.5 132t77 126t134.5 94t197 37q81 0 165.5 -22t163.5 -67q20 -11 29.5 -26t5.5 -37l-37 -207q-6 -34 -37.5 -48.5t-95.5 -14.5t-83.5 14.5t-13.5 48.5l20 111q-29 15 -61.5 23t-76.5 8q-45 0 -76 -17t-49.5 -43t-26.5 -56t-8 -57
q0 -46 15 -85.5t31 -83.5h291q17 0 28 -4.5t16.5 -16.5t5 -34t-6.5 -58t-13.5 -58t-17.5 -34t-22.5 -16t-29.5 -4h-240q-17 -63 -56 -114t-98 -104q46 16 81.5 22t65.5 6q24 0 44.5 -2.5t40 -6t39.5 -6t41 -2.5q29 0 62 7t76 26q13 6 26 2.5t24.5 -13.5t21 -25t15.5 -33
t9 -36.5t1 -36t-8.5 -31.5t-19.5 -22q-36 -23 -68 -38t-61 -24t-56 -12.5t-52 -3.5q-36 0 -69.5 5.5t-69 12t-73.5 12t-81 5.5q-50 0 -108 -10t-130 -37q-12 -5 -24.5 -0.5t-24 15t-21 25.5t-16.5 33q-13 34 -11 69t28 53q47 32 84 62t64.5 61t46 65.5t28.5 75.5h-163
q-17 0 -28 4t-16.5 16t-5 34t6.5 58t13.5 58t17.5 34t22.5 16.5t29.5 4.5h98z" />
    <glyph glyph-name="section" unicode="&#xa7;" 
d="M557 -35q29 0 48.5 8t31.5 21t17.5 30.5t5.5 37.5q0 26 -12.5 47t-45.5 39l-266 145q-69 38 -108 100t-39 141q0 93 42.5 166.5t116.5 127.5q-2 10 -2 19.5v20.5q0 54 18.5 111t59 103t106 75.5t158.5 29.5h404q35 0 47 -15t6 -50l-46 -262q-6 -34 -37.5 -48.5
t-95.5 -14.5t-83.5 14.5t-13.5 48.5l23 132h-193q-29 0 -48.5 -8t-31.5 -21t-17.5 -31t-5.5 -37q0 -26 12.5 -47t45.5 -39l266 -145q69 -38 108 -100t39 -141q0 -93 -42.5 -167t-117.5 -128q3 -20 3 -39q0 -54 -18.5 -111t-59 -103t-106 -75.5t-158.5 -29.5h-404
q-35 0 -47 15t-6 50l46 262q6 34 37.5 48.5t95.5 14.5t83.5 -14.5t13.5 -48.5l-23 -132h193zM505 622q-21 10 -39 24q-27 -33 -27 -81q0 -30 16 -53.5t54 -44.5l242 -132q21 -12 39 -24q27 34 27 81q0 30 -16 53.5t-54 44.5z" />
    <glyph glyph-name="bullet" unicode="&#x2022;" 
d="M604 285q-54 0 -101 20t-81 54.5t-53.5 81t-19.5 99.5q0 64 26.5 124t72 106.5t107 74.5t132.5 28q55 0 101.5 -20t80.5 -55t53.5 -81.5t19.5 -99.5q0 -62 -25.5 -121.5t-71 -106.5t-107.5 -75.5t-134 -28.5z" />
    <glyph glyph-name="paragraph" unicode="&#xb6;" 
d="M742 982l-236 -1334q-6 -34 -36 -48.5t-87 -14.5q-56 0 -74.5 14.5t-12.5 48.5l140 792q-63 10 -112 36.5t-83.5 67t-52.5 93t-18 114.5q0 86 30 165t90.5 139t152 96t215.5 36h556q17 0 28 -4t17 -15.5t6 -31.5t-6 -52t-13 -52t-16.5 -31t-22 -15t-29.5 -4h-66
l-236 -1334q-6 -34 -36 -48.5t-87 -14.5q-56 0 -74.5 14.5t-12.5 48.5l236 1334h-160z" />
    <glyph glyph-name="germandbls" unicode="&#xdf;" 
d="M282 877q18 100 58 181.5t101.5 139t143 88.5t180.5 31q87 0 153.5 -24t111 -66t67.5 -100t23 -125q0 -113 -49.5 -197t-158.5 -137q81 -32 122.5 -96.5t41.5 -153.5q0 -40 -8 -82.5t-24 -83.5t-40 -79t-56 -69q-68 -66 -163 -96t-210 -30q-38 0 -52.5 24.5t-9.5 88.5
t21.5 89t50.5 25q122 0 179 72q23 29 36 69t13 76q0 62 -40 94.5t-115 32.5q-34 0 -44 24t1 88q6 32 13 53t17 34t23 19t30 7q50 4 83 24t53 49t28.5 62.5t8.5 63.5q0 51 -31.5 84t-102.5 33q-81 0 -134 -55t-71 -161l-143 -811q-6 -34 -23 -48.5t-51 -14.5h-124
q-34 0 -46 14.5t-6 48.5z" />
    <glyph glyph-name="registered" unicode="&#xae;" 
d="M446 854q6 34 23 48.5t51 14.5h226q49 0 88.5 -17t67 -46t42 -67.5t14.5 -80.5q0 -72 -40 -131.5t-123 -96.5l65 -93q18 -26 10 -48.5t-54 -48.5q-23 -13 -39 -19t-27.5 -5t-20.5 8.5t-17 21.5l-89 149h-79l-19 -108q-3 -17 -8.5 -29.5t-16.5 -20.5t-28 -11.5t-44 -3.5
q-53 0 -66.5 15t-6.5 50zM598 752l-27 -154h99q32 0 53 9t33.5 23t17.5 29.5t5 29.5q0 29 -18.5 46t-54.5 17h-108zM566 131q79 0 148 22t127 61t104 92.5t77.5 115.5t48.5 131t17 139q0 81 -24 148t-70 115t-113 74.5t-152 26.5q-79 0 -148 -22t-127.5 -61t-104.5 -92.5
t-77.5 -115.5t-48.5 -131t-17 -139q0 -80 24 -147t70 -115t113 -75t153 -27zM549 -22q-113 0 -204 39.5t-155.5 108.5t-99.5 163t-35 204q0 90 22 178t64.5 167.5t103 147.5t137 117.5t168.5 77.5t196 28q112 0 203 -39t155.5 -107.5t99.5 -163t35 -205.5q0 -90 -22 -178
t-64 -167.5t-102.5 -147.5t-137 -117.5t-168.5 -77.5t-196 -28z" />
    <glyph glyph-name="copyright" unicode="&#xa9;" 
d="M643 422q35 0 70.5 8t72.5 20q27 9 38.5 -4t22.5 -51q11 -41 6 -65t-37 -38q-47 -21 -97 -32t-97 -11q-63 0 -116 19.5t-90.5 55.5t-58.5 87.5t-21 116.5q0 35 6.5 75t21 79.5t36 77t51.5 68.5q52 54 122 81.5t151 27.5q47 0 93 -11t85 -32q27 -14 29.5 -37t-15.5 -65
q-32 -74 -80 -56q-32 12 -65 20t-68 8q-79 0 -129 -53q-29 -31 -44 -74t-15 -88q0 -62 33.5 -94.5t94.5 -32.5zM566 131q79 0 148 22t127 61t104 92.5t77.5 115.5t48.5 131t17 139q0 81 -24 148t-70 115t-113 74.5t-152 26.5q-79 0 -148 -22t-127.5 -61t-104.5 -92.5
t-77.5 -115.5t-48.5 -131t-17 -139q0 -80 24 -147t70 -115t113 -75t153 -27zM549 -22q-113 0 -204 39.5t-155.5 108.5t-99.5 163t-35 204q0 90 22 178t64.5 167.5t103 147.5t137 117.5t168.5 77.5t196 28q112 0 203 -39t155.5 -107.5t99.5 -163t35 -205.5q0 -90 -22 -178
t-64 -167.5t-102.5 -147.5t-137 -117.5t-168.5 -77.5t-196 -28z" />
    <glyph glyph-name="trademark" unicode="&#x2122;" 
d="M858 813q-8 -35 -28.5 -50t-66.5 -15t-57.5 15t-3.5 50l108 444q8 35 27 50t65 15q34 0 48.5 -7t19.5 -22l95 -256l185 256q11 15 29.5 22t52.5 7q46 0 63 -15t13 -50l-48 -444q-4 -35 -21.5 -50t-63.5 -15t-61 15t-10 50l27 209l-114 -157q-17 -23 -38.5 -35t-41.5 -12
t-37.5 12t-26.5 35l-66 173zM247 1157q-17 0 -28.5 3t-17.5 11t-7 23.5t3 39.5t10.5 39.5t15.5 24t21.5 11.5t29.5 3h402q34 0 46 -14.5t3 -63.5q-4 -24 -10 -39.5t-15 -23.5t-21.5 -11t-29.5 -3h-121l-61 -344q-3 -17 -8.5 -29.5t-16 -20.5t-26.5 -11.5t-41 -3.5t-39.5 3.5
t-22 11.5t-8.5 20.5t2 29.5l61 344h-121z" />
    <glyph glyph-name="acute" unicode="&#xb4;" 
d="M959 1392q28 16 59 -3.5t61 -87.5q30 -69 26.5 -102.5t-29.5 -40.5l-480 -125q-24 -7 -42 4.5t-26 34.5q-8 22 -2.5 41.5t25.5 31.5z" />
    <glyph glyph-name="dieresis" unicode="&#xa8;" 
d="M375 1202q6 31 21 57.5t37.5 45.5t51 29.5t59.5 10.5q32 0 58.5 -13t44 -34.5t25 -50t1.5 -59.5t-21 -57.5t-37.5 -45.5t-50.5 -29.5t-59 -10.5q-32 0 -58.5 13t-44.5 34.5t-25.5 50t-1.5 59.5zM835 1202q6 31 21 57.5t37.5 45.5t51 29.5t59.5 10.5q32 0 58.5 -13
t44 -34.5t25 -50t1.5 -59.5t-21 -57.5t-37.5 -45.5t-50.5 -29.5t-59 -10.5q-32 0 -58.5 13t-44.5 34.5t-25.5 50t-1.5 59.5z" />
    <glyph glyph-name="notequal" unicode="&#x2260;" 
d="M775 924l112 159q22 31 51 34.5t74 -22.5q44 -27 49.5 -48.5t-15.5 -51.5l-50 -71h91q17 0 28 -4.5t16.5 -16.5t5.5 -34t-6 -58t-13.5 -58t-17.5 -34t-22.5 -16t-29.5 -4h-210l-164 -233h333q17 0 28 -4.5t16.5 -16.5t5 -34t-6.5 -58t-13.5 -58t-17.5 -34t-22.5 -16
t-29.5 -4h-451l-111 -159q-21 -30 -49.5 -34t-74.5 22q-45 26 -50.5 48t15.5 51l50 72h-91q-17 0 -28 4t-16.5 16t-5 34t6.5 58t13.5 58t17 34t22.5 16.5t30 4.5h209l164 233h-332q-17 0 -28 4t-16.5 16t-5 34t6.5 58t13 58t17 34t22.5 16.5t29.5 4.5h450z" />
    <glyph glyph-name="AE" unicode="&#xc6;" 
d="M388 982h-102q-17 0 -28 4t-17 15t-6 31t6 52t13 52t16.5 31.5t22 15.5t29.5 4h912q35 0 47 -15t6 -50l-48 -272q-6 -34 -34.5 -48.5t-88.5 -14.5t-76.5 14.5t-10.5 48.5l22 122h-170l-43 -243h114q17 0 28 -5t16.5 -17t5.5 -33t-6 -53t-13 -52.5t-17 -32.5t-22.5 -17
t-29.5 -5h-114l-53 -299h180l31 172q6 34 34.5 48.5t92.5 14.5q32 0 51.5 -3.5t30 -11t12.5 -19.5t-1 -29l-57 -322q-6 -35 -23.5 -50t-52.5 -15h-500q-35 0 -47.5 15t-6.5 50l47 265h-197l-54 -125h41q17 0 28 -4t16.5 -15.5t5.5 -31.5t-6 -52t-12.5 -52t-16 -31t-22 -15
t-29.5 -4h-329q-17 0 -28 4t-17 15t-6 31t6 52q5 32 12 52t17 31.5t22.5 15.5t29.5 4h53zM576 545l75 427h-52l-168 -427h145z" />
    <glyph glyph-name="Oslash" unicode="&#xd8;" 
d="M560 -22q-80 0 -148 19t-124 55l-39 -45q-12 -14 -23.5 -21.5t-24.5 -7.5t-28.5 7.5t-35.5 23.5q-41 32 -43.5 54.5t21.5 50.5l52 60q-38 60 -58.5 134.5t-20.5 162.5q0 59 9.5 123t28 127t46 123t63.5 112q87 124 214.5 188.5t287.5 64.5q80 0 148 -19.5t124 -55.5
l40 46q12 13 23 20.5t24 8t28.5 -7t35.5 -23.5q41 -32 43.5 -54.5t-21.5 -50.5l-53 -60q39 -60 59.5 -134.5t20.5 -162.5q0 -59 -9.5 -123t-28 -127t-46 -123t-63.5 -112q-87 -124 -214.5 -188.5t-287.5 -64.5zM353 467q0 -41 6 -75l488 557q-51 33 -130 33
q-81 0 -144.5 -34t-110.5 -99q-27 -38 -47.5 -85t-34 -97.5t-20.5 -102t-7 -97.5zM580 205q81 0 144.5 34t110.5 99q27 38 47.5 85t34 97.5t20.5 101.5t7 98q0 39 -6 74l-488 -557q52 -32 130 -32z" />
    <glyph glyph-name="plusminus" unicode="&#xb1;" 
d="M272 620q-17 0 -28 4t-16.5 16t-5 34t6.5 58t13 58t17 34t22.5 16.5t29.5 4.5h268l39 218q3 17 9.5 29t20 19.5t36 11t58.5 3.5t57 -3.5t32 -11t13 -19.5t-1 -29l-39 -218h269q17 0 28 -4.5t16.5 -16.5t5.5 -34t-6 -58t-13.5 -58t-17.5 -34t-22.5 -16t-29.5 -4h-269
l-39 -219q-3 -17 -9 -29t-19.5 -19.5t-36 -11t-58.5 -3.5t-57.5 3.5t-32.5 11t-13 19.5t1 29l39 219h-268zM964 225q17 0 28 -4.5t16.5 -16.5t5 -34t-6.5 -58t-13.5 -58t-17 -34t-22 -16t-29.5 -4h-762q-17 0 -28.5 4t-17 16t-5 34t6.5 58t13.5 58t17.5 34t22.5 16.5
t29.5 4.5h762z" />
    <glyph glyph-name="lessequal" unicode="&#x2264;" 
d="M964 225q17 0 28 -4.5t16.5 -16.5t5 -34t-6.5 -58t-13.5 -58t-17 -34t-22 -16t-29.5 -4h-762q-17 0 -28.5 4t-17 16t-5 34t6.5 58t13.5 58t17.5 34t22.5 16.5t29.5 4.5h762zM1040 559q15 -6 24 -14t10.5 -22.5t-4.5 -36t-20 -54.5t-27 -52.5t-26 -28.5t-26 -9t-28 6
l-683 303q-23 10 -30 30.5t1 63.5t22 63.5t40 30.5l773 297q34 13 56 -5t40 -80q18 -63 10 -90.5t-42 -39.5l-540 -186z" />
    <glyph glyph-name="greaterequal" unicode="&#x2265;" 
d="M964 225q17 0 28 -4.5t16.5 -16.5t5 -34t-6.5 -58t-13.5 -58t-17 -34t-22 -16t-29.5 -4h-762q-17 0 -28.5 4t-17 16t-5 34t6.5 58t13.5 58t17.5 34t22.5 16.5t29.5 4.5h762zM310 931q-15 6 -24 14t-10.5 22.5t4.5 36t20 54.5q28 65 53 81t54 3l683 -303q23 -10 30 -30.5
t-1 -63.5t-22 -63.5t-40 -30.5l-773 -297q-35 -14 -56.5 4.5t-39.5 80.5q-18 63 -10 90.5t42 39.5l540 186z" />
    <glyph glyph-name="yen" unicode="&#xa5;" 
d="M626 1187q17 0 28 -4t17 -15.5t6 -31.5t-6 -52t-13 -52t-16.5 -31t-22 -15t-29.5 -4h-67l134 -292l239 292h-52q-17 0 -28 4t-17 15t-6 31t6 52t13 52t16.5 31.5t22 15.5t29.5 4h384q17 0 28 -4t17 -15.5t6 -31.5t-6 -52t-13 -52t-16.5 -31t-22 -15t-29.5 -4h-45
l-118 -142h58q34 0 45 -18.5t1 -74.5q-5 -28 -11.5 -46t-16 -28t-22 -14t-29.5 -4h-179l-118 -143h252q34 0 45 -18.5t1 -74.5q-5 -28 -11.5 -46t-16 -28t-22 -14t-29.5 -4h-286l-21 -122h206q17 0 28 -4t16.5 -15.5t5.5 -31.5t-6 -52t-12.5 -52t-16 -31t-22 -15t-29.5 -4
h-642q-17 0 -28.5 4t-17 15t-6 31t5.5 52t13 52t16.5 31.5t22.5 15.5t30 4h186l21 122h-286q-34 0 -45.5 18t-1.5 74q5 28 12 46t16.5 28.5t22 14.5t29.5 4h256l-68 143h-183q-34 0 -45.5 18t-1.5 74t28 74.5t52 18.5h62l-67 142h-50q-17 0 -28 4t-17 15t-6 31t6 52t13 52
t16.5 31.5t22 15.5t29.5 4h384z" />
    <glyph glyph-name="summation" unicode="&#x2211;" 
d="M300 1797h628v-85h-628v85zM300 -753h628v-85h-628v85z" />
    <glyph glyph-name="integral" unicode="&#x222b;" 
d="M662 -35q-33 -188 -136 -284t-278 -96q-87 0 -170.5 24t-147.5 64q-19 11 -27.5 25.5t-3.5 37.5q4 21 14 46.5t24.5 48t31.5 37.5t35 15q17 0 34 -9q57 -29 112 -45.5t106 -16.5q62 0 102.5 39.5t56.5 126.5l204 1159q33 188 136 284t278 96q87 0 170.5 -24t148.5 -64
q19 -11 27.5 -25.5t3.5 -37.5q-4 -21 -14.5 -46.5t-25 -48t-31.5 -37.5t-35 -15t-34 9q-56 29 -111.5 45.5t-106.5 16.5q-62 0 -102.5 -39.5t-55.5 -126.5z" />
    <glyph glyph-name="ordfeminine" unicode="&#xaa;" 
d="M830 580q-57 -60 -122 -87.5t-132 -27.5q-68 0 -120.5 24t-89.5 66t-56 98t-19 121q0 73 24 150t72.5 140.5t122.5 104t173 40.5q75 0 132.5 -34.5t86.5 -95.5l12 72q5 26 28 37.5t67 11.5q43 0 57 -11.5t9 -37.5l-78 -446q-6 -31 4 -48t35 -17h22q26 0 34.5 -15.5
t-0.5 -64.5q-4 -24 -9.5 -39.5t-12.5 -24t-16.5 -11.5t-22.5 -3h-73q-23 0 -44 5t-38.5 16.5t-29.5 30.5t-16 46zM622 640q52 0 92 22t67.5 57t42 78.5t14.5 85.5q0 75 -42 113.5t-105 38.5q-53 0 -90 -25.5t-60.5 -63.5t-34.5 -82t-11 -81q0 -67 33 -105t94 -38z" />
    <glyph glyph-name="ordmasculine" unicode="&#xba;" 
d="M634 465q-79 0 -141.5 24t-105.5 66t-66 99.5t-23 125.5q0 76 27.5 152.5t83 138t140.5 100t200 38.5q79 0 141 -24t105.5 -66t66.5 -100t23 -125q0 -72 -26 -148.5t-81 -138.5t-140.5 -102t-203.5 -40zM726 1035q-53 0 -94 -20.5t-70 -55t-44 -78.5t-15 -91
q0 -70 41 -110t113 -40q52 0 93.5 20.5t70 54.5t43.5 77.5t15 90.5q0 70 -40.5 111t-112.5 41z" />
    <glyph glyph-name="ae" unicode="&#xe6;" 
d="M507 390q-38 3 -69 3q-99 0 -149.5 -30.5t-50.5 -102.5q0 -33 20.5 -52t62.5 -19q36 0 66 13t53.5 35.5t39.5 53.5t22 67zM997 565q8 72 -12 113t-71 41q-61 0 -99 -38t-62 -116h244zM1093 49q-73 -29 -148 -50t-156 -21q-83 0 -136.5 32.5t-82.5 91.5
q-59 -63 -136.5 -93.5t-162.5 -30.5q-60 0 -108.5 17t-83.5 48.5t-54 76.5t-19 101q0 86 29.5 154t86 115.5t137.5 72.5t183 25q48 0 99 -6l1 6q11 63 -18 97t-103 34q-47 0 -93 -15t-92 -37q-29 -14 -53 0.5t-46 72.5q-19 48 -11 77.5t36 44.5q76 41 155 62.5t152 21.5
q85 0 139.5 -24.5t85.5 -69.5q48 44 109 69t131 25q76 0 130 -24t88 -67.5t49.5 -104.5t15.5 -136q0 -42 -5 -87.5t-13 -94.5q-6 -34 -23 -48t-51 -14h-406q-4 -81 22 -123t83 -42q56 0 106 13.5t110 36.5q17 7 30.5 7t24.5 -8.5t20 -26.5t17 -48t10 -51.5t-2.5 -36.5
t-16 -25t-30.5 -17z" />
    <glyph glyph-name="oslash" unicode="&#xf8;" 
d="M550 -22q-81 0 -147 18.5t-119 53.5l-56 -49q-28 -25 -51 -22.5t-57 41.5t-32.5 62.5t28.5 47.5l51 44q-54 93 -54 214q0 65 15.5 132t47.5 129t80.5 116t113.5 94.5t147.5 63.5t182.5 23q80 0 146 -19t119 -54l57 50q28 25 51 22.5t57 -41.5t32.5 -62.5t-28.5 -47.5
l-52 -46q26 -46 40 -99t14 -113q0 -63 -15 -128.5t-46 -127.5t-78.5 -117t-112.5 -96t-148.5 -65t-185.5 -24zM670 719q-69 0 -122.5 -27t-91 -71.5t-57 -101.5t-19.5 -118v-19.5t2 -18.5l385 337q-44 19 -97 19zM869 522q0 20 -3 38l-384 -336q41 -19 98 -19q68 0 122 26.5
t91 71t56.5 101.5t19.5 118z" />
    <glyph glyph-name="questiondown" unicode="&#xbf;" 
d="M599 720q7 23 29.5 35.5t80.5 12.5t76 -12.5t16 -35.5l-19 -208q-2 -20 -10.5 -34t-28.5 -17l-113 -18q-60 -10 -97 -30t-54 -55q-7 -14 -11 -31t-4 -36q0 -47 34 -71.5t103 -24.5q41 0 80.5 8t77.5 22l18 102q3 17 10 29t20.5 19.5t35 11t53.5 3.5q64 0 90.5 -14.5
t20.5 -48.5l-37 -210q-8 -43 -52 -61q-87 -37 -173.5 -57.5t-171.5 -20.5q-89 0 -157.5 20t-114.5 57t-69.5 89t-23.5 116q0 45 10.5 92t31.5 86q22 40 52.5 71t71 54.5t91 42t111.5 33.5zM764 1209q33 0 60.5 -12t48 -32.5t31.5 -48t11 -58.5q0 -41 -16 -76t-43 -61
t-62.5 -40.5t-73.5 -14.5q-33 0 -60.5 12t-47.5 32.5t-31 47.5t-11 58q0 41 16 76.5t43 61.5t62 40.5t73 14.5z" />
    <glyph glyph-name="exclamdown" unicode="&#xa1;" 
d="M414 -22q-46 0 -32 50l175 577q11 38 39.5 58t67.5 20t60 -20t19 -58l-29 -577q-3 -50 -50 -50h-250zM732 1209q36 0 66.5 -13.5t52.5 -36t34.5 -53t12.5 -64.5q0 -45 -18 -84t-47.5 -67.5t-68.5 -44.5t-81 -16q-36 0 -66.5 13t-52.5 35.5t-34.5 53t-12.5 64.5
q0 45 17.5 84t47.5 67.5t69 45t81 16.5z" />
    <glyph glyph-name="logicalnot" unicode="&#xac;" 
d="M224 630q-17 0 -28 4t-16.5 16t-5.5 33t6 55t13 55t16.5 32.5t22 15.5t29.5 4h850q35 0 47.5 -15t6.5 -50l-76 -432q-6 -34 -38.5 -48.5t-104.5 -14.5q-36 0 -58 3.5t-34 11t-15 19.5t0 29l50 282h-665z" />
    <glyph glyph-name="florin" unicode="&#x192;" 
d="M314 649q-17 0 -28 5t-16.5 17t-5.5 32.5t6 52.5t13 53t16.5 33t22.5 17t30 5h217l24 93q48 186 159 273t285 87q56 0 111 -8t107 -25q16 -5 26.5 -14t15 -24.5t2 -38.5t-13.5 -56q-11 -32 -24 -51t-28 -27.5t-31 -9t-31 3.5q-44 12 -84 17.5t-78 5.5q-62 0 -106.5 -39.5
t-67.5 -126.5l-16 -60h237q17 0 28 -5t16.5 -17t5.5 -33t-6 -53t-13 -52.5t-17 -32.5t-22.5 -17t-29.5 -5h-256l-149 -568q-49 -187 -159.5 -273.5t-284.5 -86.5q-56 0 -111 8t-107 25q-15 5 -25.5 14t-14.5 24t-1.5 38t12.5 57q10 32 23 51t28 27.5t31 9t31 -3.5
q44 -12 84 -17.5t78 -5.5q62 0 106.5 39.5t67.5 126.5l141 535h-198z" />
    <glyph glyph-name="approxequal" unicode="&#x2248;" 
d="M1142 761q-40 -31 -76.5 -52t-70.5 -33.5t-65.5 -18t-61.5 -5.5q-53 0 -101.5 13t-96.5 28.5t-96.5 28.5t-100.5 13q-40 0 -82.5 -10t-90.5 -35q-17 -9 -31.5 -6.5t-25.5 12.5t-19 26.5t-12 34.5q-7 30 -2 60t22 44q79 62 147 85.5t128 23.5q53 0 102 -13t97 -28
t96.5 -28t100.5 -13q40 0 82 10t89 34q16 8 30 6.5t25 -10.5t18.5 -23.5t12.5 -31.5q8 -32 4.5 -64.5t-22.5 -47.5zM1060 301q-40 -31 -76.5 -52t-70.5 -33.5t-65.5 -18t-61.5 -5.5q-53 0 -101.5 13t-96.5 28.5t-96.5 28.5t-100.5 13q-40 0 -82.5 -10t-90.5 -35
q-17 -9 -31.5 -6.5t-25.5 12.5t-19 26.5t-12 34.5q-7 30 -2 60t22 44q79 62 147 85.5t128 23.5q53 0 102 -13t97 -28t96.5 -28t100.5 -13q40 0 82 10t89 34q16 8 30 6.5t25 -10.5t18.5 -23.5t12.5 -31.5q8 -32 4.5 -64.5t-22.5 -47.5z" />
    <glyph glyph-name="Delta" unicode="&#x2206;" 
d="M129 205l467 939q18 36 56 50.5t108 14.5t101.5 -15t36.5 -50l132 -939h81q17 0 28 -4t16.5 -15.5t5.5 -31.5t-6 -52t-12.5 -52t-16 -31t-22 -15t-29.5 -4h-1062q-17 0 -28.5 4t-17 15t-6 31t5.5 52t13 52t16.5 31.5t22.5 15.5t30 4h80zM395 205h384l-74 647h-4z" />
    <glyph glyph-name="guillemotleft" unicode="&#xab;" 
d="M566 266q6 -14 1 -28t-17.5 -26.5t-30.5 -23.5t-39 -18q-21 -8 -42.5 -11.5t-40.5 -2t-33 8.5t-20 21l-148 344q-11 26 9 51l270 344q10 13 26 18.5t34.5 4.5t37.5 -8t37 -18t32 -25.5t22 -30t8 -31.5t-11 -30l-211 -269zM1006 266q6 -14 1 -28t-17.5 -26.5t-30.5 -23.5
t-39 -18q-21 -8 -42.5 -11.5t-40.5 -2t-33 8.5t-20 21l-148 344q-11 26 9 51l270 344q10 13 26 18.5t34.5 4.5t37.5 -8t37 -18t32 -25.5t22 -30t8 -31.5t-11 -30l-211 -269z" />
    <glyph glyph-name="guillemotright" unicode="&#xbb;" 
d="M715 835q-6 14 -1 28t17.5 26.5t30.5 23t39 18.5q21 7 42.5 11t40.5 2.5t33 -8.5t20 -21l148 -344q11 -26 -9 -51l-270 -344q-11 -14 -26.5 -19t-34 -4t-37.5 8t-37 18t-32 25.5t-22 30t-8 31.5t11 30l211 269zM275 835q-6 14 -1 28t17.5 26.5t30.5 23t39 18.5
q21 7 42.5 11t40.5 2.5t33 -8.5t20 -21l148 -344q11 -26 -9 -51l-270 -344q-11 -14 -26.5 -19t-34 -4t-37.5 8t-37 18t-32 25.5t-22 30t-8 31.5t11 30l211 269z" />
    <glyph glyph-name="OE" unicode="&#x152;" 
d="M1224 1187q35 0 47 -15t6 -50l-48 -272q-6 -34 -34.5 -48.5t-88.5 -14.5t-76.5 14.5t-10.5 48.5l22 122h-170l-43 -243h114q17 0 28 -5t16.5 -17t5.5 -33t-6 -53t-13 -52.5t-17 -32.5t-22.5 -17t-29.5 -5h-114l-53 -299h180l31 172q6 34 34.5 48.5t92.5 14.5
q32 0 51.5 -3.5t30 -11t12.5 -19.5t-1 -29l-57 -322q-6 -35 -23.5 -50t-52.5 -15h-501q-106 0 -189 31t-140.5 90.5t-87.5 144.5t-30 193q0 58 9.5 125t28.5 134.5t48.5 131.5t70.5 117q84 110 204.5 165t274.5 55h501zM641 972q-60 -5 -114 -37t-97 -95
q-26 -37 -45.5 -82.5t-33 -94.5t-20 -99t-6.5 -95q0 -122 49.5 -184.5t132.5 -69.5z" />
    <glyph glyph-name="oe" unicode="&#x153;" 
d="M440 719q-66 0 -106 -69q-16 -26 -29 -66.5t-22.5 -85.5t-15 -89.5t-5.5 -78.5q0 -125 88 -125q62 0 100 59q17 26 31.5 68t25 89t16 93t5.5 80q0 125 -88 125zM677 836q119 110 257 110q76 0 130 -24t88 -67.5t49.5 -104.5t15.5 -136q0 -42 -5 -87.5t-13 -94.5
q-6 -34 -23 -48t-51 -14h-406q-4 -81 22 -123t83 -42q56 0 106 13.5t110 36.5q17 7 30.5 7t24.5 -8.5t20 -26.5t17 -48t10 -51.5t-2.5 -36.5t-16 -25t-30.5 -17q-73 -29 -148 -50t-156 -21q-76 0 -127 27.5t-82 78.5q-48 -51 -110 -78.5t-140 -27.5q-79 0 -136 26.5
t-94 73.5t-54.5 112.5t-17.5 142.5q0 58 10 126t29.5 135t49 128t68.5 105q51 57 118.5 88t156.5 31q78 0 132.5 -29.5t84.5 -80.5zM997 565q8 72 -12 113t-71 41q-61 0 -99 -38t-62 -116h244z" />
    <glyph glyph-name="endash" unicode="&#x2013;" 
d="M1047 695q17 0 28 -4.5t16.5 -16.5t5 -34t-6.5 -58t-13.5 -58t-17.5 -34t-22.5 -16t-29.5 -4h-762q-17 0 -28 4t-16.5 16t-5 34t6.5 58t13.5 58t17.5 34t22.5 16.5t29.5 4.5h762z" />
    <glyph glyph-name="divide" unicode="&#xf7;" 
d="M1047 695q17 0 28 -4.5t16.5 -16.5t5 -34t-6.5 -58t-13.5 -58t-17.5 -34t-22.5 -16t-29.5 -4h-762q-17 0 -28 4t-16.5 16t-5 34t6.5 58t13.5 58t17.5 34t22.5 16.5t29.5 4.5h762zM565 79q-28 0 -51.5 10t-40.5 27.5t-26.5 40.5t-9.5 49q0 35 13.5 65t36.5 51.5t53 34
t62 12.5q28 0 51 -10t40 -27.5t26.5 -40.5t9.5 -49q0 -35 -13.5 -65t-36 -51.5t-52.5 -34t-62 -12.5zM691 796q-28 0 -51.5 10t-40.5 27.5t-26.5 40.5t-9.5 49q0 35 13.5 65t36.5 51.5t53 34t62 12.5q28 0 51 -10t40 -27.5t26.5 -40.5t9.5 -49q0 -35 -13.5 -65t-36 -51.5
t-52.5 -34t-62 -12.5z" />
    <glyph glyph-name="fraction" unicode="&#x2044;" 
d="M188 210q-18 -9 -36 3.5t-30 33.5q-14 25 -14 52.5t23 39.5l949 481q19 9 38 -4t31 -36q13 -24 12 -50.5t-24 -38.5z" />
    <glyph glyph-name="guilsinglleft" unicode="&#x2039;" 
d="M786 266q6 -14 1 -28t-17.5 -26.5t-30.5 -23.5t-39 -18q-21 -8 -42.5 -11.5t-40.5 -2t-33 8.5t-20 21l-148 344q-11 26 9 51l270 344q10 13 26 18.5t34.5 4.5t37.5 -8t37 -18t32 -25.5t22 -30t8 -31.5t-11 -30l-211 -269z" />
    <glyph glyph-name="guilsinglright" unicode="&#x203a;" 
d="M495 835q-6 14 -1 28t17.5 26.5t30.5 23t39 18.5q21 7 42.5 11t40.5 2.5t33 -8.5t20 -21l148 -344q11 -26 -9 -51l-270 -344q-11 -14 -26.5 -19t-34 -4t-37.5 8t-37 18t-32 25.5t-22 30t-8 31.5t11 30l211 269z" />
    <glyph glyph-name="fi" unicode="&#xfb01;" 
d="M-8 -415q-57 0 -115.5 11t-109.5 36q-32 16 -38.5 44.5t19.5 89.5q13 31 28 48.5t30.5 24.5t30.5 6t30 -7q67 -26 123 -26q58 0 95 36.5t52 119.5l132 751h-113q-17 0 -28 4t-17 15t-6 31t6 52t13 52t16.5 31.5t22 15.5t29.5 4h113l6 33q31 172 129 266t272 94
q71 0 144 -13t150 -44q16 -6 27.5 -16t16.5 -25.5t2.5 -38t-14.5 -53.5q-11 -30 -24 -47.5t-26.5 -25.5t-28.5 -8t-30 5q-61 20 -112.5 29.5t-102.5 9.5q-62 0 -103.5 -37t-52.5 -109l-3 -20h467q34 0 46 -14.5t6 -48.5l-101 -575q-8 -43 6 -62t42 -19q26 0 54 5.5t55 14.5
q33 11 55.5 -4t32.5 -75t-2 -89t-49 -43q-48 -17 -100 -26.5t-101 -9.5q-67 0 -118 20.5t-83 60t-43 97.5t2 132l75 431h-280l-134 -764q-32 -183 -127.5 -276.5t-265.5 -93.5z" />
    <glyph glyph-name="fl" unicode="&#xfb02;" 
d="M1111 1312q34 0 46 -14.5t6 -48.5l-170 -963q-8 -43 6 -62t42 -19q26 0 54 5.5t55 14.5q33 11 55.5 -4t32.5 -75t-2 -89t-49 -43q-48 -17 -100 -26.5t-101 -9.5q-67 0 -118 20.5t-83 60t-43 97.5t2 132l142 809h-171q-62 0 -101 -32t-52 -104l-17 -97h131q17 0 28 -5
t16.5 -17t5.5 -33t-6 -53t-13 -52.5t-17 -32.5t-22.5 -17t-29.5 -5h-131l-122 -694q-32 -183 -127.5 -276.5t-265.5 -93.5q-57 0 -115.5 11t-109.5 36q-32 16 -38.5 44.5t19.5 89.5q13 31 28 48.5t30.5 24.5t30.5 6t30 -7q67 -26 123 -26q58 0 95.5 36.5t51.5 119.5l120 681
h-113q-17 0 -28 5t-16.5 17t-5.5 32.5t6 52.5t13 53t16.5 33t22.5 17t30 5h113l20 113q29 164 134 249.5t272 85.5h390z" />
    <glyph glyph-name="daggerdbl" unicode="&#x2021;" 
d="M308 373q-17 0 -28 4t-16.5 16t-5 34t6.5 58t13.5 58t17.5 34t22.5 16.5t29.5 4.5h188l32 181h-188q-17 0 -28 4t-16.5 16t-5 34t6.5 58t13.5 58t17 34t22.5 16.5t30 4.5h188l25 142q3 17 9.5 29t20 19.5t36 11t58.5 3.5t57 -3.5t32 -11t13 -19.5t-1 -29l-25 -142h189
q17 0 28 -4.5t16.5 -16.5t5 -34t-6.5 -58t-13.5 -58t-17.5 -34t-22.5 -16t-29.5 -4h-189l-32 -181h189q17 0 28 -4.5t16.5 -16.5t5 -34t-6.5 -58t-13.5 -58t-17.5 -34t-22.5 -16t-29.5 -4h-189l-25 -142q-3 -17 -9 -29t-19.5 -19.5t-36 -11t-58.5 -3.5t-57.5 3.5t-32.5 11
t-13 19.5t1 29l25 142h-188z" />
    <glyph glyph-name="periodcentered" unicode="&#xb7;" 
d="M621 378q-40 0 -73.5 14.5t-58 39.5t-38 58t-13.5 71q0 50 19.5 92.5t52.5 74t75.5 49t88.5 17.5q40 0 73.5 -14.5t57.5 -39t37.5 -58t13.5 -70.5q0 -50 -19.5 -92.5t-51.5 -74t-75 -49.5t-89 -18z" />
    <glyph glyph-name="quotesinglbase" unicode="&#x201a;" 
d="M488 -233q-22 -33 -48 -47t-68 -14q-50 0 -66 19.5t1 66.5l167 472q15 40 59 40h259q25 0 29.5 -18.5t-12.5 -44.5z" />
    <glyph glyph-name="quotedblbase" unicode="&#x201e;" 
d="M248 -233q-22 -33 -48 -47t-68 -14q-50 0 -66 19.5t1 66.5l167 472q15 40 59 40h259q25 0 29.5 -18.5t-12.5 -44.5zM728 -233q-22 -33 -48 -47t-68 -14q-50 0 -66 19.5t1 66.5l167 472q15 40 59 40h259q25 0 29.5 -18.5t-12.5 -44.5z" />
    <glyph glyph-name="perthousand" unicode="&#x2030;" 
d="M1195 -22q-54 0 -95 21t-68 56q-40 -36 -90 -56.5t-107 -20.5q-51 0 -93.5 18.5t-73.5 51t-48.5 75.5t-17.5 92q0 65 27 121.5t71 98.5t101.5 66.5t119.5 24.5q54 0 95 -21t68 -56q40 36 90 56.5t107 20.5q51 0 93.5 -18.5t73.5 -51t48.5 -75.5t17.5 -92q0 -65 -27 -122
t-71 -99t-102 -66t-119 -24zM1105 1083q28 23 51 18.5t57 -47.5q17 -22 25 -38t7.5 -29t-8.5 -24t-22 -23l-1024 -834q-14 -12 -26.5 -17t-25 -2.5t-26 14t-30.5 33.5q-33 44 -32 68t30 47zM375 661q-51 0 -93.5 18.5t-73.5 51t-48.5 75.5t-17.5 92q0 65 27 121.5t71 98.5
t101.5 66.5t119.5 24.5q51 0 93.5 -18.5t73.5 -51t48.5 -75.5t17.5 -92q0 -65 -27 -122t-71 -99t-102 -66t-119 -24zM863 165q19 0 38 8t33 22t23 32.5t9 38.5q0 31 -20.5 52t-52.5 21q-20 0 -39 -8.5t-33.5 -22.5t-23 -32.5t-8.5 -39.5q0 -30 21 -50.5t53 -20.5zM1223 165
q19 0 38 8t33 22t23 32.5t9 38.5q0 31 -20.5 52t-52.5 21q-20 0 -39 -8.5t-33.5 -22.5t-23 -32.5t-8.5 -39.5q0 -30 21 -50.5t53 -20.5zM403 848q19 0 38 8t33 22t23 32.5t9 38.5q0 31 -20.5 52t-52.5 21q-20 0 -39 -8.5t-33.5 -22.5t-23 -32.5t-8.5 -39.5q0 -30 21 -50.5
t53 -20.5z" />
    <glyph glyph-name="dotlessi" unicode="&#x131;" 
d="M306 719q-17 0 -28 4t-17 15t-6 31t6 52t13 52t16.5 31.5t22 15.5t29.5 4h380q34 0 46 -14.5t6 -48.5l-88 -500q-2 -14 -3.5 -27.5t-1.5 -25.5q0 -54 24.5 -78.5t72.5 -24.5q25 0 48 3.5t47.5 11t50.5 19t57 28.5q38 20 62 3t47 -66q10 -22 16 -40.5t4.5 -34.5t-11 -29.5
t-29.5 -25.5q-48 -27 -90 -45.5t-82 -29.5t-79.5 -16t-82.5 -5q-147 0 -227 77t-80 217q0 45 9 96l61 351h-193z" />
    <glyph glyph-name="circumflex" unicode="&#x2c6;" 
d="M456 1029q-39 -17 -64 30q-11 20 -11 37t19 31l323 261q24 18 58 18q16 0 30 -4t22 -14l251 -261q29 -31 2 -72q-13 -20 -31 -29t-41 3l-255 134z" />
    <glyph glyph-name="tilde" unicode="&#x2dc;" 
d="M907 1250q27 0 58.5 7t63.5 24q23 13 43 2t35 -39q14 -26 15 -51.5t-19 -41.5q-60 -50 -109 -71.5t-94 -21.5q-42 0 -80 11.5t-74 25.5t-71.5 25.5t-72.5 11.5q-29 0 -60.5 -7t-63.5 -24q-22 -12 -41.5 -1t-34.5 39q-14 26 -15.5 51t17.5 41q60 52 110 72.5t95 20.5
q41 0 79 -11.5t74 -25.5t72 -25.5t73 -11.5z" />
    <glyph glyph-name="macron" unicode="&#xaf;" 
d="M1049 1275q17 0 28 -4t17 -15.5t6 -31.5t-6 -52t-13 -52t-16.5 -31t-22 -15t-29.5 -4h-562q-17 0 -28 4t-17 15t-6 31t6 52t13 52t16.5 31.5t22 15.5t29.5 4h562z" />
    <glyph glyph-name="breve" unicode="&#x2d8;" 
d="M747 1041q-163 0 -252.5 68t-109.5 189q-4 20 10.5 40.5t43.5 33.5q32 14 58 13.5t36 -20.5q28 -59 81 -89.5t149 -30.5q48 0 85 8t67 23.5t54 38t46 50.5q16 18 41 19.5t55 -10.5q28 -11 43 -31.5t5 -44.5q-23 -58 -60 -105.5t-88 -81t-117 -52t-147 -18.5z" />
    <glyph glyph-name="dotaccent" unicode="&#x2d9;" 
d="M738 1046q-35 0 -64 12.5t-50 34.5t-33 50.5t-12 61.5q0 38 15.5 74t43 64.5t65 45.5t81.5 17q34 0 63 -12.5t50 -34t33 -50t12 -60.5q0 -39 -14.5 -75.5t-41.5 -65t-64.5 -45.5t-83.5 -17z" />
    <glyph glyph-name="ring" unicode="&#x2da;" 
d="M739 1033q-49 0 -90.5 18t-72 49t-48 72.5t-17.5 88.5q0 57 23 110.5t63 94.5t95 66t119 25q49 0 90.5 -18t72 -49t48 -73t17.5 -89q0 -54 -22 -107t-61.5 -94.5t-95 -67.5t-121.5 -26zM757 1192q25 0 47 10t38.5 27t26.5 38.5t10 45.5q0 36 -24 60.5t-62 24.5
q-26 0 -48 -10.5t-39 -27.5t-26.5 -39t-9.5 -44q0 -37 24.5 -61t62.5 -24z" />
    <glyph glyph-name="cedilla" unicode="&#xb8;" 
d="M618 28l-21 -121q49 1 86 -10t61 -32t36 -50.5t12 -64.5q0 -32 -11 -71t-37 -68q-71 -83 -257 -83q-72 0 -135.5 10.5t-112.5 30.5q-20 8 -19 31.5t15 53.5q13 29 31 47.5t38 10.5q36 -15 71.5 -24.5t85.5 -9.5q56 0 76 19.5t20 44.5q0 32 -34 39t-84 -2
q-14 -2 -25.5 6.5t-6.5 34.5l36 208h175z" />
    <glyph glyph-name="hungarumlaut" unicode="&#x2dd;" 
d="M571 1066q-18 -13 -50 -13q-35 0 -58.5 17.5t-23.5 40.5q0 17 12 29l198 210q16 17 41 25t54 8q32 0 57 -8.5t42 -21t26 -26.5t9 -26q0 -21 -19 -34zM971 1066q-18 -13 -50 -13q-35 0 -58.5 17.5t-23.5 40.5q0 17 12 29l198 210q16 17 41 25t54 8q32 0 57 -8.5t42 -21
t26 -26.5t9 -26q0 -21 -19 -34z" />
    <glyph glyph-name="ogonek" unicode="&#x2db;" 
d="M451 -472q-105 0 -163.5 45.5t-58.5 126.5q0 54 22.5 100t60.5 86.5t89.5 75.5t110.5 66h207q-50 -36 -94 -70.5t-76.5 -68t-51 -65t-18.5 -59.5q0 -34 20.5 -48.5t57.5 -14.5q29 0 59 4t60 9q43 8 52 -65q5 -38 -6 -58.5t-34 -27.5q-50 -16 -113.5 -26t-123.5 -10z" />
    <glyph glyph-name="caron" unicode="&#x2c7;" 
d="M1056 1384q39 17 64 -30q11 -20 10.5 -36.5t-18.5 -31.5l-323 -261q-24 -18 -58 -18t-52 18l-251 261q-29 31 -2 72q13 20 31 29t41 -3l255 -134z" />
    <glyph glyph-name="Lslash" unicode="&#x141;" 
d="M267 388l-144 -77q-16 -9 -28.5 -11.5t-23.5 3t-21.5 21t-22.5 42.5q-11 27 -15 46.5t-1 33t13 23t26 18.5l259 139l63 356h-146q-17 0 -28 4t-17 15t-6 31t6 52t13 52t16.5 31.5t22 15.5t29.5 4h614q17 0 28 -4t17 -15.5t6 -31.5t-6 -52t-13 -52t-16.5 -31t-22 -15
t-29.5 -4h-218l-37 -208l189 102q16 9 29 11.5t24 -3.5t21.5 -21.5t22.5 -42.5q11 -27 15 -46t0.5 -32.5t-13 -23t-25.5 -18.5l-305 -164l-57 -321h351l55 312q6 34 39 48.5t105 14.5q36 0 58 -3.5t33.5 -11t14.5 -19.5t0 -29l-81 -462q-6 -35 -23.5 -50t-52.5 -15h-932
q-17 0 -28.5 4t-17 15t-6 31t5.5 52t13 52t16.5 31.5t22.5 15.5t30 4h146z" />
    <glyph glyph-name="lslash" unicode="&#x142;" 
d="M305 1107q-17 0 -28 4t-17 15t-6 31t6 52t13 52t16.5 31.5t22 15.5t29.5 4h420q34 0 46 -14.5t6 -48.5l-68 -381l185 99q16 9 29 11.5t24 -3.5t21.5 -21.5t22.5 -42.5q11 -27 15 -46t0.5 -32.5t-13 -23t-25.5 -18.5l-301 -161l-47 -269q-2 -14 -3.5 -27.5t-1.5 -25.5
q0 -54 24.5 -78.5t72.5 -24.5q25 0 48 3.5t47.5 11t50.5 19t57 28.5q38 20 62 3t47 -66q10 -22 16 -40.5t4.5 -34.5t-11 -29.5t-29.5 -25.5q-48 -27 -90 -45.5t-82 -29.5t-79.5 -16t-82.5 -5q-147 0 -227 77t-80 217q0 45 9 96l20 114l-149 -80q-16 -9 -28.5 -11.5t-23.5 3
t-21.5 21t-22.5 42.5q-11 27 -15 46.5t-1 33t13 23t26 18.5l264 142l68 387h-233z" />
    <glyph glyph-name="Scaron" unicode="&#x160;" 
d="M326 41q-5 -34 -32 -48.5t-91 -14.5t-88.5 14.5t-18.5 48.5l59 334q6 34 30 48.5t73 14.5q35 0 53.5 -9t26.5 -31q35 -102 100 -154.5t167 -52.5q59 0 98.5 15.5t63.5 39t34 51.5t10 54q0 38 -22 62t-60 41q-41 19 -95.5 32t-112 28t-112.5 35.5t-97 54.5
q-40 32 -63.5 77.5t-23.5 111.5q0 68 23 137.5t71 126.5q61 73 152 112.5t200 39.5q81 0 148 -28.5t109 -76.5l8 42q7 34 33 48.5t90 14.5t88.5 -14.5t18.5 -48.5l-49 -274q-6 -34 -30 -48.5t-73 -14.5q-34 0 -51 8t-25 24q-33 72 -99 113.5t-166 41.5q-46 0 -80 -14.5
t-56 -36t-33 -47.5t-11 -49q0 -27 18 -44t50 -30q38 -15 90 -26t108.5 -24.5t112 -33t100.5 -52.5q48 -35 78.5 -89.5t30.5 -136.5q0 -72 -22.5 -148.5t-72.5 -137.5q-60 -72 -154 -110.5t-224 -38.5q-84 0 -155 28t-120 78zM1056 1654q39 17 64 -30q11 -20 10.5 -36.5
t-18.5 -31.5l-323 -261q-24 -18 -58 -18t-52 18l-251 261q-29 31 -2 72q13 20 31 29t41 -3l255 -134z" />
    <glyph glyph-name="scaron" unicode="&#x161;" 
d="M1023 1394q39 17 64 -30q11 -20 10.5 -36.5t-18.5 -31.5l-323 -261q-24 -18 -58 -18t-52 18l-251 261q-29 31 -2 72q13 20 31 29t41 -3l255 -134zM351 41q-5 -34 -37 -48.5t-96 -14.5t-88.5 14.5t-18.5 48.5l39 223q6 34 32 48.5t75 14.5q33 0 51.5 -7t26.5 -21
q21 -33 51 -56.5t66 -37.5t77 -20.5t84 -6.5q52 0 87.5 8.5t56.5 24.5q18 14 25 30.5t7 27.5q0 22 -19.5 35.5t-53.5 23.5q-38 10 -88.5 18t-105 18t-108 25.5t-97.5 41.5q-48 29 -78.5 74.5t-30.5 114.5q0 66 26.5 127.5t80.5 106.5q57 47 136 69.5t171 22.5
q81 0 143 -21.5t111 -56.5l3 15q7 34 33 48.5t90 14.5t88.5 -14.5t18.5 -48.5l-37 -211q-6 -34 -30 -48.5t-73 -14.5q-54 0 -69 21q-50 65 -123 90.5t-168 25.5q-38 0 -65.5 -8.5t-45.5 -22.5q-30 -24 -30 -55q0 -21 19.5 -33.5t51.5 -21.5q37 -10 88.5 -17t106.5 -16
t109.5 -23.5t98.5 -39.5q48 -28 78.5 -71.5t30.5 -112.5q0 -63 -23 -125t-72 -109q-58 -57 -148 -85t-210 -28q-78 0 -137 22t-108 54z" />
    <glyph glyph-name="Zcaron" unicode="&#x17d;" 
d="M827 215l40 222q5 34 37 48.5t96 14.5q32 0 52 -3.5t31 -11t14 -19.5t0 -29l-66 -372q-6 -35 -23.5 -50t-52.5 -15h-814q-17 0 -28.5 4t-17 15t-6 31t5.5 52q6 34 15 56.5t22 36.5l681 777h-324l-36 -202q-6 -34 -37.5 -48.5t-95.5 -14.5t-83.5 14.5t-13.5 48.5l62 352
q6 35 24 50t53 15h784q17 0 28 -4t17 -15.5t6 -31.5t-6 -52t-16 -54t-24 -38l-681 -777h357zM1086 1654q39 17 64 -30q11 -20 10.5 -36.5t-18.5 -31.5l-323 -261q-24 -18 -58 -18t-52 18l-251 261q-29 31 -2 72q13 20 31 29t41 -3l255 -134z" />
    <glyph glyph-name="zcaron" unicode="&#x17e;" 
d="M1099 924q17 0 28 -4t17 -15t6 -31t-6 -52q-5 -27 -15 -45t-31 -37l-587 -535h315l22 124q5 34 33.5 48.5t99.5 14.5q36 0 56.5 -3.5t30.5 -11t11.5 -19.5t-1.5 -29l-47 -264q-6 -35 -23.5 -50t-52.5 -15h-814q-17 0 -28.5 4t-17 15t-6 31t5.5 52q5 27 15.5 45t31.5 37
l587 535h-295l-20 -114q-3 -17 -11 -29t-23 -19.5t-39 -11t-60 -3.5t-56.5 3.5t-30.5 11t-11.5 19.5t1.5 29l45 254q6 35 23.5 50t52.5 15h794zM1036 1384q39 17 64 -30q11 -20 10.5 -36.5t-18.5 -31.5l-323 -261q-24 -18 -58 -18t-52 18l-251 261q-29 31 -2 72q13 20 31 29
t41 -3l255 -134z" />
    <glyph glyph-name="brokenbar" unicode="&#xa6;" 
d="M466 271q6 34 42.5 48.5t100.5 14.5t88.5 -14.5t18.5 -48.5l-110 -623q-6 -34 -42.5 -48.5t-100.5 -14.5t-88.5 14.5t-18.5 48.5zM643 1271q6 34 42.5 48.5t100.5 14.5t88.5 -14.5t18.5 -48.5l-110 -623q-6 -34 -42.5 -48.5t-100.5 -14.5t-88.5 14.5t-18.5 48.5z" />
    <glyph glyph-name="Eth" unicode="&#xd0;" 
d="M237 494h-117q-17 0 -28 4t-16.5 16t-5.5 34t6 58t13.5 58t17.5 34t22.5 16.5t29.5 4.5h117l47 263h-97q-17 0 -28 4t-17 15t-6 31t6 52t13 52t16.5 31.5t22 15.5t29.5 4h451q114 0 204 -32t152.5 -92.5t95.5 -147.5t33 -197q0 -60 -10.5 -128.5t-31.5 -137t-53 -133
t-76 -116.5q-85 -102 -205.5 -152.5t-277.5 -50.5h-491q-17 0 -28.5 4t-17 15t-6 31t5.5 52t13 52t16.5 31.5t22.5 15.5t30 4h97zM542 215q172 0 272 120q31 37 53 83.5t36.5 96.5t21.5 101t7 96q0 129 -64 194.5t-193 65.5h-104l-45 -253h135q17 0 28 -4.5t16.5 -16.5
t5 -34t-6.5 -58t-13 -58t-17 -34t-22.5 -16t-29.5 -4h-135l-49 -279h104z" />
    <glyph glyph-name="eth" unicode="&#xf0;" 
d="M582 1108q-17 11 -34 21l-34 20q-29 16 -24 46.5t50 81.5q24 27 43 43.5t34.5 23.5t29.5 5.5t29 -9.5q45 -25 85 -52t75 -57l166 81q16 8 28 9.5t21.5 -4.5t19 -20t20.5 -38q11 -23 15 -39.5t2 -28.5t-11.5 -21t-25.5 -17l-107 -52q83 -106 124 -228.5t41 -259.5
q0 -42 -4 -84.5t-12 -86.5q-20 -113 -68.5 -199.5t-121 -145t-167 -89t-206.5 -30.5q-100 0 -179 28.5t-134.5 79.5t-85 121t-29.5 152q0 53 13 111.5t40.5 114.5t70 107t102 89.5t136 61.5t172.5 23q113 0 196 -55q-23 51 -54.5 94.5t-67.5 81.5l-163 -79q-33 -16 -53 -6
t-42 58q-11 24 -14.5 41t0 29t13.5 20.5t27 16.5zM656 639q-70 0 -120 -24.5t-82.5 -62.5t-48 -85t-15.5 -92q0 -81 50 -125.5t140 -44.5q67 0 117 23t83 60.5t49.5 85t16.5 96.5q0 81 -50.5 125t-139.5 44z" />
    <glyph glyph-name="Yacute" unicode="&#xdd;" 
d="M626 1187q17 0 28 -4t17 -15.5t6 -31.5t-6 -52t-13 -52t-16.5 -31t-22 -15t-29.5 -4h-67l134 -292l239 292h-52q-17 0 -28 4t-17 15t-6 31t6 52t13 52t16.5 31.5t22 15.5t29.5 4h384q17 0 28 -4t17 -15.5t6 -31.5t-6 -52t-13 -52t-16.5 -31t-22 -15t-29.5 -4h-45
l-433 -522l-45 -255h206q17 0 28 -4t16.5 -15.5t5.5 -31.5t-6 -52t-12.5 -52t-16 -31t-22 -15t-29.5 -4h-642q-17 0 -28.5 4t-17 15t-6 31t5.5 52t13 52t16.5 31.5t22.5 15.5t30 4h186l46 262l-245 515h-50q-17 0 -28 4t-17 15t-6 31t6 52t13 52t16.5 31.5t22 15.5t29.5 4
h384zM989 1662q28 16 59 -3.5t61 -87.5q30 -69 26.5 -102.5t-29.5 -40.5l-480 -125q-24 -7 -42 4.5t-26 34.5q-8 22 -2.5 41.5t25.5 31.5z" />
    <glyph glyph-name="Thorn" unicode="&#xde;" 
d="M433 982h-147q-17 0 -28 4t-17 15t-6 31t6 52t13 52t16.5 31.5t22 15.5t29.5 4h584q17 0 28 -4t17 -15.5t6 -31.5t-6 -52t-13 -52t-16.5 -31t-22 -15t-29.5 -4h-187l-16 -86h140q82 0 141.5 -18.5t98.5 -52t57.5 -80t18.5 -102.5q0 -29 -4.5 -61t-15 -63.5t-26.5 -61.5
t-39 -54q-104 -112 -337 -112h-140l-15 -86h187q17 0 28 -4t16.5 -15.5t5.5 -31.5t-6 -52t-12.5 -52t-16 -31t-22 -15t-29.5 -4h-584q-17 0 -28.5 4t-17 15t-6 31t5.5 52t13 52t16.5 31.5t22.5 15.5t30 4h147zM706 496q94 0 130 39q14 15 21.5 37.5t7.5 44.5
q0 39 -30.5 56.5t-94.5 17.5h-109l-34 -195h109z" />
    <glyph glyph-name="thorn" unicode="&#xfe;" 
d="M322 1107h-87q-17 0 -28 4t-17 15t-6 31t6 52t13 52t16.5 31.5t22 15.5t29.5 4h274q34 0 46 -14.5t6 -48.5l-73 -414q60 54 129.5 82.5t142.5 28.5q86 0 154 -29.5t114.5 -81t71 -122.5t24.5 -154q0 -64 -14 -130t-42 -127t-70 -114.5t-99 -93.5t-128 -63t-156 -23
q-83 0 -146.5 35t-104.5 90l-57 -321h247q17 0 28 -4t17 -15.5t6 -31.5t-6 -52t-13 -52t-16.5 -31t-22 -15t-29.5 -4h-584q-17 0 -28 4t-16.5 15t-5.5 31t6 52q5 32 12 52t16.5 31.5t22 15.5t29.5 4h87zM726 719q-69 0 -121 -26.5t-86.5 -69t-52 -96t-17.5 -107.5
q0 -47 14.5 -81.5t40.5 -57.5t61 -34.5t76 -11.5q65 0 112.5 28.5t78.5 73t46 99t15 106.5q0 87 -44.5 132t-122.5 45z" />
    <glyph glyph-name="onesuperior" unicode="&#xb9;" 
d="M667 1108l-158 -50q-29 -9 -48.5 1t-32.5 58q-22 81 44 102l345 110q17 5 32 5t25.5 -6t15.5 -19t1 -34l-109 -622h191q28 0 36.5 -20t0.5 -65t-23.5 -65t-43.5 -20h-564q-29 0 -36.5 20t0.5 65t23 65t43 20h178z" />
    <glyph glyph-name="twosuperior" unicode="&#xb2;" 
d="M607 1047q-2 -12 -7.5 -21t-16 -15t-27.5 -9t-43 -3q-53 0 -74.5 12t-16.5 36l32 178q4 29 39 45q72 33 150 48.5t153 15.5q64 0 114 -18t84 -50t51.5 -76t17.5 -96q0 -34 -8 -64t-25 -62q-24 -45 -73.5 -86t-117.5 -88l-204 -141h218l8 46q2 12 7 21t15.5 15t28 9
t43.5 3q53 0 74 -12t17 -36l-30 -170q-5 -25 -17 -35.5t-37 -10.5h-595q-24 0 -34.5 23.5t-1.5 76.5q5 30 17.5 50.5t28.5 31.5l347 243q28 20 48 35.5t34.5 28t23.5 23.5t15 22q14 25 14 55q0 39 -25.5 64t-74.5 25q-33 0 -68.5 -6.5t-67.5 -19.5z" />
    <glyph glyph-name="threesuperior" unicode="&#xb3;" 
d="M590 1077q-2 -12 -7 -21t-15.5 -15t-28 -9t-43.5 -3q-53 0 -74 12t-17 36l28 158q3 15 12.5 27t26.5 18q69 26 144.5 40t150.5 14q73 0 128 -16.5t92.5 -45.5t56.5 -70t19 -90q0 -78 -40 -131t-116 -84q50 -23 76.5 -63.5t26.5 -94.5q0 -21 -4.5 -45t-13.5 -48t-22 -46.5
t-31 -40.5q-91 -94 -305 -94q-37 0 -75.5 4t-75 11t-69.5 17t-59 22q-49 21 -18 104q15 41 37 58t39 9q48 -21 107 -36.5t116 -15.5q51 0 85 10t53 28q14 13 20.5 31.5t6.5 36.5q0 67 -93 67h-93q-23 0 -32.5 19t-0.5 67q8 48 24 67t39 19h74q82 0 117 41q10 12 17 29t7 35
q0 34 -29.5 53.5t-89.5 19.5q-65 0 -140 -26z" />
    <glyph glyph-name="onehalf" unicode="&#xbd;" 
d="M208 265q-18 -9 -36 3.5t-30 33.5q-14 25 -14 52.5t23 39.5l949 481q19 9 38 -4t31 -36q13 -24 12 -50.5t-24 -38.5zM367.787 1158.4l-131.77 -41.6992q-24.1855 -7.50586 -40.4482 0.833984t-27.1045 48.3711q-18.3477 67.5527 36.6953 85.0664l287.725 91.7383
q14.1777 4.16992 26.6875 4.16992t21.2666 -5.00391t12.9268 -15.8457t0.833984 -28.3555l-90.9043 -518.738h159.291q23.3516 0 30.4404 -16.6797t0.416992 -54.209t-19.5986 -54.209t-36.2783 -16.6797h-470.367q-24.1855 0 -30.4404 16.6797t0.416992 54.209
t19.1816 54.209t35.8613 16.6797h148.449zM762.262 356.945q-1.66797 -10.0078 -6.25488 -17.5137t-13.3438 -12.5098t-22.9346 -7.50586t-35.8613 -2.50195q-44.2012 0 -62.1318 10.0078t-13.7607 30.0234l26.6875 148.449q3.33594 24.1855 32.5254 37.5293
q60.0469 27.5215 125.098 40.4482t127.6 12.9268q53.375 0 95.0742 -15.0117t70.0547 -41.6992t42.9502 -63.3828t14.5947 -80.0625q0 -28.3555 -6.67188 -53.375t-20.8496 -51.707q-20.0156 -37.5293 -61.2979 -71.7227t-97.9932 -73.3906l-170.133 -117.592h181.809
l6.67188 38.3633q1.66797 10.0078 5.83789 17.5137t12.9268 12.5098t23.3516 7.50586t36.2783 2.50195q44.2012 0 61.7148 -10.0078t14.1777 -30.0234l-25.0195 -141.777q-4.16992 -20.8496 -14.1777 -29.6064t-30.8574 -8.75684h-496.221q-20.0156 0 -28.7725 19.5986
t-1.25098 63.7998q4.16992 25.0195 14.5947 42.1162t23.7686 26.2705l289.393 202.658q23.3516 16.6797 40.0312 29.6064t28.7725 23.3516t19.5986 19.5986t12.5098 18.3477q11.6758 20.8496 11.6758 45.8691q0 32.5254 -21.2666 53.375t-62.1318 20.8496
q-27.5215 0 -57.1279 -5.4209t-56.2939 -16.2627z" />
    <glyph glyph-name="onequarter" unicode="&#xbc;" 
d="M208 220q-18 -9 -36 3.5t-30 33.5q-14 25 -14 52.5t23 39.5l949 481q19 9 38 -4t31 -36q13 -24 12 -50.5t-24 -38.5zM920.024 387.611l-201.626 -212.425h149.949zM1008.98 33.0059l-21.1787 -120.176q-4.23535 -19.4658 -20.332 -30.0449
q-16.0967 -10.5781 -60.9961 -10.5781q-49.9834 0 -69.0439 10.5781q-19.0615 10.5791 -14.8262 30.0449l21.1797 120.176h-291.426q-10.166 0 -19.0615 8.04004t-15.249 21.1582t-9.74219 29.6211t-3.38867 34.2754q0 16.0801 5.92969 28.3516
q5.93066 12.2715 18.6387 24.9658l381.225 383.381q33.8867 36.3906 105.896 36.3906q45.7471 0 66.9258 -12.6943q21.1797 -12.6943 16.9434 -33.0059l-66.9258 -378.303h75.3984q23.7207 0 30.498 -16.9258q6.77734 -16.9268 0.84668 -54.1641
q-6.77734 -38.084 -19.9082 -54.5869q-13.1318 -16.5039 -36.8525 -16.5039h-74.5508zM367.787 1158.4l-131.77 -41.6992q-24.1855 -7.50586 -40.4482 0.833984t-27.1045 48.3711q-18.3477 67.5527 36.6953 85.0664l287.725 91.7383q14.1777 4.16992 26.6875 4.16992
t21.2666 -5.00391t12.9268 -15.8457t0.833984 -28.3555l-90.9043 -518.738h159.291q23.3516 0 30.4404 -16.6797t0.416992 -54.209t-19.5986 -54.209t-36.2783 -16.6797h-470.367q-24.1855 0 -30.4404 16.6797t0.416992 54.209t19.1816 54.209t35.8613 16.6797h148.449z" />
    <glyph glyph-name="threequarters" unicode="&#xbe;" 
d="M208 239q-18 -9 -36 3.5t-30 33.5q-14 25 -14 52.5t23 39.5l949 481q19 9 38 -4t31 -36q13 -24 12 -50.5t-24 -38.5zM320.32 1132.96q-1.66797 -10.0107 -5.83887 -17.5195t-12.9297 -12.5146t-23.3564 -7.50879q-14.5986 -2.50293 -36.2871 -2.50293
q-44.2109 0 -61.7285 10.0117q-17.5166 10.0117 -14.1807 30.0342l23.3574 131.818q2.50195 12.5137 10.4268 22.5254t22.1055 15.0176q57.5576 21.6914 120.537 33.3711q62.9795 11.6807 125.542 11.6807q60.8945 0 106.773 -13.7656q45.8799 -13.7666 77.1611 -37.9609
t47.1299 -58.4004q15.8496 -34.2051 15.8496 -75.0859q0 -65.0742 -33.3672 -109.292q-33.3662 -44.2168 -96.7637 -70.0801q41.709 -19.1885 63.8145 -52.9775q22.1055 -33.7881 22.1055 -78.8398q0 -17.5205 -3.75391 -37.543q-3.75391 -20.0234 -11.2617 -40.0459
q-7.50684 -20.0234 -18.3516 -38.7949q-10.8438 -18.7715 -25.8594 -33.7891q-75.9092 -78.4229 -254.421 -78.4229q-30.8643 0 -62.9795 3.33691q-32.1152 3.33789 -62.5625 9.17773t-57.9746 14.1826t-49.2158 18.3545q-40.874 17.5205 -15.0146 86.7656
q12.5117 34.2061 30.8643 48.3896q18.3516 14.1826 32.5322 7.50781q40.04 -17.5195 89.2559 -30.4512t96.7637 -12.9316q42.542 0 70.9043 8.34277q28.3613 8.34277 44.21 23.3604q11.6787 10.8457 17.1006 26.2803q5.42285 15.4346 5.42285 30.4512
q0 55.8975 -77.5781 55.8975h-77.5771q-19.1865 0 -27.1104 15.8516q-7.9248 15.8516 -0.417969 55.8975q6.67383 40.0459 20.0205 55.8975t32.5322 15.8516h61.7285q68.4023 0 97.5977 34.2061q8.3418 10.0117 14.1807 24.1943q5.83984 14.1826 5.83984 29.2002
q0 28.3652 -24.6084 44.6348q-24.6074 16.2686 -74.6582 16.2686q-54.2207 0 -116.783 -21.6924zM920.024 387.611l-201.626 -212.425h149.949zM1008.98 33.0059l-21.1787 -120.176q-4.23535 -19.4658 -20.332 -30.0449q-16.0967 -10.5781 -60.9961 -10.5781
q-49.9834 0 -69.0439 10.5781q-19.0615 10.5791 -14.8262 30.0449l21.1797 120.176h-291.426q-10.166 0 -19.0615 8.04004t-15.249 21.1582t-9.74219 29.6211t-3.38867 34.2754q0 16.0801 5.92969 28.3516q5.93066 12.2715 18.6387 24.9658l381.225 383.381
q33.8867 36.3906 105.896 36.3906q45.7471 0 66.9258 -12.6943q21.1797 -12.6943 16.9434 -33.0059l-66.9258 -378.303h75.3984q23.7207 0 30.498 -16.9258q6.77734 -16.9268 0.84668 -54.1641q-6.77734 -38.084 -19.9082 -54.5869q-13.1318 -16.5039 -36.8525 -16.5039
h-74.5508z" />
    <glyph glyph-name="Euro" unicode="&#x20ac;" 
d="M279 850q75 175 200 267t288 92q88 0 148 -36t89 -94l12 67q6 34 37.5 48.5t95.5 14.5t83.5 -14.5t13.5 -48.5l-68 -384q-6 -34 -38.5 -48.5t-104.5 -14.5q-36 0 -58 3.5t-34 11t-15 19.5t0 29q9 48 2.5 88.5t-26.5 70t-54.5 45.5t-82.5 16q-72 0 -123.5 -33.5
t-88.5 -98.5h189q34 0 45.5 -18.5t1.5 -74.5q-5 -28 -11.5 -46t-16 -28t-22 -14t-29.5 -4h-223q-8 -35 -14 -70.5t-11 -72.5h223q34 0 45 -18.5t1 -74.5q-5 -28 -11.5 -46t-16 -28t-22 -14t-29.5 -4h-185q16 -65 57.5 -98.5t113.5 -33.5q85 0 166.5 26.5t176.5 71.5
q33 15 57.5 -2.5t41.5 -75.5q18 -60 8 -92.5t-45 -48.5q-114 -52 -224.5 -79t-210.5 -27q-85 0 -154 25t-121 71.5t-85 113t-46 149.5h-102q-34 0 -45.5 18t-1.5 74t28 74.5t52 18.5h64q3 35 8.5 70.5t13.5 72.5h-61q-34 0 -45.5 18t-1.5 74q5 28 11.5 46t16 28.5t22 14.5
t29.5 4h87z" />
    <glyph glyph-name="quotedblleft" unicode="&#x201c;" 
d="M512 1186q22 33 48 47t68 14q50 0 66 -19.5t-1 -66.5l-167 -472q-15 -40 -59 -40h-259q-25 0 -29.5 18.5t12.5 44.5zM992 1186q22 33 48 47t68 14q50 0 66 -19.5t-1 -66.5l-167 -472q-15 -40 -59 -40h-259q-25 0 -29.5 18.5t12.5 44.5z" />
    <glyph glyph-name="quotedblright" unicode="&#x201d;" 
d="M408 672q-23 -33 -49 -47t-68 -14q-50 0 -66 19.5t1 66.5l168 472q7 20 22.5 30t36.5 10h259q25 0 29.5 -18.5t-12.5 -44.5zM888 672q-23 -33 -49 -47t-68 -14q-50 0 -66 19.5t1 66.5l168 472q7 20 22.5 30t36.5 10h259q25 0 29.5 -18.5t-12.5 -44.5z" />
    <glyph glyph-name="quoteleft" unicode="&#x2018;" 
d="M752 1186q22 33 48 47t68 14q50 0 66 -19.5t-1 -66.5l-167 -472q-15 -40 -59 -40h-259q-25 0 -29.5 18.5t12.5 44.5z" />
    <glyph glyph-name="quoteright" unicode="&#x2019;" 
d="M648 672q-23 -33 -49 -47t-68 -14q-50 0 -66 19.5t1 66.5l168 472q7 20 22.5 30t36.5 10h259q25 0 29.5 -18.5t-12.5 -44.5z" />
    <glyph glyph-name="y" unicode="y" 
d="M159 719q-17 0 -28 4t-17 15t-6 31t6 52t13 52t16.5 31.5t22 15.5t29.5 4h394q17 0 28 -4t17 -15.5t6 -31.5t-6 -52t-13 -52t-16.5 -31t-22 -15t-29.5 -4h-60l107 -380l241 380h-54q-17 0 -28 4t-17 15t-6 31t6 52t13 52t16.5 31.5t22 15.5t29.5 4h394q17 0 28 -4
t17 -15.5t6 -31.5t-6 -52t-13 -52t-16.5 -31t-22 -15t-29.5 -4h-59l-520 -776q-70 -105 -129.5 -172.5t-121.5 -107.5t-132.5 -57t-162.5 -20q-30 -1 -47 20t-17 83q0 34 5 57.5t13.5 37.5t20 20.5t25.5 7.5q60 3 105 19t86 50t83 87.5t96 131.5l-192 619h-75z" />
    <glyph glyph-name="emdash" unicode="&#x2014;" 
d="M1247 695q17 0 28 -4.5t16.5 -16.5t5 -34t-6.5 -58t-13.5 -58t-17.5 -34t-22.5 -16t-29.5 -4h-1162q-17 0 -28 4t-16.5 16t-5 34t6.5 58t13.5 58t17.5 34t22.5 16.5t29.5 4.5h1162z" />
    <glyph glyph-name="t" unicode="t" 
d="M685 864h371q17 0 28 -5t16.5 -17t5.5 -33t-6 -53t-13 -52.5t-17 -32.5t-22.5 -17t-29.5 -5h-371l-49 -278q-3 -15 -4 -29t-1 -26q0 -58 27 -84.5t78 -26.5q25 0 56.5 6.5t66 17.5t70.5 25t71 29q17 7 31 7.5t26.5 -8t23.5 -26t22 -47.5q20 -56 11 -83t-45 -44
q-100 -46 -194 -75t-181 -29q-152 0 -234.5 76t-82.5 219q0 44 9 95l49 281h-193q-17 0 -28 5t-16.5 17t-5.5 32.5t6 52.5t13 53t16.5 33t22.5 17t30 5h193l50 282q6 34 38.5 48.5t104.5 14.5q36 0 58 -3.5t34 -11t15 -19.5t0 -29z" />
    <glyph glyph-name="k" unicode="k" 
d="M780 739h-43q-34 0 -45.5 18t-1.5 74q5 28 11.5 46t16 28.5t22 14.5t29.5 4h414q34 0 45.5 -18.5t1.5 -74.5q-5 -28 -11.5 -46t-16 -28t-22 -14t-29.5 -4h-30l-430 -290q38 8 73.5 3.5t67.5 -24.5q31 -20 50 -46t32.5 -53.5t25 -53t28.5 -43.5q24 -27 65 -27h29
q17 0 28 -4t16.5 -15.5t5.5 -31.5t-6 -52t-12.5 -52t-16 -31t-22 -15t-29.5 -4h-117q-33 0 -61.5 11t-54.5 36t-43 56.5t-32 63t-31.5 60t-41.5 49.5q-18 14 -40.5 21t-46.5 7q-27 0 -55.5 -8.5t-52.5 -25.5l-7 -5l-35 -202q-6 -34 -23 -48.5t-51 -14.5h-124q-34 0 -46 14.5
t-6 48.5l184 1044h-97q-17 0 -28 4t-17 15t-6 31t6 52t13 52t16.5 31.5t22 15.5t29.5 4h284q34 0 46 -14.5t6 -48.5l-126 -714z" />
    <glyph glyph-name="ellipsis" unicode="&#x2026;" 
d="M147 -22q-27 0 -50 10t-39.5 27t-26 39.5t-9.5 48.5q0 34 13.5 63t35.5 50.5t51 33.5t61 12q27 0 50 -10t39.5 -26.5t25.5 -39.5t9 -48q0 -34 -13 -63.5t-35 -51t-51 -33.5t-61 -12zM547 -22q-27 0 -50 10t-39.5 27t-26 39.5t-9.5 48.5q0 34 13.5 63t35.5 50.5t51 33.5
t61 12q27 0 50 -10t39.5 -26.5t25.5 -39.5t9 -48q0 -34 -13 -63.5t-35 -51t-51 -33.5t-61 -12zM947 -22q-27 0 -50 10t-39.5 27t-26 39.5t-9.5 48.5q0 34 13.5 63t35.5 50.5t51 33.5t61 12q27 0 50 -10t39.5 -26.5t25.5 -39.5t9 -48q0 -34 -13 -63.5t-35 -51t-51 -33.5
t-61 -12z" />
    <glyph glyph-name="edieresis" unicode="&#xeb;" 
d="M385 329q15 -62 62 -93t123 -31q81 0 170.5 12.5t194.5 42.5q17 5 30 4t23 -10.5t17.5 -28.5t13.5 -49q6 -31 6.5 -52.5t-5.5 -36t-18.5 -23.5t-31.5 -15q-106 -33 -219 -52t-221 -19q-98 0 -174 30.5t-127.5 84t-78.5 127t-27 159.5q0 52 9 104.5t27 103t45.5 97.5
t64.5 88q76 83 184.5 128.5t246.5 45.5q88 0 160 -22.5t123 -63.5t78.5 -97.5t27.5 -125.5q0 -38 -10 -81.5t-35 -80.5q-29 -43 -80 -68t-126 -33zM670 719q-103 0 -172 -50t-100 -153l349 35q45 5 61.5 26t16.5 47q0 17 -9 34t-28 30.5t-48.5 22t-69.5 8.5zM355 1202
q6 31 21 57.5t37.5 45.5t51 29.5t59.5 10.5q32 0 58.5 -13t44 -34.5t25 -50t1.5 -59.5t-21 -57.5t-37.5 -45.5t-50.5 -29.5t-59 -10.5q-32 0 -58.5 13t-44.5 34.5t-25.5 50t-1.5 59.5zM815 1202q6 31 21 57.5t37.5 45.5t51 29.5t59.5 10.5q32 0 58.5 -13t44 -34.5t25 -50
t1.5 -59.5t-21 -57.5t-37.5 -45.5t-50.5 -29.5t-59 -10.5q-32 0 -58.5 13t-44.5 34.5t-25.5 50t-1.5 59.5z" />
    <glyph glyph-name="adieresis" unicode="&#xe4;" 
d="M785 127q-74 -77 -158.5 -113t-172.5 -36t-157 31.5t-116.5 85.5t-72.5 127.5t-25 157.5q0 63 14 129.5t42 129.5t70 118.5t99 97.5t128 66.5t158 24.5q97 0 171.5 -45t112.5 -124l16 94q6 34 36 48.5t87 14.5q56 0 74.5 -14.5t12.5 -48.5l-102 -581q-8 -40 5.5 -62.5
t45.5 -22.5h29q17 0 28 -4t16.5 -15.5t5.5 -31.5t-6 -52t-12.5 -52t-16 -31t-22 -15t-29.5 -4h-95q-30 0 -57.5 6.5t-49.5 21.5t-37.5 39.5t-21.5 59.5zM514 205q67 0 119.5 29t88.5 74.5t54.5 102t18.5 111.5q0 48 -14.5 85t-40 61.5t-60.5 37.5t-76 13q-68 0 -116.5 -33
t-79.5 -82.5t-45 -107t-14 -105.5q0 -87 43 -136.5t122 -49.5zM355 1202q6 31 21 57.5t37.5 45.5t51 29.5t59.5 10.5q32 0 58.5 -13t44 -34.5t25 -50t1.5 -59.5t-21 -57.5t-37.5 -45.5t-50.5 -29.5t-59 -10.5q-32 0 -58.5 13t-44.5 34.5t-25.5 50t-1.5 59.5zM815 1202
q6 31 21 57.5t37.5 45.5t51 29.5t59.5 10.5q32 0 58.5 -13t44 -34.5t25 -50t1.5 -59.5t-21 -57.5t-37.5 -45.5t-50.5 -29.5t-59 -10.5q-32 0 -58.5 13t-44.5 34.5t-25.5 50t-1.5 59.5z" />
    <glyph glyph-name="odieresis" unicode="&#xf6;" 
d="M550 -22q-103 0 -184 31t-137.5 86t-86 130t-29.5 163q0 65 15.5 132t47.5 129t80.5 116t113.5 94.5t147.5 63.5t182.5 23q102 0 183 -31t137.5 -86t86 -130t29.5 -163q0 -63 -15 -128.5t-46 -127.5t-78.5 -117t-112.5 -96t-148.5 -65t-185.5 -24zM670 719
q-69 0 -122.5 -27t-91 -71.5t-57 -101.5t-19.5 -118q0 -91 53 -143.5t147 -52.5q68 0 122 26.5t91 71t56.5 101.5t19.5 118q0 91 -52.5 144t-146.5 53zM355 1202q6 31 21 57.5t37.5 45.5t51 29.5t59.5 10.5q32 0 58.5 -13t44 -34.5t25 -50t1.5 -59.5t-21 -57.5t-37.5 -45.5
t-50.5 -29.5t-59 -10.5q-32 0 -58.5 13t-44.5 34.5t-25.5 50t-1.5 59.5zM815 1202q6 31 21 57.5t37.5 45.5t51 29.5t59.5 10.5q32 0 58.5 -13t44 -34.5t25 -50t1.5 -59.5t-21 -57.5t-37.5 -45.5t-50.5 -29.5t-59 -10.5q-32 0 -58.5 13t-44.5 34.5t-25.5 50t-1.5 59.5z" />
    <glyph glyph-name="udieresis" unicode="&#xfc;" 
d="M788 208q-88 -122 -177 -176t-183 -54q-60 0 -108 20t-81 55.5t-51 85.5t-18 110q0 18 1.5 36.5t5.5 38.5l69 395h-77q-17 0 -28 4t-17 15.5t-6 31.5t6 52t13 52t16.5 31t22 15t29.5 4h264q34 0 46 -14.5t6 -48.5l-87 -498q-6 -32 -6 -58q0 -48 21.5 -74t73.5 -26
q45 0 92 33t87.5 87t71 122t42.5 139l22 133h-107q-17 0 -28 4t-17 15.5t-6 31.5t6 52t13 52t16.5 31t22 15t29.5 4h294q34 0 46 -14.5t6 -48.5l-115 -656h77q17 0 28 -4t17 -15t6 -31t-6 -52t-13 -52t-16.5 -31.5t-22 -15.5t-29.5 -4h-224q-34 0 -46 14.5t-6 48.5z
M325 1202q6 31 21 57.5t37.5 45.5t51 29.5t59.5 10.5q32 0 58.5 -13t44 -34.5t25 -50t1.5 -59.5t-21 -57.5t-37.5 -45.5t-50.5 -29.5t-59 -10.5q-32 0 -58.5 13t-44.5 34.5t-25.5 50t-1.5 59.5zM785 1202q6 31 21 57.5t37.5 45.5t51 29.5t59.5 10.5q32 0 58.5 -13t44 -34.5
t25 -50t1.5 -59.5t-21 -57.5t-37.5 -45.5t-50.5 -29.5t-59 -10.5q-32 0 -58.5 13t-44.5 34.5t-25.5 50t-1.5 59.5z" />
    <glyph glyph-name="Odieresis" unicode="&#xd6;" 
d="M580 205q81 0 144.5 34t110.5 99q27 38 47.5 85t34 97.5t20.5 101.5t7 98q0 127 -56 194.5t-171 67.5q-81 0 -144.5 -34t-110.5 -99q-27 -38 -47.5 -85t-34 -97.5t-20.5 -102t-7 -97.5q0 -127 56 -194.5t171 -67.5zM560 -22q-108 0 -195 35t-148.5 99t-95 155t-33.5 204
q0 59 9.5 123t28 127t46 123t63.5 112q87 124 214.5 188.5t287.5 64.5q108 0 195 -35t148.5 -99t95 -155.5t33.5 -203.5q0 -59 -9.5 -123t-28 -127t-46 -123t-63.5 -112q-87 -124 -214.5 -188.5t-287.5 -64.5zM415 1472q6 31 21 57.5t37.5 45.5t51 29.5t59.5 10.5
q32 0 58.5 -13t44 -34.5t25 -50t1.5 -59.5t-21 -57.5t-37.5 -45.5t-50.5 -29.5t-59 -10.5q-32 0 -58.5 13t-44.5 34.5t-25.5 50t-1.5 59.5zM875 1472q6 31 21 57.5t37.5 45.5t51 29.5t59.5 10.5q32 0 58.5 -13t44 -34.5t25 -50t1.5 -59.5t-21 -57.5t-37.5 -45.5t-50.5 -29.5
t-59 -10.5q-32 0 -58.5 13t-44.5 34.5t-25.5 50t-1.5 59.5z" />
    <glyph glyph-name="Udieresis" unicode="&#xdc;" 
d="M216 982q-17 0 -28 4t-17 15t-6 31t6 52t13 52t16.5 31.5t22 15.5t29.5 4h374q17 0 28 -4t17 -15.5t6 -31.5t-6 -52t-13 -52t-16.5 -31t-22 -15t-29.5 -4h-77l-97 -549q-6 -35 -6 -63q0 -86 46.5 -125.5t123.5 -39.5q45 0 84.5 13t71.5 41t54.5 71t33.5 103l97 549h-77
q-17 0 -28 4t-17 15t-6 31t6 52t13 52t16.5 31.5t22 15.5t29.5 4h374q17 0 28 -4t17 -15.5t6 -31.5t-6 -52t-13 -52t-16.5 -31t-22 -15t-29.5 -4h-47l-103 -579q-38 -211 -167.5 -318t-340.5 -107q-93 0 -167.5 24.5t-127 71t-80.5 113.5t-28 151q0 45 9 95l97 549h-47z
M405 1472q6 31 21 57.5t37.5 45.5t51 29.5t59.5 10.5q32 0 58.5 -13t44 -34.5t25 -50t1.5 -59.5t-21 -57.5t-37.5 -45.5t-50.5 -29.5t-59 -10.5q-32 0 -58.5 13t-44.5 34.5t-25.5 50t-1.5 59.5zM865 1472q6 31 21 57.5t37.5 45.5t51 29.5t59.5 10.5q32 0 58.5 -13t44 -34.5
t25 -50t1.5 -59.5t-21 -57.5t-37.5 -45.5t-50.5 -29.5t-59 -10.5q-32 0 -58.5 13t-44.5 34.5t-25.5 50t-1.5 59.5z" />
    <glyph glyph-name="Adieresis" unicode="&#xc4;" 
d="M489 982h-163q-17 0 -28 4t-17 15.5t-6 31.5t6 52t13 52t16.5 31t22 15t29.5 4h470q40 0 62 -15t27 -50l129 -917h91q17 0 28 -4t17 -15t6 -31t-6 -52t-13 -52t-16.5 -31.5t-22 -15.5t-29.5 -4h-424q-17 0 -28 4t-17 15.5t-6 31.5t6 52t13 52t16.5 31t22 15t29.5 4h90
l-20 145h-364l-70 -145h70q17 0 28 -4t17 -15t6 -31t-6 -52t-13 -52t-16.5 -31.5t-22 -15.5t-29.5 -4h-404q-17 0 -28 4t-16.5 15.5t-5.5 31.5t5 52q6 32 13 52t16.5 31t22 15t29.5 4h80zM766 555l-44 427h-6l-199 -427h249zM375 1472q6 31 21 57.5t37.5 45.5t51 29.5
t59.5 10.5q32 0 58.5 -13t44 -34.5t25 -50t1.5 -59.5t-21 -57.5t-37.5 -45.5t-50.5 -29.5t-59 -10.5q-32 0 -58.5 13t-44.5 34.5t-25.5 50t-1.5 59.5zM835 1472q6 31 21 57.5t37.5 45.5t51 29.5t59.5 10.5q32 0 58.5 -13t44 -34.5t25 -50t1.5 -59.5t-21 -57.5t-37.5 -45.5
t-50.5 -29.5t-59 -10.5q-32 0 -58.5 13t-44.5 34.5t-25.5 50t-1.5 59.5z" />
    <glyph glyph-name="ydieresis" unicode="&#xff;" 
d="M159 719q-17 0 -28 4t-17 15t-6 31t6 52t13 52t16.5 31.5t22 15.5t29.5 4h394q17 0 28 -4t17 -15.5t6 -31.5t-6 -52t-13 -52t-16.5 -31t-22 -15t-29.5 -4h-60l107 -380l241 380h-54q-17 0 -28 4t-17 15t-6 31t6 52t13 52t16.5 31.5t22 15.5t29.5 4h394q17 0 28 -4
t17 -15.5t6 -31.5t-6 -52t-13 -52t-16.5 -31t-22 -15t-29.5 -4h-59l-520 -776q-70 -105 -129.5 -172.5t-121.5 -107.5t-132.5 -57t-162.5 -20q-30 -1 -47 20t-17 83q0 34 5 57.5t13.5 37.5t20 20.5t25.5 7.5q60 3 105 19t86 50t83 87.5t96 131.5l-192 619h-75zM355 1202
q6 31 21 57.5t37.5 45.5t51 29.5t59.5 10.5q32 0 58.5 -13t44 -34.5t25 -50t1.5 -59.5t-21 -57.5t-37.5 -45.5t-50.5 -29.5t-59 -10.5q-32 0 -58.5 13t-44.5 34.5t-25.5 50t-1.5 59.5zM815 1202q6 31 21 57.5t37.5 45.5t51 29.5t59.5 10.5q32 0 58.5 -13t44 -34.5t25 -50
t1.5 -59.5t-21 -57.5t-37.5 -45.5t-50.5 -29.5t-59 -10.5q-32 0 -58.5 13t-44.5 34.5t-25.5 50t-1.5 59.5z" />
    <glyph glyph-name="Ydieresis" unicode="&#x178;" 
d="M626 1187q17 0 28 -4t17 -15.5t6 -31.5t-6 -52t-13 -52t-16.5 -31t-22 -15t-29.5 -4h-67l134 -292l239 292h-52q-17 0 -28 4t-17 15t-6 31t6 52t13 52t16.5 31.5t22 15.5t29.5 4h384q17 0 28 -4t17 -15.5t6 -31.5t-6 -52t-13 -52t-16.5 -31t-22 -15t-29.5 -4h-45
l-433 -522l-45 -255h206q17 0 28 -4t16.5 -15.5t5.5 -31.5t-6 -52t-12.5 -52t-16 -31t-22 -15t-29.5 -4h-642q-17 0 -28.5 4t-17 15t-6 31t5.5 52t13 52t16.5 31.5t22.5 15.5t30 4h186l46 262l-245 515h-50q-17 0 -28 4t-17 15t-6 31t6 52t13 52t16.5 31.5t22 15.5t29.5 4
h384zM405 1472q6 31 21 57.5t37.5 45.5t51 29.5t59.5 10.5q32 0 58.5 -13t44 -34.5t25 -50t1.5 -59.5t-21 -57.5t-37.5 -45.5t-50.5 -29.5t-59 -10.5q-32 0 -58.5 13t-44.5 34.5t-25.5 50t-1.5 59.5zM865 1472q6 31 21 57.5t37.5 45.5t51 29.5t59.5 10.5q32 0 58.5 -13
t44 -34.5t25 -50t1.5 -59.5t-21 -57.5t-37.5 -45.5t-50.5 -29.5t-59 -10.5q-32 0 -58.5 13t-44.5 34.5t-25.5 50t-1.5 59.5z" />
    <glyph glyph-name="acircumflex" unicode="&#xe2;" 
d="M785 127q-74 -77 -158.5 -113t-172.5 -36t-157 31.5t-116.5 85.5t-72.5 127.5t-25 157.5q0 63 14 129.5t42 129.5t70 118.5t99 97.5t128 66.5t158 24.5q97 0 171.5 -45t112.5 -124l16 94q6 34 36 48.5t87 14.5q56 0 74.5 -14.5t12.5 -48.5l-102 -581q-8 -40 5.5 -62.5
t45.5 -22.5h29q17 0 28 -4t16.5 -15.5t5.5 -31.5t-6 -52t-12.5 -52t-16 -31t-22 -15t-29.5 -4h-95q-30 0 -57.5 6.5t-49.5 21.5t-37.5 39.5t-21.5 59.5zM514 205q67 0 119.5 29t88.5 74.5t54.5 102t18.5 111.5q0 48 -14.5 85t-40 61.5t-60.5 37.5t-76 13q-68 0 -116.5 -33
t-79.5 -82.5t-45 -107t-14 -105.5q0 -87 43 -136.5t122 -49.5zM426 1029q-39 -17 -64 30q-11 20 -11 37t19 31l323 261q24 18 58 18q16 0 30 -4t22 -14l251 -261q29 -31 2 -72q-13 -20 -31 -29t-41 3l-255 134z" />
    <glyph glyph-name="ecircumflex" unicode="&#xea;" 
d="M385 329q15 -62 62 -93t123 -31q81 0 170.5 12.5t194.5 42.5q17 5 30 4t23 -10.5t17.5 -28.5t13.5 -49q6 -31 6.5 -52.5t-5.5 -36t-18.5 -23.5t-31.5 -15q-106 -33 -219 -52t-221 -19q-98 0 -174 30.5t-127.5 84t-78.5 127t-27 159.5q0 52 9 104.5t27 103t45.5 97.5
t64.5 88q76 83 184.5 128.5t246.5 45.5q88 0 160 -22.5t123 -63.5t78.5 -97.5t27.5 -125.5q0 -38 -10 -81.5t-35 -80.5q-29 -43 -80 -68t-126 -33zM670 719q-103 0 -172 -50t-100 -153l349 35q45 5 61.5 26t16.5 47q0 17 -9 34t-28 30.5t-48.5 22t-69.5 8.5zM436 1029
q-39 -17 -64 30q-11 20 -11 37t19 31l323 261q24 18 58 18q16 0 30 -4t22 -14l251 -261q29 -31 2 -72q-13 -20 -31 -29t-41 3l-255 134z" />
    <glyph glyph-name="ucircumflex" unicode="&#xfb;" 
d="M788 208q-88 -122 -177 -176t-183 -54q-60 0 -108 20t-81 55.5t-51 85.5t-18 110q0 18 1.5 36.5t5.5 38.5l69 395h-77q-17 0 -28 4t-17 15.5t-6 31.5t6 52t13 52t16.5 31t22 15t29.5 4h264q34 0 46 -14.5t6 -48.5l-87 -498q-6 -32 -6 -58q0 -48 21.5 -74t73.5 -26
q45 0 92 33t87.5 87t71 122t42.5 139l22 133h-107q-17 0 -28 4t-17 15.5t-6 31.5t6 52t13 52t16.5 31t22 15t29.5 4h294q34 0 46 -14.5t6 -48.5l-115 -656h77q17 0 28 -4t17 -15t6 -31t-6 -52t-13 -52t-16.5 -31.5t-22 -15.5t-29.5 -4h-224q-34 0 -46 14.5t-6 48.5z
M416 1029q-39 -17 -64 30q-11 20 -11 37t19 31l323 261q24 18 58 18q16 0 30 -4t22 -14l251 -261q29 -31 2 -72q-13 -20 -31 -29t-41 3l-255 134z" />
    <glyph glyph-name="ocircumflex" unicode="&#xf4;" 
d="M550 -22q-103 0 -184 31t-137.5 86t-86 130t-29.5 163q0 65 15.5 132t47.5 129t80.5 116t113.5 94.5t147.5 63.5t182.5 23q102 0 183 -31t137.5 -86t86 -130t29.5 -163q0 -63 -15 -128.5t-46 -127.5t-78.5 -117t-112.5 -96t-148.5 -65t-185.5 -24zM670 719
q-69 0 -122.5 -27t-91 -71.5t-57 -101.5t-19.5 -118q0 -91 53 -143.5t147 -52.5q68 0 122 26.5t91 71t56.5 101.5t19.5 118q0 91 -52.5 144t-146.5 53zM436 1029q-39 -17 -64 30q-11 20 -11 37t19 31l323 261q24 18 58 18q16 0 30 -4t22 -14l251 -261q29 -31 2 -72
q-13 -20 -31 -29t-41 3l-255 134z" />
    <glyph glyph-name="Ocircumflex" unicode="&#xd4;" 
d="M580 205q81 0 144.5 34t110.5 99q27 38 47.5 85t34 97.5t20.5 101.5t7 98q0 127 -56 194.5t-171 67.5q-81 0 -144.5 -34t-110.5 -99q-27 -38 -47.5 -85t-34 -97.5t-20.5 -102t-7 -97.5q0 -127 56 -194.5t171 -67.5zM560 -22q-108 0 -195 35t-148.5 99t-95 155t-33.5 204
q0 59 9.5 123t28 127t46 123t63.5 112q87 124 214.5 188.5t287.5 64.5q108 0 195 -35t148.5 -99t95 -155.5t33.5 -203.5q0 -59 -9.5 -123t-28 -127t-46 -123t-63.5 -112q-87 -124 -214.5 -188.5t-287.5 -64.5zM476 1299q-39 -17 -64 30q-11 20 -11 37t19 31l323 261
q24 18 58 18q16 0 30 -4t22 -14l251 -261q29 -31 2 -72q-13 -20 -31 -29t-41 3l-255 134z" />
    <glyph glyph-name="Ucircumflex" unicode="&#xdb;" 
d="M216 982q-17 0 -28 4t-17 15t-6 31t6 52t13 52t16.5 31.5t22 15.5t29.5 4h374q17 0 28 -4t17 -15.5t6 -31.5t-6 -52t-13 -52t-16.5 -31t-22 -15t-29.5 -4h-77l-97 -549q-6 -35 -6 -63q0 -86 46.5 -125.5t123.5 -39.5q45 0 84.5 13t71.5 41t54.5 71t33.5 103l97 549h-77
q-17 0 -28 4t-17 15t-6 31t6 52t13 52t16.5 31.5t22 15.5t29.5 4h374q17 0 28 -4t17 -15.5t6 -31.5t-6 -52t-13 -52t-16.5 -31t-22 -15t-29.5 -4h-47l-103 -579q-38 -211 -167.5 -318t-340.5 -107q-93 0 -167.5 24.5t-127 71t-80.5 113.5t-28 151q0 45 9 95l97 549h-47z
M476 1299q-39 -17 -64 30q-11 20 -11 37t19 31l323 261q24 18 58 18q16 0 30 -4t22 -14l251 -261q29 -31 2 -72q-13 -20 -31 -29t-41 3l-255 134z" />
    <glyph glyph-name="Icircumflex" unicode="&#xce;" 
d="M592 982h-256q-17 0 -28 4t-17 15t-6 31t6 52t13 52t16.5 31.5t22 15.5t29.5 4h742q17 0 28 -4t17 -15.5t6 -31.5t-6 -52t-13 -52t-16.5 -31t-22 -15t-29.5 -4h-236l-137 -777h256q17 0 28 -4t16.5 -15.5t5.5 -31.5t-6 -52t-12.5 -52t-16 -31t-22 -15t-29.5 -4h-742
q-17 0 -28.5 4t-17 15t-6 31t5.5 52t13 52t16.5 31.5t22.5 15.5t30 4h236zM476 1299q-39 -17 -64 30q-11 20 -11 37t19 31l323 261q24 18 58 18q16 0 30 -4t22 -14l251 -261q29 -31 2 -72q-13 -20 -31 -29t-41 3l-255 134z" />
    <glyph glyph-name="Acircumflex" unicode="&#xc2;" 
d="M489 982h-163q-17 0 -28 4t-17 15.5t-6 31.5t6 52t13 52t16.5 31t22 15t29.5 4h470q40 0 62 -15t27 -50l129 -917h91q17 0 28 -4t17 -15t6 -31t-6 -52t-13 -52t-16.5 -31.5t-22 -15.5t-29.5 -4h-424q-17 0 -28 4t-17 15.5t-6 31.5t6 52t13 52t16.5 31t22 15t29.5 4h90
l-20 145h-364l-70 -145h70q17 0 28 -4t17 -15t6 -31t-6 -52t-13 -52t-16.5 -31.5t-22 -15.5t-29.5 -4h-404q-17 0 -28 4t-16.5 15.5t-5.5 31.5t5 52q6 32 13 52t16.5 31t22 15t29.5 4h80zM766 555l-44 427h-6l-199 -427h249zM446 1299q-39 -17 -64 30q-11 20 -11 37t19 31
l323 261q24 18 58 18q16 0 30 -4t22 -14l251 -261q29 -31 2 -72q-13 -20 -31 -29t-41 3l-255 134z" />
    <glyph glyph-name="Edieresis" unicode="&#xcb;" 
d="M323 982h-97q-17 0 -28 4t-17 15t-6 31t6 52t13 52t16.5 31.5t22 15.5t29.5 4h912q35 0 47 -15t6 -50l-53 -302q-6 -34 -37.5 -48.5t-95.5 -14.5t-83.5 14.5t-13.5 48.5l27 152h-400l-45 -253h244q17 0 28 -5t16.5 -17t5.5 -33t-6 -53t-13 -52.5t-17 -32.5t-22.5 -17
t-29.5 -5h-244l-51 -289h410l36 202q6 34 37.5 48.5t99.5 14.5q34 0 55.5 -3.5t33 -11t14.5 -19.5t0 -29l-62 -352q-6 -35 -23.5 -50t-52.5 -15h-932q-17 0 -28.5 4t-17 15t-6 31t5.5 52t13 52t16.5 31.5t22.5 15.5t30 4h97zM415 1472q6 31 21 57.5t37.5 45.5t51 29.5
t59.5 10.5q32 0 58.5 -13t44 -34.5t25 -50t1.5 -59.5t-21 -57.5t-37.5 -45.5t-50.5 -29.5t-59 -10.5q-32 0 -58.5 13t-44.5 34.5t-25.5 50t-1.5 59.5zM875 1472q6 31 21 57.5t37.5 45.5t51 29.5t59.5 10.5q32 0 58.5 -13t44 -34.5t25 -50t1.5 -59.5t-21 -57.5t-37.5 -45.5
t-50.5 -29.5t-59 -10.5q-32 0 -58.5 13t-44.5 34.5t-25.5 50t-1.5 59.5z" />
    <glyph glyph-name="Ecircumflex" unicode="&#xca;" 
d="M323 982h-97q-17 0 -28 4t-17 15t-6 31t6 52t13 52t16.5 31.5t22 15.5t29.5 4h912q35 0 47 -15t6 -50l-53 -302q-6 -34 -37.5 -48.5t-95.5 -14.5t-83.5 14.5t-13.5 48.5l27 152h-400l-45 -253h244q17 0 28 -5t16.5 -17t5.5 -33t-6 -53t-13 -52.5t-17 -32.5t-22.5 -17
t-29.5 -5h-244l-51 -289h410l36 202q6 34 37.5 48.5t99.5 14.5q34 0 55.5 -3.5t33 -11t14.5 -19.5t0 -29l-62 -352q-6 -35 -23.5 -50t-52.5 -15h-932q-17 0 -28.5 4t-17 15t-6 31t5.5 52t13 52t16.5 31.5t22.5 15.5t30 4h97zM496 1299q-39 -17 -64 30q-11 20 -11 37t19 31
l323 261q24 18 58 18q16 0 30 -4t22 -14l251 -261q29 -31 2 -72q-13 -20 -31 -29t-41 3l-255 134z" />
    <glyph glyph-name="Idieresis" unicode="&#xcf;" 
d="M592 982h-256q-17 0 -28 4t-17 15t-6 31t6 52t13 52t16.5 31.5t22 15.5t29.5 4h742q17 0 28 -4t17 -15.5t6 -31.5t-6 -52t-13 -52t-16.5 -31t-22 -15t-29.5 -4h-236l-137 -777h256q17 0 28 -4t16.5 -15.5t5.5 -31.5t-6 -52t-12.5 -52t-16 -31t-22 -15t-29.5 -4h-742
q-17 0 -28.5 4t-17 15t-6 31t5.5 52t13 52t16.5 31.5t22.5 15.5t30 4h236zM405 1472q6 31 21 57.5t37.5 45.5t51 29.5t59.5 10.5q32 0 58.5 -13t44 -34.5t25 -50t1.5 -59.5t-21 -57.5t-37.5 -45.5t-50.5 -29.5t-59 -10.5q-32 0 -58.5 13t-44.5 34.5t-25.5 50t-1.5 59.5z
M865 1472q6 31 21 57.5t37.5 45.5t51 29.5t59.5 10.5q32 0 58.5 -13t44 -34.5t25 -50t1.5 -59.5t-21 -57.5t-37.5 -45.5t-50.5 -29.5t-59 -10.5q-32 0 -58.5 13t-44.5 34.5t-25.5 50t-1.5 59.5z" />
    <glyph glyph-name="idieresis" unicode="&#xef;" 
d="M306 719q-17 0 -28 4t-17 15t-6 31t6 52t13 52t16.5 31.5t22 15.5t29.5 4h380q34 0 46 -14.5t6 -48.5l-88 -500q-2 -14 -3.5 -27.5t-1.5 -25.5q0 -54 24.5 -78.5t72.5 -24.5q25 0 48 3.5t47.5 11t50.5 19t57 28.5q38 20 62 3t47 -66q10 -22 16 -40.5t4.5 -34.5t-11 -29.5
t-29.5 -25.5q-48 -27 -90 -45.5t-82 -29.5t-79.5 -16t-82.5 -5q-147 0 -227 77t-80 217q0 45 9 96l61 351h-193zM295 1202q6 31 21 57.5t37.5 45.5t51 29.5t59.5 10.5q32 0 58.5 -13t44 -34.5t25 -50t1.5 -59.5t-21 -57.5t-37.5 -45.5t-50.5 -29.5t-59 -10.5q-32 0 -58.5 13
t-44.5 34.5t-25.5 50t-1.5 59.5zM755 1202q6 31 21 57.5t37.5 45.5t51 29.5t59.5 10.5q32 0 58.5 -13t44 -34.5t25 -50t1.5 -59.5t-21 -57.5t-37.5 -45.5t-50.5 -29.5t-59 -10.5q-32 0 -58.5 13t-44.5 34.5t-25.5 50t-1.5 59.5z" />
    <glyph glyph-name="icircumflex" unicode="&#xee;" 
d="M306 719q-17 0 -28 4t-17 15t-6 31t6 52t13 52t16.5 31.5t22 15.5t29.5 4h380q34 0 46 -14.5t6 -48.5l-88 -500q-2 -14 -3.5 -27.5t-1.5 -25.5q0 -54 24.5 -78.5t72.5 -24.5q25 0 48 3.5t47.5 11t50.5 19t57 28.5q38 20 62 3t47 -66q10 -22 16 -40.5t4.5 -34.5t-11 -29.5
t-29.5 -25.5q-48 -27 -90 -45.5t-82 -29.5t-79.5 -16t-82.5 -5q-147 0 -227 77t-80 217q0 45 9 96l61 351h-193zM376 1029q-39 -17 -64 30q-11 20 -11 37t19 31l323 261q24 18 58 18q16 0 30 -4t22 -14l251 -261q29 -31 2 -72q-13 -20 -31 -29t-41 3l-255 134z" />
    <glyph glyph-name="aacute" unicode="&#xe1;" 
d="M785 127q-74 -77 -158.5 -113t-172.5 -36t-157 31.5t-116.5 85.5t-72.5 127.5t-25 157.5q0 63 14 129.5t42 129.5t70 118.5t99 97.5t128 66.5t158 24.5q97 0 171.5 -45t112.5 -124l16 94q6 34 36 48.5t87 14.5q56 0 74.5 -14.5t12.5 -48.5l-102 -581q-8 -40 5.5 -62.5
t45.5 -22.5h29q17 0 28 -4t16.5 -15.5t5.5 -31.5t-6 -52t-12.5 -52t-16 -31t-22 -15t-29.5 -4h-95q-30 0 -57.5 6.5t-49.5 21.5t-37.5 39.5t-21.5 59.5zM514 205q67 0 119.5 29t88.5 74.5t54.5 102t18.5 111.5q0 48 -14.5 85t-40 61.5t-60.5 37.5t-76 13q-68 0 -116.5 -33
t-79.5 -82.5t-45 -107t-14 -105.5q0 -87 43 -136.5t122 -49.5zM879 1392q28 16 59 -3.5t61 -87.5q30 -69 26.5 -102.5t-29.5 -40.5l-480 -125q-24 -7 -42 4.5t-26 34.5q-8 22 -2.5 41.5t25.5 31.5z" />
    <glyph glyph-name="iacute" unicode="&#xed;" 
d="M306 719q-17 0 -28 4t-17 15t-6 31t6 52t13 52t16.5 31.5t22 15.5t29.5 4h380q34 0 46 -14.5t6 -48.5l-88 -500q-2 -14 -3.5 -27.5t-1.5 -25.5q0 -54 24.5 -78.5t72.5 -24.5q25 0 48 3.5t47.5 11t50.5 19t57 28.5q38 20 62 3t47 -66q10 -22 16 -40.5t4.5 -34.5t-11 -29.5
t-29.5 -25.5q-48 -27 -90 -45.5t-82 -29.5t-79.5 -16t-82.5 -5q-147 0 -227 77t-80 217q0 45 9 96l61 351h-193zM819 1392q28 16 59 -3.5t61 -87.5q30 -69 26.5 -102.5t-29.5 -40.5l-480 -125q-24 -7 -42 4.5t-26 34.5q-8 22 -2.5 41.5t25.5 31.5z" />
    <glyph glyph-name="oacute" unicode="&#xf3;" 
d="M550 -22q-103 0 -184 31t-137.5 86t-86 130t-29.5 163q0 65 15.5 132t47.5 129t80.5 116t113.5 94.5t147.5 63.5t182.5 23q102 0 183 -31t137.5 -86t86 -130t29.5 -163q0 -63 -15 -128.5t-46 -127.5t-78.5 -117t-112.5 -96t-148.5 -65t-185.5 -24zM670 719
q-69 0 -122.5 -27t-91 -71.5t-57 -101.5t-19.5 -118q0 -91 53 -143.5t147 -52.5q68 0 122 26.5t91 71t56.5 101.5t19.5 118q0 91 -52.5 144t-146.5 53zM909 1392q28 16 59 -3.5t61 -87.5q30 -69 26.5 -102.5t-29.5 -40.5l-480 -125q-24 -7 -42 4.5t-26 34.5q-8 22 -2.5 41.5
t25.5 31.5z" />
    <glyph glyph-name="uacute" unicode="&#xfa;" 
d="M788 208q-88 -122 -177 -176t-183 -54q-60 0 -108 20t-81 55.5t-51 85.5t-18 110q0 18 1.5 36.5t5.5 38.5l69 395h-77q-17 0 -28 4t-17 15.5t-6 31.5t6 52t13 52t16.5 31t22 15t29.5 4h264q34 0 46 -14.5t6 -48.5l-87 -498q-6 -32 -6 -58q0 -48 21.5 -74t73.5 -26
q45 0 92 33t87.5 87t71 122t42.5 139l22 133h-107q-17 0 -28 4t-17 15.5t-6 31.5t6 52t13 52t16.5 31t22 15t29.5 4h294q34 0 46 -14.5t6 -48.5l-115 -656h77q17 0 28 -4t17 -15t6 -31t-6 -52t-13 -52t-16.5 -31.5t-22 -15.5t-29.5 -4h-224q-34 0 -46 14.5t-6 48.5z
M919 1392q28 16 59 -3.5t61 -87.5q30 -69 26.5 -102.5t-29.5 -40.5l-480 -125q-24 -7 -42 4.5t-26 34.5q-8 22 -2.5 41.5t25.5 31.5z" />
    <glyph glyph-name="Iacute" unicode="&#xcd;" 
d="M592 982h-256q-17 0 -28 4t-17 15t-6 31t6 52t13 52t16.5 31.5t22 15.5t29.5 4h742q17 0 28 -4t17 -15.5t6 -31.5t-6 -52t-13 -52t-16.5 -31t-22 -15t-29.5 -4h-236l-137 -777h256q17 0 28 -4t16.5 -15.5t5.5 -31.5t-6 -52t-12.5 -52t-16 -31t-22 -15t-29.5 -4h-742
q-17 0 -28.5 4t-17 15t-6 31t5.5 52t13 52t16.5 31.5t22.5 15.5t30 4h236zM969 1662q28 16 59 -3.5t61 -87.5q30 -69 26.5 -102.5t-29.5 -40.5l-480 -125q-24 -7 -42 4.5t-26 34.5q-8 22 -2.5 41.5t25.5 31.5z" />
    <glyph glyph-name="Uacute" unicode="&#xda;" 
d="M216 982q-17 0 -28 4t-17 15t-6 31t6 52t13 52t16.5 31.5t22 15.5t29.5 4h374q17 0 28 -4t17 -15.5t6 -31.5t-6 -52t-13 -52t-16.5 -31t-22 -15t-29.5 -4h-77l-97 -549q-6 -35 -6 -63q0 -86 46.5 -125.5t123.5 -39.5q45 0 84.5 13t71.5 41t54.5 71t33.5 103l97 549h-77
q-17 0 -28 4t-17 15t-6 31t6 52t13 52t16.5 31.5t22 15.5t29.5 4h374q17 0 28 -4t17 -15.5t6 -31.5t-6 -52t-13 -52t-16.5 -31t-22 -15t-29.5 -4h-47l-103 -579q-38 -211 -167.5 -318t-340.5 -107q-93 0 -167.5 24.5t-127 71t-80.5 113.5t-28 151q0 45 9 95l97 549h-47z
M959 1662q28 16 59 -3.5t61 -87.5q30 -69 26.5 -102.5t-29.5 -40.5l-480 -125q-24 -7 -42 4.5t-26 34.5q-8 22 -2.5 41.5t25.5 31.5z" />
    <glyph glyph-name="Oacute" unicode="&#xd3;" 
d="M580 205q81 0 144.5 34t110.5 99q27 38 47.5 85t34 97.5t20.5 101.5t7 98q0 127 -56 194.5t-171 67.5q-81 0 -144.5 -34t-110.5 -99q-27 -38 -47.5 -85t-34 -97.5t-20.5 -102t-7 -97.5q0 -127 56 -194.5t171 -67.5zM560 -22q-108 0 -195 35t-148.5 99t-95 155t-33.5 204
q0 59 9.5 123t28 127t46 123t63.5 112q87 124 214.5 188.5t287.5 64.5q108 0 195 -35t148.5 -99t95 -155.5t33.5 -203.5q0 -59 -9.5 -123t-28 -127t-46 -123t-63.5 -112q-87 -124 -214.5 -188.5t-287.5 -64.5zM949 1662q28 16 59 -3.5t61 -87.5q30 -69 26.5 -102.5
t-29.5 -40.5l-480 -125q-24 -7 -42 4.5t-26 34.5q-8 22 -2.5 41.5t25.5 31.5z" />
    <glyph glyph-name="Ograve" unicode="&#xd2;" 
d="M580 205q81 0 144.5 34t110.5 99q27 38 47.5 85t34 97.5t20.5 101.5t7 98q0 127 -56 194.5t-171 67.5q-81 0 -144.5 -34t-110.5 -99q-27 -38 -47.5 -85t-34 -97.5t-20.5 -102t-7 -97.5q0 -127 56 -194.5t171 -67.5zM560 -22q-108 0 -195 35t-148.5 99t-95 155t-33.5 204
q0 59 9.5 123t28 127t46 123t63.5 112q87 124 214.5 188.5t287.5 64.5q108 0 195 -35t148.5 -99t95 -155.5t33.5 -203.5q0 -59 -9.5 -123t-28 -127t-46 -123t-63.5 -112q-87 -124 -214.5 -188.5t-287.5 -64.5zM981 1415q20 -12 25.5 -31.5t-2.5 -41.5q-8 -23 -26 -34.5
t-42 -4.5l-480 125q-26 7 -29.5 40.5t26.5 102.5q30 68 61 87.5t59 3.5z" />
    <glyph glyph-name="Ugrave" unicode="&#xd9;" 
d="M216 982q-17 0 -28 4t-17 15t-6 31t6 52t13 52t16.5 31.5t22 15.5t29.5 4h374q17 0 28 -4t17 -15.5t6 -31.5t-6 -52t-13 -52t-16.5 -31t-22 -15t-29.5 -4h-77l-97 -549q-6 -35 -6 -63q0 -86 46.5 -125.5t123.5 -39.5q45 0 84.5 13t71.5 41t54.5 71t33.5 103l97 549h-77
q-17 0 -28 4t-17 15t-6 31t6 52t13 52t16.5 31.5t22 15.5t29.5 4h374q17 0 28 -4t17 -15.5t6 -31.5t-6 -52t-13 -52t-16.5 -31t-22 -15t-29.5 -4h-47l-103 -579q-38 -211 -167.5 -318t-340.5 -107q-93 0 -167.5 24.5t-127 71t-80.5 113.5t-28 151q0 45 9 95l97 549h-47z
M981 1415q20 -12 25.5 -31.5t-2.5 -41.5q-8 -23 -26 -34.5t-42 -4.5l-480 125q-26 7 -29.5 40.5t26.5 102.5q30 68 61 87.5t59 3.5z" />
    <glyph glyph-name="Igrave" unicode="&#xcc;" 
d="M592 982h-256q-17 0 -28 4t-17 15t-6 31t6 52t13 52t16.5 31.5t22 15.5t29.5 4h742q17 0 28 -4t17 -15.5t6 -31.5t-6 -52t-13 -52t-16.5 -31t-22 -15t-29.5 -4h-236l-137 -777h256q17 0 28 -4t16.5 -15.5t5.5 -31.5t-6 -52t-12.5 -52t-16 -31t-22 -15t-29.5 -4h-742
q-17 0 -28.5 4t-17 15t-6 31t5.5 52t13 52t16.5 31.5t22.5 15.5t30 4h236zM971 1415q20 -12 25.5 -31.5t-2.5 -41.5q-8 -23 -26 -34.5t-42 -4.5l-480 125q-26 7 -29.5 40.5t26.5 102.5q30 68 61 87.5t59 3.5z" />
    <glyph glyph-name="Egrave" unicode="&#xc8;" 
d="M323 982h-97q-17 0 -28 4t-17 15t-6 31t6 52t13 52t16.5 31.5t22 15.5t29.5 4h912q35 0 47 -15t6 -50l-53 -302q-6 -34 -37.5 -48.5t-95.5 -14.5t-83.5 14.5t-13.5 48.5l27 152h-400l-45 -253h244q17 0 28 -5t16.5 -17t5.5 -33t-6 -53t-13 -52.5t-17 -32.5t-22.5 -17
t-29.5 -5h-244l-51 -289h410l36 202q6 34 37.5 48.5t99.5 14.5q34 0 55.5 -3.5t33 -11t14.5 -19.5t0 -29l-62 -352q-6 -35 -23.5 -50t-52.5 -15h-932q-17 0 -28.5 4t-17 15t-6 31t5.5 52t13 52t16.5 31.5t22.5 15.5t30 4h97zM991 1415q20 -12 25.5 -31.5t-2.5 -41.5
q-8 -23 -26 -34.5t-42 -4.5l-480 125q-26 7 -29.5 40.5t26.5 102.5q30 68 61 87.5t59 3.5z" />
    <glyph glyph-name="Aacute" unicode="&#xc1;" 
d="M489 982h-163q-17 0 -28 4t-17 15.5t-6 31.5t6 52t13 52t16.5 31t22 15t29.5 4h470q40 0 62 -15t27 -50l129 -917h91q17 0 28 -4t17 -15t6 -31t-6 -52t-13 -52t-16.5 -31.5t-22 -15.5t-29.5 -4h-424q-17 0 -28 4t-17 15.5t-6 31.5t6 52t13 52t16.5 31t22 15t29.5 4h90
l-20 145h-364l-70 -145h70q17 0 28 -4t17 -15t6 -31t-6 -52t-13 -52t-16.5 -31.5t-22 -15.5t-29.5 -4h-404q-17 0 -28 4t-16.5 15.5t-5.5 31.5t5 52q6 32 13 52t16.5 31t22 15t29.5 4h80zM766 555l-44 427h-6l-199 -427h249zM899 1662q28 16 59 -3.5t61 -87.5
q30 -69 26.5 -102.5t-29.5 -40.5l-480 -125q-24 -7 -42 4.5t-26 34.5q-8 22 -2.5 41.5t25.5 31.5z" />
    <glyph glyph-name="Eacute" unicode="&#xc9;" 
d="M323 982h-97q-17 0 -28 4t-17 15t-6 31t6 52t13 52t16.5 31.5t22 15.5t29.5 4h912q35 0 47 -15t6 -50l-53 -302q-6 -34 -37.5 -48.5t-95.5 -14.5t-83.5 14.5t-13.5 48.5l27 152h-400l-45 -253h244q17 0 28 -5t16.5 -17t5.5 -33t-6 -53t-13 -52.5t-17 -32.5t-22.5 -17
t-29.5 -5h-244l-51 -289h410l36 202q6 34 37.5 48.5t99.5 14.5q34 0 55.5 -3.5t33 -11t14.5 -19.5t0 -29l-62 -352q-6 -35 -23.5 -50t-52.5 -15h-932q-17 0 -28.5 4t-17 15t-6 31t5.5 52t13 52t16.5 31.5t22.5 15.5t30 4h97zM959 1662q28 16 59 -3.5t61 -87.5
q30 -69 26.5 -102.5t-29.5 -40.5l-480 -125q-24 -7 -42 4.5t-26 34.5q-8 22 -2.5 41.5t25.5 31.5z" />
    <glyph glyph-name="Agrave" unicode="&#xc0;" 
d="M489 982h-163q-17 0 -28 4t-17 15.5t-6 31.5t6 52t13 52t16.5 31t22 15t29.5 4h470q40 0 62 -15t27 -50l129 -917h91q17 0 28 -4t17 -15t6 -31t-6 -52t-13 -52t-16.5 -31.5t-22 -15.5t-29.5 -4h-424q-17 0 -28 4t-17 15.5t-6 31.5t6 52t13 52t16.5 31t22 15t29.5 4h90
l-20 145h-364l-70 -145h70q17 0 28 -4t17 -15t6 -31t-6 -52t-13 -52t-16.5 -31.5t-22 -15.5t-29.5 -4h-404q-17 0 -28 4t-16.5 15.5t-5.5 31.5t5 52q6 32 13 52t16.5 31t22 15t29.5 4h80zM766 555l-44 427h-6l-199 -427h249zM931 1415q20 -12 25.5 -31.5t-2.5 -41.5
q-8 -23 -26 -34.5t-42 -4.5l-480 125q-26 7 -29.5 40.5t26.5 102.5q30 68 61 87.5t59 3.5z" />
    <glyph glyph-name="eacute" unicode="&#xe9;" 
d="M385 329q15 -62 62 -93t123 -31q81 0 170.5 12.5t194.5 42.5q17 5 30 4t23 -10.5t17.5 -28.5t13.5 -49q6 -31 6.5 -52.5t-5.5 -36t-18.5 -23.5t-31.5 -15q-106 -33 -219 -52t-221 -19q-98 0 -174 30.5t-127.5 84t-78.5 127t-27 159.5q0 52 9 104.5t27 103t45.5 97.5
t64.5 88q76 83 184.5 128.5t246.5 45.5q88 0 160 -22.5t123 -63.5t78.5 -97.5t27.5 -125.5q0 -38 -10 -81.5t-35 -80.5q-29 -43 -80 -68t-126 -33zM670 719q-103 0 -172 -50t-100 -153l349 35q45 5 61.5 26t16.5 47q0 17 -9 34t-28 30.5t-48.5 22t-69.5 8.5zM889 1392
q28 16 59 -3.5t61 -87.5q30 -69 26.5 -102.5t-29.5 -40.5l-480 -125q-24 -7 -42 4.5t-26 34.5q-8 22 -2.5 41.5t25.5 31.5z" />
    <glyph glyph-name="egrave" unicode="&#xe8;" 
d="M385 329q15 -62 62 -93t123 -31q81 0 170.5 12.5t194.5 42.5q17 5 30 4t23 -10.5t17.5 -28.5t13.5 -49q6 -31 6.5 -52.5t-5.5 -36t-18.5 -23.5t-31.5 -15q-106 -33 -219 -52t-221 -19q-98 0 -174 30.5t-127.5 84t-78.5 127t-27 159.5q0 52 9 104.5t27 103t45.5 97.5
t64.5 88q76 83 184.5 128.5t246.5 45.5q88 0 160 -22.5t123 -63.5t78.5 -97.5t27.5 -125.5q0 -38 -10 -81.5t-35 -80.5q-29 -43 -80 -68t-126 -33zM670 719q-103 0 -172 -50t-100 -153l349 35q45 5 61.5 26t16.5 47q0 17 -9 34t-28 30.5t-48.5 22t-69.5 8.5zM971 1145
q20 -12 25.5 -31.5t-2.5 -41.5q-8 -23 -26 -34.5t-42 -4.5l-480 125q-26 7 -29.5 40.5t26.5 102.5q30 68 61 87.5t59 3.5z" />
    <glyph glyph-name="igrave" unicode="&#xec;" 
d="M306 719q-17 0 -28 4t-17 15t-6 31t6 52t13 52t16.5 31.5t22 15.5t29.5 4h380q34 0 46 -14.5t6 -48.5l-88 -500q-2 -14 -3.5 -27.5t-1.5 -25.5q0 -54 24.5 -78.5t72.5 -24.5q25 0 48 3.5t47.5 11t50.5 19t57 28.5q38 20 62 3t47 -66q10 -22 16 -40.5t4.5 -34.5t-11 -29.5
t-29.5 -25.5q-48 -27 -90 -45.5t-82 -29.5t-79.5 -16t-82.5 -5q-147 0 -227 77t-80 217q0 45 9 96l61 351h-193zM821 1145q20 -12 25.5 -31.5t-2.5 -41.5q-8 -23 -26 -34.5t-42 -4.5l-480 125q-26 7 -29.5 40.5t26.5 102.5q30 68 61 87.5t59 3.5z" />
    <glyph glyph-name="agrave" unicode="&#xe0;" 
d="M785 127q-74 -77 -158.5 -113t-172.5 -36t-157 31.5t-116.5 85.5t-72.5 127.5t-25 157.5q0 63 14 129.5t42 129.5t70 118.5t99 97.5t128 66.5t158 24.5q97 0 171.5 -45t112.5 -124l16 94q6 34 36 48.5t87 14.5q56 0 74.5 -14.5t12.5 -48.5l-102 -581q-8 -40 5.5 -62.5
t45.5 -22.5h29q17 0 28 -4t16.5 -15.5t5.5 -31.5t-6 -52t-12.5 -52t-16 -31t-22 -15t-29.5 -4h-95q-30 0 -57.5 6.5t-49.5 21.5t-37.5 39.5t-21.5 59.5zM514 205q67 0 119.5 29t88.5 74.5t54.5 102t18.5 111.5q0 48 -14.5 85t-40 61.5t-60.5 37.5t-76 13q-68 0 -116.5 -33
t-79.5 -82.5t-45 -107t-14 -105.5q0 -87 43 -136.5t122 -49.5zM971 1145q20 -12 25.5 -31.5t-2.5 -41.5q-8 -23 -26 -34.5t-42 -4.5l-480 125q-26 7 -29.5 40.5t26.5 102.5q30 68 61 87.5t59 3.5z" />
    <glyph glyph-name="ugrave" unicode="&#xf9;" 
d="M788 208q-88 -122 -177 -176t-183 -54q-60 0 -108 20t-81 55.5t-51 85.5t-18 110q0 18 1.5 36.5t5.5 38.5l69 395h-77q-17 0 -28 4t-17 15.5t-6 31.5t6 52t13 52t16.5 31t22 15t29.5 4h264q34 0 46 -14.5t6 -48.5l-87 -498q-6 -32 -6 -58q0 -48 21.5 -74t73.5 -26
q45 0 92 33t87.5 87t71 122t42.5 139l22 133h-107q-17 0 -28 4t-17 15.5t-6 31.5t6 52t13 52t16.5 31t22 15t29.5 4h294q34 0 46 -14.5t6 -48.5l-115 -656h77q17 0 28 -4t17 -15t6 -31t-6 -52t-13 -52t-16.5 -31.5t-22 -15.5t-29.5 -4h-224q-34 0 -46 14.5t-6 48.5z
M931 1145q20 -12 25.5 -31.5t-2.5 -41.5q-8 -23 -26 -34.5t-42 -4.5l-480 125q-26 7 -29.5 40.5t26.5 102.5q30 68 61 87.5t59 3.5z" />
    <glyph glyph-name="ograve" unicode="&#xf2;" 
d="M550 -22q-103 0 -184 31t-137.5 86t-86 130t-29.5 163q0 65 15.5 132t47.5 129t80.5 116t113.5 94.5t147.5 63.5t182.5 23q102 0 183 -31t137.5 -86t86 -130t29.5 -163q0 -63 -15 -128.5t-46 -127.5t-78.5 -117t-112.5 -96t-148.5 -65t-185.5 -24zM670 719
q-69 0 -122.5 -27t-91 -71.5t-57 -101.5t-19.5 -118q0 -91 53 -143.5t147 -52.5q68 0 122 26.5t91 71t56.5 101.5t19.5 118q0 91 -52.5 144t-146.5 53zM971 1145q20 -12 25.5 -31.5t-2.5 -41.5q-8 -23 -26 -34.5t-42 -4.5l-480 125q-26 7 -29.5 40.5t26.5 102.5
q30 68 61 87.5t59 3.5z" />
    <glyph glyph-name="aring" unicode="&#xe5;" 
d="M785 127q-74 -77 -158.5 -113t-172.5 -36t-157 31.5t-116.5 85.5t-72.5 127.5t-25 157.5q0 63 14 129.5t42 129.5t70 118.5t99 97.5t128 66.5t158 24.5q97 0 171.5 -45t112.5 -124l16 94q6 34 36 48.5t87 14.5q56 0 74.5 -14.5t12.5 -48.5l-102 -581q-8 -40 5.5 -62.5
t45.5 -22.5h29q17 0 28 -4t16.5 -15.5t5.5 -31.5t-6 -52t-12.5 -52t-16 -31t-22 -15t-29.5 -4h-95q-30 0 -57.5 6.5t-49.5 21.5t-37.5 39.5t-21.5 59.5zM514 205q67 0 119.5 29t88.5 74.5t54.5 102t18.5 111.5q0 48 -14.5 85t-40 61.5t-60.5 37.5t-76 13q-68 0 -116.5 -33
t-79.5 -82.5t-45 -107t-14 -105.5q0 -87 43 -136.5t122 -49.5zM719 1043q-49 0 -90.5 18t-72 49t-48 72.5t-17.5 88.5q0 57 23 110.5t63 94.5t95 66t119 25q49 0 90.5 -18t72 -49t48 -73t17.5 -89q0 -54 -22 -107t-61.5 -94.5t-95 -67.5t-121.5 -26zM737 1202q25 0 47 10
t38.5 27t26.5 38.5t10 45.5q0 36 -24 60.5t-62 24.5q-26 0 -48 -10.5t-39 -27.5t-26.5 -39t-9.5 -44q0 -37 24.5 -61t62.5 -24z" />
    <glyph glyph-name="Aring" unicode="&#xc5;" 
d="M489 982h-163q-17 0 -28 4t-17 15.5t-6 31.5t6 52t13 52t16.5 31t22 15t29.5 4h470q40 0 62 -15t27 -50l129 -917h91q17 0 28 -4t17 -15t6 -31t-6 -52t-13 -52t-16.5 -31.5t-22 -15.5t-29.5 -4h-424q-17 0 -28 4t-17 15.5t-6 31.5t6 52t13 52t16.5 31t22 15t29.5 4h90
l-20 145h-364l-70 -145h70q17 0 28 -4t17 -15t6 -31t-6 -52t-13 -52t-16.5 -31.5t-22 -15.5t-29.5 -4h-404q-17 0 -28 4t-16.5 15.5t-5.5 31.5t5 52q6 32 13 52t16.5 31t22 15t29.5 4h80zM766 555l-44 427h-6l-199 -427h249zM739 1273q-49 0 -90.5 18t-72 49t-48 72.5
t-17.5 88.5q0 57 23 110.5t63 94.5t95 66t119 25q49 0 90.5 -18t72 -49t48 -73t17.5 -89q0 -54 -22 -107t-61.5 -94.5t-95 -67.5t-121.5 -26zM757 1432q25 0 47 10t38.5 27t26.5 38.5t10 45.5q0 36 -24 60.5t-62 24.5q-26 0 -48 -10.5t-39 -27.5t-26.5 -39t-9.5 -44
q0 -37 24.5 -61t62.5 -24z" />
    <glyph glyph-name="atilde" unicode="&#xe3;" 
d="M785 127q-74 -77 -158.5 -113t-172.5 -36t-157 31.5t-116.5 85.5t-72.5 127.5t-25 157.5q0 63 14 129.5t42 129.5t70 118.5t99 97.5t128 66.5t158 24.5q97 0 171.5 -45t112.5 -124l16 94q6 34 36 48.5t87 14.5q56 0 74.5 -14.5t12.5 -48.5l-102 -581q-8 -40 5.5 -62.5
t45.5 -22.5h29q17 0 28 -4t16.5 -15.5t5.5 -31.5t-6 -52t-12.5 -52t-16 -31t-22 -15t-29.5 -4h-95q-30 0 -57.5 6.5t-49.5 21.5t-37.5 39.5t-21.5 59.5zM514 205q67 0 119.5 29t88.5 74.5t54.5 102t18.5 111.5q0 48 -14.5 85t-40 61.5t-60.5 37.5t-76 13q-68 0 -116.5 -33
t-79.5 -82.5t-45 -107t-14 -105.5q0 -87 43 -136.5t122 -49.5zM877 1250q27 0 58.5 7t63.5 24q23 13 43 2t35 -39q14 -26 15 -51.5t-19 -41.5q-60 -50 -109 -71.5t-94 -21.5q-42 0 -80 11.5t-74 25.5t-71.5 25.5t-72.5 11.5q-29 0 -60.5 -7t-63.5 -24q-22 -12 -41.5 -1
t-34.5 39q-14 26 -15.5 51t17.5 41q60 52 110 72.5t95 20.5q41 0 79 -11.5t74 -25.5t72 -25.5t73 -11.5z" />
    <glyph glyph-name="otilde" unicode="&#xf5;" 
d="M550 -22q-103 0 -184 31t-137.5 86t-86 130t-29.5 163q0 65 15.5 132t47.5 129t80.5 116t113.5 94.5t147.5 63.5t182.5 23q102 0 183 -31t137.5 -86t86 -130t29.5 -163q0 -63 -15 -128.5t-46 -127.5t-78.5 -117t-112.5 -96t-148.5 -65t-185.5 -24zM670 719
q-69 0 -122.5 -27t-91 -71.5t-57 -101.5t-19.5 -118q0 -91 53 -143.5t147 -52.5q68 0 122 26.5t91 71t56.5 101.5t19.5 118q0 91 -52.5 144t-146.5 53zM877 1250q27 0 58.5 7t63.5 24q23 13 43 2t35 -39q14 -26 15 -51.5t-19 -41.5q-60 -50 -109 -71.5t-94 -21.5
q-42 0 -80 11.5t-74 25.5t-71.5 25.5t-72.5 11.5q-29 0 -60.5 -7t-63.5 -24q-22 -12 -41.5 -1t-34.5 39q-14 26 -15.5 51t17.5 41q60 52 110 72.5t95 20.5q41 0 79 -11.5t74 -25.5t72 -25.5t73 -11.5z" />
    <glyph glyph-name="ntilde" unicode="&#xf1;" 
d="M273 719h-97q-17 0 -28 4t-17 15t-6 31t6 52t13 52t16.5 31.5t22 15.5t29.5 4h244q34 0 46 -14.5t6 -48.5l-25 -145q88 122 177 176t183 54q60 0 108 -20t81 -55.5t51 -85.5t18 -110q0 -18 -2 -37t-5 -38l-69 -395h77q17 0 28 -4t16.5 -15.5t5.5 -31.5t-6 -52t-12.5 -52
t-16 -31t-22 -15t-29.5 -4h-264q-34 0 -46 14.5t-6 48.5l87 498q6 33 6 60q0 47 -22 72.5t-73 25.5q-45 0 -91.5 -33t-87.5 -87t-71.5 -122.5t-42.5 -138.5l-47 -275q-6 -34 -23 -48.5t-51 -14.5h-124q-34 0 -46 14.5t-6 48.5zM887 1250q27 0 58.5 7t63.5 24q23 13 43 2
t35 -39q14 -26 15 -51.5t-19 -41.5q-60 -50 -109 -71.5t-94 -21.5q-42 0 -80 11.5t-74 25.5t-71.5 25.5t-72.5 11.5q-29 0 -60.5 -7t-63.5 -24q-22 -12 -41.5 -1t-34.5 39q-14 26 -15.5 51t17.5 41q60 52 110 72.5t95 20.5q41 0 79 -11.5t74 -25.5t72 -25.5t73 -11.5z" />
    <glyph glyph-name="Ntilde" unicode="&#xd1;" 
d="M283 982h-67q-17 0 -28 4t-17 15t-6 31t6 52t13 52t16.5 31.5t22 15.5t29.5 4h264q19 0 32 -6t19 -21l290 -707l94 529h-88q-17 0 -28 4t-17 15t-6 31t6 52t13 52t16.5 31.5t22 15.5t29.5 4h375q17 0 28 -4t17 -15.5t6 -31.5t-6 -52t-13 -52t-16.5 -31t-22 -15t-29.5 -4
h-57l-166 -938q-5 -32 -31.5 -49t-89.5 -17q-24 0 -40.5 3.5t-28 10t-18.5 16.5t-12 23l-315 765l-104 -591h107q17 0 28 -4t16.5 -15.5t5.5 -31.5t-6 -52t-12.5 -52t-16 -31t-22 -15t-29.5 -4h-404q-17 0 -28.5 4t-17 15t-6 31t5.5 52t13 52t16.5 31.5t22.5 15.5t30 4h67z
M937 1510q27 0 58.5 7t63.5 24q23 13 43 2t35 -39q14 -26 15 -51.5t-19 -41.5q-60 -50 -109 -71.5t-94 -21.5q-42 0 -80 11.5t-74 25.5t-71.5 25.5t-72.5 11.5q-29 0 -60.5 -7t-63.5 -24q-22 -12 -41.5 -1t-34.5 39q-14 26 -15.5 51t17.5 41q60 52 110 72.5t95 20.5
q41 0 79 -11.5t74 -25.5t72 -25.5t73 -11.5z" />
    <glyph glyph-name="Atilde" unicode="&#xc3;" 
d="M489 982h-163q-17 0 -28 4t-17 15.5t-6 31.5t6 52t13 52t16.5 31t22 15t29.5 4h470q40 0 62 -15t27 -50l129 -917h91q17 0 28 -4t17 -15t6 -31t-6 -52t-13 -52t-16.5 -31.5t-22 -15.5t-29.5 -4h-424q-17 0 -28 4t-17 15.5t-6 31.5t6 52t13 52t16.5 31t22 15t29.5 4h90
l-20 145h-364l-70 -145h70q17 0 28 -4t17 -15t6 -31t-6 -52t-13 -52t-16.5 -31.5t-22 -15.5t-29.5 -4h-404q-17 0 -28 4t-16.5 15.5t-5.5 31.5t5 52q6 32 13 52t16.5 31t22 15t29.5 4h80zM766 555l-44 427h-6l-199 -427h249zM867 1510q27 0 58.5 7t63.5 24q23 13 43 2
t35 -39q14 -26 15 -51.5t-19 -41.5q-60 -50 -109 -71.5t-94 -21.5q-42 0 -80 11.5t-74 25.5t-71.5 25.5t-72.5 11.5q-29 0 -60.5 -7t-63.5 -24q-22 -12 -41.5 -1t-34.5 39q-14 26 -15.5 51t17.5 41q60 52 110 72.5t95 20.5q41 0 79 -11.5t74 -25.5t72 -25.5t73 -11.5z" />
    <glyph glyph-name="Otilde" unicode="&#xd5;" 
d="M580 205q81 0 144.5 34t110.5 99q27 38 47.5 85t34 97.5t20.5 101.5t7 98q0 127 -56 194.5t-171 67.5q-81 0 -144.5 -34t-110.5 -99q-27 -38 -47.5 -85t-34 -97.5t-20.5 -102t-7 -97.5q0 -127 56 -194.5t171 -67.5zM560 -22q-108 0 -195 35t-148.5 99t-95 155t-33.5 204
q0 59 9.5 123t28 127t46 123t63.5 112q87 124 214.5 188.5t287.5 64.5q108 0 195 -35t148.5 -99t95 -155.5t33.5 -203.5q0 -59 -9.5 -123t-28 -127t-46 -123t-63.5 -112q-87 -124 -214.5 -188.5t-287.5 -64.5zM927 1510q27 0 58.5 7t63.5 24q23 13 43 2t35 -39
q14 -26 15 -51.5t-19 -41.5q-60 -50 -109 -71.5t-94 -21.5q-42 0 -80 11.5t-74 25.5t-71.5 25.5t-72.5 11.5q-29 0 -60.5 -7t-63.5 -24q-22 -12 -41.5 -1t-34.5 39q-14 26 -15.5 51t17.5 41q60 52 110 72.5t95 20.5q41 0 79 -11.5t74 -25.5t72 -25.5t73 -11.5z" />
    <glyph glyph-name="yacute" unicode="&#xfd;" 
d="M159 719q-17 0 -28 4t-17 15t-6 31t6 52t13 52t16.5 31.5t22 15.5t29.5 4h394q17 0 28 -4t17 -15.5t6 -31.5t-6 -52t-13 -52t-16.5 -31t-22 -15t-29.5 -4h-60l107 -380l241 380h-54q-17 0 -28 4t-17 15t-6 31t6 52t13 52t16.5 31.5t22 15.5t29.5 4h394q17 0 28 -4
t17 -15.5t6 -31.5t-6 -52t-13 -52t-16.5 -31t-22 -15t-29.5 -4h-59l-520 -776q-70 -105 -129.5 -172.5t-121.5 -107.5t-132.5 -57t-162.5 -20q-30 -1 -47 20t-17 83q0 34 5 57.5t13.5 37.5t20 20.5t25.5 7.5q60 3 105 19t86 50t83 87.5t96 131.5l-192 619h-75zM927 1392
q28 16 59 -3.5t61 -87.5q30 -69 26.5 -102.5t-29.5 -40.5l-480 -125q-24 -7 -42 4.5t-26 34.5q-8 22 -2.5 41.5t25.5 31.5z" />
    <glyph glyph-name="minus" unicode="&#x2212;" 
d="M1047 695q17 0 28 -4.5t16.5 -16.5t5 -34t-6.5 -58t-13.5 -58t-17.5 -34t-22.5 -16t-29.5 -4h-762q-17 0 -28 4t-16.5 16t-5 34t6.5 58t13.5 58t17.5 34t22.5 16.5t29.5 4.5h762z" />
    <glyph glyph-name="uni00A0" unicode="&#xa0;" 
 />
    <glyph glyph-name="multiply" unicode="&#xd7;" 
d="M486 597l-172 206q-11 13 -15.5 24.5t0 25t19 30.5t41.5 40t46.5 34.5t34 13.5t25.5 -4.5t22 -19.5l171 -205l238 201q13 11 25 15t25.5 -0.5t30.5 -19t40 -41.5t34.5 -46.5t13 -33.5t-5 -25t-19.5 -22l-238 -201l173 -207q11 -13 15 -25t-0.5 -25.5t-19 -30.5t-41.5 -40
t-46.5 -34.5t-33.5 -13t-25 5t-22 19.5l-172 206l-239 -202q-13 -11 -24.5 -15.5t-25 0t-30.5 19t-40 41.5t-34.5 46.5t-13.5 34t4.5 25.5t19.5 22z" />
    <glyph glyph-name="commaaccent" unicode="&#xf6c3;" 
d="M444 -502q-16 -23 -41.5 -33t-57.5 -10q-34 0 -49 13t-6 46l88 313q4 13 15.5 20t25.5 7h222q17 0 20.5 -12.5t-8.5 -30.5z" />
    <glyph glyph-name="Abreve" unicode="&#x102;" 
d="M489 982h-163q-17 0 -28 4t-17 15.5t-6 31.5t6 52t13 52t16.5 31t22 15t29.5 4h470q40 0 62 -15t27 -50l129 -917h91q17 0 28 -4t17 -15t6 -31t-6 -52t-13 -52t-16.5 -31.5t-22 -15.5t-29.5 -4h-424q-17 0 -28 4t-17 15.5t-6 31.5t6 52t13 52t16.5 31t22 15t29.5 4h90
l-20 145h-364l-70 -145h70q17 0 28 -4t17 -15t6 -31t-6 -52t-13 -52t-16.5 -31.5t-22 -15.5t-29.5 -4h-404q-17 0 -28 4t-16.5 15.5t-5.5 31.5t5 52q6 32 13 52t16.5 31t22 15t29.5 4h80zM766 555l-44 427h-6l-199 -427h249zM727 1311q-163 0 -252.5 68t-109.5 189
q-4 20 10.5 40.5t43.5 33.5q32 14 58 13.5t36 -20.5q28 -59 81 -89.5t149 -30.5q48 0 85 8t67 23.5t54 38t46 50.5q16 18 41 19.5t55 -10.5q28 -11 43 -31.5t5 -44.5q-23 -58 -60 -105.5t-88 -81t-117 -52t-147 -18.5z" />
    <glyph glyph-name="Amacron" unicode="&#x100;" 
d="M489 982h-163q-17 0 -28 4t-17 15.5t-6 31.5t6 52t13 52t16.5 31t22 15t29.5 4h470q40 0 62 -15t27 -50l129 -917h91q17 0 28 -4t17 -15t6 -31t-6 -52t-13 -52t-16.5 -31.5t-22 -15.5t-29.5 -4h-424q-17 0 -28 4t-17 15.5t-6 31.5t6 52t13 52t16.5 31t22 15t29.5 4h90
l-20 145h-364l-70 -145h70q17 0 28 -4t17 -15t6 -31t-6 -52t-13 -52t-16.5 -31.5t-22 -15.5t-29.5 -4h-404q-17 0 -28 4t-16.5 15.5t-5.5 31.5t5 52q6 32 13 52t16.5 31t22 15t29.5 4h80zM766 555l-44 427h-6l-199 -427h249zM1029 1545q17 0 28 -4t17 -15.5t6 -31.5t-6 -52
t-13 -52t-16.5 -31t-22 -15t-29.5 -4h-562q-17 0 -28 4t-17 15t-6 31t6 52t13 52t16.5 31.5t22 15.5t29.5 4h562z" />
    <glyph glyph-name="Aogonek" unicode="&#x104;" 
d="M811 -472q-105 0 -163.5 45.5t-58.5 126.5q0 48 17.5 90t49 79t73.5 69.5t92 61.5h-140q-17 0 -28 4t-17 15.5t-6 31.5t6 52t13 52t16.5 31t22 15t29.5 4h90l-20 145h-364l-70 -145h70q17 0 28 -4t17 -15t6 -31t-6 -52t-13 -52t-16.5 -31.5t-22 -15.5t-29.5 -4h-404
q-17 0 -28 4t-16.5 15.5t-5.5 31.5t5 52q6 32 13 52t16.5 31t22 15t29.5 4h80l390 777h-163q-17 0 -28 4t-17 15.5t-6 31.5t6 52t13 52t16.5 31t22 15t29.5 4h470q40 0 62 -15t27 -50l129 -917h91q17 0 28 -4t17 -15t6 -31t-6 -52t-13 -52t-16.5 -31.5t-22 -15.5t-29.5 -4
h-65q-43 -32 -80 -63t-64 -60.5t-42 -57.5t-15 -54q0 -34 20.5 -48.5t57.5 -14.5q29 0 59 4t60 9q43 8 52 -65q5 -38 -6 -58.5t-34 -27.5q-50 -16 -113.5 -26t-123.5 -10zM766 555l-44 427h-6l-199 -427h249z" />
    <glyph glyph-name="Cacute" unicode="&#x106;" 
d="M1016 1146q7 34 38 48.5t95 14.5t83.5 -14.5t13.5 -48.5l-68 -384q-6 -34 -38.5 -48.5t-104.5 -14.5q-36 0 -58 3.5t-34 11t-15 19.5t0 29q9 48 2.5 88.5t-27.5 70t-57.5 45.5t-88.5 16q-82 0 -146 -34.5t-111 -100.5q-26 -37 -45.5 -82.5t-33 -95t-20.5 -99.5t-7 -95
q0 -131 60 -200.5t176 -69.5q46 0 89 7t86 19.5t86.5 30.5t90.5 40q33 15 58 -2t42 -75q17 -60 7.5 -92.5t-44.5 -48.5q-114 -52 -226 -79t-219 -27q-108 0 -195 35t-148.5 99t-95 155t-33.5 204q0 71 12.5 145.5t38 146.5t62.5 137.5t87 119.5q85 93 194.5 141t234.5 48
q94 0 155.5 -36.5t90.5 -94.5zM999 1662q28 16 59 -3.5t61 -87.5q30 -69 26.5 -102.5t-29.5 -40.5l-480 -125q-24 -7 -42 4.5t-26 34.5q-8 22 -2.5 41.5t25.5 31.5z" />
    <glyph glyph-name="Ccaron" unicode="&#x10c;" 
d="M1016 1146q7 34 38 48.5t95 14.5t83.5 -14.5t13.5 -48.5l-68 -384q-6 -34 -38.5 -48.5t-104.5 -14.5q-36 0 -58 3.5t-34 11t-15 19.5t0 29q9 48 2.5 88.5t-27.5 70t-57.5 45.5t-88.5 16q-82 0 -146 -34.5t-111 -100.5q-26 -37 -45.5 -82.5t-33 -95t-20.5 -99.5t-7 -95
q0 -131 60 -200.5t176 -69.5q46 0 89 7t86 19.5t86.5 30.5t90.5 40q33 15 58 -2t42 -75q17 -60 7.5 -92.5t-44.5 -48.5q-114 -52 -226 -79t-219 -27q-108 0 -195 35t-148.5 99t-95 155t-33.5 204q0 71 12.5 145.5t38 146.5t62.5 137.5t87 119.5q85 93 194.5 141t234.5 48
q94 0 155.5 -36.5t90.5 -94.5zM1086 1654q39 17 64 -30q11 -20 10.5 -36.5t-18.5 -31.5l-323 -261q-24 -18 -58 -18t-52 18l-251 261q-29 31 -2 72q13 20 31 29t41 -3l255 -134z" />
    <glyph glyph-name="Ccircumflex" unicode="&#x108;" 
d="M1016 1146q7 34 38 48.5t95 14.5t83.5 -14.5t13.5 -48.5l-68 -384q-6 -34 -38.5 -48.5t-104.5 -14.5q-36 0 -58 3.5t-34 11t-15 19.5t0 29q9 48 2.5 88.5t-27.5 70t-57.5 45.5t-88.5 16q-82 0 -146 -34.5t-111 -100.5q-26 -37 -45.5 -82.5t-33 -95t-20.5 -99.5t-7 -95
q0 -131 60 -200.5t176 -69.5q46 0 89 7t86 19.5t86.5 30.5t90.5 40q33 15 58 -2t42 -75q17 -60 7.5 -92.5t-44.5 -48.5q-114 -52 -226 -79t-219 -27q-108 0 -195 35t-148.5 99t-95 155t-33.5 204q0 71 12.5 145.5t38 146.5t62.5 137.5t87 119.5q85 93 194.5 141t234.5 48
q94 0 155.5 -36.5t90.5 -94.5zM516 1299q-39 -17 -64 30q-11 20 -11 37t19 31l323 261q24 18 58 18q16 0 30 -4t22 -14l251 -261q29 -31 2 -72q-13 -20 -31 -29t-41 3l-255 134z" />
    <glyph glyph-name="Cdotaccent" unicode="&#x10a;" 
d="M1016 1146q7 34 38 48.5t95 14.5t83.5 -14.5t13.5 -48.5l-68 -384q-6 -34 -38.5 -48.5t-104.5 -14.5q-36 0 -58 3.5t-34 11t-15 19.5t0 29q9 48 2.5 88.5t-27.5 70t-57.5 45.5t-88.5 16q-82 0 -146 -34.5t-111 -100.5q-26 -37 -45.5 -82.5t-33 -95t-20.5 -99.5t-7 -95
q0 -131 60 -200.5t176 -69.5q46 0 89 7t86 19.5t86.5 30.5t90.5 40q33 15 58 -2t42 -75q17 -60 7.5 -92.5t-44.5 -48.5q-114 -52 -226 -79t-219 -27q-108 0 -195 35t-148.5 99t-95 155t-33.5 204q0 71 12.5 145.5t38 146.5t62.5 137.5t87 119.5q85 93 194.5 141t234.5 48
q94 0 155.5 -36.5t90.5 -94.5zM778 1316q-35 0 -64 12.5t-50 34.5t-33 50.5t-12 61.5q0 38 15.5 74t43 64.5t65 45.5t81.5 17q34 0 63 -12.5t50 -34t33 -50t12 -60.5q0 -39 -14.5 -75.5t-41.5 -65t-64.5 -45.5t-83.5 -17z" />
    <glyph glyph-name="Dcaron" unicode="&#x10e;" 
d="M323 982h-97q-17 0 -28 4t-17 15t-6 31t6 52t13 52t16.5 31.5t22 15.5t29.5 4h451q114 0 204 -32t152.5 -92.5t95.5 -147.5t33 -197q0 -60 -10.5 -128.5t-31.5 -137t-53 -133t-76 -116.5q-85 -102 -205.5 -152.5t-277.5 -50.5h-491q-17 0 -28.5 4t-17 15t-6 31t5.5 52
t13 52t16.5 31.5t22.5 15.5t30 4h97zM542 215q172 0 272 120q31 37 53 83.5t36.5 96.5t21.5 101t7 96q0 129 -64 194.5t-193 65.5h-104l-133 -757h104zM1036 1644q39 17 64 -30q11 -20 10.5 -36.5t-18.5 -31.5l-323 -261q-24 -18 -58 -18t-52 18l-251 261q-29 31 -2 72
q13 20 31 29t41 -3l255 -134z" />
    <glyph glyph-name="Dcroat" unicode="&#x110;" 
d="M323 982h-97q-17 0 -28 4t-17 15t-6 31t6 52t13 52t16.5 31.5t22 15.5t29.5 4h451q114 0 204 -32t152.5 -92.5t95.5 -147.5t33 -197q0 -60 -10.5 -128.5t-31.5 -137t-53 -133t-76 -116.5q-85 -102 -205.5 -152.5t-277.5 -50.5h-491q-17 0 -28.5 4t-17 15t-6 31t5.5 52
t13 52t16.5 31.5t22.5 15.5t30 4h97zM542 215q172 0 272 120q31 37 53 83.5t36.5 96.5t21.5 101t7 96q0 129 -64 194.5t-193 65.5h-104l-133 -757h104zM1039 1545q17 0 28 -4t17 -15.5t6 -31.5t-6 -52t-13 -52t-16.5 -31t-22 -15t-29.5 -4h-562q-17 0 -28 4t-17 15t-6 31
t6 52t13 52t16.5 31.5t22 15.5t29.5 4h562z" />
    <glyph glyph-name="Ebreve" unicode="&#x114;" 
d="M323 982h-97q-17 0 -28 4t-17 15t-6 31t6 52t13 52t16.5 31.5t22 15.5t29.5 4h912q35 0 47 -15t6 -50l-53 -302q-6 -34 -37.5 -48.5t-95.5 -14.5t-83.5 14.5t-13.5 48.5l27 152h-400l-45 -253h244q17 0 28 -5t16.5 -17t5.5 -33t-6 -53t-13 -52.5t-17 -32.5t-22.5 -17
t-29.5 -5h-244l-51 -289h410l36 202q6 34 37.5 48.5t99.5 14.5q34 0 55.5 -3.5t33 -11t14.5 -19.5t0 -29l-62 -352q-6 -35 -23.5 -50t-52.5 -15h-932q-17 0 -28.5 4t-17 15t-6 31t5.5 52t13 52t16.5 31.5t22.5 15.5t30 4h97zM767 1311q-163 0 -252.5 68t-109.5 189
q-4 20 10.5 40.5t43.5 33.5q32 14 58 13.5t36 -20.5q28 -59 81 -89.5t149 -30.5q48 0 85 8t67 23.5t54 38t46 50.5q16 18 41 19.5t55 -10.5q28 -11 43 -31.5t5 -44.5q-23 -58 -60 -105.5t-88 -81t-117 -52t-147 -18.5z" />
    <glyph glyph-name="Ecaron" unicode="&#x11a;" 
d="M323 982h-97q-17 0 -28 4t-17 15t-6 31t6 52t13 52t16.5 31.5t22 15.5t29.5 4h912q35 0 47 -15t6 -50l-53 -302q-6 -34 -37.5 -48.5t-95.5 -14.5t-83.5 14.5t-13.5 48.5l27 152h-400l-45 -253h244q17 0 28 -5t16.5 -17t5.5 -33t-6 -53t-13 -52.5t-17 -32.5t-22.5 -17
t-29.5 -5h-244l-51 -289h410l36 202q6 34 37.5 48.5t99.5 14.5q34 0 55.5 -3.5t33 -11t14.5 -19.5t0 -29l-62 -352q-6 -35 -23.5 -50t-52.5 -15h-932q-17 0 -28.5 4t-17 15t-6 31t5.5 52t13 52t16.5 31.5t22.5 15.5t30 4h97zM1066 1644q39 17 64 -30q11 -20 10.5 -36.5
t-18.5 -31.5l-323 -261q-24 -18 -58 -18t-52 18l-251 261q-29 31 -2 72q13 20 31 29t41 -3l255 -134z" />
    <glyph glyph-name="Edotaccent" unicode="&#x116;" 
d="M323 982h-97q-17 0 -28 4t-17 15t-6 31t6 52t13 52t16.5 31.5t22 15.5t29.5 4h912q35 0 47 -15t6 -50l-53 -302q-6 -34 -37.5 -48.5t-95.5 -14.5t-83.5 14.5t-13.5 48.5l27 152h-400l-45 -253h244q17 0 28 -5t16.5 -17t5.5 -33t-6 -53t-13 -52.5t-17 -32.5t-22.5 -17
t-29.5 -5h-244l-51 -289h410l36 202q6 34 37.5 48.5t99.5 14.5q34 0 55.5 -3.5t33 -11t14.5 -19.5t0 -29l-62 -352q-6 -35 -23.5 -50t-52.5 -15h-932q-17 0 -28.5 4t-17 15t-6 31t5.5 52t13 52t16.5 31.5t22.5 15.5t30 4h97zM758 1316q-35 0 -64 12.5t-50 34.5t-33 50.5
t-12 61.5q0 38 15.5 74t43 64.5t65 45.5t81.5 17q34 0 63 -12.5t50 -34t33 -50t12 -60.5q0 -39 -14.5 -75.5t-41.5 -65t-64.5 -45.5t-83.5 -17z" />
    <glyph glyph-name="Emacron" unicode="&#x112;" 
d="M323 982h-97q-17 0 -28 4t-17 15t-6 31t6 52t13 52t16.5 31.5t22 15.5t29.5 4h912q35 0 47 -15t6 -50l-53 -302q-6 -34 -37.5 -48.5t-95.5 -14.5t-83.5 14.5t-13.5 48.5l27 152h-400l-45 -253h244q17 0 28 -5t16.5 -17t5.5 -33t-6 -53t-13 -52.5t-17 -32.5t-22.5 -17
t-29.5 -5h-244l-51 -289h410l36 202q6 34 37.5 48.5t99.5 14.5q34 0 55.5 -3.5t33 -11t14.5 -19.5t0 -29l-62 -352q-6 -35 -23.5 -50t-52.5 -15h-932q-17 0 -28.5 4t-17 15t-6 31t5.5 52t13 52t16.5 31.5t22.5 15.5t30 4h97zM1079 1545q17 0 28 -4t17 -15.5t6 -31.5t-6 -52
t-13 -52t-16.5 -31t-22 -15t-29.5 -4h-562q-17 0 -28 4t-17 15t-6 31t6 52t13 52t16.5 31.5t22 15.5t29.5 4h562z" />
    <glyph glyph-name="Eogonek" unicode="&#x118;" 
d="M741 -472q-105 0 -163.5 45.5t-58.5 126.5q0 48 17.5 90t49 79t73.5 69.5t92 61.5h-698q-17 0 -28.5 4t-17 15t-6 31t5.5 52t13 52t16.5 31.5t22.5 15.5t30 4h97l137 777h-97q-17 0 -28 4t-17 15t-6 31t6 52t13 52t16.5 31.5t22 15.5t29.5 4h912q35 0 47 -15t6 -50
l-53 -302q-6 -34 -37.5 -48.5t-95.5 -14.5t-83.5 14.5t-13.5 48.5l27 152h-400l-45 -253h244q17 0 28 -5t16.5 -17t5.5 -33t-6 -53t-13 -52.5t-17 -32.5t-22.5 -17t-29.5 -5h-244l-51 -289h410l36 202q6 34 37.5 48.5t99.5 14.5q34 0 55.5 -3.5t33 -11t14.5 -19.5t0 -29
l-62 -352q-6 -35 -23.5 -50t-52.5 -15h-15q-43 -32 -80 -63t-64 -60.5t-42 -57.5t-15 -54q0 -34 20.5 -48.5t57.5 -14.5q29 0 59 4t60 9q43 8 52 -65q5 -38 -6 -58.5t-34 -27.5q-50 -16 -113.5 -26t-123.5 -10z" />
    <glyph glyph-name="Gbreve" unicode="&#x11e;" 
d="M600 205q110 0 215 30l29 167h-193q-17 0 -28 4t-17 15t-6 31t6 52t13 52t16.5 31.5t22.5 15.5t30 4h474q17 0 28 -4t16.5 -15.5t5.5 -31.5t-6 -52t-13 -52t-16.5 -31t-22 -15t-29.5 -4h-31l-47 -269q-5 -24 -17 -42.5t-31 -26.5q-98 -45 -205 -65.5t-224 -20.5
q-108 0 -195 35t-148.5 99t-95 155t-33.5 204q0 71 12.5 145.5t38 146.5t62.5 137.5t87 119.5q85 93 194.5 141t234.5 48q94 0 156.5 -34t91.5 -89l11 60q6 34 37.5 48.5t95.5 14.5t83.5 -14.5t13.5 -48.5l-61 -344q-6 -34 -38.5 -48.5t-104.5 -14.5q-36 0 -58 3.5t-34 11
t-15 19.5t0 29q15 84 -27.5 132t-150.5 48q-82 0 -146 -34.5t-111 -100.5q-26 -37 -45.5 -82.5t-33 -95t-20.5 -99.5t-7 -95q0 -131 60 -200.5t176 -69.5zM757 1311q-163 0 -252.5 68t-109.5 189q-4 20 10.5 40.5t43.5 33.5q32 14 58 13.5t36 -20.5q28 -59 81 -89.5
t149 -30.5q48 0 85 8t67 23.5t54 38t46 50.5q16 18 41 19.5t55 -10.5q28 -11 43 -31.5t5 -44.5q-23 -58 -60 -105.5t-88 -81t-117 -52t-147 -18.5z" />
    <glyph glyph-name="Gcircumflex" unicode="&#x11c;" 
d="M600 205q110 0 215 30l29 167h-193q-17 0 -28 4t-17 15t-6 31t6 52t13 52t16.5 31.5t22.5 15.5t30 4h474q17 0 28 -4t16.5 -15.5t5.5 -31.5t-6 -52t-13 -52t-16.5 -31t-22 -15t-29.5 -4h-31l-47 -269q-5 -24 -17 -42.5t-31 -26.5q-98 -45 -205 -65.5t-224 -20.5
q-108 0 -195 35t-148.5 99t-95 155t-33.5 204q0 71 12.5 145.5t38 146.5t62.5 137.5t87 119.5q85 93 194.5 141t234.5 48q94 0 156.5 -34t91.5 -89l11 60q6 34 37.5 48.5t95.5 14.5t83.5 -14.5t13.5 -48.5l-61 -344q-6 -34 -38.5 -48.5t-104.5 -14.5q-36 0 -58 3.5t-34 11
t-15 19.5t0 29q15 84 -27.5 132t-150.5 48q-82 0 -146 -34.5t-111 -100.5q-26 -37 -45.5 -82.5t-33 -95t-20.5 -99.5t-7 -95q0 -131 60 -200.5t176 -69.5zM486 1299q-39 -17 -64 30q-11 20 -11 37t19 31l323 261q24 18 58 18q16 0 30 -4t22 -14l251 -261q29 -31 2 -72
q-13 -20 -31 -29t-41 3l-255 134z" />
    <glyph glyph-name="Gcommaaccent" unicode="&#x122;" 
d="M600 205q110 0 215 30l29 167h-193q-17 0 -28 4t-17 15t-6 31t6 52t13 52t16.5 31.5t22.5 15.5t30 4h474q17 0 28 -4t16.5 -15.5t5.5 -31.5t-6 -52t-13 -52t-16.5 -31t-22 -15t-29.5 -4h-31l-47 -269q-5 -24 -17 -42.5t-31 -26.5q-98 -45 -205 -65.5t-224 -20.5
q-108 0 -195 35t-148.5 99t-95 155t-33.5 204q0 71 12.5 145.5t38 146.5t62.5 137.5t87 119.5q85 93 194.5 141t234.5 48q94 0 156.5 -34t91.5 -89l11 60q6 34 37.5 48.5t95.5 14.5t83.5 -14.5t13.5 -48.5l-61 -344q-6 -34 -38.5 -48.5t-104.5 -14.5q-36 0 -58 3.5t-34 11
t-15 19.5t0 29q15 84 -27.5 132t-150.5 48q-82 0 -146 -34.5t-111 -100.5q-26 -37 -45.5 -82.5t-33 -95t-20.5 -99.5t-7 -95q0 -131 60 -200.5t176 -69.5zM494 -502q-16 -23 -41.5 -33t-57.5 -10q-34 0 -49 13t-6 46l88 313q4 13 15.5 20t25.5 7h222q17 0 20.5 -12.5
t-8.5 -30.5z" />
    <glyph glyph-name="Gdotaccent" unicode="&#x120;" 
d="M600 205q110 0 215 30l29 167h-193q-17 0 -28 4t-17 15t-6 31t6 52t13 52t16.5 31.5t22.5 15.5t30 4h474q17 0 28 -4t16.5 -15.5t5.5 -31.5t-6 -52t-13 -52t-16.5 -31t-22 -15t-29.5 -4h-31l-47 -269q-5 -24 -17 -42.5t-31 -26.5q-98 -45 -205 -65.5t-224 -20.5
q-108 0 -195 35t-148.5 99t-95 155t-33.5 204q0 71 12.5 145.5t38 146.5t62.5 137.5t87 119.5q85 93 194.5 141t234.5 48q94 0 156.5 -34t91.5 -89l11 60q6 34 37.5 48.5t95.5 14.5t83.5 -14.5t13.5 -48.5l-61 -344q-6 -34 -38.5 -48.5t-104.5 -14.5q-36 0 -58 3.5t-34 11
t-15 19.5t0 29q15 84 -27.5 132t-150.5 48q-82 0 -146 -34.5t-111 -100.5q-26 -37 -45.5 -82.5t-33 -95t-20.5 -99.5t-7 -95q0 -131 60 -200.5t176 -69.5zM768 1316q-35 0 -64 12.5t-50 34.5t-33 50.5t-12 61.5q0 38 15.5 74t43 64.5t65 45.5t81.5 17q34 0 63 -12.5t50 -34
t33 -50t12 -60.5q0 -39 -14.5 -75.5t-41.5 -65t-64.5 -45.5t-83.5 -17z" />
    <glyph glyph-name="Hbar" unicode="&#x126;" 
d="M235 768h-77q-34 0 -46 15t-5 53t24 53t51 15h77l14 78h-57q-17 0 -28 4t-17 15t-6 31t6 52t13 52t16.5 31.5t22 15.5t29.5 4h374q17 0 28 -4t17 -15.5t6 -31.5t-6 -52t-13 -52t-16.5 -31t-22 -15t-29.5 -4h-67l-14 -78h388l14 78h-67q-17 0 -28 4t-17 15t-6 31t6 52
t13 52t16.5 31.5t22 15.5t29.5 4h374q17 0 28 -4t17 -15.5t6 -31.5t-6 -52t-13 -52t-16.5 -31t-22 -15t-29.5 -4h-57l-14 -78h77q34 0 46 -15t5 -53t-24 -53t-51 -15h-77l-99 -563h57q17 0 28 -4t16.5 -15.5t5.5 -31.5t-6 -52t-12.5 -52t-16 -31t-22 -15t-29.5 -4h-374
q-17 0 -28.5 4t-17 15t-6 31t5.5 52t13 52t16.5 31.5t22.5 15.5t30 4h67l45 259h-388l-45 -259h67q17 0 28 -4t16.5 -15.5t5.5 -31.5t-6 -52t-12.5 -52t-16 -31t-22 -15t-29.5 -4h-374q-17 0 -28.5 4t-17 15t-6 31t5.5 52t13 52t16.5 31.5t22.5 15.5t30 4h57zM857 679l16 89
h-388l-16 -89h388z" />
    <glyph glyph-name="Hcircumflex" unicode="&#x124;" 
d="M273 982h-57q-17 0 -28 4t-17 15t-6 31t6 52t13 52t16.5 31.5t22 15.5t29.5 4h374q17 0 28 -4t17 -15.5t6 -31.5t-6 -52t-13 -52t-16.5 -31t-22 -15t-29.5 -4h-67l-47 -263h388l47 263h-67q-17 0 -28 4t-17 15t-6 31t6 52t13 52t16.5 31.5t22 15.5t29.5 4h374q17 0 28 -4
t17 -15.5t6 -31.5t-6 -52t-13 -52t-16.5 -31t-22 -15t-29.5 -4h-57l-137 -777h57q17 0 28 -4t16.5 -15.5t5.5 -31.5t-6 -52t-12.5 -52t-16 -31t-22 -15t-29.5 -4h-374q-17 0 -28.5 4t-17 15t-6 31t5.5 52t13 52t16.5 31.5t22.5 15.5t30 4h67l52 299h-388l-52 -299h67
q17 0 28 -4t16.5 -15.5t5.5 -31.5t-6 -52t-12.5 -52t-16 -31t-22 -15t-29.5 -4h-374q-17 0 -28.5 4t-17 15t-6 31t5.5 52t13 52t16.5 31.5t22.5 15.5t30 4h57zM476 1299q-39 -17 -64 30q-11 20 -11 37t19 31l323 261q24 18 58 18q16 0 30 -4t22 -14l251 -261q29 -31 2 -72
q-13 -20 -31 -29t-41 3l-255 134z" />
    <glyph glyph-name="Ibreve" unicode="&#x12c;" 
d="M592 982h-256q-17 0 -28 4t-17 15t-6 31t6 52t13 52t16.5 31.5t22 15.5t29.5 4h742q17 0 28 -4t17 -15.5t6 -31.5t-6 -52t-13 -52t-16.5 -31t-22 -15t-29.5 -4h-236l-137 -777h256q17 0 28 -4t16.5 -15.5t5.5 -31.5t-6 -52t-12.5 -52t-16 -31t-22 -15t-29.5 -4h-742
q-17 0 -28.5 4t-17 15t-6 31t5.5 52t13 52t16.5 31.5t22.5 15.5t30 4h236zM757 1311q-163 0 -252.5 68t-109.5 189q-4 20 10.5 40.5t43.5 33.5q32 14 58 13.5t36 -20.5q28 -59 81 -89.5t149 -30.5q48 0 85 8t67 23.5t54 38t46 50.5q16 18 41 19.5t55 -10.5q28 -11 43 -31.5
t5 -44.5q-23 -58 -60 -105.5t-88 -81t-117 -52t-147 -18.5z" />
    <glyph glyph-name="Idotaccent" unicode="&#x130;" 
d="M592 982h-256q-17 0 -28 4t-17 15t-6 31t6 52t13 52t16.5 31.5t22 15.5t29.5 4h742q17 0 28 -4t17 -15.5t6 -31.5t-6 -52t-13 -52t-16.5 -31t-22 -15t-29.5 -4h-236l-137 -777h256q17 0 28 -4t16.5 -15.5t5.5 -31.5t-6 -52t-12.5 -52t-16 -31t-22 -15t-29.5 -4h-742
q-17 0 -28.5 4t-17 15t-6 31t5.5 52t13 52t16.5 31.5t22.5 15.5t30 4h236zM758 1316q-35 0 -64 12.5t-50 34.5t-33 50.5t-12 61.5q0 38 15.5 74t43 64.5t65 45.5t81.5 17q34 0 63 -12.5t50 -34t33 -50t12 -60.5q0 -39 -14.5 -75.5t-41.5 -65t-64.5 -45.5t-83.5 -17z" />
    <glyph glyph-name="Imacron" unicode="&#x12a;" 
d="M592 982h-256q-17 0 -28 4t-17 15t-6 31t6 52t13 52t16.5 31.5t22 15.5t29.5 4h742q17 0 28 -4t17 -15.5t6 -31.5t-6 -52t-13 -52t-16.5 -31t-22 -15t-29.5 -4h-236l-137 -777h256q17 0 28 -4t16.5 -15.5t5.5 -31.5t-6 -52t-12.5 -52t-16 -31t-22 -15t-29.5 -4h-742
q-17 0 -28.5 4t-17 15t-6 31t5.5 52t13 52t16.5 31.5t22.5 15.5t30 4h236zM1079 1545q17 0 28 -4t17 -15.5t6 -31.5t-6 -52t-13 -52t-16.5 -31t-22 -15t-29.5 -4h-562q-17 0 -28 4t-17 15t-6 31t6 52t13 52t16.5 31.5t22 15.5t29.5 4h562z" />
    <glyph glyph-name="Iogonek" unicode="&#x12e;" 
d="M431 -472q-105 0 -163.5 45.5t-58.5 126.5q0 48 17.5 90t49 79t73.5 69.5t92 61.5h-258q-17 0 -28.5 4t-17 15t-6 31t5.5 52t13 52t16.5 31.5t22.5 15.5t30 4h236l137 777h-256q-17 0 -28 4t-17 15t-6 31t6 52t13 52t16.5 31.5t22 15.5t29.5 4h742q17 0 28 -4t17 -15.5
t6 -31.5t-6 -52t-13 -52t-16.5 -31t-22 -15t-29.5 -4h-236l-137 -777h256q17 0 28 -4t16.5 -15.5t5.5 -31.5t-6 -52t-12.5 -52t-16 -31t-22 -15t-29.5 -4h-265q-43 -32 -80 -63t-64 -60.5t-42 -57.5t-15 -54q0 -34 20.5 -48.5t57.5 -14.5q29 0 59 4t60 9q43 8 52 -65
q5 -38 -6 -58.5t-34 -27.5q-50 -16 -113.5 -26t-123.5 -10z" />
    <glyph glyph-name="Itilde" unicode="&#x128;" 
d="M592 982h-256q-17 0 -28 4t-17 15t-6 31t6 52t13 52t16.5 31.5t22 15.5t29.5 4h742q17 0 28 -4t17 -15.5t6 -31.5t-6 -52t-13 -52t-16.5 -31t-22 -15t-29.5 -4h-236l-137 -777h256q17 0 28 -4t16.5 -15.5t5.5 -31.5t-6 -52t-12.5 -52t-16 -31t-22 -15t-29.5 -4h-742
q-17 0 -28.5 4t-17 15t-6 31t5.5 52t13 52t16.5 31.5t22.5 15.5t30 4h236zM927 1510q27 0 58.5 7t63.5 24q23 13 43 2t35 -39q14 -26 15 -51.5t-19 -41.5q-60 -50 -109 -71.5t-94 -21.5q-42 0 -80 11.5t-74 25.5t-71.5 25.5t-72.5 11.5q-29 0 -60.5 -7t-63.5 -24
q-22 -12 -41.5 -1t-34.5 39q-14 26 -15.5 51t17.5 41q60 52 110 72.5t95 20.5q41 0 79 -11.5t74 -25.5t72 -25.5t73 -11.5z" />
    <glyph glyph-name="Jcircumflex" unicode="&#x134;" 
d="M466 982q-17 0 -28 4t-17 15t-6 31t6 52t13 52t16.5 31.5t22 15.5t29.5 4h742q17 0 28 -4t17 -15.5t6 -31.5t-6 -52t-13 -52t-16.5 -31t-22 -15t-29.5 -4h-176l-111 -629q-17 -97 -54 -167.5t-95 -116.5t-138 -68.5t-184 -22.5q-118 0 -217.5 41.5t-163.5 115.5
q-14 15 -8 50l55 314q6 34 39 48.5t105 14.5q36 0 58 -3.5t33.5 -11t14.5 -19.5t0 -29l-44 -255q63 -39 159 -39q81 0 129.5 42.5t65.5 135.5l106 599h-316zM636 1299q-39 -17 -64 30q-11 20 -11 37t19 31l323 261q24 18 58 18q16 0 30 -4t22 -14l251 -261q29 -31 2 -72
q-13 -20 -31 -29t-41 3l-255 134z" />
    <glyph glyph-name="Kcommaaccent" unicode="&#x136;" 
d="M323 982h-107q-17 0 -28 4t-17 15t-6 31t6 52t13 52t16.5 31.5t22 15.5t29.5 4h404q17 0 28 -4t17 -15.5t6 -31.5t-6 -52t-13 -52t-16.5 -31t-22 -15t-29.5 -4h-47l-55 -310l369 310h-43q-17 0 -28 4t-17 15t-6 31t6 52t13 52t16.5 31.5t22 15.5t29.5 4h389q17 0 28 -4
t17 -15.5t6 -31.5t-6 -52t-13 -52t-16.5 -31t-22 -15t-29.5 -4h-33l-410 -341q56 -3 89.5 -31t58.5 -75q16 -31 28 -64t22 -66t19.5 -64.5t20.5 -58.5q14 -35 35 -56t53 -21h15q17 0 28 -4t16.5 -15.5t5.5 -31.5t-6 -52t-12.5 -52t-16 -31t-22 -15t-29.5 -4h-129
q-33 0 -58.5 11.5t-45 31t-33.5 45t-24 54.5q-11 30 -20 62t-18 63.5t-18.5 61t-20.5 53.5q-19 38 -45.5 60.5t-61.5 22.5q-21 0 -42.5 -8t-42.5 -26l-71 -60l-29 -166h115q17 0 28 -4t16.5 -15.5t5.5 -31.5t-6 -52t-12.5 -52t-16 -31t-22 -15t-29.5 -4h-472q-17 0 -28.5 4
t-17 15t-6 31t5.5 52t13 52t16.5 31.5t22.5 15.5t30 4h107zM514 -502q-16 -23 -41.5 -33t-57.5 -10q-34 0 -49 13t-6 46l88 313q4 13 15.5 20t25.5 7h222q17 0 20.5 -12.5t-8.5 -30.5z" />
    <glyph glyph-name="Lacute" unicode="&#x139;" 
d="M372 982h-146q-17 0 -28 4t-17 15t-6 31t6 52t13 52t16.5 31.5t22 15.5t29.5 4h614q17 0 28 -4t17 -15.5t6 -31.5t-6 -52t-13 -52t-16.5 -31t-22 -15t-29.5 -4h-218l-136 -767h351l55 312q6 34 39 48.5t105 14.5q36 0 58 -3.5t33.5 -11t14.5 -19.5t0 -29l-81 -462
q-6 -35 -23.5 -50t-52.5 -15h-932q-17 0 -28.5 4t-17 15t-6 31t5.5 52t13 52t16.5 31.5t22.5 15.5t30 4h146zM769 1662q28 16 59 -3.5t61 -87.5q30 -69 26.5 -102.5t-29.5 -40.5l-480 -125q-24 -7 -42 4.5t-26 34.5q-8 22 -2.5 41.5t25.5 31.5z" />
    <glyph glyph-name="Lcaron" unicode="&#x13d;" 
d="M372 982h-146q-17 0 -28 4t-17 15t-6 31t6 52t13 52t16.5 31.5t22 15.5t29.5 4h614q17 0 28 -4t17 -15.5t6 -31.5t-6 -52t-13 -52t-16.5 -31t-22 -15t-29.5 -4h-218l-136 -767h351l55 312q6 34 39 48.5t105 14.5q36 0 58 -3.5t33.5 -11t14.5 -19.5t0 -29l-81 -462
q-6 -35 -23.5 -50t-52.5 -15h-932q-17 0 -28.5 4t-17 15t-6 31t5.5 52t13 52t16.5 31.5t22.5 15.5t30 4h146zM1006.87 728.428q-19.0127 -27.3164 -40.5068 -38.9043q-21.4922 -11.5889 -56.2129 -11.5889q-41.332 0 -54.5586 16.1416q-13.2266 16.1406 0.826172 55.0459
l138.879 390.702q5.78711 16.5547 18.5996 24.832q12.8135 8.27832 30.1738 8.27832h214.104q20.667 0 24.3867 -15.3135q3.71973 -15.3145 -10.333 -36.8359z" />
    <glyph glyph-name="Lcommaaccent" unicode="&#x13b;" 
d="M372 982h-146q-17 0 -28 4t-17 15t-6 31t6 52t13 52t16.5 31.5t22 15.5t29.5 4h614q17 0 28 -4t17 -15.5t6 -31.5t-6 -52t-13 -52t-16.5 -31t-22 -15t-29.5 -4h-218l-136 -767h351l55 312q6 34 39 48.5t105 14.5q36 0 58 -3.5t33.5 -11t14.5 -19.5t0 -29l-81 -462
q-6 -35 -23.5 -50t-52.5 -15h-932q-17 0 -28.5 4t-17 15t-6 31t5.5 52t13 52t16.5 31.5t22.5 15.5t30 4h146zM484 -502q-16 -23 -41.5 -33t-57.5 -10q-34 0 -49 13t-6 46l88 313q4 13 15.5 20t25.5 7h222q17 0 20.5 -12.5t-8.5 -30.5z" />
    <glyph glyph-name="Ldot" unicode="&#x13f;" 
d="M372 982h-146q-17 0 -28 4t-17 15t-6 31t6 52t13 52t16.5 31.5t22 15.5t29.5 4h614q17 0 28 -4t17 -15.5t6 -31.5t-6 -52t-13 -52t-16.5 -31t-22 -15t-29.5 -4h-218l-136 -767h351l33 182q5 34 38 48.5t105 14.5q36 0 58 -3.5t34 -11t15 -19.5t0 -29l-59 -332
q-6 -35 -23.5 -50t-52.5 -15h-932q-17 0 -28.5 4t-17 15t-6 31t5.5 52t13 52t16.5 31.5t22.5 15.5t30 4h146zM848 536q-35 0 -64 12.5t-50 34.5t-33 50.5t-12 61.5q0 38 15.5 74t43 64.5t65 45.5t81.5 17q34 0 63 -12.5t50 -34t33 -50t12 -60.5q0 -39 -14.5 -75.5t-41.5 -65
t-64.5 -45.5t-83.5 -17z" />
    <glyph glyph-name="Nacute" unicode="&#x143;" 
d="M283 982h-67q-17 0 -28 4t-17 15t-6 31t6 52t13 52t16.5 31.5t22 15.5t29.5 4h264q19 0 32 -6t19 -21l290 -707l94 529h-88q-17 0 -28 4t-17 15t-6 31t6 52t13 52t16.5 31.5t22 15.5t29.5 4h375q17 0 28 -4t17 -15.5t6 -31.5t-6 -52t-13 -52t-16.5 -31t-22 -15t-29.5 -4
h-57l-166 -938q-5 -32 -31.5 -49t-89.5 -17q-24 0 -40.5 3.5t-28 10t-18.5 16.5t-12 23l-315 765l-104 -591h107q17 0 28 -4t16.5 -15.5t5.5 -31.5t-6 -52t-12.5 -52t-16 -31t-22 -15t-29.5 -4h-404q-17 0 -28.5 4t-17 15t-6 31t5.5 52t13 52t16.5 31.5t22.5 15.5t30 4h67z
M979 1662q28 16 59 -3.5t61 -87.5q30 -69 26.5 -102.5t-29.5 -40.5l-480 -125q-24 -7 -42 4.5t-26 34.5q-8 22 -2.5 41.5t25.5 31.5z" />
    <glyph glyph-name="Ncaron" unicode="&#x147;" 
d="M283 982h-67q-17 0 -28 4t-17 15t-6 31t6 52t13 52t16.5 31.5t22 15.5t29.5 4h264q19 0 32 -6t19 -21l290 -707l94 529h-88q-17 0 -28 4t-17 15t-6 31t6 52t13 52t16.5 31.5t22 15.5t29.5 4h375q17 0 28 -4t17 -15.5t6 -31.5t-6 -52t-13 -52t-16.5 -31t-22 -15t-29.5 -4
h-57l-166 -938q-5 -32 -31.5 -49t-89.5 -17q-24 0 -40.5 3.5t-28 10t-18.5 16.5t-12 23l-315 765l-104 -591h107q17 0 28 -4t16.5 -15.5t5.5 -31.5t-6 -52t-12.5 -52t-16 -31t-22 -15t-29.5 -4h-404q-17 0 -28.5 4t-17 15t-6 31t5.5 52t13 52t16.5 31.5t22.5 15.5t30 4h67z
M1066 1654q39 17 64 -30q11 -20 10.5 -36.5t-18.5 -31.5l-323 -261q-24 -18 -58 -18t-52 18l-251 261q-29 31 -2 72q13 20 31 29t41 -3l255 -134z" />
    <glyph glyph-name="Ncommaaccent" unicode="&#x145;" 
d="M283 982h-67q-17 0 -28 4t-17 15t-6 31t6 52t13 52t16.5 31.5t22 15.5t29.5 4h264q19 0 32 -6t19 -21l290 -707l94 529h-88q-17 0 -28 4t-17 15t-6 31t6 52t13 52t16.5 31.5t22 15.5t29.5 4h375q17 0 28 -4t17 -15.5t6 -31.5t-6 -52t-13 -52t-16.5 -31t-22 -15t-29.5 -4
h-57l-166 -938q-5 -32 -31.5 -49t-89.5 -17q-24 0 -40.5 3.5t-28 10t-18.5 16.5t-12 23l-315 765l-104 -591h107q17 0 28 -4t16.5 -15.5t5.5 -31.5t-6 -52t-12.5 -52t-16 -31t-22 -15t-29.5 -4h-404q-17 0 -28.5 4t-17 15t-6 31t5.5 52t13 52t16.5 31.5t22.5 15.5t30 4h67z
M484 -502q-16 -23 -41.5 -33t-57.5 -10q-34 0 -49 13t-6 46l88 313q4 13 15.5 20t25.5 7h222q17 0 20.5 -12.5t-8.5 -30.5z" />
    <glyph glyph-name="Obreve" unicode="&#x14e;" 
d="M580 205q81 0 144.5 34t110.5 99q27 38 47.5 85t34 97.5t20.5 101.5t7 98q0 127 -56 194.5t-171 67.5q-81 0 -144.5 -34t-110.5 -99q-27 -38 -47.5 -85t-34 -97.5t-20.5 -102t-7 -97.5q0 -127 56 -194.5t171 -67.5zM560 -22q-108 0 -195 35t-148.5 99t-95 155t-33.5 204
q0 59 9.5 123t28 127t46 123t63.5 112q87 124 214.5 188.5t287.5 64.5q108 0 195 -35t148.5 -99t95 -155.5t33.5 -203.5q0 -59 -9.5 -123t-28 -127t-46 -123t-63.5 -112q-87 -124 -214.5 -188.5t-287.5 -64.5zM757 1311q-163 0 -252.5 68t-109.5 189q-4 20 10.5 40.5
t43.5 33.5q32 14 58 13.5t36 -20.5q28 -59 81 -89.5t149 -30.5q48 0 85 8t67 23.5t54 38t46 50.5q16 18 41 19.5t55 -10.5q28 -11 43 -31.5t5 -44.5q-23 -58 -60 -105.5t-88 -81t-117 -52t-147 -18.5z" />
    <glyph glyph-name="Ohungarumlaut" unicode="&#x150;" 
d="M580 205q81 0 144.5 34t110.5 99q27 38 47.5 85t34 97.5t20.5 101.5t7 98q0 127 -56 194.5t-171 67.5q-81 0 -144.5 -34t-110.5 -99q-27 -38 -47.5 -85t-34 -97.5t-20.5 -102t-7 -97.5q0 -127 56 -194.5t171 -67.5zM560 -22q-108 0 -195 35t-148.5 99t-95 155t-33.5 204
q0 59 9.5 123t28 127t46 123t63.5 112q87 124 214.5 188.5t287.5 64.5q108 0 195 -35t148.5 -99t95 -155.5t33.5 -203.5q0 -59 -9.5 -123t-28 -127t-46 -123t-63.5 -112q-87 -124 -214.5 -188.5t-287.5 -64.5zM601 1336q-18 -13 -50 -13q-35 0 -58.5 17.5t-23.5 40.5
q0 17 12 29l198 210q16 17 41 25t54 8q32 0 57 -8.5t42 -21t26 -26.5t9 -26q0 -21 -19 -34zM1001 1336q-18 -13 -50 -13q-35 0 -58.5 17.5t-23.5 40.5q0 17 12 29l198 210q16 17 41 25t54 8q32 0 57 -8.5t42 -21t26 -26.5t9 -26q0 -21 -19 -34z" />
    <glyph glyph-name="Omacron" unicode="&#x14c;" 
d="M580 205q81 0 144.5 34t110.5 99q27 38 47.5 85t34 97.5t20.5 101.5t7 98q0 127 -56 194.5t-171 67.5q-81 0 -144.5 -34t-110.5 -99q-27 -38 -47.5 -85t-34 -97.5t-20.5 -102t-7 -97.5q0 -127 56 -194.5t171 -67.5zM560 -22q-108 0 -195 35t-148.5 99t-95 155t-33.5 204
q0 59 9.5 123t28 127t46 123t63.5 112q87 124 214.5 188.5t287.5 64.5q108 0 195 -35t148.5 -99t95 -155.5t33.5 -203.5q0 -59 -9.5 -123t-28 -127t-46 -123t-63.5 -112q-87 -124 -214.5 -188.5t-287.5 -64.5zM1079 1545q17 0 28 -4t17 -15.5t6 -31.5t-6 -52t-13 -52
t-16.5 -31t-22 -15t-29.5 -4h-562q-17 0 -28 4t-17 15t-6 31t6 52t13 52t16.5 31.5t22 15.5t29.5 4h562z" />
    <glyph glyph-name="Racute" unicode="&#x154;" 
d="M333 982h-107q-17 0 -28 4t-17 15t-6 31t6 52t13 52t16.5 31.5t22 15.5t29.5 4h517q186 0 286.5 -78t100.5 -221q0 -64 -16 -121t-51.5 -104t-93 -82t-139.5 -55q44 -21 72 -57q18 -23 31 -49t23.5 -51.5t19 -50.5t18.5 -47q14 -29 32 -47.5t46 -18.5h23q17 0 28 -4
t16.5 -15.5t5.5 -31.5t-6 -52t-12.5 -52t-16 -31t-22 -15t-29.5 -4h-100q-66 0 -109 33.5t-74 105.5q-12 26 -21 54.5t-18.5 57.5t-20.5 57.5t-25 55.5q-14 26 -31 44.5t-39.5 30t-52.5 17t-70 5.5h-43l-45 -256h127q17 0 28 -4t16.5 -15.5t5.5 -31.5t-6 -52t-12.5 -52
t-16 -31t-22 -15t-29.5 -4h-484q-17 0 -28.5 4t-17 15t-6 31t5.5 52t13 52t16.5 31.5t22.5 15.5t30 4h107zM678 676q128 0 183 58q22 23 34 56.5t12 66.5q0 58 -43 86.5t-134 28.5h-149l-52 -296h149zM959 1662q28 16 59 -3.5t61 -87.5q30 -69 26.5 -102.5t-29.5 -40.5
l-480 -125q-24 -7 -42 4.5t-26 34.5q-8 22 -2.5 41.5t25.5 31.5z" />
    <glyph glyph-name="Rcaron" unicode="&#x158;" 
d="M333 982h-107q-17 0 -28 4t-17 15t-6 31t6 52t13 52t16.5 31.5t22 15.5t29.5 4h517q186 0 286.5 -78t100.5 -221q0 -64 -16 -121t-51.5 -104t-93 -82t-139.5 -55q44 -21 72 -57q18 -23 31 -49t23.5 -51.5t19 -50.5t18.5 -47q14 -29 32 -47.5t46 -18.5h23q17 0 28 -4
t16.5 -15.5t5.5 -31.5t-6 -52t-12.5 -52t-16 -31t-22 -15t-29.5 -4h-100q-66 0 -109 33.5t-74 105.5q-12 26 -21 54.5t-18.5 57.5t-20.5 57.5t-25 55.5q-14 26 -31 44.5t-39.5 30t-52.5 17t-70 5.5h-43l-45 -256h127q17 0 28 -4t16.5 -15.5t5.5 -31.5t-6 -52t-12.5 -52
t-16 -31t-22 -15t-29.5 -4h-484q-17 0 -28.5 4t-17 15t-6 31t5.5 52t13 52t16.5 31.5t22.5 15.5t30 4h107zM678 676q128 0 183 58q22 23 34 56.5t12 66.5q0 58 -43 86.5t-134 28.5h-149l-52 -296h149zM1046 1654q39 17 64 -30q11 -20 10.5 -36.5t-18.5 -31.5l-323 -261
q-24 -18 -58 -18t-52 18l-251 261q-29 31 -2 72q13 20 31 29t41 -3l255 -134z" />
    <glyph glyph-name="Rcommaaccent" unicode="&#x156;" 
d="M333 982h-107q-17 0 -28 4t-17 15t-6 31t6 52t13 52t16.5 31.5t22 15.5t29.5 4h517q186 0 286.5 -78t100.5 -221q0 -64 -16 -121t-51.5 -104t-93 -82t-139.5 -55q44 -21 72 -57q18 -23 31 -49t23.5 -51.5t19 -50.5t18.5 -47q14 -29 32 -47.5t46 -18.5h23q17 0 28 -4
t16.5 -15.5t5.5 -31.5t-6 -52t-12.5 -52t-16 -31t-22 -15t-29.5 -4h-100q-66 0 -109 33.5t-74 105.5q-12 26 -21 54.5t-18.5 57.5t-20.5 57.5t-25 55.5q-14 26 -31 44.5t-39.5 30t-52.5 17t-70 5.5h-43l-45 -256h127q17 0 28 -4t16.5 -15.5t5.5 -31.5t-6 -52t-12.5 -52
t-16 -31t-22 -15t-29.5 -4h-484q-17 0 -28.5 4t-17 15t-6 31t5.5 52t13 52t16.5 31.5t22.5 15.5t30 4h107zM678 676q128 0 183 58q22 23 34 56.5t12 66.5q0 58 -43 86.5t-134 28.5h-149l-52 -296h149zM524 -502q-16 -23 -41.5 -33t-57.5 -10q-34 0 -49 13t-6 46l88 313
q4 13 15.5 20t25.5 7h222q17 0 20.5 -12.5t-8.5 -30.5z" />
    <glyph glyph-name="Sacute" unicode="&#x15a;" 
d="M326 41q-5 -34 -32 -48.5t-91 -14.5t-88.5 14.5t-18.5 48.5l59 334q6 34 30 48.5t73 14.5q35 0 53.5 -9t26.5 -31q35 -102 100 -154.5t167 -52.5q59 0 98.5 15.5t63.5 39t34 51.5t10 54q0 38 -22 62t-60 41q-41 19 -95.5 32t-112 28t-112.5 35.5t-97 54.5
q-40 32 -63.5 77.5t-23.5 111.5q0 68 23 137.5t71 126.5q61 73 152 112.5t200 39.5q81 0 148 -28.5t109 -76.5l8 42q7 34 33 48.5t90 14.5t88.5 -14.5t18.5 -48.5l-49 -274q-6 -34 -30 -48.5t-73 -14.5q-34 0 -51 8t-25 24q-33 72 -99 113.5t-166 41.5q-46 0 -80 -14.5
t-56 -36t-33 -47.5t-11 -49q0 -27 18 -44t50 -30q38 -15 90 -26t108.5 -24.5t112 -33t100.5 -52.5q48 -35 78.5 -89.5t30.5 -136.5q0 -72 -22.5 -148.5t-72.5 -137.5q-60 -72 -154 -110.5t-224 -38.5q-84 0 -155 28t-120 78zM959 1662q28 16 59 -3.5t61 -87.5
q30 -69 26.5 -102.5t-29.5 -40.5l-480 -125q-24 -7 -42 4.5t-26 34.5q-8 22 -2.5 41.5t25.5 31.5z" />
    <glyph glyph-name="Scedilla" unicode="&#x15e;" 
d="M326 41q-5 -34 -32 -48.5t-91 -14.5t-88.5 14.5t-18.5 48.5l59 334q6 34 30 48.5t73 14.5q35 0 53.5 -9t26.5 -31q35 -102 100 -154.5t167 -52.5q59 0 98.5 15.5t63.5 39t34 51.5t10 54q0 38 -22 62t-60 41q-41 19 -95.5 32t-112 28t-112.5 35.5t-97 54.5
q-40 32 -63.5 77.5t-23.5 111.5q0 68 23 137.5t71 126.5q61 73 152 112.5t200 39.5q81 0 148 -28.5t109 -76.5l8 42q7 34 33 48.5t90 14.5t88.5 -14.5t18.5 -48.5l-49 -274q-6 -34 -30 -48.5t-73 -14.5q-34 0 -51 8t-25 24q-33 72 -99 113.5t-166 41.5q-46 0 -80 -14.5
t-56 -36t-33 -47.5t-11 -49q0 -27 18 -44t50 -30q38 -15 90 -26t108.5 -24.5t112 -33t100.5 -52.5q48 -35 78.5 -89.5t30.5 -136.5q0 -72 -22.5 -148.5t-72.5 -137.5q-54 -64 -135.5 -101.5t-191.5 -45.5l-12 -73q49 1 86 -10t61 -32t36 -50.5t12 -64.5q0 -32 -11 -71
t-37 -68q-71 -83 -257 -83q-72 0 -135.5 10.5t-112.5 30.5q-20 8 -19 31.5t15 53.5q13 29 31 47.5t38 10.5q36 -15 71.5 -24.5t85.5 -9.5q56 0 76 19.5t20 44.5q0 32 -34 39t-84 -2q-14 -2 -25.5 6.5t-6.5 34.5l30 175q-92 26 -154 89z" />
    <glyph glyph-name="Scircumflex" unicode="&#x15c;" 
d="M326 41q-5 -34 -32 -48.5t-91 -14.5t-88.5 14.5t-18.5 48.5l59 334q6 34 30 48.5t73 14.5q35 0 53.5 -9t26.5 -31q35 -102 100 -154.5t167 -52.5q59 0 98.5 15.5t63.5 39t34 51.5t10 54q0 38 -22 62t-60 41q-41 19 -95.5 32t-112 28t-112.5 35.5t-97 54.5
q-40 32 -63.5 77.5t-23.5 111.5q0 68 23 137.5t71 126.5q61 73 152 112.5t200 39.5q81 0 148 -28.5t109 -76.5l8 42q7 34 33 48.5t90 14.5t88.5 -14.5t18.5 -48.5l-49 -274q-6 -34 -30 -48.5t-73 -14.5q-34 0 -51 8t-25 24q-33 72 -99 113.5t-166 41.5q-46 0 -80 -14.5
t-56 -36t-33 -47.5t-11 -49q0 -27 18 -44t50 -30q38 -15 90 -26t108.5 -24.5t112 -33t100.5 -52.5q48 -35 78.5 -89.5t30.5 -136.5q0 -72 -22.5 -148.5t-72.5 -137.5q-60 -72 -154 -110.5t-224 -38.5q-84 0 -155 28t-120 78zM476 1299q-39 -17 -64 30q-11 20 -11 37t19 31
l323 261q24 18 58 18q16 0 30 -4t22 -14l251 -261q29 -31 2 -72q-13 -20 -31 -29t-41 3l-255 134z" />
    <glyph glyph-name="Scommaaccent" unicode="&#x218;" 
d="M326 41q-5 -34 -32 -48.5t-91 -14.5t-88.5 14.5t-18.5 48.5l59 334q6 34 30 48.5t73 14.5q35 0 53.5 -9t26.5 -31q35 -102 100 -154.5t167 -52.5q59 0 98.5 15.5t63.5 39t34 51.5t10 54q0 38 -22 62t-60 41q-41 19 -95.5 32t-112 28t-112.5 35.5t-97 54.5
q-40 32 -63.5 77.5t-23.5 111.5q0 68 23 137.5t71 126.5q61 73 152 112.5t200 39.5q81 0 148 -28.5t109 -76.5l8 42q7 34 33 48.5t90 14.5t88.5 -14.5t18.5 -48.5l-49 -274q-6 -34 -30 -48.5t-73 -14.5q-34 0 -51 8t-25 24q-33 72 -99 113.5t-166 41.5q-46 0 -80 -14.5
t-56 -36t-33 -47.5t-11 -49q0 -27 18 -44t50 -30q38 -15 90 -26t108.5 -24.5t112 -33t100.5 -52.5q48 -35 78.5 -89.5t30.5 -136.5q0 -72 -22.5 -148.5t-72.5 -137.5q-60 -72 -154 -110.5t-224 -38.5q-84 0 -155 28t-120 78zM504 -502q-16 -23 -41.5 -33t-57.5 -10
q-34 0 -49 13t-6 46l88 313q4 13 15.5 20t25.5 7h222q17 0 20.5 -12.5t-8.5 -30.5z" />
    <glyph glyph-name="Tbar" unicode="&#x166;" 
d="M482 360h-156q-17 0 -28 4t-17 15t-6 31t6 52t13 52t16.5 31.5t22 15.5t29.5 4h156l72 407h-181l-48 -272q-6 -34 -36 -48.5t-87 -14.5q-56 0 -74.5 14.5t-12.5 48.5l74 422q6 35 24 50t53 15h902q35 0 47 -15t6 -50l-74 -422q-6 -34 -36 -48.5t-87 -14.5
q-56 0 -74.5 14.5t-12.5 48.5l48 272h-181l-72 -407h156q17 0 28 -4t17 -15.5t6 -31.5t-6 -52t-13 -52t-16.5 -31t-22 -15t-29.5 -4h-156l-27 -155h226q17 0 28 -4t16.5 -15.5t5.5 -31.5t-6 -52t-12.5 -52t-16 -31t-22 -15t-29.5 -4h-682q-17 0 -28.5 4t-17 15t-6 31t5.5 52
t13 52t16.5 31.5t22.5 15.5t30 4h206z" />
    <glyph glyph-name="Tcaron" unicode="&#x164;" 
d="M590 972h-181l-48 -272q-6 -34 -36 -48.5t-87 -14.5q-56 0 -74.5 14.5t-12.5 48.5l74 422q6 35 24 50t53 15h902q35 0 47 -15t6 -50l-74 -422q-6 -34 -36 -48.5t-87 -14.5q-56 0 -74.5 14.5t-12.5 48.5l48 272h-181l-135 -767h226q17 0 28 -4t16.5 -15.5t5.5 -31.5
t-6 -52t-12.5 -52t-16 -31t-22 -15t-29.5 -4h-682q-17 0 -28.5 4t-17 15t-6 31t5.5 52t13 52t16.5 31.5t22.5 15.5t30 4h206zM1076 1654q39 17 64 -30q11 -20 10.5 -36.5t-18.5 -31.5l-323 -261q-24 -18 -58 -18t-52 18l-251 261q-29 31 -2 72q13 20 31 29t41 -3l255 -134z
" />
    <glyph glyph-name="Tcommaaccent" unicode="&#x162;" 
d="M590 972h-181l-48 -272q-6 -34 -36 -48.5t-87 -14.5q-56 0 -74.5 14.5t-12.5 48.5l74 422q6 35 24 50t53 15h902q35 0 47 -15t6 -50l-74 -422q-6 -34 -36 -48.5t-87 -14.5q-56 0 -74.5 14.5t-12.5 48.5l48 272h-181l-135 -767h226q17 0 28 -4t16.5 -15.5t5.5 -31.5
t-6 -52t-12.5 -52t-16 -31t-22 -15t-29.5 -4h-682q-17 0 -28.5 4t-17 15t-6 31t5.5 52t13 52t16.5 31.5t22.5 15.5t30 4h206zM454 -502q-16 -23 -41.5 -33t-57.5 -10q-34 0 -49 13t-6 46l88 313q4 13 15.5 20t25.5 7h222q17 0 20.5 -12.5t-8.5 -30.5z" />
    <glyph glyph-name="Ubreve" unicode="&#x16c;" 
d="M216 982q-17 0 -28 4t-17 15t-6 31t6 52t13 52t16.5 31.5t22 15.5t29.5 4h374q17 0 28 -4t17 -15.5t6 -31.5t-6 -52t-13 -52t-16.5 -31t-22 -15t-29.5 -4h-77l-97 -549q-6 -35 -6 -63q0 -86 46.5 -125.5t123.5 -39.5q45 0 84.5 13t71.5 41t54.5 71t33.5 103l97 549h-77
q-17 0 -28 4t-17 15t-6 31t6 52t13 52t16.5 31.5t22 15.5t29.5 4h374q17 0 28 -4t17 -15.5t6 -31.5t-6 -52t-13 -52t-16.5 -31t-22 -15t-29.5 -4h-47l-103 -579q-38 -211 -167.5 -318t-340.5 -107q-93 0 -167.5 24.5t-127 71t-80.5 113.5t-28 151q0 45 9 95l97 549h-47z
M757 1311q-163 0 -252.5 68t-109.5 189q-4 20 10.5 40.5t43.5 33.5q32 14 58 13.5t36 -20.5q28 -59 81 -89.5t149 -30.5q48 0 85 8t67 23.5t54 38t46 50.5q16 18 41 19.5t55 -10.5q28 -11 43 -31.5t5 -44.5q-23 -58 -60 -105.5t-88 -81t-117 -52t-147 -18.5z" />
    <glyph glyph-name="Uhungarumlaut" unicode="&#x170;" 
d="M216 982q-17 0 -28 4t-17 15t-6 31t6 52t13 52t16.5 31.5t22 15.5t29.5 4h374q17 0 28 -4t17 -15.5t6 -31.5t-6 -52t-13 -52t-16.5 -31t-22 -15t-29.5 -4h-77l-97 -549q-6 -35 -6 -63q0 -86 46.5 -125.5t123.5 -39.5q45 0 84.5 13t71.5 41t54.5 71t33.5 103l97 549h-77
q-17 0 -28 4t-17 15t-6 31t6 52t13 52t16.5 31.5t22 15.5t29.5 4h374q17 0 28 -4t17 -15.5t6 -31.5t-6 -52t-13 -52t-16.5 -31t-22 -15t-29.5 -4h-47l-103 -579q-38 -211 -167.5 -318t-340.5 -107q-93 0 -167.5 24.5t-127 71t-80.5 113.5t-28 151q0 45 9 95l97 549h-47z
M581 1336q-18 -13 -50 -13q-35 0 -58.5 17.5t-23.5 40.5q0 17 12 29l198 210q16 17 41 25t54 8q32 0 57 -8.5t42 -21t26 -26.5t9 -26q0 -21 -19 -34zM981 1336q-18 -13 -50 -13q-35 0 -58.5 17.5t-23.5 40.5q0 17 12 29l198 210q16 17 41 25t54 8q32 0 57 -8.5t42 -21
t26 -26.5t9 -26q0 -21 -19 -34z" />
    <glyph glyph-name="Umacron" unicode="&#x16a;" 
d="M216 982q-17 0 -28 4t-17 15t-6 31t6 52t13 52t16.5 31.5t22 15.5t29.5 4h374q17 0 28 -4t17 -15.5t6 -31.5t-6 -52t-13 -52t-16.5 -31t-22 -15t-29.5 -4h-77l-97 -549q-6 -35 -6 -63q0 -86 46.5 -125.5t123.5 -39.5q45 0 84.5 13t71.5 41t54.5 71t33.5 103l97 549h-77
q-17 0 -28 4t-17 15t-6 31t6 52t13 52t16.5 31.5t22 15.5t29.5 4h374q17 0 28 -4t17 -15.5t6 -31.5t-6 -52t-13 -52t-16.5 -31t-22 -15t-29.5 -4h-47l-103 -579q-38 -211 -167.5 -318t-340.5 -107q-93 0 -167.5 24.5t-127 71t-80.5 113.5t-28 151q0 45 9 95l97 549h-47z
M1079 1545q17 0 28 -4t17 -15.5t6 -31.5t-6 -52t-13 -52t-16.5 -31t-22 -15t-29.5 -4h-562q-17 0 -28 4t-17 15t-6 31t6 52t13 52t16.5 31.5t22 15.5t29.5 4h562z" />
    <glyph glyph-name="Uogonek" unicode="&#x172;" 
d="M541 -472q-105 0 -163.5 45.5t-58.5 126.5q0 43 15 82t41.5 73.5t63 65.5t79.5 59q-84 5 -150.5 32t-113.5 73t-72 110t-25 143q0 45 9 95l97 549h-47q-17 0 -28 4t-17 15t-6 31t6 52t13 52t16.5 31.5t22 15.5t29.5 4h374q17 0 28 -4t17 -15.5t6 -31.5t-6 -52t-13 -52
t-16.5 -31t-22 -15t-29.5 -4h-77l-97 -549q-6 -35 -6 -63q0 -86 46.5 -125.5t123.5 -39.5q45 0 84.5 13t71.5 41t54.5 71t33.5 103l97 549h-77q-17 0 -28 4t-17 15t-6 31t6 52t13 52t16.5 31.5t22 15.5t29.5 4h374q17 0 28 -4t17 -15.5t6 -31.5t-6 -52t-13 -52t-16.5 -31
t-22 -15t-29.5 -4h-47l-103 -579q-25 -140 -90.5 -234t-169.5 -142q-50 -35 -93.5 -70t-76 -68t-51 -64.5t-18.5 -59.5q0 -34 20.5 -48.5t57.5 -14.5q29 0 59 4t60 9q43 8 52 -65q5 -38 -6 -58.5t-34 -27.5q-50 -16 -113.5 -26t-123.5 -10z" />
    <glyph glyph-name="Uring" unicode="&#x16e;" 
d="M216 982q-17 0 -28 4t-17 15t-6 31t6 52t13 52t16.5 31.5t22 15.5t29.5 4h374q17 0 28 -4t17 -15.5t6 -31.5t-6 -52t-13 -52t-16.5 -31t-22 -15t-29.5 -4h-77l-97 -549q-6 -35 -6 -63q0 -86 46.5 -125.5t123.5 -39.5q45 0 84.5 13t71.5 41t54.5 71t33.5 103l97 549h-77
q-17 0 -28 4t-17 15t-6 31t6 52t13 52t16.5 31.5t22 15.5t29.5 4h374q17 0 28 -4t17 -15.5t6 -31.5t-6 -52t-13 -52t-16.5 -31t-22 -15t-29.5 -4h-47l-103 -579q-38 -211 -167.5 -318t-340.5 -107q-93 0 -167.5 24.5t-127 71t-80.5 113.5t-28 151q0 45 9 95l97 549h-47z
M749 1273q-49 0 -90.5 18t-72 49t-48 72.5t-17.5 88.5q0 57 23 110.5t63 94.5t95 66t119 25q49 0 90.5 -18t72 -49t48 -73t17.5 -89q0 -54 -22 -107t-61.5 -94.5t-95 -67.5t-121.5 -26zM767 1432q25 0 47 10t38.5 27t26.5 38.5t10 45.5q0 36 -24 60.5t-62 24.5
q-26 0 -48 -10.5t-39 -27.5t-26.5 -39t-9.5 -44q0 -37 24.5 -61t62.5 -24z" />
    <glyph glyph-name="Utilde" unicode="&#x168;" 
d="M216 982q-17 0 -28 4t-17 15t-6 31t6 52t13 52t16.5 31.5t22 15.5t29.5 4h374q17 0 28 -4t17 -15.5t6 -31.5t-6 -52t-13 -52t-16.5 -31t-22 -15t-29.5 -4h-77l-97 -549q-6 -35 -6 -63q0 -86 46.5 -125.5t123.5 -39.5q45 0 84.5 13t71.5 41t54.5 71t33.5 103l97 549h-77
q-17 0 -28 4t-17 15t-6 31t6 52t13 52t16.5 31.5t22 15.5t29.5 4h374q17 0 28 -4t17 -15.5t6 -31.5t-6 -52t-13 -52t-16.5 -31t-22 -15t-29.5 -4h-47l-103 -579q-38 -211 -167.5 -318t-340.5 -107q-93 0 -167.5 24.5t-127 71t-80.5 113.5t-28 151q0 45 9 95l97 549h-47z
M927 1510q27 0 58.5 7t63.5 24q23 13 43 2t35 -39q14 -26 15 -51.5t-19 -41.5q-60 -50 -109 -71.5t-94 -21.5q-42 0 -80 11.5t-74 25.5t-71.5 25.5t-72.5 11.5q-29 0 -60.5 -7t-63.5 -24q-22 -12 -41.5 -1t-34.5 39q-14 26 -15.5 51t17.5 41q60 52 110 72.5t95 20.5
q41 0 79 -11.5t74 -25.5t72 -25.5t73 -11.5z" />
    <glyph glyph-name="Wacute" unicode="&#x1e82;" 
d="M146 982q-17 0 -28 4t-17 15t-6 31t6 52t13 52t16.5 31.5t22 15.5t29.5 4h384q17 0 28 -4t17 -15.5t6 -31.5t-6 -52t-13 -52t-16.5 -31t-22 -15t-29.5 -4h-118l-46 -574l218 418q5 10 12 18.5t18.5 15t28.5 10t43 3.5q52 0 71 -10t22 -30l70 -425l159 574h-104
q-17 0 -28 4t-17 15t-6 31t6 52t13 52t16.5 31.5t22 15.5t29.5 4h384q17 0 28 -4t17 -15.5t6 -31.5t-6 -52t-13 -52t-16.5 -31t-22 -15t-29.5 -4h-55l-268 -939q-5 -18 -13.5 -30.5t-23.5 -20t-38 -11t-57 -3.5t-57 4t-37 12t-21.5 20t-10.5 29l-77 471l-245 -471
q-9 -17 -21 -29.5t-29 -20.5t-41.5 -11.5t-58.5 -3.5t-55.5 3.5t-33.5 11t-16 20t-3 30.5l68 939h-49zM969 1662q28 16 59 -3.5t61 -87.5q30 -69 26.5 -102.5t-29.5 -40.5l-480 -125q-24 -7 -42 4.5t-26 34.5q-8 22 -2.5 41.5t25.5 31.5z" />
    <glyph glyph-name="Wcircumflex" unicode="&#x174;" 
d="M146 982q-17 0 -28 4t-17 15t-6 31t6 52t13 52t16.5 31.5t22 15.5t29.5 4h384q17 0 28 -4t17 -15.5t6 -31.5t-6 -52t-13 -52t-16.5 -31t-22 -15t-29.5 -4h-118l-46 -574l218 418q5 10 12 18.5t18.5 15t28.5 10t43 3.5q52 0 71 -10t22 -30l70 -425l159 574h-104
q-17 0 -28 4t-17 15t-6 31t6 52t13 52t16.5 31.5t22 15.5t29.5 4h384q17 0 28 -4t17 -15.5t6 -31.5t-6 -52t-13 -52t-16.5 -31t-22 -15t-29.5 -4h-55l-268 -939q-5 -18 -13.5 -30.5t-23.5 -20t-38 -11t-57 -3.5t-57 4t-37 12t-21.5 20t-10.5 29l-77 471l-245 -471
q-9 -17 -21 -29.5t-29 -20.5t-41.5 -11.5t-58.5 -3.5t-55.5 3.5t-33.5 11t-16 20t-3 30.5l68 939h-49zM476 1299q-39 -17 -64 30q-11 20 -11 37t19 31l323 261q24 18 58 18q16 0 30 -4t22 -14l251 -261q29 -31 2 -72q-13 -20 -31 -29t-41 3l-255 134z" />
    <glyph glyph-name="Wdieresis" unicode="&#x1e84;" 
d="M146 982q-17 0 -28 4t-17 15t-6 31t6 52t13 52t16.5 31.5t22 15.5t29.5 4h384q17 0 28 -4t17 -15.5t6 -31.5t-6 -52t-13 -52t-16.5 -31t-22 -15t-29.5 -4h-118l-46 -574l218 418q5 10 12 18.5t18.5 15t28.5 10t43 3.5q52 0 71 -10t22 -30l70 -425l159 574h-104
q-17 0 -28 4t-17 15t-6 31t6 52t13 52t16.5 31.5t22 15.5t29.5 4h384q17 0 28 -4t17 -15.5t6 -31.5t-6 -52t-13 -52t-16.5 -31t-22 -15t-29.5 -4h-55l-268 -939q-5 -18 -13.5 -30.5t-23.5 -20t-38 -11t-57 -3.5t-57 4t-37 12t-21.5 20t-10.5 29l-77 471l-245 -471
q-9 -17 -21 -29.5t-29 -20.5t-41.5 -11.5t-58.5 -3.5t-55.5 3.5t-33.5 11t-16 20t-3 30.5l68 939h-49zM385 1472q6 31 21 57.5t37.5 45.5t51 29.5t59.5 10.5q32 0 58.5 -13t44 -34.5t25 -50t1.5 -59.5t-21 -57.5t-37.5 -45.5t-50.5 -29.5t-59 -10.5q-32 0 -58.5 13
t-44.5 34.5t-25.5 50t-1.5 59.5zM845 1472q6 31 21 57.5t37.5 45.5t51 29.5t59.5 10.5q32 0 58.5 -13t44 -34.5t25 -50t1.5 -59.5t-21 -57.5t-37.5 -45.5t-50.5 -29.5t-59 -10.5q-32 0 -58.5 13t-44.5 34.5t-25.5 50t-1.5 59.5z" />
    <glyph glyph-name="Wgrave" unicode="&#x1e80;" 
d="M146 982q-17 0 -28 4t-17 15t-6 31t6 52t13 52t16.5 31.5t22 15.5t29.5 4h384q17 0 28 -4t17 -15.5t6 -31.5t-6 -52t-13 -52t-16.5 -31t-22 -15t-29.5 -4h-118l-46 -574l218 418q5 10 12 18.5t18.5 15t28.5 10t43 3.5q52 0 71 -10t22 -30l70 -425l159 574h-104
q-17 0 -28 4t-17 15t-6 31t6 52t13 52t16.5 31.5t22 15.5t29.5 4h384q17 0 28 -4t17 -15.5t6 -31.5t-6 -52t-13 -52t-16.5 -31t-22 -15t-29.5 -4h-55l-268 -939q-5 -18 -13.5 -30.5t-23.5 -20t-38 -11t-57 -3.5t-57 4t-37 12t-21.5 20t-10.5 29l-77 471l-245 -471
q-9 -17 -21 -29.5t-29 -20.5t-41.5 -11.5t-58.5 -3.5t-55.5 3.5t-33.5 11t-16 20t-3 30.5l68 939h-49zM941 1415q20 -12 25.5 -31.5t-2.5 -41.5q-8 -23 -26 -34.5t-42 -4.5l-480 125q-26 7 -29.5 40.5t26.5 102.5q30 68 61 87.5t59 3.5z" />
    <glyph glyph-name="Ycircumflex" unicode="&#x176;" 
d="M626 1187q17 0 28 -4t17 -15.5t6 -31.5t-6 -52t-13 -52t-16.5 -31t-22 -15t-29.5 -4h-67l134 -292l239 292h-52q-17 0 -28 4t-17 15t-6 31t6 52t13 52t16.5 31.5t22 15.5t29.5 4h384q17 0 28 -4t17 -15.5t6 -31.5t-6 -52t-13 -52t-16.5 -31t-22 -15t-29.5 -4h-45
l-433 -522l-45 -255h206q17 0 28 -4t16.5 -15.5t5.5 -31.5t-6 -52t-12.5 -52t-16 -31t-22 -15t-29.5 -4h-642q-17 0 -28.5 4t-17 15t-6 31t5.5 52t13 52t16.5 31.5t22.5 15.5t30 4h186l46 262l-245 515h-50q-17 0 -28 4t-17 15t-6 31t6 52t13 52t16.5 31.5t22 15.5t29.5 4
h384zM486 1299q-39 -17 -64 30q-11 20 -11 37t19 31l323 261q24 18 58 18q16 0 30 -4t22 -14l251 -261q29 -31 2 -72q-13 -20 -31 -29t-41 3l-255 134z" />
    <glyph glyph-name="Ygrave" unicode="&#x1ef2;" 
d="M626 1187q17 0 28 -4t17 -15.5t6 -31.5t-6 -52t-13 -52t-16.5 -31t-22 -15t-29.5 -4h-67l134 -292l239 292h-52q-17 0 -28 4t-17 15t-6 31t6 52t13 52t16.5 31.5t22 15.5t29.5 4h384q17 0 28 -4t17 -15.5t6 -31.5t-6 -52t-13 -52t-16.5 -31t-22 -15t-29.5 -4h-45
l-433 -522l-45 -255h206q17 0 28 -4t16.5 -15.5t5.5 -31.5t-6 -52t-12.5 -52t-16 -31t-22 -15t-29.5 -4h-642q-17 0 -28.5 4t-17 15t-6 31t5.5 52t13 52t16.5 31.5t22.5 15.5t30 4h186l46 262l-245 515h-50q-17 0 -28 4t-17 15t-6 31t6 52t13 52t16.5 31.5t22 15.5t29.5 4
h384zM971 1415q20 -12 25.5 -31.5t-2.5 -41.5q-8 -23 -26 -34.5t-42 -4.5l-480 125q-26 7 -29.5 40.5t26.5 102.5q30 68 61 87.5t59 3.5z" />
    <glyph glyph-name="Zacute" unicode="&#x179;" 
d="M827 215l40 222q5 34 37 48.5t96 14.5q32 0 52 -3.5t31 -11t14 -19.5t0 -29l-66 -372q-6 -35 -23.5 -50t-52.5 -15h-814q-17 0 -28.5 4t-17 15t-6 31t5.5 52q6 34 15 56.5t22 36.5l681 777h-324l-36 -202q-6 -34 -37.5 -48.5t-95.5 -14.5t-83.5 14.5t-13.5 48.5l62 352
q6 35 24 50t53 15h784q17 0 28 -4t17 -15.5t6 -31.5t-6 -52t-16 -54t-24 -38l-681 -777h357zM959 1662q28 16 59 -3.5t61 -87.5q30 -69 26.5 -102.5t-29.5 -40.5l-480 -125q-24 -7 -42 4.5t-26 34.5q-8 22 -2.5 41.5t25.5 31.5z" />
    <glyph glyph-name="Zdotaccent" unicode="&#x17b;" 
d="M827 215l40 222q5 34 37 48.5t96 14.5q32 0 52 -3.5t31 -11t14 -19.5t0 -29l-66 -372q-6 -35 -23.5 -50t-52.5 -15h-814q-17 0 -28.5 4t-17 15t-6 31t5.5 52q6 34 15 56.5t22 36.5l681 777h-324l-36 -202q-6 -34 -37.5 -48.5t-95.5 -14.5t-83.5 14.5t-13.5 48.5l62 352
q6 35 24 50t53 15h784q17 0 28 -4t17 -15.5t6 -31.5t-6 -52t-16 -54t-24 -38l-681 -777h357zM768 1316q-35 0 -64 12.5t-50 34.5t-33 50.5t-12 61.5q0 38 15.5 74t43 64.5t65 45.5t81.5 17q34 0 63 -12.5t50 -34t33 -50t12 -60.5q0 -39 -14.5 -75.5t-41.5 -65t-64.5 -45.5
t-83.5 -17z" />
    <glyph glyph-name="abreve" unicode="&#x103;" 
d="M717 1041q-163 0 -252.5 68t-109.5 189q-4 20 10.5 40.5t43.5 33.5q32 14 58 13.5t36 -20.5q28 -59 81 -89.5t149 -30.5q48 0 85 8t67 23.5t54 38t46 50.5q16 18 41 19.5t55 -10.5q28 -11 43 -31.5t5 -44.5q-23 -58 -60 -105.5t-88 -81t-117 -52t-147 -18.5zM785 127
q-74 -77 -158.5 -113t-172.5 -36t-157 31.5t-116.5 85.5t-72.5 127.5t-25 157.5q0 63 14 129.5t42 129.5t70 118.5t99 97.5t128 66.5t158 24.5q97 0 171.5 -45t112.5 -124l16 94q6 34 36 48.5t87 14.5q56 0 74.5 -14.5t12.5 -48.5l-102 -581q-8 -40 5.5 -62.5t45.5 -22.5h29
q17 0 28 -4t16.5 -15.5t5.5 -31.5t-6 -52t-12.5 -52t-16 -31t-22 -15t-29.5 -4h-95q-30 0 -57.5 6.5t-49.5 21.5t-37.5 39.5t-21.5 59.5zM514 205q67 0 119.5 29t88.5 74.5t54.5 102t18.5 111.5q0 48 -14.5 85t-40 61.5t-60.5 37.5t-76 13q-68 0 -116.5 -33t-79.5 -82.5
t-45 -107t-14 -105.5q0 -87 43 -136.5t122 -49.5z" />
    <glyph glyph-name="amacron" unicode="&#x101;" 
d="M785 127q-74 -77 -158.5 -113t-172.5 -36t-157 31.5t-116.5 85.5t-72.5 127.5t-25 157.5q0 63 14 129.5t42 129.5t70 118.5t99 97.5t128 66.5t158 24.5q97 0 171.5 -45t112.5 -124l16 94q6 34 36 48.5t87 14.5q56 0 74.5 -14.5t12.5 -48.5l-102 -581q-8 -40 5.5 -62.5
t45.5 -22.5h29q17 0 28 -4t16.5 -15.5t5.5 -31.5t-6 -52t-12.5 -52t-16 -31t-22 -15t-29.5 -4h-95q-30 0 -57.5 6.5t-49.5 21.5t-37.5 39.5t-21.5 59.5zM514 205q67 0 119.5 29t88.5 74.5t54.5 102t18.5 111.5q0 48 -14.5 85t-40 61.5t-60.5 37.5t-76 13q-68 0 -116.5 -33
t-79.5 -82.5t-45 -107t-14 -105.5q0 -87 43 -136.5t122 -49.5zM1019 1275q17 0 28 -4t17 -15.5t6 -31.5t-6 -52t-13 -52t-16.5 -31t-22 -15t-29.5 -4h-562q-17 0 -28 4t-17 15t-6 31t6 52t13 52t16.5 31.5t22 15.5t29.5 4h562z" />
    <glyph glyph-name="aogonek" unicode="&#x105;" 
d="M785 127q-74 -77 -158.5 -113t-172.5 -36t-157 31.5t-116.5 85.5t-72.5 127.5t-25 157.5q0 63 14 129.5t42 129.5t70 118.5t99 97.5t128 66.5t158 24.5q97 0 171.5 -45t112.5 -124l16 94q6 34 36 48.5t87 14.5q56 0 74.5 -14.5t12.5 -48.5l-102 -581q-8 -40 5.5 -62.5
t45.5 -22.5h29q17 0 28 -4t16.5 -15.5t5.5 -31.5t-6 -52q-5 -29 -11.5 -48.5t-14.5 -31t-19 -16.5t-25 -6q-43 -32 -80 -62.5t-64 -60.5t-42 -58t-15 -54q0 -34 20.5 -48.5t57.5 -14.5q29 0 59 4t60 9q43 8 52 -65q5 -38 -6 -58.5t-34 -27.5q-50 -16 -113.5 -26t-123.5 -10
q-105 0 -163.5 45.5t-58.5 126.5q0 51 20 95.5t55.5 83.5t83 73t102.5 64q-31 14 -52.5 40.5t-28.5 70.5zM514 205q67 0 119.5 29t88.5 74.5t54.5 102t18.5 111.5q0 48 -14.5 85t-40 61.5t-60.5 37.5t-76 13q-68 0 -116.5 -33t-79.5 -82.5t-45 -107t-14 -105.5
q0 -87 43 -136.5t122 -49.5z" />
    <glyph glyph-name="cacute" unicode="&#x107;" 
d="M919 1392q28 16 59 -3.5t61 -87.5q30 -69 26.5 -102.5t-29.5 -40.5l-480 -125q-24 -7 -42 4.5t-26 34.5q-8 22 -2.5 41.5t25.5 31.5zM918 883q6 34 37.5 48.5t95.5 14.5t83.5 -14.5t13.5 -48.5l-56 -321q-6 -34 -39 -48.5t-105 -14.5q-36 0 -58 3.5t-33.5 11t-14.5 19.5
t0 29q5 31 -1 59t-25 50t-50 35t-76 13q-74 0 -128.5 -29.5t-90.5 -75t-53.5 -102t-17.5 -110.5q0 -92 52.5 -144.5t147.5 -52.5q80 0 164.5 25.5t165.5 68.5q32 17 58 0t47 -74q22 -59 13 -92t-43 -50q-99 -48 -212 -76.5t-218 -28.5q-103 0 -184.5 31t-138.5 86
t-87.5 130.5t-30.5 163.5q0 66 16 133t47 129t77 116t107 93.5t135.5 62.5t163.5 23q81 0 142.5 -31t85.5 -91z" />
    <glyph glyph-name="ccaron" unicode="&#x10d;" 
d="M1036 1394q39 17 64 -30q11 -20 10.5 -36.5t-18.5 -31.5l-323 -261q-24 -18 -58 -18t-52 18l-251 261q-29 31 -2 72q13 20 31 29t41 -3l255 -134zM918 883q6 34 37.5 48.5t95.5 14.5t83.5 -14.5t13.5 -48.5l-56 -321q-6 -34 -39 -48.5t-105 -14.5q-36 0 -58 3.5t-33.5 11
t-14.5 19.5t0 29q5 31 -1 59t-25 50t-50 35t-76 13q-74 0 -128.5 -29.5t-90.5 -75t-53.5 -102t-17.5 -110.5q0 -92 52.5 -144.5t147.5 -52.5q80 0 164.5 25.5t165.5 68.5q32 17 58 0t47 -74q22 -59 13 -92t-43 -50q-99 -48 -212 -76.5t-218 -28.5q-103 0 -184.5 31
t-138.5 86t-87.5 130.5t-30.5 163.5q0 66 16 133t47 129t77 116t107 93.5t135.5 62.5t163.5 23q81 0 142.5 -31t85.5 -91z" />
    <glyph glyph-name="ccircumflex" unicode="&#x109;" 
d="M436 1029q-39 -17 -64 30q-11 20 -11 37t19 31l323 261q24 18 58 18q16 0 30 -4t22 -14l251 -261q29 -31 2 -72q-13 -20 -31 -29t-41 3l-255 134zM918 883q6 34 37.5 48.5t95.5 14.5t83.5 -14.5t13.5 -48.5l-56 -321q-6 -34 -39 -48.5t-105 -14.5q-36 0 -58 3.5t-33.5 11
t-14.5 19.5t0 29q5 31 -1 59t-25 50t-50 35t-76 13q-74 0 -128.5 -29.5t-90.5 -75t-53.5 -102t-17.5 -110.5q0 -92 52.5 -144.5t147.5 -52.5q80 0 164.5 25.5t165.5 68.5q32 17 58 0t47 -74q22 -59 13 -92t-43 -50q-99 -48 -212 -76.5t-218 -28.5q-103 0 -184.5 31
t-138.5 86t-87.5 130.5t-30.5 163.5q0 66 16 133t47 129t77 116t107 93.5t135.5 62.5t163.5 23q81 0 142.5 -31t85.5 -91z" />
    <glyph glyph-name="cdotaccent" unicode="&#x10b;" 
d="M918 883q6 34 37.5 48.5t95.5 14.5t83.5 -14.5t13.5 -48.5l-56 -321q-6 -34 -39 -48.5t-105 -14.5q-36 0 -58 3.5t-33.5 11t-14.5 19.5t0 29q5 31 -1 59t-25 50t-50 35t-76 13q-74 0 -128.5 -29.5t-90.5 -75t-53.5 -102t-17.5 -110.5q0 -92 52.5 -144.5t147.5 -52.5
q80 0 164.5 25.5t165.5 68.5q32 17 58 0t47 -74q22 -59 13 -92t-43 -50q-99 -48 -212 -76.5t-218 -28.5q-103 0 -184.5 31t-138.5 86t-87.5 130.5t-30.5 163.5q0 66 16 133t47 129t77 116t107 93.5t135.5 62.5t163.5 23q81 0 142.5 -31t85.5 -91zM728 1066q-35 0 -64 12.5
t-50 34.5t-33 50.5t-12 61.5q0 38 15.5 74t43 64.5t65 45.5t81.5 17q34 0 63 -12.5t50 -34t33 -50t12 -60.5q0 -39 -14.5 -75.5t-41.5 -65t-64.5 -45.5t-83.5 -17z" />
    <glyph glyph-name="dcaron" unicode="&#x10f;" 
d="M384 -22q-74 0 -131 28t-96 77t-59 116.5t-20 147.5q0 51 8.5 106.5t26 110t43.5 105.5t61 93q60 73 141.5 113.5t180.5 40.5q72 0 121 -30t82 -85l54 306h-167q-17 0 -28 4t-17 15t-6 31t6 52t13 52t16.5 31.5t22 15.5t29.5 4h354q34 0 46 -14.5t6 -48.5l-184 -1044h87
q17 0 28 -4t17 -15t6 -31t-6 -52t-13 -52t-16.5 -31.5t-22 -15.5t-29.5 -4h-234q-34 0 -46 14.5t-6 48.5l12 69q-58 -74 -124.5 -114t-155.5 -40zM464 205q50 0 92.5 23.5t74.5 71.5q31 47 46.5 108t15.5 114q0 85 -39 126t-105 41q-79 0 -134 -79q-17 -25 -30 -55.5
t-22 -63t-13.5 -65t-4.5 -60.5q0 -78 31.5 -119.5t87.5 -41.5zM1279 867q-19 -27 -40.5 -38.5t-56.5 -11.5q-42 0 -55 16.5t1 54.5l139 391q13 33 49 33h214q20 0 24 -15t-10 -37z" />
    <glyph glyph-name="dcroat" unicode="&#x111;" 
d="M599 916q79 0 145 -32.5t107 -87.5l33 186h-208q-17 0 -28 4t-17 15t-6 31t6 52t13 52t16.5 31.5t22 15.5t29.5 4h208l11 62q6 34 23 48.5t51 14.5h124q34 0 46 -14.5t6 -48.5l-11 -62h104q17 0 28 -4t17 -15.5t6 -31.5t-6 -52t-13 -52t-16.5 -31t-22 -15t-29.5 -4h-104
l-137 -777h87q17 0 28 -4t17 -15t6 -31t-6 -52t-13 -52t-16.5 -31.5t-22 -15.5t-29.5 -4h-234q-34 0 -46 14.5t-6 48.5l11 64q-62 -70 -142 -109.5t-177 -39.5q-86 0 -154 29.5t-114.5 81t-71 122.5t-24.5 154q0 64 14 130t42 127t70 114.5t99 93.5t127.5 63t156.5 23z
M524 205q69 0 121 26.5t86.5 69t52 96t17.5 107.5q0 46 -14.5 81t-40.5 58t-61 34.5t-76 11.5q-65 0 -112.5 -28.5t-78.5 -73t-46 -99t-15 -106.5q0 -87 44.5 -132t122.5 -45z" />
    <glyph glyph-name="ebreve" unicode="&#x115;" 
d="M727 1041q-163 0 -252.5 68t-109.5 189q-4 20 10.5 40.5t43.5 33.5q32 14 58 13.5t36 -20.5q28 -59 81 -89.5t149 -30.5q48 0 85 8t67 23.5t54 38t46 50.5q16 18 41 19.5t55 -10.5q28 -11 43 -31.5t5 -44.5q-23 -58 -60 -105.5t-88 -81t-117 -52t-147 -18.5zM385 329
q15 -62 62 -93t123 -31q81 0 170.5 12.5t194.5 42.5q17 5 30 4t23 -10.5t17.5 -28.5t13.5 -49q6 -31 6.5 -52.5t-5.5 -36t-18.5 -23.5t-31.5 -15q-106 -33 -219 -52t-221 -19q-98 0 -174 30.5t-127.5 84t-78.5 127t-27 159.5q0 52 9 104.5t27 103t45.5 97.5t64.5 88
q76 83 184.5 128.5t246.5 45.5q88 0 160 -22.5t123 -63.5t78.5 -97.5t27.5 -125.5q0 -38 -10 -81.5t-35 -80.5q-29 -43 -80 -68t-126 -33zM670 719q-103 0 -172 -50t-100 -153l349 35q45 5 61.5 26t16.5 47q0 17 -9 34t-28 30.5t-48.5 22t-69.5 8.5z" />
    <glyph glyph-name="ecaron" unicode="&#x11b;" 
d="M1026 1394q39 17 64 -30q11 -20 10.5 -36.5t-18.5 -31.5l-323 -261q-24 -18 -58 -18t-52 18l-251 261q-29 31 -2 72q13 20 31 29t41 -3l255 -134zM385 329q15 -62 62 -93t123 -31q81 0 170.5 12.5t194.5 42.5q17 5 30 4t23 -10.5t17.5 -28.5t13.5 -49q6 -31 6.5 -52.5
t-5.5 -36t-18.5 -23.5t-31.5 -15q-106 -33 -219 -52t-221 -19q-98 0 -174 30.5t-127.5 84t-78.5 127t-27 159.5q0 52 9 104.5t27 103t45.5 97.5t64.5 88q76 83 184.5 128.5t246.5 45.5q88 0 160 -22.5t123 -63.5t78.5 -97.5t27.5 -125.5q0 -38 -10 -81.5t-35 -80.5
q-29 -43 -80 -68t-126 -33zM670 719q-103 0 -172 -50t-100 -153l349 35q45 5 61.5 26t16.5 47q0 17 -9 34t-28 30.5t-48.5 22t-69.5 8.5z" />
    <glyph glyph-name="edotaccent" unicode="&#x117;" 
d="M385 329q15 -62 62 -93t123 -31q81 0 170.5 12.5t194.5 42.5q17 5 30 4t23 -10.5t17.5 -28.5t13.5 -49q6 -31 6.5 -52.5t-5.5 -36t-18.5 -23.5t-31.5 -15q-106 -33 -219 -52t-221 -19q-98 0 -174 30.5t-127.5 84t-78.5 127t-27 159.5q0 52 9 104.5t27 103t45.5 97.5
t64.5 88q76 83 184.5 128.5t246.5 45.5q88 0 160 -22.5t123 -63.5t78.5 -97.5t27.5 -125.5q0 -38 -10 -81.5t-35 -80.5q-29 -43 -80 -68t-126 -33zM670 719q-103 0 -172 -50t-100 -153l349 35q45 5 61.5 26t16.5 47q0 17 -9 34t-28 30.5t-48.5 22t-69.5 8.5zM708 1066
q-35 0 -64 12.5t-50 34.5t-33 50.5t-12 61.5q0 38 15.5 74t43 64.5t65 45.5t81.5 17q34 0 63 -12.5t50 -34t33 -50t12 -60.5q0 -39 -14.5 -75.5t-41.5 -65t-64.5 -45.5t-83.5 -17z" />
    <glyph glyph-name="emacron" unicode="&#x113;" 
d="M385 329q15 -62 62 -93t123 -31q81 0 170.5 12.5t194.5 42.5q17 5 30 4t23 -10.5t17.5 -28.5t13.5 -49q6 -31 6.5 -52.5t-5.5 -36t-18.5 -23.5t-31.5 -15q-106 -33 -219 -52t-221 -19q-98 0 -174 30.5t-127.5 84t-78.5 127t-27 159.5q0 52 9 104.5t27 103t45.5 97.5
t64.5 88q76 83 184.5 128.5t246.5 45.5q88 0 160 -22.5t123 -63.5t78.5 -97.5t27.5 -125.5q0 -38 -10 -81.5t-35 -80.5q-29 -43 -80 -68t-126 -33zM670 719q-103 0 -172 -50t-100 -153l349 35q45 5 61.5 26t16.5 47q0 17 -9 34t-28 30.5t-48.5 22t-69.5 8.5zM1019 1275
q17 0 28 -4t17 -15.5t6 -31.5t-6 -52t-13 -52t-16.5 -31t-22 -15t-29.5 -4h-562q-17 0 -28 4t-17 15t-6 31t6 52t13 52t16.5 31.5t22 15.5t29.5 4h562z" />
    <glyph glyph-name="eogonek" unicode="&#x119;" 
d="M385 329q15 -62 62 -93t123 -31q81 0 170.5 12.5t194.5 42.5q17 5 30 4t23 -10.5t17.5 -28.5t13.5 -49q11 -53 4.5 -79t-32.5 -40q-4 -2 -9.5 -5.5t-15 -10.5t-24.5 -18t-37 -27q-42 -32 -78 -62t-62.5 -59.5t-41 -57t-14.5 -52.5q0 -34 20.5 -48.5t57.5 -14.5q29 0 59 4
t60 9q43 8 52 -65q5 -38 -6 -58.5t-34 -27.5q-50 -16 -113.5 -26t-123.5 -10q-105 0 -163.5 45.5t-58.5 126.5q0 45 15.5 85t43.5 75t66 66.5t83 59.5q-35 -4 -69 -6t-68 -2q-98 0 -174 30.5t-127.5 84t-78.5 127t-27 159.5q0 52 9 104.5t27 103t45.5 97.5t64.5 88
q76 83 184.5 128.5t246.5 45.5q88 0 160 -22.5t123 -63.5t78.5 -97.5t27.5 -125.5q0 -38 -10 -81.5t-35 -80.5q-29 -43 -80 -68t-126 -33zM670 719q-103 0 -172 -50t-100 -153l349 35q45 5 61.5 26t16.5 47q0 17 -9 34t-28 30.5t-48.5 22t-69.5 8.5z" />
    <glyph glyph-name="gbreve" unicode="&#x11f;" 
d="M727 1041q-163 0 -252.5 68t-109.5 189q-4 20 10.5 40.5t43.5 33.5q32 14 58 13.5t36 -20.5q28 -59 81 -89.5t149 -30.5q48 0 85 8t67 23.5t54 38t46 50.5q16 18 41 19.5t55 -10.5q28 -11 43 -31.5t5 -44.5q-23 -58 -60 -105.5t-88 -81t-117 -52t-147 -18.5zM494 8
q-86 0 -154 29.5t-114.5 81t-71 122.5t-24.5 154q0 64 14 130t42 127t70 114.5t99 93.5t127.5 63t156.5 23q97 0 169 -39.5t117 -115.5l14 80q6 34 36 48.5t87 14.5q56 0 74.5 -14.5t12.5 -48.5l-154 -875q-17 -96 -55.5 -172t-102 -129.5t-152.5 -81.5t-207 -28
q-73 0 -160 15t-182 44q-34 11 -41 41t17 94q12 31 24.5 49t26 26.5t28 8.5t29.5 -4q66 -20 137 -33.5t131 -13.5q121 0 182 51.5t78 152.5l19 107q-59 -54 -128.5 -84.5t-144.5 -30.5zM564 235q69 0 121 26.5t86.5 69t52 96t17.5 107.5q0 46 -14.5 81t-40.5 58t-61 34.5
t-76 11.5q-65 0 -112.5 -28.5t-78.5 -73t-46 -99t-15 -106.5q0 -87 44.5 -132t122.5 -45z" />
    <glyph glyph-name="gcircumflex" unicode="&#x11d;" 
d="M446 1029q-39 -17 -64 30q-11 20 -11 37t19 31l323 261q24 18 58 18q16 0 30 -4t22 -14l251 -261q29 -31 2 -72q-13 -20 -31 -29t-41 3l-255 134zM494 8q-86 0 -154 29.5t-114.5 81t-71 122.5t-24.5 154q0 64 14 130t42 127t70 114.5t99 93.5t127.5 63t156.5 23
q97 0 169 -39.5t117 -115.5l14 80q6 34 36 48.5t87 14.5q56 0 74.5 -14.5t12.5 -48.5l-154 -875q-17 -96 -55.5 -172t-102 -129.5t-152.5 -81.5t-207 -28q-73 0 -160 15t-182 44q-34 11 -41 41t17 94q12 31 24.5 49t26 26.5t28 8.5t29.5 -4q66 -20 137 -33.5t131 -13.5
q121 0 182 51.5t78 152.5l19 107q-59 -54 -128.5 -84.5t-144.5 -30.5zM564 235q69 0 121 26.5t86.5 69t52 96t17.5 107.5q0 46 -14.5 81t-40.5 58t-61 34.5t-76 11.5q-65 0 -112.5 -28.5t-78.5 -73t-46 -99t-15 -106.5q0 -87 44.5 -132t122.5 -45z" />
    <glyph glyph-name="gcommaaccent" unicode="&#x123;" 
d="M494 8q-86 0 -154 29.5t-114.5 81t-71 122.5t-24.5 154q0 64 14 130t42 127t70 114.5t99 93.5t127.5 63t156.5 23q97 0 169 -39.5t117 -115.5l14 80q6 34 36 48.5t87 14.5q56 0 74.5 -14.5t12.5 -48.5l-154 -875q-17 -96 -55.5 -172t-102 -129.5t-152.5 -81.5t-207 -28
q-73 0 -160 15t-182 44q-34 11 -41 41t17 94q12 31 24.5 49t26 26.5t28 8.5t29.5 -4q66 -20 137 -33.5t131 -13.5q121 0 182 51.5t78 152.5l19 107q-59 -54 -128.5 -84.5t-144.5 -30.5zM564 235q69 0 121 26.5t86.5 69t52 96t17.5 107.5q0 46 -14.5 81t-40.5 58t-61 34.5
t-76 11.5q-65 0 -112.5 -28.5t-78.5 -73t-46 -99t-15 -106.5q0 -87 44.5 -132t122.5 -45zM802.951 1419.91q15.999 22.999 41.4971 32.998q25.499 10 57.4971 10q33.998 0 48.9971 -13q14.999 -12.999 5.99902 -45.9971l-87.9941 -312.98q-4 -12.999 -15.499 -19.999
q-11.5 -6.99902 -25.499 -6.99902h-221.986q-16.999 0 -20.499 12.499q-3.49902 12.499 8.5 30.498z" />
    <glyph glyph-name="gdotaccent" unicode="&#x121;" 
d="M494 8q-86 0 -154 29.5t-114.5 81t-71 122.5t-24.5 154q0 64 14 130t42 127t70 114.5t99 93.5t127.5 63t156.5 23q97 0 169 -39.5t117 -115.5l14 80q6 34 36 48.5t87 14.5q56 0 74.5 -14.5t12.5 -48.5l-154 -875q-17 -96 -55.5 -172t-102 -129.5t-152.5 -81.5t-207 -28
q-73 0 -160 15t-182 44q-34 11 -41 41t17 94q12 31 24.5 49t26 26.5t28 8.5t29.5 -4q66 -20 137 -33.5t131 -13.5q121 0 182 51.5t78 152.5l19 107q-59 -54 -128.5 -84.5t-144.5 -30.5zM564 235q69 0 121 26.5t86.5 69t52 96t17.5 107.5q0 46 -14.5 81t-40.5 58t-61 34.5
t-76 11.5q-65 0 -112.5 -28.5t-78.5 -73t-46 -99t-15 -106.5q0 -87 44.5 -132t122.5 -45zM728 1066q-35 0 -64 12.5t-50 34.5t-33 50.5t-12 61.5q0 38 15.5 74t43 64.5t65 45.5t81.5 17q34 0 63 -12.5t50 -34t33 -50t12 -60.5q0 -39 -14.5 -75.5t-41.5 -65t-64.5 -45.5
t-83.5 -17z" />
    <glyph glyph-name="hbar" unicode="&#x127;" 
d="M555 1312q34 0 46 -14.5t6 -48.5l-17 -94h198q17 0 28 -4t17 -15.5t6 -31.5t-6 -52t-13 -52t-16.5 -31t-22 -15t-29.5 -4h-198l-45 -256q76 88 152.5 130t157.5 42q60 0 108 -19.5t81 -55.5t51 -85.5t18 -109.5q0 -18 -2 -37.5t-5 -38.5l-55 -315h77q17 0 28 -4
t16.5 -15.5t5.5 -31.5t-6 -52t-12.5 -52t-16 -31t-22 -15t-29.5 -4h-264q-34 0 -46 14.5t-6 48.5l73 418q6 31 6 58q0 48 -21.5 74t-73.5 26q-45 0 -91.5 -33t-87.5 -87t-71.5 -122.5t-42.5 -138.5l-33 -195q-6 -34 -23 -48.5t-51 -14.5h-124q-34 0 -46 14.5t-6 48.5
l156 887h-114q-17 0 -28 4t-17 15t-6 31t6 52t13 52t16.5 31.5t22 15.5t29.5 4h114l17 94q6 34 23 48.5t51 14.5h124z" />
    <glyph glyph-name="hcircumflex" unicode="&#x125;" 
d="M496 1399q-39 -17 -64 30q-11 20 -11 37t19 31l323 261q24 18 58 18q16 0 30 -4t22 -14l251 -261q29 -31 2 -72q-13 -20 -31 -29t-41 3l-255 134zM523 774q76 88 152.5 130t157.5 42q60 0 108 -19.5t81 -55.5t51 -85.5t18 -109.5q0 -18 -2 -37.5t-5 -38.5l-69 -395h77
q17 0 28 -4t16.5 -15.5t5.5 -31.5t-6 -52t-12.5 -52t-16 -31t-22 -15t-29.5 -4h-264q-34 0 -46 14.5t-6 48.5l87 498q6 31 6 58q0 48 -21.5 74t-73.5 26q-45 0 -91.5 -33t-87.5 -87t-71.5 -122.5t-42.5 -138.5l-47 -275q-6 -34 -23 -48.5t-51 -14.5h-124q-34 0 -46 14.5
t-6 48.5l184 1044h-97q-17 0 -28 4t-17 15t-6 31t6 52t13 52t16.5 31.5t22 15.5t29.5 4h284q34 0 46 -14.5t6 -48.5z" />
    <glyph glyph-name="ibreve" unicode="&#x12d;" 
d="M306 719q-17 0 -28 4t-17 15t-6 31t6 52t13 52t16.5 31.5t22 15.5t29.5 4h380q34 0 46 -14.5t6 -48.5l-88 -500q-2 -14 -3.5 -27.5t-1.5 -25.5q0 -54 24.5 -78.5t72.5 -24.5q25 0 48 3.5t47.5 11t50.5 19t57 28.5q38 20 62 3t47 -66q10 -22 16 -40.5t4.5 -34.5t-11 -29.5
t-29.5 -25.5q-48 -27 -90 -45.5t-82 -29.5t-79.5 -16t-82.5 -5q-147 0 -227 77t-80 217q0 45 9 96l61 351h-193zM647 1041q-163 0 -252.5 68t-109.5 189q-4 20 10.5 40.5t43.5 33.5q32 14 58 13.5t36 -20.5q28 -59 81 -89.5t149 -30.5q48 0 85 8t67 23.5t54 38t46 50.5
q16 18 41 19.5t55 -10.5q28 -11 43 -31.5t5 -44.5q-23 -58 -60 -105.5t-88 -81t-117 -52t-147 -18.5z" />
    <glyph glyph-name="imacron" unicode="&#x12b;" 
d="M306 719q-17 0 -28 4t-17 15t-6 31t6 52t13 52t16.5 31.5t22 15.5t29.5 4h380q34 0 46 -14.5t6 -48.5l-88 -500q-2 -14 -3.5 -27.5t-1.5 -25.5q0 -54 24.5 -78.5t72.5 -24.5q25 0 48 3.5t47.5 11t50.5 19t57 28.5q38 20 62 3t47 -66q10 -22 16 -40.5t4.5 -34.5t-11 -29.5
t-29.5 -25.5q-48 -27 -90 -45.5t-82 -29.5t-79.5 -16t-82.5 -5q-147 0 -227 77t-80 217q0 45 9 96l61 351h-193zM929 1275q17 0 28 -4t17 -15.5t6 -31.5t-6 -52t-13 -52t-16.5 -31t-22 -15t-29.5 -4h-562q-17 0 -28 4t-17 15t-6 31t6 52t13 52t16.5 31.5t22 15.5t29.5 4h562
z" />
    <glyph glyph-name="iogonek" unicode="&#x12f;" 
d="M306 719q-17 0 -28 4t-17 15t-6 31t6 52t13 52t16.5 31.5t22 15.5t29.5 4h380q34 0 46 -14.5t6 -48.5l-88 -500q-2 -14 -3.5 -27.5t-1.5 -25.5q0 -54 24.5 -78.5t72.5 -24.5q25 0 48 3.5t47.5 11t50.5 19t57 28.5q38 20 62 3t47 -66q10 -22 16 -40.5t4.5 -34.5t-11 -29.5
t-29.5 -25.5q-66 -37 -120 -57.5t-108 -29.5q-40 -30 -73.5 -59.5t-58 -57.5t-38 -54.5t-13.5 -50.5q0 -34 20.5 -48.5t57.5 -14.5q29 0 59 4t60 9q43 8 52 -65q5 -38 -6 -58.5t-34 -27.5q-50 -16 -113.5 -26t-123.5 -10q-105 0 -163.5 45.5t-58.5 126.5q0 46 16.5 86.5
t45.5 76.5t68.5 68t86.5 60q-96 26 -146.5 97.5t-50.5 183.5q0 45 9 96l61 351h-193zM826 1156q-3 -17 -11 -29t-23.5 -19.5t-39.5 -11t-60 -3.5q-71 0 -96.5 14.5t-19.5 48.5l29 164q3 17 11 29t23 19.5t39 11t60 3.5q71 0 97 -14.5t20 -48.5z" />
    <glyph glyph-name="itilde" unicode="&#x129;" 
d="M797 1250q27 0 58.5 7t63.5 24q23 13 43 2t35 -39q14 -26 15 -51.5t-19 -41.5q-60 -50 -109 -71.5t-94 -21.5q-42 0 -80 11.5t-74 25.5t-71.5 25.5t-72.5 11.5q-29 0 -60.5 -7t-63.5 -24q-22 -12 -41.5 -1t-34.5 39q-14 26 -15.5 51t17.5 41q60 52 110 72.5t95 20.5
q41 0 79 -11.5t74 -25.5t72 -25.5t73 -11.5zM306 719q-17 0 -28 4t-17 15t-6 31t6 52t13 52t16.5 31.5t22 15.5t29.5 4h380q34 0 46 -14.5t6 -48.5l-88 -500q-2 -14 -3.5 -27.5t-1.5 -25.5q0 -54 24.5 -78.5t72.5 -24.5q25 0 48 3.5t47.5 11t50.5 19t57 28.5q38 20 62 3
t47 -66q10 -22 16 -40.5t4.5 -34.5t-11 -29.5t-29.5 -25.5q-48 -27 -90 -45.5t-82 -29.5t-79.5 -16t-82.5 -5q-147 0 -227 77t-80 217q0 45 9 96l61 351h-193z" />
    <glyph glyph-name="jcircumflex" unicode="&#x135;" 
d="M546 1029q-39 -17 -64 30q-11 20 -11 37t19 31l323 261q24 18 58 18q16 0 30 -4t22 -14l251 -261q29 -31 2 -72q-13 -20 -31 -29t-41 3l-255 134zM96 -315q-30 16 -35.5 47t26.5 90q16 30 30.5 46.5t29 23.5t28.5 6t28 -8q30 -15 61.5 -29t62 -25t59 -17.5t54.5 -6.5
q62 0 102.5 39.5t56.5 126.5l130 741h-383q-17 0 -28 4t-17 15t-6 31t6 52t13 52t16.5 31.5t22 15.5t29.5 4h570q34 0 46 -14.5t6 -48.5l-160 -906q-33 -187 -130.5 -278.5t-271.5 -91.5q-87 0 -175 27t-171 73z" />
    <glyph glyph-name="kcommaaccent" unicode="&#x137;" 
d="M780 739h-43q-34 0 -45.5 18t-1.5 74q5 28 11.5 46t16 28.5t22 14.5t29.5 4h414q34 0 45.5 -18.5t1.5 -74.5q-5 -28 -11.5 -46t-16 -28t-22 -14t-29.5 -4h-30l-430 -290q38 8 73.5 3.5t67.5 -24.5q31 -20 50 -46t32.5 -53.5t25 -53t28.5 -43.5q24 -27 65 -27h29
q17 0 28 -4t16.5 -15.5t5.5 -31.5t-6 -52t-12.5 -52t-16 -31t-22 -15t-29.5 -4h-117q-33 0 -61.5 11t-54.5 36t-43 56.5t-32 63t-31.5 60t-41.5 49.5q-18 14 -40.5 21t-46.5 7q-27 0 -55.5 -8.5t-52.5 -25.5l-7 -5l-35 -202q-6 -34 -23 -48.5t-51 -14.5h-124q-34 0 -46 14.5
t-6 48.5l184 1044h-97q-17 0 -28 4t-17 15t-6 31t6 52t13 52t16.5 31.5t22 15.5t29.5 4h284q34 0 46 -14.5t6 -48.5l-126 -714zM504 -502q-16 -23 -41.5 -33t-57.5 -10q-34 0 -49 13t-6 46l88 313q4 13 15.5 20t25.5 7h222q17 0 20.5 -12.5t-8.5 -30.5z" />
    <glyph glyph-name="lacute" unicode="&#x13a;" 
d="M889 1762q28 16 59 -3.5t61 -87.5q30 -69 26.5 -102.5t-29.5 -40.5l-480 -125q-24 -7 -42 4.5t-26 34.5q-8 22 -2.5 41.5t25.5 31.5zM305 1107q-17 0 -28 4t-17 15t-6 31t6 52t13 52t16.5 31.5t22 15.5t29.5 4h420q34 0 46 -14.5t6 -48.5l-157 -888q-2 -14 -3.5 -27.5
t-1.5 -25.5q0 -54 24.5 -78.5t72.5 -24.5q25 0 48 3.5t47.5 11t50.5 19t57 28.5q38 20 62 3t47 -66q10 -22 16 -40.5t4.5 -34.5t-11 -29.5t-29.5 -25.5q-48 -27 -90 -45.5t-82 -29.5t-79.5 -16t-82.5 -5q-147 0 -227 77t-80 217q0 45 9 96l130 739h-233z" />
    <glyph glyph-name="lcaron" unicode="&#x13e;" 
d="M305 1107q-17 0 -28 4t-17 15t-6 31t6 52t13 52t16.5 31.5t22 15.5t29.5 4h420q34 0 46 -14.5t6 -48.5l-157 -888q-2 -14 -3.5 -27.5t-1.5 -25.5q0 -54 24.5 -78.5t72.5 -24.5q25 0 48 3.5t47.5 11t50.5 19t57 28.5q38 20 62 3t47 -66q10 -22 16 -40.5t4.5 -34.5
t-11 -29.5t-29.5 -25.5q-48 -27 -90 -45.5t-82 -29.5t-79.5 -16t-82.5 -5q-147 0 -227 77t-80 217q0 45 9 96l130 739h-233zM943.219 813.687q-19.0127 -27.3154 -40.5059 -38.9043t-56.2129 -11.5889q-41.333 0 -54.5596 16.1416t0.827148 55.0459l138.879 390.702
q5.78613 16.5557 18.5996 24.833q12.8125 8.27734 30.1729 8.27734h214.104q20.667 0 24.3867 -15.3135q3.7207 -15.3135 -10.333 -36.835z" />
    <glyph glyph-name="lcommaaccent" unicode="&#x13c;" 
d="M305 1107q-17 0 -28 4t-17 15t-6 31t6 52t13 52t16.5 31.5t22 15.5t29.5 4h420q34 0 46 -14.5t6 -48.5l-157 -888q-2 -14 -3.5 -27.5t-1.5 -25.5q0 -54 24.5 -78.5t72.5 -24.5q25 0 48 3.5t47.5 11t50.5 19t57 28.5q38 20 62 3t47 -66q10 -22 16 -40.5t4.5 -34.5
t-11 -29.5t-29.5 -25.5q-48 -27 -90 -45.5t-82 -29.5t-79.5 -16t-82.5 -5q-147 0 -227 77t-80 217q0 45 9 96l130 739h-233zM564 -502q-16 -23 -41.5 -33t-57.5 -10q-34 0 -49 13t-6 46l88 313q4 13 15.5 20t25.5 7h222q17 0 20.5 -12.5t-8.5 -30.5z" />
    <glyph glyph-name="ldot" unicode="&#x140;" 
d="M979 546q-35 0 -64 12.5t-50 34.5t-33 50.5t-12 61.5q0 38 15.5 74t43 64.5t65 45.5t81.5 17q34 0 63 -12.5t50 -34t33 -50t12 -60.5q0 -39 -14.5 -75.5t-41.5 -65t-64.5 -45.5t-83.5 -17zM245 1107q-17 0 -28 4t-17 15t-6 31t6 52t13 52t16.5 31.5t22 15.5t29.5 4h420
q34 0 46 -14.5t6 -48.5l-157 -888q-2 -14 -3.5 -27.5t-1.5 -25.5q0 -54 24.5 -78.5t72.5 -24.5q25 0 48 3.5t47.5 11t50.5 19t57 28.5q38 20 62 3t47 -66q10 -22 16 -40.5t4.5 -34.5t-11 -29.5t-29.5 -25.5q-48 -27 -90 -45.5t-82 -29.5t-79.5 -16t-82.5 -5q-147 0 -227 77
t-80 217q0 45 9 96l130 739h-233z" />
    <glyph glyph-name="nacute" unicode="&#x144;" 
d="M929 1392q28 16 59 -3.5t61 -87.5q30 -69 26.5 -102.5t-29.5 -40.5l-480 -125q-24 -7 -42 4.5t-26 34.5q-8 22 -2.5 41.5t25.5 31.5zM273 719h-97q-17 0 -28 4t-17 15t-6 31t6 52t13 52t16.5 31.5t22 15.5t29.5 4h244q34 0 46 -14.5t6 -48.5l-25 -145q88 122 177 176
t183 54q60 0 108 -20t81 -55.5t51 -85.5t18 -110q0 -18 -2 -37t-5 -38l-69 -395h77q17 0 28 -4t16.5 -15.5t5.5 -31.5t-6 -52t-12.5 -52t-16 -31t-22 -15t-29.5 -4h-264q-34 0 -46 14.5t-6 48.5l87 498q6 33 6 60q0 47 -22 72.5t-73 25.5q-45 0 -91.5 -33t-87.5 -87
t-71.5 -122.5t-42.5 -138.5l-47 -275q-6 -34 -23 -48.5t-51 -14.5h-124q-34 0 -46 14.5t-6 48.5z" />
    <glyph glyph-name="ncaron" unicode="&#x148;" 
d="M1036 1394q39 17 64 -30q11 -20 10.5 -36.5t-18.5 -31.5l-323 -261q-24 -18 -58 -18t-52 18l-251 261q-29 31 -2 72q13 20 31 29t41 -3l255 -134zM273 719h-97q-17 0 -28 4t-17 15t-6 31t6 52t13 52t16.5 31.5t22 15.5t29.5 4h244q34 0 46 -14.5t6 -48.5l-25 -145
q88 122 177 176t183 54q60 0 108 -20t81 -55.5t51 -85.5t18 -110q0 -18 -2 -37t-5 -38l-69 -395h77q17 0 28 -4t16.5 -15.5t5.5 -31.5t-6 -52t-12.5 -52t-16 -31t-22 -15t-29.5 -4h-264q-34 0 -46 14.5t-6 48.5l87 498q6 33 6 60q0 47 -22 72.5t-73 25.5q-45 0 -91.5 -33
t-87.5 -87t-71.5 -122.5t-42.5 -138.5l-47 -275q-6 -34 -23 -48.5t-51 -14.5h-124q-34 0 -46 14.5t-6 48.5z" />
    </font>
</defs>
</svg>
