<?xml version="1.0" standalone="no"?>
<!DOCTYPE svg PUBLIC "-//W3C//DTD SVG 1.1//EN" "http://www.w3.org/Graphics/SVG/1.1/DTD/svg11.dtd" >
<svg xmlns="http://www.w3.org/2000/svg" xmlns:xlink="http://www.w3.org/1999/xlink" version="1.1">
<metadata>
Created by FontForge 20141024 at Thu May 21 10:39:26 2015
 By System Administrator
Copyright (c) 2013 Quote-Unquote Apps.
</metadata>
<defs>
<font id="CourierPrime-Italic" horiz-adv-x="1228" >
  <font-face 
    font-family="Courier Prime"
    font-weight="400"
    font-style="italic"
    font-stretch="normal"
    units-per-em="2048"
    panose-1="2 0 4 9 0 0 0 0 0 0"
    ascent="1638"
    descent="-410"
    x-height="924"
    cap-height="1187"
    bbox="-532 -838 3168 1797"
    underline-thickness="130"
    underline-position="-120"
    unicode-range="U+0020-FB02"
  />
<missing-glyph 
 />
    <glyph glyph-name=".notdef" 
 />
    <glyph glyph-name="exclam" unicode="!" 
d="M554 -22q-29 0 -53.5 10.5t-42 28.5t-27 42t-9.5 51q0 36 15 68t40 56t57 38t66 14q29 0 53.5 -10.5t42 -28.5t27 -42t9.5 -52q0 -36 -15 -68t-39.5 -55.5t-57 -37.5t-66.5 -14zM812 1209q45 0 32 -50l-163 -647q-12 -48 -66 -48q-26 0 -38.5 12.5t-10.5 35.5l66 647
q4 50 50 50h130z" />
    <glyph glyph-name="quotedbl" unicode="&#x22;" 
d="M649 1209q46 0 32 -50l-134 -450q-8 -26 -28 -40t-50 -14q-29 0 -44.5 14t-13.5 40l24 450q3 50 50 50h164zM1029 1209q46 0 32 -50l-134 -450q-8 -26 -28 -40t-50 -14q-29 0 -44.5 14t-13.5 40l24 450q3 50 50 50h164z" />
    <glyph glyph-name="numbersign" unicode="#" 
d="M534 861l155 315q8 17 25 25t35 8q15 0 28.5 -4.5t22.5 -13.5t11.5 -21.5t-4.5 -27.5l-138 -281h219l155 315q8 17 25 25t35 8q15 0 28.5 -4.5t22.5 -13.5t11.5 -21.5t-4.5 -27.5l-138 -281h183q34 0 46 -15t5 -53q-6 -38 -23.5 -53t-51.5 -15h-225l-124 -253h205
q34 0 46 -15t5 -53t-24 -53t-51 -15h-248l-159 -325q-8 -17 -24.5 -25t-35.5 -8q-15 0 -28.5 4.5t-22.5 13.5t-12 21.5t5 27.5l142 291h-219l-159 -325q-8 -17 -24.5 -25t-35.5 -8q-15 0 -28.5 4.5t-22.5 13.5t-12 21.5t5 27.5l142 291h-185q-34 0 -46 15t-5 53t24 53t51 15
h228l124 253h-208q-34 0 -45.5 15t-5.5 53q7 38 24 53t51 15h250zM479 472h219l124 253h-219z" />
    <glyph glyph-name="dollar" unicode="$" 
d="M291 183q-6 -35 -25 -50t-61 -15t-56 15t-8 50l42 240q6 35 25.5 50t61.5 15q22 0 32 -9.5t15 -31.5q16 -75 64.5 -118t133.5 -58l50 283q-39 5 -78 12.5t-77 20.5q-34 11 -62.5 27t-49.5 38t-32.5 50.5t-11.5 66.5q0 62 25 119t75 101t126 70.5t178 26.5l29 161
q6 35 25.5 50t56.5 15t50.5 -15t7.5 -50l-32 -178q101 -29 161 -93l8 45q6 35 25 50t61 15t56 -15t8 -50l-34 -190q-6 -35 -25 -50t-61 -15q-35 0 -44 26q-21 61 -66.5 93.5t-112.5 45.5l-43 -247q42 -5 83.5 -13t83.5 -21q34 -11 63.5 -27.5t51.5 -39.5t34 -53.5t12 -69.5
q0 -33 -8.5 -70.5t-28 -75t-51.5 -72.5t-79.5 -62t-112 -44t-148.5 -18l-31 -178q-6 -35 -25.5 -50t-56.5 -15t-50.5 15t-7.5 50l33 189q-119 25 -189 110zM654 263q71 3 118 21.5t74.5 44t38.5 53.5t11 51q0 37 -30 57.5t-78 31.5q-22 5 -43 8.5t-43 6.5zM633 941
q-56 -2 -97.5 -15t-68.5 -33t-40 -45.5t-13 -52.5q0 -35 29.5 -53t79.5 -29q32 -7 68 -12z" />
    <glyph glyph-name="percent" unicode="%" 
d="M836 -22q-51 0 -93.5 18.5t-74 51t-49 75.5t-17.5 92q0 65 26.5 122t71 99t101.5 66t119 24q51 0 93.5 -19t74 -51t49 -75t17.5 -92q0 -65 -27 -122t-71 -99t-101.5 -66t-118.5 -24zM853 108q33 0 63.5 13.5t54.5 37t38.5 54t14.5 64.5q0 25 -9 47t-25 38t-38.5 25
t-48.5 9q-33 0 -63.5 -14t-54.5 -37t-38.5 -53.5t-14.5 -64.5q0 -51 33.5 -85t87.5 -34zM376 661q-51 0 -93.5 18.5t-74 51t-49 75.5t-17.5 92q0 65 26.5 122t71 99t101.5 66t119 24q51 0 93.5 -19t74 -51t49 -75t17.5 -92q0 -65 -27 -122t-71 -99t-101.5 -66t-118.5 -24z
M393 791q33 0 63.5 13.5t54.5 37t38.5 54t14.5 64.5q0 25 -9 47t-25 38t-38.5 25t-48.5 9q-33 0 -63.5 -14t-54.5 -37t-38.5 -53.5t-14.5 -64.5q0 -51 33.5 -85t87.5 -34zM1119 1059q29 23 51.5 21.5t42.5 -26.5q40 -50 -15 -95l-1021 -830q-56 -45 -94 5q-20 25 -16.5 48.5
t32.5 46.5z" />
    <glyph glyph-name="ampersand" unicode="&#x26;" 
d="M1004 924q-6 -35 -25 -50t-61 -15t-56 15t-8 50l16 90q-32 22 -75.5 34.5t-100.5 12.5q-44 0 -82.5 -15.5t-67.5 -43.5t-45.5 -67t-16.5 -85q0 -41 13.5 -76.5t39.5 -71.5l233 -328q28 44 54 92.5t51 102.5q8 18 22 30t37 12h161q34 0 46 -15t5 -53t-24 -53t-51 -15h-83
q-29 -63 -61.5 -118.5t-68.5 -105.5l83 -115h84q34 0 46 -15t5 -53q-6 -38 -23 -53t-51 -15h-104q-22 0 -41 8t-32 25l-70 97q-74 -72 -157 -112t-174 -40q-72 0 -126.5 22t-92 60.5t-56.5 89.5t-19 108q0 65 19.5 120.5t54 103t82.5 87.5t104 74q-26 42 -44 92t-18 108
q0 66 25.5 131.5t74.5 117.5t120.5 84.5t164.5 32.5q96 0 171.5 -29t132.5 -75q18 -15 12 -54zM438 126q65 0 122.5 31t110.5 88l-205 288q-36 -22 -68.5 -48t-57.5 -58t-39.5 -70t-14.5 -83q0 -66 40 -107t112 -41z" />
    <glyph glyph-name="quotesingle" unicode="'" 
d="M839 1209q46 0 32 -50l-134 -450q-8 -26 -28 -40t-50 -14q-29 0 -44.5 14t-13.5 40l24 450q3 50 50 50h164z" />
    <glyph glyph-name="parenleft" unicode="(" 
d="M440 302q0 -107 23.5 -198t63.5 -166t91.5 -133t107.5 -100q7 -5 8.5 -14.5t-1.5 -20.5t-10 -23t-16 -22q-17 -18 -37.5 -26.5t-39.5 4.5q-64 43 -124.5 111t-108 156.5t-76 197t-28.5 234.5q0 160 47 312.5t131 285.5t201 240t257 175q24 11 42.5 -3t28.5 -38
q6 -13 8.5 -27t1.5 -26.5t-6 -22.5t-14 -15q-127 -66 -229 -158.5t-173 -205.5t-109.5 -243.5t-38.5 -273.5z" />
    <glyph glyph-name="parenright" unicode=")" 
d="M808 615q0 107 -23.5 198t-63.5 166t-91.5 133t-107.5 100q-7 5 -8.5 14.5t1.5 20.5t10 23t16 22q17 18 37.5 26.5t39.5 -4.5q64 -44 124.5 -111.5t107.5 -156t76 -197t29 -234.5q0 -160 -47 -312.5t-131 -285.5t-201 -240t-257 -175q-24 -11 -42.5 3t-28.5 38
q-6 13 -8.5 27t-1.5 26.5t6 22.5t14 15q127 66 229 158.5t173 205.5t109.5 243.5t38.5 273.5z" />
    <glyph glyph-name="asterisk" unicode="*" 
d="M878 411q-44 -26 -73 -13t-43 48l-95 237l-175 -242q-26 -36 -62 -42.5t-69 20.5q-33 28 -34 63.5t33 64.5l233 203l-263 54q-39 8 -50 36t9 73q21 46 50 57t64 -6l238 -122l11 277q2 42 28.5 66t73.5 24t66 -24t7 -66l-86 -282l263 118q41 18 72 2.5t37 -60.5
q7 -45 -13.5 -73.5t-62.5 -36.5l-283 -48l154 -212q23 -31 18 -60.5t-48 -55.5z" />
    <glyph glyph-name="plus" unicode="+" 
d="M590 650l55 313q6 34 23.5 48.5t55.5 14.5t50.5 -14.5t6.5 -48.5l-55 -313h313q34 0 46 -15t5 -53t-24 -53t-51 -15h-313l-55 -313q-6 -34 -23.5 -48.5t-55.5 -14.5t-50.5 14.5t-6.5 48.5l55 313h-313q-34 0 -46 15t-5 53t24 53t51 15h313z" />
    <glyph glyph-name="comma" unicode="," 
d="M387 -253q-29 -41 -75 -41q-29 0 -46 17t-5 49l184 482q15 40 59 40h208q25 0 30 -18.5t-13 -44.5z" />
    <glyph glyph-name="hyphen" unicode="-" 
d="M1039 650q34 0 46 -15t5 -53t-24 -53t-51 -15h-762q-34 0 -46 15t-5 53t24 53t51 15h762z" />
    <glyph glyph-name="period" unicode="." 
d="M544 -22q-32 0 -58.5 11.5t-46 31t-30.5 46.5t-11 57q0 40 16.5 75t44.5 61t63 41t73 15q32 0 58.5 -11.5t46 -31t30 -45.5t10.5 -56q0 -40 -16.5 -75.5t-43.5 -61.5t-62.5 -41.5t-73.5 -15.5z" />
    <glyph glyph-name="slash" unicode="/" 
d="M232 -267q-10 -16 -30 -23t-43 -7q-18 0 -35.5 4.5t-29.5 13t-15.5 20t5.5 26.5l954 1538q10 16 30 23t43 7q18 0 35.5 -4.5t29.5 -13t15.5 -20t-5.5 -26.5z" />
    <glyph glyph-name="zero" unicode="0" 
d="M731 1061q-59 0 -108.5 -28t-90.5 -75.5t-72 -110.5t-52 -133.5t-32 -144.5t-11 -143q0 -146 53.5 -223t147.5 -77q58 0 108 28t91 75.5t72 110.5t52 133.5t32 144.5t11 143q0 146 -53.5 223t-147.5 77zM744 1209q81 0 144.5 -32.5t108 -91.5t67.5 -143t23 -186
q0 -79 -13.5 -167.5t-42 -175t-71.5 -165t-102.5 -139t-135.5 -96t-169 -35.5q-81 0 -144.5 32.5t-108 91.5t-67.5 143t-23 186q0 79 13.5 167.5t42 175t71.5 165t102.5 139t135.5 96t169 35.5z" />
    <glyph glyph-name="one" unicode="1" 
d="M522 136l157 891l-260 -89q-23 -8 -41 2.5t-26 48.5q-8 36 3 57t37 29l394 133q33 11 52.5 -6.5t12.5 -55.5l-179 -1010h275q34 0 46 -15t5 -53q-6 -38 -23 -53t-51 -15h-674q-34 0 -46 15t-6 53q7 38 24 53t51 15h249z" />
    <glyph glyph-name="two" unicode="2" 
d="M180 0q-34 0 -46 15t-6 53q7 38 25 54l519 446q42 36 74.5 67t57 59t42 54.5t28.5 54.5q8 22 14 46.5t6 51.5q0 74 -49 117t-147 43q-60 0 -115 -17.5t-103 -43.5l-19 -105q-6 -35 -25 -50t-61 -15t-56 15t-8 50l27 153q7 39 33 55q79 50 164.5 78t177.5 28q77 0 140 -20
t107.5 -57t68.5 -90.5t24 -120.5q0 -35 -6 -71t-19 -71q-15 -41 -37.5 -78t-53.5 -73.5t-70 -73.5t-86 -77l-397 -341h446l26 146q6 35 25.5 50t61.5 15t55.5 -15t7.5 -50l-38 -214q-6 -38 -23 -53t-51 -15h-714z" />
    <glyph glyph-name="three" unicode="3" 
d="M534 -22q-50 0 -99 9t-94.5 25.5t-86.5 39.5t-75 52q-23 19 -22.5 42t18.5 51q9 13 19.5 24.5t22.5 17t25 4t26 -13.5q57 -48 129.5 -75.5t152.5 -27.5q82 0 138.5 24.5t91.5 63t50.5 86t15.5 92.5q0 81 -56.5 122t-159.5 41h-73q-34 0 -45.5 15t-5.5 53q7 38 24 53
t51 15h55q76 0 127.5 20.5t83 52.5t44.5 72.5t13 80.5q0 68 -49.5 106t-146.5 38q-117 0 -204 -39l-12 -67q-6 -35 -25.5 -50t-61.5 -15t-55.5 15t-7.5 50l20 114q4 22 12.5 35t24.5 22q76 42 153.5 62.5t170.5 20.5q77 0 139 -20.5t105.5 -58t67 -89t23.5 -114.5
q0 -100 -48.5 -177.5t-151.5 -122.5q69 -31 107 -91t38 -141q0 -45 -10.5 -93.5t-33.5 -94.5t-59.5 -88t-88.5 -73t-121 -49.5t-156 -18.5z" />
    <glyph glyph-name="four" unicode="4" 
d="M641 136l40 224h-478q-34 0 -46 15t-5 53q3 16 7 29t11 21l603 673q26 30 54 44t67 14q47 0 63 -21.5t10 -56.5l-112 -635h162q34 0 46 -15t5 -53t-24 -53t-51 -15h-162l-40 -224h132q34 0 46 -15t5 -53q-6 -38 -23 -53t-51 -15h-430q-34 0 -46 15t-6 53q7 38 24 53
t51 15h148zM799 986l-431 -490h337z" />
    <glyph glyph-name="five" unicode="5" 
d="M265 226q56 -45 126.5 -72.5t148.5 -27.5q82 0 142 29.5t98 75t56.5 102t18.5 110.5q0 88 -53 141.5t-152 53.5q-72 0 -128.5 -18.5t-111.5 -52.5q-17 -10 -51 -10q-42 0 -57 15t-7 50l108 500q8 35 26.5 50t60.5 15h534q34 0 46 -15t5 -53t-24 -53t-51 -15h-466
l-69 -316q52 27 104.5 39t109.5 12q80 0 142 -24.5t105 -68.5t65 -104.5t22 -131.5q0 -53 -12.5 -109.5t-38 -110t-65 -100.5t-93 -82.5t-122.5 -56t-153 -20.5q-98 0 -188.5 32.5t-159.5 86.5q-22 17 -24.5 40.5t21.5 58.5t45.5 41t41.5 -11z" />
    <glyph glyph-name="six" unicode="6" 
d="M663 583q-57 0 -110.5 -18t-95 -51.5t-66 -82.5t-24.5 -112q0 -43 14.5 -78.5t42 -61t67.5 -39.5t91 -14q81 0 138 27t92 68t51 89.5t16 90.5q0 84 -56 133t-160 49zM1062 1062q-139 -7 -248.5 -43.5t-192 -97.5t-138 -142.5t-86.5 -178.5q65 64 143.5 97.5t164.5 33.5
q73 0 134.5 -23t105 -64t68 -99t24.5 -128q0 -81 -30.5 -159.5t-90 -140.5t-147.5 -100.5t-203 -38.5q-53 0 -102.5 12.5t-91 37.5t-74 62t-52.5 86q-33 79 -33 196q0 96 21.5 193.5t66 188.5t112.5 171t162 140.5t214 98.5t268 45q22 1 37.5 -12.5t15.5 -54.5
q0 -45 -14 -62t-34 -18z" />
    <glyph glyph-name="seven" unicode="7" 
d="M963 1051h-469l-26 -146q-6 -35 -25 -50t-61 -15t-56 15t-8 50l38 214q7 38 24 53t51 15h674q34 0 46 -15t5 -53q-2 -13 -6 -23.5t-7 -16.5l-612 -1055q-14 -24 -38.5 -35t-50.5 -11q-18 0 -34 5.5t-25.5 15.5t-11.5 24.5t9 32.5z" />
    <glyph glyph-name="eight" unicode="8" 
d="M550 -22q-79 0 -145 23.5t-113 65.5t-73.5 99t-26.5 124q0 63 20 116.5t55.5 96.5t83 76t101.5 56q-54 33 -89.5 87t-35.5 124q0 57 27 121t80 118t131.5 89t181.5 35q72 0 131 -22t102 -61t66.5 -91t23.5 -112q0 -54 -16.5 -99t-45.5 -82t-68 -66t-83 -51
q70 -35 113.5 -96.5t43.5 -144.5q0 -69 -29.5 -141t-88 -131t-145.5 -96.5t-201 -37.5zM641 554q-69 0 -123 -22t-90.5 -58t-56 -81.5t-19.5 -91.5q0 -39 15 -71t43 -55.5t67.5 -36t88.5 -12.5q68 0 121.5 22t91 57.5t57 81t19.5 92.5q0 39 -15 71.5t-42.5 55.5t-67.5 35.5
t-89 12.5zM666 693q51 0 96.5 17t79.5 46.5t54 69t20 84.5q0 71 -51 111t-134 40q-60 0 -106.5 -19t-79 -49.5t-49 -68.5t-16.5 -77q0 -33 13.5 -61.5t38 -49t58.5 -32t76 -11.5z" />
    <glyph glyph-name="nine" unicode="9" 
d="M633 604q57 0 110.5 18t95 51.5t66 82.5t24.5 112q0 43 -14.5 78.5t-42 61t-67.5 39.5t-91 14q-81 0 -138 -27t-92 -68t-51 -89.5t-16 -90.5q0 -84 56 -133t160 -49zM234 125q139 7 248.5 43.5t192 97.5t138 142.5t86.5 178.5q-65 -64 -143.5 -97.5t-164.5 -33.5
q-74 0 -135 23t-104.5 64t-68 99t-24.5 128q0 81 30.5 159.5t90 140.5t147.5 100.5t203 38.5q53 0 102.5 -12.5t91 -37.5t74 -62t52.5 -86q33 -80 33 -196q0 -96 -21.5 -193.5t-66 -188.5t-112.5 -171t-162 -140.5t-214 -98.5t-268 -45q-23 -1 -38 12.5t-15 54.5q0 45 14 62
t34 18z" />
    <glyph glyph-name="colon" unicode=":" 
d="M544 -22q-32 0 -58.5 11.5t-46 31t-30.5 46.5t-11 57q0 40 16.5 75t44.5 61t63 41t73 15q32 0 58.5 -11.5t46 -31t30 -45.5t10.5 -56q0 -40 -16.5 -75.5t-43.5 -61.5t-62.5 -41.5t-73.5 -15.5zM656 608q-32 0 -58.5 11.5t-46 31t-30.5 46.5t-11 57q0 40 16.5 75t44.5 61
t63 41t73 15q32 0 58.5 -11.5t46 -31t30 -45.5t10.5 -56q0 -40 -16.5 -75.5t-43.5 -61.5t-62.5 -41.5t-73.5 -15.5z" />
    <glyph glyph-name="semicolon" unicode=";" 
d="M656 608q-32 0 -58.5 11.5t-46 31t-30.5 46.5t-11 57q0 40 16.5 75t44.5 61t63 41t73 15q32 0 58.5 -11.5t46 -31t30 -45.5t10.5 -56q0 -40 -16.5 -75.5t-43.5 -61.5t-62.5 -41.5t-73.5 -15.5zM387 -253q-29 -41 -75 -41q-29 0 -46 17t-5 49l184 482q15 40 59 40h208
q25 0 30 -18.5t-13 -44.5z" />
    <glyph glyph-name="less" unicode="&#x3c;" 
d="M988 261q29 -15 32 -37.5t-20 -57.5q-23 -33 -46.5 -40.5t-51.5 7.5l-710 381q-22 12 -31 27.5t-4 41.5t19 41.5t40 27.5l845 381q33 15 55 4t33 -44q11 -35 2.5 -59.5t-43.5 -39.5l-722 -318z" />
    <glyph glyph-name="equal" unicode="=" 
d="M1074 850q34 0 46 -15t5 -53q-6 -38 -23.5 -53t-51.5 -15h-762q-34 0 -45.5 15t-5.5 53q7 38 24 53t51 15h762zM1004 450q34 0 46 -15t5 -53t-24 -53t-51 -15h-762q-34 0 -46 15t-5 53t24 53t51 15h762z" />
    <glyph glyph-name="greater" unicode="&#x3e;" 
d="M304 905q-29 15 -32 37.5t20 57.5q23 33 46.5 40.5t51.5 -7.5l710 -381q22 -12 31 -27.5t4 -41.5t-19 -41.5t-40 -27.5l-845 -381q-33 -15 -55 -4t-33 44q-11 35 -2.5 59.5t43.5 39.5l722 318z" />
    <glyph glyph-name="question" unicode="?" 
d="M514 -22q-26 0 -48 9.5t-38 25.5t-24.5 37.5t-8.5 46.5q0 33 13.5 61.5t36 49.5t51.5 33.5t59 12.5q26 0 48 -9.5t37.5 -25.5t24.5 -38t9 -47q0 -32 -13.5 -60.5t-36 -49.5t-51.5 -33.5t-59 -12.5zM372 1067q7 41 35 56q165 86 344 86q75 0 132.5 -19.5t97 -54t60 -83
t20.5 -105.5q0 -43 -11 -86.5t-32 -83.5t-53 -72t-74.5 -59t-95.5 -51.5t-116 -48.5l-34 -136q-6 -23 -26 -37t-52 -14t-47.5 14t-12.5 37l24 195q4 38 39 51l74 28q87 33 141.5 64t83.5 72q17 23 25 52t8 58q0 60 -41.5 95.5t-124.5 35.5q-61 0 -116.5 -11t-106.5 -31
l-15 -84q-6 -35 -25 -50t-61 -15t-56 15t-8 50z" />
    <glyph glyph-name="at" unicode="@" 
d="M462 132q-32 0 -59.5 11t-48 33t-32.5 54t-12 73q0 47 16 101t44 108t66 103t82.5 87t92.5 60.5t97 22.5q48 0 73.5 -27.5t36.5 -72.5l42 63q7 10 22.5 11.5t37.5 -7.5q19 -8 28 -19.5t3 -26.5l-130 -302q-19 -42 -19 -76q0 -31 16.5 -48t45.5 -17q37 0 67.5 17t55 45.5
t42 66t29.5 79t18 83.5t6 80q0 75 -22 134.5t-64 101t-103.5 63.5t-139.5 22q-86 0 -163.5 -28.5t-143.5 -77.5t-118.5 -114.5t-89.5 -140.5t-57 -155t-20 -157q0 -73 20.5 -130.5t61.5 -98t101 -62t140 -21.5q72 0 140 10.5t122 26.5q36 10 46 -42q11 -53 -22 -66
q-57 -23 -134.5 -37.5t-160.5 -14.5q-104 0 -185 29.5t-137 84t-85.5 133t-29.5 176.5q0 99 25 198t71 188.5t111 166.5t146.5 134t177 89t201.5 32q101 0 181.5 -32t136 -90t85 -138t29.5 -177q0 -95 -24.5 -185.5t-70.5 -161t-112 -114t-148 -43.5q-65 0 -103.5 33.5
t-52.5 96.5q-55 -63 -110 -99t-119 -36zM500 266q32 0 62 17.5t57 45.5t50 63t39.5 71t25.5 69.5t9 57.5q0 68 -61 68q-22 0 -48 -15.5t-52 -41.5t-50.5 -59.5t-43 -70.5t-29.5 -74t-11 -70q0 -32 14.5 -46.5t37.5 -14.5z" />
    <glyph glyph-name="A" unicode="A" 
d="M360 136q34 0 46 -15t5 -53q-6 -38 -23 -53t-51 -15h-334q-34 0 -46 15t-6 53q7 38 24 53t51 15h53l493 915h-184q-34 0 -46 15t-5 53t24 53t51 15h364q40 0 61.5 -15t27.5 -50l179 -986h64q34 0 46 -15t5 -53q-6 -38 -23 -53t-51 -15h-354q-34 0 -46 15t-6 53
q7 38 24 53t51 15h140l-40 238h-485l-125 -238h116zM440 510h392l-90 541h-19z" />
    <glyph glyph-name="B" unicode="B" 
d="M73 0q-34 0 -46 15t-6 53q7 38 24 53t51 15h122l162 915h-122q-34 0 -46 15t-5 53t24 53t51 15h491q80 0 140 -20t100.5 -55.5t60.5 -85t20 -108.5q0 -107 -48.5 -175.5t-131.5 -111.5q83 -29 127.5 -91t44.5 -150q0 -66 -22.5 -135.5t-74 -126t-135 -92.5t-204.5 -36
h-577zM633 136q69 0 123.5 17t93 49.5t59 79t20.5 106.5q0 157 -218 157h-270l-73 -409h265zM672 681q72 0 123.5 18.5t83.5 50t47 72.5t15 85q0 71 -50 107.5t-154 36.5h-207l-65 -370h207z" />
    <glyph glyph-name="C" unicode="C" 
d="M997 814q9 49 0 94t-37 79t-77.5 54t-121.5 20t-134.5 -24t-114 -66t-91.5 -99.5t-67.5 -124t-41.5 -140t-14 -146.5q0 -79 19.5 -141t56.5 -105t90.5 -66t121.5 -23q100 0 194 31t176 85q23 15 47 7.5t42 -42.5q17 -35 12.5 -59t-34.5 -42q-107 -63 -219.5 -95.5
t-228.5 -32.5q-101 0 -182 34t-137 96t-86 149.5t-30 195.5q0 97 20 190.5t58 177.5t93.5 155t125.5 123t154.5 81t180.5 29q99 0 166.5 -34.5t105.5 -94.5l11 64q6 35 25.5 50t61.5 15t55.5 -15t7.5 -50l-58 -330q-6 -35 -25 -50t-61 -15t-56 15t-8 50z" />
    <glyph glyph-name="D" unicode="D" 
d="M370 1051h-112q-34 0 -46 15t-5 53t24 53t51 15h456q102 0 185 -32t141 -92t89.5 -145.5t31.5 -193.5q0 -69 -14 -149.5t-44.5 -161t-79.5 -155t-118.5 -132t-161 -92t-208.5 -34.5h-486q-34 0 -46 15t-6 53q7 38 24 53t51 15h112zM544 136q90 0 161 27t124.5 72.5
t91.5 105t61.5 124.5t34.5 130.5t11 123.5q0 163 -85.5 247.5t-236.5 84.5h-186l-162 -915h186z" />
    <glyph glyph-name="E" unicode="E" 
d="M360 1051h-102q-34 0 -46 15t-5 53t24 53t51 15h874q34 0 46 -15t5 -53l-45 -254q-6 -35 -25 -50t-61 -15t-56 15t-8 50l33 186h-535l-66 -371h250l16 91q7 35 26 50t61 15t56 -15t7 -50l-56 -318q-6 -35 -25 -50t-61 -15t-56 15t-8 50l16 91h-250l-72 -408h555l41 229
q6 35 25 50t61 15t56 -15t8 -50l-53 -297q-6 -38 -23 -53t-51 -15h-894q-34 0 -46 15t-6 53q7 38 24 53t51 15h102z" />
    <glyph glyph-name="F" unicode="F" 
d="M390 1051h-132q-34 0 -46 15t-5 53t24 53t51 15h904q34 0 46 -15t5 -53l-47 -264q-6 -35 -25 -50t-61 -15t-56 15t-8 50l35 196h-535l-69 -391h250l16 91q6 35 25 50t61 15t56 -15t8 -50l-56 -318q-6 -35 -25.5 -50t-61.5 -15t-55.5 15t-7.5 50l16 91h-250l-69 -388h232
q34 0 46 -15t5 -53q-6 -38 -23 -53t-51 -15h-514q-34 0 -46 15t-6 53q7 38 24 53t51 15h132z" />
    <glyph glyph-name="G" unicode="G" 
d="M678 410q-34 0 -46 15t-5 53t24 53t51 15h429q34 0 46 -15t5 -53t-24 -53t-51 -15h-32l-49 -276q-5 -24 -17 -42t-31 -27q-91 -45 -195 -66t-218 -21q-102 0 -184 34.5t-140 97.5t-89 152t-31 198q0 96 21 189t60 176.5t95.5 153.5t127.5 121.5t156 80t181 28.5
q99 0 166 -32.5t106 -86.5l9 54q6 35 25.5 50t61.5 15t55.5 -15t7.5 -50l-51 -290q-6 -35 -25 -50t-61 -15t-56 15t-8 50q8 45 -3.5 83t-42 65.5t-79.5 43t-116 15.5q-76 0 -141 -25t-117.5 -67.5t-92.5 -100.5t-67 -124.5t-41 -137.5t-14 -141q0 -80 20.5 -142.5
t58.5 -106.5t93.5 -67t125.5 -23q85 0 161.5 13.5t147.5 43.5l40 227h-247z" />
    <glyph glyph-name="H" unicode="H" 
d="M330 1051h-72q-34 0 -46 15t-5 53t24 53t51 15h314q34 0 46 -15t5 -53t-24 -53t-51 -15h-92l-66 -371h498l66 371h-92q-34 0 -46 15t-5 53t24 53t51 15h314q34 0 46 -15t5 -53t-24 -53t-51 -15h-72l-162 -915h72q34 0 46 -15t5 -53q-6 -38 -23 -53t-51 -15h-314
q-34 0 -46 15t-6 53q7 38 24 53t51 15h92l72 408h-498l-72 -408h92q34 0 46 -15t5 -53q-6 -38 -23 -53t-51 -15h-314q-34 0 -46 15t-6 53q7 38 24 53t51 15h72z" />
    <glyph glyph-name="I" unicode="I" 
d="M654 1051h-266q-34 0 -46 15t-5 53t24 53t51 15h662q34 0 46 -15t5 -53t-24 -53t-51 -15h-246l-162 -915h286q34 0 46 -15t5 -53q-6 -38 -23 -53t-51 -15h-702q-34 0 -46 15t-6 53q7 38 24 53t51 15h266z" />
    <glyph glyph-name="J" unicode="J" 
d="M518 1051q-34 0 -46 15t-5 53t24 53t51 15h692q34 0 46 -15t5 -53t-24 -53t-51 -15h-201l-127 -718q-31 -177 -141 -266t-306 -89q-59 0 -112 12t-98 33t-80.5 50t-60.5 62q-13 19 -7 51l49 279q7 35 26 50t61 15t56 -15t7 -50l-46 -264q70 -75 217 -75q133 0 201.5 59
t89.5 178l121 688h-341z" />
    <glyph glyph-name="K" unicode="K" 
d="M370 1051h-112q-34 0 -46 15t-5 53t24 53t51 15h354q34 0 46 -15t5 -53t-24 -53t-51 -15h-92l-73 -416l502 416h-63q-34 0 -46 15t-5 53t24 53t51 15h324q34 0 46 -15t5 -53t-24 -53t-51 -15h-52l-495 -405q69 5 119.5 -17t86.5 -82q22 -37 35.5 -82t23.5 -91t19 -89.5
t21 -76.5t30 -52.5t47 -19.5h33q34 0 46 -15t5 -53q-6 -38 -23 -53t-51 -15h-77q-45 0 -83.5 31t-64.5 108q-13 40 -22 83.5t-18 86t-19.5 81.5t-26.5 70q-18 35 -52 53.5t-82 18.5q-42 0 -84 -14.5t-78 -44.5l-35 -29l-55 -308h162q34 0 46 -15t5 -53q-6 -38 -23 -53
t-51 -15h-424q-34 0 -46 15t-6 53q7 38 24 53t51 15h112z" />
    <glyph glyph-name="L" unicode="L" 
d="M420 1051h-162q-34 0 -46 15t-5 53t24 53t51 15h554q34 0 46 -15t5 -53t-24 -53t-51 -15h-242l-162 -915h495l58 329q7 35 26 50t61 15t56 -15t7 -50l-70 -397q-6 -38 -23 -53t-51 -15h-894q-34 0 -46 15t-6 53q7 38 24 53t51 15h162z" />
    <glyph glyph-name="M" unicode="M" 
d="M287 1051h-49q-34 0 -46 15t-5 53t24 53t51 15h205q46 0 52 -33l115 -609l328 609q17 33 65 33h217q34 0 46 -15t5 -53t-24 -53t-51 -15h-50l-136 -915h54q34 0 46 -15t5 -53q-6 -38 -23 -53t-51 -15h-314q-34 0 -46 15t-6 53q7 38 24 53t51 15h111l123 819l-305 -570
q-19 -35 -43.5 -50t-59.5 -15t-54.5 15t-26.5 50l-104 570l-166 -819h111q34 0 46 -15t5 -53q-6 -38 -23 -53t-51 -15h-314q-34 0 -46 15t-6 53q7 38 24 53t51 15h54z" />
    <glyph glyph-name="N" unicode="N" 
d="M325 1051h-77q-34 0 -46 15t-5 53t24 53t51 15h224q42 0 52 -28l322 -861l133 753h-117q-34 0 -46 15t-5 53t24 53t51 15h324q34 0 46 -15t5 -53t-24 -53t-51 -15h-57l-179 -1014q-5 -26 -25.5 -42.5t-59.5 -16.5q-55 0 -75 55l-353 940l-148 -837h137q34 0 46 -15t5 -53
q-6 -38 -23 -53t-51 -15h-354q-34 0 -46 15t-6 53q7 38 24 53t51 15h67z" />
    <glyph glyph-name="O" unicode="O" 
d="M1185 728q0 -90 -18.5 -181t-54.5 -174t-89 -155.5t-123 -125.5t-156.5 -83.5t-188.5 -30.5t-184 34t-140 97t-89 151.5t-31 197.5q0 90 18.5 181t54.5 174.5t89.5 155.5t123.5 125.5t156.5 84t188.5 30.5t184 -34.5t139.5 -97.5t88.5 -151.5t31 -197.5zM1028 722
q0 79 -20 142t-58.5 106.5t-93.5 67t-125 23.5q-76 0 -139.5 -25t-115 -68.5t-90.5 -102t-65 -124.5t-39.5 -137t-13.5 -139q0 -80 20.5 -142.5t58.5 -106.5t93.5 -67t125.5 -23q75 0 139 25t115 68.5t90 102t65.5 124.5t39.5 137t13 139z" />
    <glyph glyph-name="P" unicode="P" 
d="M420 1051h-162q-34 0 -46 15t-5 53t24 53t51 15h537q89 0 158 -22.5t116 -64t71.5 -99t24.5 -126.5q0 -79 -27 -158t-85 -142t-149.5 -102.5t-221.5 -39.5h-245l-53 -297h240q34 0 46 -15t5 -53q-6 -38 -23 -53t-51 -15h-552q-34 0 -46 15t-6 53q7 38 24 53t51 15h162z
M699 569q90 0 153 25.5t103 67t58 93.5t18 106q0 90 -61.5 140t-185.5 50h-214l-85 -482h214z" />
    <glyph glyph-name="Q" unicode="Q" 
d="M1189 746q0 -83 -17 -168.5t-52 -165.5t-86.5 -150t-121.5 -122t-157 -82t-192 -30q-14 0 -27.5 0.5t-27.5 1.5l-148 -130q44 15 80.5 21t68.5 6q34 0 64 -5t58 -11t55 -11t56 -5q38 0 79.5 12t92.5 45q19 12 39 -0.5t33 -35.5t13 -50.5t-26 -44.5q-70 -47 -124.5 -63.5
t-102.5 -16.5q-35 0 -67.5 6t-66.5 13.5t-71 13.5t-80 6q-48 0 -104.5 -10.5t-127.5 -38.5q-21 -8 -41 2.5t-37 33.5q-18 25 -22.5 50t12.5 41l221 209q-117 51 -181.5 160.5t-64.5 264.5q0 83 17 168.5t52 165.5t86.5 149.5t121.5 121.5t157 82t192 30q102 0 185 -32.5
t141 -93t89.5 -146t31.5 -191.5zM1031 737q0 155 -79 239.5t-221 84.5q-77 0 -140.5 -23.5t-114.5 -64.5t-89 -96t-63.5 -117t-38 -129t-12.5 -131q0 -77 20.5 -137.5t59.5 -102t95 -63t127 -21.5q76 0 140 23.5t114.5 64.5t88.5 96t63 117t37.5 128.5t12.5 131.5z" />
    <glyph glyph-name="R" unicode="R" 
d="M530 1051l-71 -400h203q94 0 154 22.5t94.5 57.5t47.5 77.5t13 82.5q0 78 -58.5 119t-169.5 41h-213zM788 546q25 -12 46 -32t37 -44q17 -27 31 -58t26 -62.5t22.5 -62t21.5 -57.5q16 -42 35.5 -68t48.5 -26h22q34 0 46 -15t5 -53q-6 -38 -23 -53t-51 -15h-59
q-43 0 -83 33t-70 113q-12 33 -23.5 67t-23.5 67t-25.5 63.5t-30.5 57.5q-20 33 -44 55t-53 35t-65 18.5t-81 5.5h-62l-67 -379h130q34 0 46 -15t5 -53q-6 -38 -23 -53t-51 -15h-402q-34 0 -46 15t-6 53q7 38 24 53t51 15h122l162 915h-122q-34 0 -46 15t-5 53t24 53t51 15
h496q85 0 150.5 -20.5t110 -57.5t67.5 -89t23 -114q0 -74 -25.5 -133.5t-71 -105t-108 -76t-136.5 -45.5z" />
    <glyph glyph-name="S" unicode="S" 
d="M248 821q0 64 25 132.5t78.5 125.5t138 93.5t204.5 36.5q46 0 89 -10t80.5 -27.5t69 -41.5t54.5 -52l12 66q6 35 25.5 50t61.5 15t55.5 -15t7.5 -50l-40 -230q-6 -35 -25.5 -50t-61.5 -15q-37 0 -47 26q-33 93 -111.5 139.5t-188.5 46.5q-70 0 -120.5 -20t-83 -50.5
t-48 -68t-15.5 -73.5q0 -42 27 -67t72 -42q41 -16 93 -27t107.5 -23.5t110 -28.5t101.5 -41q30 -17 55.5 -38t44 -48.5t28.5 -62.5t10 -79q0 -46 -10.5 -95t-34 -95t-60.5 -86.5t-90.5 -71t-124.5 -48.5t-162 -18q-103 0 -183.5 38.5t-131.5 109.5l-15 -83q-6 -35 -25 -50
t-61 -15t-56 15t-8 50l53 300q6 35 25 50t61 15q43 0 51 -42q20 -116 98.5 -178t210.5 -62q76 0 132.5 19.5t94.5 52t57 75t19 88.5q0 48 -25 79t-67 52q-40 20 -91 33t-105.5 25t-109.5 26t-102 35q-32 15 -59.5 34t-47.5 44t-31 57.5t-11 74.5z" />
    <glyph glyph-name="T" unicode="T" 
d="M654 1051h-267l-55 -309q-6 -35 -25 -50t-61 -15t-56 15t-8 50l67 377q7 38 24 53t51 15h858q34 0 46 -15t5 -53l-67 -377q-6 -35 -25 -50t-61 -15t-56 15t-8 50l55 309h-267l-162 -915h246q34 0 46 -15t5 -53q-6 -38 -23 -53t-51 -15h-622q-34 0 -46 15t-6 53
q7 38 24 53t51 15h226z" />
    <glyph glyph-name="U" unicode="U" 
d="M248 1051q-34 0 -46 15t-5 53t24 53t51 15h324q34 0 46 -15t5 -53t-24 -53t-51 -15h-112l-113 -638q-9 -51 -9 -92q0 -105 57 -150t171 -45q68 0 121.5 15.5t93 50t65 89t39.5 132.5l113 638h-112q-34 0 -46 15t-5 53t24 53t51 15h324q34 0 46 -15t5 -53t-24 -53t-51 -15
h-62l-118 -668q-19 -107 -59 -183.5t-100 -126t-139.5 -72.5t-176.5 -23q-85 0 -153 20t-116 60t-74 100t-26 141q0 24 2.5 50t7.5 54l114 648h-62z" />
    <glyph glyph-name="V" unicode="V" 
d="M188 1051q-34 0 -46 15t-5 53t24 53t51 15h374q34 0 46 -15t5 -53t-24 -53t-51 -15h-144l150 -884l465 884h-97q-34 0 -46 15t-5 53t24 53t51 15h334q34 0 46 -15t5 -53t-24 -53t-51 -15h-74l-537 -1008q-19 -35 -47.5 -50t-71.5 -15t-66 15t-29 50l-178 1008h-79z" />
    <glyph glyph-name="W" unicode="W" 
d="M168 1051q-34 0 -46 15t-5 53t24 53t51 15h344q34 0 46 -15t5 -53t-24 -53t-51 -15h-146l-41 -797l289 584q10 20 29.5 33.5t51.5 13.5q33 0 47.5 -10t17.5 -30l84 -598l246 804h-124q-34 0 -46 15t-5 53t24 53t51 15h324q34 0 46 -15t5 -53t-24 -53t-51 -15h-50
l-316 -1008q-12 -37 -35.5 -51t-61.5 -14t-62 15t-29 50l-82 581l-290 -581q-17 -35 -47 -50t-68 -15t-56.5 14.5t-16.5 50.5l45 1008h-53z" />
    <glyph glyph-name="X" unicode="X" 
d="M258 1051q-34 0 -46 15t-5 53t24 53t51 15h344q34 0 46 -15t5 -53t-24 -53t-51 -15h-97l166 -316l277 316h-52q-34 0 -46 15t-5 53t24 53t51 15h304q34 0 46 -15t5 -53t-24 -53t-51 -15h-57l-396 -444l255 -471h66q34 0 46 -15t5 -53q-6 -38 -23 -53t-51 -15h-354
q-34 0 -46 15t-6 53q7 38 24 53t51 15h117l-191 365l-325 -365h75q34 0 46 -15t5 -53q-6 -38 -23 -53t-51 -15h-324q-34 0 -46 15t-6 53q7 38 24 53t51 15h54l444 493l-229 422h-77z" />
    <glyph glyph-name="Y" unicode="Y" 
d="M556 499l-244 552h-74q-34 0 -46 15t-5 53t24 53t51 15h334q34 0 46 -15t5 -53t-24 -53t-51 -15h-97l178 -409l324 409h-61q-34 0 -46 15t-5 53t24 53t51 15h304q34 0 46 -15t5 -53t-24 -53t-51 -15h-64l-452 -565l-62 -350h236q34 0 46 -15t5 -53q-6 -38 -23 -53
t-51 -15h-602q-34 0 -46 15t-6 53q7 38 24 53t51 15h216z" />
    <glyph glyph-name="Z" unicode="Z" 
d="M872 136l48 269q6 35 25 50t61 15t56 -15t8 -50l-60 -337q-6 -38 -23 -53t-51 -15h-766q-34 0 -46 15t-6 53q3 14 8.5 24t13.5 19l795 940h-492l-44 -249q-6 -35 -25.5 -50t-61.5 -15t-55.5 15t-7.5 50l56 317q7 38 24 53t51 15h736q34 0 46 -15t5 -53q-5 -25 -17 -39
l-800 -944h522z" />
    <glyph glyph-name="bracketleft" unicode="[" 
d="M691 -257q34 0 46 -15t5 -53t-24 -53t-51 -15h-414q-34 0 -46 15t-5 53l277 1569q7 38 24 53t51 15h414q34 0 46 -15t5 -53t-24 -53t-51 -15h-327l-253 -1433h327z" />
    <glyph glyph-name="backslash" unicode="\" 
d="M360 1271q-4 15 2.5 26.5t19 20t29 13t33.5 4.5q20 0 35.5 -7t20.5 -23l410 -1538q4 -15 -2.5 -26.5t-19.5 -20t-30 -13t-33 -4.5q-20 0 -35 7t-20 23z" />
    <glyph glyph-name="bracketright" unicode="]" 
d="M885 1176h-327q-34 0 -46 15t-5 53t24 53t51 15h414q34 0 46 -15t5 -53l-277 -1569q-7 -38 -24 -53t-51 -15h-414q-34 0 -46 15t-5 53t24 53t51 15h327z" />
    <glyph glyph-name="asciicircum" unicode="^" 
d="M408 527q-6 -10 -17 -15.5t-24.5 -8t-28 -1.5t-27.5 5q-14 4 -26 11t-18.5 16.5t-6 21t9.5 25.5l412 591q13 18 29.5 27.5t45.5 9.5t41.5 -9.5t19.5 -27.5l204 -591q9 -25 -8 -43.5t-43 -27.5q-28 -10 -55 -6.5t-34 23.5l-154 480z" />
    <glyph glyph-name="underscore" unicode="_" 
d="M-44 -393q-6 0 -9.5 2t-5 9.5t-1 20.5t4.5 36q8 45 16 56.5t19 11.5h1237q6 0 10 -2t5.5 -9.5t0.5 -21t-5 -35.5q-4 -23 -7.5 -36t-8 -20.5t-9 -9.5t-10.5 -2h-1237z" />
    <glyph glyph-name="grave" unicode="`" 
d="M942 1133q17 -10 21.5 -27.5t-2.5 -34.5t-21.5 -27.5t-33.5 -4.5l-481 163q-10 3 -17 10.5t-8 20t4.5 31t20.5 45.5q16 28 29 42.5t24.5 19.5t23 2t24.5 -10z" />
    <glyph glyph-name="a" unicode="a" 
d="M485 -22q-81 0 -148 27t-115 77.5t-74.5 122t-26.5 161.5q0 65 13.5 133t41.5 132.5t70 121.5t99 100t129.5 68t160.5 25q51 0 96.5 -13t84 -37t69.5 -57t55 -73l19 103q6 35 22.5 50t58.5 15t53.5 -15t5.5 -50l-118 -668q-5 -31 5.5 -48t38.5 -17h25q34 0 46 -15t5 -53
q-6 -38 -23 -53t-51 -15h-51q-62 0 -101.5 38.5t-44.5 104.5q-153 -165 -345 -165zM511 126q89 0 158.5 36t117 94.5t72.5 133t25 151.5q0 61 -18 109t-51.5 81t-80.5 50t-105 17q-84 0 -149.5 -37t-110.5 -97t-68 -136t-23 -153q0 -56 15 -102t44 -78.5t73 -50.5t101 -18z
" />
    <glyph glyph-name="b" unicode="b" 
d="M595 -22q-51 0 -96.5 13t-84 37t-69.5 57t-55 73l-19 -103q-6 -35 -22.5 -50t-58.5 -15t-53.5 15t-5.5 50l198 1121h-102q-34 0 -46 15t-5 53t24 53t51 15h189q34 0 46 -15t5 -53l-80 -453q72 75 154.5 115t179.5 40q81 0 148 -27t115 -77.5t74.5 -122t26.5 -161.5
q0 -65 -13.5 -133t-41.5 -132.5t-70 -121.5t-99 -100t-129.5 -68t-160.5 -25zM719 798q-89 0 -158.5 -36t-117 -94.5t-72.5 -133t-25 -151.5q0 -62 18 -109.5t51.5 -80.5t80.5 -50t105 -17q84 0 149.5 37t110.5 97t68 136t23 153q0 56 -15 102t-44 78.5t-73 50.5t-101 18z
" />
    <glyph glyph-name="c" unicode="c" 
d="M911 238q23 16 48 12t45 -39q37 -66 -25 -106q-92 -59 -205.5 -93t-228.5 -34q-96 0 -173 30.5t-130 84.5t-81.5 127.5t-28.5 159.5q0 110 41 212t115.5 181t179 126t232.5 47q92 0 162 -36.5t109 -98.5l13 70q7 35 25.5 50t60.5 15t56 -15t8 -50l-51 -290
q-6 -35 -24 -50t-60 -15t-56 15t-9 50q7 45 -5 83t-42.5 65.5t-79.5 43t-118 15.5q-86 0 -159 -33t-126.5 -89.5t-83.5 -130t-30 -154.5q0 -59 18.5 -107.5t53.5 -83.5t85 -54.5t114 -19.5q92 0 180.5 28.5t169.5 83.5z" />
    <glyph glyph-name="d" unicode="d" 
d="M1061 136q34 0 46 -15t5 -53q-6 -38 -23 -53t-51 -15h-159q-34 0 -46.5 15t-5.5 53l13 70q-76 -78 -162 -119t-183 -41q-81 0 -148.5 26t-116 74.5t-75.5 117t-27 154.5q0 107 35 205.5t101.5 174.5t162.5 121t219 45q100 0 171.5 -44t116.5 -122l79 446h-202
q-34 0 -46 15t-5 53t24 53t51 15h289q34 0 46 -15t5 -53l-196 -1108h82zM521 126q93 0 162.5 35t115 90t68 122.5t22.5 132.5q0 58 -18.5 103t-52.5 76t-82 47t-106 16q-84 0 -148.5 -33.5t-108 -88t-66 -124t-22.5 -140.5q0 -53 15 -96.5t45 -74.5t74 -48t102 -17z" />
    <glyph glyph-name="e" unicode="e" 
d="M969 66q-42 -19 -93 -35t-106.5 -28t-114 -18.5t-116.5 -6.5q-95 0 -167.5 26t-122.5 75t-75.5 118.5t-25.5 156.5q0 124 41.5 232t116.5 188t180 126t233 46q83 0 150 -22t113.5 -61t71.5 -92.5t25 -115.5q0 -51 -12.5 -93t-39.5 -73.5t-70 -51.5t-104 -26l-549 -57
q2 -122 68 -176.5t182 -54.5q50 0 101 7t99 19.5t92.5 29.5t82.5 36q25 13 47 1t34 -50q12 -39 1.5 -62.5t-42.5 -37.5zM704 801q-78 0 -141.5 -23.5t-112 -64.5t-82 -97.5t-49.5 -123.5l503 58q58 6 78.5 31t20.5 69q0 31 -13.5 59t-40.5 48t-68 32t-95 12z" />
    <glyph glyph-name="f" unicode="f" 
d="M566 844l22 123q15 82 48.5 147t84.5 110t119 69t152 24q71 0 135.5 -14t121.5 -37q25 -11 38 -32.5t-1 -59.5q-14 -41 -36 -50.5t-46 0.5q-54 22 -111 34.5t-117 12.5q-106 0 -164 -57t-76 -160l-20 -110h346q34 0 46 -15t5 -53q-6 -38 -23.5 -53t-51.5 -15h-346
l-141 -804q-27 -152 -116.5 -235.5t-240.5 -83.5q-73 0 -142 21t-130 65q-22 16 -27 39t18 59q22 35 45 40.5t43 -9.5q48 -36 100 -52.5t106 -16.5q82 0 130.5 44.5t65.5 141.5l139 791h-198q-34 0 -45.5 15t-5.5 53q7 38 24 53t51 15h198z" />
    <glyph glyph-name="g" unicode="g" 
d="M518 28q-81 0 -148.5 26t-115.5 74.5t-75 117t-27 154.5q0 107 35 205.5t101.5 174.5t162.5 121t219 45q103 0 176.5 -48t118.5 -132l19 103q6 35 22.5 50t58.5 15t53.5 -15t5.5 -50l-162 -914q-32 -180 -151 -275t-317 -95q-87 0 -170.5 15t-157.5 45q-26 11 -34.5 33.5
t7.5 60.5q16 39 37 50t45 0q66 -29 141 -42.5t148 -13.5q67 0 119.5 17.5t91 50t62.5 77.5t34 100l34 196q-73 -72 -154.5 -109t-178.5 -37zM545 176q93 0 162.5 35t115 90t68 122.5t22.5 132.5q0 58 -18.5 103t-52.5 76t-82 47t-106 16q-84 0 -148.5 -33.5t-108 -88
t-66 -124t-22.5 -140.5q0 -53 15 -96.5t45 -74.5t74 -48t102 -17z" />
    <glyph glyph-name="h" unicode="h" 
d="M444 750q82 96 173 146t186 50q60 0 107 -18.5t80 -52t50.5 -81.5t17.5 -107q0 -18 -1.5 -37.5t-5.5 -39.5l-84 -474h82q34 0 46 -15t5 -53q-6 -38 -23 -53t-51 -15h-169q-34 0 -46.5 15t-5.5 53l95 537q2 14 3.5 27t1.5 26q0 64 -32 102t-101 38q-64 0 -127.5 -31
t-117 -85t-92.5 -126t-53 -154l-61 -347q-6 -35 -25 -50t-61 -15t-56 15t-8 50l198 1121h-92q-34 0 -46 15t-5 53t24 53t51 15h179q34 0 46 -15t5 -53z" />
    <glyph glyph-name="i" unicode="i" 
d="M768 1168q-6 -35 -27.5 -50t-78.5 -15t-73.5 15t-10.5 50l23 130q6 35 28 50t79 15t73 -15t10 -50zM298 788q-34 0 -45.5 15t-5.5 53q7 38 24 53t51 15h340q34 0 46 -15t5 -53l-96 -546q-3 -18 -5 -35t-2 -31q0 -63 32 -91.5t102 -28.5q58 0 114 19t118 57q25 15 47 5.5
t36 -44.5q14 -36 6 -58t-36 -38q-153 -87 -300 -87q-131 0 -200 66.5t-69 184.5q0 40 7 78l84 481h-253z" />
    <glyph glyph-name="j" unicode="j" 
d="M932 924q34 0 46 -15t5 -53l-161 -918q-15 -86 -43.5 -152t-74.5 -110.5t-110.5 -67.5t-151.5 -23q-43 0 -88 9t-88 24t-83 35.5t-73 44.5q-22 16 -28 38t17 60t47 42.5t44 -10.5q59 -42 128.5 -69.5t139.5 -27.5q50 0 86.5 13.5t62 41t41.5 69t26 96.5l147 837h-423
q-34 0 -45.5 15t-5.5 53q7 38 24 53t51 15h510zM1038 1168q-6 -35 -27.5 -50t-78.5 -15t-73.5 15t-10.5 50l23 130q6 35 28 50t79 15t73 -15t10 -50z" />
    <glyph glyph-name="l" unicode="l" 
d="M1009 65q-153 -87 -300 -87q-131 0 -200 66.5t-69 184.5q0 18 1.5 38t5.5 40l153 869h-273q-34 0 -46 15t-5 53t24 53t51 15h360q34 0 46 -15t5 -53l-165 -934q-3 -19 -5 -35.5t-2 -31.5q0 -63 32.5 -91t101.5 -28q58 0 114 19t118 57q25 15 47 5.5t36 -44.5
q14 -36 6 -58t-36 -38z" />
    <glyph glyph-name="m" unicode="m" 
d="M209 788h-82q-34 0 -45.5 15t-5.5 53q7 38 24 53t51 15h149q34 0 46 -15t5 -53l-17 -99q57 97 124.5 143t129.5 46q66 0 109.5 -45.5t48.5 -135.5q57 93 125.5 137t133.5 44q37 0 69.5 -13.5t56.5 -39.5t38 -64.5t14 -88.5q0 -17 -1.5 -34.5t-5.5 -37.5l-94 -532h62
q34 0 46 -15t5 -53q-6 -38 -23 -53t-51 -15h-149q-34 0 -46.5 15t-5.5 53l105 592q2 14 3.5 27.5t1.5 24.5q0 42 -18 64t-58 22q-36 0 -72.5 -28t-69 -77t-58 -114.5t-38.5 -141.5l-67 -382q-6 -35 -25 -50t-61 -15t-56 15t-8 50l107 605q2 14 3.5 27t1.5 25q0 42 -18 64
t-58 22q-36 0 -72.5 -28t-69 -77t-58 -114.5t-38.5 -141.5l-67 -382q-6 -35 -25 -50t-61 -15t-56 15t-8 50z" />
    <glyph glyph-name="n" unicode="n" 
d="M411 924q34 0 46 -15t5 -53l-21 -120q85 103 179 156.5t193 53.5q60 0 107.5 -18.5t80 -52.5t50 -82t17.5 -107q0 -38 -7 -76l-84 -474h82q34 0 46 -15t5 -53q-6 -38 -23 -53t-51 -15h-169q-34 0 -46.5 15t-5.5 53l95 537q2 14 3.5 27.5t1.5 26.5q0 64 -32 101.5
t-101 37.5q-64 0 -127.5 -31t-117 -85t-92.5 -126t-53 -154l-61 -347q-6 -35 -25 -50t-61 -15t-56 15t-8 50l129 733h-102q-34 0 -45.5 15t-5.5 53q7 38 24 53t51 15h179z" />
    <glyph glyph-name="o" unicode="o" 
d="M126 386q0 110 41.5 211t117 178.5t181 124t234.5 46.5q94 0 172 -30.5t134 -85t87 -129.5t31 -163q0 -110 -41.5 -211t-117 -178.5t-181 -124t-234.5 -46.5q-94 0 -172 30.5t-134 85t-87 129t-31 163.5zM283 394q0 -60 19.5 -109t56 -84.5t89 -55t118.5 -19.5
q88 0 161.5 33t127 89t83 129t29.5 153q0 60 -19.5 109t-56 84.5t-89 55t-118.5 19.5q-88 0 -161.5 -33t-127 -89t-83 -129t-29.5 -153z" />
    <glyph glyph-name="p" unicode="p" 
d="M755 946q81 0 148.5 -26t116 -74.5t75.5 -117.5t27 -154q0 -107 -35 -205.5t-101.5 -174.5t-162.5 -121t-219 -45q-100 0 -171.5 44t-116.5 122l-80 -451h252q34 0 46 -15t5 -53t-24 -53t-51 -15h-484q-34 0 -45.5 15t-4.5 53q6 38 23 53t51 15h82l184 1045h-82
q-34 0 -45.5 15t-5.5 53q7 38 24 53t51 15h159q34 0 46 -15t5 -53l-12 -70q76 78 162 119t183 41zM729 798q-93 0 -162.5 -35t-115 -90t-68 -122.5t-22.5 -132.5q0 -58 18.5 -103t52.5 -76t82 -47t106 -16q84 0 148.5 33.5t108 88t66 124t22.5 140.5q0 53 -15 96.5t-45 74.5
t-74 48t-102 17z" />
    <glyph glyph-name="q" unicode="q" 
d="M670 946q103 0 176.5 -48t118.5 -132l19 103q6 35 22.5 50t58.5 15t53.5 -15t5.5 -50l-199 -1126h112q34 0 46 -15t5 -53t-24 -53t-51 -15h-484q-34 0 -46 15t-5 53t24 53t51 15h222l76 431q-73 -72 -154.5 -109t-178.5 -37q-81 0 -148.5 26t-115.5 74.5t-75 117
t-27 154.5q0 107 35 205.5t101.5 174.5t162.5 121t219 45zM545 176q93 0 162.5 35t115 90t68 122.5t22.5 132.5q0 58 -18.5 103t-52.5 76t-82 47t-106 16q-84 0 -148.5 -33.5t-108 -88t-66 -124t-22.5 -140.5q0 -53 15 -96.5t45 -74.5t74 -48t102 -17z" />
    <glyph glyph-name="r" unicode="r" 
d="M536 924q34 0 46 -15t5 -53l-35 -202q49 67 104 121t113 92t116.5 58.5t113.5 20.5q75 0 136 -40q26 -17 36.5 -43.5t-9.5 -64.5q-40 -77 -89 -45q-21 14 -45.5 20t-50.5 6q-46 0 -95.5 -17.5t-99 -48.5t-95.5 -74.5t-83.5 -95.5t-64.5 -111.5t-38 -121.5l-31 -174h337
q34 0 46 -15t5 -53q-6 -38 -23 -53t-51 -15h-644q-34 0 -46 15t-6 53q7 38 24 53t51 15h157l115 652h-127q-34 0 -45.5 15t-5.5 53q7 38 24 53t51 15h204z" />
    <glyph glyph-name="s" unicode="s" 
d="M266 43q-6 -35 -25 -50t-61 -15t-56 15t-8 50l42 240q6 35 25.5 50t61.5 15q22 0 32 -9.5t15 -31.5q20 -97 96 -140.5t215 -43.5q79 0 131 17.5t82.5 43.5t42.5 55.5t12 53.5q0 37 -30 57.5t-78 31.5q-46 11 -93.5 16.5l-95 11t-95 13.5t-94.5 24q-34 11 -62.5 27
t-49.5 38t-32.5 50.5t-11.5 66.5q0 62 25 119t75 101t126.5 70.5t178.5 26.5q100 0 174.5 -29.5t122.5 -80.5l8 45q6 35 25 50t61 15t56 -15t8 -50l-34 -190q-6 -35 -25 -50t-61 -15q-35 0 -44 26q-15 43 -42.5 72t-66.5 46t-89 24t-108 7q-59 0 -102.5 -12.5t-72 -33
t-42 -47t-13.5 -53.5q0 -35 29.5 -53t79.5 -29q46 -10 92.5 -15.5t93.5 -11t94 -13.5t92 -23q34 -11 63.5 -27.5t51.5 -39.5t34 -53.5t12 -69.5q0 -33 -8.5 -71.5t-28.5 -76.5t-53.5 -73t-82.5 -62t-116 -43t-154 -16q-109 0 -185 30t-127 91z" />
    <glyph glyph-name="u" unicode="u" 
d="M352 319q-2 -14 -3.5 -27.5t-1.5 -26.5q0 -64 32 -101.5t101 -37.5q64 0 127.5 31t117 85t92 126t53.5 154l47 266h-142q-34 0 -45.5 15t-5.5 53q7 38 24 53t51 15h229q34 0 46 -15t5 -53l-127 -720h82q34 0 46 -15t5 -53q-6 -38 -23 -53t-51 -15h-160q-34 0 -46 15
t-5 53l21 120q-85 -103 -179 -156.5t-193 -53.5q-60 0 -107.5 18.5t-80 52.5t-50 82t-17.5 107q0 18 1.5 37t5.5 39l84 474h-82q-34 0 -45.5 15t-5.5 53q7 38 24 53t51 15h169q34 0 46 -15t5 -53z" />
    <glyph glyph-name="v" unicode="v" 
d="M181 788q-34 0 -45.5 15t-5.5 53q7 38 24 53t51 15h354q34 0 46 -15t5 -53q-6 -38 -23.5 -53t-51.5 -15h-132l158 -652l391 652h-83q-34 0 -45.5 15t-5.5 53q7 38 24 53t51 15h314q34 0 46 -15t5 -53q-6 -38 -23.5 -53t-51.5 -15h-59l-454 -745q-20 -34 -49.5 -49.5
t-79.5 -15.5t-73.5 16t-31.5 49l-189 745h-66z" />
    <glyph glyph-name="w" unicode="w" 
d="M121 788q-34 0 -45.5 15t-5.5 53q7 38 24 53t51 15h294q34 0 46 -15t5 -53q-6 -38 -23.5 -53t-51.5 -15h-126l42 -582l249 464q11 20 31 33.5t53 13.5q34 0 50 -10t20 -30l83 -471l250 582h-98q-34 0 -45.5 15t-5.5 53q7 38 24 53t51 15h274q34 0 46 -15t5 -53
q-6 -38 -23.5 -53t-51.5 -15h-21l-328 -745q-16 -36 -38 -50.5t-60 -14.5q-43 0 -65 15.5t-28 49.5l-76 434l-232 -434q-18 -35 -46 -50t-71 -15q-38 0 -54.5 15t-19.5 50l-62 745h-21z" />
    <glyph glyph-name="x" unicode="x" 
d="M474 788l170 -227l249 227h-44q-34 0 -45.5 15t-5.5 53q7 38 24 53t51 15h304q34 0 46 -15t5 -53q-6 -38 -23.5 -53t-51.5 -15h-67l-355 -315l260 -337h57q34 0 46 -15t5 -53q-6 -38 -23 -53t-51 -15h-344q-34 0 -46 15t-6 53q7 38 24 53t51 15h101l-192 254l-281 -254
h68q34 0 46 -15t5 -53q-6 -38 -23 -53t-51 -15h-314q-34 0 -46 15t-6 53q7 38 24 53t51 15h52l387 343l-237 309h-77q-34 0 -45.5 15t-5.5 53q7 38 24 53t51 15h344q34 0 46 -15t5 -53q-6 -38 -23.5 -53t-51.5 -15h-81z" />
    <glyph glyph-name="z" unicode="z" 
d="M863 136l31 172q6 35 25 50t61 15t56 -15t8 -50l-43 -240q-7 -38 -23.5 -53t-50.5 -15h-746q-34 0 -46 15t-6 53q5 29 22 45l701 675h-446l-26 -149q-6 -35 -25 -50t-61 -15t-56 15t-8 50l38 217q7 38 24 53t51 15h716q34 0 46 -15t5 -53q-2 -16 -8.5 -27t-14.5 -19
l-700 -674h476z" />
    <glyph glyph-name="braceleft" unicode="{" 
d="M502 482q66 -44 90.5 -115.5t7.5 -163.5l-37 -211q-12 -67 -8 -114.5t24 -77.5t58 -43.5t94 -13.5q34 0 46 -15t5 -53t-24 -53t-51 -15q-173 0 -250 99.5t-43 290.5l35 196q19 109 -23.5 164.5t-153.5 55.5q-34 0 -46 15t-5 53t24 53t51 15q111 0 173 56t81 165l33 186
q17 95 52.5 162.5t89.5 110.5t125 63t158 20q34 0 46 -15t5 -53t-24 -53t-51 -15q-110 0 -172 -60t-84 -189l-29 -167q-17 -92 -66.5 -163t-130.5 -115z" />
    <glyph glyph-name="bar" unicode="|" 
d="M692 1269q6 35 25.5 50t61.5 15t55.5 -15t7.5 -50l-285 -1619q-6 -35 -25.5 -50t-61.5 -15t-55.5 15t-7.5 50z" />
    <glyph glyph-name="braceright" unicode="}" 
d="M754 480q-66 44 -90.5 115.5t-7.5 163.5l30 168q12 67 8 114.5t-24 77.5t-58 43.5t-94 13.5q-34 0 -46 15t-5 53t24 53t51 15q172 0 249.5 -100t43.5 -290l-28 -153q-19 -109 23.5 -164.5t153.5 -55.5q34 0 46 -15t5 -53t-24 -53t-51 -15q-111 0 -173 -56t-81 -165
l-40 -229q-17 -95 -52.5 -162.5t-89.5 -110.5t-125 -63t-158 -20q-34 0 -46 15t-5 53t24 53t51 15q109 0 171 60t85 189l36 210q17 92 66.5 163t130.5 115z" />
    <glyph glyph-name="asciitilde" unicode="~" 
d="M1091 561q-74 -56 -138 -77.5t-121 -21.5q-54 0 -103.5 13.5t-97.5 29.5t-95.5 29.5t-97.5 13.5q-42 0 -86 -13t-93 -45q-19 -12 -38 -2.5t-30 29.5q-12 20 -11.5 44.5t20.5 39.5q74 56 138 77.5t122 21.5q54 0 103.5 -13.5t97.5 -29.5t95.5 -29.5t97.5 -13.5q42 0 86 13
t93 45q20 13 38.5 2t29.5 -31t10.5 -43.5t-20.5 -38.5z" />
    <glyph glyph-name="Ccedilla" unicode="&#xc7;" 
d="M495 -16q-83 12 -149 50.5t-112 99.5t-70 141.5t-24 177.5t20 190.5t58 177.5t93.5 155t125.5 123t154.5 81t180.5 29q99 0 166.5 -34.5t105.5 -94.5l11 64q6 35 25.5 50t61.5 15t55.5 -15t7.5 -50l-58 -330q-6 -35 -25 -50t-61 -15t-56 15t-8 50q9 49 0 94t-37 79
t-77.5 54t-121.5 20t-134.5 -24t-114 -66t-91.5 -99.5t-67.5 -124t-41.5 -140t-14 -146.5q0 -79 19.5 -141t56.5 -105t90.5 -66t121.5 -23q100 0 194 31t176 85q23 15 47 7.5t42 -42.5q17 -35 12.5 -59t-34.5 -42q-190 -112 -394 -126l-16 -93q46 1 79.5 -10.5t55.5 -31
t32.5 -46.5t10.5 -57q0 -15 -3 -33.5t-10 -37.5t-17 -36.5t-24 -32.5q-33 -35 -87.5 -54.5t-132.5 -19.5q-67 0 -128.5 12t-109.5 36q-17 9 -17.5 29.5t10.5 40.5q10 19 26 31t33 5q37 -15 86.5 -24.5t100.5 -9.5q60 0 88 23t28 58q0 34 -35 46t-99 8q-7 0 -14 1t-12 5.5
t-7 13t1 22.5z" />
    <glyph glyph-name="ccedilla" unicode="&#xe7;" 
d="M475 -17q-81 10 -144.5 44t-107.5 86.5t-67.5 120.5t-23.5 146q0 110 41 212t115.5 181t179 126t232.5 47q92 0 162 -36.5t109 -98.5l13 70q7 35 25.5 50t60.5 15t56 -15t8 -50l-51 -290q-6 -35 -24 -50t-60 -15t-56 15t-9 50q7 45 -5 83t-42.5 65.5t-79.5 43t-118 15.5
q-86 0 -159 -33t-126.5 -89.5t-83.5 -130t-30 -154.5q0 -59 18.5 -107.5t53.5 -83.5t85 -54.5t114 -19.5q92 0 180.5 28.5t169.5 83.5q23 16 48 12t45 -39q37 -66 -25 -106q-79 -51 -174.5 -83.5t-195.5 -40.5l-16 -94q46 1 79.5 -10.5t55.5 -31t32.5 -46.5t10.5 -57
q0 -15 -3 -33.5t-10 -37.5t-17 -36.5t-24 -32.5q-33 -35 -87.5 -54.5t-132.5 -19.5q-67 0 -128.5 12t-109.5 36q-17 9 -17.5 29.5t10.5 40.5q10 19 26 31t33 5q37 -15 86.5 -24.5t100.5 -9.5q60 0 88 23t28 58q0 34 -35 46t-99 8q-7 0 -14 1t-12 5.5t-7 13t1 22.5z" />
    <glyph glyph-name="dagger" unicode="&#x2020;" 
d="M421 788q-34 0 -45.5 15t-5.5 53q7 38 24 53t51 15h193l40 222q6 34 23.5 48.5t55.5 14.5t50.5 -14.5t6.5 -48.5l-40 -222h193q34 0 46 -15t5 -53q-6 -38 -23.5 -53t-51.5 -15h-193l-78 -444q-6 -34 -23.5 -48.5t-55.5 -14.5t-50.5 14.5t-6.5 48.5l78 444h-193z" />
    <glyph glyph-name="degree" unicode="&#xb0;" 
d="M580 649q-52 0 -96.5 19t-77 52t-51 77.5t-18.5 94.5q0 57 23.5 114t66.5 102t102 73t130 28q52 0 96.5 -19t76.5 -52t50.5 -77t18.5 -94q0 -59 -23.5 -116t-66.5 -102t-102 -72.5t-129 -27.5zM594 784q33 0 64 14t55 37t38.5 54t14.5 65q0 25 -9 47t-25 38.5t-38 25.5
t-49 9q-33 0 -64 -14t-55.5 -37t-39 -54t-14.5 -65q0 -26 9 -47.5t25 -38t38.5 -25.5t49.5 -9z" />
    <glyph glyph-name="cent" unicode="&#xa2;" 
d="M936 378q23 16 48 12t45 -39q37 -66 -25 -106q-79 -51 -174.5 -83.5t-194.5 -41.5l-32 -180q-6 -35 -25.5 -50t-56.5 -15t-50.5 15t-7.5 50l32 183q-80 11 -142.5 45.5t-106 86.5t-66.5 119.5t-23 145.5q0 103 36 199.5t102.5 173.5t160 127.5t208.5 62.5l29 164
q6 35 25.5 50t56.5 15t50.5 -15t7.5 -50l-30 -169q64 -14 113 -46.5t80 -80.5l13 70q7 35 25.5 50t60.5 15t56 -15t8 -50l-51 -290q-6 -35 -24 -50t-60 -15t-56 15t-9 50q11 80 -33.5 134.5t-147.5 68.5l-117 -663q72 9 141 36t134 71zM315 531q0 -51 14 -94.5t40 -77
t64.5 -56t87.5 -31.5l116 658q-71 -14 -130 -51t-102 -90.5t-66.5 -119.5t-23.5 -138z" />
    <glyph glyph-name="sterling" unicode="&#xa3;" 
d="M412 620q-8 26 -17.5 52t-17 53t-12.5 55.5t-5 58.5q0 64 25.5 130t75 119.5t122.5 87t168 33.5q94 0 175.5 -28t138.5 -76q18 -15 12 -54l-23 -127q-6 -35 -25 -50t-61 -15t-56 15t-8 50l16 90q-32 22 -79 34.5t-107 12.5q-54 0 -95.5 -21t-69 -53.5t-42 -72.5
t-14.5 -77q0 -27 5.5 -53.5t14 -52.5t18.5 -53.5t18 -57.5h315q34 0 46 -15t5 -53t-24 -53t-51 -15h-277q-7 -103 -59 -190t-135 -159q38 13 69.5 18t59.5 5q34 0 62.5 -5.5t55 -12t52 -12t52.5 -5.5q34 0 72.5 12t88.5 44q20 13 40 2t33 -33q13 -23 11.5 -49t-26.5 -43
q-70 -46 -122.5 -62t-97.5 -16q-33 0 -63.5 6t-62 12.5t-66.5 12.5t-76 6q-46 0 -102 -10.5t-128 -38.5q-22 -8 -43 3.5t-35 31.5q-16 23 -18.5 49.5t16.5 41.5q60 47 109 93t84 94t55 98.5t23 106.5h-144q-34 0 -46 15t-5 53t24 53t51 15h100z" />
    <glyph glyph-name="section" unicode="&#xa7;" 
d="M710 1051q-72 0 -111.5 -27.5t-48.5 -80.5q-9 -54 14 -96.5t79 -80.5l262 -182q69 -48 107 -113.5t23 -152.5q-13 -68 -58 -115t-121 -94q11 -53 1 -109q-18 -105 -94.5 -167.5t-214.5 -62.5h-356q-34 0 -46 15t-5 53l38 217q6 35 25.5 50t61.5 15t55.5 -15t7.5 -50
l-26 -149h243q72 0 111.5 27.5t48.5 80.5q9 54 -14 96.5t-79 80.5l-262 182q-69 48 -107 113.5t-23 152.5q12 67 57 114t122 94q-5 26 -5.5 53.5t4.5 56.5q18 105 94.5 167.5t214.5 62.5h356q34 0 46 -15t5 -53l-34 -197q-6 -35 -25.5 -50t-61.5 -15t-55.5 15t-7.5 50
l22 129h-243zM706 313q56 -39 92 -85q37 23 58.5 47.5t26.5 56.5q8 42 -10 71t-61 59l-262 182q-27 19 -50.5 40t-42.5 45q-36 -23 -57.5 -47.5t-26.5 -56.5q-8 -42 10 -71t61 -59z" />
    <glyph glyph-name="bullet" unicode="&#x2022;" 
d="M609 335q-50 0 -91.5 18t-71.5 49t-47 72.5t-17 88.5q0 62 26 117t69 95.5t98 64t114 23.5q49 0 90.5 -17.5t71.5 -48.5t47 -72t17 -88q0 -63 -25.5 -118t-68 -96t-97.5 -64.5t-115 -23.5z" />
    <glyph glyph-name="paragraph" unicode="&#xb6;" 
d="M544 -350q-6 -35 -25.5 -50t-61.5 -15t-55.5 15t-7.5 50l150 852q-78 2 -140.5 23t-106.5 58t-68 89t-24 117q0 78 29 150t88 127t147.5 88t207.5 33h516q34 0 46 -15t5 -53t-24 -53t-51 -15h-68l-247 -1401q-6 -35 -25.5 -50t-61.5 -15t-55.5 15t-7.5 50l247 1401h-160z
" />
    <glyph glyph-name="germandbls" unicode="&#xdf;" 
d="M331 943q14 82 50 151t90.5 118.5t127 77t159.5 27.5q82 0 144.5 -22t103.5 -61t62 -91.5t21 -113.5q0 -112 -58.5 -195.5t-168.5 -136.5q85 -35 131 -105t46 -167q0 -42 -9.5 -92t-32 -99.5t-58 -95.5t-88 -81.5t-122 -57t-159.5 -21.5q-51 0 -66 16.5t-11 60.5
q3 38 21 54.5t53 16.5q89 0 149.5 27.5t97 70.5t52.5 95.5t16 102.5q0 96 -57 146.5t-159 50.5q-34 0 -46 16.5t-5 52.5q6 36 23.5 52t51.5 19q66 6 112 31.5t75 61.5t42.5 78.5t13.5 83.5q0 74 -49 116t-146 42q-52 0 -95 -17t-76.5 -48.5t-55.5 -75.5t-32 -99l-155 -877
q-6 -35 -25 -50t-61 -15t-56 15t-8 50z" />
    <glyph glyph-name="registered" unicode="&#xae;" 
d="M550 -22q-112 0 -202.5 38.5t-154 106.5t-98 160.5t-34.5 200.5q0 100 25 192.5t70.5 173t108.5 146.5t139 113.5t163 73.5t180 26q112 0 202.5 -38.5t154 -106t97.5 -160t34 -199.5q0 -100 -25 -192.5t-70 -173.5t-108 -147.5t-139 -114t-163 -73.5t-180 -26zM561 98
q75 0 145 21t131.5 60t112.5 94t87.5 122t56.5 144.5t20 162.5q0 86 -26 157t-75 122t-119 79.5t-158 28.5q-112 0 -212.5 -46.5t-176.5 -127.5t-120.5 -191t-44.5 -237q0 -86 26 -157.5t75 -123t119 -80t159 -28.5zM465 854q6 34 24 48.5t52 14.5h177q49 0 89 -14.5t68 -40
t43 -60.5t15 -76q0 -84 -47 -145.5t-135 -89.5l91 -122q18 -25 16 -44t-33 -40t-48 -17.5t-31 23.5l-124 179h-101l-23 -135q-6 -35 -23 -50t-52 -15t-45.5 15t-3.5 50zM580 800l-38 -213h106q40 0 69.5 10.5t48.5 28.5t28 42t9 50q0 38 -26.5 60t-81.5 22h-115z" />
    <glyph glyph-name="copyright" unicode="&#xa9;" 
d="M714 937q45 0 89.5 -10t83.5 -30q26 -14 34 -33.5t-8 -51.5t-35 -38t-42 5q-33 17 -64.5 24.5t-69.5 7.5q-45 0 -85.5 -19t-72.5 -57q-32 -39 -50 -92.5t-18 -107.5q0 -80 42 -120t107 -40q38 0 72 7.5t73 24.5q27 11 43 4t26 -39t1 -50.5t-41 -32.5q-45 -20 -93.5 -30
t-93.5 -10q-60 0 -109 19t-84.5 55t-55 87.5t-19.5 115.5q0 38 7 79t20.5 80.5t34.5 76.5t50 67q50 54 115.5 81t142.5 27zM550 -22q-112 0 -202.5 38.5t-154 106.5t-98 160.5t-34.5 200.5q0 100 25 192.5t70.5 173t108.5 146.5t139 113.5t163 73.5t180 26
q112 0 202.5 -38.5t154 -106t97.5 -160t34 -199.5q0 -100 -25 -192.5t-70 -173.5t-108 -147.5t-139 -114t-163 -73.5t-180 -26zM561 98q75 0 145 21t131.5 60t112.5 94t87.5 122t56.5 144.5t20 162.5q0 86 -26 157t-75 122t-119 79.5t-158 28.5q-112 0 -212.5 -46.5
t-176.5 -127.5t-120.5 -191t-44.5 -237q0 -86 26 -157.5t75 -123t119 -80t159 -28.5z" />
    <glyph glyph-name="trademark" unicode="&#x2122;" 
d="M1252 1072l-127 -192q-33 -48 -79 -48q-23 0 -40.5 12t-24.5 36l-60 192l-63 -259q-8 -35 -24 -50t-51 -15t-44 15t-1 50l108 444q8 35 25 50t52 15q48 0 56 -26l89 -299l195 299q9 14 26.5 20t41.5 6q35 0 50 -15t11 -50l-48 -444q-4 -35 -19 -50t-50 -15t-45 15t-6 50z
M263 1193q-34 0 -46.5 12.5t-6.5 46.5t23 47t51 13h382q34 0 46 -13t6 -47t-22.5 -46.5t-50.5 -12.5h-129l-67 -380q-6 -35 -22.5 -50t-51.5 -15t-45.5 15t-4.5 50l67 380h-129z" />
    <glyph glyph-name="acute" unicode="&#xb4;" 
d="M970 1363q13 7 24.5 10t23 -2t24.5 -19.5t29 -42.5q15 -27 20.5 -45.5t4.5 -31t-8 -20t-17 -10.5l-481 -163q-19 -6 -33.5 4.5t-21.5 27.5t-2.5 34.5t21.5 27.5z" />
    <glyph glyph-name="dieresis" unicode="&#xa8;" 
d="M516 1070q-48 0 -78 31.5t-30 76.5q0 29 12 54.5t32.5 45t46.5 31t54 11.5q48 0 77.5 -31t29.5 -76q0 -30 -12 -56t-32 -45.5t-46 -30.5t-54 -11zM956 1070q-48 0 -78 31.5t-30 76.5q0 29 12 54.5t32.5 45t46.5 31t54 11.5q48 0 77.5 -31t29.5 -76q0 -30 -12 -56
t-32 -45.5t-46 -30.5t-54 -11z" />
    <glyph glyph-name="notequal" unicode="&#x2260;" 
d="M768 850l160 208q23 30 48.5 36t51.5 -15t30.5 -41t-18.5 -51l-105 -137h139q34 0 46 -15t5 -53q-6 -38 -23.5 -53t-51.5 -15h-220l-202 -264h376q34 0 46 -15t5 -53t-24 -53t-51 -15h-457l-159 -208q-23 -30 -48 -36t-51 15t-31.5 41t17.5 49l106 139h-139q-34 0 -46 15
t-5 53t24 53t51 15h220l202 264h-376q-34 0 -45.5 15t-5.5 53q7 38 24 53t51 15h456z" />
    <glyph glyph-name="AE" unicode="&#xc6;" 
d="M340 374l-113 -238h83q34 0 46 -15t5 -53q-6 -38 -23 -53t-51 -15h-294q-34 0 -46 15t-6 53q7 38 24 53t51 15h50l437 915h-94q-34 0 -46 15t-5 53t24 53t51 15h769q34 0 46 -15t5 -53l-45 -254q-6 -35 -25 -50t-61 -15t-56 15t-8 50l33 186h-260l-65 -366h192
q34 0 46 -15t5 -53t-24 -53t-51 -15h-192l-73 -413h272l41 229q6 35 25 50t61 15t56 -15t8 -50l-53 -297q-6 -38 -23 -53t-51 -15h-446q-34 0 -46 15t-6 53l54 306h-221zM404 510h181l96 541h-20z" />
    <glyph glyph-name="Oslash" unicode="&#xd8;" 
d="M1185 728q0 -90 -18.5 -181t-54.5 -174t-89 -155.5t-123 -125.5t-156.5 -83.5t-188.5 -30.5q-81 0 -148 21t-121 61l-43 -50q-24 -29 -52 -31.5t-54 18.5q-27 21 -33 42.5t18 50.5l65 76q-37 59 -56.5 132t-19.5 160q0 90 18.5 181t54.5 174.5t89.5 155.5t123.5 125.5
t156.5 84t188.5 30.5q79 0 146 -21t121 -60l44 51q25 29 53.5 31.5t54.5 -18.5t31.5 -42.5t-18.5 -50.5l-66 -78q38 -59 57.5 -132.5t19.5 -160.5zM1028 722q0 96 -31 170l-610 -713q71 -53 179 -53q75 0 139 25t115 68.5t90 102t65.5 124.5t39.5 137t13 139zM268 465
q0 -99 30 -169l609 713q-72 52 -176 52q-76 0 -139.5 -25t-115 -68.5t-90.5 -102t-65 -124.5t-39.5 -137t-13.5 -139z" />
    <glyph glyph-name="summation" unicode="&#x2211;" 
d="M300 1797h628v-85h-628v85zM300 -753h628v-85h-628v85z" />
    <glyph glyph-name="integral" unicode="&#x222b;" 
d="M616 -13q-17 -93 -53.5 -167t-91 -125.5t-126 -78.5t-156.5 -27q-75 0 -143.5 16t-125.5 42q-25 11 -32.5 32.5t7.5 56.5t33.5 46t42.5 1q57 -23 114.5 -35.5t117.5 -12.5q106 0 175 71t92 203l196 1110q16 93 53 167t91.5 125.5t125.5 78.5t157 27q75 0 143.5 -16
t125.5 -42q25 -11 32.5 -32.5t-7.5 -56.5t-33.5 -46t-42.5 -1q-57 23 -114.5 35.5t-117.5 12.5q-106 0 -175 -71t-92 -203z" />
    <glyph glyph-name="ordfeminine" unicode="&#xaa;" 
d="M599 597q68 0 118.5 24.5t83.5 66t49.5 96t16.5 114.5q0 92 -47.5 135.5t-134.5 43.5q-57 0 -104 -25.5t-80 -68.5t-51 -98t-18 -115q0 -83 44.5 -128t122.5 -45zM952 483q-94 0 -108 99q-59 -63 -125 -90t-140 -27q-62 0 -115 21t-92 59.5t-61 93.5t-22 124
q0 50 11 102.5t33.5 102t56.5 93.5t79 77t101 52t124 19q81 0 134.5 -34.5t81.5 -91.5l13 67q5 26 18.5 38t53.5 12t50.5 -12t5.5 -38l-87 -493q-5 -31 5.5 -43t35.5 -12h17q26 0 35 -14.5t3 -46.5q-5 -32 -19 -45t-40 -13h-49z" />
    <glyph glyph-name="ordmasculine" unicode="&#xba;" 
d="M635 465q-72 0 -132.5 23.5t-103.5 65t-67 99t-24 125.5q0 79 30 156.5t86.5 138.5t138 98.5t184.5 37.5q72 0 132 -23.5t103.5 -65.5t67.5 -99.5t24 -125.5q0 -78 -30 -154.5t-86 -138t-138 -99.5t-185 -38zM649 597q59 0 111 22t90.5 61t61 92t22.5 115q0 85 -53 137.5
t-148 52.5q-68 0 -121 -26t-90 -67.5t-56 -93.5t-19 -103q0 -42 14 -77t40 -60t63.5 -39t84.5 -14z" />
    <glyph glyph-name="ae" unicode="&#xe6;" 
d="M696 440q-12 -77 -12 -132q0 -52 9 -87.5t25 -57t38 -31t48 -9.5q48 0 91 18.5t93 59.5q22 19 48 17t44 -31q19 -29 12 -54.5t-36 -48.5q-65 -53 -130 -79.5t-137 -26.5q-79 0 -134.5 35t-84.5 109q-60 -67 -139 -105.5t-160 -38.5q-52 0 -94 15.5t-71.5 44t-45.5 68.5
t-16 89q0 98 50 182t142 133q132 70 335 70l4 22q9 49 9 87q0 54 -23 83t-82 29q-46 0 -93.5 -18.5t-99.5 -53.5q-25 -17 -48.5 -12t-41.5 31q-39 56 15 96q73 55 142.5 78.5t140.5 23.5q81 0 129.5 -30.5t71.5 -85.5q50 58 111.5 87t132.5 29q64 0 110 -21t75 -59.5t43 -94
t14 -124.5q0 -67 -12 -145q-5 -34 -22.5 -48t-51.5 -14h-399zM546 440q-72 0 -129.5 -10t-100.5 -32q-58 -29 -88.5 -79t-30.5 -110q0 -44 24.5 -67t67.5 -23q42 0 81.5 16.5t72 45.5t55 70t30.5 89zM926 801q-69 0 -118 -51t-82 -170h300q2 19 3.5 36t1.5 33q0 72 -24 112
t-81 40z" />
    <glyph glyph-name="oslash" unicode="&#xf8;" 
d="M126 386q0 110 41.5 211t117 178.5t181 124t234.5 46.5q85 0 155.5 -24t125.5 -69l83 70q29 24 57 22.5t48 -27.5q21 -26 22.5 -49t-28.5 -47l-92 -77q26 -45 39.5 -97t13.5 -110q0 -110 -41.5 -211t-117 -178.5t-181 -124t-234.5 -46.5q-85 0 -156 24t-126 69l-83 -70
q-29 -24 -56.5 -22.5t-47.5 27.5q-21 26 -23 48.5t27 46.5l93 78q-52 90 -52 207zM967 530q0 59 -20 110l-556 -466q71 -48 175 -48q88 0 161.5 33t127 89t83 129t29.5 153zM283 394q0 -59 20 -110l555 466q-34 23 -77.5 35.5t-96.5 12.5q-88 0 -161.5 -33t-127 -89
t-83 -129t-29.5 -153z" />
    <glyph glyph-name="questiondown" unicode="&#xbf;" 
d="M782 1209q26 0 48 -9.5t37.5 -25.5t24.5 -37.5t9 -46.5q0 -33 -13.5 -61.5t-36 -49.5t-51.5 -33.5t-59 -12.5q-26 0 -48 9.5t-38 25.5t-24.5 38t-8.5 47q0 32 13.5 60.5t36 49.5t51.5 33.5t59 12.5zM924 120q-7 -41 -35 -56q-165 -86 -344 -86q-75 0 -132.5 19.5t-97 54
t-60 83t-20.5 105.5q0 43 11 86.5t32 83.5t53 72t74.5 59t95.5 51.5t116 48.5l34 136q6 23 26 37t52 14t47.5 -14t12.5 -37l-24 -195q-4 -38 -39 -51l-74 -28q-87 -33 -141.5 -64t-83.5 -72q-17 -23 -25 -52t-8 -58q0 -60 41.5 -95.5t124.5 -35.5q61 0 116.5 11t106.5 31
l15 84q6 35 25 50t61 15t56 -15t8 -50z" />
    <glyph glyph-name="exclamdown" unicode="&#xa1;" 
d="M743 1209q29 0 53.5 -10.5t42 -28.5t27 -42t9.5 -51q0 -36 -15 -68t-40 -56t-57 -38t-66 -14q-29 0 -53.5 10.5t-42 28.5t-27 42t-9.5 52q0 36 15 68t39.5 55.5t56.5 37.5t67 14zM485 -22q-45 0 -32 50l163 647q12 48 66 48q26 0 38.5 -12.5t10.5 -35.5l-66 -647
q-4 -50 -50 -50h-130z" />
    <glyph glyph-name="logicalnot" unicode="&#xac;" 
d="M258 709q-34 0 -46 15t-5 53q6 38 23 53t51 15h812q34 0 46 -15t6 -53l-70 -394q-6 -35 -25 -50t-61 -15t-56 15t-8 50l58 326h-725z" />
    <glyph glyph-name="florin" unicode="&#x192;" 
d="M629 844l45 163q86 310 368 310q53 0 105.5 -7.5t99.5 -23.5q25 -8 34.5 -27t-4.5 -61t-34 -53t-45 -3q-45 15 -87 22t-90 7q-75 0 -126.5 -45t-77.5 -142l-39 -140h234q34 0 46 -15t5 -53q-6 -38 -23.5 -53t-51.5 -15h-248l-187 -677q-86 -310 -368 -310
q-53 0 -105.5 7.5t-99.5 23.5q-24 8 -33.5 27.5t3.5 60.5q14 42 34 53t45 3q45 -15 87 -22t90 -7q75 0 126.5 45t77.5 142l181 654h-197q-34 0 -45.5 15t-5.5 53q7 38 24 53t51 15h211z" />
    <glyph glyph-name="approxequal" unicode="&#x2248;" 
d="M1056 361q-74 -56 -138 -77.5t-121 -21.5q-54 0 -103.5 13.5t-97.5 29.5t-95.5 29.5t-97.5 13.5q-42 0 -86 -13t-93 -45q-19 -12 -38 -2.5t-30 29.5q-12 20 -11.5 44.5t20.5 39.5q74 56 138 77.5t122 21.5q54 0 103.5 -13.5t97.5 -29.5t95.5 -29.5t97.5 -13.5q42 0 86 13
t93 45q20 13 38.5 2t29.5 -31t10.5 -43.5t-20.5 -38.5zM1126 761q-74 -56 -138 -77.5t-121 -21.5q-54 0 -103.5 13.5t-97.5 29.5t-95.5 29.5t-97.5 13.5q-42 0 -86 -13t-93 -45q-19 -12 -38 -2.5t-30 29.5q-12 20 -11.5 44.5t20.5 39.5q74 56 138 77.5t122 21.5
q54 0 103.5 -13.5t97.5 -29.5t95.5 -29.5t97.5 -13.5q42 0 86 13t93 45q20 13 38.5 2t29.5 -31t10.5 -43.5t-20.5 -38.5z" />
    <glyph glyph-name="guillemotleft" unicode="&#xab;" 
d="M434 560l124 -285q11 -25 -5.5 -43.5t-42.5 -27.5t-53 -5t-37 26l-141 326q-10 24 9 48l255 326q9 11 20.5 15.5t24.5 4.5t26 -4t24 -11q22 -14 31 -37t-10 -48zM834 560l124 -285q11 -25 -5.5 -43.5t-42.5 -27.5t-53 -5t-37 26l-141 326q-10 24 9 48l255 326
q9 11 20.5 15.5t24.5 4.5t26 -4t24 -11q22 -14 31 -37t-10 -48z" />
    <glyph glyph-name="guillemotright" unicode="&#xbb;" 
d="M456 590l-124 285q-11 25 5.5 43.5t42.5 27.5t53 5t37 -26l141 -326q10 -25 -9 -48l-255 -326q-9 -11 -20.5 -16t-24.5 -5t-26 4.5t-24 11.5q-22 14 -31 37t10 48zM856 590l-124 285q-11 25 5.5 43.5t42.5 27.5t53 5t37 -26l141 -326q10 -25 -9 -48l-255 -326
q-9 -11 -20.5 -16t-24.5 -5t-26 4.5t-24 11.5q-22 14 -31 37t10 48z" />
    <glyph glyph-name="OE" unicode="&#x152;" 
d="M941 136l41 229q6 35 25 50t61 15t56 -15t8 -50l-53 -297q-6 -38 -23 -53t-51 -15h-491q-100 0 -179.5 31t-135 89.5t-85.5 143t-30 190.5q0 77 15 161.5t47 166t81.5 155t118 129t157.5 88.5t200 33h499q34 0 46 -15t5 -53l-45 -254q-6 -35 -25 -50t-61 -15t-56 15
t-8 50l33 186h-260l-65 -366h192q34 0 46 -15t5 -53t-24 -53t-51 -15h-192l-73 -413h272zM681 1050q-77 -2 -139.5 -29t-111 -71t-84.5 -102t-59 -122.5t-34 -132.5t-11 -132q0 -155 73 -237.5t204 -87.5z" />
    <glyph glyph-name="oe" unicode="&#x153;" 
d="M452 798q-52 0 -92.5 -34t-70.5 -108q-14 -34 -26.5 -80t-21.5 -95.5t-14.5 -98t-5.5 -88.5q0 -88 28 -128t85 -40q52 0 92 34t70 108q14 34 26.5 79.5t21.5 95t14.5 98.5t5.5 89q0 88 -27.5 128t-84.5 40zM675 806q57 74 124.5 107t139.5 33q64 0 110 -21t75 -59.5
t43 -94t14 -124.5q0 -67 -12 -145q-5 -34 -22.5 -48t-51.5 -14h-399q-12 -77 -12 -132q0 -52 9 -87.5t25 -57t38 -31t48 -9.5q48 0 91 18.5t93 59.5q22 19 48 17t44 -31q19 -29 12 -54.5t-36 -48.5q-65 -53 -130 -79.5t-137 -26.5q-78 0 -132.5 33.5t-83.5 104.5
q-49 -68 -112.5 -103t-142.5 -35q-125 0 -188.5 83t-63.5 238q0 49 7 108.5t20.5 120t33.5 119t46 106.5q51 94 124.5 143.5t170.5 49.5q80 0 131 -35.5t76 -104.5zM926 801q-69 0 -118 -51t-82 -170h300q2 19 3.5 36t1.5 33q0 72 -24 112t-81 40z" />
    <glyph glyph-name="endash" unicode="&#x2013;" 
d="M1039 650q34 0 46 -15t5 -53t-24 -53t-51 -15h-762q-34 0 -46 15t-5 53t24 53t51 15h762z" />
    <glyph glyph-name="divide" unicode="&#xf7;" 
d="M679 806q-46 0 -75 30t-29 73q0 28 12 53t31.5 43.5t44.5 29t52 10.5q45 0 73.5 -29.5t28.5 -72.5q0 -29 -11.5 -53.5t-31 -43.5t-44 -29.5t-51.5 -10.5zM579 120q-46 0 -75 30t-29 73q0 28 12 53t31.5 43.5t44.5 29t52 10.5q45 0 73.5 -29.5t28.5 -72.5
q0 -29 -11.5 -53.5t-31 -43.5t-44 -29.5t-51.5 -10.5zM1039 650q34 0 46 -15t5 -53t-24 -53t-51 -15h-762q-34 0 -46 15t-5 53t24 53t51 15h762z" />
    <glyph glyph-name="fraction" unicode="&#x2044;" 
d="M1120 840q17 9 32 1t26 -29q10 -20 7.5 -35t-21.5 -26l-1015 -561q-17 -9 -32 -1t-26 29q-10 20 -7.5 35t21.5 26z" />
    <glyph glyph-name="guilsinglleft" unicode="&#x2039;" 
d="M634 560l124 -285q11 -25 -5.5 -43.5t-42.5 -27.5t-53 -5t-37 26l-141 326q-10 24 9 48l255 326q9 11 20.5 15.5t24.5 4.5t26 -4t24 -11q22 -14 31 -37t-10 -48z" />
    <glyph glyph-name="guilsinglright" unicode="&#x203a;" 
d="M656 590l-124 285q-11 25 5.5 43.5t42.5 27.5t53 5t37 -26l141 -326q10 -25 -9 -48l-255 -326q-9 -11 -20.5 -16t-24.5 -5t-26 4.5t-24 11.5q-22 14 -31 37t10 48z" />
    <glyph glyph-name="fi" unicode="&#xfb01;" 
d="M341 924l11 63q14 78 48 139.5t85.5 104t119 64.5t147.5 22q71 0 135.5 -14t121.5 -37q25 -11 38 -32.5t-1 -59.5q-14 -41 -36 -50.5t-46 0.5q-54 22 -111 34.5t-117 12.5q-99 0 -159 -50.5t-77 -146.5l-9 -50h481q34 0 46 -15t5 -53l-106 -606q-4 -20 -4 -40
q0 -86 91 -86q59 0 121 20q29 9 45 -5t21 -55q5 -37 -6.5 -57t-41.5 -28q-35 -9 -74.5 -15t-79.5 -6q-54 0 -96.5 15.5t-71.5 44t-44 68t-15 87.5q0 30 5 58l94 537h-394l-156 -884q-27 -152 -116.5 -235.5t-240.5 -83.5q-45 0 -93 7.5t-89 24.5q-26 11 -35 31t4 59
q13 40 36 53t48 2q32 -14 69.5 -22.5t72.5 -8.5q82 0 130.5 44.5t65.5 141.5l154 871h-129q-34 0 -45.5 15t-5.5 53q7 38 24 53t51 15h129z" />
    <glyph glyph-name="fl" unicode="&#xfb02;" 
d="M742 1176q-106 0 -166.5 -57.5t-79.5 -160.5l-20 -114h206q34 0 46 -15t5 -53q-6 -38 -23.5 -53t-51.5 -15h-206l-141 -804q-26 -152 -116 -235.5t-241 -83.5q-45 0 -93 7.5t-89 24.5q-26 11 -35 31t4 59q13 40 36 53t48 2q32 -14 69.5 -22.5t72.5 -8.5q82 0 130.5 44.5
t65.5 141.5l139 791h-128q-34 0 -45.5 15t-5.5 53q7 38 24 53t51 15h128l24 133q29 165 133 250t273 85h305q34 0 46 -15t5 -53l-175 -994q-4 -20 -4 -40q0 -86 91 -86q59 0 121 20q29 9 45 -5t21 -55q5 -37 -6.5 -57t-41.5 -28q-35 -9 -74.5 -15t-79.5 -6q-54 0 -96.5 15.5
t-71.5 44t-44 68t-15 87.5q0 30 5 58l163 925h-208z" />
    <glyph glyph-name="daggerdbl" unicode="&#x2021;" 
d="M363 456q-34 0 -46 15t-5 53t24 53t51 15h193l43 246h-193q-34 0 -46 15t-5 53t24 53t51 15h193l31 172q6 34 23.5 48.5t55.5 14.5t50.5 -14.5t6.5 -48.5l-31 -172h193q34 0 46 -15t5 -53t-24 -53t-51 -15h-193l-43 -246h193q34 0 46 -15t5 -53t-24 -53t-51 -15h-193
l-30 -172q-6 -34 -24 -48.5t-56 -14.5t-50 14.5t-6 48.5l30 172h-193z" />
    <glyph glyph-name="quotesinglbase" unicode="&#x201a;" 
d="M468 -218q-29 -43 -84 -43q-35 0 -49.5 18.5t-1.5 50.5l174 446q15 40 59 40h189q25 0 30 -18.5t-13 -44.5z" />
    <glyph glyph-name="quotedblbase" unicode="&#x201e;" 
d="M263 -218q-29 -43 -84 -43q-35 0 -49.5 18.5t-1.5 50.5l174 446q15 40 59 40h189q25 0 30 -18.5t-13 -44.5zM673 -218q-29 -43 -84 -43q-35 0 -49.5 18.5t-1.5 50.5l174 446q15 40 59 40h189q25 0 30 -18.5t-13 -44.5z" />
    <glyph glyph-name="perthousand" unicode="&#x2030;" 
d="M1256 -22q-64 0 -112.5 29t-77.5 77q-43 -49 -103 -77.5t-127 -28.5q-51 0 -93.5 18.5t-74 51t-49 75.5t-17.5 92q0 65 26.5 122t71 99t101.5 66t119 24q64 0 112 -29t77 -77q43 49 103 77.5t128 28.5q51 0 93.5 -19t74 -51t49 -75t17.5 -92q0 -65 -27 -122t-71 -99
t-101.5 -66t-118.5 -24zM376 661q-51 0 -93.5 18.5t-74 51t-49 75.5t-17.5 92q0 65 26.5 122t71 99t101.5 66t119 24q51 0 93.5 -19t74 -51t49 -75t17.5 -92q0 -65 -27 -122t-71 -99t-101.5 -66t-118.5 -24zM1119 1059q29 23 51.5 21.5t42.5 -26.5q40 -50 -15 -95
l-1021 -830q-56 -45 -94 5q-20 25 -16.5 48.5t32.5 46.5zM393 791q33 0 63.5 13.5t54.5 37t38.5 54t14.5 64.5q0 25 -9 47t-25 38t-38.5 25t-48.5 9q-33 0 -63.5 -14t-54.5 -37t-38.5 -53.5t-14.5 -64.5q0 -51 33.5 -85t87.5 -34zM1273 108q33 0 63.5 13.5t54.5 37t38.5 54
t14.5 64.5q0 25 -9 47t-25 38t-38.5 25t-48.5 9q-33 0 -63.5 -14t-54.5 -37t-38.5 -53.5t-14.5 -64.5q0 -51 33.5 -85t87.5 -34zM853 108q33 0 63.5 13.5t54.5 37t38.5 54t14.5 64.5q0 25 -9 47t-25 38t-38.5 25t-48.5 9q-33 0 -63.5 -14t-54.5 -37t-38.5 -53.5t-14.5 -64.5
q0 -51 33.5 -85t87.5 -34z" />
    <glyph glyph-name="dotlessi" unicode="&#x131;" 
d="M298 788q-34 0 -45.5 15t-5.5 53q7 38 24 53t51 15h340q34 0 46 -15t5 -53l-96 -546q-3 -18 -5 -35t-2 -31q0 -63 32 -91.5t102 -28.5q58 0 114 19t118 57q25 15 47 5.5t36 -44.5q14 -36 6 -58t-36 -38q-153 -87 -300 -87q-131 0 -200 66.5t-69 184.5q0 40 7 78l84 481
h-253z" />
    <glyph glyph-name="circumflex" unicode="&#x2c6;" 
d="M457 1039q-20 -10 -36.5 -2t-24.5 24t-5.5 34t19.5 31l308 232q25 18 58 18q32 0 52 -18l246 -232q13 -13 11.5 -31.5t-11.5 -34.5q-11 -16 -27 -24t-32 3l-252 159z" />
    <glyph glyph-name="tilde" unicode="&#x2dc;" 
d="M623 1297q37 0 71 -10t67 -21.5t65 -21.5t66 -10q30 0 65 10.5t70 31.5q17 10 33 3.5t29 -28.5t11.5 -41.5t-17.5 -32.5q-60 -50 -108.5 -70.5t-91.5 -20.5q-37 0 -71 10t-67 21.5t-65 21.5t-66 10q-30 0 -65 -10.5t-70 -31.5q-17 -10 -33 -3.5t-29 28.5t-11.5 41.5
t17.5 32.5q60 50 108.5 70.5t91.5 20.5z" />
    <glyph glyph-name="breve" unicode="&#x2d8;" 
d="M756 1215q103 0 172 27.5t115 95.5q12 17 35 19.5t43 -5.5q19 -8 30 -22t3 -32q-43 -104 -148 -165.5t-261 -61.5q-78 0 -139.5 16t-105.5 45.5t-69.5 71.5t-30.5 94q-2 19 11.5 33t31.5 21q19 8 37.5 5t24.5 -19q26 -68 87 -95.5t164 -27.5z" />
    <glyph glyph-name="dotaccent" unicode="&#x2d9;" 
d="M737 1079q-27 0 -49 9.5t-38.5 26t-25.5 38.5t-9 47q0 33 14 62.5t37 51.5t52.5 34.5t61.5 12.5q27 0 49 -9.5t38 -26t25 -38.5t9 -46q0 -34 -13.5 -63.5t-36.5 -51.5t-52.5 -34.5t-61.5 -12.5z" />
    <glyph glyph-name="ring" unicode="&#x2da;" 
d="M744 1065q-46 0 -85 17t-67.5 46t-45 68.5t-16.5 83.5q0 50 20.5 99.5t57 89t88.5 64t115 24.5q46 0 85 -17t67.5 -46.5t45 -68.5t16.5 -83q0 -51 -20.5 -100.5t-57 -89t-88.5 -63.5t-115 -24zM755 1185q28 0 55.5 12t48.5 32t34 47t13 57q0 45 -29.5 74.5t-76.5 29.5
q-29 0 -56 -12t-48 -32.5t-33.5 -47.5t-12.5 -57q0 -45 29 -74t76 -29z" />
    <glyph glyph-name="cedilla" unicode="&#xb8;" 
d="M463 28h135l-25 -141q46 1 79.5 -10.5t55.5 -31t32.5 -46.5t10.5 -57q0 -15 -3 -33.5t-10 -37.5t-17 -36.5t-24 -32.5q-33 -35 -87.5 -54.5t-132.5 -19.5q-67 0 -128.5 12t-109.5 36q-17 9 -17.5 29.5t10.5 40.5q10 19 26 31t33 5q37 -15 86.5 -24.5t100.5 -9.5
q60 0 88 23t28 58q0 34 -35 46t-99 8q-7 0 -14 1t-12 5.5t-7 13t1 22.5z" />
    <glyph glyph-name="hungarumlaut" unicode="&#x2dd;" 
d="M925 1066q-18 -13 -42 -13q-10 0 -20.5 3.5t-19.5 9.5t-15 15t-6 20q0 16 13 29l233 225q13 13 29 20.5t36 7.5q14 0 32 -6t33.5 -16.5t26 -24.5t10.5 -29q0 -12 -6 -22.5t-16 -17.5zM575 1066q-18 -13 -42 -13q-10 0 -20.5 3.5t-19.5 9.5t-15 15t-6 20q0 16 13 29
l233 225q13 13 29 20.5t36 7.5q14 0 32 -6t33.5 -16.5t26 -24.5t10.5 -29q0 -12 -6 -22.5t-16 -17.5z" />
    <glyph glyph-name="ogonek" unicode="&#x2db;" 
d="M514 -336q29 0 56.5 2.5t54.5 7.5q40 6 47 -48q4 -28 -4.5 -44.5t-31.5 -24.5q-37 -13 -84 -21t-95 -8q-81 0 -124.5 45t-43.5 117q0 91 63.5 172.5t178.5 165.5h170q-130 -99 -191 -173t-61 -132q0 -29 17.5 -44t47.5 -15z" />
    <glyph glyph-name="caron" unicode="&#x2c7;" 
d="M1055 1374q20 10 36.5 2t24.5 -24t5.5 -34t-19.5 -31l-308 -232q-26 -18 -58 -18q-33 0 -52 18l-246 232q-13 13 -11.5 31.5t11.5 34.5q11 16 27 24t32 -3l252 -159z" />
    <glyph glyph-name="Lslash" unicode="&#x141;" 
d="M312 441l-125 -85q-28 -19 -49 -15t-42 36q-21 31 -17.5 51.5t31.5 39.5l235 160l75 423h-162q-34 0 -46 15t-5 53t24 53t51 15h554q34 0 46 -15t5 -53t-24 -53t-51 -15h-242l-55 -307l164 111q28 19 49 15t42 -36q21 -31 17.5 -51.5t-31.5 -39.5l-274 -186l-74 -421h495
l58 329q7 35 26 50t61 15t56 -15t7 -50l-70 -397q-7 -38 -23.5 -53t-50.5 -15h-894q-34 0 -46 15t-6 53q7 38 24 53t51 15h162z" />
    <glyph glyph-name="lslash" unicode="&#x142;" 
d="M1009 65q-153 -87 -300 -87q-131 0 -200 66.5t-69 184.5q0 18 1.5 38t5.5 40l40 227l-142 -96q-28 -19 -49 -15t-42 36q-21 31 -17.5 51.5t31.5 39.5l252 171l80 455h-273q-34 0 -46 15t-5 53t24 53t51 15h360q34 0 46 -15t5 -53l-72 -407l147 100q28 19 49 15t42 -36
q21 -31 17.5 -51.5t-31.5 -39.5l-257 -175l-60 -340q-3 -19 -5 -35.5t-2 -31.5q0 -63 32.5 -91t101.5 -28q58 0 114 19t118 57q25 15 47 5.5t36 -44.5q14 -36 6 -58t-36 -38z" />
    <glyph glyph-name="Scaron" unicode="&#x160;" 
d="M248 821q0 64 25 132.5t78.5 125.5t138 93.5t204.5 36.5q46 0 89 -10t80.5 -27.5t69 -41.5t54.5 -52l12 66q6 35 25.5 50t61.5 15t55.5 -15t7.5 -50l-40 -230q-6 -35 -25.5 -50t-61.5 -15q-37 0 -47 26q-33 93 -111.5 139.5t-188.5 46.5q-70 0 -120.5 -20t-83 -50.5
t-48 -68t-15.5 -73.5q0 -42 27 -67t72 -42q41 -16 93 -27t107.5 -23.5t110 -28.5t101.5 -41q30 -17 55.5 -38t44 -48.5t28.5 -62.5t10 -79q0 -46 -10.5 -95t-34 -95t-60.5 -86.5t-90.5 -71t-124.5 -48.5t-162 -18q-103 0 -183.5 38.5t-131.5 109.5l-15 -83q-6 -35 -25 -50
t-61 -15t-56 15t-8 50l53 300q6 35 25 50t61 15q43 0 51 -42q20 -116 98.5 -178t210.5 -62q76 0 132.5 19.5t94.5 52t57 75t19 88.5q0 48 -25 79t-67 52q-40 20 -91 33t-105.5 25t-109.5 26t-102 35q-32 15 -59.5 34t-47.5 44t-31 57.5t-11 74.5zM1065 1644q20 10 36.5 2
t24.5 -24t5.5 -34t-19.5 -31l-308 -232q-26 -18 -58 -18q-33 0 -52 18l-246 232q-13 13 -11.5 31.5t11.5 34.5q11 16 27 24t32 -3l252 -159z" />
    <glyph glyph-name="scaron" unicode="&#x161;" 
d="M1025 1384q20 10 36.5 2t24.5 -24t5.5 -34t-19.5 -31l-308 -232q-26 -18 -58 -18q-33 0 -52 18l-246 232q-13 13 -11.5 31.5t11.5 34.5q11 16 27 24t32 -3l252 -159zM266 43q-6 -35 -25 -50t-61 -15t-56 15t-8 50l42 240q6 35 25.5 50t61.5 15q22 0 32 -9.5t15 -31.5
q20 -97 96 -140.5t215 -43.5q79 0 131 17.5t82.5 43.5t42.5 55.5t12 53.5q0 37 -30 57.5t-78 31.5q-46 11 -93.5 16.5l-95 11t-95 13.5t-94.5 24q-34 11 -62.5 27t-49.5 38t-32.5 50.5t-11.5 66.5q0 62 25 119t75 101t126.5 70.5t178.5 26.5q100 0 174.5 -29.5t122.5 -80.5
l8 45q6 35 25 50t61 15t56 -15t8 -50l-34 -190q-6 -35 -25 -50t-61 -15q-35 0 -44 26q-15 43 -42.5 72t-66.5 46t-89 24t-108 7q-59 0 -102.5 -12.5t-72 -33t-42 -47t-13.5 -53.5q0 -35 29.5 -53t79.5 -29q46 -10 92.5 -15.5t93.5 -11t94 -13.5t92 -23q34 -11 63.5 -27.5
t51.5 -39.5t34 -53.5t12 -69.5q0 -33 -8.5 -71.5t-28.5 -76.5t-53.5 -73t-82.5 -62t-116 -43t-154 -16q-109 0 -185 30t-127 91z" />
    <glyph glyph-name="Zcaron" unicode="&#x17d;" 
d="M872 136l48 269q6 35 25 50t61 15t56 -15t8 -50l-60 -337q-6 -38 -23 -53t-51 -15h-766q-34 0 -46 15t-6 53q3 14 8.5 24t13.5 19l795 940h-492l-44 -249q-6 -35 -25.5 -50t-61.5 -15t-55.5 15t-7.5 50l56 317q7 38 24 53t51 15h736q34 0 46 -15t5 -53q-5 -25 -17 -39
l-800 -944h522zM1085 1634q20 10 36.5 2t24.5 -24t5.5 -34t-19.5 -31l-308 -232q-26 -18 -58 -18q-33 0 -52 18l-246 232q-13 13 -11.5 31.5t11.5 34.5q11 16 27 24t32 -3l252 -159z" />
    <glyph glyph-name="zcaron" unicode="&#x17e;" 
d="M863 136l31 172q6 35 25 50t61 15t56 -15t8 -50l-43 -240q-7 -38 -23.5 -53t-50.5 -15h-746q-34 0 -46 15t-6 53q5 29 22 45l701 675h-446l-26 -149q-6 -35 -25 -50t-61 -15t-56 15t-8 50l38 217q7 38 24 53t51 15h716q34 0 46 -15t5 -53q-2 -16 -8.5 -27t-14.5 -19
l-700 -674h476zM1025 1374q20 10 36.5 2t24.5 -24t5.5 -34t-19.5 -31l-308 -232q-26 -18 -58 -18q-33 0 -52 18l-246 232q-13 13 -11.5 31.5t11.5 34.5q11 16 27 24t32 -3l252 -159z" />
    <glyph glyph-name="brokenbar" unicode="&#xa6;" 
d="M516 269q6 35 25 50t61 15t56 -15t8 -50l-109 -619q-6 -35 -25.5 -50t-61.5 -15t-55.5 15t-7.5 50zM692 1269q6 35 25.5 50t61.5 15t55.5 -15t7.5 -50l-109 -619q-6 -35 -25 -50t-61 -15t-56 15t-8 50z" />
    <glyph glyph-name="Eth" unicode="&#xd0;" 
d="M280 544h-142q-34 0 -45.5 15t-5.5 53q7 38 24 53t51 15h142l66 371h-112q-34 0 -46 15t-5 53t24 53t51 15h456q102 0 185 -32t141 -92t89.5 -145.5t31.5 -193.5q0 -69 -14 -149.5t-44.5 -161t-79.5 -155t-118.5 -132t-161 -92t-208.5 -34.5h-486q-34 0 -46 15t-6 53
q7 38 24 53t51 15h112zM544 136q90 0 161 27t124.5 72.5t91.5 105t61.5 124.5t34.5 130.5t11 123.5q0 163 -85.5 247.5t-236.5 84.5h-186l-66 -371h190q34 0 46 -15t5 -53q-6 -38 -23.5 -53t-51.5 -15h-190l-72 -408h186z" />
    <glyph glyph-name="eth" unicode="&#xf0;" 
d="M636 1134q-25 16 -50.5 31.5t-52.5 29.5q-28 15 -34 37t14 56q20 35 42.5 42.5t50.5 -7.5q110 -58 200 -129l251 88q33 12 53.5 2.5t31.5 -44.5q11 -32 2.5 -53t-42.5 -33l-185 -65q88 -100 138.5 -223.5t50.5 -278.5q0 -42 -4 -85.5t-12 -89.5q-18 -102 -66.5 -182.5
t-119.5 -136.5t-161.5 -85.5t-192.5 -29.5q-91 0 -166 28.5t-129 79.5t-83.5 121.5t-29.5 155.5q0 103 38 198t108.5 167t172 115t229.5 43q70 0 130.5 -22.5t108.5 -60.5q-27 67 -69 124t-96 108l-254 -89q-34 -12 -54 -1t-31 43q-11 34 -2.5 54t42.5 32zM674 738
q-84 0 -153 -29.5t-118.5 -80t-77 -118t-27.5 -143.5q0 -56 18.5 -100.5t53 -75.5t84 -48t112.5 -17q87 0 157 31t118.5 83t74.5 118.5t26 137.5q0 56 -18.5 100.5t-53 76t-84 48.5t-112.5 17z" />
    <glyph glyph-name="Yacute" unicode="&#xdd;" 
d="M556 499l-244 552h-74q-34 0 -46 15t-5 53t24 53t51 15h334q34 0 46 -15t5 -53t-24 -53t-51 -15h-97l178 -409l324 409h-61q-34 0 -46 15t-5 53t24 53t51 15h304q34 0 46 -15t5 -53t-24 -53t-51 -15h-64l-452 -565l-62 -350h236q34 0 46 -15t5 -53q-6 -38 -23 -53
t-51 -15h-602q-34 0 -46 15t-6 53q7 38 24 53t51 15h216zM1010 1633q13 7 24.5 10t23 -2t24.5 -19.5t29 -42.5q15 -27 20.5 -45.5t4.5 -31t-8 -20t-17 -10.5l-481 -163q-19 -6 -33.5 4.5t-21.5 27.5t-2.5 34.5t21.5 27.5z" />
    <glyph glyph-name="Thorn" unicode="&#xde;" 
d="M444 1051h-166q-34 0 -46 15t-5 53t24 53t51 15h522q34 0 46 -15t5 -53t-24 -53t-51 -15h-206l-22 -124h221q79 0 138.5 -21t99.5 -57.5t60 -86.5t20 -108q0 -40 -9 -83.5t-28.5 -85.5t-51 -80.5t-77.5 -67.5t-107.5 -46.5t-139.5 -17.5h-241l-25 -137h226q34 0 46 -15
t5 -53q-6 -38 -23 -53t-51 -15h-522q-34 0 -46 15t-6 53q7 38 24 53t51 15h146zM691 409q75 0 125.5 22t81 55.5t43 74.5t12.5 80q0 66 -46.5 108t-148.5 42h-210l-67 -382h210z" />
    <glyph glyph-name="thorn" unicode="&#xfe;" 
d="M604 28q-100 0 -171.5 44t-116.5 122l-80 -451h252q34 0 46 -15t5 -53t-24 -53t-51 -15h-484q-34 0 -45.5 15t-4.5 53q6 38 23 53t51 15h82l253 1433h-82q-34 0 -45.5 15t-5.5 53q7 38 24 53t51 15h169q34 0 46 -15t5 -53l-79 -446q74 72 157 110t176 38q81 0 148.5 -26
t116 -74.5t75.5 -117.5t27 -154q0 -107 -35 -205.5t-101.5 -174.5t-162.5 -121t-219 -45zM729 798q-93 0 -162.5 -35t-115 -90t-68 -122.5t-22.5 -132.5q0 -58 18.5 -103t52.5 -76t82 -47t106 -16q84 0 148.5 33.5t108 88t66 124t22.5 140.5q0 53 -15 96.5t-45 74.5t-74 48
t-102 17z" />
    <glyph glyph-name="onesuperior" unicode="&#xb9;" 
d="M707 1179l-184 -57q-17 -5 -26 -5t-16 6t-12 16t-7.5 21.5t-2.5 23.5q0 24 11.5 36.5t32.5 18.5l299 91q13 4 25 4q20 0 29 -11t6 -31l-121 -684h194q40 0 40 -44q0 -81 -62 -81h-533q-41 0 -41 45q0 80 63 80h204z" />
    <glyph glyph-name="twosuperior" unicode="&#xb2;" 
d="M563 1063q-5 -25 -22 -38t-55 -13q-37 0 -50 13t-8 38l26 147q2 14 10 24.5t19 17.5q67 40 146.5 61t151.5 21q118 0 181.5 -58t63.5 -155q0 -48 -13.5 -89t-40.5 -78t-67.5 -73t-94.5 -75l-274 -198h322l14 78q5 25 22 38t55 13q37 0 50 -13t8 -38l-27 -150
q-9 -53 -59 -53h-571q-37 0 -37 50q0 33 12.5 52.5t32.5 34.5l381 280q73 53 108.5 97.5t35.5 101.5q0 48 -33.5 77t-100.5 29q-43 0 -86.5 -10.5t-81.5 -28.5z" />
    <glyph glyph-name="threesuperior" unicode="&#xb3;" 
d="M485 1265q66 35 141 52t143 17q62 0 110 -15t80.5 -41.5t49.5 -64t17 -82.5q0 -76 -39 -129t-109 -87q51 -19 80 -59.5t29 -100.5q0 -63 -23.5 -116t-70 -91.5t-115.5 -60.5t-161 -22q-71 0 -142.5 15.5t-127.5 49.5q-15 10 -15 31q0 11 6 27t16 31t23 25.5t27 10.5
q9 0 19 -5q45 -25 99 -40.5t111 -15.5q100 0 156 38t56 109q0 28 -12 47.5t-33.5 30.5t-52 16t-67.5 5h-52q-19 0 -27 12t-8 32q0 14 3 28.5t9.5 26t17.5 19t27 7.5h39q93 0 143.5 33t50.5 106q0 51 -39.5 76t-108.5 25q-42 0 -79.5 -7.5t-72.5 -21.5l-11 -63
q-5 -25 -22 -38t-55 -13q-37 0 -50 13t-8 38l20 110q5 29 28 42z" />
    <glyph glyph-name="onehalf" unicode="&#xbd;" 
d="M403.139 1218.69l-153.576 -47.5791q-14.1895 -4.17383 -21.7012 -4.17383t-13.3545 5.00879t-10.0166 13.3555q-4.17285 8.34668 -6.25977 17.9463q-2.08594 9.59961 -2.08594 19.6162q0 20.0332 9.59766 30.4668q9.59863 10.4346 27.127 15.4424l249.562 75.959
q10.8506 3.33887 20.8672 3.33887q16.6924 0 24.2041 -9.18164q7.5127 -9.18164 5.00879 -25.876l-100.994 -570.946h161.924q33.3857 0 33.3857 -36.7275q0 -67.6123 -51.748 -67.6123h-444.872q-34.2207 0 -34.2207 37.5625q0 66.7773 52.583 66.7773h170.271z
M728.139 370.75q-4.1748 -20.876 -18.3701 -31.7314q-14.1953 -10.8545 -45.9258 -10.8545q-30.8965 0 -41.751 10.8545q-10.8555 10.8555 -6.68066 31.7314l21.7109 122.748q1.66992 11.6904 8.34961 20.458q6.68066 8.76758 15.8662 14.6133
q55.9463 33.4004 122.33 50.9355q66.3848 17.5361 126.506 17.5361q98.5332 0 151.557 -48.4316t53.0234 -129.429q0 -40.0811 -11.2725 -74.3164q-11.2725 -34.2363 -33.8184 -65.1318t-56.3643 -60.957q-33.8184 -30.0605 -78.9092 -62.626l-228.796 -165.335h268.877
l11.6904 65.1318q4.1748 20.876 18.3701 31.7314q14.1953 10.8545 45.9268 10.8545q30.8955 0 41.751 -10.8545q10.8555 -10.8555 6.67969 -31.7314l-22.5449 -125.253q-7.51562 -44.2559 -49.2666 -44.2559h-476.798q-30.8955 0 -30.8955 41.751q0 27.5557 10.4375 43.8379
q10.4375 16.2832 27.1387 28.8086l318.144 233.807q60.9561 44.2559 90.5996 81.4141q29.6426 37.1582 29.6426 84.7549q0 40.0811 -27.9727 64.2969q-27.9736 24.2158 -83.9199 24.2158q-35.9062 0 -72.2295 -8.76855q-36.3232 -8.76758 -68.0537 -23.7979zM1120 880
q17 9 32 1t26 -29q10 -20 7.5 -35t-21.5 -26l-1015 -561q-17 -9 -32 -1t-26 29q-10 20 -7.5 35t21.5 26z" />
    <glyph glyph-name="onequarter" unicode="&#xbc;" 
d="M1120 830q17 9 32 1t26 -29q10 -20 7.5 -35t-21.5 -26l-1015 -561q-17 -9 -32 -1t-26 29q-10 20 -7.5 35t21.5 26zM403.139 1218.69l-153.576 -47.5791q-14.1895 -4.17383 -21.7012 -4.17383t-13.3545 5.00879t-10.0166 13.3555q-4.17285 8.34668 -6.25977 17.9463
q-2.08594 9.59961 -2.08594 19.6162q0 20.0332 9.59766 30.4668q9.59863 10.4346 27.127 15.4424l249.562 75.959q10.8506 3.33887 20.8672 3.33887q16.6924 0 24.2041 -9.18164q7.5127 -9.18164 5.00879 -25.876l-100.994 -570.946h161.924q33.3857 0 33.3857 -36.7275
q0 -67.6123 -51.748 -67.6123h-444.872q-34.2207 0 -34.2207 37.5625q0 66.7773 52.583 66.7773h170.271zM936.895 444.231l-268.877 -266.372h216.271zM952.76 -80.1621q-4.1748 -19.2051 -17.9531 -29.6436q-13.7773 -10.4375 -45.5078 -10.4375
q-30.8965 0 -42.5869 10.4375q-11.6904 10.4385 -7.51465 29.6436l27.5557 153.645h-313.969q-16.7002 0 -26.7207 11.2725q-10.0195 11.2725 -10.0195 35.4883q0 28.3906 7.51465 40.499q7.51562 12.1074 16.7002 22.1279l383.275 378.265q17.5352 16.7002 34.6533 26.3027
q17.1182 9.60352 39.6641 9.60352q13.3604 0 26.3027 -3.34082q12.9434 -3.33984 22.1279 -9.60254q9.18555 -6.2627 14.1953 -14.6123q5.01074 -8.35059 3.34082 -18.3711l-65.9668 -373.255h91.0176q16.7002 0 25.0498 -8.34961q8.35059 -8.35059 8.35059 -27.5557
q0 -68.4717 -50.9365 -68.4717h-91.8525z" />
    <glyph glyph-name="threequarters" unicode="&#xbe;" 
d="M1120 840q17 9 32 1t26 -29q10 -20 7.5 -35t-21.5 -26l-1015 -561q-17 -9 -32 -1t-26 29q-10 20 -7.5 35t21.5 26zM244.661 1290.94q55.1113 29.2256 117.738 43.4209t119.408 14.1953q51.7715 0 91.8525 -12.5254t67.2188 -34.6533q27.1387 -22.1279 41.334 -53.4414
t14.1953 -68.8896q0 -63.4609 -32.5654 -107.718q-32.5664 -44.2559 -91.0176 -72.6465q42.5859 -15.8652 66.8018 -49.6836q24.2158 -33.8193 24.2158 -83.9199q0 -52.6064 -19.623 -96.8623q-19.623 -44.2568 -58.4521 -76.4053q-38.8281 -32.1484 -96.4443 -50.5186
q-57.6172 -18.3701 -134.438 -18.3701q-59.2871 0 -118.991 12.9424q-59.7041 12.9434 -106.465 41.334q-12.5254 8.34961 -12.5254 25.8857q0 9.18457 5.00977 22.5449q5.01074 13.3604 13.3604 25.8857q8.35059 12.5254 19.2061 21.293q10.8545 8.76758 22.5449 8.76758
q7.51562 0 15.8652 -4.1748q37.5762 -20.875 82.668 -33.8184q45.0908 -12.9424 92.6875 -12.9424q83.502 0 130.263 31.7305q46.7617 31.7305 46.7617 91.0176q0 23.3809 -10.0205 39.6631q-10.0205 16.2832 -27.9736 25.4688q-17.9521 9.18457 -43.4209 13.3604
q-25.4678 4.1748 -56.3643 4.1748h-43.4209q-15.8652 0 -22.5449 10.0205q-6.68066 10.0205 -6.68066 26.7207q0 11.6904 2.50488 23.7979q2.50488 12.1084 7.93262 21.7109t14.6133 15.8652t22.5459 6.2627h32.5654q77.6572 0 119.826 27.5557
q42.168 27.5557 42.168 88.5127q0 42.5859 -32.9834 63.4609q-32.9834 20.876 -90.5996 20.876q-35.0713 0 -66.3848 -6.2627q-31.3125 -6.2627 -60.5391 -17.9531l-9.18457 -52.6064q-4.17578 -20.875 -18.3711 -31.7305t-45.9258 -10.8555q-30.8955 0 -41.751 10.8555
t-6.68066 31.7305l16.7012 91.8525q4.1748 24.2158 23.3799 35.0713zM936.895 444.231l-268.877 -266.372h216.271zM952.76 -80.1621q-4.1748 -19.2051 -17.9531 -29.6436q-13.7773 -10.4375 -45.5078 -10.4375q-30.8965 0 -42.5869 10.4375
q-11.6904 10.4385 -7.51465 29.6436l27.5557 153.645h-313.969q-16.7002 0 -26.7207 11.2725q-10.0195 11.2725 -10.0195 35.4883q0 28.3906 7.51465 40.499q7.51562 12.1074 16.7002 22.1279l383.275 378.265q17.5352 16.7002 34.6533 26.3027
q17.1182 9.60352 39.6641 9.60352q13.3604 0 26.3027 -3.34082q12.9434 -3.33984 22.1279 -9.60254q9.18555 -6.2627 14.1953 -14.6123q5.01074 -8.35059 3.34082 -18.3711l-65.9668 -373.255h91.0176q16.7002 0 25.0498 -8.34961q8.35059 -8.35059 8.35059 -27.5557
q0 -68.4717 -50.9365 -68.4717h-91.8525z" />
    <glyph glyph-name="Euro" unicode="&#x20ac;" 
d="M294 820q36 91 87 163t114.5 122t138.5 77t159 27q87 0 150.5 -35t100.5 -92l11 62q6 35 25.5 50t61.5 15t55.5 -15t7.5 -50l-58 -330q-6 -35 -25 -50t-61 -15t-56 15t-8 50q9 49 0.5 94t-35 79t-71.5 54t-110 20q-104 0 -186 -63t-136 -178h290q34 0 46 -15t5 -53
t-24 -53t-51 -15h-315q-11 -42 -19 -85.5t-13 -88.5h316q34 0 46 -15t5 -53q-6 -38 -23.5 -53t-51.5 -15h-294q10 -118 67 -183t163 -65q92 0 180 30.5t170 85.5q23 15 47 7.5t42 -42.5q17 -35 12.5 -59t-34.5 -42q-107 -66 -216 -97t-217 -31q-86 0 -152.5 28t-113 79.5
t-73 124.5t-32.5 164h-101q-34 0 -45.5 15t-5.5 53q7 38 24 53t51 15h79q7 85 30 174h-78q-34 0 -46 15t-5 53t24 53t51 15h97z" />
    <glyph glyph-name="quotedblleft" unicode="&#x201c;" 
d="M995 1204q29 43 84 43q35 0 49.5 -18.5t1.5 -50.5l-174 -446q-15 -40 -59 -40h-189q-25 0 -30 18.5t13 44.5zM585 1204q29 43 84 43q35 0 49.5 -18.5t1.5 -50.5l-174 -446q-15 -40 -59 -40h-189q-25 0 -30 18.5t13 44.5z" />
    <glyph glyph-name="quotedblright" unicode="&#x201d;" 
d="M424 697q-29 -43 -84 -43q-35 0 -49.5 18.5t-1.5 50.5l174 446q15 40 59 40h189q25 0 30 -18.5t-13 -44.5zM834 697q-29 -43 -84 -43q-35 0 -49.5 18.5t-1.5 50.5l174 446q15 40 59 40h189q25 0 30 -18.5t-13 -44.5z" />
    <glyph glyph-name="quoteleft" unicode="&#x2018;" 
d="M790 1204q29 43 84 43q35 0 49.5 -18.5t1.5 -50.5l-174 -446q-15 -40 -59 -40h-189q-25 0 -30 18.5t13 44.5z" />
    <glyph glyph-name="quoteright" unicode="&#x2019;" 
d="M629 697q-29 -43 -84 -43q-35 0 -49.5 18.5t-1.5 50.5l174 446q15 40 59 40h189q25 0 30 -18.5t-13 -44.5z" />
    <glyph glyph-name="y" unicode="y" 
d="M1207 924q34 0 46 -15t5 -53q-6 -38 -23.5 -53t-51.5 -15h-59l-556 -838q-65 -99 -122 -167t-116 -110.5t-125 -63t-149 -23.5q-30 -1 -50.5 13t-20.5 54q0 44 17.5 63t44.5 21q70 4 121.5 19.5t99 53.5t98 102.5t118.5 165.5l-237 710h-66q-34 0 -45.5 15t-5.5 53
q7 38 24 53t51 15h354q34 0 46 -15t5 -53q-6 -38 -23.5 -53t-51.5 -15h-132l183 -562l368 562h-85q-34 0 -45.5 15t-5.5 53q7 38 24 53t51 15h314z" />
    <glyph glyph-name="emdash" unicode="&#x2014;" 
d="M1239 650q34 0 46 -15t5 -53t-24 -53t-51 -15h-1162q-34 0 -46 15t-5 53t24 53t51 15h1162z" />
    <glyph glyph-name="t" unicode="t" 
d="M461 844l53 300q6 35 25.5 50t61.5 15t55.5 -15t7.5 -50l-53 -300h411q34 0 46 -15t5 -53q-6 -38 -23.5 -53t-51.5 -15h-411l-64 -364q-9 -47 -9 -83q0 -69 33.5 -103t113.5 -34q70 0 149 29t152 72q25 15 47 5.5t36 -44.5q14 -36 6 -58t-36 -38q-42 -24 -88 -44.5
t-94 -35.5t-95.5 -23.5t-91.5 -8.5q-146 0 -214.5 67t-68.5 192q0 24 2.5 50t7.5 54l64 367h-203q-34 0 -45.5 15t-5.5 53q7 38 24 53t51 15h203z" />
    <glyph glyph-name="k" unicode="k" 
d="M1127 924q34 0 46 -15t5 -53q-6 -38 -23.5 -53t-51.5 -15h-55l-414 -302q100 16 171 -62q27 -29 44.5 -65t31.5 -71.5t27.5 -67.5t31.5 -53q12 -14 28 -22.5t37 -8.5h24q34 0 46 -15t5 -53q-6 -38 -23 -53t-51 -15h-43q-34 0 -64 9.5t-51 30.5q-33 33 -53 71.5t-35 77.5
t-29.5 74.5t-36.5 61.5q-24 27 -58 40.5t-72 13.5q-36 0 -77.5 -11.5t-71.5 -33.5l-18 -13l-47 -266q-6 -35 -25 -50t-61 -15t-56 15t-8 50l198 1121h-131q-34 0 -46 15t-5 53t24 53t51 15h218q34 0 46 -15t5 -53l-132 -747l395 291h-54q-34 0 -45.5 15t-5.5 53q7 38 24 53
t51 15h334z" />
    <glyph glyph-name="ellipsis" unicode="&#x2026;" 
d="M543 -22q-25 0 -46 9t-36.5 24.5t-24 36.5t-8.5 45q0 31 13 58.5t35 48t49.5 32.5t57.5 12q25 0 46 -9t36.5 -24.5t24 -36t8.5 -44.5q0 -32 -13 -59.5t-34.5 -48t-49.5 -32.5t-58 -12zM143 -22q-25 0 -46 9t-36.5 24.5t-24 36.5t-8.5 45q0 31 13 58.5t35 48t49.5 32.5
t57.5 12q25 0 46 -9t36.5 -24.5t24 -36t8.5 -44.5q0 -32 -13 -59.5t-34.5 -48t-49.5 -32.5t-58 -12zM943 -22q-25 0 -46 9t-36.5 24.5t-24 36.5t-8.5 45q0 31 13 58.5t35 48t49.5 32.5t57.5 12q25 0 46 -9t36.5 -24.5t24 -36t8.5 -44.5q0 -32 -13 -59.5t-34.5 -48
t-49.5 -32.5t-58 -12z" />
    <glyph glyph-name="edieresis" unicode="&#xeb;" 
d="M969 66q-42 -19 -93 -35t-106.5 -28t-114 -18.5t-116.5 -6.5q-95 0 -167.5 26t-122.5 75t-75.5 118.5t-25.5 156.5q0 124 41.5 232t116.5 188t180 126t233 46q83 0 150 -22t113.5 -61t71.5 -92.5t25 -115.5q0 -51 -12.5 -93t-39.5 -73.5t-70 -51.5t-104 -26l-549 -57
q2 -122 68 -176.5t182 -54.5q50 0 101 7t99 19.5t92.5 29.5t82.5 36q25 13 47 1t34 -50q12 -39 1.5 -62.5t-42.5 -37.5zM704 801q-78 0 -141.5 -23.5t-112 -64.5t-82 -97.5t-49.5 -123.5l503 58q58 6 78.5 31t20.5 69q0 31 -13.5 59t-40.5 48t-68 32t-95 12zM496 1070
q-48 0 -78 31.5t-30 76.5q0 29 12 54.5t32.5 45t46.5 31t54 11.5q48 0 77.5 -31t29.5 -76q0 -30 -12 -56t-32 -45.5t-46 -30.5t-54 -11zM936 1070q-48 0 -78 31.5t-30 76.5q0 29 12 54.5t32.5 45t46.5 31t54 11.5q48 0 77.5 -31t29.5 -76q0 -30 -12 -56t-32 -45.5t-46 -30.5
t-54 -11z" />
    <glyph glyph-name="adieresis" unicode="&#xe4;" 
d="M485 -22q-81 0 -148 27t-115 77.5t-74.5 122t-26.5 161.5q0 65 13.5 133t41.5 132.5t70 121.5t99 100t129.5 68t160.5 25q51 0 96.5 -13t84 -37t69.5 -57t55 -73l19 103q6 35 22.5 50t58.5 15t53.5 -15t5.5 -50l-118 -668q-5 -31 5.5 -48t38.5 -17h25q34 0 46 -15t5 -53
q-6 -38 -23 -53t-51 -15h-51q-62 0 -101.5 38.5t-44.5 104.5q-153 -165 -345 -165zM511 126q89 0 158.5 36t117 94.5t72.5 133t25 151.5q0 61 -18 109t-51.5 81t-80.5 50t-105 17q-84 0 -149.5 -37t-110.5 -97t-68 -136t-23 -153q0 -56 15 -102t44 -78.5t73 -50.5t101 -18z
M486 1070q-48 0 -78 31.5t-30 76.5q0 29 12 54.5t32.5 45t46.5 31t54 11.5q48 0 77.5 -31t29.5 -76q0 -30 -12 -56t-32 -45.5t-46 -30.5t-54 -11zM926 1070q-48 0 -78 31.5t-30 76.5q0 29 12 54.5t32.5 45t46.5 31t54 11.5q48 0 77.5 -31t29.5 -76q0 -30 -12 -56t-32 -45.5
t-46 -30.5t-54 -11z" />
    <glyph glyph-name="odieresis" unicode="&#xf6;" 
d="M126 386q0 110 41.5 211t117 178.5t181 124t234.5 46.5q94 0 172 -30.5t134 -85t87 -129.5t31 -163q0 -110 -41.5 -211t-117 -178.5t-181 -124t-234.5 -46.5q-94 0 -172 30.5t-134 85t-87 129t-31 163.5zM283 394q0 -60 19.5 -109t56 -84.5t89 -55t118.5 -19.5
q88 0 161.5 33t127 89t83 129t29.5 153q0 60 -19.5 109t-56 84.5t-89 55t-118.5 19.5q-88 0 -161.5 -33t-127 -89t-83 -129t-29.5 -153zM496 1070q-48 0 -78 31.5t-30 76.5q0 29 12 54.5t32.5 45t46.5 31t54 11.5q48 0 77.5 -31t29.5 -76q0 -30 -12 -56t-32 -45.5t-46 -30.5
t-54 -11zM936 1070q-48 0 -78 31.5t-30 76.5q0 29 12 54.5t32.5 45t46.5 31t54 11.5q48 0 77.5 -31t29.5 -76q0 -30 -12 -56t-32 -45.5t-46 -30.5t-54 -11z" />
    <glyph glyph-name="udieresis" unicode="&#xfc;" 
d="M352 319q-2 -14 -3.5 -27.5t-1.5 -26.5q0 -64 32 -101.5t101 -37.5q64 0 127.5 31t117 85t92 126t53.5 154l47 266h-142q-34 0 -45.5 15t-5.5 53q7 38 24 53t51 15h229q34 0 46 -15t5 -53l-127 -720h82q34 0 46 -15t5 -53q-6 -38 -23 -53t-51 -15h-160q-34 0 -46 15
t-5 53l21 120q-85 -103 -179 -156.5t-193 -53.5q-60 0 -107.5 18.5t-80 52.5t-50 82t-17.5 107q0 18 1.5 37t5.5 39l84 474h-82q-34 0 -45.5 15t-5.5 53q7 38 24 53t51 15h169q34 0 46 -15t5 -53zM466 1070q-48 0 -78 31.5t-30 76.5q0 29 12 54.5t32.5 45t46.5 31t54 11.5
q48 0 77.5 -31t29.5 -76q0 -30 -12 -56t-32 -45.5t-46 -30.5t-54 -11zM906 1070q-48 0 -78 31.5t-30 76.5q0 29 12 54.5t32.5 45t46.5 31t54 11.5q48 0 77.5 -31t29.5 -76q0 -30 -12 -56t-32 -45.5t-46 -30.5t-54 -11z" />
    <glyph glyph-name="Odieresis" unicode="&#xd6;" 
d="M1185 728q0 -90 -18.5 -181t-54.5 -174t-89 -155.5t-123 -125.5t-156.5 -83.5t-188.5 -30.5t-184 34t-140 97t-89 151.5t-31 197.5q0 90 18.5 181t54.5 174.5t89.5 155.5t123.5 125.5t156.5 84t188.5 30.5t184 -34.5t139.5 -97.5t88.5 -151.5t31 -197.5zM1028 722
q0 79 -20 142t-58.5 106.5t-93.5 67t-125 23.5q-76 0 -139.5 -25t-115 -68.5t-90.5 -102t-65 -124.5t-39.5 -137t-13.5 -139q0 -80 20.5 -142.5t58.5 -106.5t93.5 -67t125.5 -23q75 0 139 25t115 68.5t90 102t65.5 124.5t39.5 137t13 139zM544 1340q-48 0 -78 31.5t-30 76.5
q0 29 12 54.5t32.5 45t46.5 31t54 11.5q48 0 77.5 -31t29.5 -76q0 -30 -12 -56t-32 -45.5t-46 -30.5t-54 -11zM984 1340q-48 0 -78 31.5t-30 76.5q0 29 12 54.5t32.5 45t46.5 31t54 11.5q48 0 77.5 -31t29.5 -76q0 -30 -12 -56t-32 -45.5t-46 -30.5t-54 -11z" />
    <glyph glyph-name="Udieresis" unicode="&#xdc;" 
d="M248 1051q-34 0 -46 15t-5 53t24 53t51 15h324q34 0 46 -15t5 -53t-24 -53t-51 -15h-112l-113 -638q-9 -51 -9 -92q0 -105 57 -150t171 -45q68 0 121.5 15.5t93 50t65 89t39.5 132.5l113 638h-112q-34 0 -46 15t-5 53t24 53t51 15h324q34 0 46 -15t5 -53t-24 -53t-51 -15
h-62l-118 -668q-19 -107 -59 -183.5t-100 -126t-139.5 -72.5t-176.5 -23q-85 0 -153 20t-116 60t-74 100t-26 141q0 24 2.5 50t7.5 54l114 648h-62zM544 1340q-48 0 -78 31.5t-30 76.5q0 29 12 54.5t32.5 45t46.5 31t54 11.5q48 0 77.5 -31t29.5 -76q0 -30 -12 -56
t-32 -45.5t-46 -30.5t-54 -11zM984 1340q-48 0 -78 31.5t-30 76.5q0 29 12 54.5t32.5 45t46.5 31t54 11.5q48 0 77.5 -31t29.5 -76q0 -30 -12 -56t-32 -45.5t-46 -30.5t-54 -11z" />
    <glyph glyph-name="Adieresis" unicode="&#xc4;" 
d="M360 136q34 0 46 -15t5 -53q-6 -38 -23 -53t-51 -15h-334q-34 0 -46 15t-6 53q7 38 24 53t51 15h53l493 915h-184q-34 0 -46 15t-5 53t24 53t51 15h364q40 0 61.5 -15t27.5 -50l179 -986h64q34 0 46 -15t5 -53q-6 -38 -23 -53t-51 -15h-354q-34 0 -46 15t-6 53
q7 38 24 53t51 15h140l-40 238h-485l-125 -238h116zM440 510h392l-90 541h-19zM524 1340q-48 0 -78 31.5t-30 76.5q0 29 12 54.5t32.5 45t46.5 31t54 11.5q48 0 77.5 -31t29.5 -76q0 -30 -12 -56t-32 -45.5t-46 -30.5t-54 -11zM964 1340q-48 0 -78 31.5t-30 76.5
q0 29 12 54.5t32.5 45t46.5 31t54 11.5q48 0 77.5 -31t29.5 -76q0 -30 -12 -56t-32 -45.5t-46 -30.5t-54 -11z" />
    <glyph glyph-name="ydieresis" unicode="&#xff;" 
d="M1207 924q34 0 46 -15t5 -53q-6 -38 -23.5 -53t-51.5 -15h-59l-556 -838q-65 -99 -122 -167t-116 -110.5t-125 -63t-149 -23.5q-30 -1 -50.5 13t-20.5 54q0 44 17.5 63t44.5 21q70 4 121.5 19.5t99 53.5t98 102.5t118.5 165.5l-237 710h-66q-34 0 -45.5 15t-5.5 53
q7 38 24 53t51 15h354q34 0 46 -15t5 -53q-6 -38 -23.5 -53t-51.5 -15h-132l183 -562l368 562h-85q-34 0 -45.5 15t-5.5 53q7 38 24 53t51 15h314zM496 1070q-48 0 -78 31.5t-30 76.5q0 29 12 54.5t32.5 45t46.5 31t54 11.5q48 0 77.5 -31t29.5 -76q0 -30 -12 -56t-32 -45.5
t-46 -30.5t-54 -11zM936 1070q-48 0 -78 31.5t-30 76.5q0 29 12 54.5t32.5 45t46.5 31t54 11.5q48 0 77.5 -31t29.5 -76q0 -30 -12 -56t-32 -45.5t-46 -30.5t-54 -11z" />
    <glyph glyph-name="Ydieresis" unicode="&#x178;" 
d="M556 499l-244 552h-74q-34 0 -46 15t-5 53t24 53t51 15h334q34 0 46 -15t5 -53t-24 -53t-51 -15h-97l178 -409l324 409h-61q-34 0 -46 15t-5 53t24 53t51 15h304q34 0 46 -15t5 -53t-24 -53t-51 -15h-64l-452 -565l-62 -350h236q34 0 46 -15t5 -53q-6 -38 -23 -53
t-51 -15h-602q-34 0 -46 15t-6 53q7 38 24 53t51 15h216zM544 1340q-48 0 -78 31.5t-30 76.5q0 29 12 54.5t32.5 45t46.5 31t54 11.5q48 0 77.5 -31t29.5 -76q0 -30 -12 -56t-32 -45.5t-46 -30.5t-54 -11zM984 1340q-48 0 -78 31.5t-30 76.5q0 29 12 54.5t32.5 45t46.5 31
t54 11.5q48 0 77.5 -31t29.5 -76q0 -30 -12 -56t-32 -45.5t-46 -30.5t-54 -11z" />
    <glyph glyph-name="acircumflex" unicode="&#xe2;" 
d="M485 -22q-81 0 -148 27t-115 77.5t-74.5 122t-26.5 161.5q0 65 13.5 133t41.5 132.5t70 121.5t99 100t129.5 68t160.5 25q51 0 96.5 -13t84 -37t69.5 -57t55 -73l19 103q6 35 22.5 50t58.5 15t53.5 -15t5.5 -50l-118 -668q-5 -31 5.5 -48t38.5 -17h25q34 0 46 -15t5 -53
q-6 -38 -23 -53t-51 -15h-51q-62 0 -101.5 38.5t-44.5 104.5q-153 -165 -345 -165zM511 126q89 0 158.5 36t117 94.5t72.5 133t25 151.5q0 61 -18 109t-51.5 81t-80.5 50t-105 17q-84 0 -149.5 -37t-110.5 -97t-68 -136t-23 -153q0 -56 15 -102t44 -78.5t73 -50.5t101 -18z
M437 1039q-20 -10 -36.5 -2t-24.5 24t-5.5 34t19.5 31l308 232q25 18 58 18q32 0 52 -18l246 -232q13 -13 11.5 -31.5t-11.5 -34.5q-11 -16 -27 -24t-32 3l-252 159z" />
    <glyph glyph-name="ecircumflex" unicode="&#xea;" 
d="M969 66q-42 -19 -93 -35t-106.5 -28t-114 -18.5t-116.5 -6.5q-95 0 -167.5 26t-122.5 75t-75.5 118.5t-25.5 156.5q0 124 41.5 232t116.5 188t180 126t233 46q83 0 150 -22t113.5 -61t71.5 -92.5t25 -115.5q0 -51 -12.5 -93t-39.5 -73.5t-70 -51.5t-104 -26l-549 -57
q2 -122 68 -176.5t182 -54.5q50 0 101 7t99 19.5t92.5 29.5t82.5 36q25 13 47 1t34 -50q12 -39 1.5 -62.5t-42.5 -37.5zM704 801q-78 0 -141.5 -23.5t-112 -64.5t-82 -97.5t-49.5 -123.5l503 58q58 6 78.5 31t20.5 69q0 31 -13.5 59t-40.5 48t-68 32t-95 12zM447 1039
q-20 -10 -36.5 -2t-24.5 24t-5.5 34t19.5 31l308 232q25 18 58 18q32 0 52 -18l246 -232q13 -13 11.5 -31.5t-11.5 -34.5q-11 -16 -27 -24t-32 3l-252 159z" />
    <glyph glyph-name="ucircumflex" unicode="&#xfb;" 
d="M352 319q-2 -14 -3.5 -27.5t-1.5 -26.5q0 -64 32 -101.5t101 -37.5q64 0 127.5 31t117 85t92 126t53.5 154l47 266h-142q-34 0 -45.5 15t-5.5 53q7 38 24 53t51 15h229q34 0 46 -15t5 -53l-127 -720h82q34 0 46 -15t5 -53q-6 -38 -23 -53t-51 -15h-160q-34 0 -46 15
t-5 53l21 120q-85 -103 -179 -156.5t-193 -53.5q-60 0 -107.5 18.5t-80 52.5t-50 82t-17.5 107q0 18 1.5 37t5.5 39l84 474h-82q-34 0 -45.5 15t-5.5 53q7 38 24 53t51 15h169q34 0 46 -15t5 -53zM417 1039q-20 -10 -36.5 -2t-24.5 24t-5.5 34t19.5 31l308 232q25 18 58 18
q32 0 52 -18l246 -232q13 -13 11.5 -31.5t-11.5 -34.5q-11 -16 -27 -24t-32 3l-252 159z" />
    <glyph glyph-name="ocircumflex" unicode="&#xf4;" 
d="M126 386q0 110 41.5 211t117 178.5t181 124t234.5 46.5q94 0 172 -30.5t134 -85t87 -129.5t31 -163q0 -110 -41.5 -211t-117 -178.5t-181 -124t-234.5 -46.5q-94 0 -172 30.5t-134 85t-87 129t-31 163.5zM283 394q0 -60 19.5 -109t56 -84.5t89 -55t118.5 -19.5
q88 0 161.5 33t127 89t83 129t29.5 153q0 60 -19.5 109t-56 84.5t-89 55t-118.5 19.5q-88 0 -161.5 -33t-127 -89t-83 -129t-29.5 -153zM437 1039q-20 -10 -36.5 -2t-24.5 24t-5.5 34t19.5 31l308 232q25 18 58 18q32 0 52 -18l246 -232q13 -13 11.5 -31.5t-11.5 -34.5
q-11 -16 -27 -24t-32 3l-252 159z" />
    <glyph glyph-name="Ocircumflex" unicode="&#xd4;" 
d="M1185 728q0 -90 -18.5 -181t-54.5 -174t-89 -155.5t-123 -125.5t-156.5 -83.5t-188.5 -30.5t-184 34t-140 97t-89 151.5t-31 197.5q0 90 18.5 181t54.5 174.5t89.5 155.5t123.5 125.5t156.5 84t188.5 30.5t184 -34.5t139.5 -97.5t88.5 -151.5t31 -197.5zM1028 722
q0 79 -20 142t-58.5 106.5t-93.5 67t-125 23.5q-76 0 -139.5 -25t-115 -68.5t-90.5 -102t-65 -124.5t-39.5 -137t-13.5 -139q0 -80 20.5 -142.5t58.5 -106.5t93.5 -67t125.5 -23q75 0 139 25t115 68.5t90 102t65.5 124.5t39.5 137t13 139zM485 1309q-20 -10 -36.5 -2
t-24.5 24t-5.5 34t19.5 31l308 232q25 18 58 18q32 0 52 -18l246 -232q13 -13 11.5 -31.5t-11.5 -34.5q-11 -16 -27 -24t-32 3l-252 159z" />
    <glyph glyph-name="Ucircumflex" unicode="&#xdb;" 
d="M248 1051q-34 0 -46 15t-5 53t24 53t51 15h324q34 0 46 -15t5 -53t-24 -53t-51 -15h-112l-113 -638q-9 -51 -9 -92q0 -105 57 -150t171 -45q68 0 121.5 15.5t93 50t65 89t39.5 132.5l113 638h-112q-34 0 -46 15t-5 53t24 53t51 15h324q34 0 46 -15t5 -53t-24 -53t-51 -15
h-62l-118 -668q-19 -107 -59 -183.5t-100 -126t-139.5 -72.5t-176.5 -23q-85 0 -153 20t-116 60t-74 100t-26 141q0 24 2.5 50t7.5 54l114 648h-62zM495 1309q-20 -10 -36.5 -2t-24.5 24t-5.5 34t19.5 31l308 232q25 18 58 18q32 0 52 -18l246 -232q13 -13 11.5 -31.5
t-11.5 -34.5q-11 -16 -27 -24t-32 3l-252 159z" />
    <glyph glyph-name="Icircumflex" unicode="&#xce;" 
d="M654 1051h-266q-34 0 -46 15t-5 53t24 53t51 15h662q34 0 46 -15t5 -53t-24 -53t-51 -15h-246l-162 -915h286q34 0 46 -15t5 -53q-6 -38 -23 -53t-51 -15h-702q-34 0 -46 15t-6 53q7 38 24 53t51 15h266zM485 1309q-20 -10 -36.5 -2t-24.5 24t-5.5 34t19.5 31l308 232
q25 18 58 18q32 0 52 -18l246 -232q13 -13 11.5 -31.5t-11.5 -34.5q-11 -16 -27 -24t-32 3l-252 159z" />
    <glyph glyph-name="Acircumflex" unicode="&#xc2;" 
d="M360 136q34 0 46 -15t5 -53q-6 -38 -23 -53t-51 -15h-334q-34 0 -46 15t-6 53q7 38 24 53t51 15h53l493 915h-184q-34 0 -46 15t-5 53t24 53t51 15h364q40 0 61.5 -15t27.5 -50l179 -986h64q34 0 46 -15t5 -53q-6 -38 -23 -53t-51 -15h-354q-34 0 -46 15t-6 53
q7 38 24 53t51 15h140l-40 238h-485l-125 -238h116zM440 510h392l-90 541h-19zM455 1309q-20 -10 -36.5 -2t-24.5 24t-5.5 34t19.5 31l308 232q25 18 58 18q32 0 52 -18l246 -232q13 -13 11.5 -31.5t-11.5 -34.5q-11 -16 -27 -24t-32 3l-252 159z" />
    <glyph glyph-name="Edieresis" unicode="&#xcb;" 
d="M360 1051h-102q-34 0 -46 15t-5 53t24 53t51 15h874q34 0 46 -15t5 -53l-45 -254q-6 -35 -25 -50t-61 -15t-56 15t-8 50l33 186h-535l-66 -371h250l16 91q7 35 26 50t61 15t56 -15t7 -50l-56 -318q-6 -35 -25 -50t-61 -15t-56 15t-8 50l16 91h-250l-72 -408h555l41 229
q6 35 25 50t61 15t56 -15t8 -50l-53 -297q-6 -38 -23 -53t-51 -15h-894q-34 0 -46 15t-6 53q7 38 24 53t51 15h102zM564 1340q-48 0 -78 31.5t-30 76.5q0 29 12 54.5t32.5 45t46.5 31t54 11.5q48 0 77.5 -31t29.5 -76q0 -30 -12 -56t-32 -45.5t-46 -30.5t-54 -11zM1004 1340
q-48 0 -78 31.5t-30 76.5q0 29 12 54.5t32.5 45t46.5 31t54 11.5q48 0 77.5 -31t29.5 -76q0 -30 -12 -56t-32 -45.5t-46 -30.5t-54 -11z" />
    <glyph glyph-name="Ecircumflex" unicode="&#xca;" 
d="M360 1051h-102q-34 0 -46 15t-5 53t24 53t51 15h874q34 0 46 -15t5 -53l-45 -254q-6 -35 -25 -50t-61 -15t-56 15t-8 50l33 186h-535l-66 -371h250l16 91q7 35 26 50t61 15t56 -15t7 -50l-56 -318q-6 -35 -25 -50t-61 -15t-56 15t-8 50l16 91h-250l-72 -408h555l41 229
q6 35 25 50t61 15t56 -15t8 -50l-53 -297q-6 -38 -23 -53t-51 -15h-894q-34 0 -46 15t-6 53q7 38 24 53t51 15h102zM505 1309q-20 -10 -36.5 -2t-24.5 24t-5.5 34t19.5 31l308 232q25 18 58 18q32 0 52 -18l246 -232q13 -13 11.5 -31.5t-11.5 -34.5q-11 -16 -27 -24t-32 3
l-252 159z" />
    <glyph glyph-name="Idieresis" unicode="&#xcf;" 
d="M654 1051h-266q-34 0 -46 15t-5 53t24 53t51 15h662q34 0 46 -15t5 -53t-24 -53t-51 -15h-246l-162 -915h286q34 0 46 -15t5 -53q-6 -38 -23 -53t-51 -15h-702q-34 0 -46 15t-6 53q7 38 24 53t51 15h266zM544 1340q-48 0 -78 31.5t-30 76.5q0 29 12 54.5t32.5 45t46.5 31
t54 11.5q48 0 77.5 -31t29.5 -76q0 -30 -12 -56t-32 -45.5t-46 -30.5t-54 -11zM984 1340q-48 0 -78 31.5t-30 76.5q0 29 12 54.5t32.5 45t46.5 31t54 11.5q48 0 77.5 -31t29.5 -76q0 -30 -12 -56t-32 -45.5t-46 -30.5t-54 -11z" />
    <glyph glyph-name="idieresis" unicode="&#xef;" 
d="M298 788q-34 0 -45.5 15t-5.5 53q7 38 24 53t51 15h340q34 0 46 -15t5 -53l-96 -546q-3 -18 -5 -35t-2 -31q0 -63 32 -91.5t102 -28.5q58 0 114 19t118 57q25 15 47 5.5t36 -44.5q14 -36 6 -58t-36 -38q-153 -87 -300 -87q-131 0 -200 66.5t-69 184.5q0 40 7 78l84 481
h-253zM416 1070q-48 0 -78 31.5t-30 76.5q0 29 12 54.5t32.5 45t46.5 31t54 11.5q48 0 77.5 -31t29.5 -76q0 -30 -12 -56t-32 -45.5t-46 -30.5t-54 -11zM856 1070q-48 0 -78 31.5t-30 76.5q0 29 12 54.5t32.5 45t46.5 31t54 11.5q48 0 77.5 -31t29.5 -76q0 -30 -12 -56
t-32 -45.5t-46 -30.5t-54 -11z" />
    <glyph glyph-name="icircumflex" unicode="&#xee;" 
d="M298 788q-34 0 -45.5 15t-5.5 53q7 38 24 53t51 15h340q34 0 46 -15t5 -53l-96 -546q-3 -18 -5 -35t-2 -31q0 -63 32 -91.5t102 -28.5q58 0 114 19t118 57q25 15 47 5.5t36 -44.5q14 -36 6 -58t-36 -38q-153 -87 -300 -87q-131 0 -200 66.5t-69 184.5q0 40 7 78l84 481
h-253zM337 1039q-20 -10 -36.5 -2t-24.5 24t-5.5 34t19.5 31l308 232q25 18 58 18q32 0 52 -18l246 -232q13 -13 11.5 -31.5t-11.5 -34.5q-11 -16 -27 -24t-32 3l-252 159z" />
    <glyph glyph-name="aacute" unicode="&#xe1;" 
d="M485 -22q-81 0 -148 27t-115 77.5t-74.5 122t-26.5 161.5q0 65 13.5 133t41.5 132.5t70 121.5t99 100t129.5 68t160.5 25q51 0 96.5 -13t84 -37t69.5 -57t55 -73l19 103q6 35 22.5 50t58.5 15t53.5 -15t5.5 -50l-118 -668q-5 -31 5.5 -48t38.5 -17h25q34 0 46 -15t5 -53
q-6 -38 -23 -53t-51 -15h-51q-62 0 -101.5 38.5t-44.5 104.5q-153 -165 -345 -165zM511 126q89 0 158.5 36t117 94.5t72.5 133t25 151.5q0 61 -18 109t-51.5 81t-80.5 50t-105 17q-84 0 -149.5 -37t-110.5 -97t-68 -136t-23 -153q0 -56 15 -102t44 -78.5t73 -50.5t101 -18z
M918 1363q13 7 24.5 10t23 -2t24.5 -19.5t29 -42.5q15 -27 20.5 -45.5t4.5 -31t-8 -20t-17 -10.5l-481 -163q-19 -6 -33.5 4.5t-21.5 27.5t-2.5 34.5t21.5 27.5z" />
    <glyph glyph-name="iacute" unicode="&#xed;" 
d="M298 788q-34 0 -45.5 15t-5.5 53q7 38 24 53t51 15h340q34 0 46 -15t5 -53l-96 -546q-3 -18 -5 -35t-2 -31q0 -63 32 -91.5t102 -28.5q58 0 114 19t118 57q25 15 47 5.5t36 -44.5q14 -36 6 -58t-36 -38q-153 -87 -300 -87q-131 0 -200 66.5t-69 184.5q0 40 7 78l84 481
h-253zM848 1363q13 7 24.5 10t23 -2t24.5 -19.5t29 -42.5q15 -27 20.5 -45.5t4.5 -31t-8 -20t-17 -10.5l-481 -163q-19 -6 -33.5 4.5t-21.5 27.5t-2.5 34.5t21.5 27.5z" />
    <glyph glyph-name="oacute" unicode="&#xf3;" 
d="M126 386q0 110 41.5 211t117 178.5t181 124t234.5 46.5q94 0 172 -30.5t134 -85t87 -129.5t31 -163q0 -110 -41.5 -211t-117 -178.5t-181 -124t-234.5 -46.5q-94 0 -172 30.5t-134 85t-87 129t-31 163.5zM283 394q0 -60 19.5 -109t56 -84.5t89 -55t118.5 -19.5
q88 0 161.5 33t127 89t83 129t29.5 153q0 60 -19.5 109t-56 84.5t-89 55t-118.5 19.5q-88 0 -161.5 -33t-127 -89t-83 -129t-29.5 -153zM928 1363q13 7 24.5 10t23 -2t24.5 -19.5t29 -42.5q15 -27 20.5 -45.5t4.5 -31t-8 -20t-17 -10.5l-481 -163q-19 -6 -33.5 4.5
t-21.5 27.5t-2.5 34.5t21.5 27.5z" />
    <glyph glyph-name="uacute" unicode="&#xfa;" 
d="M352 319q-2 -14 -3.5 -27.5t-1.5 -26.5q0 -64 32 -101.5t101 -37.5q64 0 127.5 31t117 85t92 126t53.5 154l47 266h-142q-34 0 -45.5 15t-5.5 53q7 38 24 53t51 15h229q34 0 46 -15t5 -53l-127 -720h82q34 0 46 -15t5 -53q-6 -38 -23 -53t-51 -15h-160q-34 0 -46 15
t-5 53l21 120q-85 -103 -179 -156.5t-193 -53.5q-60 0 -107.5 18.5t-80 52.5t-50 82t-17.5 107q0 18 1.5 37t5.5 39l84 474h-82q-34 0 -45.5 15t-5.5 53q7 38 24 53t51 15h169q34 0 46 -15t5 -53zM938 1363q13 7 24.5 10t23 -2t24.5 -19.5t29 -42.5q15 -27 20.5 -45.5
t4.5 -31t-8 -20t-17 -10.5l-481 -163q-19 -6 -33.5 4.5t-21.5 27.5t-2.5 34.5t21.5 27.5z" />
    <glyph glyph-name="Iacute" unicode="&#xcd;" 
d="M654 1051h-266q-34 0 -46 15t-5 53t24 53t51 15h662q34 0 46 -15t5 -53t-24 -53t-51 -15h-246l-162 -915h286q34 0 46 -15t5 -53q-6 -38 -23 -53t-51 -15h-702q-34 0 -46 15t-6 53q7 38 24 53t51 15h266zM986 1633q13 7 24.5 10t23 -2t24.5 -19.5t29 -42.5
q15 -27 20.5 -45.5t4.5 -31t-8 -20t-17 -10.5l-481 -163q-19 -6 -33.5 4.5t-21.5 27.5t-2.5 34.5t21.5 27.5z" />
    <glyph glyph-name="Uacute" unicode="&#xda;" 
d="M248 1051q-34 0 -46 15t-5 53t24 53t51 15h324q34 0 46 -15t5 -53t-24 -53t-51 -15h-112l-113 -638q-9 -51 -9 -92q0 -105 57 -150t171 -45q68 0 121.5 15.5t93 50t65 89t39.5 132.5l113 638h-112q-34 0 -46 15t-5 53t24 53t51 15h324q34 0 46 -15t5 -53t-24 -53t-51 -15
h-62l-118 -668q-19 -107 -59 -183.5t-100 -126t-139.5 -72.5t-176.5 -23q-85 0 -153 20t-116 60t-74 100t-26 141q0 24 2.5 50t7.5 54l114 648h-62zM1006 1633q13 7 24.5 10t23 -2t24.5 -19.5t29 -42.5q15 -27 20.5 -45.5t4.5 -31t-8 -20t-17 -10.5l-481 -163
q-19 -6 -33.5 4.5t-21.5 27.5t-2.5 34.5t21.5 27.5z" />
    <glyph glyph-name="Oacute" unicode="&#xd3;" 
d="M1185 728q0 -90 -18.5 -181t-54.5 -174t-89 -155.5t-123 -125.5t-156.5 -83.5t-188.5 -30.5t-184 34t-140 97t-89 151.5t-31 197.5q0 90 18.5 181t54.5 174.5t89.5 155.5t123.5 125.5t156.5 84t188.5 30.5t184 -34.5t139.5 -97.5t88.5 -151.5t31 -197.5zM1028 722
q0 79 -20 142t-58.5 106.5t-93.5 67t-125 23.5q-76 0 -139.5 -25t-115 -68.5t-90.5 -102t-65 -124.5t-39.5 -137t-13.5 -139q0 -80 20.5 -142.5t58.5 -106.5t93.5 -67t125.5 -23q75 0 139 25t115 68.5t90 102t65.5 124.5t39.5 137t13 139zM976 1633q13 7 24.5 10t23 -2
t24.5 -19.5t29 -42.5q15 -27 20.5 -45.5t4.5 -31t-8 -20t-17 -10.5l-481 -163q-19 -6 -33.5 4.5t-21.5 27.5t-2.5 34.5t21.5 27.5z" />
    <glyph glyph-name="Ograve" unicode="&#xd2;" 
d="M1185 728q0 -90 -18.5 -181t-54.5 -174t-89 -155.5t-123 -125.5t-156.5 -83.5t-188.5 -30.5t-184 34t-140 97t-89 151.5t-31 197.5q0 90 18.5 181t54.5 174.5t89.5 155.5t123.5 125.5t156.5 84t188.5 30.5t184 -34.5t139.5 -97.5t88.5 -151.5t31 -197.5zM1028 722
q0 79 -20 142t-58.5 106.5t-93.5 67t-125 23.5q-76 0 -139.5 -25t-115 -68.5t-90.5 -102t-65 -124.5t-39.5 -137t-13.5 -139q0 -80 20.5 -142.5t58.5 -106.5t93.5 -67t125.5 -23q75 0 139 25t115 68.5t90 102t65.5 124.5t39.5 137t13 139zM1002 1403q17 -10 21.5 -27.5
t-2.5 -34.5t-21.5 -27.5t-33.5 -4.5l-481 163q-10 3 -17 10.5t-8 20t4.5 31t20.5 45.5q16 28 29 42.5t24.5 19.5t23 2t24.5 -10z" />
    <glyph glyph-name="Ugrave" unicode="&#xd9;" 
d="M248 1051q-34 0 -46 15t-5 53t24 53t51 15h324q34 0 46 -15t5 -53t-24 -53t-51 -15h-112l-113 -638q-9 -51 -9 -92q0 -105 57 -150t171 -45q68 0 121.5 15.5t93 50t65 89t39.5 132.5l113 638h-112q-34 0 -46 15t-5 53t24 53t51 15h324q34 0 46 -15t5 -53t-24 -53t-51 -15
h-62l-118 -668q-19 -107 -59 -183.5t-100 -126t-139.5 -72.5t-176.5 -23q-85 0 -153 20t-116 60t-74 100t-26 141q0 24 2.5 50t7.5 54l114 648h-62zM1002 1403q17 -10 21.5 -27.5t-2.5 -34.5t-21.5 -27.5t-33.5 -4.5l-481 163q-10 3 -17 10.5t-8 20t4.5 31t20.5 45.5
q16 28 29 42.5t24.5 19.5t23 2t24.5 -10z" />
    <glyph glyph-name="Igrave" unicode="&#xcc;" 
d="M654 1051h-266q-34 0 -46 15t-5 53t24 53t51 15h662q34 0 46 -15t5 -53t-24 -53t-51 -15h-246l-162 -915h286q34 0 46 -15t5 -53q-6 -38 -23 -53t-51 -15h-702q-34 0 -46 15t-6 53q7 38 24 53t51 15h266zM992 1403q17 -10 21.5 -27.5t-2.5 -34.5t-21.5 -27.5t-33.5 -4.5
l-481 163q-10 3 -17 10.5t-8 20t4.5 31t20.5 45.5q16 28 29 42.5t24.5 19.5t23 2t24.5 -10z" />
    <glyph glyph-name="Egrave" unicode="&#xc8;" 
d="M360 1051h-102q-34 0 -46 15t-5 53t24 53t51 15h874q34 0 46 -15t5 -53l-45 -254q-6 -35 -25 -50t-61 -15t-56 15t-8 50l33 186h-535l-66 -371h250l16 91q7 35 26 50t61 15t56 -15t7 -50l-56 -318q-6 -35 -25 -50t-61 -15t-56 15t-8 50l16 91h-250l-72 -408h555l41 229
q6 35 25 50t61 15t56 -15t8 -50l-53 -297q-6 -38 -23 -53t-51 -15h-894q-34 0 -46 15t-6 53q7 38 24 53t51 15h102zM1002 1403q17 -10 21.5 -27.5t-2.5 -34.5t-21.5 -27.5t-33.5 -4.5l-481 163q-10 3 -17 10.5t-8 20t4.5 31t20.5 45.5q16 28 29 42.5t24.5 19.5t23 2
t24.5 -10z" />
    <glyph glyph-name="Aacute" unicode="&#xc1;" 
d="M360 136q34 0 46 -15t5 -53q-6 -38 -23 -53t-51 -15h-334q-34 0 -46 15t-6 53q7 38 24 53t51 15h53l493 915h-184q-34 0 -46 15t-5 53t24 53t51 15h364q40 0 61.5 -15t27.5 -50l179 -986h64q34 0 46 -15t5 -53q-6 -38 -23 -53t-51 -15h-354q-34 0 -46 15t-6 53
q7 38 24 53t51 15h140l-40 238h-485l-125 -238h116zM440 510h392l-90 541h-19zM936 1633q13 7 24.5 10t23 -2t24.5 -19.5t29 -42.5q15 -27 20.5 -45.5t4.5 -31t-8 -20t-17 -10.5l-481 -163q-19 -6 -33.5 4.5t-21.5 27.5t-2.5 34.5t21.5 27.5z" />
    <glyph glyph-name="Eacute" unicode="&#xc9;" 
d="M360 1051h-102q-34 0 -46 15t-5 53t24 53t51 15h874q34 0 46 -15t5 -53l-45 -254q-6 -35 -25 -50t-61 -15t-56 15t-8 50l33 186h-535l-66 -371h250l16 91q7 35 26 50t61 15t56 -15t7 -50l-56 -318q-6 -35 -25 -50t-61 -15t-56 15t-8 50l16 91h-250l-72 -408h555l41 229
q6 35 25 50t61 15t56 -15t8 -50l-53 -297q-6 -38 -23 -53t-51 -15h-894q-34 0 -46 15t-6 53q7 38 24 53t51 15h102zM976 1633q13 7 24.5 10t23 -2t24.5 -19.5t29 -42.5q15 -27 20.5 -45.5t4.5 -31t-8 -20t-17 -10.5l-481 -163q-19 -6 -33.5 4.5t-21.5 27.5t-2.5 34.5
t21.5 27.5z" />
    <glyph glyph-name="Agrave" unicode="&#xc0;" 
d="M360 136q34 0 46 -15t5 -53q-6 -38 -23 -53t-51 -15h-334q-34 0 -46 15t-6 53q7 38 24 53t51 15h53l493 915h-184q-34 0 -46 15t-5 53t24 53t51 15h364q40 0 61.5 -15t27.5 -50l179 -986h64q34 0 46 -15t5 -53q-6 -38 -23 -53t-51 -15h-354q-34 0 -46 15t-6 53
q7 38 24 53t51 15h140l-40 238h-485l-125 -238h116zM440 510h392l-90 541h-19zM902 1403q17 -10 21.5 -27.5t-2.5 -34.5t-21.5 -27.5t-33.5 -4.5l-481 163q-10 3 -17 10.5t-8 20t4.5 31t20.5 45.5q16 28 29 42.5t24.5 19.5t23 2t24.5 -10z" />
    <glyph glyph-name="eacute" unicode="&#xe9;" 
d="M969 66q-42 -19 -93 -35t-106.5 -28t-114 -18.5t-116.5 -6.5q-95 0 -167.5 26t-122.5 75t-75.5 118.5t-25.5 156.5q0 124 41.5 232t116.5 188t180 126t233 46q83 0 150 -22t113.5 -61t71.5 -92.5t25 -115.5q0 -51 -12.5 -93t-39.5 -73.5t-70 -51.5t-104 -26l-549 -57
q2 -122 68 -176.5t182 -54.5q50 0 101 7t99 19.5t92.5 29.5t82.5 36q25 13 47 1t34 -50q12 -39 1.5 -62.5t-42.5 -37.5zM704 801q-78 0 -141.5 -23.5t-112 -64.5t-82 -97.5t-49.5 -123.5l503 58q58 6 78.5 31t20.5 69q0 31 -13.5 59t-40.5 48t-68 32t-95 12zM918 1363
q13 7 24.5 10t23 -2t24.5 -19.5t29 -42.5q15 -27 20.5 -45.5t4.5 -31t-8 -20t-17 -10.5l-481 -163q-19 -6 -33.5 4.5t-21.5 27.5t-2.5 34.5t21.5 27.5z" />
    <glyph glyph-name="egrave" unicode="&#xe8;" 
d="M969 66q-42 -19 -93 -35t-106.5 -28t-114 -18.5t-116.5 -6.5q-95 0 -167.5 26t-122.5 75t-75.5 118.5t-25.5 156.5q0 124 41.5 232t116.5 188t180 126t233 46q83 0 150 -22t113.5 -61t71.5 -92.5t25 -115.5q0 -51 -12.5 -93t-39.5 -73.5t-70 -51.5t-104 -26l-549 -57
q2 -122 68 -176.5t182 -54.5q50 0 101 7t99 19.5t92.5 29.5t82.5 36q25 13 47 1t34 -50q12 -39 1.5 -62.5t-42.5 -37.5zM704 801q-78 0 -141.5 -23.5t-112 -64.5t-82 -97.5t-49.5 -123.5l503 58q58 6 78.5 31t20.5 69q0 31 -13.5 59t-40.5 48t-68 32t-95 12zM954 1133
q17 -10 21.5 -27.5t-2.5 -34.5t-21.5 -27.5t-33.5 -4.5l-481 163q-10 3 -17 10.5t-8 20t4.5 31t20.5 45.5q16 28 29 42.5t24.5 19.5t23 2t24.5 -10z" />
    <glyph glyph-name="igrave" unicode="&#xec;" 
d="M298 788q-34 0 -45.5 15t-5.5 53q7 38 24 53t51 15h340q34 0 46 -15t5 -53l-96 -546q-3 -18 -5 -35t-2 -31q0 -63 32 -91.5t102 -28.5q58 0 114 19t118 57q25 15 47 5.5t36 -44.5q14 -36 6 -58t-36 -38q-153 -87 -300 -87q-131 0 -200 66.5t-69 184.5q0 40 7 78l84 481
h-253zM794 1133q17 -10 21.5 -27.5t-2.5 -34.5t-21.5 -27.5t-33.5 -4.5l-481 163q-10 3 -17 10.5t-8 20t4.5 31t20.5 45.5q16 28 29 42.5t24.5 19.5t23 2t24.5 -10z" />
    <glyph glyph-name="agrave" unicode="&#xe0;" 
d="M485 -22q-81 0 -148 27t-115 77.5t-74.5 122t-26.5 161.5q0 65 13.5 133t41.5 132.5t70 121.5t99 100t129.5 68t160.5 25q51 0 96.5 -13t84 -37t69.5 -57t55 -73l19 103q6 35 22.5 50t58.5 15t53.5 -15t5.5 -50l-118 -668q-5 -31 5.5 -48t38.5 -17h25q34 0 46 -15t5 -53
q-6 -38 -23 -53t-51 -15h-51q-62 0 -101.5 38.5t-44.5 104.5q-153 -165 -345 -165zM511 126q89 0 158.5 36t117 94.5t72.5 133t25 151.5q0 61 -18 109t-51.5 81t-80.5 50t-105 17q-84 0 -149.5 -37t-110.5 -97t-68 -136t-23 -153q0 -56 15 -102t44 -78.5t73 -50.5t101 -18z
M954 1133q17 -10 21.5 -27.5t-2.5 -34.5t-21.5 -27.5t-33.5 -4.5l-481 163q-10 3 -17 10.5t-8 20t4.5 31t20.5 45.5q16 28 29 42.5t24.5 19.5t23 2t24.5 -10z" />
    <glyph glyph-name="ugrave" unicode="&#xf9;" 
d="M352 319q-2 -14 -3.5 -27.5t-1.5 -26.5q0 -64 32 -101.5t101 -37.5q64 0 127.5 31t117 85t92 126t53.5 154l47 266h-142q-34 0 -45.5 15t-5.5 53q7 38 24 53t51 15h229q34 0 46 -15t5 -53l-127 -720h82q34 0 46 -15t5 -53q-6 -38 -23 -53t-51 -15h-160q-34 0 -46 15
t-5 53l21 120q-85 -103 -179 -156.5t-193 -53.5q-60 0 -107.5 18.5t-80 52.5t-50 82t-17.5 107q0 18 1.5 37t5.5 39l84 474h-82q-34 0 -45.5 15t-5.5 53q7 38 24 53t51 15h169q34 0 46 -15t5 -53zM924 1133q17 -10 21.5 -27.5t-2.5 -34.5t-21.5 -27.5t-33.5 -4.5l-481 163
q-10 3 -17 10.5t-8 20t4.5 31t20.5 45.5q16 28 29 42.5t24.5 19.5t23 2t24.5 -10z" />
    <glyph glyph-name="ograve" unicode="&#xf2;" 
d="M126 386q0 110 41.5 211t117 178.5t181 124t234.5 46.5q94 0 172 -30.5t134 -85t87 -129.5t31 -163q0 -110 -41.5 -211t-117 -178.5t-181 -124t-234.5 -46.5q-94 0 -172 30.5t-134 85t-87 129t-31 163.5zM283 394q0 -60 19.5 -109t56 -84.5t89 -55t118.5 -19.5
q88 0 161.5 33t127 89t83 129t29.5 153q0 60 -19.5 109t-56 84.5t-89 55t-118.5 19.5q-88 0 -161.5 -33t-127 -89t-83 -129t-29.5 -153zM944 1133q17 -10 21.5 -27.5t-2.5 -34.5t-21.5 -27.5t-33.5 -4.5l-481 163q-10 3 -17 10.5t-8 20t4.5 31t20.5 45.5q16 28 29 42.5
t24.5 19.5t23 2t24.5 -10z" />
    <glyph glyph-name="aring" unicode="&#xe5;" 
d="M485 -22q-81 0 -148 27t-115 77.5t-74.5 122t-26.5 161.5q0 65 13.5 133t41.5 132.5t70 121.5t99 100t129.5 68t160.5 25q51 0 96.5 -13t84 -37t69.5 -57t55 -73l19 103q6 35 22.5 50t58.5 15t53.5 -15t5.5 -50l-118 -668q-5 -31 5.5 -48t38.5 -17h25q34 0 46 -15t5 -53
q-6 -38 -23 -53t-51 -15h-51q-62 0 -101.5 38.5t-44.5 104.5q-153 -165 -345 -165zM511 126q89 0 158.5 36t117 94.5t72.5 133t25 151.5q0 61 -18 109t-51.5 81t-80.5 50t-105 17q-84 0 -149.5 -37t-110.5 -97t-68 -136t-23 -153q0 -56 15 -102t44 -78.5t73 -50.5t101 -18z
M716 1036q-46 0 -85 17t-67.5 46t-45 68.5t-16.5 83.5q0 50 20.5 99.5t57 89t88.5 64t115 24.5q46 0 85 -17t67.5 -46.5t45 -68.5t16.5 -83q0 -51 -20.5 -100.5t-57 -89t-88.5 -63.5t-115 -24zM727 1156q28 0 55.5 12t48.5 32t34 47t13 57q0 45 -29.5 74.5t-76.5 29.5
q-29 0 -56 -12t-48 -32.5t-33.5 -47.5t-12.5 -57q0 -45 29 -74t76 -29z" />
    <glyph glyph-name="Aring" unicode="&#xc5;" 
d="M360 136q34 0 46 -15t5 -53q-6 -38 -23 -53t-51 -15h-334q-34 0 -46 15t-6 53q7 38 24 53t51 15h53l493 915h-184q-34 0 -46 15t-5 53t24 53t51 15h364q40 0 61.5 -15t27.5 -50l179 -986h64q34 0 46 -15t5 -53q-6 -38 -23 -53t-51 -15h-354q-34 0 -46 15t-6 53
q7 38 24 53t51 15h140l-40 238h-485l-125 -238h116zM440 510h392l-90 541h-19zM726 1305q-46 0 -85 17t-67.5 46t-45 68.5t-16.5 83.5q0 50 20.5 99.5t57 89t88.5 64t115 24.5q46 0 85 -17t67.5 -46.5t45 -68.5t16.5 -83q0 -51 -20.5 -100.5t-57 -89t-88.5 -63.5t-115 -24z
M737 1425q28 0 55.5 12t48.5 32t34 47t13 57q0 45 -29.5 74.5t-76.5 29.5q-29 0 -56 -12t-48 -32.5t-33.5 -47.5t-12.5 -57q0 -45 29 -74t76 -29z" />
    <glyph glyph-name="atilde" unicode="&#xe3;" 
d="M485 -22q-81 0 -148 27t-115 77.5t-74.5 122t-26.5 161.5q0 65 13.5 133t41.5 132.5t70 121.5t99 100t129.5 68t160.5 25q51 0 96.5 -13t84 -37t69.5 -57t55 -73l19 103q6 35 22.5 50t58.5 15t53.5 -15t5.5 -50l-118 -668q-5 -31 5.5 -48t38.5 -17h25q34 0 46 -15t5 -53
q-6 -38 -23 -53t-51 -15h-51q-62 0 -101.5 38.5t-44.5 104.5q-153 -165 -345 -165zM511 126q89 0 158.5 36t117 94.5t72.5 133t25 151.5q0 61 -18 109t-51.5 81t-80.5 50t-105 17q-84 0 -149.5 -37t-110.5 -97t-68 -136t-23 -153q0 -56 15 -102t44 -78.5t73 -50.5t101 -18z
M593 1297q37 0 71 -10t67 -21.5t65 -21.5t66 -10q30 0 65 10.5t70 31.5q17 10 33 3.5t29 -28.5t11.5 -41.5t-17.5 -32.5q-60 -50 -108.5 -70.5t-91.5 -20.5q-37 0 -71 10t-67 21.5t-65 21.5t-66 10q-30 0 -65 -10.5t-70 -31.5q-17 -10 -33 -3.5t-29 28.5t-11.5 41.5
t17.5 32.5q60 50 108.5 70.5t91.5 20.5z" />
    <glyph glyph-name="otilde" unicode="&#xf5;" 
d="M126 386q0 110 41.5 211t117 178.5t181 124t234.5 46.5q94 0 172 -30.5t134 -85t87 -129.5t31 -163q0 -110 -41.5 -211t-117 -178.5t-181 -124t-234.5 -46.5q-94 0 -172 30.5t-134 85t-87 129t-31 163.5zM283 394q0 -60 19.5 -109t56 -84.5t89 -55t118.5 -19.5
q88 0 161.5 33t127 89t83 129t29.5 153q0 60 -19.5 109t-56 84.5t-89 55t-118.5 19.5q-88 0 -161.5 -33t-127 -89t-83 -129t-29.5 -153zM598 1297q37 0 71 -10t67 -21.5t65 -21.5t66 -10q30 0 65 10.5t70 31.5q17 10 33 3.5t29 -28.5t11.5 -41.5t-17.5 -32.5
q-60 -50 -108.5 -70.5t-91.5 -20.5q-37 0 -71 10t-67 21.5t-65 21.5t-66 10q-30 0 -65 -10.5t-70 -31.5q-17 -10 -33 -3.5t-29 28.5t-11.5 41.5t17.5 32.5q60 50 108.5 70.5t91.5 20.5z" />
    <glyph glyph-name="ntilde" unicode="&#xf1;" 
d="M411 924q34 0 46 -15t5 -53l-21 -120q85 103 179 156.5t193 53.5q60 0 107.5 -18.5t80 -52.5t50 -82t17.5 -107q0 -38 -7 -76l-84 -474h82q34 0 46 -15t5 -53q-6 -38 -23 -53t-51 -15h-169q-34 0 -46.5 15t-5.5 53l95 537q2 14 3.5 27.5t1.5 26.5q0 64 -32 101.5
t-101 37.5q-64 0 -127.5 -31t-117 -85t-92.5 -126t-53 -154l-61 -347q-6 -35 -25 -50t-61 -15t-56 15t-8 50l129 733h-102q-34 0 -45.5 15t-5.5 53q7 38 24 53t51 15h179zM593 1297q37 0 71 -10t67 -21.5t65 -21.5t66 -10q30 0 65 10.5t70 31.5q17 10 33 3.5t29 -28.5
t11.5 -41.5t-17.5 -32.5q-60 -50 -108.5 -70.5t-91.5 -20.5q-37 0 -71 10t-67 21.5t-65 21.5t-66 10q-30 0 -65 -10.5t-70 -31.5q-17 -10 -33 -3.5t-29 28.5t-11.5 41.5t17.5 32.5q60 50 108.5 70.5t91.5 20.5z" />
    <glyph glyph-name="Ntilde" unicode="&#xd1;" 
d="M325 1051h-77q-34 0 -46 15t-5 53t24 53t51 15h224q42 0 52 -28l322 -861l133 753h-117q-34 0 -46 15t-5 53t24 53t51 15h324q34 0 46 -15t5 -53t-24 -53t-51 -15h-57l-179 -1014q-5 -26 -25.5 -42.5t-59.5 -16.5q-55 0 -75 55l-353 940l-148 -837h137q34 0 46 -15t5 -53
q-6 -38 -23 -53t-51 -15h-354q-34 0 -46 15t-6 53q7 38 24 53t51 15h67zM649 1557q37 0 71 -10t67 -21.5t65 -21.5t66 -10q30 0 65 10.5t70 31.5q17 10 33 3.5t29 -28.5t11.5 -41.5t-17.5 -32.5q-60 -50 -108.5 -70.5t-91.5 -20.5q-37 0 -71 10t-67 21.5t-65 21.5t-66 10
q-30 0 -65 -10.5t-70 -31.5q-17 -10 -33 -3.5t-29 28.5t-11.5 41.5t17.5 32.5q60 50 108.5 70.5t91.5 20.5z" />
    <glyph glyph-name="Atilde" unicode="&#xc3;" 
d="M360 136q34 0 46 -15t5 -53q-6 -38 -23 -53t-51 -15h-334q-34 0 -46 15t-6 53q7 38 24 53t51 15h53l493 915h-184q-34 0 -46 15t-5 53t24 53t51 15h364q40 0 61.5 -15t27.5 -50l179 -986h64q34 0 46 -15t5 -53q-6 -38 -23 -53t-51 -15h-354q-34 0 -46 15t-6 53
q7 38 24 53t51 15h140l-40 238h-485l-125 -238h116zM440 510h392l-90 541h-19zM589 1557q37 0 71 -10t67 -21.5t65 -21.5t66 -10q30 0 65 10.5t70 31.5q17 10 33 3.5t29 -28.5t11.5 -41.5t-17.5 -32.5q-60 -50 -108.5 -70.5t-91.5 -20.5q-37 0 -71 10t-67 21.5t-65 21.5
t-66 10q-30 0 -65 -10.5t-70 -31.5q-17 -10 -33 -3.5t-29 28.5t-11.5 41.5t17.5 32.5q60 50 108.5 70.5t91.5 20.5z" />
    <glyph glyph-name="Otilde" unicode="&#xd5;" 
d="M1185 728q0 -90 -18.5 -181t-54.5 -174t-89 -155.5t-123 -125.5t-156.5 -83.5t-188.5 -30.5t-184 34t-140 97t-89 151.5t-31 197.5q0 90 18.5 181t54.5 174.5t89.5 155.5t123.5 125.5t156.5 84t188.5 30.5t184 -34.5t139.5 -97.5t88.5 -151.5t31 -197.5zM1028 722
q0 79 -20 142t-58.5 106.5t-93.5 67t-125 23.5q-76 0 -139.5 -25t-115 -68.5t-90.5 -102t-65 -124.5t-39.5 -137t-13.5 -139q0 -80 20.5 -142.5t58.5 -106.5t93.5 -67t125.5 -23q75 0 139 25t115 68.5t90 102t65.5 124.5t39.5 137t13 139zM649 1557q37 0 71 -10t67 -21.5
t65 -21.5t66 -10q30 0 65 10.5t70 31.5q17 10 33 3.5t29 -28.5t11.5 -41.5t-17.5 -32.5q-60 -50 -108.5 -70.5t-91.5 -20.5q-37 0 -71 10t-67 21.5t-65 21.5t-66 10q-30 0 -65 -10.5t-70 -31.5q-17 -10 -33 -3.5t-29 28.5t-11.5 41.5t17.5 32.5q60 50 108.5 70.5t91.5 20.5z
" />
    <glyph glyph-name="plusminus" unicode="&#xb1;" 
d="M281 674q-34 0 -45.5 15t-5.5 53q7 38 24 53t51 15h313l45 253q6 34 23.5 48.5t55.5 14.5t50.5 -14.5t6.5 -48.5l-45 -253h313q34 0 46 -15t5 -53q-6 -38 -23.5 -53t-51.5 -15h-313l-44 -253q-6 -34 -23.5 -48.5t-55.5 -14.5t-50.5 14.5t-6.5 48.5l44 253h-313zM969 250
q34 0 45.5 -15t5.5 -53q-7 -38 -24 -53t-51 -15h-762q-34 0 -46 15t-5 53q6 38 23.5 53t51.5 15h762z" />
    <glyph glyph-name="lessequal" unicode="&#x2264;" 
d="M969 250q34 0 45.5 -15t5.5 -53q-7 -38 -24 -53t-51 -15h-762q-34 0 -46 15t-5 53q6 38 23.5 53t51.5 15h762zM457 747l562 -228q31 -13 39 -31.5t-9 -56.5q-16 -37 -33.5 -47t-46.5 2l-697 294q-23 10 -33.5 27.5t-5.5 47.5t22 47.5t44 27.5l783 288q34 12 53 3.5
t32 -45.5q14 -38 1.5 -59.5t-47.5 -33.5z" />
    <glyph glyph-name="greaterequal" unicode="&#x2265;" 
d="M969 250q34 0 45.5 -15t5.5 -53q-7 -38 -24 -53t-51 -15h-762q-34 0 -46 15t-5 53q6 38 23.5 53t51.5 15h762zM897 763l-562 228q-31 13 -39 31.5t9 56.5q16 37 33.5 47t46.5 -2l697 -294q23 -10 33.5 -27.5t5.5 -47.5t-22 -47.5t-44 -27.5l-783 -288q-34 -12 -53 -3.5
t-32 45.5q-14 38 -1.5 59.5t47.5 33.5z" />
    <glyph glyph-name="yen" unicode="&#xa5;" 
d="M551 510l-77 174h-211q-34 0 -46 15t-5 53t24 53t51 15h127l-102 231h-74q-34 0 -46 15t-5 53t24 53t51 15h334q34 0 46 -15t5 -53t-24 -53t-51 -15h-97l178 -409l324 409h-61q-34 0 -46 15t-5 53t24 53t51 15h304q34 0 46 -15t5 -53t-24 -53t-51 -15h-64l-185 -231h118
q34 0 46 -15t5 -53t-24 -53t-51 -15h-203l-139 -174h291q34 0 46 -15t5 -53q-6 -38 -23.5 -53t-51.5 -15h-306l-42 -238h236q34 0 46 -15t5 -53q-6 -38 -23 -53t-51 -15h-602q-34 0 -46 15t-6 53q7 38 24 53t51 15h216l42 238h-306q-34 0 -45.5 15t-5.5 53q7 38 24 53t51 15
h299z" />
    <glyph glyph-name="yacute" unicode="&#xfd;" 
d="M1207 924q34 0 46 -15t5 -53q-6 -38 -23.5 -53t-51.5 -15h-59l-556 -838q-65 -99 -122 -167t-116 -110.5t-125 -63t-149 -23.5q-30 -1 -50.5 13t-20.5 54q0 44 17.5 63t44.5 21q70 4 121.5 19.5t99 53.5t98 102.5t118.5 165.5l-237 710h-66q-34 0 -45.5 15t-5.5 53
q7 38 24 53t51 15h354q34 0 46 -15t5 -53q-6 -38 -23.5 -53t-51.5 -15h-132l183 -562l368 562h-85q-34 0 -45.5 15t-5.5 53q7 38 24 53t51 15h314zM968 1363q13 7 24.5 10t23 -2t24.5 -19.5t29 -42.5q15 -27 20.5 -45.5t4.5 -31t-8 -20t-17 -10.5l-481 -163
q-19 -6 -33.5 4.5t-21.5 27.5t-2.5 34.5t21.5 27.5z" />
    <glyph glyph-name="Delta" unicode="&#x2206;" 
d="M642 1144q19 36 47 50.5t68 14.5t61.5 -15t27.5 -50l168 -1008h84q34 0 46 -15t5 -53q-6 -38 -23 -53t-51 -15h-1062q-34 0 -46 15t-6 53q7 38 24 53t51 15h77zM863 136l-134 886l-452 -886h586z" />
    <glyph glyph-name="minus" unicode="&#x2212;" 
d="M1039 650q34 0 46 -15t5 -53t-24 -53t-51 -15h-762q-34 0 -46 15t-5 53t24 53t51 15h762z" />
    <glyph glyph-name="uni00A0" unicode="&#xa0;" 
 />
    <glyph glyph-name="periodcentered" unicode="&#xb7;" 
d="M621 413q-32 0 -58.5 11.5t-46 31t-30.5 46.5t-11 57q0 40 16.5 75t44.5 61t63 41t73 15q32 0 58.5 -11.5t46 -31t30 -45.5t10.5 -56q0 -40 -16.5 -75.5t-43.5 -61.5t-62.5 -41.5t-73.5 -15.5z" />
    <glyph glyph-name="macron" unicode="&#xaf;" 
d="M1044 1246q34 0 46 -15t5 -53t-24 -53t-51 -15h-562q-34 0 -46 15t-5 53t24 53t51 15h562z" />
    <glyph glyph-name="multiply" unicode="&#xd7;" 
d="M653 678l297 252q26 22 47 20t45 -31t23 -50t-27 -43l-296 -252l222 -259q22 -26 20 -47t-31 -45t-50 -23t-43 27l-222 259l-297 -252q-26 -22 -47 -20t-45 31t-23 50t27 43l296 252l-221 259q-22 26 -20 47t31 45t50 23t43 -27z" />
    <glyph glyph-name="commaaccent" unicode="&#xf6c3;" 
d="M425 -488q-11 -17 -31 -27t-43 -10q-28 0 -39.5 15t-1.5 41l110 291q6 16 18.5 24t29.5 8h142q20 0 23.5 -15t-10.5 -36z" />
    <glyph glyph-name="Abreve" unicode="&#x102;" 
d="M360 136q34 0 46 -15t5 -53q-6 -38 -23 -53t-51 -15h-334q-34 0 -46 15t-6 53q7 38 24 53t51 15h53l493 915h-184q-34 0 -46 15t-5 53t24 53t51 15h364q40 0 61.5 -15t27.5 -50l179 -986h64q34 0 46 -15t5 -53q-6 -38 -23 -53t-51 -15h-354q-34 0 -46 15t-6 53
q7 38 24 53t51 15h140l-40 238h-485l-125 -238h116zM440 510h392l-90 541h-19zM746 1485q103 0 172 27.5t115 95.5q12 17 35 19.5t43 -5.5q19 -8 30 -22t3 -32q-43 -104 -148 -165.5t-261 -61.5q-78 0 -139.5 16t-105.5 45.5t-69.5 71.5t-30.5 94q-2 19 11.5 33t31.5 21
q19 8 37.5 5t24.5 -19q26 -68 87 -95.5t164 -27.5z" />
    <glyph glyph-name="Amacron" unicode="&#x100;" 
d="M360 136q34 0 46 -15t5 -53q-6 -38 -23 -53t-51 -15h-334q-34 0 -46 15t-6 53q7 38 24 53t51 15h53l493 915h-184q-34 0 -46 15t-5 53t24 53t51 15h364q40 0 61.5 -15t27.5 -50l179 -986h64q34 0 46 -15t5 -53q-6 -38 -23 -53t-51 -15h-354q-34 0 -46 15t-6 53
q7 38 24 53t51 15h140l-40 238h-485l-125 -238h116zM440 510h392l-90 541h-19zM1024 1516q34 0 46 -15t5 -53t-24 -53t-51 -15h-562q-34 0 -46 15t-5 53t24 53t51 15h562z" />
    <glyph glyph-name="Aogonek" unicode="&#x104;" 
d="M884 -336q29 0 56.5 2.5t54.5 7.5q40 6 47 -48q4 -28 -4.5 -44.5t-31.5 -24.5q-37 -13 -84 -21t-95 -8q-81 0 -124.5 45t-43.5 117q0 83 53 158.5t151 151.5h-132q-34 0 -46 15t-6 53q7 38 24 53t51 15h140l-40 238h-485l-125 -238h116q34 0 46 -15t5 -53q-6 -38 -23 -53
t-51 -15h-334q-34 0 -46 15t-6 53q7 38 24 53t51 15h53l493 915h-184q-34 0 -46 15t-5 53t24 53t51 15h364q40 0 61.5 -15t27.5 -50l179 -986h64q34 0 46 -15t5 -53q-6 -38 -23 -53t-51 -15h-50q-112 -88 -164 -155.5t-52 -121.5q0 -29 17.5 -44t47.5 -15zM440 510h392
l-90 541h-19z" />
    <glyph glyph-name="Cacute" unicode="&#x106;" 
d="M997 814q9 49 0 94t-37 79t-77.5 54t-121.5 20t-134.5 -24t-114 -66t-91.5 -99.5t-67.5 -124t-41.5 -140t-14 -146.5q0 -79 19.5 -141t56.5 -105t90.5 -66t121.5 -23q100 0 194 31t176 85q23 15 47 7.5t42 -42.5q17 -35 12.5 -59t-34.5 -42q-107 -63 -219.5 -95.5
t-228.5 -32.5q-101 0 -182 34t-137 96t-86 149.5t-30 195.5q0 97 20 190.5t58 177.5t93.5 155t125.5 123t154.5 81t180.5 29q99 0 166.5 -34.5t105.5 -94.5l11 64q6 35 25.5 50t61.5 15t55.5 -15t7.5 -50l-58 -330q-6 -35 -25 -50t-61 -15t-56 15t-8 50zM1010 1633
q13 7 24.5 10t23 -2t24.5 -19.5t29 -42.5q15 -27 20.5 -45.5t4.5 -31t-8 -20t-17 -10.5l-481 -163q-19 -6 -33.5 4.5t-21.5 27.5t-2.5 34.5t21.5 27.5z" />
    <glyph glyph-name="Ccaron" unicode="&#x10c;" 
d="M997 814q9 49 0 94t-37 79t-77.5 54t-121.5 20t-134.5 -24t-114 -66t-91.5 -99.5t-67.5 -124t-41.5 -140t-14 -146.5q0 -79 19.5 -141t56.5 -105t90.5 -66t121.5 -23q100 0 194 31t176 85q23 15 47 7.5t42 -42.5q17 -35 12.5 -59t-34.5 -42q-107 -63 -219.5 -95.5
t-228.5 -32.5q-101 0 -182 34t-137 96t-86 149.5t-30 195.5q0 97 20 190.5t58 177.5t93.5 155t125.5 123t154.5 81t180.5 29q99 0 166.5 -34.5t105.5 -94.5l11 64q6 35 25.5 50t61.5 15t55.5 -15t7.5 -50l-58 -330q-6 -35 -25 -50t-61 -15t-56 15t-8 50zM1105 1644
q20 10 36.5 2t24.5 -24t5.5 -34t-19.5 -31l-308 -232q-26 -18 -58 -18q-33 0 -52 18l-246 232q-13 13 -11.5 31.5t11.5 34.5q11 16 27 24t32 -3l252 -159z" />
    <glyph glyph-name="Ccircumflex" unicode="&#x108;" 
d="M997 814q9 49 0 94t-37 79t-77.5 54t-121.5 20t-134.5 -24t-114 -66t-91.5 -99.5t-67.5 -124t-41.5 -140t-14 -146.5q0 -79 19.5 -141t56.5 -105t90.5 -66t121.5 -23q100 0 194 31t176 85q23 15 47 7.5t42 -42.5q17 -35 12.5 -59t-34.5 -42q-107 -63 -219.5 -95.5
t-228.5 -32.5q-101 0 -182 34t-137 96t-86 149.5t-30 195.5q0 97 20 190.5t58 177.5t93.5 155t125.5 123t154.5 81t180.5 29q99 0 166.5 -34.5t105.5 -94.5l11 64q6 35 25.5 50t61.5 15t55.5 -15t7.5 -50l-58 -330q-6 -35 -25 -50t-61 -15t-56 15t-8 50zM517 1309
q-20 -10 -36.5 -2t-24.5 24t-5.5 34t19.5 31l308 232q25 18 58 18q32 0 52 -18l246 -232q13 -13 11.5 -31.5t-11.5 -34.5q-11 -16 -27 -24t-32 3l-252 159z" />
    <glyph glyph-name="Cdotaccent" unicode="&#x10a;" 
d="M997 814q9 49 0 94t-37 79t-77.5 54t-121.5 20t-134.5 -24t-114 -66t-91.5 -99.5t-67.5 -124t-41.5 -140t-14 -146.5q0 -79 19.5 -141t56.5 -105t90.5 -66t121.5 -23q100 0 194 31t176 85q23 15 47 7.5t42 -42.5q17 -35 12.5 -59t-34.5 -42q-107 -63 -219.5 -95.5
t-228.5 -32.5q-101 0 -182 34t-137 96t-86 149.5t-30 195.5q0 97 20 190.5t58 177.5t93.5 155t125.5 123t154.5 81t180.5 29q99 0 166.5 -34.5t105.5 -94.5l11 64q6 35 25.5 50t61.5 15t55.5 -15t7.5 -50l-58 -330q-6 -35 -25 -50t-61 -15t-56 15t-8 50zM777 1349
q-27 0 -49 9.5t-38.5 26t-25.5 38.5t-9 47q0 33 14 62.5t37 51.5t52.5 34.5t61.5 12.5q27 0 49 -9.5t38 -26t25 -38.5t9 -46q0 -34 -13.5 -63.5t-36.5 -51.5t-52.5 -34.5t-61.5 -12.5z" />
    <glyph glyph-name="Dcaron" unicode="&#x10e;" 
d="M370 1051h-112q-34 0 -46 15t-5 53t24 53t51 15h456q102 0 185 -32t141 -92t89.5 -145.5t31.5 -193.5q0 -69 -14 -149.5t-44.5 -161t-79.5 -155t-118.5 -132t-161 -92t-208.5 -34.5h-486q-34 0 -46 15t-6 53q7 38 24 53t51 15h112zM544 136q90 0 161 27t124.5 72.5
t91.5 105t61.5 124.5t34.5 130.5t11 123.5q0 163 -85.5 247.5t-236.5 84.5h-186l-162 -915h186zM1055 1634q20 10 36.5 2t24.5 -24t5.5 -34t-19.5 -31l-308 -232q-26 -18 -58 -18q-33 0 -52 18l-246 232q-13 13 -11.5 31.5t11.5 34.5q11 16 27 24t32 -3l252 -159z" />
    <glyph glyph-name="Dcroat" unicode="&#x110;" 
d="M370 1051h-112q-34 0 -46 15t-5 53t24 53t51 15h456q102 0 185 -32t141 -92t89.5 -145.5t31.5 -193.5q0 -69 -14 -149.5t-44.5 -161t-79.5 -155t-118.5 -132t-161 -92t-208.5 -34.5h-486q-34 0 -46 15t-6 53q7 38 24 53t51 15h112zM544 136q90 0 161 27t124.5 72.5
t91.5 105t61.5 124.5t34.5 130.5t11 123.5q0 163 -85.5 247.5t-236.5 84.5h-186l-162 -915h186zM1054 1516q34 0 46 -15t5 -53t-24 -53t-51 -15h-562q-34 0 -46 15t-5 53t24 53t51 15h562z" />
    <glyph glyph-name="Ebreve" unicode="&#x114;" 
d="M360 1051h-102q-34 0 -46 15t-5 53t24 53t51 15h874q34 0 46 -15t5 -53l-45 -254q-6 -35 -25 -50t-61 -15t-56 15t-8 50l33 186h-535l-66 -371h250l16 91q7 35 26 50t61 15t56 -15t7 -50l-56 -318q-6 -35 -25 -50t-61 -15t-56 15t-8 50l16 91h-250l-72 -408h555l41 229
q6 35 25 50t61 15t56 -15t8 -50l-53 -297q-6 -38 -23 -53t-51 -15h-894q-34 0 -46 15t-6 53q7 38 24 53t51 15h102zM776 1485q103 0 172 27.5t115 95.5q12 17 35 19.5t43 -5.5q19 -8 30 -22t3 -32q-43 -104 -148 -165.5t-261 -61.5q-78 0 -139.5 16t-105.5 45.5t-69.5 71.5
t-30.5 94q-2 19 11.5 33t31.5 21q19 8 37.5 5t24.5 -19q26 -68 87 -95.5t164 -27.5z" />
    <glyph glyph-name="Ecaron" unicode="&#x11a;" 
d="M360 1051h-102q-34 0 -46 15t-5 53t24 53t51 15h874q34 0 46 -15t5 -53l-45 -254q-6 -35 -25 -50t-61 -15t-56 15t-8 50l33 186h-535l-66 -371h250l16 91q7 35 26 50t61 15t56 -15t7 -50l-56 -318q-6 -35 -25 -50t-61 -15t-56 15t-8 50l16 91h-250l-72 -408h555l41 229
q6 35 25 50t61 15t56 -15t8 -50l-53 -297q-6 -38 -23 -53t-51 -15h-894q-34 0 -46 15t-6 53q7 38 24 53t51 15h102zM1075 1634q20 10 36.5 2t24.5 -24t5.5 -34t-19.5 -31l-308 -232q-26 -18 -58 -18q-33 0 -52 18l-246 232q-13 13 -11.5 31.5t11.5 34.5q11 16 27 24t32 -3
l252 -159z" />
    <glyph glyph-name="Edotaccent" unicode="&#x116;" 
d="M360 1051h-102q-34 0 -46 15t-5 53t24 53t51 15h874q34 0 46 -15t5 -53l-45 -254q-6 -35 -25 -50t-61 -15t-56 15t-8 50l33 186h-535l-66 -371h250l16 91q7 35 26 50t61 15t56 -15t7 -50l-56 -318q-6 -35 -25 -50t-61 -15t-56 15t-8 50l16 91h-250l-72 -408h555l41 229
q6 35 25 50t61 15t56 -15t8 -50l-53 -297q-6 -38 -23 -53t-51 -15h-894q-34 0 -46 15t-6 53q7 38 24 53t51 15h102zM757 1349q-27 0 -49 9.5t-38.5 26t-25.5 38.5t-9 47q0 33 14 62.5t37 51.5t52.5 34.5t61.5 12.5q27 0 49 -9.5t38 -26t25 -38.5t9 -46q0 -34 -13.5 -63.5
t-36.5 -51.5t-52.5 -34.5t-61.5 -12.5z" />
    <glyph glyph-name="Emacron" unicode="&#x112;" 
d="M360 1051h-102q-34 0 -46 15t-5 53t24 53t51 15h874q34 0 46 -15t5 -53l-45 -254q-6 -35 -25 -50t-61 -15t-56 15t-8 50l33 186h-535l-66 -371h250l16 91q7 35 26 50t61 15t56 -15t7 -50l-56 -318q-6 -35 -25 -50t-61 -15t-56 15t-8 50l16 91h-250l-72 -408h555l41 229
q6 35 25 50t61 15t56 -15t8 -50l-53 -297q-6 -38 -23 -53t-51 -15h-894q-34 0 -46 15t-6 53q7 38 24 53t51 15h102zM1094 1516q34 0 46 -15t5 -53t-24 -53t-51 -15h-562q-34 0 -46 15t-5 53t24 53t51 15h562z" />
    <glyph glyph-name="Eogonek" unicode="&#x118;" 
d="M804 -336q29 0 56.5 2.5t54.5 7.5q40 6 47 -48q4 -28 -4.5 -44.5t-31.5 -24.5q-37 -13 -84 -21t-95 -8q-81 0 -124.5 45t-43.5 117q0 83 53 158.5t151 151.5h-710q-34 0 -46 15t-6 53q7 38 24 53t51 15h102l162 915h-102q-34 0 -46 15t-5 53t24 53t51 15h874q34 0 46 -15
t5 -53l-45 -254q-6 -35 -25 -50t-61 -15t-56 15t-8 50l33 186h-535l-66 -371h250l16 91q7 35 26 50t61 15t56 -15t7 -50l-56 -318q-6 -35 -25 -50t-61 -15t-56 15t-8 50l16 91h-250l-72 -408h555l41 229q6 35 25 50t61 15t56 -15t8 -50l-53 -297q-6 -38 -23 -53t-51 -15h-12
q-112 -88 -164 -155.5t-52 -121.5q0 -29 17.5 -44t47.5 -15z" />
    <glyph glyph-name="Gbreve" unicode="&#x11e;" 
d="M678 410q-34 0 -46 15t-5 53t24 53t51 15h429q34 0 46 -15t5 -53t-24 -53t-51 -15h-32l-49 -276q-5 -24 -17 -42t-31 -27q-91 -45 -195 -66t-218 -21q-102 0 -184 34.5t-140 97.5t-89 152t-31 198q0 96 21 189t60 176.5t95.5 153.5t127.5 121.5t156 80t181 28.5
q99 0 166 -32.5t106 -86.5l9 54q6 35 25.5 50t61.5 15t55.5 -15t7.5 -50l-51 -290q-6 -35 -25 -50t-61 -15t-56 15t-8 50q8 45 -3.5 83t-42 65.5t-79.5 43t-116 15.5q-76 0 -141 -25t-117.5 -67.5t-92.5 -100.5t-67 -124.5t-41 -137.5t-14 -141q0 -80 20.5 -142.5
t58.5 -106.5t93.5 -67t125.5 -23q85 0 161.5 13.5t147.5 43.5l40 227h-247zM776 1485q103 0 172 27.5t115 95.5q12 17 35 19.5t43 -5.5q19 -8 30 -22t3 -32q-43 -104 -148 -165.5t-261 -61.5q-78 0 -139.5 16t-105.5 45.5t-69.5 71.5t-30.5 94q-2 19 11.5 33t31.5 21
q19 8 37.5 5t24.5 -19q26 -68 87 -95.5t164 -27.5z" />
    <glyph glyph-name="Gcircumflex" unicode="&#x11c;" 
d="M678 410q-34 0 -46 15t-5 53t24 53t51 15h429q34 0 46 -15t5 -53t-24 -53t-51 -15h-32l-49 -276q-5 -24 -17 -42t-31 -27q-91 -45 -195 -66t-218 -21q-102 0 -184 34.5t-140 97.5t-89 152t-31 198q0 96 21 189t60 176.5t95.5 153.5t127.5 121.5t156 80t181 28.5
q99 0 166 -32.5t106 -86.5l9 54q6 35 25.5 50t61.5 15t55.5 -15t7.5 -50l-51 -290q-6 -35 -25 -50t-61 -15t-56 15t-8 50q8 45 -3.5 83t-42 65.5t-79.5 43t-116 15.5q-76 0 -141 -25t-117.5 -67.5t-92.5 -100.5t-67 -124.5t-41 -137.5t-14 -141q0 -80 20.5 -142.5
t58.5 -106.5t93.5 -67t125.5 -23q85 0 161.5 13.5t147.5 43.5l40 227h-247zM497 1309q-20 -10 -36.5 -2t-24.5 24t-5.5 34t19.5 31l308 232q25 18 58 18q32 0 52 -18l246 -232q13 -13 11.5 -31.5t-11.5 -34.5q-11 -16 -27 -24t-32 3l-252 159z" />
    <glyph glyph-name="Gcommaaccent" unicode="&#x122;" 
d="M678 410q-34 0 -46 15t-5 53t24 53t51 15h429q34 0 46 -15t5 -53t-24 -53t-51 -15h-32l-49 -276q-5 -24 -17 -42t-31 -27q-91 -45 -195 -66t-218 -21q-102 0 -184 34.5t-140 97.5t-89 152t-31 198q0 96 21 189t60 176.5t95.5 153.5t127.5 121.5t156 80t181 28.5
q99 0 166 -32.5t106 -86.5l9 54q6 35 25.5 50t61.5 15t55.5 -15t7.5 -50l-51 -290q-6 -35 -25 -50t-61 -15t-56 15t-8 50q8 45 -3.5 83t-42 65.5t-79.5 43t-116 15.5q-76 0 -141 -25t-117.5 -67.5t-92.5 -100.5t-67 -124.5t-41 -137.5t-14 -141q0 -80 20.5 -142.5
t58.5 -106.5t93.5 -67t125.5 -23q85 0 161.5 13.5t147.5 43.5l40 227h-247zM445 -488q-11 -17 -31 -27t-43 -10q-28 0 -39.5 15t-1.5 41l110 291q6 16 18.5 24t29.5 8h142q20 0 23.5 -15t-10.5 -36z" />
    <glyph glyph-name="Gdotaccent" unicode="&#x120;" 
d="M678 410q-34 0 -46 15t-5 53t24 53t51 15h429q34 0 46 -15t5 -53t-24 -53t-51 -15h-32l-49 -276q-5 -24 -17 -42t-31 -27q-91 -45 -195 -66t-218 -21q-102 0 -184 34.5t-140 97.5t-89 152t-31 198q0 96 21 189t60 176.5t95.5 153.5t127.5 121.5t156 80t181 28.5
q99 0 166 -32.5t106 -86.5l9 54q6 35 25.5 50t61.5 15t55.5 -15t7.5 -50l-51 -290q-6 -35 -25 -50t-61 -15t-56 15t-8 50q8 45 -3.5 83t-42 65.5t-79.5 43t-116 15.5q-76 0 -141 -25t-117.5 -67.5t-92.5 -100.5t-67 -124.5t-41 -137.5t-14 -141q0 -80 20.5 -142.5
t58.5 -106.5t93.5 -67t125.5 -23q85 0 161.5 13.5t147.5 43.5l40 227h-247zM757 1349q-27 0 -49 9.5t-38.5 26t-25.5 38.5t-9 47q0 33 14 62.5t37 51.5t52.5 34.5t61.5 12.5q27 0 49 -9.5t38 -26t25 -38.5t9 -46q0 -34 -13.5 -63.5t-36.5 -51.5t-52.5 -34.5t-61.5 -12.5z
" />
    <glyph glyph-name="Hbar" unicode="&#x126;" 
d="M283 788h-122q-34 0 -45.5 15t-5.5 53q7 38 24 53t51 15h122l23 127h-72q-34 0 -46 15t-5 53t24 53t51 15h314q34 0 46 -15t5 -53t-24 -53t-51 -15h-92l-23 -127h498l23 127h-92q-34 0 -46 15t-5 53t24 53t51 15h314q34 0 46 -15t5 -53t-24 -53t-51 -15h-72l-23 -127h122
q34 0 46 -15t5 -53q-6 -38 -23.5 -53t-51.5 -15h-122l-115 -652h72q34 0 46 -15t5 -53q-6 -38 -23 -53t-51 -15h-314q-34 0 -46 15t-6 53q7 38 24 53t51 15h92l72 408h-498l-72 -408h92q34 0 46 -15t5 -53q-6 -38 -23 -53t-51 -15h-314q-34 0 -46 15t-6 53q7 38 24 53t51 15
h72zM912 680l19 108h-498l-19 -108h498z" />
    <glyph glyph-name="Hcircumflex" unicode="&#x124;" 
d="M330 1051h-72q-34 0 -46 15t-5 53t24 53t51 15h314q34 0 46 -15t5 -53t-24 -53t-51 -15h-92l-66 -371h498l66 371h-92q-34 0 -46 15t-5 53t24 53t51 15h314q34 0 46 -15t5 -53t-24 -53t-51 -15h-72l-162 -915h72q34 0 46 -15t5 -53q-6 -38 -23 -53t-51 -15h-314
q-34 0 -46 15t-6 53q7 38 24 53t51 15h92l72 408h-498l-72 -408h92q34 0 46 -15t5 -53q-6 -38 -23 -53t-51 -15h-314q-34 0 -46 15t-6 53q7 38 24 53t51 15h72zM487 1309q-20 -10 -36.5 -2t-24.5 24t-5.5 34t19.5 31l308 232q25 18 58 18q32 0 52 -18l246 -232
q13 -13 11.5 -31.5t-11.5 -34.5q-11 -16 -27 -24t-32 3l-252 159z" />
    <glyph glyph-name="Ibreve" unicode="&#x12c;" 
d="M654 1051h-266q-34 0 -46 15t-5 53t24 53t51 15h662q34 0 46 -15t5 -53t-24 -53t-51 -15h-246l-162 -915h286q34 0 46 -15t5 -53q-6 -38 -23 -53t-51 -15h-702q-34 0 -46 15t-6 53q7 38 24 53t51 15h266zM776 1485q103 0 172 27.5t115 95.5q12 17 35 19.5t43 -5.5
q19 -8 30 -22t3 -32q-43 -104 -148 -165.5t-261 -61.5q-78 0 -139.5 16t-105.5 45.5t-69.5 71.5t-30.5 94q-2 19 11.5 33t31.5 21q19 8 37.5 5t24.5 -19q26 -68 87 -95.5t164 -27.5z" />
    <glyph glyph-name="Idotaccent" unicode="&#x130;" 
d="M654 1051h-266q-34 0 -46 15t-5 53t24 53t51 15h662q34 0 46 -15t5 -53t-24 -53t-51 -15h-246l-162 -915h286q34 0 46 -15t5 -53q-6 -38 -23 -53t-51 -15h-702q-34 0 -46 15t-6 53q7 38 24 53t51 15h266zM767 1349q-27 0 -49 9.5t-38.5 26t-25.5 38.5t-9 47q0 33 14 62.5
t37 51.5t52.5 34.5t61.5 12.5q27 0 49 -9.5t38 -26t25 -38.5t9 -46q0 -34 -13.5 -63.5t-36.5 -51.5t-52.5 -34.5t-61.5 -12.5z" />
    <glyph glyph-name="Imacron" unicode="&#x12a;" 
d="M654 1051h-266q-34 0 -46 15t-5 53t24 53t51 15h662q34 0 46 -15t5 -53t-24 -53t-51 -15h-246l-162 -915h286q34 0 46 -15t5 -53q-6 -38 -23 -53t-51 -15h-702q-34 0 -46 15t-6 53q7 38 24 53t51 15h266zM1069 1516q34 0 46 -15t5 -53t-24 -53t-51 -15h-562q-34 0 -46 15
t-5 53t24 53t51 15h562z" />
    <glyph glyph-name="Iogonek" unicode="&#x12e;" 
d="M474 -336q29 0 56.5 2.5t54.5 7.5q40 6 47 -48q4 -28 -4.5 -44.5t-31.5 -24.5q-37 -13 -84 -21t-95 -8q-81 0 -124.5 45t-43.5 117q0 83 53 158.5t151 151.5h-250q-34 0 -46 15t-6 53q7 38 24 53t51 15h266l162 915h-266q-34 0 -46 15t-5 53t24 53t51 15h662q34 0 46 -15
t5 -53t-24 -53t-51 -15h-246l-162 -915h286q34 0 46 -15t5 -53q-6 -38 -23 -53t-51 -15h-280q-112 -88 -164 -155.5t-52 -121.5q0 -29 17.5 -44t47.5 -15z" />
    <glyph glyph-name="Itilde" unicode="&#x128;" 
d="M654 1051h-266q-34 0 -46 15t-5 53t24 53t51 15h662q34 0 46 -15t5 -53t-24 -53t-51 -15h-246l-162 -915h286q34 0 46 -15t5 -53q-6 -38 -23 -53t-51 -15h-702q-34 0 -46 15t-6 53q7 38 24 53t51 15h266zM643 1557q37 0 71 -10t67 -21.5t65 -21.5t66 -10q30 0 65 10.5
t70 31.5q17 10 33 3.5t29 -28.5t11.5 -41.5t-17.5 -32.5q-60 -50 -108.5 -70.5t-91.5 -20.5q-37 0 -71 10t-67 21.5t-65 21.5t-66 10q-30 0 -65 -10.5t-70 -31.5q-17 -10 -33 -3.5t-29 28.5t-11.5 41.5t17.5 32.5q60 50 108.5 70.5t91.5 20.5z" />
    <glyph glyph-name="Jcircumflex" unicode="&#x134;" 
d="M518 1051q-34 0 -46 15t-5 53t24 53t51 15h692q34 0 46 -15t5 -53t-24 -53t-51 -15h-201l-127 -718q-31 -177 -141 -266t-306 -89q-59 0 -112 12t-98 33t-80.5 50t-60.5 62q-13 19 -7 51l49 279q7 35 26 50t61 15t56 -15t7 -50l-46 -264q70 -75 217 -75q133 0 201.5 59
t89.5 178l121 688h-341zM637 1309q-20 -10 -36.5 -2t-24.5 24t-5.5 34t19.5 31l308 232q25 18 58 18q32 0 52 -18l246 -232q13 -13 11.5 -31.5t-11.5 -34.5q-11 -16 -27 -24t-32 3l-252 159z" />
    <glyph glyph-name="Kcommaaccent" unicode="&#x136;" 
d="M370 1051h-112q-34 0 -46 15t-5 53t24 53t51 15h354q34 0 46 -15t5 -53t-24 -53t-51 -15h-92l-73 -416l502 416h-63q-34 0 -46 15t-5 53t24 53t51 15h324q34 0 46 -15t5 -53t-24 -53t-51 -15h-52l-495 -405q69 5 119.5 -17t86.5 -82q22 -37 35.5 -82t23.5 -91t19 -89.5
t21 -76.5t30 -52.5t47 -19.5h33q34 0 46 -15t5 -53q-6 -38 -23 -53t-51 -15h-77q-45 0 -83.5 31t-64.5 108q-13 40 -22 83.5t-18 86t-19.5 81.5t-26.5 70q-18 35 -52 53.5t-82 18.5q-42 0 -84 -14.5t-78 -44.5l-35 -29l-55 -308h162q34 0 46 -15t5 -53q-6 -38 -23 -53
t-51 -15h-424q-34 0 -46 15t-6 53q7 38 24 53t51 15h112zM465 -488q-11 -17 -31 -27t-43 -10q-28 0 -39.5 15t-1.5 41l110 291q6 16 18.5 24t29.5 8h142q20 0 23.5 -15t-10.5 -36z" />
    <glyph glyph-name="Lacute" unicode="&#x139;" 
d="M420 1051h-162q-34 0 -46 15t-5 53t24 53t51 15h554q34 0 46 -15t5 -53t-24 -53t-51 -15h-242l-162 -915h495l58 329q7 35 26 50t61 15t56 -15t7 -50l-70 -397q-6 -38 -23 -53t-51 -15h-894q-34 0 -46 15t-6 53q7 38 24 53t51 15h162zM790 1633q13 7 24.5 10t23 -2
t24.5 -19.5t29 -42.5q15 -27 20.5 -45.5t4.5 -31t-8 -20t-17 -10.5l-481 -163q-19 -6 -33.5 4.5t-21.5 27.5t-2.5 34.5t21.5 27.5z" />
    <glyph glyph-name="Lcaron" unicode="&#x13d;" 
d="M420 1051h-162q-34 0 -46 15t-5 53t24 53t51 15h554q34 0 46 -15t5 -53t-24 -53t-51 -15h-242l-162 -915h495l58 329q7 35 26 50t61 15t56 -15t7 -50l-70 -397q-6 -38 -23 -53t-51 -15h-894q-34 0 -46 15t-6 53q7 38 24 53t51 15h162zM946.576 750.793
q-23.502 -34.8643 -68.0762 -34.8643q-28.3643 0 -40.1152 14.999q-11.752 15 -1.21582 40.9453l141.014 361.613q12.1562 32.4316 47.8154 32.4316h153.17q20.2607 0 24.3125 -15q4.05273 -15 -10.5352 -36.0801z" />
    <glyph glyph-name="Lcommaaccent" unicode="&#x13b;" 
d="M420 1051h-162q-34 0 -46 15t-5 53t24 53t51 15h554q34 0 46 -15t5 -53t-24 -53t-51 -15h-242l-162 -915h495l58 329q7 35 26 50t61 15t56 -15t7 -50l-70 -397q-6 -38 -23 -53t-51 -15h-894q-34 0 -46 15t-6 53q7 38 24 53t51 15h162zM445 -488q-11 -17 -31 -27t-43 -10
q-28 0 -39.5 15t-1.5 41l110 291q6 16 18.5 24t29.5 8h142q20 0 23.5 -15t-10.5 -36z" />
    <glyph glyph-name="Ldot" unicode="&#x13f;" 
d="M420 1051h-162q-34 0 -46 15t-5 53t24 53t51 15h554q34 0 46 -15t5 -53t-24 -53t-51 -15h-242l-162 -915h495l58 329q7 35 26 50t61 15t56 -15t7 -50l-70 -397q-6 -38 -23 -53t-51 -15h-894q-34 0 -46 15t-6 53q7 38 24 53t51 15h162zM778 569q-27 0 -49 9.5t-38.5 26
t-25.5 38.5t-9 47q0 33 14 62.5t37 51.5t52.5 34.5t61.5 12.5q27 0 49 -9.5t38 -26t25 -38.5t9 -46q0 -34 -13.5 -63.5t-36.5 -51.5t-52.5 -34.5t-61.5 -12.5z" />
    <glyph glyph-name="Nacute" unicode="&#x143;" 
d="M325 1051h-77q-34 0 -46 15t-5 53t24 53t51 15h224q42 0 52 -28l322 -861l133 753h-117q-34 0 -46 15t-5 53t24 53t51 15h324q34 0 46 -15t5 -53t-24 -53t-51 -15h-57l-179 -1014q-5 -26 -25.5 -42.5t-59.5 -16.5q-55 0 -75 55l-353 940l-148 -837h137q34 0 46 -15t5 -53
q-6 -38 -23 -53t-51 -15h-354q-34 0 -46 15t-6 53q7 38 24 53t51 15h67zM990 1633q13 7 24.5 10t23 -2t24.5 -19.5t29 -42.5q15 -27 20.5 -45.5t4.5 -31t-8 -20t-17 -10.5l-481 -163q-19 -6 -33.5 4.5t-21.5 27.5t-2.5 34.5t21.5 27.5z" />
    <glyph glyph-name="Ncaron" unicode="&#x147;" 
d="M325 1051h-77q-34 0 -46 15t-5 53t24 53t51 15h224q42 0 52 -28l322 -861l133 753h-117q-34 0 -46 15t-5 53t24 53t51 15h324q34 0 46 -15t5 -53t-24 -53t-51 -15h-57l-179 -1014q-5 -26 -25.5 -42.5t-59.5 -16.5q-55 0 -75 55l-353 940l-148 -837h137q34 0 46 -15t5 -53
q-6 -38 -23 -53t-51 -15h-354q-34 0 -46 15t-6 53q7 38 24 53t51 15h67zM1085 1634q20 10 36.5 2t24.5 -24t5.5 -34t-19.5 -31l-308 -232q-26 -18 -58 -18q-33 0 -52 18l-246 232q-13 13 -11.5 31.5t11.5 34.5q11 16 27 24t32 -3l252 -159z" />
    <glyph glyph-name="Ncommaaccent" unicode="&#x145;" 
d="M325 1051h-77q-34 0 -46 15t-5 53t24 53t51 15h224q42 0 52 -28l322 -861l133 753h-117q-34 0 -46 15t-5 53t24 53t51 15h324q34 0 46 -15t5 -53t-24 -53t-51 -15h-57l-179 -1014q-5 -26 -25.5 -42.5t-59.5 -16.5q-55 0 -75 55l-353 940l-148 -837h137q34 0 46 -15t5 -53
q-6 -38 -23 -53t-51 -15h-354q-34 0 -46 15t-6 53q7 38 24 53t51 15h67zM435 -488q-11 -17 -31 -27t-43 -10q-28 0 -39.5 15t-1.5 41l110 291q6 16 18.5 24t29.5 8h142q20 0 23.5 -15t-10.5 -36z" />
    <glyph glyph-name="Obreve" unicode="&#x14e;" 
d="M1185 728q0 -90 -18.5 -181t-54.5 -174t-89 -155.5t-123 -125.5t-156.5 -83.5t-188.5 -30.5t-184 34t-140 97t-89 151.5t-31 197.5q0 90 18.5 181t54.5 174.5t89.5 155.5t123.5 125.5t156.5 84t188.5 30.5t184 -34.5t139.5 -97.5t88.5 -151.5t31 -197.5zM1028 722
q0 79 -20 142t-58.5 106.5t-93.5 67t-125 23.5q-76 0 -139.5 -25t-115 -68.5t-90.5 -102t-65 -124.5t-39.5 -137t-13.5 -139q0 -80 20.5 -142.5t58.5 -106.5t93.5 -67t125.5 -23q75 0 139 25t115 68.5t90 102t65.5 124.5t39.5 137t13 139zM786 1485q103 0 172 27.5t115 95.5
q12 17 35 19.5t43 -5.5q19 -8 30 -22t3 -32q-43 -104 -148 -165.5t-261 -61.5q-78 0 -139.5 16t-105.5 45.5t-69.5 71.5t-30.5 94q-2 19 11.5 33t31.5 21q19 8 37.5 5t24.5 -19q26 -68 87 -95.5t164 -27.5z" />
    <glyph glyph-name="Ohungarumlaut" unicode="&#x150;" 
d="M1185 728q0 -90 -18.5 -181t-54.5 -174t-89 -155.5t-123 -125.5t-156.5 -83.5t-188.5 -30.5t-184 34t-140 97t-89 151.5t-31 197.5q0 90 18.5 181t54.5 174.5t89.5 155.5t123.5 125.5t156.5 84t188.5 30.5t184 -34.5t139.5 -97.5t88.5 -151.5t31 -197.5zM1028 722
q0 79 -20 142t-58.5 106.5t-93.5 67t-125 23.5q-76 0 -139.5 -25t-115 -68.5t-90.5 -102t-65 -124.5t-39.5 -137t-13.5 -139q0 -80 20.5 -142.5t58.5 -106.5t93.5 -67t125.5 -23q75 0 139 25t115 68.5t90 102t65.5 124.5t39.5 137t13 139zM955 1336q-18 -13 -42 -13
q-10 0 -20.5 3.5t-19.5 9.5t-15 15t-6 20q0 16 13 29l233 225q13 13 29 20.5t36 7.5q14 0 32 -6t33.5 -16.5t26 -24.5t10.5 -29q0 -12 -6 -22.5t-16 -17.5zM605 1336q-18 -13 -42 -13q-10 0 -20.5 3.5t-19.5 9.5t-15 15t-6 20q0 16 13 29l233 225q13 13 29 20.5t36 7.5
q14 0 32 -6t33.5 -16.5t26 -24.5t10.5 -29q0 -12 -6 -22.5t-16 -17.5z" />
    <glyph glyph-name="Omacron" unicode="&#x14c;" 
d="M1185 728q0 -90 -18.5 -181t-54.5 -174t-89 -155.5t-123 -125.5t-156.5 -83.5t-188.5 -30.5t-184 34t-140 97t-89 151.5t-31 197.5q0 90 18.5 181t54.5 174.5t89.5 155.5t123.5 125.5t156.5 84t188.5 30.5t184 -34.5t139.5 -97.5t88.5 -151.5t31 -197.5zM1028 722
q0 79 -20 142t-58.5 106.5t-93.5 67t-125 23.5q-76 0 -139.5 -25t-115 -68.5t-90.5 -102t-65 -124.5t-39.5 -137t-13.5 -139q0 -80 20.5 -142.5t58.5 -106.5t93.5 -67t125.5 -23q75 0 139 25t115 68.5t90 102t65.5 124.5t39.5 137t13 139zM1074 1516q34 0 46 -15t5 -53
t-24 -53t-51 -15h-562q-34 0 -46 15t-5 53t24 53t51 15h562z" />
    <glyph glyph-name="Racute" unicode="&#x154;" 
d="M530 1051l-71 -400h203q94 0 154 22.5t94.5 57.5t47.5 77.5t13 82.5q0 78 -58.5 119t-169.5 41h-213zM788 546q25 -12 46 -32t37 -44q17 -27 31 -58t26 -62.5t22.5 -62t21.5 -57.5q16 -42 35.5 -68t48.5 -26h22q34 0 46 -15t5 -53q-6 -38 -23 -53t-51 -15h-59
q-43 0 -83 33t-70 113q-12 33 -23.5 67t-23.5 67t-25.5 63.5t-30.5 57.5q-20 33 -44 55t-53 35t-65 18.5t-81 5.5h-62l-67 -379h130q34 0 46 -15t5 -53q-6 -38 -23 -53t-51 -15h-402q-34 0 -46 15t-6 53q7 38 24 53t51 15h122l162 915h-122q-34 0 -46 15t-5 53t24 53t51 15
h496q85 0 150.5 -20.5t110 -57.5t67.5 -89t23 -114q0 -74 -25.5 -133.5t-71 -105t-108 -76t-136.5 -45.5zM970 1633q13 7 24.5 10t23 -2t24.5 -19.5t29 -42.5q15 -27 20.5 -45.5t4.5 -31t-8 -20t-17 -10.5l-481 -163q-19 -6 -33.5 4.5t-21.5 27.5t-2.5 34.5t21.5 27.5z" />
    <glyph glyph-name="Rcaron" unicode="&#x158;" 
d="M530 1051l-71 -400h203q94 0 154 22.5t94.5 57.5t47.5 77.5t13 82.5q0 78 -58.5 119t-169.5 41h-213zM788 546q25 -12 46 -32t37 -44q17 -27 31 -58t26 -62.5t22.5 -62t21.5 -57.5q16 -42 35.5 -68t48.5 -26h22q34 0 46 -15t5 -53q-6 -38 -23 -53t-51 -15h-59
q-43 0 -83 33t-70 113q-12 33 -23.5 67t-23.5 67t-25.5 63.5t-30.5 57.5q-20 33 -44 55t-53 35t-65 18.5t-81 5.5h-62l-67 -379h130q34 0 46 -15t5 -53q-6 -38 -23 -53t-51 -15h-402q-34 0 -46 15t-6 53q7 38 24 53t51 15h122l162 915h-122q-34 0 -46 15t-5 53t24 53t51 15
h496q85 0 150.5 -20.5t110 -57.5t67.5 -89t23 -114q0 -74 -25.5 -133.5t-71 -105t-108 -76t-136.5 -45.5zM1065 1634q20 10 36.5 2t24.5 -24t5.5 -34t-19.5 -31l-308 -232q-26 -18 -58 -18q-33 0 -52 18l-246 232q-13 13 -11.5 31.5t11.5 34.5q11 16 27 24t32 -3l252 -159z
" />
    <glyph glyph-name="Rcommaaccent" unicode="&#x156;" 
d="M530 1051l-71 -400h203q94 0 154 22.5t94.5 57.5t47.5 77.5t13 82.5q0 78 -58.5 119t-169.5 41h-213zM788 546q25 -12 46 -32t37 -44q17 -27 31 -58t26 -62.5t22.5 -62t21.5 -57.5q16 -42 35.5 -68t48.5 -26h22q34 0 46 -15t5 -53q-6 -38 -23 -53t-51 -15h-59
q-43 0 -83 33t-70 113q-12 33 -23.5 67t-23.5 67t-25.5 63.5t-30.5 57.5q-20 33 -44 55t-53 35t-65 18.5t-81 5.5h-62l-67 -379h130q34 0 46 -15t5 -53q-6 -38 -23 -53t-51 -15h-402q-34 0 -46 15t-6 53q7 38 24 53t51 15h122l162 915h-122q-34 0 -46 15t-5 53t24 53t51 15
h496q85 0 150.5 -20.5t110 -57.5t67.5 -89t23 -114q0 -74 -25.5 -133.5t-71 -105t-108 -76t-136.5 -45.5zM465 -488q-11 -17 -31 -27t-43 -10q-28 0 -39.5 15t-1.5 41l110 291q6 16 18.5 24t29.5 8h142q20 0 23.5 -15t-10.5 -36z" />
    <glyph glyph-name="Sacute" unicode="&#x15a;" 
d="M248 821q0 64 25 132.5t78.5 125.5t138 93.5t204.5 36.5q46 0 89 -10t80.5 -27.5t69 -41.5t54.5 -52l12 66q6 35 25.5 50t61.5 15t55.5 -15t7.5 -50l-40 -230q-6 -35 -25.5 -50t-61.5 -15q-37 0 -47 26q-33 93 -111.5 139.5t-188.5 46.5q-70 0 -120.5 -20t-83 -50.5
t-48 -68t-15.5 -73.5q0 -42 27 -67t72 -42q41 -16 93 -27t107.5 -23.5t110 -28.5t101.5 -41q30 -17 55.5 -38t44 -48.5t28.5 -62.5t10 -79q0 -46 -10.5 -95t-34 -95t-60.5 -86.5t-90.5 -71t-124.5 -48.5t-162 -18q-103 0 -183.5 38.5t-131.5 109.5l-15 -83q-6 -35 -25 -50
t-61 -15t-56 15t-8 50l53 300q6 35 25 50t61 15q43 0 51 -42q20 -116 98.5 -178t210.5 -62q76 0 132.5 19.5t94.5 52t57 75t19 88.5q0 48 -25 79t-67 52q-40 20 -91 33t-105.5 25t-109.5 26t-102 35q-32 15 -59.5 34t-47.5 44t-31 57.5t-11 74.5zM970 1633q13 7 24.5 10
t23 -2t24.5 -19.5t29 -42.5q15 -27 20.5 -45.5t4.5 -31t-8 -20t-17 -10.5l-481 -163q-19 -6 -33.5 4.5t-21.5 27.5t-2.5 34.5t21.5 27.5z" />
    <glyph glyph-name="Scedilla" unicode="&#x15e;" 
d="M486 -13q-72 14 -130 49t-96 90l-15 -83q-6 -35 -25 -50t-61 -15t-56 15t-8 50l53 300q6 35 25 50t61 15q43 0 51 -42q20 -116 98.5 -178t210.5 -62q76 0 132.5 19.5t94.5 52t57 75t19 88.5q0 48 -25 79t-67 52q-40 20 -91 33t-105.5 25t-109.5 26t-102 35
q-32 15 -59.5 34t-47.5 44t-31 57.5t-11 74.5q0 64 25 132.5t78.5 125.5t138 93.5t204.5 36.5q46 0 89 -10t80.5 -27.5t69 -41.5t54.5 -52l12 66q6 35 25.5 50t61.5 15t55.5 -15t7.5 -50l-40 -230q-6 -35 -25.5 -50t-61.5 -15q-37 0 -47 26q-33 93 -111.5 139.5t-188.5 46.5
q-70 0 -120.5 -20t-83 -50.5t-48 -68t-15.5 -73.5q0 -42 27 -67t72 -42q41 -16 93 -27t107.5 -23.5t110 -28.5t101.5 -41q30 -17 55.5 -38t44 -48.5t28.5 -62.5t10 -79q0 -66 -22.5 -136.5t-73.5 -129.5t-135 -99.5t-207 -47.5l-16 -92q46 1 79.5 -10.5t55.5 -31t32.5 -46.5
t10.5 -57q0 -15 -3 -33.5t-10 -37.5t-17 -36.5t-24 -32.5q-33 -35 -87.5 -54.5t-132.5 -19.5q-67 0 -128.5 12t-109.5 36q-17 9 -17.5 29.5t10.5 40.5q10 19 26 31t33 5q37 -15 86.5 -24.5t100.5 -9.5q60 0 88 23t28 58q0 34 -35 46t-99 8q-7 0 -14 1t-12 5.5t-7 13t1 22.5z
" />
    <glyph glyph-name="Scircumflex" unicode="&#x15c;" 
d="M248 821q0 64 25 132.5t78.5 125.5t138 93.5t204.5 36.5q46 0 89 -10t80.5 -27.5t69 -41.5t54.5 -52l12 66q6 35 25.5 50t61.5 15t55.5 -15t7.5 -50l-40 -230q-6 -35 -25.5 -50t-61.5 -15q-37 0 -47 26q-33 93 -111.5 139.5t-188.5 46.5q-70 0 -120.5 -20t-83 -50.5
t-48 -68t-15.5 -73.5q0 -42 27 -67t72 -42q41 -16 93 -27t107.5 -23.5t110 -28.5t101.5 -41q30 -17 55.5 -38t44 -48.5t28.5 -62.5t10 -79q0 -46 -10.5 -95t-34 -95t-60.5 -86.5t-90.5 -71t-124.5 -48.5t-162 -18q-103 0 -183.5 38.5t-131.5 109.5l-15 -83q-6 -35 -25 -50
t-61 -15t-56 15t-8 50l53 300q6 35 25 50t61 15q43 0 51 -42q20 -116 98.5 -178t210.5 -62q76 0 132.5 19.5t94.5 52t57 75t19 88.5q0 48 -25 79t-67 52q-40 20 -91 33t-105.5 25t-109.5 26t-102 35q-32 15 -59.5 34t-47.5 44t-31 57.5t-11 74.5zM477 1309q-20 -10 -36.5 -2
t-24.5 24t-5.5 34t19.5 31l308 232q25 18 58 18q32 0 52 -18l246 -232q13 -13 11.5 -31.5t-11.5 -34.5q-11 -16 -27 -24t-32 3l-252 159z" />
    <glyph glyph-name="Scommaaccent" unicode="&#x218;" 
d="M248 821q0 64 25 132.5t78.5 125.5t138 93.5t204.5 36.5q46 0 89 -10t80.5 -27.5t69 -41.5t54.5 -52l12 66q6 35 25.5 50t61.5 15t55.5 -15t7.5 -50l-40 -230q-6 -35 -25.5 -50t-61.5 -15q-37 0 -47 26q-33 93 -111.5 139.5t-188.5 46.5q-70 0 -120.5 -20t-83 -50.5
t-48 -68t-15.5 -73.5q0 -42 27 -67t72 -42q41 -16 93 -27t107.5 -23.5t110 -28.5t101.5 -41q30 -17 55.5 -38t44 -48.5t28.5 -62.5t10 -79q0 -46 -10.5 -95t-34 -95t-60.5 -86.5t-90.5 -71t-124.5 -48.5t-162 -18q-103 0 -183.5 38.5t-131.5 109.5l-15 -83q-6 -35 -25 -50
t-61 -15t-56 15t-8 50l53 300q6 35 25 50t61 15q43 0 51 -42q20 -116 98.5 -178t210.5 -62q76 0 132.5 19.5t94.5 52t57 75t19 88.5q0 48 -25 79t-67 52q-40 20 -91 33t-105.5 25t-109.5 26t-102 35q-32 15 -59.5 34t-47.5 44t-31 57.5t-11 74.5zM445 -488q-11 -17 -31 -27
t-43 -10q-28 0 -39.5 15t-1.5 41l110 291q6 16 18.5 24t29.5 8h142q20 0 23.5 -15t-10.5 -36z" />
    <glyph glyph-name="Tbar" unicode="&#x166;" 
d="M547 450h-205q-34 0 -46 15t-5 53t24 53t51 15h205l83 465h-267l-55 -309q-6 -35 -25 -50t-61 -15t-56 15t-8 50l67 377q7 38 24 53t51 15h858q34 0 46 -15t5 -53l-67 -377q-6 -35 -25 -50t-61 -15t-56 15t-8 50l55 309h-267l-83 -465h207q34 0 46 -15t5 -53t-24 -53
t-51 -15h-207l-55 -314h246q34 0 46 -15t5 -53q-6 -38 -23 -53t-51 -15h-622q-34 0 -46 15t-6 53q7 38 24 53t51 15h226z" />
    <glyph glyph-name="Tcaron" unicode="&#x164;" 
d="M654 1051h-267l-55 -309q-6 -35 -25 -50t-61 -15t-56 15t-8 50l67 377q7 38 24 53t51 15h858q34 0 46 -15t5 -53l-67 -377q-6 -35 -25 -50t-61 -15t-56 15t-8 50l55 309h-267l-162 -915h246q34 0 46 -15t5 -53q-6 -38 -23 -53t-51 -15h-622q-34 0 -46 15t-6 53
q7 38 24 53t51 15h226zM1085 1634q20 10 36.5 2t24.5 -24t5.5 -34t-19.5 -31l-308 -232q-26 -18 -58 -18q-33 0 -52 18l-246 232q-13 13 -11.5 31.5t11.5 34.5q11 16 27 24t32 -3l252 -159z" />
    <glyph glyph-name="Tcommaaccent" unicode="&#x162;" 
d="M654 1051h-267l-55 -309q-6 -35 -25 -50t-61 -15t-56 15t-8 50l67 377q7 38 24 53t51 15h858q34 0 46 -15t5 -53l-67 -377q-6 -35 -25 -50t-61 -15t-56 15t-8 50l55 309h-267l-162 -915h246q34 0 46 -15t5 -53q-6 -38 -23 -53t-51 -15h-622q-34 0 -46 15t-6 53
q7 38 24 53t51 15h226zM425 -488q-11 -17 -31 -27t-43 -10q-28 0 -39.5 15t-1.5 41l110 291q6 16 18.5 24t29.5 8h142q20 0 23.5 -15t-10.5 -36z" />
    <glyph glyph-name="Ubreve" unicode="&#x16c;" 
d="M248 1051q-34 0 -46 15t-5 53t24 53t51 15h324q34 0 46 -15t5 -53t-24 -53t-51 -15h-112l-113 -638q-9 -51 -9 -92q0 -105 57 -150t171 -45q68 0 121.5 15.5t93 50t65 89t39.5 132.5l113 638h-112q-34 0 -46 15t-5 53t24 53t51 15h324q34 0 46 -15t5 -53t-24 -53t-51 -15
h-62l-118 -668q-19 -107 -59 -183.5t-100 -126t-139.5 -72.5t-176.5 -23q-85 0 -153 20t-116 60t-74 100t-26 141q0 24 2.5 50t7.5 54l114 648h-62zM776 1485q103 0 172 27.5t115 95.5q12 17 35 19.5t43 -5.5q19 -8 30 -22t3 -32q-43 -104 -148 -165.5t-261 -61.5
q-78 0 -139.5 16t-105.5 45.5t-69.5 71.5t-30.5 94q-2 19 11.5 33t31.5 21q19 8 37.5 5t24.5 -19q26 -68 87 -95.5t164 -27.5z" />
    <glyph glyph-name="Uhungarumlaut" unicode="&#x170;" 
d="M248 1051q-34 0 -46 15t-5 53t24 53t51 15h324q34 0 46 -15t5 -53t-24 -53t-51 -15h-112l-113 -638q-9 -51 -9 -92q0 -105 57 -150t171 -45q68 0 121.5 15.5t93 50t65 89t39.5 132.5l113 638h-112q-34 0 -46 15t-5 53t24 53t51 15h324q34 0 46 -15t5 -53t-24 -53t-51 -15
h-62l-118 -668q-19 -107 -59 -183.5t-100 -126t-139.5 -72.5t-176.5 -23q-85 0 -153 20t-116 60t-74 100t-26 141q0 24 2.5 50t7.5 54l114 648h-62zM945 1336q-18 -13 -42 -13q-10 0 -20.5 3.5t-19.5 9.5t-15 15t-6 20q0 16 13 29l233 225q13 13 29 20.5t36 7.5q14 0 32 -6
t33.5 -16.5t26 -24.5t10.5 -29q0 -12 -6 -22.5t-16 -17.5zM595 1336q-18 -13 -42 -13q-10 0 -20.5 3.5t-19.5 9.5t-15 15t-6 20q0 16 13 29l233 225q13 13 29 20.5t36 7.5q14 0 32 -6t33.5 -16.5t26 -24.5t10.5 -29q0 -12 -6 -22.5t-16 -17.5z" />
    <glyph glyph-name="Umacron" unicode="&#x16a;" 
d="M248 1051q-34 0 -46 15t-5 53t24 53t51 15h324q34 0 46 -15t5 -53t-24 -53t-51 -15h-112l-113 -638q-9 -51 -9 -92q0 -105 57 -150t171 -45q68 0 121.5 15.5t93 50t65 89t39.5 132.5l113 638h-112q-34 0 -46 15t-5 53t24 53t51 15h324q34 0 46 -15t5 -53t-24 -53t-51 -15
h-62l-118 -668q-19 -107 -59 -183.5t-100 -126t-139.5 -72.5t-176.5 -23q-85 0 -153 20t-116 60t-74 100t-26 141q0 24 2.5 50t7.5 54l114 648h-62zM1074 1516q34 0 46 -15t5 -53t-24 -53t-51 -15h-562q-34 0 -46 15t-5 53t24 53t51 15h562z" />
    <glyph glyph-name="Uogonek" unicode="&#x172;" 
d="M604 -336q29 0 56.5 2.5t54.5 7.5q40 6 47 -48q4 -28 -4.5 -44.5t-31.5 -24.5q-37 -13 -84 -21t-95 -8q-81 0 -124.5 45t-43.5 117q0 77 46 147.5t131 140.5h-1q-85 0 -153 20t-116 60t-74 100t-26 141q0 24 2.5 50t7.5 54l114 648h-62q-34 0 -46 15t-5 53t24 53t51 15
h324q34 0 46 -15t5 -53t-24 -53t-51 -15h-112l-113 -638q-9 -51 -9 -92q0 -105 57 -150t171 -45q68 0 121.5 15.5t93 50t65 89t39.5 132.5l113 638h-112q-34 0 -46 15t-5 53t24 53t51 15h324q34 0 46 -15t5 -53t-24 -53t-51 -15h-62l-118 -668q-26 -146 -89.5 -235
t-163.5 -131q-124 -95 -181 -166t-57 -128q0 -29 17.5 -44t47.5 -15z" />
    <glyph glyph-name="Uring" unicode="&#x16e;" 
d="M248 1051q-34 0 -46 15t-5 53t24 53t51 15h324q34 0 46 -15t5 -53t-24 -53t-51 -15h-112l-113 -638q-9 -51 -9 -92q0 -105 57 -150t171 -45q68 0 121.5 15.5t93 50t65 89t39.5 132.5l113 638h-112q-34 0 -46 15t-5 53t24 53t51 15h324q34 0 46 -15t5 -53t-24 -53t-51 -15
h-62l-118 -668q-19 -107 -59 -183.5t-100 -126t-139.5 -72.5t-176.5 -23q-85 0 -153 20t-116 60t-74 100t-26 141q0 24 2.5 50t7.5 54l114 648h-62zM764 1305q-46 0 -85 17t-67.5 46t-45 68.5t-16.5 83.5q0 50 20.5 99.5t57 89t88.5 64t115 24.5q46 0 85 -17t67.5 -46.5
t45 -68.5t16.5 -83q0 -51 -20.5 -100.5t-57 -89t-88.5 -63.5t-115 -24zM775 1425q28 0 55.5 12t48.5 32t34 47t13 57q0 45 -29.5 74.5t-76.5 29.5q-29 0 -56 -12t-48 -32.5t-33.5 -47.5t-12.5 -57q0 -45 29 -74t76 -29z" />
    <glyph glyph-name="Utilde" unicode="&#x168;" 
d="M248 1051q-34 0 -46 15t-5 53t24 53t51 15h324q34 0 46 -15t5 -53t-24 -53t-51 -15h-112l-113 -638q-9 -51 -9 -92q0 -105 57 -150t171 -45q68 0 121.5 15.5t93 50t65 89t39.5 132.5l113 638h-112q-34 0 -46 15t-5 53t24 53t51 15h324q34 0 46 -15t5 -53t-24 -53t-51 -15
h-62l-118 -668q-19 -107 -59 -183.5t-100 -126t-139.5 -72.5t-176.5 -23q-85 0 -153 20t-116 60t-74 100t-26 141q0 24 2.5 50t7.5 54l114 648h-62zM653 1557q37 0 71 -10t67 -21.5t65 -21.5t66 -10q30 0 65 10.5t70 31.5q17 10 33 3.5t29 -28.5t11.5 -41.5t-17.5 -32.5
q-60 -50 -108.5 -70.5t-91.5 -20.5q-37 0 -71 10t-67 21.5t-65 21.5t-66 10q-30 0 -65 -10.5t-70 -31.5q-17 -10 -33 -3.5t-29 28.5t-11.5 41.5t17.5 32.5q60 50 108.5 70.5t91.5 20.5z" />
    <glyph glyph-name="Wacute" unicode="&#x1e82;" 
d="M168 1051q-34 0 -46 15t-5 53t24 53t51 15h344q34 0 46 -15t5 -53t-24 -53t-51 -15h-146l-41 -797l289 584q10 20 29.5 33.5t51.5 13.5q33 0 47.5 -10t17.5 -30l84 -598l246 804h-124q-34 0 -46 15t-5 53t24 53t51 15h324q34 0 46 -15t5 -53t-24 -53t-51 -15h-50
l-316 -1008q-12 -37 -35.5 -51t-61.5 -14t-62 15t-29 50l-82 581l-290 -581q-17 -35 -47 -50t-68 -15t-56.5 14.5t-16.5 50.5l45 1008h-53zM990 1633q13 7 24.5 10t23 -2t24.5 -19.5t29 -42.5q15 -27 20.5 -45.5t4.5 -31t-8 -20t-17 -10.5l-481 -163q-19 -6 -33.5 4.5
t-21.5 27.5t-2.5 34.5t21.5 27.5z" />
    <glyph glyph-name="Wcircumflex" unicode="&#x174;" 
d="M168 1051q-34 0 -46 15t-5 53t24 53t51 15h344q34 0 46 -15t5 -53t-24 -53t-51 -15h-146l-41 -797l289 584q10 20 29.5 33.5t51.5 13.5q33 0 47.5 -10t17.5 -30l84 -598l246 804h-124q-34 0 -46 15t-5 53t24 53t51 15h324q34 0 46 -15t5 -53t-24 -53t-51 -15h-50
l-316 -1008q-12 -37 -35.5 -51t-61.5 -14t-62 15t-29 50l-82 581l-290 -581q-17 -35 -47 -50t-68 -15t-56.5 14.5t-16.5 50.5l45 1008h-53zM487 1309q-20 -10 -36.5 -2t-24.5 24t-5.5 34t19.5 31l308 232q25 18 58 18q32 0 52 -18l246 -232q13 -13 11.5 -31.5t-11.5 -34.5
q-11 -16 -27 -24t-32 3l-252 159z" />
    <glyph glyph-name="Wdieresis" unicode="&#x1e84;" 
d="M168 1051q-34 0 -46 15t-5 53t24 53t51 15h344q34 0 46 -15t5 -53t-24 -53t-51 -15h-146l-41 -797l289 584q10 20 29.5 33.5t51.5 13.5q33 0 47.5 -10t17.5 -30l84 -598l246 804h-124q-34 0 -46 15t-5 53t24 53t51 15h324q34 0 46 -15t5 -53t-24 -53t-51 -15h-50
l-316 -1008q-12 -37 -35.5 -51t-61.5 -14t-62 15t-29 50l-82 581l-290 -581q-17 -35 -47 -50t-68 -15t-56.5 14.5t-16.5 50.5l45 1008h-53zM544 1340q-48 0 -78 31.5t-30 76.5q0 29 12 54.5t32.5 45t46.5 31t54 11.5q48 0 77.5 -31t29.5 -76q0 -30 -12 -56t-32 -45.5
t-46 -30.5t-54 -11zM984 1340q-48 0 -78 31.5t-30 76.5q0 29 12 54.5t32.5 45t46.5 31t54 11.5q48 0 77.5 -31t29.5 -76q0 -30 -12 -56t-32 -45.5t-46 -30.5t-54 -11z" />
    <glyph glyph-name="Wgrave" unicode="&#x1e80;" 
d="M168 1051q-34 0 -46 15t-5 53t24 53t51 15h344q34 0 46 -15t5 -53t-24 -53t-51 -15h-146l-41 -797l289 584q10 20 29.5 33.5t51.5 13.5q33 0 47.5 -10t17.5 -30l84 -598l246 804h-124q-34 0 -46 15t-5 53t24 53t51 15h324q34 0 46 -15t5 -53t-24 -53t-51 -15h-50
l-316 -1008q-12 -37 -35.5 -51t-61.5 -14t-62 15t-29 50l-82 581l-290 -581q-17 -35 -47 -50t-68 -15t-56.5 14.5t-16.5 50.5l45 1008h-53zM962 1403q17 -10 21.5 -27.5t-2.5 -34.5t-21.5 -27.5t-33.5 -4.5l-481 163q-10 3 -17 10.5t-8 20t4.5 31t20.5 45.5q16 28 29 42.5
t24.5 19.5t23 2t24.5 -10z" />
    <glyph glyph-name="Ycircumflex" unicode="&#x176;" 
d="M556 499l-244 552h-74q-34 0 -46 15t-5 53t24 53t51 15h334q34 0 46 -15t5 -53t-24 -53t-51 -15h-97l178 -409l324 409h-61q-34 0 -46 15t-5 53t24 53t51 15h304q34 0 46 -15t5 -53t-24 -53t-51 -15h-64l-452 -565l-62 -350h236q34 0 46 -15t5 -53q-6 -38 -23 -53
t-51 -15h-602q-34 0 -46 15t-6 53q7 38 24 53t51 15h216zM497 1309q-20 -10 -36.5 -2t-24.5 24t-5.5 34t19.5 31l308 232q25 18 58 18q32 0 52 -18l246 -232q13 -13 11.5 -31.5t-11.5 -34.5q-11 -16 -27 -24t-32 3l-252 159z" />
    <glyph glyph-name="Ygrave" unicode="&#x1ef2;" 
d="M962 1403q17 -10 21.5 -27.5t-2.5 -34.5t-21.5 -27.5t-33.5 -4.5l-481 163q-10 3 -17 10.5t-8 20t4.5 31t20.5 45.5q16 28 29 42.5t24.5 19.5t23 2t24.5 -10zM556 499l-244 552h-74q-34 0 -46 15t-5 53t24 53t51 15h334q34 0 46 -15t5 -53t-24 -53t-51 -15h-97l178 -409
l324 409h-61q-34 0 -46 15t-5 53t24 53t51 15h304q34 0 46 -15t5 -53t-24 -53t-51 -15h-64l-452 -565l-62 -350h236q34 0 46 -15t5 -53q-6 -38 -23 -53t-51 -15h-602q-34 0 -46 15t-6 53q7 38 24 53t51 15h216z" />
    <glyph glyph-name="Zacute" unicode="&#x179;" 
d="M872 136l48 269q6 35 25 50t61 15t56 -15t8 -50l-60 -337q-6 -38 -23 -53t-51 -15h-766q-34 0 -46 15t-6 53q3 14 8.5 24t13.5 19l795 940h-492l-44 -249q-6 -35 -25.5 -50t-61.5 -15t-55.5 15t-7.5 50l56 317q7 38 24 53t51 15h736q34 0 46 -15t5 -53q-5 -25 -17 -39
l-800 -944h522zM980 1633q13 7 24.5 10t23 -2t24.5 -19.5t29 -42.5q15 -27 20.5 -45.5t4.5 -31t-8 -20t-17 -10.5l-481 -163q-19 -6 -33.5 4.5t-21.5 27.5t-2.5 34.5t21.5 27.5z" />
    <glyph glyph-name="Zdotaccent" unicode="&#x17b;" 
d="M872 136l48 269q6 35 25 50t61 15t56 -15t8 -50l-60 -337q-6 -38 -23 -53t-51 -15h-766q-34 0 -46 15t-6 53q3 14 8.5 24t13.5 19l795 940h-492l-44 -249q-6 -35 -25.5 -50t-61.5 -15t-55.5 15t-7.5 50l56 317q7 38 24 53t51 15h736q34 0 46 -15t5 -53q-5 -25 -17 -39
l-800 -944h522zM767 1349q-27 0 -49 9.5t-38.5 26t-25.5 38.5t-9 47q0 33 14 62.5t37 51.5t52.5 34.5t61.5 12.5q27 0 49 -9.5t38 -26t25 -38.5t9 -46q0 -34 -13.5 -63.5t-36.5 -51.5t-52.5 -34.5t-61.5 -12.5z" />
    <glyph glyph-name="abreve" unicode="&#x103;" 
d="M726 1215q103 0 172 27.5t115 95.5q12 17 35 19.5t43 -5.5q19 -8 30 -22t3 -32q-43 -104 -148 -165.5t-261 -61.5q-78 0 -139.5 16t-105.5 45.5t-69.5 71.5t-30.5 94q-2 19 11.5 33t31.5 21q19 8 37.5 5t24.5 -19q26 -68 87 -95.5t164 -27.5zM485 -22q-81 0 -148 27
t-115 77.5t-74.5 122t-26.5 161.5q0 65 13.5 133t41.5 132.5t70 121.5t99 100t129.5 68t160.5 25q51 0 96.5 -13t84 -37t69.5 -57t55 -73l19 103q6 35 22.5 50t58.5 15t53.5 -15t5.5 -50l-118 -668q-5 -31 5.5 -48t38.5 -17h25q34 0 46 -15t5 -53q-6 -38 -23 -53t-51 -15
h-51q-62 0 -101.5 38.5t-44.5 104.5q-153 -165 -345 -165zM511 126q89 0 158.5 36t117 94.5t72.5 133t25 151.5q0 61 -18 109t-51.5 81t-80.5 50t-105 17q-84 0 -149.5 -37t-110.5 -97t-68 -136t-23 -153q0 -56 15 -102t44 -78.5t73 -50.5t101 -18z" />
    <glyph glyph-name="amacron" unicode="&#x101;" 
d="M1014 1246q34 0 46 -15t5 -53t-24 -53t-51 -15h-562q-34 0 -46 15t-5 53t24 53t51 15h562zM485 -22q-81 0 -148 27t-115 77.5t-74.5 122t-26.5 161.5q0 65 13.5 133t41.5 132.5t70 121.5t99 100t129.5 68t160.5 25q51 0 96.5 -13t84 -37t69.5 -57t55 -73l19 103
q6 35 22.5 50t58.5 15t53.5 -15t5.5 -50l-118 -668q-5 -31 5.5 -48t38.5 -17h25q34 0 46 -15t5 -53q-6 -38 -23 -53t-51 -15h-51q-62 0 -101.5 38.5t-44.5 104.5q-153 -165 -345 -165zM511 126q89 0 158.5 36t117 94.5t72.5 133t25 151.5q0 61 -18 109t-51.5 81t-80.5 50
t-105 17q-84 0 -149.5 -37t-110.5 -97t-68 -136t-23 -153q0 -56 15 -102t44 -78.5t73 -50.5t101 -18z" />
    <glyph glyph-name="aogonek" unicode="&#x105;" 
d="M485 -22q-81 0 -148 27t-115 77.5t-74.5 122t-26.5 161.5q0 65 13.5 133t41.5 132.5t70 121.5t99 100t129.5 68t160.5 25q51 0 96.5 -13t84 -37t69.5 -57t55 -73l19 103q6 35 22.5 50t58.5 15t53.5 -15t5.5 -50l-118 -668q-5 -31 5.5 -48t38.5 -17h25q34 0 46 -15t5 -53
q-6 -35 -21.5 -50.5t-44.5 -17.5q-112 -88 -164 -155.5t-52 -121.5q0 -29 17.5 -44t47.5 -15q29 0 56.5 2.5t54.5 7.5q40 6 47 -48q4 -28 -4.5 -44.5t-31.5 -24.5q-37 -13 -84 -21t-95 -8q-81 0 -124.5 45t-43.5 117q0 89 61.5 170t173.5 163q-28 18 -45 48t-19 72
q-153 -165 -345 -165zM511 126q89 0 158.5 36t117 94.5t72.5 133t25 151.5q0 61 -18 109t-51.5 81t-80.5 50t-105 17q-84 0 -149.5 -37t-110.5 -97t-68 -136t-23 -153q0 -56 15 -102t44 -78.5t73 -50.5t101 -18z" />
    <glyph glyph-name="cacute" unicode="&#x107;" 
d="M950 1363q13 7 24.5 10t23 -2t24.5 -19.5t29 -42.5q15 -27 20.5 -45.5t4.5 -31t-8 -20t-17 -10.5l-481 -163q-19 -6 -33.5 4.5t-21.5 27.5t-2.5 34.5t21.5 27.5zM911 238q23 16 48 12t45 -39q37 -66 -25 -106q-92 -59 -205.5 -93t-228.5 -34q-96 0 -173 30.5t-130 84.5
t-81.5 127.5t-28.5 159.5q0 110 41 212t115.5 181t179 126t232.5 47q92 0 162 -36.5t109 -98.5l13 70q7 35 25.5 50t60.5 15t56 -15t8 -50l-51 -290q-6 -35 -24 -50t-60 -15t-56 15t-9 50q7 45 -5 83t-42.5 65.5t-79.5 43t-118 15.5q-86 0 -159 -33t-126.5 -89.5t-83.5 -130
t-30 -154.5q0 -59 18.5 -107.5t53.5 -83.5t85 -54.5t114 -19.5q92 0 180.5 28.5t169.5 83.5z" />
    <glyph glyph-name="ccaron" unicode="&#x10d;" 
d="M1035 1384q20 10 36.5 2t24.5 -24t5.5 -34t-19.5 -31l-308 -232q-26 -18 -58 -18q-33 0 -52 18l-246 232q-13 13 -11.5 31.5t11.5 34.5q11 16 27 24t32 -3l252 -159zM911 238q23 16 48 12t45 -39q37 -66 -25 -106q-92 -59 -205.5 -93t-228.5 -34q-96 0 -173 30.5
t-130 84.5t-81.5 127.5t-28.5 159.5q0 110 41 212t115.5 181t179 126t232.5 47q92 0 162 -36.5t109 -98.5l13 70q7 35 25.5 50t60.5 15t56 -15t8 -50l-51 -290q-6 -35 -24 -50t-60 -15t-56 15t-9 50q7 45 -5 83t-42.5 65.5t-79.5 43t-118 15.5q-86 0 -159 -33t-126.5 -89.5
t-83.5 -130t-30 -154.5q0 -59 18.5 -107.5t53.5 -83.5t85 -54.5t114 -19.5q92 0 180.5 28.5t169.5 83.5z" />
    <glyph glyph-name="ccircumflex" unicode="&#x109;" 
d="M911 238q23 16 48 12t45 -39q37 -66 -25 -106q-92 -59 -205.5 -93t-228.5 -34q-96 0 -173 30.5t-130 84.5t-81.5 127.5t-28.5 159.5q0 110 41 212t115.5 181t179 126t232.5 47q92 0 162 -36.5t109 -98.5l13 70q7 35 25.5 50t60.5 15t56 -15t8 -50l-51 -290
q-6 -35 -24 -50t-60 -15t-56 15t-9 50q7 45 -5 83t-42.5 65.5t-79.5 43t-118 15.5q-86 0 -159 -33t-126.5 -89.5t-83.5 -130t-30 -154.5q0 -59 18.5 -107.5t53.5 -83.5t85 -54.5t114 -19.5q92 0 180.5 28.5t169.5 83.5zM447 1039q-20 -10 -36.5 -2t-24.5 24t-5.5 34t19.5 31
l308 232q25 18 58 18q32 0 52 -18l246 -232q13 -13 11.5 -31.5t-11.5 -34.5q-11 -16 -27 -24t-32 3l-252 159z" />
    <glyph glyph-name="cdotaccent" unicode="&#x10b;" 
d="M911 238q23 16 48 12t45 -39q37 -66 -25 -106q-92 -59 -205.5 -93t-228.5 -34q-96 0 -173 30.5t-130 84.5t-81.5 127.5t-28.5 159.5q0 110 41 212t115.5 181t179 126t232.5 47q92 0 162 -36.5t109 -98.5l13 70q7 35 25.5 50t60.5 15t56 -15t8 -50l-51 -290
q-6 -35 -24 -50t-60 -15t-56 15t-9 50q7 45 -5 83t-42.5 65.5t-79.5 43t-118 15.5q-86 0 -159 -33t-126.5 -89.5t-83.5 -130t-30 -154.5q0 -59 18.5 -107.5t53.5 -83.5t85 -54.5t114 -19.5q92 0 180.5 28.5t169.5 83.5zM727 1079q-27 0 -49 9.5t-38.5 26t-25.5 38.5t-9 47
q0 33 14 62.5t37 51.5t52.5 34.5t61.5 12.5q27 0 49 -9.5t38 -26t25 -38.5t9 -46q0 -34 -13.5 -63.5t-36.5 -51.5t-52.5 -34.5t-61.5 -12.5z" />
    <glyph glyph-name="dcaron" unicode="&#x10f;" 
d="M445 -22q-70 0 -128.5 25.5t-100.5 73t-65 115t-23 151.5q0 65 12.5 131t37.5 127.5t63 115t88.5 93.5t114.5 63t142 23q91 0 154.5 -40t97.5 -106l75 426h-182q-34 0 -46 15t-5 53t24 53t51 15h269q34 0 46 -15t5 -53l-196 -1108h82q34 0 46 -15t5 -53q-6 -38 -23 -53
t-51 -15h-159q-34 0 -46.5 15t-5.5 53l12 65q-27 -33 -58 -61t-67 -49t-78 -33t-91 -12zM471 126q56 0 101.5 17.5t81.5 47t61.5 69t42.5 83.5t25 89.5t8 88.5q0 109 -55.5 168t-155.5 59q-75 0 -130.5 -37.5t-92 -95.5t-55 -128.5t-18.5 -137.5q0 -50 11.5 -91t35 -70.5
t58.5 -45.5t82 -16zM1259 897q-24 -35 -68 -35q-29 0 -40.5 15t-1.5 41l141 362q12 32 48 32h153q20 0 24.5 -14.5t-10.5 -36.5z" />
    <glyph glyph-name="dcroat" unicode="&#x111;" 
d="M1061 136q34 0 46 -15t5 -53q-6 -38 -23 -53t-51 -15h-159q-34 0 -46.5 15t-5.5 53l13 70q-76 -78 -162 -119t-183 -41q-81 0 -148.5 26t-116 74.5t-75.5 117t-27 154.5q0 107 35 205.5t101.5 174.5t162.5 121t219 45q100 0 171.5 -44t116.5 -122l42 240h-302
q-34 0 -46 15t-5 53q6 38 23.5 53t51.5 15h302l13 70h-202q-34 0 -46 15t-5 53t24 53t51 15h289q34 0 46 -15t5 -53l-25 -138h110q34 0 45.5 -15t5.5 -53q-7 -38 -24 -53t-51 -15h-110l-147 -834h82zM521 126q93 0 162.5 35t115 90t68 122.5t22.5 132.5q0 58 -18.5 103
t-52.5 76t-82 47t-106 16q-84 0 -148.5 -33.5t-108 -88t-66 -124t-22.5 -140.5q0 -53 15 -96.5t45 -74.5t74 -48t102 -17z" />
    <glyph glyph-name="ebreve" unicode="&#x115;" 
d="M736 1215q103 0 172 27.5t115 95.5q12 17 35 19.5t43 -5.5q19 -8 30 -22t3 -32q-43 -104 -148 -165.5t-261 -61.5q-78 0 -139.5 16t-105.5 45.5t-69.5 71.5t-30.5 94q-2 19 11.5 33t31.5 21q19 8 37.5 5t24.5 -19q26 -68 87 -95.5t164 -27.5zM969 66q-42 -19 -93 -35
t-106.5 -28t-114 -18.5t-116.5 -6.5q-95 0 -167.5 26t-122.5 75t-75.5 118.5t-25.5 156.5q0 124 41.5 232t116.5 188t180 126t233 46q83 0 150 -22t113.5 -61t71.5 -92.5t25 -115.5q0 -51 -12.5 -93t-39.5 -73.5t-70 -51.5t-104 -26l-549 -57q2 -122 68 -176.5t182 -54.5
q50 0 101 7t99 19.5t92.5 29.5t82.5 36q25 13 47 1t34 -50q12 -39 1.5 -62.5t-42.5 -37.5zM704 801q-78 0 -141.5 -23.5t-112 -64.5t-82 -97.5t-49.5 -123.5l503 58q58 6 78.5 31t20.5 69q0 31 -13.5 59t-40.5 48t-68 32t-95 12z" />
    <glyph glyph-name="ecaron" unicode="&#x11b;" 
d="M1035 1384q20 10 36.5 2t24.5 -24t5.5 -34t-19.5 -31l-308 -232q-26 -18 -58 -18q-33 0 -52 18l-246 232q-13 13 -11.5 31.5t11.5 34.5q11 16 27 24t32 -3l252 -159zM969 66q-42 -19 -93 -35t-106.5 -28t-114 -18.5t-116.5 -6.5q-95 0 -167.5 26t-122.5 75t-75.5 118.5
t-25.5 156.5q0 124 41.5 232t116.5 188t180 126t233 46q83 0 150 -22t113.5 -61t71.5 -92.5t25 -115.5q0 -51 -12.5 -93t-39.5 -73.5t-70 -51.5t-104 -26l-549 -57q2 -122 68 -176.5t182 -54.5q50 0 101 7t99 19.5t92.5 29.5t82.5 36q25 13 47 1t34 -50q12 -39 1.5 -62.5
t-42.5 -37.5zM704 801q-78 0 -141.5 -23.5t-112 -64.5t-82 -97.5t-49.5 -123.5l503 58q58 6 78.5 31t20.5 69q0 31 -13.5 59t-40.5 48t-68 32t-95 12z" />
    <glyph glyph-name="edotaccent" unicode="&#x117;" 
d="M969 66q-42 -19 -93 -35t-106.5 -28t-114 -18.5t-116.5 -6.5q-95 0 -167.5 26t-122.5 75t-75.5 118.5t-25.5 156.5q0 124 41.5 232t116.5 188t180 126t233 46q83 0 150 -22t113.5 -61t71.5 -92.5t25 -115.5q0 -51 -12.5 -93t-39.5 -73.5t-70 -51.5t-104 -26l-549 -57
q2 -122 68 -176.5t182 -54.5q50 0 101 7t99 19.5t92.5 29.5t82.5 36q25 13 47 1t34 -50q12 -39 1.5 -62.5t-42.5 -37.5zM704 801q-78 0 -141.5 -23.5t-112 -64.5t-82 -97.5t-49.5 -123.5l503 58q58 6 78.5 31t20.5 69q0 31 -13.5 59t-40.5 48t-68 32t-95 12zM717 1079
q-27 0 -49 9.5t-38.5 26t-25.5 38.5t-9 47q0 33 14 62.5t37 51.5t52.5 34.5t61.5 12.5q27 0 49 -9.5t38 -26t25 -38.5t9 -46q0 -34 -13.5 -63.5t-36.5 -51.5t-52.5 -34.5t-61.5 -12.5z" />
    <glyph glyph-name="emacron" unicode="&#x113;" 
d="M1034 1246q34 0 46 -15t5 -53t-24 -53t-51 -15h-562q-34 0 -46 15t-5 53t24 53t51 15h562zM969 66q-42 -19 -93 -35t-106.5 -28t-114 -18.5t-116.5 -6.5q-95 0 -167.5 26t-122.5 75t-75.5 118.5t-25.5 156.5q0 124 41.5 232t116.5 188t180 126t233 46q83 0 150 -22
t113.5 -61t71.5 -92.5t25 -115.5q0 -51 -12.5 -93t-39.5 -73.5t-70 -51.5t-104 -26l-549 -57q2 -122 68 -176.5t182 -54.5q50 0 101 7t99 19.5t92.5 29.5t82.5 36q25 13 47 1t34 -50q12 -39 1.5 -62.5t-42.5 -37.5zM704 801q-78 0 -141.5 -23.5t-112 -64.5t-82 -97.5
t-49.5 -123.5l503 58q58 6 78.5 31t20.5 69q0 31 -13.5 59t-40.5 48t-68 32t-95 12z" />
    <glyph glyph-name="eogonek" unicode="&#x119;" 
d="M969 66q-9 -4 -19.5 -10t-25 -16.5t-34 -26.5t-47.5 -39q-95 -79 -139.5 -140t-44.5 -111q0 -29 17.5 -44t47.5 -15q29 0 56.5 2.5t54.5 7.5q40 6 47 -48q4 -28 -4.5 -44.5t-31.5 -24.5q-37 -13 -84 -21t-95 -8q-81 0 -124.5 45t-43.5 117q0 80 49.5 153t140.5 146
q-37 -5 -74.5 -8t-75.5 -3q-95 0 -167.5 26t-122.5 75t-75.5 118.5t-25.5 156.5q0 124 41.5 232t116.5 188t180 126t233 46q83 0 150 -22t113.5 -61t71.5 -92.5t25 -115.5q0 -51 -12.5 -93t-39.5 -73.5t-70 -51.5t-104 -26l-549 -57q2 -122 68 -176.5t182 -54.5q50 0 101 7
t99 19.5t92.5 29.5t82.5 36q25 13 47 1t34 -50q12 -39 1.5 -62.5t-42.5 -37.5zM704 801q-78 0 -141.5 -23.5t-112 -64.5t-82 -97.5t-49.5 -123.5l503 58q58 6 78.5 31t20.5 69q0 31 -13.5 59t-40.5 48t-68 32t-95 12z" />
    <glyph glyph-name="gbreve" unicode="&#x11f;" 
d="M736 1215q103 0 172 27.5t115 95.5q12 17 35 19.5t43 -5.5q19 -8 30 -22t3 -32q-43 -104 -148 -165.5t-261 -61.5q-78 0 -139.5 16t-105.5 45.5t-69.5 71.5t-30.5 94q-2 19 11.5 33t31.5 21q19 8 37.5 5t24.5 -19q26 -68 87 -95.5t164 -27.5zM518 28q-81 0 -148.5 26
t-115.5 74.5t-75 117t-27 154.5q0 107 35 205.5t101.5 174.5t162.5 121t219 45q103 0 176.5 -48t118.5 -132l19 103q6 35 22.5 50t58.5 15t53.5 -15t5.5 -50l-162 -914q-32 -180 -151 -275t-317 -95q-87 0 -170.5 15t-157.5 45q-26 11 -34.5 33.5t7.5 60.5q16 39 37 50t45 0
q66 -29 141 -42.5t148 -13.5q67 0 119.5 17.5t91 50t62.5 77.5t34 100l34 196q-73 -72 -154.5 -109t-178.5 -37zM545 176q93 0 162.5 35t115 90t68 122.5t22.5 132.5q0 58 -18.5 103t-52.5 76t-82 47t-106 16q-84 0 -148.5 -33.5t-108 -88t-66 -124t-22.5 -140.5
q0 -53 15 -96.5t45 -74.5t74 -48t102 -17z" />
    <glyph glyph-name="gcircumflex" unicode="&#x11d;" 
d="M447 1039q-20 -10 -36.5 -2t-24.5 24t-5.5 34t19.5 31l308 232q25 18 58 18q32 0 52 -18l246 -232q13 -13 11.5 -31.5t-11.5 -34.5q-11 -16 -27 -24t-32 3l-252 159zM518 28q-81 0 -148.5 26t-115.5 74.5t-75 117t-27 154.5q0 107 35 205.5t101.5 174.5t162.5 121t219 45
q103 0 176.5 -48t118.5 -132l19 103q6 35 22.5 50t58.5 15t53.5 -15t5.5 -50l-162 -914q-32 -180 -151 -275t-317 -95q-87 0 -170.5 15t-157.5 45q-26 11 -34.5 33.5t7.5 60.5q16 39 37 50t45 0q66 -29 141 -42.5t148 -13.5q67 0 119.5 17.5t91 50t62.5 77.5t34 100l34 196
q-73 -72 -154.5 -109t-178.5 -37zM545 176q93 0 162.5 35t115 90t68 122.5t22.5 132.5q0 58 -18.5 103t-52.5 76t-82 47t-106 16q-84 0 -148.5 -33.5t-108 -88t-66 -124t-22.5 -140.5q0 -53 15 -96.5t45 -74.5t74 -48t102 -17z" />
    <glyph glyph-name="gcommaaccent" unicode="&#x123;" 
d="M518 28q-81 0 -148.5 26t-115.5 74.5t-75 117t-27 154.5q0 107 35 205.5t101.5 174.5t162.5 121t219 45q103 0 176.5 -48t118.5 -132l19 103q6 35 22.5 50t58.5 15t53.5 -15t5.5 -50l-162 -914q-32 -180 -151 -275t-317 -95q-87 0 -170.5 15t-157.5 45q-26 11 -34.5 33.5
t7.5 60.5q16 39 37 50t45 0q66 -29 141 -42.5t148 -13.5q67 0 119.5 17.5t91 50t62.5 77.5t34 100l34 196q-73 -72 -154.5 -109t-178.5 -37zM545 176q93 0 162.5 35t115 90t68 122.5t22.5 132.5q0 58 -18.5 103t-52.5 76t-82 47t-106 16q-84 0 -148.5 -33.5t-108 -88
t-66 -124t-22.5 -140.5q0 -53 15 -96.5t45 -74.5t74 -48t102 -17zM803.951 1405.91q10.999 16.999 30.998 26.998q19.999 10 42.9971 10q27.998 0 39.498 -14.999q11.499 -14.999 1.5 -40.998l-109.994 -290.981q-5.99902 -16 -18.498 -23.999
q-12.5 -7.99902 -29.499 -7.99902h-141.991q-19.998 0 -23.498 14.999t10.499 35.9971z" />
    <glyph glyph-name="gdotaccent" unicode="&#x121;" 
d="M518 28q-81 0 -148.5 26t-115.5 74.5t-75 117t-27 154.5q0 107 35 205.5t101.5 174.5t162.5 121t219 45q103 0 176.5 -48t118.5 -132l19 103q6 35 22.5 50t58.5 15t53.5 -15t5.5 -50l-162 -914q-32 -180 -151 -275t-317 -95q-87 0 -170.5 15t-157.5 45q-26 11 -34.5 33.5
t7.5 60.5q16 39 37 50t45 0q66 -29 141 -42.5t148 -13.5q67 0 119.5 17.5t91 50t62.5 77.5t34 100l34 196q-73 -72 -154.5 -109t-178.5 -37zM545 176q93 0 162.5 35t115 90t68 122.5t22.5 132.5q0 58 -18.5 103t-52.5 76t-82 47t-106 16q-84 0 -148.5 -33.5t-108 -88
t-66 -124t-22.5 -140.5q0 -53 15 -96.5t45 -74.5t74 -48t102 -17zM727 1079q-27 0 -49 9.5t-38.5 26t-25.5 38.5t-9 47q0 33 14 62.5t37 51.5t52.5 34.5t61.5 12.5q27 0 49 -9.5t38 -26t25 -38.5t9 -46q0 -34 -13.5 -63.5t-36.5 -51.5t-52.5 -34.5t-61.5 -12.5z" />
    <glyph glyph-name="hbar" unicode="&#x127;" 
d="M510 1126h263q34 0 46 -15t5 -53t-24 -53t-51 -15h-263l-42 -240q82 96 173 146t186 50q60 0 107 -18.5t80 -52t50.5 -81.5t17.5 -107q0 -18 -1.5 -37.5t-5.5 -39.5l-84 -474h82q34 0 46 -15t5 -53q-6 -38 -23 -53t-51 -15h-169q-34 0 -46.5 15t-5.5 53l95 537
q2 14 3.5 27t1.5 26q0 64 -32 102t-101 38q-64 0 -127.5 -31t-117 -85t-92.5 -126t-53 -154l-61 -347q-6 -35 -25 -50t-61 -15t-56 15t-8 50l165 935h-149q-34 0 -46 15t-5 53t24 53t51 15h149l9 50h-92q-34 0 -46 15t-5 53t24 53t51 15h179q34 0 46 -15t5 -53z" />
    <glyph glyph-name="hcircumflex" unicode="&#x125;" 
d="M487 1409q-20 -10 -36.5 -2t-24.5 24t-5.5 34t19.5 31l308 232q25 18 58 18q32 0 52 -18l246 -232q13 -13 11.5 -31.5t-11.5 -34.5q-11 -16 -27 -24t-32 3l-252 159zM444 750q82 96 173 146t186 50q60 0 107 -18.5t80 -52t50.5 -81.5t17.5 -107q0 -18 -1.5 -37.5
t-5.5 -39.5l-84 -474h82q34 0 46 -15t5 -53q-6 -38 -23 -53t-51 -15h-169q-34 0 -46.5 15t-5.5 53l95 537q2 14 3.5 27t1.5 26q0 64 -32 102t-101 38q-64 0 -127.5 -31t-117 -85t-92.5 -126t-53 -154l-61 -347q-6 -35 -25 -50t-61 -15t-56 15t-8 50l198 1121h-92
q-34 0 -46 15t-5 53t24 53t51 15h179q34 0 46 -15t5 -53z" />
    <glyph glyph-name="ibreve" unicode="&#x12d;" 
d="M298 788q-34 0 -45.5 15t-5.5 53q7 38 24 53t51 15h340q34 0 46 -15t5 -53l-96 -546q-3 -18 -5 -35t-2 -31q0 -63 32 -91.5t102 -28.5q58 0 114 19t118 57q25 15 47 5.5t36 -44.5q14 -36 6 -58t-36 -38q-153 -87 -300 -87q-131 0 -200 66.5t-69 184.5q0 40 7 78l84 481
h-253zM616 1215q103 0 172 27.5t115 95.5q12 17 35 19.5t43 -5.5q19 -8 30 -22t3 -32q-43 -104 -148 -165.5t-261 -61.5q-78 0 -139.5 16t-105.5 45.5t-69.5 71.5t-30.5 94q-2 19 11.5 33t31.5 21q19 8 37.5 5t24.5 -19q26 -68 87 -95.5t164 -27.5z" />
    <glyph glyph-name="imacron" unicode="&#x12b;" 
d="M914 1246q34 0 46 -15t5 -53t-24 -53t-51 -15h-562q-34 0 -46 15t-5 53t24 53t51 15h562zM298 788q-34 0 -45.5 15t-5.5 53q7 38 24 53t51 15h340q34 0 46 -15t5 -53l-96 -546q-3 -18 -5 -35t-2 -31q0 -63 32 -91.5t102 -28.5q58 0 114 19t118 57q25 15 47 5.5t36 -44.5
q14 -36 6 -58t-36 -38q-153 -87 -300 -87q-131 0 -200 66.5t-69 184.5q0 40 7 78l84 481h-253z" />
    <glyph glyph-name="iogonek" unicode="&#x12f;" 
d="M298 788q-34 0 -45.5 15t-5.5 53q7 38 24 53t51 15h340q34 0 46 -15t5 -53l-96 -546q-3 -18 -5 -35t-2 -31q0 -63 32 -91.5t102 -28.5q58 0 114 19t118 57q25 15 47 5.5t36 -44.5q14 -36 6 -58t-36 -38q-126 -72 -248 -84q-99 -81 -145.5 -144t-46.5 -114q0 -29 17.5 -44
t47.5 -15q29 0 56.5 2.5t54.5 7.5q40 6 47 -48q4 -28 -4.5 -44.5t-31.5 -24.5q-37 -13 -84 -21t-95 -8q-81 0 -124.5 45t-43.5 117q0 81 50.5 154.5t143.5 147.5q-80 24 -121.5 85t-41.5 152q0 40 7 78l84 481h-253zM768 1168q-6 -35 -27.5 -50t-78.5 -15t-73.5 15t-10.5 50
l23 130q6 35 28 50t79 15t73 -15t10 -50z" />
    <glyph glyph-name="itilde" unicode="&#x129;" 
d="M523 1297q37 0 71 -10t67 -21.5t65 -21.5t66 -10q30 0 65 10.5t70 31.5q17 10 33 3.5t29 -28.5t11.5 -41.5t-17.5 -32.5q-60 -50 -108.5 -70.5t-91.5 -20.5q-37 0 -71 10t-67 21.5t-65 21.5t-66 10q-30 0 -65 -10.5t-70 -31.5q-17 -10 -33 -3.5t-29 28.5t-11.5 41.5
t17.5 32.5q60 50 108.5 70.5t91.5 20.5zM298 788q-34 0 -45.5 15t-5.5 53q7 38 24 53t51 15h340q34 0 46 -15t5 -53l-96 -546q-3 -18 -5 -35t-2 -31q0 -63 32 -91.5t102 -28.5q58 0 114 19t118 57q25 15 47 5.5t36 -44.5q14 -36 6 -58t-36 -38q-153 -87 -300 -87
q-131 0 -200 66.5t-69 184.5q0 40 7 78l84 481h-253z" />
    <glyph glyph-name="jcircumflex" unicode="&#x135;" 
d="M932 924q34 0 46 -15t5 -53l-161 -918q-15 -86 -43.5 -152t-74.5 -110.5t-110.5 -67.5t-151.5 -23q-43 0 -88 9t-88 24t-83 35.5t-73 44.5q-22 16 -28 38t17 60t47 42.5t44 -10.5q59 -42 128.5 -69.5t139.5 -27.5q50 0 86.5 13.5t62 41t41.5 69t26 96.5l147 837h-423
q-34 0 -45.5 15t-5.5 53q7 38 24 53t51 15h510zM547 1039q-20 -10 -36.5 -2t-24.5 24t-5.5 34t19.5 31l308 232q25 18 58 18q32 0 52 -18l246 -232q13 -13 11.5 -31.5t-11.5 -34.5q-11 -16 -27 -24t-32 3l-252 159z" />
    <glyph glyph-name="kcommaaccent" unicode="&#x137;" 
d="M1127 924q34 0 46 -15t5 -53q-6 -38 -23.5 -53t-51.5 -15h-55l-414 -302q100 16 171 -62q27 -29 44.5 -65t31.5 -71.5t27.5 -67.5t31.5 -53q12 -14 28 -22.5t37 -8.5h24q34 0 46 -15t5 -53q-6 -38 -23 -53t-51 -15h-43q-34 0 -64 9.5t-51 30.5q-33 33 -53 71.5t-35 77.5
t-29.5 74.5t-36.5 61.5q-24 27 -58 40.5t-72 13.5q-36 0 -77.5 -11.5t-71.5 -33.5l-18 -13l-47 -266q-6 -35 -25 -50t-61 -15t-56 15t-8 50l198 1121h-131q-34 0 -46 15t-5 53t24 53t51 15h218q34 0 46 -15t5 -53l-132 -747l395 291h-54q-34 0 -45.5 15t-5.5 53q7 38 24 53
t51 15h334zM455 -488q-11 -17 -31 -27t-43 -10q-28 0 -39.5 15t-1.5 41l110 291q6 16 18.5 24t29.5 8h142q20 0 23.5 -15t-10.5 -36z" />
    <glyph glyph-name="lacute" unicode="&#x13a;" 
d="M910 1733q13 7 24.5 10t23 -2t24.5 -19.5t29 -42.5q15 -27 20.5 -45.5t4.5 -31t-8 -20t-17 -10.5l-481 -163q-19 -6 -33.5 4.5t-21.5 27.5t-2.5 34.5t21.5 27.5zM1009 65q-153 -87 -300 -87q-131 0 -200 66.5t-69 184.5q0 18 1.5 38t5.5 40l153 869h-273q-34 0 -46 15
t-5 53t24 53t51 15h360q34 0 46 -15t5 -53l-165 -934q-3 -19 -5 -35.5t-2 -31.5q0 -63 32.5 -91t101.5 -28q58 0 114 19t118 57q25 15 47 5.5t36 -44.5q14 -36 6 -58t-36 -38z" />
    <glyph glyph-name="lcaron" unicode="&#x13e;" 
d="M906.055 834.304q-23.502 -34.8643 -68.0752 -34.8643q-28.3652 0 -40.1162 15t-1.21582 40.9453l141.014 361.612q12.1572 32.4316 47.8154 32.4316h153.17q20.2607 0 24.3135 -14.999q4.05176 -15 -10.5361 -36.0801zM1009 65q-153 -87 -300 -87q-131 0 -200 66.5
t-69 184.5q0 18 1.5 38t5.5 40l153 869h-273q-34 0 -46 15t-5 53t24 53t51 15h360q34 0 46 -15t5 -53l-165 -934q-3 -19 -5 -35.5t-2 -31.5q0 -63 32.5 -91t101.5 -28q58 0 114 19t118 57q25 15 47 5.5t36 -44.5q14 -36 6 -58t-36 -38z" />
    <glyph glyph-name="lcommaaccent" unicode="&#x13c;" 
d="M1009 65q-153 -87 -300 -87q-131 0 -200 66.5t-69 184.5q0 18 1.5 38t5.5 40l153 869h-273q-34 0 -46 15t-5 53t24 53t51 15h360q34 0 46 -15t5 -53l-165 -934q-3 -19 -5 -35.5t-2 -31.5q0 -63 32.5 -91t101.5 -28q58 0 114 19t118 57q25 15 47 5.5t36 -44.5
q14 -36 6 -58t-36 -38zM525 -488q-11 -17 -31 -27t-43 -10q-28 0 -39.5 15t-1.5 41l110 291q6 16 18.5 24t29.5 8h142q20 0 23.5 -15t-10.5 -36z" />
    <glyph glyph-name="ldot" unicode="&#x140;" 
d="M979 65q-153 -87 -300 -87q-131 0 -200 66.5t-69 184.5q0 18 1.5 38t5.5 40l153 869h-273q-34 0 -46 15t-5 53t24 53t51 15h360q34 0 46 -15t5 -53l-165 -934q-3 -19 -5 -35.5t-2 -31.5q0 -63 32.5 -91t101.5 -28q58 0 114 19t118 57q25 15 47 5.5t36 -44.5q14 -36 6 -58
t-36 -38zM939 579q-27 0 -49 9.5t-38.5 26t-25.5 38.5t-9 47q0 33 14 62.5t37 51.5t52.5 34.5t61.5 12.5q27 0 49 -9.5t38 -26t25 -38.5t9 -46q0 -34 -13.5 -63.5t-36.5 -51.5t-52.5 -34.5t-61.5 -12.5z" />
    <glyph glyph-name="nacute" unicode="&#x144;" 
d="M950 1363q13 7 24.5 10t23 -2t24.5 -19.5t29 -42.5q15 -27 20.5 -45.5t4.5 -31t-8 -20t-17 -10.5l-481 -163q-19 -6 -33.5 4.5t-21.5 27.5t-2.5 34.5t21.5 27.5zM411 924q34 0 46 -15t5 -53l-21 -120q85 103 179 156.5t193 53.5q60 0 107.5 -18.5t80 -52.5t50 -82
t17.5 -107q0 -38 -7 -76l-84 -474h82q34 0 46 -15t5 -53q-6 -38 -23 -53t-51 -15h-169q-34 0 -46.5 15t-5.5 53l95 537q2 14 3.5 27.5t1.5 26.5q0 64 -32 101.5t-101 37.5q-64 0 -127.5 -31t-117 -85t-92.5 -126t-53 -154l-61 -347q-6 -35 -25 -50t-61 -15t-56 15t-8 50
l129 733h-102q-34 0 -45.5 15t-5.5 53q7 38 24 53t51 15h179z" />
    <glyph glyph-name="ncaron" unicode="&#x148;" 
d="M1035 1384q20 10 36.5 2t24.5 -24t5.5 -34t-19.5 -31l-308 -232q-26 -18 -58 -18q-33 0 -52 18l-246 232q-13 13 -11.5 31.5t11.5 34.5q11 16 27 24t32 -3l252 -159zM411 924q34 0 46 -15t5 -53l-21 -120q85 103 179 156.5t193 53.5q60 0 107.5 -18.5t80 -52.5t50 -82
t17.5 -107q0 -38 -7 -76l-84 -474h82q34 0 46 -15t5 -53q-6 -38 -23 -53t-51 -15h-169q-34 0 -46.5 15t-5.5 53l95 537q2 14 3.5 27.5t1.5 26.5q0 64 -32 101.5t-101 37.5q-64 0 -127.5 -31t-117 -85t-92.5 -126t-53 -154l-61 -347q-6 -35 -25 -50t-61 -15t-56 15t-8 50
l129 733h-102q-34 0 -45.5 15t-5.5 53q7 38 24 53t51 15h179z" />
    <glyph glyph-name="ncommaaccent" unicode="&#x146;" 
d="M411 924q34 0 46 -15t5 -53l-21 -120q85 103 179 156.5t193 53.5q60 0 107.5 -18.5t80 -52.5t50 -82t17.5 -107q0 -38 -7 -76l-84 -474h82q34 0 46 -15t5 -53q-6 -38 -23 -53t-51 -15h-169q-34 0 -46.5 15t-5.5 53l95 537q2 14 3.5 27.5t1.5 26.5q0 64 -32 101.5
t-101 37.5q-64 0 -127.5 -31t-117 -85t-92.5 -126t-53 -154l-61 -347q-6 -35 -25 -50t-61 -15t-56 15t-8 50l129 733h-102q-34 0 -45.5 15t-5.5 53q7 38 24 53t51 15h179zM445 -488q-11 -17 -31 -27t-43 -10q-28 0 -39.5 15t-1.5 41l110 291q6 16 18.5 24t29.5 8h142
q20 0 23.5 -15t-10.5 -36z" />
    <glyph glyph-name="obreve" unicode="&#x14f;" 
d="M736 1215q103 0 172 27.5t115 95.5q12 17 35 19.5t43 -5.5q19 -8 30 -22t3 -32q-43 -104 -148 -165.5t-261 -61.5q-78 0 -139.5 16t-105.5 45.5t-69.5 71.5t-30.5 94q-2 19 11.5 33t31.5 21q19 8 37.5 5t24.5 -19q26 -68 87 -95.5t164 -27.5zM126 386q0 110 41.5 211
t117 178.5t181 124t234.5 46.5q94 0 172 -30.5t134 -85t87 -129.5t31 -163q0 -110 -41.5 -211t-117 -178.5t-181 -124t-234.5 -46.5q-94 0 -172 30.5t-134 85t-87 129t-31 163.5zM283 394q0 -60 19.5 -109t56 -84.5t89 -55t118.5 -19.5q88 0 161.5 33t127 89t83 129
t29.5 153q0 60 -19.5 109t-56 84.5t-89 55t-118.5 19.5q-88 0 -161.5 -33t-127 -89t-83 -129t-29.5 -153z" />
    <glyph glyph-name="ohungarumlaut" unicode="&#x151;" 
d="M126 386q0 110 41.5 211t117 178.5t181 124t234.5 46.5q94 0 172 -30.5t134 -85t87 -129.5t31 -163q0 -110 -41.5 -211t-117 -178.5t-181 -124t-234.5 -46.5q-94 0 -172 30.5t-134 85t-87 129t-31 163.5zM283 394q0 -60 19.5 -109t56 -84.5t89 -55t118.5 -19.5
q88 0 161.5 33t127 89t83 129t29.5 153q0 60 -19.5 109t-56 84.5t-89 55t-118.5 19.5q-88 0 -161.5 -33t-127 -89t-83 -129t-29.5 -153zM905 1066q-18 -13 -42 -13q-10 0 -20.5 3.5t-19.5 9.5t-15 15t-6 20q0 16 13 29l233 225q13 13 29 20.5t36 7.5q14 0 32 -6t33.5 -16.5
t26 -24.5t10.5 -29q0 -12 -6 -22.5t-16 -17.5zM555 1066q-18 -13 -42 -13q-10 0 -20.5 3.5t-19.5 9.5t-15 15t-6 20q0 16 13 29l233 225q13 13 29 20.5t36 7.5q14 0 32 -6t33.5 -16.5t26 -24.5t10.5 -29q0 -12 -6 -22.5t-16 -17.5z" />
    <glyph glyph-name="omacron" unicode="&#x14d;" 
d="M1024 1246q34 0 46 -15t5 -53t-24 -53t-51 -15h-562q-34 0 -46 15t-5 53t24 53t51 15h562zM126 386q0 110 41.5 211t117 178.5t181 124t234.5 46.5q94 0 172 -30.5t134 -85t87 -129.5t31 -163q0 -110 -41.5 -211t-117 -178.5t-181 -124t-234.5 -46.5q-94 0 -172 30.5
t-134 85t-87 129t-31 163.5zM283 394q0 -60 19.5 -109t56 -84.5t89 -55t118.5 -19.5q88 0 161.5 33t127 89t83 129t29.5 153q0 60 -19.5 109t-56 84.5t-89 55t-118.5 19.5q-88 0 -161.5 -33t-127 -89t-83 -129t-29.5 -153z" />
    <glyph glyph-name="racute" unicode="&#x155;" 
d="M1000 1363q13 7 24.5 10t23 -2t24.5 -19.5t29 -42.5q15 -27 20.5 -45.5t4.5 -31t-8 -20t-17 -10.5l-481 -163q-19 -6 -33.5 4.5t-21.5 27.5t-2.5 34.5t21.5 27.5zM536 924q34 0 46 -15t5 -53l-35 -202q49 67 104 121t113 92t116.5 58.5t113.5 20.5q75 0 136 -40
q26 -17 36.5 -43.5t-9.5 -64.5q-40 -77 -89 -45q-21 14 -45.5 20t-50.5 6q-46 0 -95.5 -17.5t-99 -48.5t-95.5 -74.5t-83.5 -95.5t-64.5 -111.5t-38 -121.5l-31 -174h337q34 0 46 -15t5 -53q-6 -38 -23 -53t-51 -15h-644q-34 0 -46 15t-6 53q7 38 24 53t51 15h157l115 652
h-127q-34 0 -45.5 15t-5.5 53q7 38 24 53t51 15h204z" />
    <glyph glyph-name="rcaron" unicode="&#x159;" 
d="M1065 1384q20 10 36.5 2t24.5 -24t5.5 -34t-19.5 -31l-308 -232q-26 -18 -58 -18q-33 0 -52 18l-246 232q-13 13 -11.5 31.5t11.5 34.5q11 16 27 24t32 -3l252 -159zM536 924q34 0 46 -15t5 -53l-35 -202q49 67 104 121t113 92t116.5 58.5t113.5 20.5q75 0 136 -40
q26 -17 36.5 -43.5t-9.5 -64.5q-40 -77 -89 -45q-21 14 -45.5 20t-50.5 6q-46 0 -95.5 -17.5t-99 -48.5t-95.5 -74.5t-83.5 -95.5t-64.5 -111.5t-38 -121.5l-31 -174h337q34 0 46 -15t5 -53q-6 -38 -23 -53t-51 -15h-644q-34 0 -46 15t-6 53q7 38 24 53t51 15h157l115 652
h-127q-34 0 -45.5 15t-5.5 53q7 38 24 53t51 15h204z" />
    <glyph glyph-name="rcommaaccent" unicode="&#x157;" 
d="M536 924q34 0 46 -15t5 -53l-35 -202q49 67 104 121t113 92t116.5 58.5t113.5 20.5q75 0 136 -40q26 -17 36.5 -43.5t-9.5 -64.5q-40 -77 -89 -45q-21 14 -45.5 20t-50.5 6q-46 0 -95.5 -17.5t-99 -48.5t-95.5 -74.5t-83.5 -95.5t-64.5 -111.5t-38 -121.5l-31 -174h337
q34 0 46 -15t5 -53q-6 -38 -23 -53t-51 -15h-644q-34 0 -46 15t-6 53q7 38 24 53t51 15h157l115 652h-127q-34 0 -45.5 15t-5.5 53q7 38 24 53t51 15h204zM335 -488q-11 -17 -31 -27t-43 -10q-28 0 -39.5 15t-1.5 41l110 291q6 16 18.5 24t29.5 8h142q20 0 23.5 -15
t-10.5 -36z" />
    <glyph glyph-name="sacute" unicode="&#x15b;" 
d="M940 1363q13 7 24.5 10t23 -2t24.5 -19.5t29 -42.5q15 -27 20.5 -45.5t4.5 -31t-8 -20t-17 -10.5l-481 -163q-19 -6 -33.5 4.5t-21.5 27.5t-2.5 34.5t21.5 27.5zM266 43q-6 -35 -25 -50t-61 -15t-56 15t-8 50l42 240q6 35 25.5 50t61.5 15q22 0 32 -9.5t15 -31.5
q20 -97 96 -140.5t215 -43.5q79 0 131 17.5t82.5 43.5t42.5 55.5t12 53.5q0 37 -30 57.5t-78 31.5q-46 11 -93.5 16.5l-95 11t-95 13.5t-94.5 24q-34 11 -62.5 27t-49.5 38t-32.5 50.5t-11.5 66.5q0 62 25 119t75 101t126.5 70.5t178.5 26.5q100 0 174.5 -29.5t122.5 -80.5
l8 45q6 35 25 50t61 15t56 -15t8 -50l-34 -190q-6 -35 -25 -50t-61 -15q-35 0 -44 26q-15 43 -42.5 72t-66.5 46t-89 24t-108 7q-59 0 -102.5 -12.5t-72 -33t-42 -47t-13.5 -53.5q0 -35 29.5 -53t79.5 -29q46 -10 92.5 -15.5t93.5 -11t94 -13.5t92 -23q34 -11 63.5 -27.5
t51.5 -39.5t34 -53.5t12 -69.5q0 -33 -8.5 -71.5t-28.5 -76.5t-53.5 -73t-82.5 -62t-116 -43t-154 -16q-109 0 -185 30t-127 91z" />
    <glyph glyph-name="scedilla" unicode="&#x15f;" 
d="M266 43q-6 -35 -25 -50t-61 -15t-56 15t-8 50l42 240q6 35 25.5 50t61.5 15q22 0 32 -9.5t15 -31.5q20 -97 96 -140.5t215 -43.5q79 0 131 17.5t82.5 43.5t42.5 55.5t12 53.5q0 37 -30 57.5t-78 31.5q-46 11 -93.5 16.5l-95 11t-95 13.5t-94.5 24q-34 11 -62.5 27
t-49.5 38t-32.5 50.5t-11.5 66.5q0 62 25 119t75 101t126.5 70.5t178.5 26.5q100 0 174.5 -29.5t122.5 -80.5l8 45q6 35 25 50t61 15t56 -15t8 -50l-34 -190q-6 -35 -25 -50t-61 -15q-35 0 -44 26q-15 43 -42.5 72t-66.5 46t-89 24t-108 7q-59 0 -102.5 -12.5t-72 -33
t-42 -47t-13.5 -53.5q0 -35 29.5 -53t79.5 -29q46 -10 92.5 -15.5t93.5 -11t94 -13.5t92 -23q34 -11 63.5 -27.5t51.5 -39.5t34 -53.5t12 -69.5q0 -48 -18.5 -105t-64.5 -107.5t-123.5 -86.5t-195.5 -42l-16 -92q46 1 79.5 -10.5t55.5 -31t32.5 -46.5t10.5 -57
q0 -15 -3 -33.5t-10 -37.5t-17 -36.5t-24 -32.5q-33 -35 -87.5 -54.5t-132.5 -19.5q-67 0 -128.5 12t-109.5 36q-17 9 -17.5 29.5t10.5 40.5q10 19 26 31t33 5q37 -15 86.5 -24.5t100.5 -9.5q60 0 88 23t28 58q0 34 -35 46t-99 8q-7 0 -14 1t-12 5.5t-7 13t1 22.5l27 159
q-143 21 -219 115z" />
    <glyph glyph-name="scircumflex" unicode="&#x15d;" 
d="M427 1039q-20 -10 -36.5 -2t-24.5 24t-5.5 34t19.5 31l308 232q25 18 58 18q32 0 52 -18l246 -232q13 -13 11.5 -31.5t-11.5 -34.5q-11 -16 -27 -24t-32 3l-252 159zM266 43q-6 -35 -25 -50t-61 -15t-56 15t-8 50l42 240q6 35 25.5 50t61.5 15q22 0 32 -9.5t15 -31.5
q20 -97 96 -140.5t215 -43.5q79 0 131 17.5t82.5 43.5t42.5 55.5t12 53.5q0 37 -30 57.5t-78 31.5q-46 11 -93.5 16.5l-95 11t-95 13.5t-94.5 24q-34 11 -62.5 27t-49.5 38t-32.5 50.5t-11.5 66.5q0 62 25 119t75 101t126.5 70.5t178.5 26.5q100 0 174.5 -29.5t122.5 -80.5
l8 45q6 35 25 50t61 15t56 -15t8 -50l-34 -190q-6 -35 -25 -50t-61 -15q-35 0 -44 26q-15 43 -42.5 72t-66.5 46t-89 24t-108 7q-59 0 -102.5 -12.5t-72 -33t-42 -47t-13.5 -53.5q0 -35 29.5 -53t79.5 -29q46 -10 92.5 -15.5t93.5 -11t94 -13.5t92 -23q34 -11 63.5 -27.5
t51.5 -39.5t34 -53.5t12 -69.5q0 -33 -8.5 -71.5t-28.5 -76.5t-53.5 -73t-82.5 -62t-116 -43t-154 -16q-109 0 -185 30t-127 91z" />
    <glyph glyph-name="scommaaccent" unicode="&#x219;" 
d="M266 43q-6 -35 -25 -50t-61 -15t-56 15t-8 50l42 240q6 35 25.5 50t61.5 15q22 0 32 -9.5t15 -31.5q20 -97 96 -140.5t215 -43.5q79 0 131 17.5t82.5 43.5t42.5 55.5t12 53.5q0 37 -30 57.5t-78 31.5q-46 11 -93.5 16.5l-95 11t-95 13.5t-94.5 24q-34 11 -62.5 27
t-49.5 38t-32.5 50.5t-11.5 66.5q0 62 25 119t75 101t126.5 70.5t178.5 26.5q100 0 174.5 -29.5t122.5 -80.5l8 45q6 35 25 50t61 15t56 -15t8 -50l-34 -190q-6 -35 -25 -50t-61 -15q-35 0 -44 26q-15 43 -42.5 72t-66.5 46t-89 24t-108 7q-59 0 -102.5 -12.5t-72 -33
t-42 -47t-13.5 -53.5q0 -35 29.5 -53t79.5 -29q46 -10 92.5 -15.5t93.5 -11t94 -13.5t92 -23q34 -11 63.5 -27.5t51.5 -39.5t34 -53.5t12 -69.5q0 -33 -8.5 -71.5t-28.5 -76.5t-53.5 -73t-82.5 -62t-116 -43t-154 -16q-109 0 -185 30t-127 91zM455 -488q-11 -17 -31 -27
t-43 -10q-28 0 -39.5 15t-1.5 41l110 291q6 16 18.5 24t29.5 8h142q20 0 23.5 -15t-10.5 -36z" />
    <glyph glyph-name="tbar" unicode="&#x167;" 
d="M461 844l53 300q6 35 25.5 50t61.5 15t55.5 -15t7.5 -50l-53 -300h411q34 0 46 -15t5 -53q-6 -38 -23.5 -53t-51.5 -15h-411l-23 -132h272q34 0 46 -15t5 -53t-24 -53t-51 -15h-272l-17 -96q-9 -47 -9 -83q0 -69 33.5 -103t113.5 -34q70 0 149 29t152 72q25 15 47 5.5
t36 -44.5q14 -36 6 -58t-36 -38q-42 -24 -88 -44.5t-94 -35.5t-95.5 -23.5t-91.5 -8.5q-146 0 -214.5 67t-68.5 192q0 24 2.5 50t7.5 54l17 99h-140q-34 0 -46 15t-5 53t24 53t51 15h140l23 132h-203q-34 0 -45.5 15t-5.5 53q7 38 24 53t51 15h203z" />
    <glyph glyph-name="tcaron" unicode="&#x165;" 
d="M461 844l53 300q6 35 25.5 50t61.5 15t55.5 -15t7.5 -50l-53 -300h411q34 0 46 -15t5 -53q-6 -38 -23.5 -53t-51.5 -15h-411l-64 -364q-9 -47 -9 -83q0 -69 33.5 -103t113.5 -34q70 0 149 29t152 72q25 15 47 5.5t36 -44.5q14 -36 6 -58t-36 -38q-42 -24 -88 -44.5
t-94 -35.5t-95.5 -23.5t-91.5 -8.5q-146 0 -214.5 67t-68.5 192q0 24 2.5 50t7.5 54l64 367h-203q-34 0 -45.5 15t-5.5 53q7 38 24 53t51 15h203zM973 1058q-11 -17 -31 -27t-43 -10q-28 0 -39.5 15t-1.5 41l110 291q6 16 18.5 24t29.5 8h142q20 0 23.5 -15t-10.5 -36z" />
    <glyph glyph-name="tcommaaccent" unicode="&#x163;" 
d="M461 844l53 300q6 35 25.5 50t61.5 15t55.5 -15t7.5 -50l-53 -300h411q34 0 46 -15t5 -53q-6 -38 -23.5 -53t-51.5 -15h-411l-64 -364q-9 -47 -9 -83q0 -69 33.5 -103t113.5 -34q70 0 149 29t152 72q25 15 47 5.5t36 -44.5q14 -36 6 -58t-36 -38q-42 -24 -88 -44.5
t-94 -35.5t-95.5 -23.5t-91.5 -8.5q-146 0 -214.5 67t-68.5 192q0 24 2.5 50t7.5 54l64 367h-203q-34 0 -45.5 15t-5.5 53q7 38 24 53t51 15h203zM515 -488q-11 -17 -31 -27t-43 -10q-28 0 -39.5 15t-1.5 41l110 291q6 16 18.5 24t29.5 8h142q20 0 23.5 -15t-10.5 -36z" />
    <glyph glyph-name="ubreve" unicode="&#x16d;" 
d="M706 1215q103 0 172 27.5t115 95.5q12 17 35 19.5t43 -5.5q19 -8 30 -22t3 -32q-43 -104 -148 -165.5t-261 -61.5q-78 0 -139.5 16t-105.5 45.5t-69.5 71.5t-30.5 94q-2 19 11.5 33t31.5 21q19 8 37.5 5t24.5 -19q26 -68 87 -95.5t164 -27.5zM352 319q-2 -14 -3.5 -27.5
t-1.5 -26.5q0 -64 32 -101.5t101 -37.5q64 0 127.5 31t117 85t92 126t53.5 154l47 266h-142q-34 0 -45.5 15t-5.5 53q7 38 24 53t51 15h229q34 0 46 -15t5 -53l-127 -720h82q34 0 46 -15t5 -53q-6 -38 -23 -53t-51 -15h-160q-34 0 -46 15t-5 53l21 120q-85 -103 -179 -156.5
t-193 -53.5q-60 0 -107.5 18.5t-80 52.5t-50 82t-17.5 107q0 18 1.5 37t5.5 39l84 474h-82q-34 0 -45.5 15t-5.5 53q7 38 24 53t51 15h169q34 0 46 -15t5 -53z" />
    <glyph glyph-name="uhungarumlaut" unicode="&#x171;" 
d="M352 319q-2 -14 -3.5 -27.5t-1.5 -26.5q0 -64 32 -101.5t101 -37.5q64 0 127.5 31t117 85t92 126t53.5 154l47 266h-142q-34 0 -45.5 15t-5.5 53q7 38 24 53t51 15h229q34 0 46 -15t5 -53l-127 -720h82q34 0 46 -15t5 -53q-6 -38 -23 -53t-51 -15h-160q-34 0 -46 15
t-5 53l21 120q-85 -103 -179 -156.5t-193 -53.5q-60 0 -107.5 18.5t-80 52.5t-50 82t-17.5 107q0 18 1.5 37t5.5 39l84 474h-82q-34 0 -45.5 15t-5.5 53q7 38 24 53t51 15h169q34 0 46 -15t5 -53zM845 1066q-18 -13 -42 -13q-10 0 -20.5 3.5t-19.5 9.5t-15 15t-6 20
q0 16 13 29l233 225q13 13 29 20.5t36 7.5q14 0 32 -6t33.5 -16.5t26 -24.5t10.5 -29q0 -12 -6 -22.5t-16 -17.5zM495 1066q-18 -13 -42 -13q-10 0 -20.5 3.5t-19.5 9.5t-15 15t-6 20q0 16 13 29l233 225q13 13 29 20.5t36 7.5q14 0 32 -6t33.5 -16.5t26 -24.5t10.5 -29
q0 -12 -6 -22.5t-16 -17.5z" />
    <glyph glyph-name="umacron" unicode="&#x16b;" 
d="M1024 1246q34 0 46 -15t5 -53t-24 -53t-51 -15h-562q-34 0 -46 15t-5 53t24 53t51 15h562zM352 319q-2 -14 -3.5 -27.5t-1.5 -26.5q0 -64 32 -101.5t101 -37.5q64 0 127.5 31t117 85t92 126t53.5 154l47 266h-142q-34 0 -45.5 15t-5.5 53q7 38 24 53t51 15h229
q34 0 46 -15t5 -53l-127 -720h82q34 0 46 -15t5 -53q-6 -38 -23 -53t-51 -15h-160q-34 0 -46 15t-5 53l21 120q-85 -103 -179 -156.5t-193 -53.5q-60 0 -107.5 18.5t-80 52.5t-50 82t-17.5 107q0 18 1.5 37t5.5 39l84 474h-82q-34 0 -45.5 15t-5.5 53q7 38 24 53t51 15h169
q34 0 46 -15t5 -53z" />
    <glyph glyph-name="uogonek" unicode="&#x173;" 
d="M352 319q-2 -14 -3.5 -27.5t-1.5 -26.5q0 -64 32 -101.5t101 -37.5q64 0 127.5 31t117 85t92 126t53.5 154l47 266h-142q-34 0 -45.5 15t-5.5 53q7 38 24 53t51 15h229q34 0 46 -15t5 -53l-127 -720h82q34 0 46 -15t5 -53q-6 -38 -23 -53t-51 -15h-6
q-112 -88 -164 -155.5t-52 -121.5q0 -29 17.5 -44t47.5 -15q29 0 56.5 2.5t54.5 7.5q40 6 47 -48q4 -28 -4.5 -44.5t-31.5 -24.5q-37 -13 -84 -21t-95 -8q-81 0 -124.5 45t-43.5 117q0 83 53.5 159t151.5 152q-24 3 -32 19t-2 48l21 120q-85 -103 -179 -156.5t-193 -53.5
q-60 0 -107.5 18.5t-80 52.5t-50 82t-17.5 107q0 18 1.5 37t5.5 39l84 474h-82q-34 0 -45.5 15t-5.5 53q7 38 24 53t51 15h169q34 0 46 -15t5 -53z" />
    <glyph glyph-name="uring" unicode="&#x16f;" 
d="M352 319q-2 -14 -3.5 -27.5t-1.5 -26.5q0 -64 32 -101.5t101 -37.5q64 0 127.5 31t117 85t92 126t53.5 154l47 266h-142q-34 0 -45.5 15t-5.5 53q7 38 24 53t51 15h229q34 0 46 -15t5 -53l-127 -720h82q34 0 46 -15t5 -53q-6 -38 -23 -53t-51 -15h-160q-34 0 -46 15
t-5 53l21 120q-85 -103 -179 -156.5t-193 -53.5q-60 0 -107.5 18.5t-80 52.5t-50 82t-17.5 107q0 18 1.5 37t5.5 39l84 474h-82q-34 0 -45.5 15t-5.5 53q7 38 24 53t51 15h169q34 0 46 -15t5 -53zM694 1065q-46 0 -85 17t-67.5 46t-45 68.5t-16.5 83.5q0 50 20.5 99.5t57 89
t88.5 64t115 24.5q46 0 85 -17t67.5 -46.5t45 -68.5t16.5 -83q0 -51 -20.5 -100.5t-57 -89t-88.5 -63.5t-115 -24zM705 1185q28 0 55.5 12t48.5 32t34 47t13 57q0 45 -29.5 74.5t-76.5 29.5q-29 0 -56 -12t-48 -32.5t-33.5 -47.5t-12.5 -57q0 -45 29 -74t76 -29z" />
    <glyph glyph-name="utilde" unicode="&#x169;" 
d="M573 1297q37 0 71 -10t67 -21.5t65 -21.5t66 -10q30 0 65 10.5t70 31.5q17 10 33 3.5t29 -28.5t11.5 -41.5t-17.5 -32.5q-60 -50 -108.5 -70.5t-91.5 -20.5q-37 0 -71 10t-67 21.5t-65 21.5t-66 10q-30 0 -65 -10.5t-70 -31.5q-17 -10 -33 -3.5t-29 28.5t-11.5 41.5
t17.5 32.5q60 50 108.5 70.5t91.5 20.5zM352 319q-2 -14 -3.5 -27.5t-1.5 -26.5q0 -64 32 -101.5t101 -37.5q64 0 127.5 31t117 85t92 126t53.5 154l47 266h-142q-34 0 -45.5 15t-5.5 53q7 38 24 53t51 15h229q34 0 46 -15t5 -53l-127 -720h82q34 0 46 -15t5 -53
q-6 -38 -23 -53t-51 -15h-160q-34 0 -46 15t-5 53l21 120q-85 -103 -179 -156.5t-193 -53.5q-60 0 -107.5 18.5t-80 52.5t-50 82t-17.5 107q0 18 1.5 37t5.5 39l84 474h-82q-34 0 -45.5 15t-5.5 53q7 38 24 53t51 15h169q34 0 46 -15t5 -53z" />
    <glyph glyph-name="wacute" unicode="&#x1e83;" 
d="M121 788q-34 0 -45.5 15t-5.5 53q7 38 24 53t51 15h294q34 0 46 -15t5 -53q-6 -38 -23.5 -53t-51.5 -15h-126l42 -582l249 464q11 20 31 33.5t53 13.5q34 0 50 -10t20 -30l83 -471l250 582h-98q-34 0 -45.5 15t-5.5 53q7 38 24 53t51 15h274q34 0 46 -15t5 -53
q-6 -38 -23.5 -53t-51.5 -15h-21l-328 -745q-16 -36 -38 -50.5t-60 -14.5q-43 0 -65 15.5t-28 49.5l-76 434l-232 -434q-18 -35 -46 -50t-71 -15q-38 0 -54.5 15t-19.5 50l-62 745h-21zM960 1363q13 7 24.5 10t23 -2t24.5 -19.5t29 -42.5q15 -27 20.5 -45.5t4.5 -31t-8 -20
t-17 -10.5l-481 -163q-19 -6 -33.5 4.5t-21.5 27.5t-2.5 34.5t21.5 27.5z" />
    <glyph glyph-name="wcircumflex" unicode="&#x175;" 
d="M437 1039q-20 -10 -36.5 -2t-24.5 24t-5.5 34t19.5 31l308 232q25 18 58 18q32 0 52 -18l246 -232q13 -13 11.5 -31.5t-11.5 -34.5q-11 -16 -27 -24t-32 3l-252 159zM121 788q-34 0 -45.5 15t-5.5 53q7 38 24 53t51 15h294q34 0 46 -15t5 -53q-6 -38 -23.5 -53t-51.5 -15
h-126l42 -582l249 464q11 20 31 33.5t53 13.5q34 0 50 -10t20 -30l83 -471l250 582h-98q-34 0 -45.5 15t-5.5 53q7 38 24 53t51 15h274q34 0 46 -15t5 -53q-6 -38 -23.5 -53t-51.5 -15h-21l-328 -745q-16 -36 -38 -50.5t-60 -14.5q-43 0 -65 15.5t-28 49.5l-76 434
l-232 -434q-18 -35 -46 -50t-71 -15q-38 0 -54.5 15t-19.5 50l-62 745h-21z" />
    <glyph glyph-name="wdieresis" unicode="&#x1e85;" 
d="M121 788q-34 0 -45.5 15t-5.5 53q7 38 24 53t51 15h294q34 0 46 -15t5 -53q-6 -38 -23.5 -53t-51.5 -15h-126l42 -582l249 464q11 20 31 33.5t53 13.5q34 0 50 -10t20 -30l83 -471l250 582h-98q-34 0 -45.5 15t-5.5 53q7 38 24 53t51 15h274q34 0 46 -15t5 -53
q-6 -38 -23.5 -53t-51.5 -15h-21l-328 -745q-16 -36 -38 -50.5t-60 -14.5q-43 0 -65 15.5t-28 49.5l-76 434l-232 -434q-18 -35 -46 -50t-71 -15q-38 0 -54.5 15t-19.5 50l-62 745h-21zM496 1070q-48 0 -78 31.5t-30 76.5q0 29 12 54.5t32.5 45t46.5 31t54 11.5
q48 0 77.5 -31t29.5 -76q0 -30 -12 -56t-32 -45.5t-46 -30.5t-54 -11zM936 1070q-48 0 -78 31.5t-30 76.5q0 29 12 54.5t32.5 45t46.5 31t54 11.5q48 0 77.5 -31t29.5 -76q0 -30 -12 -56t-32 -45.5t-46 -30.5t-54 -11z" />
    <glyph glyph-name="wgrave" unicode="&#x1e81;" 
d="M121 788q-34 0 -45.5 15t-5.5 53q7 38 24 53t51 15h294q34 0 46 -15t5 -53q-6 -38 -23.5 -53t-51.5 -15h-126l42 -582l249 464q11 20 31 33.5t53 13.5q34 0 50 -10t20 -30l83 -471l250 582h-98q-34 0 -45.5 15t-5.5 53q7 38 24 53t51 15h274q34 0 46 -15t5 -53
q-6 -38 -23.5 -53t-51.5 -15h-21l-328 -745q-16 -36 -38 -50.5t-60 -14.5q-43 0 -65 15.5t-28 49.5l-76 434l-232 -434q-18 -35 -46 -50t-71 -15q-38 0 -54.5 15t-19.5 50l-62 745h-21zM892 1133q17 -10 21.5 -27.5t-2.5 -34.5t-21.5 -27.5t-33.5 -4.5l-481 163
q-10 3 -17 10.5t-8 20t4.5 31t20.5 45.5q16 28 29 42.5t24.5 19.5t23 2t24.5 -10z" />
    <glyph glyph-name="ycircumflex" unicode="&#x177;" 
d="M452 1039q-20 -10 -36.5 -2t-24.5 24t-5.5 34t19.5 31l308 232q25 18 58 18q32 0 52 -18l246 -232q13 -13 11.5 -31.5t-11.5 -34.5q-11 -16 -27 -24t-32 3l-252 159zM1207 924q34 0 46 -15t5 -53q-6 -38 -23.5 -53t-51.5 -15h-59l-556 -838q-65 -99 -122 -167
t-116 -110.5t-125 -63t-149 -23.5q-30 -1 -50.5 13t-20.5 54q0 44 17.5 63t44.5 21q70 4 121.5 19.5t99 53.5t98 102.5t118.5 165.5l-237 710h-66q-34 0 -45.5 15t-5.5 53q7 38 24 53t51 15h354q34 0 46 -15t5 -53q-6 -38 -23.5 -53t-51.5 -15h-132l183 -562l368 562h-85
q-34 0 -45.5 15t-5.5 53q7 38 24 53t51 15h314z" />
    <glyph glyph-name="ygrave" unicode="&#x1ef3;" 
d="M1207 924q34 0 46 -15t5 -53q-6 -38 -23.5 -53t-51.5 -15h-59l-556 -838q-65 -99 -122 -167t-116 -110.5t-125 -63t-149 -23.5q-30 -1 -50.5 13t-20.5 54q0 44 17.5 63t44.5 21q70 4 121.5 19.5t99 53.5t98 102.5t118.5 165.5l-237 710h-66q-34 0 -45.5 15t-5.5 53
q7 38 24 53t51 15h354q34 0 46 -15t5 -53q-6 -38 -23.5 -53t-51.5 -15h-132l183 -562l368 562h-85q-34 0 -45.5 15t-5.5 53q7 38 24 53t51 15h314zM902 1133q17 -10 21.5 -27.5t-2.5 -34.5t-21.5 -27.5t-33.5 -4.5l-481 163q-10 3 -17 10.5t-8 20t4.5 31t20.5 45.5
q16 28 29 42.5t24.5 19.5t23 2t24.5 -10z" />
    <glyph glyph-name="zacute" unicode="&#x17a;" 
d="M940 1363q13 7 24.5 10t23 -2t24.5 -19.5t29 -42.5q15 -27 20.5 -45.5t4.5 -31t-8 -20t-17 -10.5l-481 -163q-19 -6 -33.5 4.5t-21.5 27.5t-2.5 34.5t21.5 27.5zM863 136l31 172q6 35 25 50t61 15t56 -15t8 -50l-43 -240q-7 -38 -23.5 -53t-50.5 -15h-746q-34 0 -46 15
t-6 53q5 29 22 45l701 675h-446l-26 -149q-6 -35 -25 -50t-61 -15t-56 15t-8 50l38 217q7 38 24 53t51 15h716q34 0 46 -15t5 -53q-2 -16 -8.5 -27t-14.5 -19l-700 -674h476z" />
    <glyph glyph-name="zdotaccent" unicode="&#x17c;" 
d="M863 136l31 172q6 35 25 50t61 15t56 -15t8 -50l-43 -240q-7 -38 -23.5 -53t-50.5 -15h-746q-34 0 -46 15t-6 53q5 29 22 45l701 675h-446l-26 -149q-6 -35 -25 -50t-61 -15t-56 15t-8 50l38 217q7 38 24 53t51 15h716q34 0 46 -15t5 -53q-2 -16 -8.5 -27t-14.5 -19
l-700 -674h476zM724 1079q-27 0 -49 9.5t-38.5 26t-25.5 38.5t-9 47q0 33 14 62.5t37 51.5t52.5 34.5t61.5 12.5q27 0 49 -9.5t38 -26t25 -38.5t9 -46q0 -34 -13.5 -63.5t-36.5 -51.5t-52.5 -34.5t-61.5 -12.5z" />
    <glyph glyph-name="franc" unicode="&#x20a3;" 
d="M454 564l-26 -144h441q34 0 45.5 -15t5.5 -53q-7 -38 -24 -53t-51 -15h-441l-26 -148h232q34 0 46 -15t5 -53q-6 -38 -23 -53t-51 -15h-514q-34 0 -46 15t-6 53q7 38 24 53t51 15h132l26 148h-171q-34 0 -46 15t-5 53q6 38 23.5 53t51.5 15h171l112 631h-132
q-34 0 -46 15t-5 53t24 53t51 15h904q34 0 46 -15t5 -53l-47 -264q-6 -35 -25 -50t-61 -15t-56 15t-8 50l35 196h-535l-62 -351h345q34 0 46 -15t5 -53t-24 -53t-51 -15h-345z" />
    <glyph glyph-name="IJ" unicode="&#x132;" 
d="M294 1051h-86q-34 0 -46 15t-5 53t24 53t51 15h312q34 0 46 -15t5 -53t-24 -53t-51 -15h-76l-162 -915h96q34 0 46 -15t5 -53q-6 -38 -23 -53t-51 -15h-332q-34 0 -46 15t-6 53q7 38 24 53t51 15h86zM898 1051q-34 0 -46 15t-5 53t24 53t51 15h362q34 0 46 -15t5 -53
t-24 -53t-51 -15h-71l-144 -818q-11 -60 -33 -107t-59 -80t-89.5 -50.5t-123.5 -17.5q-34 0 -67 7.5t-62 20.5t-54 31.5t-43 41.5q-13 16 -7 51l51 285q6 35 25 50t61 15t56 -15t8 -50l-45 -254q17 -19 41 -27t53 -8q63 0 96.5 32.5t46.5 104.5l139 788h-141z" />
    <glyph glyph-name="ij" unicode="&#x133;" 
d="M387 250q-4 -20 -4 -40q0 -86 91 -86q59 0 121 20q29 9 45 -5t21 -55q5 -37 -6.5 -57t-41.5 -28q-35 -9 -74.5 -15t-79.5 -6q-54 0 -96.5 15.5t-71.5 44t-44 68t-15 87.5q0 30 5 58l94 537h-123q-34 0 -45.5 15t-5.5 53q7 38 24 53t51 15h210q34 0 46 -15t5 -53z
M548 1168q-6 -35 -27.5 -50t-78.5 -15t-73.5 15t-10.5 50l23 130q6 35 28 50t79 15t73 -15t10 -50zM1208 1168q-6 -35 -27.5 -50t-78.5 -15t-73.5 15t-10.5 50l23 130q6 35 28 50t79 15t73 -15t10 -50zM404 -204q52 -32 106.5 -48.5t117.5 -16.5q50 0 86.5 13.5t62 41
t41.5 69t26 96.5l147 837h-223q-34 0 -45.5 15t-5.5 53q7 38 24 53t51 15h310q34 0 46 -15t5 -53l-163 -928q-15 -86 -43.5 -150.5t-73.5 -107t-109.5 -64t-151.5 -21.5q-81 0 -154.5 21t-127.5 52q-24 14 -28.5 36.5t14.5 59.5q20 39 43 47.5t45 -5.5z" />
    <glyph glyph-name="dotlessj" unicode="&#x237;" 
d="M932 924q34 0 46 -15t5 -53l-161 -918q-15 -86 -43.5 -152t-74.5 -110.5t-110.5 -67.5t-151.5 -23q-43 0 -88 9t-88 24t-83 35.5t-73 44.5q-22 16 -28 38t17 60t47 42.5t44 -10.5q59 -42 128.5 -69.5t139.5 -27.5q50 0 86.5 13.5t62 41t41.5 69t26 96.5l147 837h-423
q-34 0 -45.5 15t-5.5 53q7 38 24 53t51 15h510z" />
    <glyph glyph-name="period.alt" 
d="M844 -22q-32 0 -58.5 11.5t-46 31t-30.5 46.5t-11 57q0 40 16.5 75t44.5 61t63 41t73 15q32 0 58.5 -11.5t46 -31t30 -45.5t10.5 -56q0 -40 -16.5 -75.5t-43.5 -61.5t-62.5 -41.5t-73.5 -15.5z" />
    <glyph glyph-name="comma.alt" 
d="M687 -253q-29 -41 -75 -41q-29 0 -46 17t-5 49l184 482q15 40 59 40h208q25 0 30 -18.5t-13 -44.5z" />
    <glyph glyph-name="colon.alt" 
d="M844 -22q-32 0 -58.5 11.5t-46 31t-30.5 46.5t-11 57q0 40 16.5 75t44.5 61t63 41t73 15q32 0 58.5 -11.5t46 -31t30 -45.5t10.5 -56q0 -40 -16.5 -75.5t-43.5 -61.5t-62.5 -41.5t-73.5 -15.5zM956 608q-32 0 -58.5 11.5t-46 31t-30.5 46.5t-11 57q0 40 16.5 75t44.5 61
t63 41t73 15q32 0 58.5 -11.5t46 -31t30 -45.5t10.5 -56q0 -40 -16.5 -75.5t-43.5 -61.5t-62.5 -41.5t-73.5 -15.5z" />
    <glyph glyph-name="semicolon.alt" 
d="M956 608q-32 0 -58.5 11.5t-46 31t-30.5 46.5t-11 57q0 40 16.5 75t44.5 61t63 41t73 15q32 0 58.5 -11.5t46 -31t30 -45.5t10.5 -56q0 -40 -16.5 -75.5t-43.5 -61.5t-62.5 -41.5t-73.5 -15.5zM687 -253q-29 -41 -75 -41q-29 0 -46 17t-5 49l184 482q15 40 59 40h208
q25 0 30 -18.5t-13 -44.5z" />
    <glyph glyph-name="ellipsis.alt1" 
d="M-356 -22q-32 0 -58.5 11.5t-46 31t-30.5 46.5t-11 57q0 40 16.5 75t44.5 61t63 41t73 15q32 0 58.5 -11.5t46 -31t30 -45.5t10.5 -56q0 -40 -16.5 -75.5t-43.5 -61.5t-62.5 -41.5t-73.5 -15.5zM544 -22q-32 0 -58.5 11.5t-46 31t-30.5 46.5t-11 57q0 40 16.5 75t44.5 61
t63 41t73 15q32 0 58.5 -11.5t46 -31t30 -45.5t10.5 -56q0 -40 -16.5 -75.5t-43.5 -61.5t-62.5 -41.5t-73.5 -15.5zM1444 -22q-32 0 -58.5 11.5t-46 31t-30.5 46.5t-11 57q0 40 16.5 75t44.5 61t63 41t73 15q32 0 58.5 -11.5t46 -31t30 -45.5t10.5 -56q0 -40 -16.5 -75.5
t-43.5 -61.5t-62.5 -41.5t-73.5 -15.5z" />
    <glyph glyph-name="ellipsis.alt2" horiz-adv-x="3684" 
d="M872 -22q-32 0 -58.5 11.5t-46 31t-30.5 46.5t-11 57q0 40 16.5 75t44.5 61t63 41t73 15q32 0 58.5 -11.5t46 -31t30 -45.5t10.5 -56q0 -40 -16.5 -75.5t-43.5 -61.5t-62.5 -41.5t-73.5 -15.5zM1772 -22q-32 0 -58.5 11.5t-46 31t-30.5 46.5t-11 57q0 40 16.5 75t44.5 61
t63 41t73 15q32 0 58.5 -11.5t46 -31t30 -45.5t10.5 -56q0 -40 -16.5 -75.5t-43.5 -61.5t-62.5 -41.5t-73.5 -15.5zM2672 -22q-32 0 -58.5 11.5t-46 31t-30.5 46.5t-11 57q0 40 16.5 75t44.5 61t63 41t73 15q32 0 58.5 -11.5t46 -31t30 -45.5t10.5 -56q0 -40 -16.5 -75.5
t-43.5 -61.5t-62.5 -41.5t-73.5 -15.5z" />
    <glyph glyph-name="ellipsis.alt3" 
d="M883 -22q-25 0 -46 9t-36.5 24.5t-24 36.5t-8.5 45q0 31 13 58.5t35 48t49.5 32.5t57.5 12q25 0 46 -9t36.5 -24.5t24 -36t8.5 -44.5q0 -32 -13 -59.5t-34.5 -48t-49.5 -32.5t-58 -12zM343 -22q-25 0 -46 9t-36.5 24.5t-24 36.5t-8.5 45q0 31 13 58.5t35 48t49.5 32.5
t57.5 12q25 0 46 -9t36.5 -24.5t24 -36t8.5 -44.5q0 -32 -13 -59.5t-34.5 -48t-49.5 -32.5t-58 -12zM1423 -22q-25 0 -46 9t-36.5 24.5t-24 36.5t-8.5 45q0 31 13 58.5t35 48t49.5 32.5t57.5 12q25 0 46 -9t36.5 -24.5t24 -36t8.5 -44.5q0 -32 -13 -59.5t-34.5 -48
t-49.5 -32.5t-58 -12z" />
    </font>
</defs>
</svg>
